<svg width="72" height="48" viewBox="0 0 72 48" fill="none" xmlns="http://www.w3.org/2000/svg">
<path d="M35.5147 29.6197H32.4855C32.1591 29.6197 32.1472 29.6072 32.1465 29.2725C32.1465 28.7136 32.1524 28.154 32.1465 27.5951C32.1465 27.3974 32.2101 27.3264 32.4115 27.3308C32.8979 27.3419 33.385 27.3308 33.8713 27.3375C34.049 27.3375 34.1186 27.2827 34.1141 27.0998C34.1052 26.7008 34.1178 26.3011 34.109 25.9014C34.1045 25.7111 34.1608 25.6297 34.3681 25.6319C35.1453 25.6418 35.9226 25.6418 36.6999 25.6319C36.8931 25.6319 36.9546 25.7059 36.9501 25.8888C36.9412 26.2737 36.956 26.6587 36.9442 27.0436C36.9375 27.2479 37.0182 27.3086 37.2129 27.3049C37.6919 27.2953 38.1716 27.3049 38.6505 27.2997C38.8497 27.2997 38.9229 27.3797 38.9222 27.5721C38.9178 28.1533 38.9222 28.7344 38.9222 29.3155C38.9222 29.5701 38.8711 29.6197 38.612 29.6205C37.5811 29.6205 36.5496 29.6205 35.5177 29.6205L35.5147 29.6197Z" fill="#FF8B4D"/>
<path d="M43.2458 29.5304C42.2223 29.5304 41.1985 29.5304 40.1744 29.5304C39.8679 29.5304 39.865 29.5305 39.8643 29.2344C39.8643 28.7258 39.8687 28.218 39.8643 27.7094C39.8643 27.5325 39.9242 27.4658 40.1048 27.4658C42.1776 27.4703 44.2578 27.4658 46.3342 27.471C46.4718 27.4684 46.6085 27.4934 46.7362 27.5444C46.864 27.5954 46.9802 27.6715 47.0781 27.7682C47.176 27.8649 47.2535 27.9802 47.3061 28.1073C47.3587 28.2344 47.3853 28.3708 47.3844 28.5083C47.3834 28.6459 47.3549 28.7819 47.3006 28.9083C47.2463 29.0347 47.1672 29.1489 47.068 29.2442C46.9688 29.3395 46.8516 29.4141 46.7231 29.4634C46.5947 29.5126 46.4577 29.5357 46.3202 29.5312C45.2934 29.5334 44.2696 29.5304 43.2458 29.5304Z" fill="#FF8B4D"/>
<path d="M27.7858 29.5297C26.7546 29.5297 25.7234 29.5297 24.6922 29.5297C24.48 29.5347 24.2716 29.4732 24.0962 29.3537C23.9208 29.2342 23.7873 29.0628 23.7143 28.8635C23.6354 28.6621 23.6235 28.4406 23.6806 28.232C23.7377 28.0234 23.8606 27.8387 24.0311 27.7057C24.2165 27.5476 24.4539 27.4637 24.6974 27.4702C26.7702 27.4702 28.837 27.4703 30.9068 27.4658C31.0949 27.4658 31.163 27.5265 31.16 27.7175C31.1501 28.2401 31.1501 28.763 31.16 29.2861C31.1637 29.4801 31.0904 29.5364 30.9046 29.5349C29.863 29.5267 28.8244 29.5297 27.7858 29.5297Z" fill="#FF8B4D"/>
<path d="M26.8604 6.1219C29.4375 6.1219 32.0144 6.1219 34.5911 6.1219H36.6002C38.5538 6.1219 40.5073 6.1256 42.4609 6.1182C42.8905 6.13124 43.3081 5.97602 43.6249 5.68564C43.9417 5.39526 44.1326 4.99267 44.1569 4.56362C44.2225 3.63545 44.2297 2.70407 44.1784 1.77501C44.1895 1.53575 44.1499 1.29684 44.0621 1.07402C43.9742 0.851192 43.8402 0.6495 43.6688 0.482215C43.4974 0.314929 43.2925 0.18585 43.0676 0.10347C42.8427 0.0210907 42.6029 -0.0127161 42.3639 0.00427136C37.1731 0.00427136 31.9821 0.00427136 26.7908 0.00427136C26.5573 -0.00208854 26.325 0.0393209 26.108 0.125949C25.8911 0.212576 25.6941 0.342585 25.5292 0.508037C25.3643 0.673488 25.235 0.87089 25.1491 1.08812C25.0632 1.30534 25.0226 1.53782 25.0297 1.7713C25.0297 2.61028 25.0297 3.44753 25.0297 4.28306C25.0103 4.52876 25.0443 4.77573 25.1294 5.00707C25.2144 5.2384 25.3485 5.4486 25.5224 5.62327C25.6963 5.79793 25.9059 5.93293 26.1368 6.019C26.3678 6.10507 26.6146 6.14017 26.8604 6.1219Z" fill="#FF8B4D"/>
<path d="M42.8283 8.67158H42.8365L42.8054 8.66641C42.7669 8.65827 42.7277 8.6516 42.6869 8.64642C42.58 8.62855 42.4719 8.61915 42.3635 8.61829C37.1727 8.61829 31.9816 8.61829 26.7903 8.61829C26.5567 8.61203 26.3244 8.65353 26.1075 8.74024C25.8905 8.82695 25.6936 8.95704 25.5287 9.12255C25.3638 9.28806 25.2344 9.4855 25.1486 9.70277C25.0627 9.92003 25.022 10.1526 25.0292 10.3861C25.0292 11.225 25.0292 12.0623 25.0292 12.8978C25.0108 13.143 25.0456 13.3892 25.1311 13.6198C25.2166 13.8503 25.3508 14.0596 25.5246 14.2335C25.6983 14.4075 25.9076 14.5418 26.138 14.6275C26.3685 14.7132 26.6147 14.7482 26.8599 14.73C29.437 14.73 32.0139 14.73 34.5906 14.73H36.5997C38.5533 14.73 40.5068 14.7344 42.4604 14.7263C42.89 14.7393 43.3076 14.5841 43.6244 14.2937C43.9412 14.0034 44.1321 13.6008 44.1564 13.1717C44.222 12.2436 44.2292 11.3122 44.1779 10.3831C44.1952 9.98349 44.0684 9.59094 43.8208 9.27685C43.5731 8.96276 43.221 8.74798 42.8283 8.67158Z" fill="#FF8B4D"/>
<path d="M42.3642 17.2289H40.0893V17.2238C35.6576 17.2238 31.2255 17.2238 26.7933 17.2238C26.5597 17.2175 26.3274 17.259 26.1105 17.3457C25.8935 17.4324 25.6966 17.5625 25.5317 17.728C25.3668 17.8935 25.2374 18.091 25.1515 18.3082C25.0656 18.5255 25.025 18.758 25.0322 18.9915V18.9967C25.0322 19.8357 25.0322 20.6729 25.0322 21.5085C25.0137 21.7537 25.0484 22 25.1338 22.2306C25.2193 22.4612 25.3535 22.6707 25.5273 22.8447C25.701 23.0187 25.9103 23.1531 26.1408 23.2389C26.3713 23.3246 26.6176 23.3595 26.8629 23.3414C29.44 23.3414 32.0169 23.3414 34.5936 23.3414H36.6027C38.5562 23.3414 40.5098 23.3451 42.4634 23.3414C42.8929 23.3544 43.3106 23.1992 43.6274 22.9088C43.9442 22.6185 44.1351 22.2159 44.1594 21.7868C44.225 20.8586 44.2322 19.9272 44.1808 18.9982C44.1918 18.7588 44.152 18.5199 44.0639 18.2971C43.9759 18.0743 43.8416 17.8727 43.6699 17.7055C43.4983 17.5383 43.2932 17.4094 43.0682 17.3273C42.8431 17.2452 42.6032 17.2116 42.3642 17.2289Z" fill="#FF8B4D"/>
<path d="M28.4064 4.17954C29.0254 4.17954 29.5272 3.67775 29.5272 3.05876C29.5272 2.43978 29.0254 1.93799 28.4064 1.93799C27.7874 1.93799 27.2856 2.43978 27.2856 3.05876C27.2856 3.67775 27.7874 4.17954 28.4064 4.17954Z" fill="white"/>
<path d="M28.4064 12.7967C29.0254 12.7967 29.5272 12.2949 29.5272 11.676C29.5272 11.057 29.0254 10.5552 28.4064 10.5552C27.7874 10.5552 27.2856 11.057 27.2856 11.676C27.2856 12.2949 27.7874 12.7967 28.4064 12.7967Z" fill="white"/>
<path d="M28.4064 21.4139C29.0254 21.4139 29.5272 20.9121 29.5272 20.2931C29.5272 19.6742 29.0254 19.1724 28.4064 19.1724C27.7874 19.1724 27.2856 19.6742 27.2856 20.2931C27.2856 20.9121 27.7874 21.4139 28.4064 21.4139Z" fill="white"/>
<path d="M0 45.6206L2.74902 38.4624H3.76953L6.69922 45.6206H5.62012L4.78516 43.4526H1.79199L1.00586 45.6206H0ZM2.06543 42.6812H4.49219L3.74512 40.6987C3.51725 40.0965 3.34798 39.6017 3.2373 39.2144C3.14616 39.6733 3.01758 40.1291 2.85156 40.5815L2.06543 42.6812ZM10.7275 43.7212L11.5918 43.8335C11.4974 44.4292 11.2549 44.8963 10.8643 45.2349C10.4769 45.5701 10 45.7378 9.43359 45.7378C8.72396 45.7378 8.15267 45.5067 7.71973 45.0444C7.29004 44.5789 7.0752 43.9132 7.0752 43.0474C7.0752 42.4875 7.16797 41.9976 7.35352 41.5776C7.53906 41.1577 7.82064 40.8436 8.19824 40.6353C8.5791 40.4237 8.99251 40.3179 9.43848 40.3179C10.0016 40.3179 10.4622 40.4611 10.8203 40.7476C11.1784 41.0308 11.4079 41.4344 11.5088 41.9585L10.6543 42.0903C10.5729 41.742 10.4281 41.48 10.2197 41.3042C10.0146 41.1284 9.76562 41.0405 9.47266 41.0405C9.02995 41.0405 8.67025 41.2 8.39355 41.519C8.11686 41.8348 7.97852 42.3361 7.97852 43.0229C7.97852 43.7196 8.11198 44.2257 8.37891 44.5415C8.64583 44.8573 8.99414 45.0151 9.42383 45.0151C9.76888 45.0151 10.057 44.9093 10.2881 44.6978C10.5192 44.4862 10.6657 44.1606 10.7275 43.7212ZM14.2627 44.8345L14.3896 45.6108C14.1423 45.6629 13.9209 45.689 13.7256 45.689C13.4066 45.689 13.1592 45.6385 12.9834 45.5376C12.8076 45.4367 12.6839 45.3049 12.6123 45.1421C12.5407 44.9761 12.5049 44.6294 12.5049 44.1021V41.1187H11.8604V40.4351H12.5049V39.1509L13.3789 38.6235V40.4351H14.2627V41.1187H13.3789V44.1509C13.3789 44.4015 13.3936 44.5627 13.4229 44.6343C13.4554 44.7059 13.5059 44.7629 13.5742 44.8052C13.6458 44.8475 13.7467 44.8687 13.877 44.8687C13.9746 44.8687 14.1032 44.8573 14.2627 44.8345ZM15.1318 39.4731V38.4624H16.0107V39.4731H15.1318ZM15.1318 45.6206V40.4351H16.0107V45.6206H15.1318ZM18.7939 45.6206L16.8213 40.4351H17.749L18.8623 43.5405C18.9827 43.8758 19.0934 44.2241 19.1943 44.5854C19.2725 44.312 19.3815 43.9832 19.5215 43.5991L20.6738 40.4351H21.5771L19.6143 45.6206H18.7939ZM25.9033 43.9507L26.8115 44.063C26.6683 44.5936 26.403 45.0054 26.0156 45.2983C25.6283 45.5913 25.1335 45.7378 24.5312 45.7378C23.7728 45.7378 23.1706 45.505 22.7246 45.0396C22.2819 44.5708 22.0605 43.9149 22.0605 43.0718C22.0605 42.1994 22.2852 41.5223 22.7344 41.0405C23.1836 40.5588 23.7663 40.3179 24.4824 40.3179C25.1758 40.3179 25.7422 40.5539 26.1816 41.0259C26.6211 41.4979 26.8408 42.1619 26.8408 43.0181C26.8408 43.0701 26.8392 43.1483 26.8359 43.2524H22.9688C23.0013 43.8221 23.1624 44.2583 23.4521 44.561C23.7419 44.8638 24.1032 45.0151 24.5361 45.0151C24.8584 45.0151 25.1335 44.9305 25.3613 44.7612C25.5892 44.592 25.7699 44.3218 25.9033 43.9507ZM23.0176 42.5298H25.9131C25.874 42.0936 25.7633 41.7664 25.5811 41.5483C25.3011 41.2098 24.9382 41.0405 24.4922 41.0405C24.0885 41.0405 23.7484 41.1756 23.4717 41.4458C23.1982 41.716 23.0469 42.0773 23.0176 42.5298ZM30.8154 45.6206V38.4624H33.2812C33.8379 38.4624 34.2627 38.4966 34.5557 38.5649C34.9658 38.6593 35.3158 38.8302 35.6055 39.0776C35.9831 39.3966 36.2646 39.8052 36.4502 40.3032C36.639 40.798 36.7334 41.3644 36.7334 42.0024C36.7334 42.5461 36.6699 43.0278 36.543 43.4478C36.416 43.8677 36.2533 44.216 36.0547 44.4927C35.8561 44.7661 35.638 44.9826 35.4004 45.1421C35.166 45.2983 34.8812 45.4172 34.5459 45.4985C34.2139 45.5799 33.8314 45.6206 33.3984 45.6206H30.8154ZM31.7627 44.7759H33.291C33.763 44.7759 34.1325 44.7319 34.3994 44.644C34.6696 44.5562 34.8844 44.4325 35.0439 44.2729C35.2686 44.0483 35.4427 43.7472 35.5664 43.3696C35.6934 42.9888 35.7568 42.5282 35.7568 41.9878C35.7568 41.2391 35.6331 40.6646 35.3857 40.2642C35.1416 39.8605 34.8438 39.5903 34.4922 39.4536C34.2383 39.356 33.8298 39.3071 33.2666 39.3071H31.7627V44.7759ZM37.9346 39.4731V38.4624H38.8135V39.4731H37.9346ZM37.9346 45.6206V40.4351H38.8135V45.6206H37.9346ZM40.1465 45.6206V40.4351H40.9375V41.2212C41.1393 40.8534 41.3249 40.6108 41.4941 40.4937C41.6667 40.3765 41.8555 40.3179 42.0605 40.3179C42.3568 40.3179 42.6579 40.4123 42.9639 40.6011L42.6611 41.4165C42.4463 41.2896 42.2314 41.2261 42.0166 41.2261C41.8245 41.2261 41.652 41.2847 41.499 41.4019C41.346 41.5158 41.237 41.6753 41.1719 41.8804C41.0742 42.1929 41.0254 42.5347 41.0254 42.9058V45.6206H40.1465ZM47.0361 43.9507L47.9443 44.063C47.8011 44.5936 47.5358 45.0054 47.1484 45.2983C46.7611 45.5913 46.2663 45.7378 45.6641 45.7378C44.9056 45.7378 44.3034 45.505 43.8574 45.0396C43.4147 44.5708 43.1934 43.9149 43.1934 43.0718C43.1934 42.1994 43.418 41.5223 43.8672 41.0405C44.3164 40.5588 44.8991 40.3179 45.6152 40.3179C46.3086 40.3179 46.875 40.5539 47.3145 41.0259C47.7539 41.4979 47.9736 42.1619 47.9736 43.0181C47.9736 43.0701 47.972 43.1483 47.9688 43.2524H44.1016C44.1341 43.8221 44.2952 44.2583 44.585 44.561C44.8747 44.8638 45.236 45.0151 45.6689 45.0151C45.9912 45.0151 46.2663 44.9305 46.4941 44.7612C46.722 44.592 46.9027 44.3218 47.0361 43.9507ZM44.1504 42.5298H47.0459C47.0068 42.0936 46.8962 41.7664 46.7139 41.5483C46.4339 41.2098 46.071 41.0405 45.625 41.0405C45.2214 41.0405 44.8812 41.1756 44.6045 41.4458C44.3311 41.716 44.1797 42.0773 44.1504 42.5298ZM52.4365 43.7212L53.3008 43.8335C53.2064 44.4292 52.9639 44.8963 52.5732 45.2349C52.1859 45.5701 51.709 45.7378 51.1426 45.7378C50.4329 45.7378 49.8617 45.5067 49.4287 45.0444C48.999 44.5789 48.7842 43.9132 48.7842 43.0474C48.7842 42.4875 48.877 41.9976 49.0625 41.5776C49.248 41.1577 49.5296 40.8436 49.9072 40.6353C50.2881 40.4237 50.7015 40.3179 51.1475 40.3179C51.7106 40.3179 52.1712 40.4611 52.5293 40.7476C52.8874 41.0308 53.1169 41.4344 53.2178 41.9585L52.3633 42.0903C52.2819 41.742 52.137 41.48 51.9287 41.3042C51.7236 41.1284 51.4746 41.0405 51.1816 41.0405C50.7389 41.0405 50.3792 41.2 50.1025 41.519C49.8258 41.8348 49.6875 42.3361 49.6875 43.0229C49.6875 43.7196 49.821 44.2257 50.0879 44.5415C50.3548 44.8573 50.7031 45.0151 51.1328 45.0151C51.4779 45.0151 51.766 44.9093 51.9971 44.6978C52.2282 44.4862 52.3747 44.1606 52.4365 43.7212ZM55.9717 44.8345L56.0986 45.6108C55.8512 45.6629 55.6299 45.689 55.4346 45.689C55.1156 45.689 54.8682 45.6385 54.6924 45.5376C54.5166 45.4367 54.3929 45.3049 54.3213 45.1421C54.2497 44.9761 54.2139 44.6294 54.2139 44.1021V41.1187H53.5693V40.4351H54.2139V39.1509L55.0879 38.6235V40.4351H55.9717V41.1187H55.0879V44.1509C55.0879 44.4015 55.1025 44.5627 55.1318 44.6343C55.1644 44.7059 55.2148 44.7629 55.2832 44.8052C55.3548 44.8475 55.4557 44.8687 55.5859 44.8687C55.6836 44.8687 55.8122 44.8573 55.9717 44.8345ZM56.5088 43.0278C56.5088 42.0675 56.7757 41.3563 57.3096 40.894C57.7555 40.5099 58.2992 40.3179 58.9404 40.3179C59.6533 40.3179 60.236 40.5522 60.6885 41.021C61.141 41.4865 61.3672 42.131 61.3672 42.9546C61.3672 43.6219 61.2663 44.1476 61.0645 44.5317C60.8659 44.9126 60.5745 45.2088 60.1904 45.4204C59.8096 45.632 59.3929 45.7378 58.9404 45.7378C58.2145 45.7378 57.627 45.505 57.1777 45.0396C56.7318 44.5741 56.5088 43.9035 56.5088 43.0278ZM57.4121 43.0278C57.4121 43.6919 57.557 44.1899 57.8467 44.522C58.1364 44.8507 58.501 45.0151 58.9404 45.0151C59.3766 45.0151 59.7396 44.8491 60.0293 44.5171C60.319 44.1851 60.4639 43.6789 60.4639 42.9985C60.4639 42.3573 60.3174 41.8722 60.0244 41.5435C59.7347 41.2114 59.3734 41.0454 58.9404 41.0454C58.501 41.0454 58.1364 41.2098 57.8467 41.5386C57.557 41.8674 57.4121 42.3638 57.4121 43.0278ZM62.3926 45.6206V40.4351H63.1836V41.2212C63.3854 40.8534 63.571 40.6108 63.7402 40.4937C63.9128 40.3765 64.1016 40.3179 64.3066 40.3179C64.6029 40.3179 64.904 40.4123 65.21 40.6011L64.9072 41.4165C64.6924 41.2896 64.4775 41.2261 64.2627 41.2261C64.0706 41.2261 63.8981 41.2847 63.7451 41.4019C63.5921 41.5158 63.4831 41.6753 63.418 41.8804C63.3203 42.1929 63.2715 42.5347 63.2715 42.9058V45.6206H62.3926ZM65.6934 47.6177L65.5957 46.7925C65.7878 46.8446 65.9554 46.8706 66.0986 46.8706C66.2939 46.8706 66.4502 46.8381 66.5674 46.7729C66.6846 46.7078 66.7806 46.6167 66.8555 46.4995C66.9108 46.4116 67.0003 46.1935 67.124 45.8452C67.1403 45.7964 67.1663 45.7248 67.2021 45.6304L65.2344 40.4351H66.1816L67.2607 43.438C67.4007 43.8188 67.526 44.2192 67.6367 44.6392C67.7376 44.2355 67.8581 43.8416 67.998 43.4575L69.1064 40.4351H69.9854L68.0127 45.7085C67.8011 46.2782 67.6367 46.6704 67.5195 46.8853C67.3633 47.175 67.1842 47.3866 66.9824 47.52C66.7806 47.6567 66.5397 47.7251 66.2598 47.7251C66.0905 47.7251 65.9017 47.6893 65.6934 47.6177Z" fill="#2A303D"/>
</svg>
