<svg width="132" height="116" viewBox="0 0 132 116" fill="none" xmlns="http://www.w3.org/2000/svg">
<rect x="0.5" y="0.5" width="131" height="114.62" rx="9.5" fill="#E7F3ED"/>
<rect x="0.5" y="0.5" width="131" height="114.62" rx="9.5" stroke="#B7DCC7" stroke-dasharray="4 4"/>
<path d="M66.0001 56.6197H62.9709C62.6444 56.6197 62.6326 56.6072 62.6318 56.2725C62.6318 55.7136 62.6378 55.154 62.6318 54.5951C62.6318 54.3974 62.6955 54.3264 62.8969 54.3308C63.3832 54.3419 63.8703 54.3308 64.3567 54.3375C64.5343 54.3375 64.6039 54.2827 64.5995 54.0998C64.5906 53.7008 64.6032 53.3011 64.5943 52.9014C64.5899 52.7111 64.6461 52.6297 64.8534 52.6319C65.6307 52.6418 66.408 52.6418 67.1853 52.6319C67.3785 52.6319 67.4399 52.7059 67.4355 52.8888C67.4266 53.2737 67.4414 53.6587 67.4295 54.0436C67.4229 54.2479 67.5036 54.3086 67.6983 54.3049C68.1772 54.2953 68.6569 54.3049 69.1359 54.2997C69.335 54.2997 69.4083 54.3797 69.4076 54.5721C69.4031 55.1533 69.4076 55.7344 69.4076 56.3155C69.4076 56.5701 69.3565 56.6197 69.0974 56.6205C68.0664 56.6205 67.035 56.6205 66.003 56.6205L66.0001 56.6197Z" fill="#0C8844"/>
<path d="M73.7312 56.5304C72.7076 56.5304 71.6838 56.5304 70.6598 56.5304C70.3533 56.5304 70.3503 56.5305 70.3496 56.2344C70.3496 55.7258 70.3541 55.218 70.3496 54.7094C70.3496 54.5325 70.4096 54.4658 70.5902 54.4658C72.663 54.4703 74.7431 54.4658 76.8196 54.471C76.9571 54.4684 77.0938 54.4934 77.2216 54.5444C77.3493 54.5954 77.4656 54.6715 77.5634 54.7682C77.6613 54.8649 77.7388 54.9802 77.7914 55.1073C77.844 55.2344 77.8707 55.3708 77.8697 55.5083C77.8688 55.6459 77.8403 55.7819 77.786 55.9083C77.7316 56.0347 77.6526 56.1489 77.5534 56.2442C77.4542 56.3395 77.3369 56.4141 77.2085 56.4634C77.08 56.5126 76.943 56.5357 76.8055 56.5312C75.7788 56.5334 74.755 56.5304 73.7312 56.5304Z" fill="#0C8844"/>
<path d="M58.2712 56.5297C57.24 56.5297 56.2088 56.5297 55.1776 56.5297C54.9654 56.5347 54.757 56.4732 54.5816 56.3537C54.4062 56.2342 54.2726 56.0628 54.1997 55.8635C54.1207 55.6621 54.1089 55.4406 54.166 55.232C54.2231 55.0234 54.346 54.8387 54.5165 54.7057C54.7019 54.5476 54.9392 54.4637 55.1828 54.4702C57.2555 54.4702 59.3224 54.4703 61.3922 54.4658C61.5802 54.4658 61.6483 54.5265 61.6453 54.7175C61.6355 55.2401 61.6355 55.763 61.6453 56.2861C61.649 56.4801 61.5758 56.5364 61.3899 56.5349C60.3484 56.5267 59.3098 56.5297 58.2712 56.5297Z" fill="#0C8844"/>
<path d="M57.3457 33.1219C59.9229 33.1219 62.4998 33.1219 65.0764 33.1219H67.0855C69.0391 33.1219 70.9927 33.1256 72.9463 33.1182C73.3758 33.1312 73.7935 32.976 74.1103 32.6856C74.4271 32.3953 74.618 31.9927 74.6423 31.5636C74.7079 30.6355 74.7151 29.7041 74.6637 28.775C74.6749 28.5358 74.6352 28.2968 74.5474 28.074C74.4596 27.8512 74.3255 27.6495 74.1541 27.4822C73.9827 27.3149 73.7778 27.1858 73.5529 27.1035C73.328 27.0211 73.0882 26.9873 72.8493 27.0043C67.6585 27.0043 62.4675 27.0043 57.2762 27.0043C57.0427 26.9979 56.8103 27.0393 56.5934 27.1259C56.3764 27.2126 56.1795 27.3426 56.0146 27.508C55.8497 27.6735 55.7203 27.8709 55.6344 28.0881C55.5485 28.3053 55.5079 28.5378 55.515 28.7713C55.515 29.6103 55.515 30.4475 55.515 31.2831C55.4957 31.5288 55.5297 31.7757 55.6147 32.0071C55.6998 32.2384 55.8338 32.4486 56.0077 32.6233C56.1816 32.7979 56.3912 32.9329 56.6222 33.019C56.8531 33.1051 57.1 33.1402 57.3457 33.1219Z" fill="#0C8844"/>
<path d="M73.3137 35.6716H73.3218L73.2907 35.6664C73.2522 35.6583 73.213 35.6516 73.1723 35.6464C73.0654 35.6286 72.9572 35.6192 72.8488 35.6183C67.658 35.6183 62.4669 35.6183 57.2756 35.6183C57.0421 35.612 56.8098 35.6535 56.5928 35.7402C56.3759 35.827 56.1789 35.957 56.014 36.1226C55.8491 36.2881 55.7198 36.4855 55.6339 36.7028C55.548 36.92 55.5074 37.1526 55.5145 37.3861C55.5145 38.225 55.5145 39.0623 55.5145 39.8978C55.4962 40.143 55.5309 40.3892 55.6164 40.6198C55.7019 40.8503 55.8361 41.0596 56.0099 41.2335C56.1837 41.4075 56.3929 41.5418 56.6234 41.6275C56.8538 41.7132 57.1 41.7482 57.3452 41.73C59.9224 41.73 62.4993 41.73 65.0759 41.73H67.085C69.0386 41.73 70.9922 41.7344 72.9458 41.7263C73.3753 41.7393 73.793 41.5841 74.1098 41.2937C74.4266 41.0034 74.6174 40.6008 74.6417 40.1717C74.7074 39.2436 74.7145 38.3122 74.6632 37.3831C74.6805 36.9835 74.5538 36.5909 74.3061 36.2769C74.0585 35.9628 73.7063 35.748 73.3137 35.6716Z" fill="#0C8844"/>
<path d="M72.8496 44.2289H70.5747V44.2238C66.1429 44.2238 61.7109 44.2238 57.2786 44.2238C57.0451 44.2175 56.8127 44.259 56.5958 44.3457C56.3789 44.4324 56.1819 44.5625 56.017 44.728C55.8521 44.8935 55.7228 45.091 55.6369 45.3082C55.551 45.5255 55.5104 45.758 55.5175 45.9915V45.9967C55.5175 46.8357 55.5175 47.6729 55.5175 48.5085C55.4991 48.7537 55.5337 49 55.6192 49.2306C55.7046 49.4612 55.8388 49.6707 56.0126 49.8447C56.1864 50.0187 56.3957 50.1531 56.6262 50.2389C56.8567 50.3246 57.103 50.3595 57.3482 50.3414C59.9254 50.3414 62.5023 50.3414 65.0789 50.3414H67.088C69.0416 50.3414 70.9952 50.3451 72.9488 50.3414C73.3783 50.3544 73.796 50.1992 74.1128 49.9088C74.4295 49.6185 74.6204 49.2159 74.6447 48.7868C74.7104 47.8586 74.7175 46.9272 74.6662 45.9982C74.6772 45.7588 74.6373 45.5199 74.5493 45.2971C74.4612 45.0743 74.3269 44.8727 74.1553 44.7055C73.9837 44.5383 73.7786 44.4094 73.5535 44.3273C73.3284 44.2452 73.0885 44.2116 72.8496 44.2289Z" fill="#0C8844"/>
<path d="M58.8918 31.1795C59.5108 31.1795 60.0125 30.6778 60.0125 30.0588C60.0125 29.4398 59.5108 28.938 58.8918 28.938C58.2728 28.938 57.771 29.4398 57.771 30.0588C57.771 30.6778 58.2728 31.1795 58.8918 31.1795Z" fill="white"/>
<path d="M58.8918 39.7967C59.5108 39.7967 60.0125 39.2949 60.0125 38.676C60.0125 38.057 59.5108 37.5552 58.8918 37.5552C58.2728 37.5552 57.771 38.057 57.771 38.676C57.771 39.2949 58.2728 39.7967 58.8918 39.7967Z" fill="white"/>
<path d="M58.8918 48.4139C59.5108 48.4139 60.0125 47.9121 60.0125 47.2931C60.0125 46.6742 59.5108 46.1724 58.8918 46.1724C58.2728 46.1724 57.771 46.6742 57.771 47.2931C57.771 47.9121 58.2728 48.4139 58.8918 48.4139Z" fill="white"/>
<path d="M31.5078 75.6206L34.2568 68.4624H35.2773L38.207 75.6206H37.1279L36.293 73.4526H33.2998L32.5137 75.6206H31.5078ZM33.5732 72.6812H36L35.2529 70.6987C35.0251 70.0965 34.8558 69.6017 34.7451 69.2144C34.654 69.6733 34.5254 70.1291 34.3594 70.5815L33.5732 72.6812ZM38.5 74.0728L39.3691 73.936C39.418 74.2843 39.5531 74.5513 39.7744 74.7368C39.999 74.9224 40.3115 75.0151 40.7119 75.0151C41.1156 75.0151 41.415 74.9338 41.6104 74.771C41.8057 74.605 41.9033 74.4113 41.9033 74.1899C41.9033 73.9914 41.8171 73.8351 41.6445 73.7212C41.5241 73.6431 41.2246 73.5438 40.7461 73.4233C40.1016 73.2606 39.654 73.1206 39.4033 73.0034C39.1559 72.883 38.9671 72.7186 38.8369 72.5103C38.71 72.2987 38.6465 72.0659 38.6465 71.812C38.6465 71.5809 38.6986 71.3677 38.8027 71.1724C38.9102 70.9738 39.055 70.8094 39.2373 70.6792C39.374 70.5783 39.5596 70.4937 39.7939 70.4253C40.0316 70.3537 40.2855 70.3179 40.5557 70.3179C40.9626 70.3179 41.319 70.3765 41.625 70.4937C41.9342 70.6108 42.1621 70.7703 42.3086 70.9722C42.4551 71.1707 42.556 71.4377 42.6113 71.7729L41.752 71.8901C41.7129 71.6232 41.599 71.4149 41.4102 71.2651C41.2246 71.1154 40.9609 71.0405 40.6191 71.0405C40.2155 71.0405 39.9274 71.1073 39.7549 71.2407C39.5824 71.3742 39.4961 71.5304 39.4961 71.7095C39.4961 71.8234 39.5319 71.9259 39.6035 72.0171C39.6751 72.1115 39.7874 72.1896 39.9404 72.2515C40.0283 72.284 40.2871 72.3589 40.7168 72.4761C41.3385 72.6421 41.7715 72.7788 42.0156 72.8862C42.263 72.9904 42.4567 73.1434 42.5967 73.3452C42.7367 73.547 42.8066 73.7977 42.8066 74.0972C42.8066 74.3901 42.7204 74.6668 42.5479 74.9272C42.3786 75.1844 42.1328 75.3846 41.8105 75.5278C41.4883 75.6678 41.1237 75.7378 40.7168 75.7378C40.043 75.7378 39.5286 75.5978 39.1738 75.3179C38.8223 75.0379 38.5977 74.6229 38.5 74.0728ZM43.5 74.0728L44.3691 73.936C44.418 74.2843 44.5531 74.5513 44.7744 74.7368C44.999 74.9224 45.3115 75.0151 45.7119 75.0151C46.1156 75.0151 46.415 74.9338 46.6104 74.771C46.8057 74.605 46.9033 74.4113 46.9033 74.1899C46.9033 73.9914 46.8171 73.8351 46.6445 73.7212C46.5241 73.6431 46.2246 73.5438 45.7461 73.4233C45.1016 73.2606 44.654 73.1206 44.4033 73.0034C44.1559 72.883 43.9671 72.7186 43.8369 72.5103C43.71 72.2987 43.6465 72.0659 43.6465 71.812C43.6465 71.5809 43.6986 71.3677 43.8027 71.1724C43.9102 70.9738 44.055 70.8094 44.2373 70.6792C44.374 70.5783 44.5596 70.4937 44.7939 70.4253C45.0316 70.3537 45.2855 70.3179 45.5557 70.3179C45.9626 70.3179 46.319 70.3765 46.625 70.4937C46.9342 70.6108 47.1621 70.7703 47.3086 70.9722C47.4551 71.1707 47.556 71.4377 47.6113 71.7729L46.752 71.8901C46.7129 71.6232 46.599 71.4149 46.4102 71.2651C46.2246 71.1154 45.9609 71.0405 45.6191 71.0405C45.2155 71.0405 44.9274 71.1073 44.7549 71.2407C44.5824 71.3742 44.4961 71.5304 44.4961 71.7095C44.4961 71.8234 44.5319 71.9259 44.6035 72.0171C44.6751 72.1115 44.7874 72.1896 44.9404 72.2515C45.0283 72.284 45.2871 72.3589 45.7168 72.4761C46.3385 72.6421 46.7715 72.7788 47.0156 72.8862C47.263 72.9904 47.4567 73.1434 47.5967 73.3452C47.7367 73.547 47.8066 73.7977 47.8066 74.0972C47.8066 74.3901 47.7204 74.6668 47.5479 74.9272C47.3786 75.1844 47.1328 75.3846 46.8105 75.5278C46.4883 75.6678 46.1237 75.7378 45.7168 75.7378C45.043 75.7378 44.5286 75.5978 44.1738 75.3179C43.8223 75.0379 43.5977 74.6229 43.5 74.0728ZM48.8564 69.4731V68.4624H49.7354V69.4731H48.8564ZM48.8564 75.6206V70.4351H49.7354V75.6206H48.8564ZM50.7266 74.0728L51.5957 73.936C51.6445 74.2843 51.7796 74.5513 52.001 74.7368C52.2256 74.9224 52.5381 75.0151 52.9385 75.0151C53.3421 75.0151 53.6416 74.9338 53.8369 74.771C54.0322 74.605 54.1299 74.4113 54.1299 74.1899C54.1299 73.9914 54.0436 73.8351 53.8711 73.7212C53.7507 73.6431 53.4512 73.5438 52.9727 73.4233C52.3281 73.2606 51.8805 73.1206 51.6299 73.0034C51.3825 72.883 51.1937 72.7186 51.0635 72.5103C50.9365 72.2987 50.873 72.0659 50.873 71.812C50.873 71.5809 50.9251 71.3677 51.0293 71.1724C51.1367 70.9738 51.2816 70.8094 51.4639 70.6792C51.6006 70.5783 51.7861 70.4937 52.0205 70.4253C52.2581 70.3537 52.512 70.3179 52.7822 70.3179C53.1891 70.3179 53.5456 70.3765 53.8516 70.4937C54.1608 70.6108 54.3887 70.7703 54.5352 70.9722C54.6816 71.1707 54.7826 71.4377 54.8379 71.7729L53.9785 71.8901C53.9395 71.6232 53.8255 71.4149 53.6367 71.2651C53.4512 71.1154 53.1875 71.0405 52.8457 71.0405C52.4421 71.0405 52.154 71.1073 51.9814 71.2407C51.8089 71.3742 51.7227 71.5304 51.7227 71.7095C51.7227 71.8234 51.7585 71.9259 51.8301 72.0171C51.9017 72.1115 52.014 72.1896 52.167 72.2515C52.2549 72.284 52.5137 72.3589 52.9434 72.4761C53.5651 72.6421 53.998 72.7788 54.2422 72.8862C54.4896 72.9904 54.6833 73.1434 54.8232 73.3452C54.9632 73.547 55.0332 73.7977 55.0332 74.0972C55.0332 74.3901 54.9469 74.6668 54.7744 74.9272C54.6051 75.1844 54.3594 75.3846 54.0371 75.5278C53.7148 75.6678 53.3503 75.7378 52.9434 75.7378C52.2695 75.7378 51.7552 75.5978 51.4004 75.3179C51.0488 75.0379 50.8242 74.6229 50.7266 74.0728ZM57.9971 74.8345L58.124 75.6108C57.8766 75.6629 57.6553 75.689 57.46 75.689C57.141 75.689 56.8936 75.6385 56.7178 75.5376C56.542 75.4367 56.4183 75.3049 56.3467 75.1421C56.2751 74.9761 56.2393 74.6294 56.2393 74.1021V71.1187H55.5947V70.4351H56.2393V69.1509L57.1133 68.6235V70.4351H57.9971V71.1187H57.1133V74.1509C57.1133 74.4015 57.1279 74.5627 57.1572 74.6343C57.1898 74.7059 57.2402 74.7629 57.3086 74.8052C57.3802 74.8475 57.4811 74.8687 57.6113 74.8687C57.709 74.8687 57.8376 74.8573 57.9971 74.8345ZM65.1064 72.813V71.9731L68.1387 71.9683V74.6245C67.6732 74.9956 67.193 75.2756 66.6982 75.4644C66.2035 75.6499 65.6956 75.7427 65.1748 75.7427C64.4717 75.7427 63.832 75.5929 63.2559 75.2935C62.6829 74.9907 62.25 74.5545 61.957 73.9849C61.6641 73.4152 61.5176 72.7788 61.5176 72.0757C61.5176 71.3791 61.6624 70.7297 61.9521 70.1274C62.2451 69.522 62.665 69.0728 63.2119 68.7798C63.7588 68.4868 64.3887 68.3403 65.1016 68.3403C65.6191 68.3403 66.0863 68.425 66.5029 68.5942C66.9229 68.7603 67.2516 68.993 67.4893 69.2925C67.7269 69.592 67.9076 69.9826 68.0312 70.4644L67.1768 70.6987C67.0693 70.3341 66.9359 70.0477 66.7764 69.8394C66.6169 69.631 66.389 69.465 66.0928 69.3413C65.7965 69.2144 65.4678 69.1509 65.1064 69.1509C64.6735 69.1509 64.2992 69.2176 63.9834 69.3511C63.6676 69.4813 63.4121 69.6538 63.2168 69.8687C63.0247 70.0835 62.875 70.3195 62.7676 70.5767C62.5853 71.0194 62.4941 71.4995 62.4941 72.0171C62.4941 72.6551 62.6032 73.189 62.8213 73.6187C63.0426 74.0483 63.3633 74.3674 63.7832 74.5757C64.2031 74.784 64.6491 74.8882 65.1211 74.8882C65.5312 74.8882 65.9316 74.8101 66.3223 74.6538C66.7129 74.4943 67.0091 74.325 67.2109 74.146V72.813H65.1064ZM72.8115 74.981C72.486 75.2576 72.1719 75.453 71.8691 75.5669C71.5697 75.6808 71.2474 75.7378 70.9023 75.7378C70.3327 75.7378 69.8949 75.5994 69.5889 75.3228C69.2829 75.0428 69.1299 74.6864 69.1299 74.2534C69.1299 73.9995 69.1868 73.7684 69.3008 73.5601C69.418 73.3485 69.5693 73.1792 69.7549 73.0522C69.9437 72.9253 70.1553 72.8293 70.3896 72.7642C70.5622 72.7186 70.8226 72.6746 71.1709 72.6323C71.8805 72.5477 72.403 72.4468 72.7383 72.3296C72.7415 72.2091 72.7432 72.1326 72.7432 72.1001C72.7432 71.742 72.6602 71.4897 72.4941 71.3433C72.2695 71.1447 71.9359 71.0454 71.4932 71.0454C71.0798 71.0454 70.7738 71.1187 70.5752 71.2651C70.3799 71.4084 70.235 71.6639 70.1406 72.0317L69.2812 71.9146C69.3594 71.5467 69.488 71.2505 69.667 71.0259C69.846 70.798 70.1048 70.6239 70.4434 70.5034C70.7819 70.3797 71.1742 70.3179 71.6201 70.3179C72.0628 70.3179 72.4225 70.37 72.6992 70.4741C72.9759 70.5783 73.1794 70.7101 73.3096 70.8696C73.4398 71.0259 73.5309 71.2244 73.583 71.4653C73.6123 71.6151 73.627 71.8853 73.627 72.2759V73.4478C73.627 74.2648 73.6449 74.7824 73.6807 75.0005C73.7197 75.2153 73.7946 75.422 73.9053 75.6206H72.9873C72.8962 75.4383 72.8376 75.2251 72.8115 74.981ZM72.7383 73.0181C72.4193 73.1483 71.9408 73.259 71.3027 73.3501C70.9414 73.4022 70.6859 73.4608 70.5361 73.5259C70.3864 73.591 70.2708 73.687 70.1895 73.814C70.1081 73.9377 70.0674 74.076 70.0674 74.229C70.0674 74.4634 70.1553 74.6587 70.3311 74.8149C70.5101 74.9712 70.7705 75.0493 71.1123 75.0493C71.4508 75.0493 71.752 74.9761 72.0156 74.8296C72.2793 74.6799 72.473 74.4764 72.5967 74.2192C72.6911 74.0207 72.7383 73.7277 72.7383 73.3403V73.0181ZM76.9131 74.8345L77.04 75.6108C76.7926 75.6629 76.5713 75.689 76.376 75.689C76.057 75.689 75.8096 75.6385 75.6338 75.5376C75.458 75.4367 75.3343 75.3049 75.2627 75.1421C75.1911 74.9761 75.1553 74.6294 75.1553 74.1021V71.1187H74.5107V70.4351H75.1553V69.1509L76.0293 68.6235V70.4351H76.9131V71.1187H76.0293V74.1509C76.0293 74.4015 76.0439 74.5627 76.0732 74.6343C76.1058 74.7059 76.1562 74.7629 76.2246 74.8052C76.2962 74.8475 76.3971 74.8687 76.5273 74.8687C76.625 74.8687 76.7536 74.8573 76.9131 74.8345ZM81.3271 73.9507L82.2354 74.063C82.0921 74.5936 81.8268 75.0054 81.4395 75.2983C81.0521 75.5913 80.5573 75.7378 79.9551 75.7378C79.1966 75.7378 78.5944 75.505 78.1484 75.0396C77.7057 74.5708 77.4844 73.9149 77.4844 73.0718C77.4844 72.1994 77.709 71.5223 78.1582 71.0405C78.6074 70.5588 79.1901 70.3179 79.9062 70.3179C80.5996 70.3179 81.166 70.5539 81.6055 71.0259C82.0449 71.4979 82.2646 72.1619 82.2646 73.0181C82.2646 73.0701 82.263 73.1483 82.2598 73.2524H78.3926C78.4251 73.8221 78.5863 74.2583 78.876 74.561C79.1657 74.8638 79.527 75.0151 79.96 75.0151C80.2822 75.0151 80.5573 74.9305 80.7852 74.7612C81.013 74.592 81.1937 74.3218 81.3271 73.9507ZM78.4414 72.5298H81.3369C81.2979 72.0936 81.1872 71.7664 81.0049 71.5483C80.7249 71.2098 80.362 71.0405 79.916 71.0405C79.5124 71.0405 79.1722 71.1756 78.8955 71.4458C78.6221 71.716 78.4707 72.0773 78.4414 72.5298ZM84.3008 75.6206L82.7139 70.4351H83.6221L84.4473 73.4282L84.7549 74.5415C84.7679 74.4862 84.8574 74.1297 85.0234 73.4722L85.8486 70.4351H86.752L87.5283 73.4429L87.7871 74.4341L88.085 73.4331L88.9736 70.4351H89.8281L88.207 75.6206H87.2939L86.4688 72.5151L86.2686 71.6313L85.2188 75.6206H84.3008ZM93.9541 74.981C93.6286 75.2576 93.3145 75.453 93.0117 75.5669C92.7122 75.6808 92.39 75.7378 92.0449 75.7378C91.4753 75.7378 91.0374 75.5994 90.7314 75.3228C90.4255 75.0428 90.2725 74.6864 90.2725 74.2534C90.2725 73.9995 90.3294 73.7684 90.4434 73.5601C90.5605 73.3485 90.7119 73.1792 90.8975 73.0522C91.0863 72.9253 91.2979 72.8293 91.5322 72.7642C91.7048 72.7186 91.9652 72.6746 92.3135 72.6323C93.0231 72.5477 93.5456 72.4468 93.8809 72.3296C93.8841 72.2091 93.8857 72.1326 93.8857 72.1001C93.8857 71.742 93.8027 71.4897 93.6367 71.3433C93.4121 71.1447 93.0785 71.0454 92.6357 71.0454C92.2223 71.0454 91.9163 71.1187 91.7178 71.2651C91.5225 71.4084 91.3776 71.6639 91.2832 72.0317L90.4238 71.9146C90.502 71.5467 90.6305 71.2505 90.8096 71.0259C90.9886 70.798 91.2474 70.6239 91.5859 70.5034C91.9245 70.3797 92.3167 70.3179 92.7627 70.3179C93.2054 70.3179 93.5651 70.37 93.8418 70.4741C94.1185 70.5783 94.3219 70.7101 94.4521 70.8696C94.5824 71.0259 94.6735 71.2244 94.7256 71.4653C94.7549 71.6151 94.7695 71.8853 94.7695 72.2759V73.4478C94.7695 74.2648 94.7874 74.7824 94.8232 75.0005C94.8623 75.2153 94.9372 75.422 95.0479 75.6206H94.1299C94.0387 75.4383 93.9801 75.2251 93.9541 74.981ZM93.8809 73.0181C93.5618 73.1483 93.0833 73.259 92.4453 73.3501C92.084 73.4022 91.8285 73.4608 91.6787 73.5259C91.529 73.591 91.4134 73.687 91.332 73.814C91.2507 73.9377 91.21 74.076 91.21 74.229C91.21 74.4634 91.2979 74.6587 91.4736 74.8149C91.6527 74.9712 91.9131 75.0493 92.2549 75.0493C92.5934 75.0493 92.8945 74.9761 93.1582 74.8296C93.4219 74.6799 93.6156 74.4764 93.7393 74.2192C93.8337 74.0207 93.8809 73.7277 93.8809 73.3403V73.0181ZM96.0977 77.6177L96 76.7925C96.1921 76.8446 96.3597 76.8706 96.5029 76.8706C96.6982 76.8706 96.8545 76.8381 96.9717 76.7729C97.0889 76.7078 97.1849 76.6167 97.2598 76.4995C97.3151 76.4116 97.4046 76.1935 97.5283 75.8452C97.5446 75.7964 97.5706 75.7248 97.6064 75.6304L95.6387 70.4351H96.5859L97.665 73.438C97.805 73.8188 97.9303 74.2192 98.041 74.6392C98.1419 74.2355 98.2624 73.8416 98.4023 73.4575L99.5107 70.4351H100.39L98.417 75.7085C98.2054 76.2782 98.041 76.6704 97.9238 76.8853C97.7676 77.175 97.5885 77.3866 97.3867 77.52C97.1849 77.6567 96.944 77.7251 96.6641 77.7251C96.4948 77.7251 96.306 77.6893 96.0977 77.6177ZM51.7178 84.3208L52.6113 84.2427C52.6536 84.6007 52.7513 84.8953 52.9043 85.1265C53.0605 85.3543 53.3014 85.5399 53.627 85.6831C53.9525 85.8231 54.3187 85.8931 54.7256 85.8931C55.0869 85.8931 55.4059 85.8394 55.6826 85.7319C55.9593 85.6245 56.1644 85.478 56.2979 85.2925C56.4346 85.1037 56.5029 84.8986 56.5029 84.6772C56.5029 84.4526 56.4378 84.2573 56.3076 84.0913C56.1774 83.922 55.9626 83.7804 55.6631 83.6665C55.471 83.5916 55.0462 83.4761 54.3887 83.3198C53.7311 83.1603 53.2705 83.0106 53.0068 82.8706C52.665 82.6916 52.4095 82.4702 52.2402 82.2065C52.0742 81.9396 51.9912 81.6418 51.9912 81.313C51.9912 80.9517 52.0938 80.6147 52.2988 80.3022C52.5039 79.9865 52.8034 79.7472 53.1973 79.5845C53.5911 79.4217 54.029 79.3403 54.5107 79.3403C55.0413 79.3403 55.5085 79.4266 55.9121 79.5991C56.319 79.7684 56.6315 80.019 56.8496 80.3511C57.0677 80.6831 57.1849 81.0591 57.2012 81.479L56.293 81.5474C56.2441 81.0949 56.0781 80.7531 55.7949 80.522C55.515 80.2909 55.0999 80.1753 54.5498 80.1753C53.9769 80.1753 53.5586 80.2811 53.2949 80.4927C53.0345 80.701 52.9043 80.9533 52.9043 81.2495C52.9043 81.5067 52.9971 81.7183 53.1826 81.8843C53.3649 82.0503 53.8402 82.2212 54.6084 82.397C55.3799 82.5695 55.9089 82.7209 56.1953 82.8511C56.612 83.0431 56.9196 83.2873 57.1182 83.5835C57.3167 83.8765 57.416 84.215 57.416 84.5991C57.416 84.98 57.307 85.3397 57.0889 85.6782C56.8708 86.0135 56.5566 86.2756 56.1465 86.4644C55.7396 86.6499 55.2806 86.7427 54.7695 86.7427C54.1217 86.7427 53.5781 86.6483 53.1387 86.4595C52.7025 86.2707 52.359 85.9875 52.1084 85.6099C51.861 85.229 51.7308 84.7993 51.7178 84.3208ZM62.1475 84.9507L63.0557 85.063C62.9124 85.5936 62.6471 86.0054 62.2598 86.2983C61.8724 86.5913 61.3776 86.7378 60.7754 86.7378C60.0169 86.7378 59.4147 86.505 58.9688 86.0396C58.526 85.5708 58.3047 84.9149 58.3047 84.0718C58.3047 83.1994 58.5293 82.5223 58.9785 82.0405C59.4277 81.5588 60.0104 81.3179 60.7266 81.3179C61.4199 81.3179 61.9863 81.5539 62.4258 82.0259C62.8652 82.4979 63.085 83.1619 63.085 84.0181C63.085 84.0701 63.0833 84.1483 63.0801 84.2524H59.2129C59.2454 84.8221 59.4066 85.2583 59.6963 85.561C59.986 85.8638 60.3473 86.0151 60.7803 86.0151C61.1025 86.0151 61.3776 85.9305 61.6055 85.7612C61.8333 85.592 62.014 85.3218 62.1475 84.9507ZM59.2617 83.5298H62.1572C62.1182 83.0936 62.0075 82.7664 61.8252 82.5483C61.5452 82.2098 61.1823 82.0405 60.7363 82.0405C60.3327 82.0405 59.9925 82.1756 59.7158 82.4458C59.4424 82.716 59.291 83.0773 59.2617 83.5298ZM64.1543 86.6206V81.4351H64.9453V82.2212C65.1471 81.8534 65.3327 81.6108 65.502 81.4937C65.6745 81.3765 65.8633 81.3179 66.0684 81.3179C66.3646 81.3179 66.6657 81.4123 66.9717 81.6011L66.6689 82.4165C66.4541 82.2896 66.2393 82.2261 66.0244 82.2261C65.8324 82.2261 65.6598 82.2847 65.5068 82.4019C65.3538 82.5158 65.2448 82.6753 65.1797 82.8804C65.082 83.1929 65.0332 83.5347 65.0332 83.9058V86.6206H64.1543ZM68.9346 86.6206L66.9619 81.4351H67.8896L69.0029 84.5405C69.1234 84.8758 69.234 85.2241 69.335 85.5854C69.4131 85.312 69.5221 84.9832 69.6621 84.5991L70.8145 81.4351H71.7178L69.7549 86.6206H68.9346ZM76.0439 84.9507L76.9521 85.063C76.8089 85.5936 76.5436 86.0054 76.1562 86.2983C75.7689 86.5913 75.2741 86.7378 74.6719 86.7378C73.9134 86.7378 73.3112 86.505 72.8652 86.0396C72.4225 85.5708 72.2012 84.9149 72.2012 84.0718C72.2012 83.1994 72.4258 82.5223 72.875 82.0405C73.3242 81.5588 73.9069 81.3179 74.623 81.3179C75.3164 81.3179 75.8828 81.5539 76.3223 82.0259C76.7617 82.4979 76.9814 83.1619 76.9814 84.0181C76.9814 84.0701 76.9798 84.1483 76.9766 84.2524H73.1094C73.1419 84.8221 73.3031 85.2583 73.5928 85.561C73.8825 85.8638 74.2438 86.0151 74.6768 86.0151C74.999 86.0151 75.2741 85.9305 75.502 85.7612C75.7298 85.592 75.9105 85.3218 76.0439 84.9507ZM73.1582 83.5298H76.0537C76.0146 83.0936 75.904 82.7664 75.7217 82.5483C75.4417 82.2098 75.0788 82.0405 74.6328 82.0405C74.2292 82.0405 73.889 82.1756 73.6123 82.4458C73.3389 82.716 73.1875 83.0773 73.1582 83.5298ZM78.0508 86.6206V81.4351H78.8418V82.2212C79.0436 81.8534 79.2292 81.6108 79.3984 81.4937C79.571 81.3765 79.7598 81.3179 79.9648 81.3179C80.2611 81.3179 80.5622 81.4123 80.8682 81.6011L80.5654 82.4165C80.3506 82.2896 80.1357 82.2261 79.9209 82.2261C79.7288 82.2261 79.5563 82.2847 79.4033 82.4019C79.2503 82.5158 79.1413 82.6753 79.0762 82.8804C78.9785 83.1929 78.9297 83.5347 78.9297 83.9058V86.6206H78.0508Z" fill="#2A303D"/>
<rect x="66.9058" y="33.7188" width="16.6274" height="16.6274" rx="8.31372" fill="white"/>
<path d="M73.6881 47.2028C73.3922 47.2028 73.1105 47.0851 72.9037 46.8783L70.3756 44.3502C69.9406 43.9152 69.9406 43.2127 70.3756 42.7777L72.9037 40.2496C73.3387 39.8146 74.0411 39.8146 74.4762 40.2496L75.4246 41.2017C75.5423 41.3193 75.5423 41.5119 75.4246 41.6295C75.307 41.7472 75.1144 41.7472 74.9968 41.6295L74.0447 40.6775C73.8486 40.4814 73.5277 40.4814 73.3316 40.6775L70.8035 43.2056C70.6074 43.4017 70.6074 43.7226 70.8035 43.9187L73.3316 46.4468C73.5277 46.6429 73.8486 46.6429 74.0447 46.4468L74.9968 45.4983C75.1144 45.3807 75.307 45.3842 75.4246 45.5019C75.5387 45.6196 75.5387 45.8086 75.4246 45.9262L74.4762 46.8747C74.2658 47.0851 73.9841 47.2028 73.6881 47.2028Z" fill="#226DB4"/>
<path d="M76.7508 47.2028C76.4548 47.2028 76.1731 47.0851 75.9663 46.8783L73.4347 44.3502C72.9996 43.9152 72.9996 43.2127 73.4347 42.7777L75.9628 40.2496C76.3978 39.8146 77.1002 39.8146 77.5352 40.2496L80.0633 42.7777C80.4984 43.2127 80.4984 43.9152 80.0633 44.3502L77.5352 46.8783C77.3284 47.0851 77.0432 47.2028 76.7508 47.2028ZM76.7508 40.5277C76.6153 40.5277 76.4869 40.5812 76.3942 40.6775L73.8661 43.2056C73.67 43.4017 73.67 43.7226 73.8661 43.9187L76.3942 46.4468C76.5903 46.6429 76.9112 46.6429 77.1074 46.4468L79.6354 43.9187C79.8316 43.7226 79.8316 43.4017 79.6354 43.2056L77.1074 40.6775C77.0111 40.5812 76.8827 40.5277 76.7508 40.5277Z" fill="#089949"/>
<path d="M75.2177 39.5218C74.4832 39.5218 73.8877 38.9264 73.8877 38.1918C73.8877 37.4573 74.4867 36.8618 75.2177 36.8618C75.9522 36.8618 76.5477 37.4573 76.5477 38.1918C76.5477 38.9264 75.9522 39.5218 75.2177 39.5218ZM75.2177 37.468C74.8183 37.468 74.4939 37.7925 74.4939 38.1918C74.4939 38.5912 74.8183 38.9157 75.2177 38.9157C75.6171 38.9157 75.9415 38.5912 75.9415 38.1918C75.9415 37.7925 75.6206 37.468 75.2177 37.468Z" fill="#089949"/>
</svg>
