<svg width="138" height="61" viewBox="0 0 138 61" fill="none" xmlns="http://www.w3.org/2000/svg">
<path d="M84.1361 8.98186C82.7965 7.67798 81.0697 6.84432 79.2155 6.60631C78.8671 6.57102 78.5348 6.44131 78.2546 6.23116C77.9744 6.02101 77.7569 5.73839 77.6254 5.41373C77.0696 4.17631 76.2476 3.07677 75.218 2.19354C73.4009 0.674892 71.0787 -0.104192 68.7132 0.011208C68.7086 0.0104734 68.7038 0.0104734 68.6992 0.011208C68.6067 0.00750665 68.5134 0.00528908 68.4201 0.00528908C66.9018 0.0404409 65.4195 0.474468 64.1221 1.26376C62.4603 2.2475 61.1511 3.73027 60.3807 5.50109C60.2539 5.81018 60.0446 6.07845 59.7757 6.27663C59.5068 6.47482 59.1885 6.59526 58.8558 6.62481C57.7012 6.75689 56.5846 7.11779 55.5712 7.68638C53.8151 8.72394 52.4531 10.3151 51.6988 12.2102C51.1349 13.4562 50.9714 14.8464 51.2309 16.1892C51.4772 17.2809 51.8905 18.3281 52.4561 19.2939C53.0584 20.4492 53.9198 21.4496 54.9728 22.2169C56.0258 22.9842 57.242 23.4976 58.5263 23.717C58.794 23.7764 59.0736 23.7468 59.3229 23.6326C59.4733 23.5722 59.6006 23.4656 59.6866 23.3282C59.7725 23.1908 59.8126 23.0296 59.8011 22.8679C59.812 22.7227 59.7719 22.5781 59.6877 22.4592C59.6035 22.3403 59.4805 22.2545 59.3399 22.2165C59.1553 22.1371 58.9631 22.0768 58.7662 22.0366C57.2483 21.807 55.8557 21.0618 54.8227 19.9261C54.1592 19.228 53.6481 18.3995 53.3218 17.4934C52.9955 16.5872 52.8612 15.6231 52.9274 14.6622C52.9936 13.7014 53.2589 12.7648 53.7064 11.9119C54.1538 11.0591 54.7738 10.3086 55.5267 9.70806C56.9132 8.66797 58.6147 8.1354 60.3467 8.19939C61.161 8.1868 61.161 8.1868 61.4304 7.4517L61.4586 7.37767C61.8904 6.1826 62.5255 5.07114 63.3359 4.09234C63.962 3.34665 64.7345 2.73745 65.6056 2.30247C66.4767 1.86749 67.4279 1.616 68.4001 1.56357C69.5434 1.42177 70.7039 1.57278 71.7728 2.00241C72.8418 2.43205 73.784 3.12622 74.5111 4.0198C75.4875 5.24042 76.267 6.60618 76.8215 8.06761C76.8955 8.25194 76.9444 8.28155 77.1405 8.26897C77.5723 8.24281 78.0052 8.24405 78.4368 8.27267C79.8505 8.31334 81.2186 8.78212 82.3602 9.61702C83.2437 10.2739 83.9537 11.1364 84.4285 12.1297C84.9033 13.1229 85.1287 14.217 85.0852 15.3171C85.0596 16.9248 84.4748 18.4734 83.4313 19.6967C82.3879 20.92 80.9508 21.7416 79.3673 22.0203C79.0898 22.0556 78.8189 22.1304 78.5626 22.2424C78.4681 22.2809 78.3876 22.3473 78.3317 22.4327C78.2759 22.5182 78.2475 22.6186 78.2502 22.7206C78.2405 22.8609 78.2621 23.0015 78.3133 23.1325C78.3645 23.2634 78.4441 23.3814 78.5463 23.4779C78.664 23.5805 78.8031 23.6557 78.9533 23.698C79.1036 23.7404 79.2614 23.7489 79.4154 23.7229C80.1025 23.6054 80.7718 23.4012 81.4075 23.1152L81.7036 22.9975C83.2913 22.2706 84.6297 21.092 85.5513 19.6088C86.4729 18.1256 86.937 16.4037 86.8855 14.6583C86.7037 12.4909 85.7239 10.4682 84.1361 8.98186Z" fill="#5F6C89"/>
<path d="M69.009 30.5466C68.3608 30.5466 67.7123 30.5396 67.0641 30.549C66.8137 30.5527 66.7044 30.4619 66.7151 30.2049C66.7277 29.8927 66.7232 29.5797 66.7151 29.2671C66.711 29.0596 66.8047 28.9741 67.0084 28.9786C67.263 28.9843 67.5179 28.9733 67.7724 28.9786C67.9651 28.9827 68.0433 28.8967 68.0408 28.7069C68.0355 28.3386 68.049 27.9658 68.0384 27.5955C68.0314 27.3574 68.13 27.2579 68.3657 27.2608C68.8056 27.2665 69.2455 27.2649 69.6854 27.2608C69.9006 27.2608 70.0054 27.3582 70.0041 27.5759C70.0017 27.9347 70.0123 28.294 70.0021 28.6525C69.9964 28.8571 70.0659 28.9454 70.2807 28.9389C70.523 28.9336 70.7656 28.97 71.0083 28.9679C71.2419 28.9655 71.3495 29.0596 71.3438 29.2953C71.3364 29.596 71.334 29.8976 71.3438 30.1984C71.3516 30.4525 71.2391 30.5478 70.989 30.5445C70.329 30.5413 69.669 30.547 69.009 30.5466Z" fill="#0C8844"/>
<path d="M65.2863 30.5144C64.1201 30.5144 62.9539 30.5123 61.7877 30.5144C61.578 30.5363 61.3681 30.4744 61.2039 30.3422C61.0397 30.2099 60.9345 30.0181 60.9112 29.8085C60.9097 29.7034 60.9305 29.5992 60.9722 29.5028C61.0139 29.4063 61.0755 29.3198 61.1531 29.2488C61.2306 29.1779 61.3223 29.1242 61.4221 29.0912C61.5219 29.0583 61.6275 29.0468 61.732 29.0577C63.0631 29.0495 64.3918 29.0577 65.7249 29.054C65.961 29.054 66.0633 29.1452 66.0551 29.3813C66.0461 29.6473 66.0441 29.9133 66.0551 30.1797C66.0662 30.446 65.9565 30.5324 65.6999 30.4923C65.5617 30.4804 65.4227 30.4792 65.2842 30.4886L65.2863 30.5144Z" fill="#0C8844"/>
<path d="M74.2945 29.0591C74.9656 29.0591 75.6375 29.046 76.3081 29.0627C76.4306 29.0507 76.5541 29.0707 76.6666 29.1206C76.779 29.1706 76.8766 29.2489 76.9498 29.3478C77.023 29.4467 77.0692 29.563 77.0841 29.6851C77.0989 29.8073 77.0818 29.9312 77.0344 30.0448C76.9935 30.1668 76.9164 30.2733 76.8133 30.3502C76.7102 30.4272 76.586 30.4708 76.4575 30.4753C76.2038 30.492 75.9493 30.5162 75.6952 30.5129C74.5867 30.5068 73.4782 30.4814 72.3697 30.4892C72.0276 30.4912 71.9134 30.3644 71.9396 30.0415C71.9544 29.822 71.956 29.6017 71.9445 29.3819C71.9351 29.1405 72.0493 29.0546 72.2801 29.0566C72.9516 29.0627 73.623 29.0566 74.2945 29.0566V29.0591Z" fill="#0C8844"/>
<path d="M69.0439 22.0769C67.142 22.0769 65.2401 22.0769 63.3382 22.0769C62.9177 22.1091 62.5001 21.9849 62.1655 21.7283C61.9965 21.5961 61.8605 21.4266 61.7682 21.2329C61.6759 21.0393 61.6298 20.8269 61.6335 20.6124C61.6249 19.0788 62.0955 18.5992 63.6385 18.5996C67.1985 18.6015 70.7584 18.6015 74.3184 18.5996C74.6078 18.6057 74.8968 18.6263 75.1842 18.6614C75.3808 18.685 75.5695 18.7527 75.7362 18.8594C76.4204 19.276 76.5382 19.9418 76.35 20.9754C76.272 21.3079 76.0778 21.6015 75.8024 21.8035C75.5269 22.0054 75.1884 22.1022 74.8479 22.0765C72.9154 22.0798 70.9808 22.0799 69.0439 22.0769ZM72.8326 19.7208C72.3236 19.7208 71.8145 19.7163 71.3059 19.7208C70.3955 19.7302 70.5186 19.5952 70.4941 20.5392C70.4855 20.8559 70.5927 20.9651 70.9107 20.961C72.0441 20.9475 73.1776 20.9664 74.311 20.9537C75.2673 20.943 75.1323 21.1174 75.1539 20.0657C75.1593 19.8145 75.068 19.7142 74.8102 19.7192C74.1531 19.7286 73.4935 19.7208 72.8342 19.7208H72.8326ZM64.6488 20.3698C64.6559 20.2623 64.6409 20.1545 64.6047 20.0531C64.5686 19.9516 64.512 19.8587 64.4385 19.7799C64.365 19.7012 64.2761 19.6384 64.1774 19.5953C64.0786 19.5523 63.9721 19.53 63.8644 19.5297C63.648 19.5349 63.4423 19.6247 63.2913 19.7799C63.1403 19.935 63.0561 20.1431 63.0567 20.3595C63.0574 20.5706 63.1417 20.7728 63.291 20.9219C63.4404 21.071 63.6427 21.155 63.8538 21.1554C63.9581 21.1577 64.0617 21.1389 64.1587 21.1004C64.2556 21.0618 64.3438 21.0042 64.418 20.931C64.4923 20.8577 64.5511 20.7703 64.591 20.6739C64.6308 20.5775 64.6509 20.4741 64.6501 20.3698H64.6488Z" fill="#0C8844"/>
<path d="M69.0368 17.3293C67.1009 17.3293 65.1654 17.3252 63.2296 17.3321C62.7622 17.331 62.3126 17.153 61.9713 16.8337C61.5052 16.4323 61.4958 14.6961 62.0748 14.2828C62.376 14.0439 62.7463 13.9086 63.1305 13.897C67.0588 13.897 70.9881 13.8978 74.9185 13.8994C75.2775 13.8797 75.6303 13.9987 75.904 14.2318C76.1778 14.465 76.3514 14.7944 76.3891 15.152C76.4427 15.4612 76.4464 15.777 76.4001 16.0874C76.35 16.4483 76.1653 16.7769 75.8831 17.0074C75.6009 17.238 75.242 17.3534 74.8784 17.3305C72.9309 17.3329 70.9837 17.3325 69.0368 17.3293ZM72.83 16.2068C73.3517 16.2068 73.8734 16.2134 74.3947 16.2068C75.2401 16.1938 75.1312 16.3161 75.1578 15.4384C75.1681 15.12 75.0572 15.0128 74.738 15.0169C73.5923 15.0312 72.4429 15.0169 71.2955 15.0227C70.4088 15.0263 70.518 14.9077 70.4984 15.8234C70.4931 16.1099 70.5978 16.2171 70.8826 16.2118C71.5316 16.1978 72.181 16.206 72.83 16.2068ZM63.8716 16.4086C63.976 16.4099 64.0796 16.3907 64.1766 16.3521C64.2736 16.3134 64.362 16.2559 64.4368 16.1831C64.5116 16.1102 64.5713 16.0234 64.6126 15.9274C64.6538 15.8315 64.6757 15.7284 64.6771 15.624C64.6784 15.5195 64.6592 15.4159 64.6205 15.3189C64.5819 15.2219 64.5244 15.1335 64.4516 15.0587C64.3787 14.9839 64.2918 14.9242 64.1959 14.883C64.1 14.8418 63.9969 14.8198 63.8924 14.8185C63.7861 14.814 63.68 14.8308 63.5803 14.8681C63.4806 14.9053 63.3894 14.9622 63.3121 15.0353C63.2348 15.1085 63.1729 15.1964 63.1302 15.2938C63.0875 15.3913 63.0647 15.4964 63.0633 15.6028C63.0619 15.7092 63.0819 15.8148 63.1221 15.9134C63.1622 16.0119 63.2217 16.1014 63.2971 16.1765C63.3725 16.2517 63.4621 16.3109 63.5608 16.3508C63.6595 16.3906 63.7652 16.4103 63.8716 16.4086Z" fill="#0C8844"/>
<path d="M68.9987 26.7788C67.0738 26.7788 65.1491 26.7788 63.2246 26.7788C62.2122 26.7788 61.6594 26.2276 61.6406 25.2141C61.6386 25.0983 61.6386 24.982 61.6406 24.8662C61.6265 24.6623 61.6565 24.4578 61.7287 24.2665C61.8008 24.0753 61.9134 23.9019 62.0588 23.7582C62.2041 23.6144 62.3787 23.5037 62.5707 23.4337C62.7628 23.3636 62.9676 23.3359 63.1714 23.3522C64.5626 23.3412 65.9539 23.3486 67.3451 23.349C69.8259 23.349 72.3071 23.349 74.7887 23.349C75.2345 23.3289 75.6708 23.4823 76.006 23.777C76.7994 24.5021 76.4786 26.2755 75.4884 26.6761C75.2703 26.7558 75.0387 26.7916 74.8067 26.7817C72.8709 26.7787 70.9349 26.7777 68.9987 26.7788ZM70.4987 25.3695C70.4946 25.6224 70.5859 25.7239 70.842 25.7202C71.5029 25.71 72.1641 25.7165 72.825 25.717H73.5558C73.8107 25.717 74.0661 25.7231 74.321 25.719C75.258 25.7026 75.1308 25.8499 75.1569 24.8822C75.1655 24.581 75.0669 24.4767 74.7588 24.4804C73.6225 24.4947 72.4858 24.4771 71.3494 24.4861C70.387 24.4939 70.5163 24.3253 70.4987 25.3695ZM64.6473 25.0704C64.6542 24.9659 64.6391 24.8611 64.603 24.7628C64.567 24.6645 64.5107 24.5748 64.4379 24.4995C64.3651 24.4242 64.2774 24.3649 64.1803 24.3256C64.0833 24.2862 63.9791 24.2676 63.8744 24.2709C63.7677 24.2685 63.6617 24.2877 63.5626 24.3272C63.4635 24.3668 63.3734 24.4259 63.2976 24.501C63.2219 24.5762 63.1621 24.6658 63.1218 24.7646C63.0815 24.8634 63.0615 24.9693 63.0631 25.076C63.0646 25.1827 63.0876 25.2879 63.1308 25.3855C63.1739 25.4831 63.2363 25.571 63.3142 25.6439C63.392 25.7168 63.4838 25.7733 63.584 25.81C63.6842 25.8467 63.7907 25.8627 63.8973 25.8573C63.999 25.8575 64.0998 25.837 64.1933 25.797C64.2869 25.7571 64.3714 25.6985 64.4416 25.625C64.5119 25.5514 64.5665 25.4643 64.602 25.3689C64.6376 25.2736 64.6534 25.1721 64.6486 25.0704H64.6473Z" fill="#0C8844"/>
<path d="M17.8623 44.8354L18.8096 45.0747C18.611 45.8527 18.2529 46.4468 17.7354 46.8569C17.221 47.2638 16.5911 47.4673 15.8457 47.4673C15.0742 47.4673 14.446 47.311 13.9609 46.9985C13.4792 46.6828 13.1113 46.2271 12.8574 45.6313C12.6068 45.0356 12.4814 44.396 12.4814 43.7124C12.4814 42.967 12.623 42.3175 12.9062 41.7642C13.1927 41.2075 13.598 40.786 14.1221 40.4995C14.6494 40.2098 15.2288 40.0649 15.8604 40.0649C16.5765 40.0649 17.1787 40.2472 17.667 40.6118C18.1553 40.9764 18.4954 41.4891 18.6875 42.1499L17.7549 42.3696C17.5889 41.8488 17.348 41.4696 17.0322 41.2319C16.7165 40.9943 16.3193 40.8755 15.8408 40.8755C15.2907 40.8755 14.8301 41.0073 14.459 41.271C14.0911 41.5347 13.8324 41.8895 13.6826 42.3354C13.5329 42.7782 13.458 43.2355 13.458 43.7075C13.458 44.3162 13.5459 44.8485 13.7217 45.3042C13.9007 45.7567 14.1774 46.0952 14.5518 46.3198C14.9261 46.5444 15.3314 46.6567 15.7676 46.6567C16.2982 46.6567 16.7474 46.5037 17.1152 46.1978C17.4831 45.8918 17.7321 45.4377 17.8623 44.8354ZM23.4189 45.6753L24.3271 45.7876C24.1839 46.3182 23.9186 46.73 23.5312 47.0229C23.1439 47.3159 22.6491 47.4624 22.0469 47.4624C21.2884 47.4624 20.6862 47.2297 20.2402 46.7642C19.7975 46.2954 19.5762 45.6395 19.5762 44.7964C19.5762 43.924 19.8008 43.2469 20.25 42.7651C20.6992 42.2834 21.2819 42.0425 21.998 42.0425C22.6914 42.0425 23.2578 42.2785 23.6973 42.7505C24.1367 43.2225 24.3564 43.8866 24.3564 44.7427C24.3564 44.7948 24.3548 44.8729 24.3516 44.9771H20.4844C20.5169 45.5467 20.6781 45.9829 20.9678 46.2856C21.2575 46.5884 21.6188 46.7397 22.0518 46.7397C22.374 46.7397 22.6491 46.6551 22.877 46.4858C23.1048 46.3166 23.2855 46.0464 23.4189 45.6753ZM20.5332 44.2544H23.4287C23.3896 43.8182 23.279 43.491 23.0967 43.2729C22.8167 42.9344 22.4538 42.7651 22.0078 42.7651C21.6042 42.7651 21.264 42.9002 20.9873 43.1704C20.7139 43.4406 20.5625 43.8019 20.5332 44.2544ZM25.4355 47.3452V42.1597H26.2266V42.897C26.6074 42.3273 27.1576 42.0425 27.877 42.0425C28.1895 42.0425 28.4759 42.0994 28.7363 42.2134C29 42.3241 29.1969 42.4705 29.3271 42.6528C29.4574 42.8351 29.5485 43.0516 29.6006 43.3022C29.6331 43.465 29.6494 43.7498 29.6494 44.1567V47.3452H28.7705V44.1909C28.7705 43.8328 28.7363 43.5659 28.668 43.3901C28.5996 43.2111 28.4775 43.0695 28.3018 42.9653C28.1292 42.8579 27.9258 42.8042 27.6914 42.8042C27.3171 42.8042 26.9932 42.923 26.7197 43.1606C26.4495 43.3983 26.3145 43.8491 26.3145 44.5132V47.3452H25.4355ZM32.9209 46.5591L33.0479 47.3354C32.8005 47.3875 32.5791 47.4136 32.3838 47.4136C32.0648 47.4136 31.8174 47.3631 31.6416 47.2622C31.4658 47.1613 31.3421 47.0295 31.2705 46.8667C31.1989 46.7007 31.1631 46.354 31.1631 45.8267V42.8433H30.5186V42.1597H31.1631V40.8755L32.0371 40.3481V42.1597H32.9209V42.8433H32.0371V45.8755C32.0371 46.1261 32.0518 46.2873 32.0811 46.3589C32.1136 46.4305 32.1641 46.4875 32.2324 46.5298C32.304 46.5721 32.4049 46.5933 32.5352 46.5933C32.6328 46.5933 32.7614 46.5819 32.9209 46.5591ZM33.7754 47.3452V42.1597H34.5664V42.9458C34.7682 42.578 34.9538 42.3354 35.123 42.2183C35.2956 42.1011 35.4844 42.0425 35.6895 42.0425C35.9857 42.0425 36.2868 42.1369 36.5928 42.3257L36.29 43.1411C36.0752 43.0142 35.8604 42.9507 35.6455 42.9507C35.4535 42.9507 35.2809 43.0093 35.1279 43.1265C34.9749 43.2404 34.8659 43.3999 34.8008 43.605C34.7031 43.9175 34.6543 44.2593 34.6543 44.6304V47.3452H33.7754ZM40.499 46.7056C40.1735 46.9823 39.8594 47.1776 39.5566 47.2915C39.2572 47.4054 38.9349 47.4624 38.5898 47.4624C38.0202 47.4624 37.5824 47.3241 37.2764 47.0474C36.9704 46.7674 36.8174 46.411 36.8174 45.978C36.8174 45.7241 36.8743 45.493 36.9883 45.2847C37.1055 45.0731 37.2568 44.9038 37.4424 44.7769C37.6312 44.6499 37.8428 44.5539 38.0771 44.4888C38.2497 44.4432 38.5101 44.3993 38.8584 44.3569C39.568 44.2723 40.0905 44.1714 40.4258 44.0542C40.429 43.9338 40.4307 43.8573 40.4307 43.8247C40.4307 43.4666 40.3477 43.2144 40.1816 43.0679C39.957 42.8693 39.6234 42.77 39.1807 42.77C38.7673 42.77 38.4613 42.8433 38.2627 42.9897C38.0674 43.133 37.9225 43.3885 37.8281 43.7563L36.9688 43.6392C37.0469 43.2713 37.1755 42.9751 37.3545 42.7505C37.5335 42.5226 37.7923 42.3485 38.1309 42.228C38.4694 42.1043 38.8617 42.0425 39.3076 42.0425C39.7503 42.0425 40.11 42.0946 40.3867 42.1987C40.6634 42.3029 40.8669 42.4347 40.9971 42.5942C41.1273 42.7505 41.2184 42.9491 41.2705 43.1899C41.2998 43.3397 41.3145 43.6099 41.3145 44.0005V45.1724C41.3145 45.9894 41.3324 46.507 41.3682 46.7251C41.4072 46.9399 41.4821 47.1466 41.5928 47.3452H40.6748C40.5837 47.1629 40.5251 46.9497 40.499 46.7056ZM40.4258 44.7427C40.1068 44.8729 39.6283 44.9836 38.9902 45.0747C38.6289 45.1268 38.3734 45.1854 38.2236 45.2505C38.0739 45.3156 37.9583 45.4116 37.877 45.5386C37.7956 45.6623 37.7549 45.8006 37.7549 45.9536C37.7549 46.188 37.8428 46.3833 38.0186 46.5396C38.1976 46.6958 38.458 46.7739 38.7998 46.7739C39.1383 46.7739 39.4395 46.7007 39.7031 46.5542C39.9668 46.4045 40.1605 46.201 40.2842 45.9438C40.3786 45.7453 40.4258 45.4523 40.4258 45.0649V44.7427ZM42.6621 47.3452V40.187H43.541V47.3452H42.6621ZM47.8037 47.3452V40.187H50.5039C50.9792 40.187 51.3421 40.2098 51.5928 40.2554C51.9443 40.314 52.2389 40.4263 52.4766 40.5923C52.7142 40.755 52.9046 40.9845 53.0479 41.2808C53.1943 41.577 53.2676 41.9025 53.2676 42.2573C53.2676 42.866 53.0739 43.382 52.6865 43.8052C52.2992 44.2251 51.5993 44.4351 50.5869 44.4351H48.751V47.3452H47.8037ZM48.751 43.5903H50.6016C51.2135 43.5903 51.6481 43.4764 51.9053 43.2485C52.1624 43.0207 52.291 42.7 52.291 42.2866C52.291 41.9871 52.2145 41.7316 52.0615 41.52C51.9118 41.3052 51.7132 41.1636 51.4658 41.0952C51.3063 41.0529 51.0117 41.0317 50.582 41.0317H48.751V43.5903ZM57.7451 46.7056C57.4196 46.9823 57.1055 47.1776 56.8027 47.2915C56.5033 47.4054 56.181 47.4624 55.8359 47.4624C55.2663 47.4624 54.8285 47.3241 54.5225 47.0474C54.2165 46.7674 54.0635 46.411 54.0635 45.978C54.0635 45.7241 54.1204 45.493 54.2344 45.2847C54.3516 45.0731 54.5029 44.9038 54.6885 44.7769C54.8773 44.6499 55.0889 44.5539 55.3232 44.4888C55.4958 44.4432 55.7562 44.3993 56.1045 44.3569C56.8141 44.2723 57.3366 44.1714 57.6719 44.0542C57.6751 43.9338 57.6768 43.8573 57.6768 43.8247C57.6768 43.4666 57.5938 43.2144 57.4277 43.0679C57.2031 42.8693 56.8695 42.77 56.4268 42.77C56.0133 42.77 55.7074 42.8433 55.5088 42.9897C55.3135 43.133 55.1686 43.3885 55.0742 43.7563L54.2148 43.6392C54.293 43.2713 54.4215 42.9751 54.6006 42.7505C54.7796 42.5226 55.0384 42.3485 55.377 42.228C55.7155 42.1043 56.1077 42.0425 56.5537 42.0425C56.9964 42.0425 57.3561 42.0946 57.6328 42.1987C57.9095 42.3029 58.113 42.4347 58.2432 42.5942C58.3734 42.7505 58.4645 42.9491 58.5166 43.1899C58.5459 43.3397 58.5605 43.6099 58.5605 44.0005V45.1724C58.5605 45.9894 58.5785 46.507 58.6143 46.7251C58.6533 46.9399 58.7282 47.1466 58.8389 47.3452H57.9209C57.8298 47.1629 57.7712 46.9497 57.7451 46.7056ZM57.6719 44.7427C57.3529 44.8729 56.8743 44.9836 56.2363 45.0747C55.875 45.1268 55.6195 45.1854 55.4697 45.2505C55.32 45.3156 55.2044 45.4116 55.123 45.5386C55.0417 45.6623 55.001 45.8006 55.001 45.9536C55.001 46.188 55.0889 46.3833 55.2646 46.5396C55.4437 46.6958 55.7041 46.7739 56.0459 46.7739C56.3844 46.7739 56.6855 46.7007 56.9492 46.5542C57.2129 46.4045 57.4066 46.201 57.5303 45.9438C57.6247 45.7453 57.6719 45.4523 57.6719 45.0649V44.7427ZM61.8467 46.5591L61.9736 47.3354C61.7262 47.3875 61.5049 47.4136 61.3096 47.4136C60.9906 47.4136 60.7432 47.3631 60.5674 47.2622C60.3916 47.1613 60.2679 47.0295 60.1963 46.8667C60.1247 46.7007 60.0889 46.354 60.0889 45.8267V42.8433H59.4443V42.1597H60.0889V40.8755L60.9629 40.3481V42.1597H61.8467V42.8433H60.9629V45.8755C60.9629 46.1261 60.9775 46.2873 61.0068 46.3589C61.0394 46.4305 61.0898 46.4875 61.1582 46.5298C61.2298 46.5721 61.3307 46.5933 61.4609 46.5933C61.5586 46.5933 61.6872 46.5819 61.8467 46.5591ZM66.0947 45.4458L66.959 45.5581C66.8646 46.1538 66.6221 46.6209 66.2314 46.9595C65.8441 47.2948 65.3672 47.4624 64.8008 47.4624C64.0911 47.4624 63.5199 47.2313 63.0869 46.769C62.6572 46.3035 62.4424 45.6379 62.4424 44.772C62.4424 44.2121 62.5352 43.7222 62.7207 43.3022C62.9062 42.8823 63.1878 42.5682 63.5654 42.3599C63.9463 42.1483 64.3597 42.0425 64.8057 42.0425C65.3688 42.0425 65.8294 42.1857 66.1875 42.4722C66.5456 42.7554 66.7751 43.159 66.876 43.6831L66.0215 43.8149C65.9401 43.4666 65.7952 43.2046 65.5869 43.0288C65.3818 42.853 65.1328 42.7651 64.8398 42.7651C64.3971 42.7651 64.0374 42.9246 63.7607 43.2437C63.484 43.5594 63.3457 44.0607 63.3457 44.7476C63.3457 45.4442 63.4792 45.9504 63.7461 46.2661C64.013 46.5819 64.3613 46.7397 64.791 46.7397C65.1361 46.7397 65.4242 46.634 65.6553 46.4224C65.8864 46.2108 66.0329 45.8853 66.0947 45.4458ZM67.7109 47.3452V40.187H68.5898V42.7554C69 42.2801 69.5176 42.0425 70.1426 42.0425C70.5267 42.0425 70.8604 42.119 71.1436 42.272C71.4268 42.4217 71.6286 42.63 71.749 42.897C71.8727 43.1639 71.9346 43.5513 71.9346 44.0591V47.3452H71.0557V44.0591C71.0557 43.6196 70.9596 43.3006 70.7676 43.1021C70.5788 42.9002 70.3102 42.7993 69.9619 42.7993C69.7015 42.7993 69.4557 42.8677 69.2246 43.0044C68.9967 43.1379 68.834 43.3201 68.7363 43.5513C68.6387 43.7824 68.5898 44.1014 68.5898 44.5083V47.3452H67.7109ZM76.1875 47.3452V40.187H79.3613C79.9993 40.187 80.4844 40.2521 80.8164 40.3823C81.1484 40.5093 81.4137 40.7355 81.6123 41.061C81.8109 41.3866 81.9102 41.7463 81.9102 42.1401C81.9102 42.6479 81.7458 43.076 81.417 43.4243C81.0882 43.7726 80.5804 43.994 79.8936 44.0884C80.1442 44.2088 80.3346 44.3276 80.4648 44.4448C80.7415 44.6987 81.0036 45.0161 81.251 45.397L82.4961 47.3452H81.3047L80.3574 45.856C80.0807 45.4263 79.8529 45.0975 79.6738 44.8696C79.4948 44.6418 79.3337 44.4823 79.1904 44.3911C79.0505 44.3 78.9072 44.2365 78.7607 44.2007C78.6533 44.1779 78.4775 44.1665 78.2334 44.1665H77.1348V47.3452H76.1875ZM77.1348 43.3462H79.1709C79.6038 43.3462 79.9424 43.3022 80.1865 43.2144C80.4307 43.1232 80.6162 42.98 80.7432 42.7847C80.8701 42.5861 80.9336 42.3713 80.9336 42.1401C80.9336 41.8016 80.8099 41.5233 80.5625 41.3052C80.3184 41.0871 79.931 40.978 79.4004 40.978H77.1348V43.3462ZM86.8369 45.6753L87.7451 45.7876C87.6019 46.3182 87.3366 46.73 86.9492 47.0229C86.5618 47.3159 86.0671 47.4624 85.4648 47.4624C84.7064 47.4624 84.1042 47.2297 83.6582 46.7642C83.2155 46.2954 82.9941 45.6395 82.9941 44.7964C82.9941 43.924 83.2188 43.2469 83.668 42.7651C84.1172 42.2834 84.6999 42.0425 85.416 42.0425C86.1094 42.0425 86.6758 42.2785 87.1152 42.7505C87.5547 43.2225 87.7744 43.8866 87.7744 44.7427C87.7744 44.7948 87.7728 44.8729 87.7695 44.9771H83.9023C83.9349 45.5467 84.096 45.9829 84.3857 46.2856C84.6755 46.5884 85.0368 46.7397 85.4697 46.7397C85.792 46.7397 86.0671 46.6551 86.2949 46.4858C86.5228 46.3166 86.7035 46.0464 86.8369 45.6753ZM83.9512 44.2544H86.8467C86.8076 43.8182 86.6969 43.491 86.5146 43.2729C86.2347 42.9344 85.8717 42.7651 85.4258 42.7651C85.0221 42.7651 84.682 42.9002 84.4053 43.1704C84.1318 43.4406 83.9805 43.8019 83.9512 44.2544ZM88.8535 49.3325V42.1597H89.6543V42.8335C89.8431 42.5698 90.0563 42.3729 90.2939 42.2427C90.5316 42.1092 90.8197 42.0425 91.1582 42.0425C91.6009 42.0425 91.9915 42.1564 92.3301 42.3843C92.6686 42.6121 92.9242 42.9344 93.0967 43.3511C93.2692 43.7645 93.3555 44.2186 93.3555 44.7134C93.3555 45.244 93.2594 45.7225 93.0674 46.1489C92.8786 46.5721 92.6019 46.8976 92.2373 47.1255C91.876 47.3501 91.4951 47.4624 91.0947 47.4624C90.8018 47.4624 90.5381 47.4006 90.3037 47.2769C90.0726 47.1532 89.8822 46.9969 89.7324 46.8081V49.3325H88.8535ZM89.6494 44.7817C89.6494 45.4491 89.7845 45.9422 90.0547 46.2612C90.3249 46.5802 90.652 46.7397 91.0361 46.7397C91.4268 46.7397 91.7604 46.5754 92.0371 46.2466C92.3171 45.9146 92.457 45.4019 92.457 44.7085C92.457 44.0477 92.3203 43.5529 92.0469 43.2241C91.7767 42.8953 91.4528 42.731 91.0752 42.731C90.7008 42.731 90.3688 42.9067 90.0791 43.2583C89.7926 43.6066 89.6494 44.1144 89.6494 44.7817ZM94.0928 44.7524C94.0928 43.7922 94.3597 43.0809 94.8936 42.6187C95.3395 42.2345 95.8831 42.0425 96.5244 42.0425C97.2373 42.0425 97.82 42.2769 98.2725 42.7456C98.7249 43.2111 98.9512 43.8556 98.9512 44.6792C98.9512 45.3465 98.8503 45.8722 98.6484 46.2563C98.4499 46.6372 98.1585 46.9334 97.7744 47.145C97.3936 47.3566 96.9769 47.4624 96.5244 47.4624C95.7985 47.4624 95.2109 47.2297 94.7617 46.7642C94.3158 46.2987 94.0928 45.6281 94.0928 44.7524ZM94.9961 44.7524C94.9961 45.4165 95.141 45.9146 95.4307 46.2466C95.7204 46.5754 96.085 46.7397 96.5244 46.7397C96.9606 46.7397 97.3236 46.5737 97.6133 46.2417C97.903 45.9097 98.0479 45.4035 98.0479 44.7231C98.0479 44.0819 97.9014 43.5968 97.6084 43.2681C97.3187 42.936 96.9574 42.77 96.5244 42.77C96.085 42.77 95.7204 42.9344 95.4307 43.2632C95.141 43.592 94.9961 44.0884 94.9961 44.7524ZM99.6348 45.7974L100.504 45.6606C100.553 46.009 100.688 46.2759 100.909 46.4614C101.134 46.647 101.446 46.7397 101.847 46.7397C102.25 46.7397 102.55 46.6584 102.745 46.4956C102.94 46.3296 103.038 46.1359 103.038 45.9146C103.038 45.716 102.952 45.5597 102.779 45.4458C102.659 45.3677 102.359 45.2684 101.881 45.1479C101.236 44.9852 100.789 44.8452 100.538 44.728C100.291 44.6076 100.102 44.4432 99.9717 44.2349C99.8447 44.0233 99.7812 43.7905 99.7812 43.5366C99.7812 43.3055 99.8333 43.0923 99.9375 42.897C100.045 42.6984 100.19 42.534 100.372 42.4038C100.509 42.3029 100.694 42.2183 100.929 42.1499C101.166 42.0783 101.42 42.0425 101.69 42.0425C102.097 42.0425 102.454 42.1011 102.76 42.2183C103.069 42.3354 103.297 42.495 103.443 42.6968C103.59 42.8953 103.691 43.1623 103.746 43.4976L102.887 43.6147C102.848 43.3478 102.734 43.1395 102.545 42.9897C102.359 42.84 102.096 42.7651 101.754 42.7651C101.35 42.7651 101.062 42.8319 100.89 42.9653C100.717 43.0988 100.631 43.255 100.631 43.4341C100.631 43.548 100.667 43.6506 100.738 43.7417C100.81 43.8361 100.922 43.9142 101.075 43.9761C101.163 44.0086 101.422 44.0835 101.852 44.2007C102.473 44.3667 102.906 44.5034 103.15 44.6108C103.398 44.715 103.591 44.868 103.731 45.0698C103.871 45.2716 103.941 45.5223 103.941 45.8218C103.941 46.1147 103.855 46.3914 103.683 46.6519C103.513 46.909 103.268 47.1092 102.945 47.2524C102.623 47.3924 102.258 47.4624 101.852 47.4624C101.178 47.4624 100.663 47.3224 100.309 47.0425C99.957 46.7625 99.7324 46.3475 99.6348 45.7974ZM104.991 41.1978V40.187H105.87V41.1978H104.991ZM104.991 47.3452V42.1597H105.87V47.3452H104.991ZM109.132 46.5591L109.259 47.3354C109.011 47.3875 108.79 47.4136 108.595 47.4136C108.276 47.4136 108.028 47.3631 107.853 47.2622C107.677 47.1613 107.553 47.0295 107.481 46.8667C107.41 46.7007 107.374 46.354 107.374 45.8267V42.8433H106.729V42.1597H107.374V40.8755L108.248 40.3481V42.1597H109.132V42.8433H108.248V45.8755C108.248 46.1261 108.263 46.2873 108.292 46.3589C108.325 46.4305 108.375 46.4875 108.443 46.5298C108.515 46.5721 108.616 46.5933 108.746 46.5933C108.844 46.5933 108.972 46.5819 109.132 46.5591ZM109.669 44.7524C109.669 43.7922 109.936 43.0809 110.47 42.6187C110.916 42.2345 111.459 42.0425 112.101 42.0425C112.813 42.0425 113.396 42.2769 113.849 42.7456C114.301 43.2111 114.527 43.8556 114.527 44.6792C114.527 45.3465 114.426 45.8722 114.225 46.2563C114.026 46.6372 113.735 46.9334 113.351 47.145C112.97 47.3566 112.553 47.4624 112.101 47.4624C111.375 47.4624 110.787 47.2297 110.338 46.7642C109.892 46.2987 109.669 45.6281 109.669 44.7524ZM110.572 44.7524C110.572 45.4165 110.717 45.9146 111.007 46.2466C111.297 46.5754 111.661 46.7397 112.101 46.7397C112.537 46.7397 112.9 46.5737 113.189 46.2417C113.479 45.9097 113.624 45.4035 113.624 44.7231C113.624 44.0819 113.478 43.5968 113.185 43.2681C112.895 42.936 112.534 42.77 112.101 42.77C111.661 42.77 111.297 42.9344 111.007 43.2632C110.717 43.592 110.572 44.0884 110.572 44.7524ZM115.553 47.3452V42.1597H116.344V42.9458C116.546 42.578 116.731 42.3354 116.9 42.2183C117.073 42.1011 117.262 42.0425 117.467 42.0425C117.763 42.0425 118.064 42.1369 118.37 42.3257L118.067 43.1411C117.853 43.0142 117.638 42.9507 117.423 42.9507C117.231 42.9507 117.058 43.0093 116.905 43.1265C116.752 43.2404 116.643 43.3999 116.578 43.605C116.48 43.9175 116.432 44.2593 116.432 44.6304V47.3452H115.553ZM118.854 49.3423L118.756 48.5171C118.948 48.5692 119.116 48.5952 119.259 48.5952C119.454 48.5952 119.61 48.5627 119.728 48.4976C119.845 48.4325 119.941 48.3413 120.016 48.2241C120.071 48.1362 120.16 47.9181 120.284 47.5698C120.3 47.521 120.326 47.4494 120.362 47.355L118.395 42.1597H119.342L120.421 45.1626C120.561 45.5435 120.686 45.9438 120.797 46.3638C120.898 45.9601 121.018 45.5662 121.158 45.1821L122.267 42.1597H123.146L121.173 47.4331C120.961 48.0028 120.797 48.395 120.68 48.6099C120.523 48.8996 120.344 49.1112 120.143 49.2446C119.941 49.3813 119.7 49.4497 119.42 49.4497C119.251 49.4497 119.062 49.4139 118.854 49.3423ZM123.233 47.4673L125.309 40.0649H126.012L123.941 47.4673H123.233ZM8.29688 55.8354L9.24414 56.0747C9.04557 56.8527 8.6875 57.4468 8.16992 57.8569C7.6556 58.2638 7.02572 58.4673 6.28027 58.4673C5.50879 58.4673 4.88053 58.311 4.39551 57.9985C3.91374 57.6828 3.5459 57.2271 3.29199 56.6313C3.04134 56.0356 2.91602 55.396 2.91602 54.7124C2.91602 53.967 3.05762 53.3175 3.34082 52.7642C3.62728 52.2075 4.03255 51.786 4.55664 51.4995C5.08398 51.2098 5.66341 51.0649 6.29492 51.0649C7.01107 51.0649 7.61328 51.2472 8.10156 51.6118C8.58984 51.9764 8.93001 52.4891 9.12207 53.1499L8.18945 53.3696C8.02344 52.8488 7.78255 52.4696 7.4668 52.2319C7.15104 51.9943 6.75391 51.8755 6.27539 51.8755C5.72526 51.8755 5.26465 52.0073 4.89355 52.271C4.52572 52.5347 4.26693 52.8895 4.11719 53.3354C3.96745 53.7782 3.89258 54.2355 3.89258 54.7075C3.89258 55.3162 3.98047 55.8485 4.15625 56.3042C4.33529 56.7567 4.61198 57.0952 4.98633 57.3198C5.36068 57.5444 5.76595 57.6567 6.20215 57.6567C6.73275 57.6567 7.18197 57.5037 7.5498 57.1978C7.91764 56.8918 8.16667 56.4377 8.29688 55.8354ZM13.8535 56.6753L14.7617 56.7876C14.6185 57.3182 14.3532 57.73 13.9658 58.0229C13.5785 58.3159 13.0837 58.4624 12.4814 58.4624C11.723 58.4624 11.1208 58.2297 10.6748 57.7642C10.2321 57.2954 10.0107 56.6395 10.0107 55.7964C10.0107 54.924 10.2354 54.2469 10.6846 53.7651C11.1338 53.2834 11.7165 53.0425 12.4326 53.0425C13.126 53.0425 13.6924 53.2785 14.1318 53.7505C14.5713 54.2225 14.791 54.8866 14.791 55.7427C14.791 55.7948 14.7894 55.8729 14.7861 55.9771H10.9189C10.9515 56.5467 11.1126 56.9829 11.4023 57.2856C11.6921 57.5884 12.0534 57.7397 12.4863 57.7397C12.8086 57.7397 13.0837 57.6551 13.3115 57.4858C13.5394 57.3166 13.7201 57.0464 13.8535 56.6753ZM10.9678 55.2544H13.8633C13.8242 54.8182 13.7135 54.491 13.5312 54.2729C13.2513 53.9344 12.8883 53.7651 12.4424 53.7651C12.0387 53.7651 11.6986 53.9002 11.4219 54.1704C11.1484 54.4406 10.9971 54.8019 10.9678 55.2544ZM15.8701 58.3452V53.1597H16.6611V53.897C17.042 53.3273 17.5921 53.0425 18.3115 53.0425C18.624 53.0425 18.9105 53.0994 19.1709 53.2134C19.4346 53.3241 19.6315 53.4705 19.7617 53.6528C19.8919 53.8351 19.9831 54.0516 20.0352 54.3022C20.0677 54.465 20.084 54.7498 20.084 55.1567V58.3452H19.2051V55.1909C19.2051 54.8328 19.1709 54.5659 19.1025 54.3901C19.0342 54.2111 18.9121 54.0695 18.7363 53.9653C18.5638 53.8579 18.3604 53.8042 18.126 53.8042C17.7516 53.8042 17.4277 53.923 17.1543 54.1606C16.8841 54.3983 16.749 54.8491 16.749 55.5132V58.3452H15.8701ZM23.3555 57.5591L23.4824 58.3354C23.235 58.3875 23.0137 58.4136 22.8184 58.4136C22.4993 58.4136 22.252 58.3631 22.0762 58.2622C21.9004 58.1613 21.7767 58.0295 21.7051 57.8667C21.6335 57.7007 21.5977 57.354 21.5977 56.8267V53.8433H20.9531V53.1597H21.5977V51.8755L22.4717 51.3481V53.1597H23.3555V53.8433H22.4717V56.8755C22.4717 57.1261 22.4863 57.2873 22.5156 57.3589C22.5482 57.4305 22.5986 57.4875 22.667 57.5298C22.7386 57.5721 22.8395 57.5933 22.9697 57.5933C23.0674 57.5933 23.196 57.5819 23.3555 57.5591ZM24.21 58.3452V53.1597H25.001V53.9458C25.2028 53.578 25.3883 53.3354 25.5576 53.2183C25.7301 53.1011 25.9189 53.0425 26.124 53.0425C26.4202 53.0425 26.7214 53.1369 27.0273 53.3257L26.7246 54.1411C26.5098 54.0142 26.2949 53.9507 26.0801 53.9507C25.888 53.9507 25.7155 54.0093 25.5625 54.1265C25.4095 54.2404 25.3005 54.3999 25.2354 54.605C25.1377 54.9175 25.0889 55.2593 25.0889 55.6304V58.3452H24.21ZM30.9336 57.7056C30.6081 57.9823 30.2939 58.1776 29.9912 58.2915C29.6917 58.4054 29.3695 58.4624 29.0244 58.4624C28.4548 58.4624 28.0169 58.3241 27.7109 58.0474C27.4049 57.7674 27.252 57.411 27.252 56.978C27.252 56.7241 27.3089 56.493 27.4229 56.2847C27.54 56.0731 27.6914 55.9038 27.877 55.7769C28.0658 55.6499 28.2773 55.5539 28.5117 55.4888C28.6842 55.4432 28.9447 55.3993 29.293 55.3569C30.0026 55.2723 30.5251 55.1714 30.8604 55.0542C30.8636 54.9338 30.8652 54.8573 30.8652 54.8247C30.8652 54.4666 30.7822 54.2144 30.6162 54.0679C30.3916 53.8693 30.0579 53.77 29.6152 53.77C29.2018 53.77 28.8958 53.8433 28.6973 53.9897C28.502 54.133 28.3571 54.3885 28.2627 54.7563L27.4033 54.6392C27.4814 54.2713 27.61 53.9751 27.7891 53.7505C27.9681 53.5226 28.2269 53.3485 28.5654 53.228C28.904 53.1043 29.2962 53.0425 29.7422 53.0425C30.1849 53.0425 30.5446 53.0946 30.8213 53.1987C31.098 53.3029 31.3014 53.4347 31.4316 53.5942C31.5618 53.7505 31.653 53.9491 31.7051 54.1899C31.7344 54.3397 31.749 54.6099 31.749 55.0005V56.1724C31.749 56.9894 31.7669 57.507 31.8027 57.7251C31.8418 57.9399 31.9167 58.1466 32.0273 58.3452H31.1094C31.0182 58.1629 30.9596 57.9497 30.9336 57.7056ZM30.8604 55.7427C30.5413 55.8729 30.0628 55.9836 29.4248 56.0747C29.0635 56.1268 28.8079 56.1854 28.6582 56.2505C28.5085 56.3156 28.3929 56.4116 28.3115 56.5386C28.2301 56.6623 28.1895 56.8006 28.1895 56.9536C28.1895 57.188 28.2773 57.3833 28.4531 57.5396C28.6322 57.6958 28.8926 57.7739 29.2344 57.7739C29.5729 57.7739 29.874 57.7007 30.1377 57.5542C30.4014 57.4045 30.5951 57.201 30.7188 56.9438C30.8132 56.7453 30.8604 56.4523 30.8604 56.0649V55.7427ZM33.0967 58.3452V51.187H33.9756V58.3452H33.0967ZM40.2842 58.3452L37.5107 51.187H38.5361L40.3965 56.3872C40.5462 56.8039 40.6715 57.1945 40.7725 57.5591C40.8831 57.1685 41.0117 56.7778 41.1582 56.3872L43.0918 51.187H44.0586L41.2559 58.3452H40.2842ZM47.8232 58.3452V57.5835C47.4196 58.1694 46.8711 58.4624 46.1777 58.4624C45.8717 58.4624 45.5853 58.4038 45.3184 58.2866C45.0547 58.1694 44.8577 58.0229 44.7275 57.8472C44.6006 57.6681 44.5111 57.45 44.459 57.1929C44.4232 57.0203 44.4053 56.7469 44.4053 56.3726V53.1597H45.2842V56.0356C45.2842 56.4946 45.3021 56.8039 45.3379 56.9634C45.3932 57.1945 45.5104 57.3768 45.6895 57.5103C45.8685 57.6405 46.0898 57.7056 46.3535 57.7056C46.6172 57.7056 46.8646 57.6388 47.0957 57.5054C47.3268 57.3687 47.4896 57.1847 47.584 56.9536C47.6816 56.7192 47.7305 56.3807 47.7305 55.938V53.1597H48.6094V58.3452H47.8232ZM49.9717 58.3452V51.187H50.8506V58.3452H49.9717ZM52.2178 58.3452V53.1597H53.0088V53.897C53.3896 53.3273 53.9398 53.0425 54.6592 53.0425C54.9717 53.0425 55.2581 53.0994 55.5186 53.2134C55.7822 53.3241 55.9792 53.4705 56.1094 53.6528C56.2396 53.8351 56.3307 54.0516 56.3828 54.3022C56.4154 54.465 56.4316 54.7498 56.4316 55.1567V58.3452H55.5527V55.1909C55.5527 54.8328 55.5186 54.5659 55.4502 54.3901C55.3818 54.2111 55.2598 54.0695 55.084 53.9653C54.9115 53.8579 54.708 53.8042 54.4736 53.8042C54.0993 53.8042 53.7754 53.923 53.502 54.1606C53.2318 54.3983 53.0967 54.8491 53.0967 55.5132V58.3452H52.2178ZM61.334 56.6753L62.2422 56.7876C62.099 57.3182 61.8337 57.73 61.4463 58.0229C61.0589 58.3159 60.5641 58.4624 59.9619 58.4624C59.2035 58.4624 58.6012 58.2297 58.1553 57.7642C57.7126 57.2954 57.4912 56.6395 57.4912 55.7964C57.4912 54.924 57.7158 54.2469 58.165 53.7651C58.6143 53.2834 59.1969 53.0425 59.9131 53.0425C60.6064 53.0425 61.1729 53.2785 61.6123 53.7505C62.0518 54.2225 62.2715 54.8866 62.2715 55.7427C62.2715 55.7948 62.2699 55.8729 62.2666 55.9771H58.3994C58.432 56.5467 58.5931 56.9829 58.8828 57.2856C59.1725 57.5884 59.5339 57.7397 59.9668 57.7397C60.2891 57.7397 60.5641 57.6551 60.792 57.4858C61.0199 57.3166 61.2005 57.0464 61.334 56.6753ZM58.4482 55.2544H61.3438C61.3047 54.8182 61.194 54.491 61.0117 54.2729C60.7318 53.9344 60.3688 53.7651 59.9229 53.7651C59.5192 53.7651 59.179 53.9002 58.9023 54.1704C58.6289 54.4406 58.4775 54.8019 58.4482 55.2544ZM63.3408 58.3452V53.1597H64.1318V53.9458C64.3337 53.578 64.5192 53.3354 64.6885 53.2183C64.861 53.1011 65.0498 53.0425 65.2549 53.0425C65.5511 53.0425 65.8522 53.1369 66.1582 53.3257L65.8555 54.1411C65.6406 54.0142 65.4258 53.9507 65.2109 53.9507C65.0189 53.9507 64.8464 54.0093 64.6934 54.1265C64.5404 54.2404 64.4313 54.3999 64.3662 54.605C64.2686 54.9175 64.2197 55.2593 64.2197 55.6304V58.3452H63.3408ZM70.0645 57.7056C69.7389 57.9823 69.4248 58.1776 69.1221 58.2915C68.8226 58.4054 68.5003 58.4624 68.1553 58.4624C67.5856 58.4624 67.1478 58.3241 66.8418 58.0474C66.5358 57.7674 66.3828 57.411 66.3828 56.978C66.3828 56.7241 66.4398 56.493 66.5537 56.2847C66.6709 56.0731 66.8223 55.9038 67.0078 55.7769C67.1966 55.6499 67.4082 55.5539 67.6426 55.4888C67.8151 55.4432 68.0755 55.3993 68.4238 55.3569C69.1335 55.2723 69.6559 55.1714 69.9912 55.0542C69.9945 54.9338 69.9961 54.8573 69.9961 54.8247C69.9961 54.4666 69.9131 54.2144 69.7471 54.0679C69.5225 53.8693 69.1888 53.77 68.7461 53.77C68.3327 53.77 68.0267 53.8433 67.8281 53.9897C67.6328 54.133 67.488 54.3885 67.3936 54.7563L66.5342 54.6392C66.6123 54.2713 66.7409 53.9751 66.9199 53.7505C67.099 53.5226 67.3577 53.3485 67.6963 53.228C68.0348 53.1043 68.4271 53.0425 68.873 53.0425C69.3158 53.0425 69.6755 53.0946 69.9521 53.1987C70.2288 53.3029 70.4323 53.4347 70.5625 53.5942C70.6927 53.7505 70.7839 53.9491 70.8359 54.1899C70.8652 54.3397 70.8799 54.6099 70.8799 55.0005V56.1724C70.8799 56.9894 70.8978 57.507 70.9336 57.7251C70.9727 57.9399 71.0475 58.1466 71.1582 58.3452H70.2402C70.1491 58.1629 70.0905 57.9497 70.0645 57.7056ZM69.9912 55.7427C69.6722 55.8729 69.1937 55.9836 68.5557 56.0747C68.1943 56.1268 67.9388 56.1854 67.7891 56.2505C67.6393 56.3156 67.5238 56.4116 67.4424 56.5386C67.361 56.6623 67.3203 56.8006 67.3203 56.9536C67.3203 57.188 67.4082 57.3833 67.584 57.5396C67.763 57.6958 68.0234 57.7739 68.3652 57.7739C68.7038 57.7739 69.0049 57.7007 69.2686 57.5542C69.5322 57.4045 69.7259 57.201 69.8496 56.9438C69.944 56.7453 69.9912 56.4523 69.9912 56.0649V55.7427ZM73.0576 58.3452H72.2422V51.187H73.1211V53.7407C73.4922 53.2752 73.9658 53.0425 74.542 53.0425C74.861 53.0425 75.1621 53.1076 75.4453 53.2378C75.7318 53.3647 75.9661 53.5454 76.1484 53.7798C76.334 54.0109 76.4788 54.2909 76.583 54.6196C76.6872 54.9484 76.7393 55.3 76.7393 55.6743C76.7393 56.563 76.5195 57.2498 76.0801 57.7349C75.6406 58.2199 75.1133 58.4624 74.498 58.4624C73.8861 58.4624 73.4059 58.2069 73.0576 57.6958V58.3452ZM73.0479 55.7134C73.0479 56.3351 73.1325 56.7843 73.3018 57.061C73.5785 57.5135 73.9528 57.7397 74.4248 57.7397C74.8089 57.7397 75.141 57.5737 75.4209 57.2417C75.7008 56.9064 75.8408 56.4084 75.8408 55.7476C75.8408 55.0705 75.7057 54.5708 75.4355 54.2485C75.1686 53.9263 74.8447 53.7651 74.4639 53.7651C74.0798 53.7651 73.7477 53.9328 73.4678 54.2681C73.1878 54.6001 73.0479 55.0819 73.0479 55.7134ZM77.8184 52.1978V51.187H78.6973V52.1978H77.8184ZM77.8184 58.3452V53.1597H78.6973V58.3452H77.8184ZM80.0205 58.3452V51.187H80.8994V58.3452H80.0205ZM82.2715 52.1978V51.187H83.1504V52.1978H82.2715ZM82.2715 58.3452V53.1597H83.1504V58.3452H82.2715ZM86.4121 57.5591L86.5391 58.3354C86.2917 58.3875 86.0703 58.4136 85.875 58.4136C85.556 58.4136 85.3086 58.3631 85.1328 58.2622C84.957 58.1613 84.8333 58.0295 84.7617 57.8667C84.6901 57.7007 84.6543 57.354 84.6543 56.8267V53.8433H84.0098V53.1597H84.6543V51.8755L85.5283 51.3481V53.1597H86.4121V53.8433H85.5283V56.8755C85.5283 57.1261 85.543 57.2873 85.5723 57.3589C85.6048 57.4305 85.6553 57.4875 85.7236 57.5298C85.7952 57.5721 85.8962 57.5933 86.0264 57.5933C86.124 57.5933 86.2526 57.5819 86.4121 57.5591ZM87.2373 60.3423L87.1396 59.5171C87.3317 59.5692 87.4993 59.5952 87.6426 59.5952C87.8379 59.5952 87.9941 59.5627 88.1113 59.4976C88.2285 59.4325 88.3245 59.3413 88.3994 59.2241C88.4548 59.1362 88.5443 58.9181 88.668 58.5698C88.6842 58.521 88.7103 58.4494 88.7461 58.355L86.7783 53.1597H87.7256L88.8047 56.1626C88.9447 56.5435 89.07 56.9438 89.1807 57.3638C89.2816 56.9601 89.402 56.5662 89.542 56.1821L90.6504 53.1597H91.5293L89.5566 58.4331C89.3451 59.0028 89.1807 59.395 89.0635 59.6099C88.9072 59.8996 88.7282 60.1112 88.5264 60.2446C88.3245 60.3813 88.0837 60.4497 87.8037 60.4497C87.6344 60.4497 87.4456 60.4139 87.2373 60.3423ZM98.4238 58.3452V57.6909C98.0951 58.2052 97.6117 58.4624 96.9736 58.4624C96.5602 58.4624 96.1794 58.3485 95.8311 58.1206C95.486 57.8927 95.2174 57.5754 95.0254 57.1685C94.8366 56.7583 94.7422 56.2879 94.7422 55.7573C94.7422 55.2397 94.8285 54.771 95.001 54.3511C95.1735 53.9279 95.4323 53.604 95.7773 53.3794C96.1224 53.1548 96.5081 53.0425 96.9346 53.0425C97.2471 53.0425 97.5254 53.1092 97.7695 53.2427C98.0137 53.3729 98.2122 53.5438 98.3652 53.7554V51.187H99.2393V58.3452H98.4238ZM95.6455 55.7573C95.6455 56.4214 95.7855 56.9178 96.0654 57.2466C96.3454 57.5754 96.6758 57.7397 97.0566 57.7397C97.4408 57.7397 97.7663 57.5835 98.0332 57.271C98.3034 56.9552 98.4385 56.4751 98.4385 55.8306C98.4385 55.1209 98.3018 54.6001 98.0283 54.2681C97.7549 53.936 97.418 53.77 97.0176 53.77C96.627 53.77 96.2998 53.9295 96.0361 54.2485C95.7757 54.5675 95.6455 55.0705 95.6455 55.7573ZM104.01 57.7056C103.684 57.9823 103.37 58.1776 103.067 58.2915C102.768 58.4054 102.446 58.4624 102.101 58.4624C101.531 58.4624 101.093 58.3241 100.787 58.0474C100.481 57.7674 100.328 57.411 100.328 56.978C100.328 56.7241 100.385 56.493 100.499 56.2847C100.616 56.0731 100.768 55.9038 100.953 55.7769C101.142 55.6499 101.354 55.5539 101.588 55.4888C101.76 55.4432 102.021 55.3993 102.369 55.3569C103.079 55.2723 103.601 55.1714 103.937 55.0542C103.94 54.9338 103.941 54.8573 103.941 54.8247C103.941 54.4666 103.858 54.2144 103.692 54.0679C103.468 53.8693 103.134 53.77 102.691 53.77C102.278 53.77 101.972 53.8433 101.773 53.9897C101.578 54.133 101.433 54.3885 101.339 54.7563L100.479 54.6392C100.558 54.2713 100.686 53.9751 100.865 53.7505C101.044 53.5226 101.303 53.3485 101.642 53.228C101.98 53.1043 102.372 53.0425 102.818 53.0425C103.261 53.0425 103.621 53.0946 103.897 53.1987C104.174 53.3029 104.378 53.4347 104.508 53.5942C104.638 53.7505 104.729 53.9491 104.781 54.1899C104.811 54.3397 104.825 54.6099 104.825 55.0005V56.1724C104.825 56.9894 104.843 57.507 104.879 57.7251C104.918 57.9399 104.993 58.1466 105.104 58.3452H104.186C104.094 58.1629 104.036 57.9497 104.01 57.7056ZM103.937 55.7427C103.618 55.8729 103.139 55.9836 102.501 56.0747C102.14 56.1268 101.884 56.1854 101.734 56.2505C101.585 56.3156 101.469 56.4116 101.388 56.5386C101.306 56.6623 101.266 56.8006 101.266 56.9536C101.266 57.188 101.354 57.3833 101.529 57.5396C101.708 57.6958 101.969 57.7739 102.311 57.7739C102.649 57.7739 102.95 57.7007 103.214 57.5542C103.478 57.4045 103.671 57.201 103.795 56.9438C103.889 56.7453 103.937 56.4523 103.937 56.0649V55.7427ZM108.111 57.5591L108.238 58.3354C107.991 58.3875 107.77 58.4136 107.574 58.4136C107.255 58.4136 107.008 58.3631 106.832 58.2622C106.656 58.1613 106.533 58.0295 106.461 57.8667C106.389 57.7007 106.354 57.354 106.354 56.8267V53.8433H105.709V53.1597H106.354V51.8755L107.228 51.3481V53.1597H108.111V53.8433H107.228V56.8755C107.228 57.1261 107.242 57.2873 107.271 57.3589C107.304 57.4305 107.354 57.4875 107.423 57.5298C107.494 57.5721 107.595 57.5933 107.726 57.5933C107.823 57.5933 107.952 57.5819 108.111 57.5591ZM112.359 57.7056C112.034 57.9823 111.72 58.1776 111.417 58.2915C111.118 58.4054 110.795 58.4624 110.45 58.4624C109.881 58.4624 109.443 58.3241 109.137 58.0474C108.831 57.7674 108.678 57.411 108.678 56.978C108.678 56.7241 108.735 56.493 108.849 56.2847C108.966 56.0731 109.117 55.9038 109.303 55.7769C109.492 55.6499 109.703 55.5539 109.938 55.4888C110.11 55.4432 110.37 55.3993 110.719 55.3569C111.428 55.2723 111.951 55.1714 112.286 55.0542C112.289 54.9338 112.291 54.8573 112.291 54.8247C112.291 54.4666 112.208 54.2144 112.042 54.0679C111.817 53.8693 111.484 53.77 111.041 53.77C110.628 53.77 110.322 53.8433 110.123 53.9897C109.928 54.133 109.783 54.3885 109.688 54.7563L108.829 54.6392C108.907 54.2713 109.036 53.9751 109.215 53.7505C109.394 53.5226 109.653 53.3485 109.991 53.228C110.33 53.1043 110.722 53.0425 111.168 53.0425C111.611 53.0425 111.97 53.0946 112.247 53.1987C112.524 53.3029 112.727 53.4347 112.857 53.5942C112.988 53.7505 113.079 53.9491 113.131 54.1899C113.16 54.3397 113.175 54.6099 113.175 55.0005V56.1724C113.175 56.9894 113.193 57.507 113.229 57.7251C113.268 57.9399 113.342 58.1466 113.453 58.3452H112.535C112.444 58.1629 112.385 57.9497 112.359 57.7056ZM112.286 55.7427C111.967 55.8729 111.489 55.9836 110.851 56.0747C110.489 56.1268 110.234 56.1854 110.084 56.2505C109.934 56.3156 109.819 56.4116 109.737 56.5386C109.656 56.6623 109.615 56.8006 109.615 56.9536C109.615 57.188 109.703 57.3833 109.879 57.5396C110.058 57.6958 110.318 57.7739 110.66 57.7739C110.999 57.7739 111.3 57.7007 111.563 57.5542C111.827 57.4045 112.021 57.201 112.145 56.9438C112.239 56.7453 112.286 56.4523 112.286 56.0649V55.7427ZM115.353 58.3452H114.537V51.187H115.416V53.7407C115.787 53.2752 116.261 53.0425 116.837 53.0425C117.156 53.0425 117.457 53.1076 117.74 53.2378C118.027 53.3647 118.261 53.5454 118.443 53.7798C118.629 54.0109 118.774 54.2909 118.878 54.6196C118.982 54.9484 119.034 55.3 119.034 55.6743C119.034 56.563 118.814 57.2498 118.375 57.7349C117.936 58.2199 117.408 58.4624 116.793 58.4624C116.181 58.4624 115.701 58.2069 115.353 57.6958V58.3452ZM115.343 55.7134C115.343 56.3351 115.427 56.7843 115.597 57.061C115.873 57.5135 116.248 57.7397 116.72 57.7397C117.104 57.7397 117.436 57.5737 117.716 57.2417C117.996 56.9064 118.136 56.4084 118.136 55.7476C118.136 55.0705 118.001 54.5708 117.73 54.2485C117.464 53.9263 117.14 53.7651 116.759 53.7651C116.375 53.7651 116.043 53.9328 115.763 54.2681C115.483 54.6001 115.343 55.0819 115.343 55.7134ZM123.492 57.7056C123.167 57.9823 122.853 58.1776 122.55 58.2915C122.25 58.4054 121.928 58.4624 121.583 58.4624C121.013 58.4624 120.576 58.3241 120.27 58.0474C119.964 57.7674 119.811 57.411 119.811 56.978C119.811 56.7241 119.868 56.493 119.981 56.2847C120.099 56.0731 120.25 55.9038 120.436 55.7769C120.624 55.6499 120.836 55.5539 121.07 55.4888C121.243 55.4432 121.503 55.3993 121.852 55.3569C122.561 55.2723 123.084 55.1714 123.419 55.0542C123.422 54.9338 123.424 54.8573 123.424 54.8247C123.424 54.4666 123.341 54.2144 123.175 54.0679C122.95 53.8693 122.617 53.77 122.174 53.77C121.76 53.77 121.454 53.8433 121.256 53.9897C121.061 54.133 120.916 54.3885 120.821 54.7563L119.962 54.6392C120.04 54.2713 120.169 53.9751 120.348 53.7505C120.527 53.5226 120.785 53.3485 121.124 53.228C121.463 53.1043 121.855 53.0425 122.301 53.0425C122.743 53.0425 123.103 53.0946 123.38 53.1987C123.657 53.3029 123.86 53.4347 123.99 53.5942C124.12 53.7505 124.212 53.9491 124.264 54.1899C124.293 54.3397 124.308 54.6099 124.308 55.0005V56.1724C124.308 56.9894 124.326 57.507 124.361 57.7251C124.4 57.9399 124.475 58.1466 124.586 58.3452H123.668C123.577 58.1629 123.518 57.9497 123.492 57.7056ZM123.419 55.7427C123.1 55.8729 122.621 55.9836 121.983 56.0747C121.622 56.1268 121.367 56.1854 121.217 56.2505C121.067 56.3156 120.951 56.4116 120.87 56.5386C120.789 56.6623 120.748 56.8006 120.748 56.9536C120.748 57.188 120.836 57.3833 121.012 57.5396C121.191 57.6958 121.451 57.7739 121.793 57.7739C122.132 57.7739 122.433 57.7007 122.696 57.5542C122.96 57.4045 123.154 57.201 123.277 56.9438C123.372 56.7453 123.419 56.4523 123.419 56.0649V55.7427ZM125.323 56.7974L126.192 56.6606C126.241 57.009 126.376 57.2759 126.598 57.4614C126.822 57.647 127.135 57.7397 127.535 57.7397C127.939 57.7397 128.238 57.6584 128.434 57.4956C128.629 57.3296 128.727 57.1359 128.727 56.9146C128.727 56.716 128.64 56.5597 128.468 56.4458C128.347 56.3677 128.048 56.2684 127.569 56.1479C126.925 55.9852 126.477 55.8452 126.227 55.728C125.979 55.6076 125.79 55.4432 125.66 55.2349C125.533 55.0233 125.47 54.7905 125.47 54.5366C125.47 54.3055 125.522 54.0923 125.626 53.897C125.733 53.6984 125.878 53.534 126.061 53.4038C126.197 53.3029 126.383 53.2183 126.617 53.1499C126.855 53.0783 127.109 53.0425 127.379 53.0425C127.786 53.0425 128.142 53.1011 128.448 53.2183C128.757 53.3354 128.985 53.495 129.132 53.6968C129.278 53.8953 129.379 54.1623 129.435 54.4976L128.575 54.6147C128.536 54.3478 128.422 54.1395 128.233 53.9897C128.048 53.84 127.784 53.7651 127.442 53.7651C127.039 53.7651 126.751 53.8319 126.578 53.9653C126.406 54.0988 126.319 54.255 126.319 54.4341C126.319 54.548 126.355 54.6506 126.427 54.7417C126.498 54.8361 126.611 54.9142 126.764 54.9761C126.852 55.0086 127.11 55.0835 127.54 55.2007C128.162 55.3667 128.595 55.5034 128.839 55.6108C129.086 55.715 129.28 55.868 129.42 56.0698C129.56 56.2716 129.63 56.5223 129.63 56.8218C129.63 57.1147 129.544 57.3914 129.371 57.6519C129.202 57.909 128.956 58.1092 128.634 58.2524C128.312 58.3924 127.947 58.4624 127.54 58.4624C126.866 58.4624 126.352 58.3224 125.997 58.0425C125.646 57.7625 125.421 57.3475 125.323 56.7974ZM134.225 56.6753L135.133 56.7876C134.99 57.3182 134.724 57.73 134.337 58.0229C133.95 58.3159 133.455 58.4624 132.853 58.4624C132.094 58.4624 131.492 58.2297 131.046 57.7642C130.603 57.2954 130.382 56.6395 130.382 55.7964C130.382 54.924 130.606 54.2469 131.056 53.7651C131.505 53.2834 132.088 53.0425 132.804 53.0425C133.497 53.0425 134.063 53.2785 134.503 53.7505C134.942 54.2225 135.162 54.8866 135.162 55.7427C135.162 55.7948 135.16 55.8729 135.157 55.9771H131.29C131.323 56.5467 131.484 56.9829 131.773 57.2856C132.063 57.5884 132.424 57.7397 132.857 57.7397C133.18 57.7397 133.455 57.6551 133.683 57.4858C133.91 57.3166 134.091 57.0464 134.225 56.6753ZM131.339 55.2544H134.234C134.195 54.8182 134.085 54.491 133.902 54.2729C133.622 53.9344 133.259 53.7651 132.813 53.7651C132.41 53.7651 132.07 53.9002 131.793 54.1704C131.52 54.4406 131.368 54.8019 131.339 55.2544Z" fill="#2A303D"/>
</svg>
