<svg width="170" height="140" viewBox="0 0 170 140" fill="none" xmlns="http://www.w3.org/2000/svg">
<rect x="0.5" y="0.5" width="169" height="139" rx="9.5" fill="white"/>
<rect x="0.5" y="0.5" width="169" height="139" rx="9.5" stroke="#B4BBCC" stroke-dasharray="4 4"/>
<path d="M104.723 45.9902C104.702 43.4328 103.671 40.9873 101.855 39.1862C100.039 37.3852 97.5853 36.3745 95.0278 36.3743C93.7838 36.3736 92.5515 36.6131 91.3983 37.0795C90.4356 35.1062 88.9378 33.4431 87.0757 32.2798C85.2136 31.1165 83.0622 30.4998 80.8666 30.5C78.2014 30.5005 75.616 31.4094 73.5368 33.0768C71.4576 34.7441 70.0088 37.0704 69.4293 39.6718C66.8736 39.8381 64.4769 40.9706 62.7257 42.8395C60.9745 44.7084 60 47.1736 60 49.7347C60 52.4095 61.0626 54.9747 62.9539 56.8661C64.8453 58.7574 67.4105 59.82 70.0853 59.82H102.177C104.073 59.82 105.892 59.0668 107.232 57.7261C108.573 56.3854 109.326 54.567 109.326 52.671C109.326 51.2222 108.886 49.8075 108.064 48.6145C107.242 47.4215 106.076 46.5063 104.723 45.9902Z" fill="#E1E4EB"/>
<mask id="path-3-inside-1_2731_13179" fill="white">
<path d="M97.4201 87.9543H73.1325C72.9955 87.9543 72.8926 87.9543 72.8149 87.9454C72.7553 87.9446 72.6979 87.9235 72.652 87.8854C72.6141 87.8396 72.5929 87.7821 72.5921 87.7226C72.5832 87.6486 72.5832 87.5427 72.5832 87.405L72.5698 46.5226C72.5635 46.1559 72.616 45.7905 72.7253 45.4403C72.8169 45.1497 72.9757 44.8847 73.1887 44.6667C73.406 44.4535 73.6706 44.2945 73.9608 44.2026C74.3106 44.0929 74.6758 44.0401 75.0424 44.0464H95.0135C95.2992 44.0438 95.584 44.0776 95.8611 44.1471C96.1024 44.2082 96.3322 44.3082 96.5414 44.4432C96.7359 44.5694 96.9053 44.7306 97.0411 44.9184C97.18 45.1131 97.2838 45.3305 97.3476 45.561C97.3703 45.6193 97.3879 45.6795 97.4001 45.7409C97.4127 45.8045 97.4216 45.8687 97.4268 45.9334C97.4327 45.9992 97.4349 46.0666 97.4364 46.1347C97.4379 46.2028 97.4364 46.2717 97.4364 46.3398L97.4179 87.9543"/>
</mask>
<path d="M97.4201 87.9543H73.1325C72.9955 87.9543 72.8926 87.9543 72.8149 87.9454C72.7553 87.9446 72.6979 87.9235 72.652 87.8854C72.6141 87.8396 72.5929 87.7821 72.5921 87.7226C72.5832 87.6486 72.5832 87.5427 72.5832 87.405L72.5698 46.5226C72.5635 46.1559 72.616 45.7905 72.7253 45.4403C72.8169 45.1497 72.9757 44.8847 73.1887 44.6667C73.406 44.4535 73.6706 44.2945 73.9608 44.2026C74.3106 44.0929 74.6758 44.0401 75.0424 44.0464H95.0135C95.2992 44.0438 95.584 44.0776 95.8611 44.1471C96.1024 44.2082 96.3322 44.3082 96.5414 44.4432C96.7359 44.5694 96.9053 44.7306 97.0411 44.9184C97.18 45.1131 97.2838 45.3305 97.3476 45.561C97.3703 45.6193 97.3879 45.6795 97.4001 45.7409C97.4127 45.8045 97.4216 45.8687 97.4268 45.9334C97.4327 45.9992 97.4349 46.0666 97.4364 46.1347C97.4379 46.2028 97.4364 46.2717 97.4364 46.3398L97.4179 87.9543" fill="#006AFF"/>
<path d="M72.8149 87.9454L72.9284 86.9519L72.8785 86.9462L72.8282 86.9455L72.8149 87.9454ZM72.652 87.8854L71.8816 88.523L71.9414 88.5953L72.0137 88.6552L72.652 87.8854ZM72.5921 87.7226L73.592 87.7083L73.5912 87.6557L73.5849 87.6034L72.5921 87.7226ZM72.5832 87.405H73.5832L73.5832 87.4047L72.5832 87.405ZM72.5698 46.5226L73.5698 46.5223L73.5698 46.5138L73.5697 46.5053L72.5698 46.5226ZM72.7253 45.4403L71.7716 45.1397L71.7707 45.1423L72.7253 45.4403ZM73.1887 44.6667L72.4883 43.953L72.4809 43.9603L72.4736 43.9677L73.1887 44.6667ZM73.9608 44.2026L73.6615 43.2484L73.659 43.2492L73.9608 44.2026ZM75.0424 44.0464L75.0252 45.0463L75.0338 45.0464H75.0424V44.0464ZM95.0135 44.0464V45.0464L95.0227 45.0464L95.0135 44.0464ZM95.8611 44.1471L96.1067 43.1777L96.1043 43.1771L95.8611 44.1471ZM96.5414 44.4432L97.086 43.6045L97.0835 43.6029L96.5414 44.4432ZM97.0411 44.9184L97.855 44.3374L97.8515 44.3325L97.0411 44.9184ZM97.3476 45.561L96.3838 45.8278L96.3975 45.877L96.416 45.9246L97.3476 45.561ZM97.4001 45.7409L98.381 45.5464L98.3809 45.5458L97.4001 45.7409ZM97.4268 45.9334L96.4299 46.0127L96.4308 46.0229L97.4268 45.9334ZM97.4364 46.3398L98.4364 46.3402V46.3398H97.4364ZM97.4201 87.9543V86.9543H73.1325V87.9543V88.9543H97.4201V87.9543ZM73.1325 87.9543V86.9543C73.0608 86.9543 73.0124 86.9542 72.9726 86.9534C72.9319 86.9525 72.9222 86.9512 72.9284 86.9519L72.8149 87.9454L72.7013 88.9389C72.8493 88.9559 73.0203 88.9543 73.1325 88.9543V87.9543ZM72.8149 87.9454L72.8282 86.9455C72.9971 86.9477 73.1602 87.0078 73.2903 87.1157L72.652 87.8854L72.0137 88.6552C72.2355 88.8391 72.5136 88.9415 72.8016 88.9453L72.8149 87.9454ZM72.652 87.8854L73.4225 87.2479C73.5298 87.3776 73.5896 87.54 73.592 87.7083L72.5921 87.7226L71.5922 87.7369C71.5963 88.0242 71.6984 88.3016 71.8816 88.523L72.652 87.8854ZM72.5921 87.7226L73.5849 87.6034C73.5864 87.6156 73.585 87.6094 73.5841 87.5667C73.5832 87.5264 73.5832 87.477 73.5832 87.405H72.5832H71.5832C71.5832 87.514 71.5814 87.6934 71.5992 87.8417L72.5921 87.7226ZM72.5832 87.405L73.5832 87.4047L73.5698 46.5223L72.5698 46.5226L71.5698 46.5229L71.5832 87.4053L72.5832 87.405ZM72.5698 46.5226L73.5697 46.5053C73.5652 46.2454 73.6024 45.9865 73.6799 45.7383L72.7253 45.4403L71.7707 45.1423C71.6296 45.5945 71.5618 46.0663 71.57 46.5399L72.5698 46.5226ZM72.7253 45.4403L73.679 45.741C73.7235 45.6 73.8005 45.4715 73.9038 45.3658L73.1887 44.6667L72.4736 43.9677C72.1509 44.2979 71.9104 44.6993 71.7716 45.1397L72.7253 45.4403ZM73.1887 44.6667L73.8891 45.3805C73.9942 45.2774 74.1222 45.2004 74.2627 45.156L73.9608 44.2026L73.659 43.2492C73.2189 43.3886 72.8178 43.6297 72.4883 43.953L73.1887 44.6667ZM73.9608 44.2026L74.2601 45.1567C74.5076 45.0791 74.7659 45.0418 75.0252 45.0463L75.0424 44.0464L75.0595 43.0465C74.5857 43.0384 74.1137 43.1066 73.6615 43.2484L73.9608 44.2026ZM75.0424 44.0464V45.0464H95.0135V44.0464V43.0464H75.0424V44.0464ZM95.0135 44.0464L95.0227 45.0464C95.2233 45.0445 95.4233 45.0683 95.6179 45.117L95.8611 44.1471L96.1043 43.1771C95.7447 43.0869 95.375 43.043 95.0042 43.0464L95.0135 44.0464ZM95.8611 44.1471L95.6155 45.1164C95.7517 45.1509 95.8813 45.2074 95.9994 45.2835L96.5414 44.4432L97.0835 43.6029C96.7831 43.4091 96.4532 43.2655 96.1067 43.1777L95.8611 44.1471ZM96.5414 44.4432L95.9968 45.2819C96.0878 45.341 96.1671 45.4164 96.2307 45.5044L97.0411 44.9184L97.8515 44.3325C97.6434 44.0447 97.3839 43.7979 97.086 43.6045L96.5414 44.4432ZM97.0411 44.9184L96.2272 45.4995C96.2982 45.5989 96.3512 45.7101 96.3838 45.8278L97.3476 45.561L98.3113 45.2942C98.2163 44.951 98.0619 44.6272 97.855 44.3374L97.0411 44.9184ZM97.3476 45.561L96.416 45.9246C96.4175 45.9283 96.4186 45.9321 96.4194 45.936L97.4001 45.7409L98.3809 45.5458C98.3573 45.4269 98.3232 45.3103 98.2791 45.1974L97.3476 45.561ZM97.4001 45.7409L96.4192 45.9354C96.4243 45.9609 96.4279 45.9867 96.4299 46.0127L97.4268 45.9334L98.4236 45.854C98.4154 45.7507 98.4012 45.648 98.381 45.5464L97.4001 45.7409ZM97.4268 45.9334L96.4308 46.0229C96.4335 46.0534 96.4353 46.0928 96.4366 46.1564L97.4364 46.1347L98.4362 46.113C98.4346 46.0404 98.4319 45.9451 98.4228 45.8438L97.4268 45.9334ZM97.4364 46.1347L96.4366 46.1564C96.4379 46.2119 96.4364 46.241 96.4364 46.3398H97.4364H98.4364C98.4364 46.3024 98.4379 46.1938 98.4362 46.113L97.4364 46.1347ZM97.4364 46.3398L96.4364 46.3393L96.4179 87.9538L97.4179 87.9543L98.4179 87.9547L98.4364 46.3402L97.4364 46.3398Z" fill="#ABC2F1" mask="url(#path-3-inside-1_2731_13179)"/>
<path d="M75.5566 50.2109H94.5077V52.8759H75.5566V50.2109Z" fill="white"/>
<path d="M75.5625 71.6675H94.5046V74.3325H75.5625V71.6675Z" fill="white"/>
<path d="M75.5654 77.231H94.5046V79.8959H75.5654V77.231Z" fill="white"/>
<path d="M39.1 99.49C39.0667 99.5467 39.0317 99.5883 38.995 99.615C38.9583 99.6417 38.9117 99.655 38.855 99.655C38.795 99.655 38.7267 99.6283 38.65 99.575C38.5733 99.5183 38.4767 99.4567 38.36 99.39C38.2467 99.32 38.11 99.2583 37.95 99.205C37.79 99.1483 37.5983 99.12 37.375 99.12C37.165 99.12 36.98 99.1483 36.82 99.205C36.6633 99.2583 36.5317 99.3333 36.425 99.43C36.3183 99.5233 36.2367 99.635 36.18 99.765C36.1267 99.8917 36.1 100.03 36.1 100.18C36.1 100.373 36.1483 100.533 36.245 100.66C36.345 100.787 36.475 100.895 36.635 100.985C36.795 101.075 36.9767 101.153 37.18 101.22C37.3833 101.287 37.5917 101.357 37.805 101.43C38.0183 101.5 38.2267 101.582 38.43 101.675C38.6333 101.768 38.815 101.887 38.975 102.03C39.135 102.17 39.2633 102.343 39.36 102.55C39.46 102.753 39.51 103.003 39.51 103.3C39.51 103.617 39.455 103.913 39.345 104.19C39.2383 104.467 39.0817 104.708 38.875 104.915C38.6683 105.122 38.4133 105.285 38.11 105.405C37.81 105.522 37.4683 105.58 37.085 105.58C36.855 105.58 36.6317 105.557 36.415 105.51C36.1983 105.467 35.9933 105.405 35.8 105.325C35.6067 105.242 35.425 105.143 35.255 105.03C35.0883 104.913 34.9383 104.783 34.805 104.64L35.11 104.13C35.14 104.09 35.175 104.057 35.215 104.03C35.2583 104.003 35.3067 103.99 35.36 103.99C35.43 103.99 35.51 104.027 35.6 104.1C35.6933 104.173 35.8067 104.255 35.94 104.345C36.0767 104.432 36.2383 104.512 36.425 104.585C36.615 104.658 36.845 104.695 37.115 104.695C37.335 104.695 37.5317 104.667 37.705 104.61C37.8783 104.55 38.0233 104.467 38.14 104.36C38.26 104.25 38.3517 104.118 38.415 103.965C38.4783 103.812 38.51 103.642 38.51 103.455C38.51 103.245 38.4617 103.073 38.365 102.94C38.2683 102.807 38.14 102.695 37.98 102.605C37.82 102.515 37.6383 102.438 37.435 102.375C37.2317 102.312 37.0233 102.247 36.81 102.18C36.5967 102.11 36.3883 102.03 36.185 101.94C35.9817 101.85 35.8 101.733 35.64 101.59C35.48 101.443 35.3517 101.262 35.255 101.045C35.1583 100.825 35.11 100.555 35.11 100.235C35.11 99.9783 35.16 99.73 35.26 99.49C35.36 99.25 35.505 99.0383 35.695 98.855C35.8883 98.6683 36.125 98.52 36.405 98.41C36.685 98.2967 37.005 98.24 37.365 98.24C37.7683 98.24 38.1383 98.305 38.475 98.435C38.815 98.5617 39.11 98.745 39.36 98.985L39.1 99.49ZM44.7518 100.42V105.5H44.1668C44.0335 105.5 43.9468 105.435 43.9068 105.305L43.8368 104.795C43.7268 104.912 43.6118 105.018 43.4918 105.115C43.3718 105.212 43.2435 105.295 43.1068 105.365C42.9701 105.432 42.8251 105.483 42.6718 105.52C42.5185 105.56 42.3535 105.58 42.1768 105.58C41.8968 105.58 41.6501 105.533 41.4368 105.44C41.2268 105.347 41.0501 105.217 40.9068 105.05C40.7635 104.88 40.6551 104.677 40.5818 104.44C40.5085 104.203 40.4718 103.942 40.4718 103.655V100.42H41.4518V103.655C41.4518 104.018 41.5351 104.302 41.7018 104.505C41.8685 104.705 42.1235 104.805 42.4668 104.805C42.7168 104.805 42.9501 104.747 43.1668 104.63C43.3835 104.51 43.5868 104.347 43.7768 104.14V100.42H44.7518ZM46.1127 105.5V100.42H46.6977C46.8344 100.42 46.9194 100.485 46.9527 100.615L47.0227 101.1C47.2094 100.877 47.4161 100.695 47.6427 100.555C47.8727 100.412 48.1411 100.34 48.4477 100.34C48.7844 100.34 49.0577 100.433 49.2677 100.62C49.4777 100.803 49.6311 101.053 49.7277 101.37C49.8011 101.19 49.8961 101.035 50.0127 100.905C50.1294 100.775 50.2594 100.668 50.4027 100.585C50.5461 100.502 50.6977 100.44 50.8577 100.4C51.0211 100.36 51.1861 100.34 51.3527 100.34C51.6227 100.34 51.8627 100.383 52.0727 100.47C52.2861 100.553 52.4661 100.677 52.6127 100.84C52.7594 101.003 52.8711 101.205 52.9477 101.445C53.0244 101.685 53.0627 101.958 53.0627 102.265V105.5H52.0827V102.265C52.0827 101.885 51.9994 101.598 51.8327 101.405C51.6694 101.212 51.4294 101.115 51.1127 101.115C50.9727 101.115 50.8394 101.14 50.7127 101.19C50.5861 101.237 50.4744 101.308 50.3777 101.405C50.2844 101.502 50.2094 101.622 50.1527 101.765C50.0994 101.908 50.0727 102.075 50.0727 102.265V105.5H49.0927V102.265C49.0927 101.872 49.0144 101.582 48.8577 101.395C48.7011 101.208 48.4711 101.115 48.1677 101.115C47.9577 101.115 47.7627 101.17 47.5827 101.28C47.4027 101.39 47.2377 101.54 47.0877 101.73V105.5H46.1127ZM54.3745 105.5V100.42H54.9595C55.0961 100.42 55.1811 100.485 55.2145 100.615L55.2845 101.1C55.4711 100.877 55.6778 100.695 55.9045 100.555C56.1345 100.412 56.4028 100.34 56.7095 100.34C57.0461 100.34 57.3195 100.433 57.5295 100.62C57.7395 100.803 57.8928 101.053 57.9895 101.37C58.0628 101.19 58.1578 101.035 58.2745 100.905C58.3911 100.775 58.5211 100.668 58.6645 100.585C58.8078 100.502 58.9595 100.44 59.1195 100.4C59.2828 100.36 59.4478 100.34 59.6145 100.34C59.8845 100.34 60.1245 100.383 60.3345 100.47C60.5478 100.553 60.7278 100.677 60.8745 100.84C61.0211 101.003 61.1328 101.205 61.2095 101.445C61.2861 101.685 61.3245 101.958 61.3245 102.265V105.5H60.3445V102.265C60.3445 101.885 60.2611 101.598 60.0945 101.405C59.9311 101.212 59.6911 101.115 59.3745 101.115C59.2345 101.115 59.1011 101.14 58.9745 101.19C58.8478 101.237 58.7361 101.308 58.6395 101.405C58.5461 101.502 58.4711 101.622 58.4145 101.765C58.3611 101.908 58.3345 102.075 58.3345 102.265V105.5H57.3545V102.265C57.3545 101.872 57.2761 101.582 57.1195 101.395C56.9628 101.208 56.7328 101.115 56.4295 101.115C56.2195 101.115 56.0245 101.17 55.8445 101.28C55.6645 101.39 55.4995 101.54 55.3495 101.73V105.5H54.3745ZM65.3662 103.245C64.9695 103.258 64.6328 103.29 64.3562 103.34C64.0795 103.387 63.8545 103.45 63.6812 103.53C63.5078 103.61 63.3828 103.705 63.3062 103.815C63.2295 103.922 63.1912 104.042 63.1912 104.175C63.1912 104.302 63.2112 104.412 63.2512 104.505C63.2945 104.595 63.3512 104.67 63.4212 104.73C63.4945 104.787 63.5795 104.828 63.6762 104.855C63.7728 104.882 63.8778 104.895 63.9912 104.895C64.1412 104.895 64.2778 104.88 64.4012 104.85C64.5278 104.82 64.6462 104.778 64.7562 104.725C64.8662 104.668 64.9712 104.6 65.0712 104.52C65.1712 104.44 65.2695 104.348 65.3662 104.245V103.245ZM62.5062 101.13C62.7895 100.86 63.0962 100.658 63.4262 100.525C63.7595 100.392 64.1245 100.325 64.5212 100.325C64.8112 100.325 65.0678 100.373 65.2912 100.47C65.5145 100.563 65.7028 100.695 65.8562 100.865C66.0095 101.035 66.1245 101.238 66.2012 101.475C66.2812 101.712 66.3212 101.973 66.3212 102.26V105.5H65.8862C65.7895 105.5 65.7162 105.485 65.6662 105.455C65.6162 105.422 65.5762 105.362 65.5462 105.275L65.4412 104.83C65.3112 104.95 65.1828 105.057 65.0562 105.15C64.9295 105.24 64.7962 105.318 64.6562 105.385C64.5195 105.448 64.3728 105.497 64.2162 105.53C64.0595 105.563 63.8862 105.58 63.6962 105.58C63.4962 105.58 63.3078 105.553 63.1312 105.5C62.9578 105.443 62.8062 105.358 62.6762 105.245C62.5462 105.132 62.4428 104.99 62.3662 104.82C62.2928 104.65 62.2562 104.452 62.2562 104.225C62.2562 104.025 62.3095 103.833 62.4162 103.65C62.5262 103.463 62.7028 103.297 62.9462 103.15C63.1928 103.003 63.5128 102.883 63.9062 102.79C64.3028 102.697 64.7895 102.643 65.3662 102.63V102.26C65.3662 101.877 65.2845 101.59 65.1212 101.4C64.9578 101.21 64.7178 101.115 64.4012 101.115C64.1878 101.115 64.0078 101.142 63.8612 101.195C63.7178 101.248 63.5928 101.308 63.4862 101.375C63.3828 101.438 63.2912 101.497 63.2112 101.55C63.1345 101.603 63.0545 101.63 62.9712 101.63C62.9045 101.63 62.8462 101.612 62.7962 101.575C62.7495 101.538 62.7112 101.495 62.6812 101.445L62.5062 101.13ZM68.5464 101.395C68.7097 101.062 68.9064 100.8 69.1364 100.61C69.3664 100.42 69.6431 100.325 69.9664 100.325C70.0764 100.325 70.1797 100.338 70.2764 100.365C70.3764 100.388 70.4631 100.425 70.5364 100.475L70.4714 101.21C70.4481 101.3 70.3931 101.345 70.3064 101.345C70.2597 101.345 70.1897 101.337 70.0964 101.32C70.0031 101.3 69.9031 101.29 69.7964 101.29C69.6397 101.29 69.5014 101.313 69.3814 101.36C69.2614 101.403 69.1531 101.47 69.0564 101.56C68.9631 101.647 68.8797 101.755 68.8064 101.885C68.7331 102.012 68.6647 102.157 68.6014 102.32V105.5H67.6264V100.42H68.1864C68.2931 100.42 68.3647 100.44 68.4014 100.48C68.4414 100.517 68.4697 100.583 68.4864 100.68L68.5464 101.395ZM75.7285 100.42L72.9085 106.975C72.8785 107.048 72.8385 107.105 72.7885 107.145C72.7385 107.185 72.6652 107.205 72.5685 107.205H71.8435L72.7735 105.18L70.6885 100.42H71.5385C71.6218 100.42 71.6868 100.44 71.7335 100.48C71.7802 100.52 71.8135 100.565 71.8335 100.615L73.1235 103.665C73.1502 103.742 73.1752 103.82 73.1985 103.9C73.2252 103.977 73.2468 104.053 73.2635 104.13C73.2868 104.05 73.3118 103.972 73.3385 103.895C73.3652 103.815 73.3935 103.737 73.4235 103.66L74.6685 100.615C74.6918 100.558 74.7285 100.512 74.7785 100.475C74.8285 100.438 74.8852 100.42 74.9485 100.42H75.7285ZM83.9742 103.96C84.0342 103.96 84.0859 103.983 84.1292 104.03L84.5492 104.49C84.2559 104.837 83.8976 105.105 83.4742 105.295C83.0542 105.485 82.5476 105.58 81.9542 105.58C81.4342 105.58 80.9626 105.49 80.5392 105.31C80.1192 105.13 79.7592 104.878 79.4592 104.555C79.1626 104.232 78.9326 103.845 78.7692 103.395C78.6059 102.945 78.5242 102.45 78.5242 101.91C78.5242 101.37 78.6092 100.875 78.7792 100.425C78.9526 99.975 79.1942 99.5883 79.5042 99.265C79.8142 98.9417 80.1842 98.69 80.6142 98.51C81.0476 98.33 81.5259 98.24 82.0492 98.24C82.5592 98.24 83.0126 98.3233 83.4092 98.49C83.8059 98.6567 84.1509 98.8783 84.4442 99.155L84.0942 99.65C84.0709 99.6867 84.0409 99.7167 84.0042 99.74C83.9709 99.7633 83.9259 99.775 83.8692 99.775C83.8059 99.775 83.7309 99.7433 83.6442 99.68C83.5609 99.6167 83.4492 99.5467 83.3092 99.47C83.1726 99.39 83.0026 99.3183 82.7992 99.255C82.5959 99.1917 82.3426 99.16 82.0392 99.16C81.6826 99.16 81.3559 99.2233 81.0592 99.35C80.7626 99.4733 80.5059 99.6533 80.2892 99.89C80.0759 100.123 79.9092 100.412 79.7892 100.755C79.6726 101.095 79.6142 101.48 79.6142 101.91C79.6142 102.347 79.6759 102.735 79.7992 103.075C79.9226 103.415 80.0926 103.703 80.3092 103.94C80.5259 104.177 80.7809 104.357 81.0742 104.48C81.3676 104.603 81.6842 104.665 82.0242 104.665C82.2309 104.665 82.4159 104.653 82.5792 104.63C82.7459 104.603 82.8976 104.565 83.0342 104.515C83.1742 104.465 83.3059 104.402 83.4292 104.325C83.5526 104.245 83.6742 104.15 83.7942 104.04C83.8209 104.017 83.8492 103.998 83.8792 103.985C83.9092 103.968 83.9409 103.96 83.9742 103.96ZM86.4194 98.12V105.5H85.4394V98.12H86.4194ZM89.977 100.34C90.3503 100.34 90.687 100.402 90.987 100.525C91.2903 100.645 91.547 100.82 91.757 101.05C91.9703 101.277 92.1336 101.552 92.247 101.875C92.3603 102.195 92.417 102.555 92.417 102.955C92.417 103.355 92.3603 103.717 92.247 104.04C92.1336 104.363 91.9703 104.638 91.757 104.865C91.547 105.092 91.2903 105.267 90.987 105.39C90.687 105.51 90.3503 105.57 89.977 105.57C89.6003 105.57 89.2603 105.51 88.957 105.39C88.657 105.267 88.4003 105.092 88.187 104.865C87.9736 104.638 87.8086 104.363 87.692 104.04C87.5786 103.717 87.522 103.355 87.522 102.955C87.522 102.555 87.5786 102.195 87.692 101.875C87.8086 101.552 87.9736 101.277 88.187 101.05C88.4003 100.82 88.657 100.645 88.957 100.525C89.2603 100.402 89.6003 100.34 89.977 100.34ZM89.977 104.81C90.457 104.81 90.8153 104.648 91.052 104.325C91.2886 104.002 91.407 103.547 91.407 102.96C91.407 102.373 91.2886 101.918 91.052 101.595C90.8153 101.268 90.457 101.105 89.977 101.105C89.4903 101.105 89.127 101.268 88.887 101.595C88.6503 101.918 88.532 102.373 88.532 102.96C88.532 103.547 88.6503 104.002 88.887 104.325C89.127 104.648 89.4903 104.81 89.977 104.81ZM97.7303 100.42V105.5H97.1453C97.012 105.5 96.9253 105.435 96.8853 105.305L96.8153 104.795C96.7053 104.912 96.5903 105.018 96.4703 105.115C96.3503 105.212 96.222 105.295 96.0853 105.365C95.9486 105.432 95.8036 105.483 95.6503 105.52C95.497 105.56 95.332 105.58 95.1553 105.58C94.8753 105.58 94.6286 105.533 94.4153 105.44C94.2053 105.347 94.0286 105.217 93.8853 105.05C93.742 104.88 93.6336 104.677 93.5603 104.44C93.487 104.203 93.4503 103.942 93.4503 103.655V100.42H94.4303V103.655C94.4303 104.018 94.5136 104.302 94.6803 104.505C94.847 104.705 95.102 104.805 95.4453 104.805C95.6953 104.805 95.9286 104.747 96.1453 104.63C96.362 104.51 96.5653 104.347 96.7553 104.14V100.42H97.7303ZM102.366 101.65C102.206 101.44 102.033 101.293 101.846 101.21C101.663 101.127 101.456 101.085 101.226 101.085C100.78 101.085 100.433 101.247 100.186 101.57C99.9429 101.89 99.8213 102.358 99.8213 102.975C99.8213 103.298 99.8479 103.575 99.9013 103.805C99.9579 104.032 100.038 104.218 100.141 104.365C100.248 104.508 100.378 104.615 100.531 104.685C100.685 104.752 100.858 104.785 101.051 104.785C101.335 104.785 101.58 104.722 101.786 104.595C101.993 104.468 102.186 104.29 102.366 104.06V101.65ZM103.346 98.12V105.5H102.756C102.62 105.5 102.535 105.435 102.501 105.305L102.416 104.72C102.2 104.977 101.953 105.183 101.676 105.34C101.403 105.493 101.086 105.57 100.726 105.57C100.436 105.57 100.173 105.513 99.9363 105.4C99.7029 105.287 99.5029 105.122 99.3363 104.905C99.1696 104.685 99.0413 104.413 98.9513 104.09C98.8613 103.767 98.8163 103.395 98.8163 102.975C98.8163 102.598 98.8663 102.248 98.9663 101.925C99.0663 101.602 99.2113 101.322 99.4013 101.085C99.5913 100.848 99.8213 100.663 100.091 100.53C100.361 100.393 100.666 100.325 101.006 100.325C101.313 100.325 101.573 100.375 101.786 100.475C102.003 100.575 102.196 100.717 102.366 100.9V98.12H103.346ZM111.151 99.49C111.117 99.5467 111.082 99.5883 111.046 99.615C111.009 99.6417 110.962 99.655 110.906 99.655C110.846 99.655 110.777 99.6283 110.701 99.575C110.624 99.5183 110.527 99.4567 110.411 99.39C110.297 99.32 110.161 99.2583 110.001 99.205C109.841 99.1483 109.649 99.12 109.426 99.12C109.216 99.12 109.031 99.1483 108.871 99.205C108.714 99.2583 108.582 99.3333 108.476 99.43C108.369 99.5233 108.287 99.635 108.231 99.765C108.177 99.8917 108.151 100.03 108.151 100.18C108.151 100.373 108.199 100.533 108.296 100.66C108.396 100.787 108.526 100.895 108.686 100.985C108.846 101.075 109.027 101.153 109.231 101.22C109.434 101.287 109.642 101.357 109.856 101.43C110.069 101.5 110.277 101.582 110.481 101.675C110.684 101.768 110.866 101.887 111.026 102.03C111.186 102.17 111.314 102.343 111.411 102.55C111.511 102.753 111.561 103.003 111.561 103.3C111.561 103.617 111.506 103.913 111.396 104.19C111.289 104.467 111.132 104.708 110.926 104.915C110.719 105.122 110.464 105.285 110.161 105.405C109.861 105.522 109.519 105.58 109.136 105.58C108.906 105.58 108.682 105.557 108.466 105.51C108.249 105.467 108.044 105.405 107.851 105.325C107.657 105.242 107.476 105.143 107.306 105.03C107.139 104.913 106.989 104.783 106.856 104.64L107.161 104.13C107.191 104.09 107.226 104.057 107.266 104.03C107.309 104.003 107.357 103.99 107.411 103.99C107.481 103.99 107.561 104.027 107.651 104.1C107.744 104.173 107.857 104.255 107.991 104.345C108.127 104.432 108.289 104.512 108.476 104.585C108.666 104.658 108.896 104.695 109.166 104.695C109.386 104.695 109.582 104.667 109.756 104.61C109.929 104.55 110.074 104.467 110.191 104.36C110.311 104.25 110.402 104.118 110.466 103.965C110.529 103.812 110.561 103.642 110.561 103.455C110.561 103.245 110.512 103.073 110.416 102.94C110.319 102.807 110.191 102.695 110.031 102.605C109.871 102.515 109.689 102.438 109.486 102.375C109.282 102.312 109.074 102.247 108.861 102.18C108.647 102.11 108.439 102.03 108.236 101.94C108.032 101.85 107.851 101.733 107.691 101.59C107.531 101.443 107.402 101.262 107.306 101.045C107.209 100.825 107.161 100.555 107.161 100.235C107.161 99.9783 107.211 99.73 107.311 99.49C107.411 99.25 107.556 99.0383 107.746 98.855C107.939 98.6683 108.176 98.52 108.456 98.41C108.736 98.2967 109.056 98.24 109.416 98.24C109.819 98.24 110.189 98.305 110.526 98.435C110.866 98.5617 111.161 98.745 111.411 98.985L111.151 99.49ZM116.011 102.395C116.011 102.202 115.983 102.023 115.926 101.86C115.873 101.697 115.793 101.555 115.686 101.435C115.579 101.315 115.449 101.222 115.296 101.155C115.143 101.088 114.966 101.055 114.766 101.055C114.356 101.055 114.033 101.173 113.796 101.41C113.563 101.647 113.414 101.975 113.351 102.395H116.011ZM116.816 104.775C116.696 104.915 116.558 105.037 116.401 105.14C116.244 105.24 116.078 105.322 115.901 105.385C115.724 105.448 115.541 105.495 115.351 105.525C115.164 105.555 114.979 105.57 114.796 105.57C114.446 105.57 114.121 105.512 113.821 105.395C113.524 105.275 113.266 105.102 113.046 104.875C112.829 104.645 112.659 104.362 112.536 104.025C112.416 103.685 112.356 103.295 112.356 102.855C112.356 102.502 112.411 102.173 112.521 101.87C112.631 101.563 112.788 101.297 112.991 101.07C113.198 100.843 113.449 100.665 113.746 100.535C114.043 100.405 114.376 100.34 114.746 100.34C115.056 100.34 115.341 100.392 115.601 100.495C115.864 100.595 116.091 100.742 116.281 100.935C116.471 101.128 116.619 101.367 116.726 101.65C116.836 101.933 116.891 102.257 116.891 102.62C116.891 102.77 116.874 102.872 116.841 102.925C116.808 102.975 116.746 103 116.656 103H113.326C113.336 103.303 113.379 103.568 113.456 103.795C113.533 104.018 113.638 104.205 113.771 104.355C113.908 104.505 114.069 104.617 114.256 104.69C114.443 104.763 114.651 104.8 114.881 104.8C115.098 104.8 115.284 104.775 115.441 104.725C115.601 104.675 115.738 104.622 115.851 104.565C115.968 104.505 116.064 104.45 116.141 104.4C116.221 104.35 116.291 104.325 116.351 104.325C116.431 104.325 116.493 104.355 116.536 104.415L116.816 104.775ZM118.859 101.395C119.022 101.062 119.219 100.8 119.449 100.61C119.679 100.42 119.956 100.325 120.279 100.325C120.389 100.325 120.492 100.338 120.589 100.365C120.689 100.388 120.776 100.425 120.849 100.475L120.784 101.21C120.761 101.3 120.706 101.345 120.619 101.345C120.572 101.345 120.502 101.337 120.409 101.32C120.316 101.3 120.216 101.29 120.109 101.29C119.952 101.29 119.814 101.313 119.694 101.36C119.574 101.403 119.466 101.47 119.369 101.56C119.276 101.647 119.192 101.755 119.119 101.885C119.046 102.012 118.977 102.157 118.914 102.32V105.5H117.939V100.42H118.499C118.606 100.42 118.677 100.44 118.714 100.48C118.754 100.517 118.782 100.583 118.799 100.68L118.859 101.395ZM126.011 100.42L123.951 105.5H123.071L121.011 100.42H121.816C121.893 100.42 121.956 100.438 122.006 100.475C122.056 100.512 122.089 100.558 122.106 100.615L123.321 103.735C123.364 103.865 123.401 103.995 123.431 104.125C123.464 104.252 123.494 104.378 123.521 104.505C123.548 104.378 123.578 104.252 123.611 104.125C123.644 103.998 123.684 103.868 123.731 103.735L124.961 100.615C124.981 100.558 125.016 100.512 125.066 100.475C125.116 100.438 125.176 100.42 125.246 100.42H126.011ZM130.005 102.395C130.005 102.202 129.977 102.023 129.92 101.86C129.867 101.697 129.787 101.555 129.68 101.435C129.573 101.315 129.443 101.222 129.29 101.155C129.137 101.088 128.96 101.055 128.76 101.055C128.35 101.055 128.027 101.173 127.79 101.41C127.557 101.647 127.408 101.975 127.345 102.395H130.005ZM130.81 104.775C130.69 104.915 130.552 105.037 130.395 105.14C130.238 105.24 130.072 105.322 129.895 105.385C129.718 105.448 129.535 105.495 129.345 105.525C129.158 105.555 128.973 105.57 128.79 105.57C128.44 105.57 128.115 105.512 127.815 105.395C127.518 105.275 127.26 105.102 127.04 104.875C126.823 104.645 126.653 104.362 126.53 104.025C126.41 103.685 126.35 103.295 126.35 102.855C126.35 102.502 126.405 102.173 126.515 101.87C126.625 101.563 126.782 101.297 126.985 101.07C127.192 100.843 127.443 100.665 127.74 100.535C128.037 100.405 128.37 100.34 128.74 100.34C129.05 100.34 129.335 100.392 129.595 100.495C129.858 100.595 130.085 100.742 130.275 100.935C130.465 101.128 130.613 101.367 130.72 101.65C130.83 101.933 130.885 102.257 130.885 102.62C130.885 102.77 130.868 102.872 130.835 102.925C130.802 102.975 130.74 103 130.65 103H127.32C127.33 103.303 127.373 103.568 127.45 103.795C127.527 104.018 127.632 104.205 127.765 104.355C127.902 104.505 128.063 104.617 128.25 104.69C128.437 104.763 128.645 104.8 128.875 104.8C129.092 104.8 129.278 104.775 129.435 104.725C129.595 104.675 129.732 104.622 129.845 104.565C129.962 104.505 130.058 104.45 130.135 104.4C130.215 104.35 130.285 104.325 130.345 104.325C130.425 104.325 130.487 104.355 130.53 104.415L130.81 104.775ZM132.853 101.395C133.016 101.062 133.213 100.8 133.443 100.61C133.673 100.42 133.95 100.325 134.273 100.325C134.383 100.325 134.486 100.338 134.583 100.365C134.683 100.388 134.77 100.425 134.843 100.475L134.778 101.21C134.755 101.3 134.7 101.345 134.613 101.345C134.566 101.345 134.496 101.337 134.403 101.32C134.31 101.3 134.21 101.29 134.103 101.29C133.946 101.29 133.808 101.313 133.688 101.36C133.568 101.403 133.46 101.47 133.363 101.56C133.27 101.647 133.186 101.755 133.113 101.885C133.04 102.012 132.971 102.157 132.908 102.32V105.5H131.933V100.42H132.493C132.6 100.42 132.671 100.44 132.708 100.48C132.748 100.517 132.776 100.583 132.793 100.68L132.853 101.395Z" fill="#2A303D"/>
</svg>
