<svg width="72" height="67" viewBox="0 0 72 67" fill="none" xmlns="http://www.w3.org/2000/svg">
<path d="M51.1361 8.98186C49.7965 7.67798 48.0697 6.84432 46.2155 6.60631C45.8671 6.57102 45.5348 6.44131 45.2546 6.23116C44.9744 6.02101 44.7569 5.73839 44.6254 5.41373C44.0696 4.17631 43.2476 3.07677 42.218 2.19354C40.4009 0.674892 38.0787 -0.104192 35.7132 0.011208C35.7086 0.0104734 35.7038 0.0104734 35.6992 0.011208C35.6067 0.00750665 35.5134 0.00528908 35.4201 0.00528908C33.9018 0.0404409 32.4195 0.474468 31.1221 1.26376C29.4603 2.2475 28.1511 3.73027 27.3807 5.50109C27.2539 5.81018 27.0446 6.07845 26.7757 6.27663C26.5068 6.47482 26.1885 6.59526 25.8558 6.62481C24.7012 6.75689 23.5846 7.11779 22.5712 7.68638C20.8151 8.72394 19.4531 10.3151 18.6988 12.2102C18.1349 13.4562 17.9714 14.8464 18.2309 16.1892C18.4772 17.2809 18.8905 18.3281 19.4561 19.2939C20.0584 20.4492 20.9198 21.4496 21.9728 22.2169C23.0258 22.9842 24.242 23.4976 25.5263 23.717C25.794 23.7764 26.0736 23.7468 26.3229 23.6326C26.4733 23.5722 26.6006 23.4656 26.6866 23.3282C26.7725 23.1908 26.8126 23.0296 26.8011 22.8679C26.812 22.7227 26.7719 22.5781 26.6877 22.4592C26.6035 22.3403 26.4805 22.2545 26.3399 22.2165C26.1553 22.1371 25.9631 22.0768 25.7662 22.0366C24.2483 21.807 22.8557 21.0618 21.8227 19.9261C21.1592 19.228 20.6481 18.3995 20.3218 17.4934C19.9955 16.5872 19.8612 15.6231 19.9274 14.6622C19.9936 13.7014 20.2589 12.7648 20.7064 11.9119C21.1538 11.0591 21.7738 10.3086 22.5267 9.70806C23.9132 8.66797 25.6147 8.1354 27.3467 8.19939C28.161 8.1868 28.161 8.1868 28.4304 7.4517L28.4586 7.37767C28.8904 6.1826 29.5255 5.07114 30.3359 4.09234C30.962 3.34665 31.7345 2.73745 32.6056 2.30247C33.4767 1.86749 34.4279 1.616 35.4001 1.56357C36.5434 1.42177 37.7039 1.57278 38.7728 2.00241C39.8418 2.43205 40.784 3.12622 41.5111 4.0198C42.4875 5.24042 43.267 6.60618 43.8215 8.06761C43.8955 8.25194 43.9444 8.28155 44.1405 8.26897C44.5723 8.24281 45.0052 8.24405 45.4368 8.27267C46.8505 8.31334 48.2186 8.78212 49.3602 9.61702C50.2437 10.2739 50.9537 11.1364 51.4285 12.1297C51.9033 13.1229 52.1287 14.217 52.0852 15.3171C52.0596 16.9248 51.4748 18.4734 50.4313 19.6967C49.3879 20.92 47.9508 21.7416 46.3673 22.0203C46.0898 22.0556 45.8189 22.1304 45.5626 22.2424C45.4681 22.2809 45.3876 22.3473 45.3317 22.4327C45.2759 22.5182 45.2475 22.6186 45.2502 22.7206C45.2405 22.8609 45.2621 23.0015 45.3133 23.1325C45.3645 23.2634 45.4441 23.3814 45.5463 23.4779C45.664 23.5805 45.8031 23.6557 45.9533 23.698C46.1036 23.7404 46.2614 23.7489 46.4154 23.7229C47.1025 23.6054 47.7718 23.4012 48.4075 23.1152L48.7036 22.9975C50.2913 22.2706 51.6297 21.092 52.5513 19.6088C53.4729 18.1256 53.937 16.4037 53.8855 14.6583C53.7037 12.4909 52.7239 10.4682 51.1361 8.98186Z" fill="#5F6C89"/>
<path d="M36.0081 29.6909C35.3746 29.6909 34.7406 29.6841 34.107 29.6933C33.8622 29.6969 33.7554 29.6081 33.7658 29.3569C33.7782 29.0517 33.7738 28.7458 33.7658 28.4402C33.7618 28.2374 33.8534 28.1538 34.0526 28.1582C34.3014 28.1638 34.5506 28.153 34.7994 28.1582C34.9878 28.1622 35.0642 28.0782 35.0618 27.8926C35.0566 27.5326 35.0698 27.1682 35.0594 26.8062C35.0526 26.5735 35.149 26.4763 35.3794 26.4791C35.8093 26.4847 36.2393 26.4831 36.6693 26.4791C36.8797 26.4791 36.9821 26.5743 36.9809 26.787C36.9785 27.1378 36.9889 27.489 36.9789 27.8394C36.9733 28.0394 37.0413 28.1258 37.2513 28.1194C37.4881 28.1142 37.7253 28.1498 37.9624 28.1478C38.1908 28.1454 38.296 28.2374 38.2904 28.4678C38.2832 28.7618 38.2808 29.0566 38.2904 29.3505C38.298 29.5989 38.188 29.6921 37.9436 29.6889C37.2985 29.6857 36.6533 29.6913 36.0081 29.6909Z" fill="#1E52BB"/>
<path d="M32.3695 29.6592C31.2295 29.6592 30.0896 29.6572 28.9496 29.6592C28.7446 29.6807 28.5395 29.6202 28.379 29.4909C28.2185 29.3616 28.1156 29.1741 28.0928 28.9693C28.0914 28.8666 28.1117 28.7647 28.1525 28.6704C28.1932 28.5761 28.2535 28.4915 28.3293 28.4222C28.4051 28.3528 28.4947 28.3003 28.5922 28.2681C28.6898 28.2359 28.793 28.2247 28.8952 28.2353C30.1964 28.2273 31.4951 28.2353 32.7982 28.2317C33.029 28.2317 33.129 28.3209 33.121 28.5517C33.1122 28.8117 33.1102 29.0717 33.121 29.3321C33.1318 29.5924 33.0246 29.6768 32.7738 29.6376C32.6387 29.626 32.5028 29.6248 32.3675 29.634L32.3695 29.6592Z" fill="#1E52BB"/>
<path d="M41.1755 28.2367C41.8315 28.2367 42.4883 28.2239 43.1438 28.2403C43.2636 28.2285 43.3843 28.248 43.4942 28.2969C43.6042 28.3457 43.6995 28.4222 43.7711 28.5189C43.8426 28.6156 43.8878 28.7293 43.9023 28.8487C43.9168 28.9681 43.9001 29.0892 43.8538 29.2002C43.8138 29.3195 43.7384 29.4236 43.6376 29.4988C43.5368 29.574 43.4155 29.6166 43.2898 29.621C43.0419 29.6374 42.7931 29.661 42.5447 29.6578C41.4611 29.6518 40.3776 29.627 39.294 29.6346C38.9596 29.6366 38.848 29.5126 38.8736 29.197C38.888 28.9824 38.8896 28.7671 38.8784 28.5523C38.8692 28.3163 38.9808 28.2323 39.2064 28.2343C39.8628 28.2403 40.5192 28.2343 41.1755 28.2343V28.2367Z" fill="#1E52BB"/>
<path d="M36.0432 21.4108C34.1841 21.4108 32.325 21.4108 30.4658 21.4108C30.0548 21.4422 29.6466 21.3209 29.3195 21.07C29.1543 20.9408 29.0214 20.7751 28.9312 20.5858C28.8409 20.3965 28.7959 20.1889 28.7995 19.9792C28.7911 18.4801 29.2511 18.0113 30.7594 18.0117C34.2393 18.0136 37.7191 18.0136 41.199 18.0117C41.4819 18.0177 41.7644 18.0378 42.0453 18.0721C42.2375 18.0951 42.422 18.1613 42.5849 18.2657C43.2537 18.6729 43.3689 19.3237 43.1849 20.334C43.1087 20.659 42.9188 20.9461 42.6496 21.1435C42.3803 21.3408 42.0494 21.4355 41.7166 21.4104C39.8276 21.4136 37.9365 21.4137 36.0432 21.4108ZM39.7466 19.1077C39.2491 19.1077 38.7515 19.1033 38.2543 19.1077C37.3643 19.1169 37.4847 18.9849 37.4607 19.9076C37.4523 20.2172 37.5571 20.324 37.8679 20.32C38.9759 20.3068 40.0838 20.3252 41.1918 20.3128C42.1265 20.3024 41.9945 20.4728 42.0157 19.4449C42.0209 19.1993 41.9318 19.1013 41.6798 19.1061C41.0374 19.1153 40.3926 19.1077 39.7482 19.1077H39.7466ZM31.747 19.742C31.7539 19.637 31.7393 19.5316 31.7039 19.4325C31.6685 19.3333 31.6132 19.2424 31.5414 19.1655C31.4695 19.0885 31.3826 19.0271 31.2861 18.9851C31.1896 18.943 31.0855 18.9211 30.9802 18.9209C30.7687 18.926 30.5676 19.0138 30.42 19.1654C30.2724 19.317 30.1901 19.5204 30.1907 19.732C30.1914 19.9384 30.2738 20.136 30.4198 20.2818C30.5658 20.4275 30.7635 20.5096 30.9698 20.51C31.0718 20.5122 31.1731 20.4939 31.2679 20.4562C31.3626 20.4186 31.4488 20.3622 31.5214 20.2906C31.594 20.219 31.6515 20.1336 31.6904 20.0393C31.7294 19.9451 31.749 19.844 31.7482 19.742H31.747Z" fill="#1E52BB"/>
<path d="M36.0357 16.7706C34.1433 16.7706 32.2514 16.7666 30.3591 16.7734C29.9023 16.7723 29.4628 16.5983 29.1292 16.2862C28.6736 15.8938 28.6644 14.1967 29.2304 13.7927C29.5248 13.5592 29.8867 13.4269 30.2623 13.4155C34.1021 13.4155 37.943 13.4163 41.785 13.4179C42.1359 13.3987 42.4809 13.515 42.7484 13.7429C43.016 13.9708 43.1857 14.2928 43.2225 14.6423C43.2749 14.9445 43.2786 15.2532 43.2333 15.5566C43.1843 15.9094 43.0038 16.2307 42.728 16.456C42.4521 16.6813 42.1013 16.7941 41.7458 16.7718C39.8422 16.7742 37.9388 16.7738 36.0357 16.7706ZM39.7435 15.6734C40.2535 15.6734 40.7635 15.6798 41.273 15.6734C42.0994 15.6606 41.993 15.7802 42.019 14.9223C42.029 14.6111 41.9206 14.5063 41.6086 14.5103C40.4887 14.5243 39.3651 14.5103 38.2436 14.5159C37.3768 14.5195 37.4836 14.4035 37.4644 15.2986C37.4592 15.5786 37.5616 15.6834 37.84 15.6782C38.4744 15.6646 39.1091 15.6726 39.7435 15.6734ZM30.9867 15.8706C31.0887 15.872 31.1901 15.8532 31.2849 15.8154C31.3797 15.7775 31.4661 15.7214 31.5392 15.6502C31.6123 15.579 31.6707 15.4941 31.711 15.4003C31.7513 15.3065 31.7727 15.2057 31.774 15.1037C31.7754 15.0016 31.7566 14.9003 31.7188 14.8055C31.681 14.7107 31.6249 14.6242 31.5536 14.5511C31.4824 14.478 31.3975 14.4196 31.3037 14.3793C31.2099 14.3391 31.1091 14.3176 31.0071 14.3163C30.9031 14.3119 30.7994 14.3284 30.7019 14.3648C30.6045 14.4012 30.5153 14.4568 30.4398 14.5283C30.3642 14.5998 30.3037 14.6857 30.262 14.781C30.2202 14.8762 30.198 14.9789 30.1966 15.083C30.1953 15.187 30.2148 15.2902 30.254 15.3865C30.2933 15.4829 30.3515 15.5704 30.4251 15.6438C30.4988 15.7173 30.5865 15.7752 30.6829 15.8141C30.7794 15.8531 30.8827 15.8723 30.9867 15.8706Z" fill="#1E52BB"/>
<path d="M35.999 26.0072C34.1175 26.0072 32.2361 26.0072 30.3549 26.0072C29.3653 26.0072 28.8249 25.4685 28.8066 24.4777C28.8046 24.3645 28.8046 24.2509 28.8066 24.1377C28.7927 23.9384 28.8221 23.7384 28.8926 23.5515C28.9632 23.3646 29.0732 23.195 29.2153 23.0545C29.3573 22.914 29.5281 22.8059 29.7158 22.7374C29.9035 22.6689 30.1037 22.6418 30.3029 22.6578C31.6628 22.647 33.0228 22.6542 34.3827 22.6546C36.8077 22.6546 39.233 22.6546 41.6588 22.6546C42.0946 22.635 42.5211 22.7849 42.8487 23.073C43.6243 23.7817 43.3107 25.5153 42.3428 25.9068C42.1296 25.9847 41.9031 26.0198 41.6764 26.01C39.7842 26.0071 37.8918 26.0062 35.999 26.0072ZM37.4654 24.6297C37.4614 24.8769 37.5506 24.9761 37.801 24.9725C38.4469 24.9625 39.0933 24.9689 39.7393 24.9693H40.4536C40.7028 24.9693 40.9524 24.9753 41.2016 24.9713C42.1176 24.9553 41.9932 25.0993 42.0188 24.1533C42.0272 23.8589 41.9308 23.7569 41.6296 23.7605C40.5188 23.7745 39.4077 23.7573 38.2969 23.7661C37.3562 23.7737 37.4826 23.6089 37.4654 24.6297ZM31.7456 24.3373C31.7523 24.2351 31.7376 24.1327 31.7023 24.0366C31.667 23.9405 31.6121 23.8528 31.5409 23.7792C31.4698 23.7056 31.384 23.6477 31.2891 23.6092C31.1943 23.5707 31.0924 23.5525 30.9901 23.5557C30.8858 23.5534 30.7821 23.5722 30.6853 23.6108C30.5884 23.6495 30.5003 23.7073 30.4263 23.7807C30.3523 23.8542 30.2938 23.9418 30.2544 24.0384C30.215 24.1349 30.1955 24.2384 30.197 24.3427C30.1985 24.447 30.221 24.5499 30.2632 24.6453C30.3054 24.7407 30.3663 24.8266 30.4424 24.8979C30.5186 24.9692 30.6083 25.0244 30.7062 25.0602C30.8041 25.0961 30.9083 25.1118 31.0125 25.1065C31.1119 25.1066 31.2104 25.0866 31.3018 25.0475C31.3933 25.0085 31.4759 24.9513 31.5446 24.8793C31.6132 24.8074 31.6666 24.7223 31.7014 24.6291C31.7361 24.5359 31.7516 24.4366 31.7468 24.3373H31.7456Z" fill="#1E52BB"/>
<path d="M6.00488 45.8354L6.95215 46.0747C6.75358 46.8527 6.39551 47.4468 5.87793 47.8569C5.36361 48.2638 4.73372 48.4673 3.98828 48.4673C3.2168 48.4673 2.58854 48.311 2.10352 47.9985C1.62174 47.6828 1.25391 47.2271 1 46.6313C0.749349 46.0356 0.624023 45.396 0.624023 44.7124C0.624023 43.967 0.765625 43.3175 1.04883 42.7642C1.33529 42.2075 1.74056 41.786 2.26465 41.4995C2.79199 41.2098 3.37142 41.0649 4.00293 41.0649C4.71908 41.0649 5.32129 41.2472 5.80957 41.6118C6.29785 41.9764 6.63802 42.4891 6.83008 43.1499L5.89746 43.3696C5.73145 42.8488 5.49056 42.4696 5.1748 42.2319C4.85905 41.9943 4.46191 41.8755 3.9834 41.8755C3.43327 41.8755 2.97266 42.0073 2.60156 42.271C2.23372 42.5347 1.97493 42.8895 1.8252 43.3354C1.67546 43.7782 1.60059 44.2355 1.60059 44.7075C1.60059 45.3162 1.68848 45.8485 1.86426 46.3042C2.04329 46.7567 2.31999 47.0952 2.69434 47.3198C3.06868 47.5444 3.47396 47.6567 3.91016 47.6567C4.44076 47.6567 4.88997 47.5037 5.25781 47.1978C5.62565 46.8918 5.87467 46.4377 6.00488 45.8354ZM7.99219 48.3452V41.187H8.87109V48.3452H7.99219ZM9.91113 45.7524C9.91113 44.7922 10.1781 44.0809 10.7119 43.6187C11.1579 43.2345 11.7015 43.0425 12.3428 43.0425C13.0557 43.0425 13.6383 43.2769 14.0908 43.7456C14.5433 44.2111 14.7695 44.8556 14.7695 45.6792C14.7695 46.3465 14.6686 46.8722 14.4668 47.2563C14.2682 47.6372 13.9769 47.9334 13.5928 48.145C13.2119 48.3566 12.7952 48.4624 12.3428 48.4624C11.6169 48.4624 11.0293 48.2297 10.5801 47.7642C10.1341 47.2987 9.91113 46.6281 9.91113 45.7524ZM10.8145 45.7524C10.8145 46.4165 10.9593 46.9146 11.249 47.2466C11.5387 47.5754 11.9033 47.7397 12.3428 47.7397C12.779 47.7397 13.1419 47.5737 13.4316 47.2417C13.7214 46.9097 13.8662 46.4035 13.8662 45.7231C13.8662 45.0819 13.7197 44.5968 13.4268 44.2681C13.137 43.936 12.7757 43.77 12.3428 43.77C11.9033 43.77 11.5387 43.9344 11.249 44.2632C10.9593 44.592 10.8145 45.0884 10.8145 45.7524ZM19.2031 48.3452V47.5835C18.7995 48.1694 18.251 48.4624 17.5576 48.4624C17.2516 48.4624 16.9652 48.4038 16.6982 48.2866C16.4346 48.1694 16.2376 48.0229 16.1074 47.8472C15.9805 47.6681 15.891 47.45 15.8389 47.1929C15.8031 47.0203 15.7852 46.7469 15.7852 46.3726V43.1597H16.6641V46.0356C16.6641 46.4946 16.682 46.8039 16.7178 46.9634C16.7731 47.1945 16.8903 47.3768 17.0693 47.5103C17.2484 47.6405 17.4697 47.7056 17.7334 47.7056C17.9971 47.7056 18.2445 47.6388 18.4756 47.5054C18.7067 47.3687 18.8695 47.1847 18.9639 46.9536C19.0615 46.7192 19.1104 46.3807 19.1104 45.938V43.1597H19.9893V48.3452H19.2031ZM24.7354 48.3452V47.6909C24.4066 48.2052 23.9232 48.4624 23.2852 48.4624C22.8717 48.4624 22.4909 48.3485 22.1426 48.1206C21.7975 47.8927 21.529 47.5754 21.3369 47.1685C21.1481 46.7583 21.0537 46.2879 21.0537 45.7573C21.0537 45.2397 21.14 44.771 21.3125 44.3511C21.485 43.9279 21.7438 43.604 22.0889 43.3794C22.4339 43.1548 22.8197 43.0425 23.2461 43.0425C23.5586 43.0425 23.8369 43.1092 24.0811 43.2427C24.3252 43.3729 24.5238 43.5438 24.6768 43.7554V41.187H25.5508V48.3452H24.7354ZM21.957 45.7573C21.957 46.4214 22.097 46.9178 22.377 47.2466C22.6569 47.5754 22.9873 47.7397 23.3682 47.7397C23.7523 47.7397 24.0778 47.5835 24.3447 47.271C24.6149 46.9552 24.75 46.4751 24.75 45.8306C24.75 45.1209 24.6133 44.6001 24.3398 44.2681C24.0664 43.936 23.7295 43.77 23.3291 43.77C22.9385 43.77 22.6113 43.9295 22.3477 44.2485C22.0872 44.5675 21.957 45.0705 21.957 45.7573ZM29.833 48.3452V41.187H32.2988C32.8555 41.187 33.2803 41.2212 33.5732 41.2896C33.9834 41.384 34.3333 41.5549 34.623 41.8022C35.0007 42.1213 35.2822 42.5298 35.4678 43.0278C35.6566 43.5226 35.751 44.089 35.751 44.7271C35.751 45.2707 35.6875 45.7524 35.5605 46.1724C35.4336 46.5923 35.2708 46.9406 35.0723 47.2173C34.8737 47.4907 34.6556 47.7072 34.418 47.8667C34.1836 48.0229 33.8988 48.1418 33.5635 48.2231C33.2314 48.3045 32.849 48.3452 32.416 48.3452H29.833ZM30.7803 47.5005H32.3086C32.7806 47.5005 33.1501 47.4565 33.417 47.3687C33.6872 47.2808 33.902 47.1571 34.0615 46.9976C34.2861 46.7729 34.4603 46.4718 34.584 46.0942C34.7109 45.7134 34.7744 45.2528 34.7744 44.7124C34.7744 43.9637 34.6507 43.3892 34.4033 42.9888C34.1592 42.5851 33.8613 42.3149 33.5098 42.1782C33.2559 42.0806 32.8473 42.0317 32.2842 42.0317H30.7803V47.5005ZM36.9521 42.1978V41.187H37.8311V42.1978H36.9521ZM36.9521 48.3452V43.1597H37.8311V48.3452H36.9521ZM39.1641 48.3452V43.1597H39.9551V43.9458C40.1569 43.578 40.3424 43.3354 40.5117 43.2183C40.6842 43.1011 40.873 43.0425 41.0781 43.0425C41.3743 43.0425 41.6755 43.1369 41.9814 43.3257L41.6787 44.1411C41.4639 44.0142 41.249 43.9507 41.0342 43.9507C40.8421 43.9507 40.6696 44.0093 40.5166 44.1265C40.3636 44.2404 40.2546 44.3999 40.1895 44.605C40.0918 44.9175 40.043 45.2593 40.043 45.6304V48.3452H39.1641ZM46.0537 46.6753L46.9619 46.7876C46.8187 47.3182 46.5534 47.73 46.166 48.0229C45.7786 48.3159 45.2839 48.4624 44.6816 48.4624C43.9232 48.4624 43.321 48.2297 42.875 47.7642C42.4323 47.2954 42.2109 46.6395 42.2109 45.7964C42.2109 44.924 42.4355 44.2469 42.8848 43.7651C43.334 43.2834 43.9167 43.0425 44.6328 43.0425C45.3262 43.0425 45.8926 43.2785 46.332 43.7505C46.7715 44.2225 46.9912 44.8866 46.9912 45.7427C46.9912 45.7948 46.9896 45.8729 46.9863 45.9771H43.1191C43.1517 46.5467 43.3128 46.9829 43.6025 47.2856C43.8923 47.5884 44.2536 47.7397 44.6865 47.7397C45.0088 47.7397 45.2839 47.6551 45.5117 47.4858C45.7396 47.3166 45.9202 47.0464 46.0537 46.6753ZM43.168 45.2544H46.0635C46.0244 44.8182 45.9137 44.491 45.7314 44.2729C45.4515 43.9344 45.0885 43.7651 44.6426 43.7651C44.2389 43.7651 43.8988 43.9002 43.6221 44.1704C43.3486 44.4406 43.1973 44.8019 43.168 45.2544ZM51.4541 46.4458L52.3184 46.5581C52.224 47.1538 51.9814 47.6209 51.5908 47.9595C51.2035 48.2948 50.7266 48.4624 50.1602 48.4624C49.4505 48.4624 48.8792 48.2313 48.4463 47.769C48.0166 47.3035 47.8018 46.6379 47.8018 45.772C47.8018 45.2121 47.8945 44.7222 48.0801 44.3022C48.2656 43.8823 48.5472 43.5682 48.9248 43.3599C49.3057 43.1483 49.7191 43.0425 50.165 43.0425C50.7282 43.0425 51.1888 43.1857 51.5469 43.4722C51.9049 43.7554 52.1344 44.159 52.2354 44.6831L51.3809 44.8149C51.2995 44.4666 51.1546 44.2046 50.9463 44.0288C50.7412 43.853 50.4922 43.7651 50.1992 43.7651C49.7565 43.7651 49.3968 43.9246 49.1201 44.2437C48.8434 44.5594 48.7051 45.0607 48.7051 45.7476C48.7051 46.4442 48.8385 46.9504 49.1055 47.2661C49.3724 47.5819 49.7207 47.7397 50.1504 47.7397C50.4954 47.7397 50.7835 47.634 51.0146 47.4224C51.2458 47.2108 51.3923 46.8853 51.4541 46.4458ZM54.9893 47.5591L55.1162 48.3354C54.8688 48.3875 54.6475 48.4136 54.4521 48.4136C54.1331 48.4136 53.8857 48.3631 53.71 48.2622C53.5342 48.1613 53.4105 48.0295 53.3389 47.8667C53.2673 47.7007 53.2314 47.354 53.2314 46.8267V43.8433H52.5869V43.1597H53.2314V41.8755L54.1055 41.3481V43.1597H54.9893V43.8433H54.1055V46.8755C54.1055 47.1261 54.1201 47.2873 54.1494 47.3589C54.182 47.4305 54.2324 47.4875 54.3008 47.5298C54.3724 47.5721 54.4733 47.5933 54.6035 47.5933C54.7012 47.5933 54.8298 47.5819 54.9893 47.5591ZM55.5264 45.7524C55.5264 44.7922 55.7933 44.0809 56.3271 43.6187C56.7731 43.2345 57.3167 43.0425 57.958 43.0425C58.6709 43.0425 59.2536 43.2769 59.7061 43.7456C60.1585 44.2111 60.3848 44.8556 60.3848 45.6792C60.3848 46.3465 60.2839 46.8722 60.082 47.2563C59.8835 47.6372 59.5921 47.9334 59.208 48.145C58.8271 48.3566 58.4105 48.4624 57.958 48.4624C57.2321 48.4624 56.6445 48.2297 56.1953 47.7642C55.7493 47.2987 55.5264 46.6281 55.5264 45.7524ZM56.4297 45.7524C56.4297 46.4165 56.5745 46.9146 56.8643 47.2466C57.154 47.5754 57.5186 47.7397 57.958 47.7397C58.3942 47.7397 58.7572 47.5737 59.0469 47.2417C59.3366 46.9097 59.4814 46.4035 59.4814 45.7231C59.4814 45.0819 59.335 44.5968 59.042 44.2681C58.7523 43.936 58.391 43.77 57.958 43.77C57.5186 43.77 57.154 43.9344 56.8643 44.2632C56.5745 44.592 56.4297 45.0884 56.4297 45.7524ZM61.4102 48.3452V43.1597H62.2012V43.9458C62.403 43.578 62.5885 43.3354 62.7578 43.2183C62.9303 43.1011 63.1191 43.0425 63.3242 43.0425C63.6204 43.0425 63.9215 43.1369 64.2275 43.3257L63.9248 44.1411C63.71 44.0142 63.4951 43.9507 63.2803 43.9507C63.0882 43.9507 62.9157 44.0093 62.7627 44.1265C62.6097 44.2404 62.5007 44.3999 62.4355 44.605C62.3379 44.9175 62.2891 45.2593 62.2891 45.6304V48.3452H61.4102ZM64.7109 50.3423L64.6133 49.5171C64.8053 49.5692 64.973 49.5952 65.1162 49.5952C65.3115 49.5952 65.4678 49.5627 65.585 49.4976C65.7021 49.4325 65.7982 49.3413 65.873 49.2241C65.9284 49.1362 66.0179 48.9181 66.1416 48.5698C66.1579 48.521 66.1839 48.4494 66.2197 48.355L64.252 43.1597H65.1992L66.2783 46.1626C66.4183 46.5435 66.5436 46.9438 66.6543 47.3638C66.7552 46.9601 66.8757 46.5662 67.0156 46.1821L68.124 43.1597H69.0029L67.0303 48.4331C66.8187 49.0028 66.6543 49.395 66.5371 49.6099C66.3809 49.8996 66.2018 50.1112 66 50.2446C65.7982 50.3813 65.5573 50.4497 65.2773 50.4497C65.1081 50.4497 64.9193 50.4139 64.7109 50.3423ZM17.2695 60.0454L18.1631 59.9673C18.2054 60.3254 18.3031 60.62 18.4561 60.8511C18.6123 61.0789 18.8532 61.2645 19.1787 61.4077C19.5042 61.5477 19.8704 61.6177 20.2773 61.6177C20.6387 61.6177 20.9577 61.564 21.2344 61.4565C21.5111 61.3491 21.7161 61.2026 21.8496 61.0171C21.9863 60.8283 22.0547 60.6232 22.0547 60.4019C22.0547 60.1772 21.9896 59.9819 21.8594 59.8159C21.7292 59.6466 21.5143 59.505 21.2148 59.3911C21.0228 59.3162 20.598 59.2007 19.9404 59.0444C19.2829 58.8849 18.8223 58.7352 18.5586 58.5952C18.2168 58.4162 17.9613 58.1948 17.792 57.9312C17.626 57.6642 17.543 57.3664 17.543 57.0376C17.543 56.6763 17.6455 56.3394 17.8506 56.0269C18.0557 55.7111 18.3551 55.4718 18.749 55.3091C19.1429 55.1463 19.5807 55.0649 20.0625 55.0649C20.5931 55.0649 21.0602 55.1512 21.4639 55.3237C21.8708 55.493 22.1833 55.7437 22.4014 56.0757C22.6195 56.4077 22.7367 56.7837 22.7529 57.2036L21.8447 57.272C21.7959 56.8195 21.6299 56.4777 21.3467 56.2466C21.0667 56.0155 20.6517 55.8999 20.1016 55.8999C19.5286 55.8999 19.1104 56.0057 18.8467 56.2173C18.5863 56.4256 18.4561 56.6779 18.4561 56.9741C18.4561 57.2313 18.5488 57.4429 18.7344 57.6089C18.9167 57.7749 19.3919 57.9458 20.1602 58.1216C20.9316 58.2941 21.4606 58.4455 21.7471 58.5757C22.1637 58.7677 22.4714 59.0119 22.6699 59.3081C22.8685 59.6011 22.9678 59.9396 22.9678 60.3237C22.9678 60.7046 22.8587 61.0643 22.6406 61.4028C22.4225 61.7381 22.1084 62.0002 21.6982 62.189C21.2913 62.3745 20.8324 62.4673 20.3213 62.4673C19.6735 62.4673 19.1299 62.3729 18.6904 62.1841C18.2542 61.9953 17.9108 61.7121 17.6602 61.3345C17.4128 60.9536 17.2826 60.5239 17.2695 60.0454ZM27.6992 60.6753L28.6074 60.7876C28.4642 61.3182 28.1989 61.73 27.8115 62.0229C27.4242 62.3159 26.9294 62.4624 26.3271 62.4624C25.5687 62.4624 24.9665 62.2297 24.5205 61.7642C24.0778 61.2954 23.8564 60.6395 23.8564 59.7964C23.8564 58.924 24.0811 58.2469 24.5303 57.7651C24.9795 57.2834 25.5622 57.0425 26.2783 57.0425C26.9717 57.0425 27.5381 57.2785 27.9775 57.7505C28.417 58.2225 28.6367 58.8866 28.6367 59.7427C28.6367 59.7948 28.6351 59.8729 28.6318 59.9771H24.7646C24.7972 60.5467 24.9583 60.9829 25.248 61.2856C25.5378 61.5884 25.8991 61.7397 26.332 61.7397C26.6543 61.7397 26.9294 61.6551 27.1572 61.4858C27.3851 61.3166 27.5658 61.0464 27.6992 60.6753ZM24.8135 59.2544H27.709C27.6699 58.8182 27.5592 58.491 27.377 58.2729C27.097 57.9344 26.734 57.7651 26.2881 57.7651C25.8844 57.7651 25.5443 57.9002 25.2676 58.1704C24.9941 58.4406 24.8428 58.8019 24.8135 59.2544ZM29.7061 62.3452V57.1597H30.4971V57.9458C30.6989 57.578 30.8844 57.3354 31.0537 57.2183C31.2262 57.1011 31.415 57.0425 31.6201 57.0425C31.9163 57.0425 32.2174 57.1369 32.5234 57.3257L32.2207 58.1411C32.0059 58.0142 31.791 57.9507 31.5762 57.9507C31.3841 57.9507 31.2116 58.0093 31.0586 58.1265C30.9056 58.2404 30.7965 58.3999 30.7314 58.605C30.6338 58.9175 30.585 59.2593 30.585 59.6304V62.3452H29.7061ZM34.4863 62.3452L32.5137 57.1597H33.4414L34.5547 60.2651C34.6751 60.6004 34.7858 60.9487 34.8867 61.3101C34.9648 61.0366 35.0739 60.7078 35.2139 60.3237L36.3662 57.1597H37.2695L35.3066 62.3452H34.4863ZM38.0508 56.1978V55.187H38.9297V56.1978H38.0508ZM38.0508 62.3452V57.1597H38.9297V62.3452H38.0508ZM43.6562 60.4458L44.5205 60.5581C44.4261 61.1538 44.1836 61.6209 43.793 61.9595C43.4056 62.2948 42.9287 62.4624 42.3623 62.4624C41.6527 62.4624 41.0814 62.2313 40.6484 61.769C40.2188 61.3035 40.0039 60.6379 40.0039 59.772C40.0039 59.2121 40.0967 58.7222 40.2822 58.3022C40.4678 57.8823 40.7493 57.5682 41.127 57.3599C41.5078 57.1483 41.9212 57.0425 42.3672 57.0425C42.9303 57.0425 43.391 57.1857 43.749 57.4722C44.1071 57.7554 44.3366 58.159 44.4375 58.6831L43.583 58.8149C43.5016 58.4666 43.3568 58.2046 43.1484 58.0288C42.9434 57.853 42.6943 57.7651 42.4014 57.7651C41.9587 57.7651 41.599 57.9246 41.3223 58.2437C41.0456 58.5594 40.9072 59.0607 40.9072 59.7476C40.9072 60.4442 41.0407 60.9504 41.3076 61.2661C41.5745 61.5819 41.9229 61.7397 42.3525 61.7397C42.6976 61.7397 42.9857 61.634 43.2168 61.4224C43.4479 61.2108 43.5944 60.8853 43.6562 60.4458ZM48.8223 60.6753L49.7305 60.7876C49.5872 61.3182 49.3219 61.73 48.9346 62.0229C48.5472 62.3159 48.0524 62.4624 47.4502 62.4624C46.6917 62.4624 46.0895 62.2297 45.6436 61.7642C45.2008 61.2954 44.9795 60.6395 44.9795 59.7964C44.9795 58.924 45.2041 58.2469 45.6533 57.7651C46.1025 57.2834 46.6852 57.0425 47.4014 57.0425C48.0947 57.0425 48.6611 57.2785 49.1006 57.7505C49.54 58.2225 49.7598 58.8866 49.7598 59.7427C49.7598 59.7948 49.7581 59.8729 49.7549 59.9771H45.8877C45.9202 60.5467 46.0814 60.9829 46.3711 61.2856C46.6608 61.5884 47.0221 61.7397 47.4551 61.7397C47.7773 61.7397 48.0524 61.6551 48.2803 61.4858C48.5081 61.3166 48.6888 61.0464 48.8223 60.6753ZM45.9365 59.2544H48.832C48.793 58.8182 48.6823 58.491 48.5 58.2729C48.2201 57.9344 47.8571 57.7651 47.4111 57.7651C47.0075 57.7651 46.6673 57.9002 46.3906 58.1704C46.1172 58.4406 45.9658 58.8019 45.9365 59.2544ZM50.4873 60.7974L51.3564 60.6606C51.4053 61.009 51.5404 61.2759 51.7617 61.4614C51.9863 61.647 52.2988 61.7397 52.6992 61.7397C53.1029 61.7397 53.4023 61.6584 53.5977 61.4956C53.793 61.3296 53.8906 61.1359 53.8906 60.9146C53.8906 60.716 53.8044 60.5597 53.6318 60.4458C53.5114 60.3677 53.2119 60.2684 52.7334 60.1479C52.0889 59.9852 51.6413 59.8452 51.3906 59.728C51.1432 59.6076 50.9544 59.4432 50.8242 59.2349C50.6973 59.0233 50.6338 58.7905 50.6338 58.5366C50.6338 58.3055 50.6859 58.0923 50.79 57.897C50.8975 57.6984 51.0423 57.534 51.2246 57.4038C51.3613 57.3029 51.5469 57.2183 51.7812 57.1499C52.0189 57.0783 52.2728 57.0425 52.543 57.0425C52.9499 57.0425 53.3063 57.1011 53.6123 57.2183C53.9215 57.3354 54.1494 57.495 54.2959 57.6968C54.4424 57.8953 54.5433 58.1623 54.5986 58.4976L53.7393 58.6147C53.7002 58.3478 53.5863 58.1395 53.3975 57.9897C53.2119 57.84 52.9482 57.7651 52.6064 57.7651C52.2028 57.7651 51.9147 57.8319 51.7422 57.9653C51.5697 58.0988 51.4834 58.255 51.4834 58.4341C51.4834 58.548 51.5192 58.6506 51.5908 58.7417C51.6624 58.8361 51.7747 58.9142 51.9277 58.9761C52.0156 59.0086 52.2744 59.0835 52.7041 59.2007C53.3258 59.3667 53.7588 59.5034 54.0029 59.6108C54.2503 59.715 54.444 59.868 54.584 60.0698C54.724 60.2716 54.7939 60.5223 54.7939 60.8218C54.7939 61.1147 54.7077 61.3914 54.5352 61.6519C54.3659 61.909 54.1201 62.1092 53.7979 62.2524C53.4756 62.3924 53.111 62.4624 52.7041 62.4624C52.0303 62.4624 51.516 62.3224 51.1611 62.0425C50.8096 61.7625 50.585 61.3475 50.4873 60.7974Z" fill="#2A303D"/>
</svg>
