<svg width="55" height="67" viewBox="0 0 55 67" fill="none" xmlns="http://www.w3.org/2000/svg">
<path d="M36.7099 27.0086L36.7219 26.9875C36.8939 26.6978 36.9725 26.3622 36.947 26.0262L36.9351 24.5825V22.5377C36.9436 22.3887 36.9271 22.2393 36.8864 22.0957C36.8516 21.989 36.7846 21.8957 36.6945 21.8287C36.6045 21.7617 36.4959 21.7243 36.3837 21.7217C36.2677 21.7228 36.1556 21.7638 36.0663 21.8377C35.9769 21.9117 35.9157 22.0142 35.8929 22.1279C35.8767 22.2414 35.8362 22.35 35.7744 22.4466C35.7126 22.5431 35.6308 22.6253 35.5345 22.6876C35.1275 22.9751 34.6765 23.1948 34.1993 23.3382C33.3155 23.6249 32.4079 23.8325 31.4873 23.9585C30.9911 24.0363 30.4927 24.0951 29.9921 24.1349C29.4656 24.1754 28.9371 24.2112 28.4106 24.2268C27.6092 24.2452 26.8069 24.2544 26.0037 24.1956C25.275 24.1423 24.5453 24.1037 23.8193 24.0118C23.3755 23.9548 22.9343 23.8877 22.4951 23.8069C21.9982 23.7165 21.5072 23.5965 21.0247 23.4476C20.4983 23.3135 19.9949 23.1013 19.5313 22.8181C19.3918 22.7516 19.2701 22.6529 19.1764 22.5299C19.0828 22.407 19.0198 22.2635 18.9928 22.1113C18.9681 22.0002 18.9056 21.9012 18.8159 21.8311C18.7262 21.761 18.6149 21.7243 18.5012 21.7272C18.3889 21.7311 18.2806 21.77 18.1916 21.8386C18.1026 21.9072 18.0373 22.0019 18.0049 22.1095C17.9679 22.2334 17.9521 22.3626 17.958 22.4918C17.958 23.0046 17.958 23.5174 17.958 24.0302L17.9507 25.6117C17.9507 25.6329 17.9507 25.654 17.9507 25.6761V25.8994H17.9571C17.9571 26.0216 17.9571 26.1438 17.9654 26.267C17.9692 26.4568 18.0098 26.644 18.0849 26.8184C18.3323 27.3077 18.7405 27.6971 19.2409 27.9212C19.934 28.2712 20.6673 28.535 21.4244 28.7069C22.0301 28.8613 22.6476 28.9688 23.2624 29.0625C23.777 29.1407 24.2963 29.1976 24.8155 29.2463C25.3513 29.2932 25.8907 29.3189 26.4265 29.3309C27.2683 29.3502 28.1101 29.3585 28.9537 29.3015C29.6889 29.2509 30.4305 29.2096 31.1657 29.1177C31.7171 29.046 32.2685 28.9596 32.8125 28.8512C33.4807 28.7217 34.1379 28.5407 34.7782 28.3099C35.3739 28.1237 35.9244 27.8158 36.3947 27.4056C36.5124 27.2965 36.6159 27.173 36.7026 27.038L36.7099 27.0086Z" fill="#006AFF"/>
<path d="M18.0471 18.3477C18.1783 18.6898 18.4087 18.9849 18.7088 19.195C19.1408 19.5081 19.6176 19.7541 20.1231 19.9247C20.3988 20.024 20.4456 20.1085 20.3877 20.3897C20.3833 20.4143 20.3811 20.4392 20.3813 20.4642C20.3813 20.8731 20.3758 21.2821 20.3813 21.691C20.384 21.7964 20.4202 21.8982 20.4846 21.9816C20.5491 22.0651 20.6384 22.1258 20.7397 22.1551C21.5133 22.3773 22.3003 22.5495 23.096 22.6707C23.5956 22.7572 24.0992 22.8185 24.605 22.8544C25.206 22.893 25.8052 22.9647 26.4099 22.9555C26.4595 22.9555 26.5091 22.9638 26.5587 22.9675C26.8872 22.9911 27.2168 22.9944 27.5457 22.9776C27.6565 22.9711 27.7608 22.923 27.8377 22.8429C27.9145 22.7628 27.9583 22.6566 27.9602 22.5457C27.9664 22.4884 27.9612 22.4306 27.9448 22.3754C27.9284 22.3202 27.9012 22.2688 27.8648 22.2242C27.8283 22.1797 27.7834 22.1428 27.7325 22.1158C27.6817 22.0888 27.626 22.0721 27.5687 22.0669C27.296 22.04 27.022 22.0284 26.748 22.032C26.1415 22.009 25.535 21.9961 24.9294 21.9401C24.4 21.891 23.8722 21.8316 23.346 21.7618C22.7679 21.6846 22.2027 21.5541 21.632 21.4429C21.3867 21.3951 21.3389 21.3317 21.3398 21.0753C21.3398 20.9255 21.3398 20.7757 21.3398 20.6259C21.3453 20.4219 21.4492 20.3346 21.6468 20.3732C21.928 20.4274 22.2083 20.4862 22.4885 20.5432C23.0344 20.6562 23.5913 20.727 24.1427 20.784C24.7502 20.8492 25.3613 20.9062 25.9743 20.92C26.4907 20.931 27.0081 20.977 27.5246 20.965C28.0576 20.9531 28.5897 20.9255 29.1227 20.9154C29.352 20.9145 29.5812 20.9017 29.8092 20.8768C30.4451 20.7969 31.0856 20.7693 31.7188 20.6562C32.1958 20.5708 32.6755 20.5 33.1479 20.3879C33.3482 20.3401 33.4888 20.41 33.4943 20.5717C33.5007 20.7913 33.4943 21.011 33.4943 21.2306C33.4973 21.276 33.4843 21.3211 33.4576 21.358C33.431 21.3949 33.3923 21.4213 33.3482 21.4328C33.2195 21.4714 33.089 21.5035 32.9576 21.5302C32.636 21.5945 32.3143 21.6524 31.9927 21.714C31.9069 21.7339 31.8293 21.78 31.7707 21.8458C31.7121 21.9116 31.6754 21.994 31.6655 22.0816C31.652 22.1613 31.6594 22.2433 31.6869 22.3193C31.7145 22.3954 31.7612 22.4631 31.8227 22.5157C31.8841 22.5684 31.9581 22.6042 32.0375 22.6198C32.1169 22.6353 32.199 22.63 32.2757 22.6045C32.8326 22.5052 33.3877 22.3922 33.9354 22.2461C34.3315 22.1404 34.4528 21.998 34.4528 21.5817C34.4528 21.1378 34.4528 20.6939 34.4528 20.25C34.4446 20.1887 34.4586 20.1264 34.4923 20.0745C34.526 20.0226 34.5772 19.9844 34.6366 19.967C35.1208 19.8014 35.5836 19.5786 36.0151 19.3035C36.308 19.1357 36.5489 18.8901 36.7111 18.594C36.8733 18.2978 36.9504 17.9626 36.9341 17.6254C36.9157 17.0575 36.9341 16.4886 36.9341 15.9198C36.9341 15.3004 36.9341 14.6816 36.9341 14.0634C36.9353 13.9541 36.9207 13.8451 36.8909 13.7399C36.8757 13.674 36.8477 13.6118 36.8083 13.5568C36.7689 13.5018 36.719 13.4551 36.6615 13.4196C36.604 13.384 36.54 13.3602 36.4732 13.3496C36.4064 13.339 36.3381 13.3417 36.2724 13.3577C36.1564 13.3813 36.053 13.4464 35.9816 13.5408C35.9102 13.6352 35.8757 13.7524 35.8846 13.8704C35.8905 13.9553 35.8777 14.0405 35.847 14.1199C35.8164 14.1993 35.7686 14.271 35.7072 14.3299C35.5473 14.4873 35.3656 14.621 35.1678 14.7269C34.6816 14.9787 34.169 15.176 33.6395 15.3151C33.0603 15.4761 32.472 15.6025 31.8778 15.6937C31.5488 15.7452 31.2192 15.7911 30.889 15.8316C30.6234 15.8646 30.3578 15.8922 30.0922 15.917C29.9728 15.9373 29.7853 15.9529 29.5574 15.9657C29.1236 15.9915 25.9017 15.9942 25.9017 15.9942C25.4238 15.9712 24.9477 15.9336 24.4726 15.8858C24.0468 15.8429 23.6235 15.7887 23.2026 15.7231C22.9315 15.6809 22.6595 15.6496 22.393 15.5908C21.823 15.4754 21.26 15.3278 20.7066 15.1488C20.2492 15.0103 19.8155 14.8033 19.4201 14.5349C19.2974 14.4722 19.1943 14.3772 19.1218 14.26C19.0494 14.1429 19.0105 14.0082 19.0093 13.8704C19.0179 13.7649 18.9917 13.6595 18.9348 13.5702C18.8779 13.481 18.7933 13.4128 18.6941 13.376C18.5872 13.3369 18.4706 13.3337 18.3618 13.3669C18.253 13.4001 18.158 13.4678 18.0912 13.5598C18.0037 13.6758 17.958 13.818 17.9616 13.9633C17.9616 14.2785 17.9616 14.5928 17.9616 14.9071V16.5971C17.9616 17.0161 17.9616 17.4352 17.9616 17.8543C17.9628 18.0223 17.9917 18.1891 18.0471 18.3477Z" fill="#006AFF"/>
<path d="M17.9541 8.25002C17.9551 8.26624 17.9551 8.28252 17.9541 8.29874C17.9486 8.7132 17.9541 9.12582 17.9541 9.5412C17.9536 9.71992 17.9668 9.89842 17.9936 10.0751C18.0749 10.4956 18.3156 10.8683 18.6654 11.1154C19.1286 11.4622 19.6463 11.7292 20.1973 11.9057C20.2565 11.9212 20.3078 11.9578 20.3417 12.0086C20.3756 12.0594 20.3896 12.121 20.3811 12.1815C20.371 12.6152 20.3729 13.0499 20.3738 13.4846C20.3708 13.5902 20.4023 13.694 20.4634 13.7802C20.5246 13.8664 20.6122 13.9304 20.7129 13.9624C20.9215 14.0268 21.131 14.0911 21.3442 14.1462C21.9333 14.2859 22.5279 14.4054 23.1252 14.4991C23.6408 14.58 24.16 14.6471 24.6801 14.6829C25.3455 14.7243 26.009 14.807 26.6771 14.784C26.8017 14.7823 26.9263 14.7885 27.0502 14.8024C27.1994 14.8166 27.3495 14.8166 27.4987 14.8024C27.6244 14.7989 27.7436 14.7455 27.8301 14.6541C27.9165 14.5627 27.9631 14.4406 27.9595 14.3149C27.956 14.1891 27.9027 14.0699 27.8112 13.9835C27.7198 13.897 27.5978 13.8505 27.472 13.854C26.6394 13.8485 25.8077 13.8466 24.9779 13.7621C24.6167 13.7272 24.2547 13.6978 23.8944 13.6537C23.3577 13.5875 22.821 13.5121 22.2917 13.3954C22.0298 13.3375 21.7651 13.2952 21.5078 13.2116C21.4159 13.1822 21.3396 13.1354 21.336 13.0278C21.3314 12.844 21.3295 12.6685 21.336 12.4893C21.3395 12.4595 21.3491 12.4307 21.3641 12.4048C21.3792 12.3788 21.3994 12.3562 21.4234 12.3383C21.4475 12.3204 21.475 12.3076 21.5042 12.3007C21.5334 12.2938 21.5637 12.2929 21.5933 12.2982C21.8818 12.3726 22.1759 12.4213 22.4672 12.482C22.9047 12.5739 23.3476 12.6281 23.7887 12.6942C24.1618 12.7512 24.5414 12.7613 24.9182 12.7972C25.6772 12.8688 26.44 12.8891 27.2018 12.9056C27.6613 12.9176 28.1291 12.89 28.5923 12.8817C28.7715 12.8817 28.9497 12.8688 29.1299 12.856C29.8586 12.8017 30.5865 12.7567 31.3125 12.6547C31.7352 12.5959 32.1552 12.5224 32.577 12.4535C32.8078 12.3935 33.0438 12.3553 33.2818 12.3395C33.416 12.3395 33.4868 12.4038 33.4868 12.5408C33.4868 12.7053 33.4868 12.8698 33.4868 13.0343C33.4895 13.0849 33.4742 13.1348 33.4436 13.1752C33.4129 13.2156 33.369 13.2438 33.3195 13.2548C33.1771 13.2971 33.03 13.3256 32.8839 13.355C32.5972 13.4138 32.3068 13.4579 32.0247 13.5314C31.9186 13.5615 31.8272 13.6293 31.7677 13.722C31.7081 13.8148 31.6845 13.9261 31.7012 14.035C31.7217 14.1575 31.7899 14.2667 31.8908 14.3389C31.9918 14.4111 32.1173 14.4403 32.2397 14.4201C32.8086 14.3282 33.3701 14.2032 33.9279 14.0608C34.3185 13.9615 34.4434 13.8136 34.4444 13.411C34.4453 13.0085 34.4444 12.6023 34.4444 12.198C34.4368 12.1336 34.4532 12.0686 34.4905 12.0156C34.5278 11.9625 34.5834 11.925 34.6465 11.9103C35.2174 11.7293 35.754 11.4544 36.2345 11.097C36.4335 10.9577 36.5984 10.7752 36.7171 10.5633C36.8358 10.3514 36.9052 10.1154 36.9201 9.87294C36.9472 9.54215 36.95 9.2098 36.9284 8.8786V7.09762C36.9366 6.94415 36.9284 6.78791 36.9284 6.6326V6.49661C36.9284 6.28984 36.9366 6.08305 36.9284 5.87628C36.9207 5.68249 36.8804 5.49141 36.8089 5.31111C36.6534 4.97431 36.4067 4.6878 36.0967 4.48403C35.6353 4.16951 35.1303 3.92427 34.5978 3.75617C34.392 3.68174 34.1806 3.62292 33.9702 3.56227C33.7597 3.50162 33.5603 3.43913 33.3508 3.40053C33.1412 3.36194 32.9584 3.29119 32.7516 3.26454C32.4263 3.22227 32.1019 3.15608 31.7784 3.0991C31.2095 2.99893 30.6342 2.95576 30.0626 2.88776C29.5443 2.82526 29.0187 2.81791 28.5004 2.79585C27.7238 2.77012 26.9445 2.76092 26.1661 2.81055C25.3574 2.86201 24.5487 2.90244 23.7437 3.00813C23.2842 3.07245 22.8174 3.13404 22.3579 3.2195C21.8754 3.3114 21.3966 3.41801 20.9233 3.5531C20.2229 3.73085 19.5521 4.00945 18.9319 4.38018C18.6247 4.54015 18.3694 4.7843 18.1959 5.08409C18.0224 5.38387 17.9379 5.72689 17.9523 6.07296C17.9578 6.18232 17.9578 6.2926 17.9569 6.40196L17.9541 8.25002ZM19.135 5.58497C19.3139 5.3897 19.5269 5.2287 19.7636 5.10986C20.3798 4.81505 21.0271 4.59033 21.6934 4.43992C22.2044 4.31126 22.7209 4.21199 23.2401 4.13296C23.6417 4.07231 24.0488 4.03005 24.4532 3.98502C24.8943 3.9354 25.3363 3.92987 25.7765 3.88025C26.3334 3.81776 26.8931 3.8637 27.4509 3.84348C28.1796 3.82878 28.9065 3.85453 29.6335 3.90967C30.093 3.94367 30.5525 3.97308 31 4.03741C31.6828 4.13391 32.3674 4.23038 33.0383 4.39488C33.6849 4.53455 34.3156 4.73996 34.9204 5.00786C35.2386 5.14107 35.5249 5.34027 35.7603 5.59232C35.9212 5.77612 35.9212 5.86159 35.7603 6.04539C35.4664 6.35244 35.1044 6.58601 34.7035 6.72725C34.1739 6.9429 33.627 7.11354 33.0686 7.23731C32.668 7.32921 32.2627 7.41376 31.8537 7.47166C31.4861 7.52312 31.1268 7.58375 30.7611 7.61867C30.4982 7.6444 30.2363 7.67841 29.9735 7.70323C29.9173 7.71745 29.8602 7.72788 29.8026 7.73447C28.8106 7.8138 27.8147 7.8319 26.8205 7.78868C26.8018 7.793 26.7827 7.79518 26.7635 7.79513C26.2296 7.80983 25.6993 7.74182 25.1672 7.71792C24.7886 7.70138 24.4136 7.65175 24.0378 7.6104C23.5544 7.55618 23.0728 7.48634 22.594 7.39352C22.2384 7.32368 21.8809 7.25661 21.5317 7.16195C20.7849 7.00488 20.0716 6.71743 19.4245 6.3128C19.3146 6.23378 19.2151 6.14115 19.1286 6.03712C18.9732 5.86343 18.9732 5.76143 19.1332 5.5859L19.135 5.58497Z" fill="#006AFF"/>
<path d="M1.28906 48.3452V41.187H3.75488C4.31152 41.187 4.73633 41.2212 5.0293 41.2896C5.43945 41.384 5.78939 41.5549 6.0791 41.8022C6.45671 42.1213 6.73828 42.5298 6.92383 43.0278C7.11263 43.5226 7.20703 44.089 7.20703 44.7271C7.20703 45.2707 7.14355 45.7524 7.0166 46.1724C6.88965 46.5923 6.72689 46.9406 6.52832 47.2173C6.32975 47.4907 6.11165 47.7072 5.87402 47.8667C5.63965 48.0229 5.35482 48.1418 5.01953 48.2231C4.6875 48.3045 4.30501 48.3452 3.87207 48.3452H1.28906ZM2.23633 47.5005H3.76465C4.23665 47.5005 4.60612 47.4565 4.87305 47.3687C5.14323 47.2808 5.35807 47.1571 5.51758 46.9976C5.74219 46.7729 5.91634 46.4718 6.04004 46.0942C6.16699 45.7134 6.23047 45.2528 6.23047 44.7124C6.23047 43.9637 6.10677 43.3892 5.85938 42.9888C5.61523 42.5851 5.31738 42.3149 4.96582 42.1782C4.71191 42.0806 4.30339 42.0317 3.74023 42.0317H2.23633V47.5005ZM11.7871 47.7056C11.4616 47.9823 11.1475 48.1776 10.8447 48.2915C10.5452 48.4054 10.223 48.4624 9.87793 48.4624C9.30827 48.4624 8.87044 48.3241 8.56445 48.0474C8.25846 47.7674 8.10547 47.411 8.10547 46.978C8.10547 46.7241 8.16243 46.493 8.27637 46.2847C8.39355 46.0731 8.54492 45.9038 8.73047 45.7769C8.91927 45.6499 9.13086 45.5539 9.36523 45.4888C9.53776 45.4432 9.79818 45.3993 10.1465 45.3569C10.8561 45.2723 11.3786 45.1714 11.7139 45.0542C11.7171 44.9338 11.7188 44.8573 11.7188 44.8247C11.7188 44.4666 11.6357 44.2144 11.4697 44.0679C11.2451 43.8693 10.9115 43.77 10.4688 43.77C10.0553 43.77 9.74935 43.8433 9.55078 43.9897C9.35547 44.133 9.21061 44.3885 9.11621 44.7563L8.25684 44.6392C8.33496 44.2713 8.46354 43.9751 8.64258 43.7505C8.82161 43.5226 9.0804 43.3485 9.41895 43.228C9.75749 43.1043 10.1497 43.0425 10.5957 43.0425C11.0384 43.0425 11.3981 43.0946 11.6748 43.1987C11.9515 43.3029 12.1549 43.4347 12.2852 43.5942C12.4154 43.7505 12.5065 43.9491 12.5586 44.1899C12.5879 44.3397 12.6025 44.6099 12.6025 45.0005V46.1724C12.6025 46.9894 12.6204 47.507 12.6562 47.7251C12.6953 47.9399 12.7702 48.1466 12.8809 48.3452H11.9629C11.8717 48.1629 11.8132 47.9497 11.7871 47.7056ZM11.7139 45.7427C11.3949 45.8729 10.9163 45.9836 10.2783 46.0747C9.91699 46.1268 9.66146 46.1854 9.51172 46.2505C9.36198 46.3156 9.24642 46.4116 9.16504 46.5386C9.08366 46.6623 9.04297 46.8006 9.04297 46.9536C9.04297 47.188 9.13086 47.3833 9.30664 47.5396C9.48568 47.6958 9.74609 47.7739 10.0879 47.7739C10.4264 47.7739 10.7275 47.7007 10.9912 47.5542C11.2549 47.4045 11.4486 47.201 11.5723 46.9438C11.6667 46.7453 11.7139 46.4523 11.7139 46.0649V45.7427ZM15.8887 47.5591L16.0156 48.3354C15.7682 48.3875 15.5469 48.4136 15.3516 48.4136C15.0326 48.4136 14.7852 48.3631 14.6094 48.2622C14.4336 48.1613 14.3099 48.0295 14.2383 47.8667C14.1667 47.7007 14.1309 47.354 14.1309 46.8267V43.8433H13.4863V43.1597H14.1309V41.8755L15.0049 41.3481V43.1597H15.8887V43.8433H15.0049V46.8755C15.0049 47.1261 15.0195 47.2873 15.0488 47.3589C15.0814 47.4305 15.1318 47.4875 15.2002 47.5298C15.2718 47.5721 15.3727 47.5933 15.5029 47.5933C15.6006 47.5933 15.7292 47.5819 15.8887 47.5591ZM20.1367 47.7056C19.8112 47.9823 19.4971 48.1776 19.1943 48.2915C18.8949 48.4054 18.5726 48.4624 18.2275 48.4624C17.6579 48.4624 17.2201 48.3241 16.9141 48.0474C16.6081 47.7674 16.4551 47.411 16.4551 46.978C16.4551 46.7241 16.512 46.493 16.626 46.2847C16.7432 46.0731 16.8945 45.9038 17.0801 45.7769C17.2689 45.6499 17.4805 45.5539 17.7148 45.4888C17.8874 45.4432 18.1478 45.3993 18.4961 45.3569C19.2057 45.2723 19.7282 45.1714 20.0635 45.0542C20.0667 44.9338 20.0684 44.8573 20.0684 44.8247C20.0684 44.4666 19.9854 44.2144 19.8193 44.0679C19.5947 43.8693 19.2611 43.77 18.8184 43.77C18.4049 43.77 18.099 43.8433 17.9004 43.9897C17.7051 44.133 17.5602 44.3885 17.4658 44.7563L16.6064 44.6392C16.6846 44.2713 16.8132 43.9751 16.9922 43.7505C17.1712 43.5226 17.43 43.3485 17.7686 43.228C18.1071 43.1043 18.4993 43.0425 18.9453 43.0425C19.388 43.0425 19.7477 43.0946 20.0244 43.1987C20.3011 43.3029 20.5046 43.4347 20.6348 43.5942C20.765 43.7505 20.8561 43.9491 20.9082 44.1899C20.9375 44.3397 20.9521 44.6099 20.9521 45.0005V46.1724C20.9521 46.9894 20.9701 47.507 21.0059 47.7251C21.0449 47.9399 21.1198 48.1466 21.2305 48.3452H20.3125C20.2214 48.1629 20.1628 47.9497 20.1367 47.7056ZM20.0635 45.7427C19.7445 45.8729 19.266 45.9836 18.6279 46.0747C18.2666 46.1268 18.0111 46.1854 17.8613 46.2505C17.7116 46.3156 17.596 46.4116 17.5146 46.5386C17.4333 46.6623 17.3926 46.8006 17.3926 46.9536C17.3926 47.188 17.4805 47.3833 17.6562 47.5396C17.8353 47.6958 18.0957 47.7739 18.4375 47.7739C18.776 47.7739 19.0771 47.7007 19.3408 47.5542C19.6045 47.4045 19.7982 47.201 19.9219 46.9438C20.0163 46.7453 20.0635 46.4523 20.0635 46.0649V45.7427ZM30.3223 45.8354L31.2695 46.0747C31.071 46.8527 30.7129 47.4468 30.1953 47.8569C29.681 48.2638 29.0511 48.4673 28.3057 48.4673C27.5342 48.4673 26.9059 48.311 26.4209 47.9985C25.9391 47.6828 25.5713 47.2271 25.3174 46.6313C25.0667 46.0356 24.9414 45.396 24.9414 44.7124C24.9414 43.967 25.083 43.3175 25.3662 42.7642C25.6527 42.2075 26.0579 41.786 26.582 41.4995C27.1094 41.2098 27.6888 41.0649 28.3203 41.0649C29.0365 41.0649 29.6387 41.2472 30.127 41.6118C30.6152 41.9764 30.9554 42.4891 31.1475 43.1499L30.2148 43.3696C30.0488 42.8488 29.8079 42.4696 29.4922 42.2319C29.1764 41.9943 28.7793 41.8755 28.3008 41.8755C27.7507 41.8755 27.29 42.0073 26.9189 42.271C26.5511 42.5347 26.2923 42.8895 26.1426 43.3354C25.9928 43.7782 25.918 44.2355 25.918 44.7075C25.918 45.3162 26.0059 45.8485 26.1816 46.3042C26.3607 46.7567 26.6374 47.0952 27.0117 47.3198C27.3861 47.5444 27.7913 47.6567 28.2275 47.6567C28.7581 47.6567 29.2074 47.5037 29.5752 47.1978C29.943 46.8918 30.1921 46.4377 30.3223 45.8354ZM35.8789 46.6753L36.7871 46.7876C36.6439 47.3182 36.3786 47.73 35.9912 48.0229C35.6038 48.3159 35.109 48.4624 34.5068 48.4624C33.7484 48.4624 33.1462 48.2297 32.7002 47.7642C32.2575 47.2954 32.0361 46.6395 32.0361 45.7964C32.0361 44.924 32.2607 44.2469 32.71 43.7651C33.1592 43.2834 33.7419 43.0425 34.458 43.0425C35.1514 43.0425 35.7178 43.2785 36.1572 43.7505C36.5967 44.2225 36.8164 44.8866 36.8164 45.7427C36.8164 45.7948 36.8148 45.8729 36.8115 45.9771H32.9443C32.9769 46.5467 33.138 46.9829 33.4277 47.2856C33.7174 47.5884 34.0788 47.7397 34.5117 47.7397C34.834 47.7397 35.109 47.6551 35.3369 47.4858C35.5648 47.3166 35.7454 47.0464 35.8789 46.6753ZM32.9932 45.2544H35.8887C35.8496 44.8182 35.7389 44.491 35.5566 44.2729C35.2767 43.9344 34.9137 43.7651 34.4678 43.7651C34.0641 43.7651 33.724 43.9002 33.4473 44.1704C33.1738 44.4406 33.0225 44.8019 32.9932 45.2544ZM37.8955 48.3452V43.1597H38.6865V43.897C39.0674 43.3273 39.6175 43.0425 40.3369 43.0425C40.6494 43.0425 40.9359 43.0994 41.1963 43.2134C41.46 43.3241 41.6569 43.4705 41.7871 43.6528C41.9173 43.8351 42.0085 44.0516 42.0605 44.3022C42.0931 44.465 42.1094 44.7498 42.1094 45.1567V48.3452H41.2305V45.1909C41.2305 44.8328 41.1963 44.5659 41.1279 44.3901C41.0596 44.2111 40.9375 44.0695 40.7617 43.9653C40.5892 43.8579 40.3857 43.8042 40.1514 43.8042C39.777 43.8042 39.4531 43.923 39.1797 44.1606C38.9095 44.3983 38.7744 44.8491 38.7744 45.5132V48.3452H37.8955ZM45.3809 47.5591L45.5078 48.3354C45.2604 48.3875 45.0391 48.4136 44.8438 48.4136C44.5247 48.4136 44.2773 48.3631 44.1016 48.2622C43.9258 48.1613 43.8021 48.0295 43.7305 47.8667C43.6589 47.7007 43.623 47.354 43.623 46.8267V43.8433H42.9785V43.1597H43.623V41.8755L44.4971 41.3481V43.1597H45.3809V43.8433H44.4971V46.8755C44.4971 47.1261 44.5117 47.2873 44.541 47.3589C44.5736 47.4305 44.624 47.4875 44.6924 47.5298C44.764 47.5721 44.8649 47.5933 44.9951 47.5933C45.0928 47.5933 45.2214 47.5819 45.3809 47.5591ZM49.7949 46.6753L50.7031 46.7876C50.5599 47.3182 50.2946 47.73 49.9072 48.0229C49.5199 48.3159 49.0251 48.4624 48.4229 48.4624C47.6644 48.4624 47.0622 48.2297 46.6162 47.7642C46.1735 47.2954 45.9521 46.6395 45.9521 45.7964C45.9521 44.924 46.1768 44.2469 46.626 43.7651C47.0752 43.2834 47.6579 43.0425 48.374 43.0425C49.0674 43.0425 49.6338 43.2785 50.0732 43.7505C50.5127 44.2225 50.7324 44.8866 50.7324 45.7427C50.7324 45.7948 50.7308 45.8729 50.7275 45.9771H46.8604C46.8929 46.5467 47.054 46.9829 47.3438 47.2856C47.6335 47.5884 47.9948 47.7397 48.4277 47.7397C48.75 47.7397 49.0251 47.6551 49.2529 47.4858C49.4808 47.3166 49.6615 47.0464 49.7949 46.6753ZM46.9092 45.2544H49.8047C49.7656 44.8182 49.6549 44.491 49.4727 44.2729C49.1927 43.9344 48.8298 43.7651 48.3838 43.7651C47.9801 43.7651 47.64 43.9002 47.3633 44.1704C47.0898 44.4406 46.9385 44.8019 46.9092 45.2544ZM51.8018 48.3452V43.1597H52.5928V43.9458C52.7946 43.578 52.9801 43.3354 53.1494 43.2183C53.3219 43.1011 53.5107 43.0425 53.7158 43.0425C54.012 43.0425 54.3132 43.1369 54.6191 43.3257L54.3164 44.1411C54.1016 44.0142 53.8867 43.9507 53.6719 43.9507C53.4798 43.9507 53.3073 44.0093 53.1543 44.1265C53.0013 44.2404 52.8923 44.3999 52.8271 44.605C52.7295 44.9175 52.6807 45.2593 52.6807 45.6304V48.3452H51.8018ZM1.02051 62.3452V55.187H3.7207C4.19596 55.187 4.55892 55.2098 4.80957 55.2554C5.16113 55.314 5.45573 55.4263 5.69336 55.5923C5.93099 55.755 6.12142 55.9845 6.26465 56.2808C6.41113 56.577 6.48438 56.9025 6.48438 57.2573C6.48438 57.866 6.29069 58.382 5.90332 58.8052C5.51595 59.2251 4.81608 59.4351 3.80371 59.4351H1.96777V62.3452H1.02051ZM1.96777 58.5903H3.81836C4.43034 58.5903 4.86491 58.4764 5.12207 58.2485C5.37923 58.0207 5.50781 57.7 5.50781 57.2866C5.50781 56.9871 5.43132 56.7316 5.27832 56.52C5.12858 56.3052 4.93001 56.1636 4.68262 56.0952C4.52311 56.0529 4.22852 56.0317 3.79883 56.0317H1.96777V58.5903ZM7.25098 59.7524C7.25098 58.7922 7.5179 58.0809 8.05176 57.6187C8.49772 57.2345 9.04134 57.0425 9.68262 57.0425C10.3955 57.0425 10.9782 57.2769 11.4307 57.7456C11.8831 58.2111 12.1094 58.8556 12.1094 59.6792C12.1094 60.3465 12.0085 60.8722 11.8066 61.2563C11.6081 61.6372 11.3167 61.9334 10.9326 62.145C10.5518 62.3566 10.1351 62.4624 9.68262 62.4624C8.95671 62.4624 8.36914 62.2297 7.91992 61.7642C7.47396 61.2987 7.25098 60.6281 7.25098 59.7524ZM8.1543 59.7524C8.1543 60.4165 8.29915 60.9146 8.58887 61.2466C8.87858 61.5754 9.24316 61.7397 9.68262 61.7397C10.1188 61.7397 10.4818 61.5737 10.7715 61.2417C11.0612 60.9097 11.2061 60.4035 11.2061 59.7231C11.2061 59.0819 11.0596 58.5968 10.7666 58.2681C10.4769 57.936 10.1156 57.77 9.68262 57.77C9.24316 57.77 8.87858 57.9344 8.58887 58.2632C8.29915 58.592 8.1543 59.0884 8.1543 59.7524ZM12.793 60.7974L13.6621 60.6606C13.7109 61.009 13.846 61.2759 14.0674 61.4614C14.292 61.647 14.6045 61.7397 15.0049 61.7397C15.4085 61.7397 15.708 61.6584 15.9033 61.4956C16.0986 61.3296 16.1963 61.1359 16.1963 60.9146C16.1963 60.716 16.11 60.5597 15.9375 60.4458C15.8171 60.3677 15.5176 60.2684 15.0391 60.1479C14.3945 59.9852 13.9469 59.8452 13.6963 59.728C13.4489 59.6076 13.2601 59.4432 13.1299 59.2349C13.0029 59.0233 12.9395 58.7905 12.9395 58.5366C12.9395 58.3055 12.9915 58.0923 13.0957 57.897C13.2031 57.6984 13.348 57.534 13.5303 57.4038C13.667 57.3029 13.8525 57.2183 14.0869 57.1499C14.3245 57.0783 14.5785 57.0425 14.8486 57.0425C15.2555 57.0425 15.612 57.1011 15.918 57.2183C16.2272 57.3354 16.4551 57.495 16.6016 57.6968C16.748 57.8953 16.849 58.1623 16.9043 58.4976L16.0449 58.6147C16.0059 58.3478 15.8919 58.1395 15.7031 57.9897C15.5176 57.84 15.2539 57.7651 14.9121 57.7651C14.5085 57.7651 14.2204 57.8319 14.0479 57.9653C13.8753 58.0988 13.7891 58.255 13.7891 58.4341C13.7891 58.548 13.8249 58.6506 13.8965 58.7417C13.9681 58.8361 14.0804 58.9142 14.2334 58.9761C14.3213 59.0086 14.5801 59.0835 15.0098 59.2007C15.6315 59.3667 16.0645 59.5034 16.3086 59.6108C16.556 59.715 16.7497 59.868 16.8896 60.0698C17.0296 60.2716 17.0996 60.5223 17.0996 60.8218C17.0996 61.1147 17.0133 61.3914 16.8408 61.6519C16.6715 61.909 16.4258 62.1092 16.1035 62.2524C15.7812 62.3924 15.4167 62.4624 15.0098 62.4624C14.3359 62.4624 13.8216 62.3224 13.4668 62.0425C13.1152 61.7625 12.8906 61.3475 12.793 60.7974ZM20.0635 61.5591L20.1904 62.3354C19.943 62.3875 19.7217 62.4136 19.5264 62.4136C19.2074 62.4136 18.96 62.3631 18.7842 62.2622C18.6084 62.1613 18.4847 62.0295 18.4131 61.8667C18.3415 61.7007 18.3057 61.354 18.3057 60.8267V57.8433H17.6611V57.1597H18.3057V55.8755L19.1797 55.3481V57.1597H20.0635V57.8433H19.1797V60.8755C19.1797 61.1261 19.1943 61.2873 19.2236 61.3589C19.2562 61.4305 19.3066 61.4875 19.375 61.5298C19.4466 61.5721 19.5475 61.5933 19.6777 61.5933C19.7754 61.5933 19.904 61.5819 20.0635 61.5591ZM20.7666 62.7749L21.6211 62.9019C21.6569 63.1655 21.7562 63.3576 21.9189 63.478C22.137 63.6408 22.4349 63.7222 22.8125 63.7222C23.2194 63.7222 23.5335 63.6408 23.7549 63.478C23.9762 63.3153 24.126 63.0874 24.2041 62.7944C24.2497 62.6154 24.2708 62.2394 24.2676 61.6665C23.8835 62.119 23.4049 62.3452 22.832 62.3452C22.1191 62.3452 21.5674 62.0881 21.1768 61.5737C20.7861 61.0594 20.5908 60.4425 20.5908 59.7231C20.5908 59.2284 20.6803 58.7726 20.8594 58.356C21.0384 57.936 21.2972 57.6121 21.6357 57.3843C21.9775 57.1564 22.3779 57.0425 22.8369 57.0425C23.4489 57.0425 23.9535 57.2899 24.3506 57.7847V57.1597H25.1611V61.6421C25.1611 62.4494 25.0781 63.0207 24.9121 63.356C24.7493 63.6945 24.4889 63.9614 24.1309 64.1567C23.776 64.3521 23.3382 64.4497 22.8174 64.4497C22.1989 64.4497 21.6992 64.3097 21.3184 64.0298C20.9375 63.7531 20.7536 63.3348 20.7666 62.7749ZM21.4941 59.6597C21.4941 60.34 21.6292 60.8364 21.8994 61.1489C22.1696 61.4614 22.5081 61.6177 22.915 61.6177C23.3187 61.6177 23.6572 61.4631 23.9307 61.1538C24.2041 60.8413 24.3408 60.353 24.3408 59.689C24.3408 59.0542 24.1992 58.5757 23.916 58.2534C23.6361 57.9312 23.2975 57.77 22.9004 57.77C22.5098 57.77 22.1777 57.9295 21.9043 58.2485C21.6309 58.5643 21.4941 59.0347 21.4941 59.6597ZM26.4844 62.3452V57.1597H27.2754V57.9458C27.4772 57.578 27.6628 57.3354 27.832 57.2183C28.0046 57.1011 28.1934 57.0425 28.3984 57.0425C28.6947 57.0425 28.9958 57.1369 29.3018 57.3257L28.999 58.1411C28.7842 58.0142 28.5693 57.9507 28.3545 57.9507C28.1624 57.9507 27.9899 58.0093 27.8369 58.1265C27.6839 58.2404 27.5749 58.3999 27.5098 58.605C27.4121 58.9175 27.3633 59.2593 27.3633 59.6304V62.3452H26.4844ZM33.374 60.6753L34.2822 60.7876C34.139 61.3182 33.8737 61.73 33.4863 62.0229C33.099 62.3159 32.6042 62.4624 32.002 62.4624C31.2435 62.4624 30.6413 62.2297 30.1953 61.7642C29.7526 61.2954 29.5312 60.6395 29.5312 59.7964C29.5312 58.924 29.7559 58.2469 30.2051 57.7651C30.6543 57.2834 31.237 57.0425 31.9531 57.0425C32.6465 57.0425 33.2129 57.2785 33.6523 57.7505C34.0918 58.2225 34.3115 58.8866 34.3115 59.7427C34.3115 59.7948 34.3099 59.8729 34.3066 59.9771H30.4395C30.472 60.5467 30.6331 60.9829 30.9229 61.2856C31.2126 61.5884 31.5739 61.7397 32.0068 61.7397C32.3291 61.7397 32.6042 61.6551 32.832 61.4858C33.0599 61.3166 33.2406 61.0464 33.374 60.6753ZM30.4883 59.2544H33.3838C33.3447 58.8182 33.234 58.491 33.0518 58.2729C32.7718 57.9344 32.4089 57.7651 31.9629 57.7651C31.5592 57.7651 31.2191 57.9002 30.9424 58.1704C30.6689 58.4406 30.5176 58.8019 30.4883 59.2544ZM35.1807 60.0454L36.0742 59.9673C36.1165 60.3254 36.2142 60.62 36.3672 60.8511C36.5234 61.0789 36.7643 61.2645 37.0898 61.4077C37.4154 61.5477 37.7816 61.6177 38.1885 61.6177C38.5498 61.6177 38.8688 61.564 39.1455 61.4565C39.4222 61.3491 39.6273 61.2026 39.7607 61.0171C39.8975 60.8283 39.9658 60.6232 39.9658 60.4019C39.9658 60.1772 39.9007 59.9819 39.7705 59.8159C39.6403 59.6466 39.4255 59.505 39.126 59.3911C38.9339 59.3162 38.5091 59.2007 37.8516 59.0444C37.194 58.8849 36.7334 58.7352 36.4697 58.5952C36.1279 58.4162 35.8724 58.1948 35.7031 57.9312C35.5371 57.6642 35.4541 57.3664 35.4541 57.0376C35.4541 56.6763 35.5566 56.3394 35.7617 56.0269C35.9668 55.7111 36.2663 55.4718 36.6602 55.3091C37.054 55.1463 37.4919 55.0649 37.9736 55.0649C38.5042 55.0649 38.9714 55.1512 39.375 55.3237C39.7819 55.493 40.0944 55.7437 40.3125 56.0757C40.5306 56.4077 40.6478 56.7837 40.6641 57.2036L39.7559 57.272C39.707 56.8195 39.541 56.4777 39.2578 56.2466C38.9779 56.0155 38.5628 55.8999 38.0127 55.8999C37.4398 55.8999 37.0215 56.0057 36.7578 56.2173C36.4974 56.4256 36.3672 56.6779 36.3672 56.9741C36.3672 57.2313 36.46 57.4429 36.6455 57.6089C36.8278 57.7749 37.3031 57.9458 38.0713 58.1216C38.8428 58.2941 39.3717 58.4455 39.6582 58.5757C40.0749 58.7677 40.3825 59.0119 40.5811 59.3081C40.7796 59.6011 40.8789 59.9396 40.8789 60.3237C40.8789 60.7046 40.7699 61.0643 40.5518 61.4028C40.3337 61.7381 40.0195 62.0002 39.6094 62.189C39.2025 62.3745 38.7435 62.4673 38.2324 62.4673C37.5846 62.4673 37.041 62.3729 36.6016 62.1841C36.1654 61.9953 35.8219 61.7121 35.5713 61.3345C35.3239 60.9536 35.1937 60.5239 35.1807 60.0454ZM47.5977 61.5786C48.0371 61.8813 48.4424 62.1027 48.8135 62.2427L48.5352 62.9019C48.0208 62.7163 47.5081 62.4233 46.9971 62.0229C46.4665 62.3192 45.8805 62.4673 45.2393 62.4673C44.5915 62.4673 44.0039 62.311 43.4766 61.9985C42.9492 61.686 42.5423 61.2466 42.2559 60.6802C41.9727 60.1138 41.8311 59.4757 41.8311 58.7661C41.8311 58.0597 41.9743 57.4168 42.2607 56.8374C42.5472 56.258 42.9541 55.8169 43.4814 55.5142C44.012 55.2114 44.6045 55.0601 45.2588 55.0601C45.9196 55.0601 46.5153 55.2179 47.0459 55.5337C47.5765 55.8462 47.9801 56.2856 48.2568 56.8521C48.5368 57.4152 48.6768 58.0516 48.6768 58.7612C48.6768 59.3504 48.5872 59.881 48.4082 60.353C48.2292 60.8218 47.959 61.2303 47.5977 61.5786ZM45.5127 60.3677C46.0596 60.5207 46.5104 60.7485 46.8652 61.0513C47.4219 60.5435 47.7002 59.7801 47.7002 58.7612C47.7002 58.1818 47.6009 57.6756 47.4023 57.2427C47.207 56.8097 46.9189 56.4744 46.5381 56.2368C46.1605 55.9959 45.7357 55.8755 45.2637 55.8755C44.5573 55.8755 43.9714 56.118 43.5059 56.603C43.0404 57.0848 42.8076 57.8058 42.8076 58.7661C42.8076 59.6971 43.0371 60.4116 43.4961 60.9097C43.9583 61.4077 44.5475 61.6567 45.2637 61.6567C45.6022 61.6567 45.9212 61.5933 46.2207 61.4663C45.9245 61.2743 45.612 61.1375 45.2832 61.0562L45.5127 60.3677ZM49.917 62.3452V55.187H50.8643V61.5005H54.3896V62.3452H49.917Z" fill="#2A303D"/>
</svg>
