<svg width="90" height="56" viewBox="0 0 90 56" fill="none" xmlns="http://www.w3.org/2000/svg">
<rect x="30.4365" width="29.1267" height="22.4902" rx="1.09225" fill="#006AFF"/>
<rect x="31.1743" y="3.68701" width="27.6519" height="18.0659" rx="1.09225" fill="white"/>
<circle cx="57.1663" cy="1.84405" r="0.553039" fill="white"/>
<circle cx="55.3226" cy="1.84405" r="0.553039" fill="white"/>
<circle cx="53.4798" cy="1.84405" r="0.553039" fill="white"/>
<path d="M49.7906 18.7184L49.7967 18.7075C49.8852 18.5586 49.9256 18.386 49.9125 18.2133L49.9063 17.4711V16.42C49.9107 16.3434 49.9022 16.2666 49.8813 16.1928C49.8634 16.1379 49.8289 16.09 49.7827 16.0555C49.7364 16.0211 49.6805 16.0019 49.6229 16.0005C49.5632 16.0011 49.5056 16.0221 49.4597 16.0601C49.4138 16.0982 49.3823 16.1508 49.3706 16.2093C49.3622 16.2676 49.3414 16.3235 49.3097 16.3731C49.2779 16.4228 49.2358 16.465 49.1863 16.497C48.9771 16.6448 48.7453 16.7578 48.4999 16.8315C48.0456 16.9789 47.579 17.0856 47.1058 17.1504C46.8507 17.1904 46.5945 17.2206 46.3372 17.2411C46.0665 17.2619 45.7948 17.2803 45.5241 17.2883C45.1122 17.2978 44.6997 17.3025 44.2868 17.2723C43.9122 17.2449 43.5371 17.225 43.1639 17.1778C42.9357 17.1485 42.7089 17.114 42.4831 17.0724C42.2277 17.026 41.9753 16.9643 41.7272 16.8877C41.4566 16.8188 41.1978 16.7097 40.9595 16.5641C40.8878 16.53 40.8253 16.4792 40.7771 16.416C40.729 16.3528 40.6966 16.279 40.6827 16.2008C40.67 16.1437 40.6379 16.0928 40.5918 16.0567C40.5456 16.0207 40.4884 16.0018 40.43 16.0033C40.3722 16.0053 40.3166 16.0253 40.2708 16.0606C40.2251 16.0958 40.1915 16.1445 40.1748 16.1999C40.1558 16.2635 40.1477 16.33 40.1508 16.3964C40.1508 16.66 40.1508 16.9236 40.1508 17.1872L40.147 18.0003C40.147 18.0111 40.147 18.022 40.147 18.0333V18.1481H40.1503C40.1503 18.211 40.1503 18.2738 40.1545 18.3371C40.1565 18.4347 40.1774 18.5309 40.2159 18.6206C40.3431 18.8721 40.553 19.0723 40.8103 19.1875C41.1665 19.3674 41.5435 19.503 41.9327 19.5914C42.2441 19.6708 42.5615 19.726 42.8776 19.7742C43.1421 19.8144 43.4091 19.8437 43.676 19.8687C43.9514 19.8928 44.2287 19.906 44.5041 19.9122C44.9369 19.9221 45.3696 19.9263 45.8033 19.8971C46.1813 19.8711 46.5625 19.8498 46.9404 19.8026C47.2239 19.7657 47.5073 19.7213 47.787 19.6656C48.1305 19.599 48.4684 19.5059 48.7975 19.3873C49.1038 19.2916 49.3867 19.1333 49.6285 18.9224C49.6891 18.8664 49.7422 18.8029 49.7868 18.7335L49.7906 18.7184Z" fill="#006AFF"/>
<path d="M40.1939 14.268C40.2614 14.4438 40.3798 14.5955 40.5341 14.7036C40.7562 14.8645 41.0013 14.991 41.2611 15.0787C41.4029 15.1297 41.427 15.1732 41.3972 15.3177C41.3949 15.3303 41.3938 15.3431 41.3939 15.356C41.3939 15.5662 41.3911 15.7764 41.3939 15.9867C41.3953 16.0408 41.4139 16.0932 41.447 16.1361C41.4801 16.179 41.5261 16.2102 41.5781 16.2252C41.9758 16.3395 42.3804 16.428 42.7894 16.4903C43.0463 16.5347 43.3052 16.5663 43.5652 16.5847C43.8741 16.6046 44.1821 16.6414 44.493 16.6367C44.5185 16.6367 44.544 16.641 44.5695 16.6429C44.7384 16.655 44.9078 16.6567 45.0769 16.648C45.1339 16.6447 45.1875 16.62 45.227 16.5788C45.2665 16.5377 45.289 16.4831 45.29 16.426C45.2932 16.3966 45.2905 16.3668 45.2821 16.3385C45.2736 16.3101 45.2597 16.2837 45.2409 16.2608C45.2222 16.2379 45.1991 16.2189 45.173 16.205C45.1468 16.1911 45.1182 16.1826 45.0887 16.1799C44.9485 16.1661 44.8077 16.1601 44.6669 16.1619C44.3551 16.1501 44.0433 16.1435 43.7319 16.1147C43.4598 16.0895 43.1885 16.0589 42.9179 16.023C42.6208 15.9833 42.3302 15.9163 42.0369 15.8591C41.9107 15.8345 41.8862 15.8019 41.8866 15.6701C41.8866 15.5931 41.8866 15.5161 41.8866 15.4391C41.8895 15.3342 41.9429 15.2894 42.0444 15.3092C42.189 15.3371 42.3331 15.3673 42.4772 15.3966C42.7578 15.4547 43.0441 15.4911 43.3275 15.5204C43.6398 15.5539 43.954 15.5832 44.2691 15.5903C44.5346 15.596 44.8006 15.6196 45.0661 15.6134C45.3401 15.6073 45.6136 15.5931 45.8876 15.5879C46.0055 15.5875 46.1233 15.5809 46.2405 15.5681C46.5674 15.527 46.8967 15.5128 47.2222 15.4547C47.4674 15.4108 47.714 15.3744 47.9568 15.3168C48.0598 15.2922 48.1321 15.3281 48.1349 15.4113C48.1382 15.5242 48.1349 15.6371 48.1349 15.75C48.1364 15.7733 48.1298 15.7965 48.1161 15.8155C48.1024 15.8344 48.0825 15.848 48.0598 15.8539C47.9937 15.8737 47.9266 15.8903 47.859 15.904C47.6937 15.9371 47.5283 15.9668 47.363 15.9985C47.3189 16.0087 47.279 16.0324 47.2489 16.0662C47.2188 16.1001 47.1999 16.1424 47.1948 16.1874C47.1879 16.2284 47.1917 16.2706 47.2058 16.3097C47.22 16.3488 47.244 16.3835 47.2756 16.4106C47.3072 16.4377 47.3452 16.4561 47.386 16.4641C47.4268 16.4721 47.469 16.4694 47.5085 16.4562C47.7948 16.4052 48.0801 16.3471 48.3617 16.272C48.5653 16.2177 48.6277 16.1445 48.6277 15.9304C48.6277 15.7023 48.6277 15.4741 48.6277 15.2459C48.6234 15.2144 48.6306 15.1824 48.648 15.1557C48.6653 15.129 48.6916 15.1094 48.7221 15.1004C48.9711 15.0152 49.209 14.9008 49.4308 14.7593C49.5814 14.673 49.7052 14.5468 49.7886 14.3946C49.872 14.2423 49.9116 14.07 49.9032 13.8966C49.8938 13.6047 49.9032 13.3123 49.9032 13.0198C49.9032 12.7014 49.9032 12.3833 49.9032 12.0655C49.9038 12.0093 49.8964 11.9533 49.881 11.8992C49.8732 11.8653 49.8588 11.8333 49.8386 11.8051C49.8183 11.7768 49.7927 11.7528 49.7631 11.7345C49.7335 11.7163 49.7006 11.704 49.6663 11.6986C49.6319 11.6931 49.5969 11.6945 49.5631 11.7027C49.5034 11.7149 49.4503 11.7483 49.4136 11.7969C49.3769 11.8454 49.3591 11.9056 49.3637 11.9663C49.3667 12.01 49.3601 12.0538 49.3444 12.0946C49.3286 12.1354 49.3041 12.1722 49.2725 12.2025C49.1903 12.2835 49.0969 12.3522 48.9952 12.4066C48.7453 12.536 48.4818 12.6375 48.2096 12.709C47.9118 12.7917 47.6094 12.8567 47.3039 12.9036C47.1348 12.9301 46.9654 12.9537 46.7956 12.9745C46.6591 12.9915 46.5225 13.0057 46.386 13.0184C46.3246 13.0288 46.2282 13.0368 46.1111 13.0434C45.8881 13.0567 44.2318 13.0581 44.2318 13.0581C43.9861 13.0463 43.7414 13.0269 43.4971 13.0024C43.2782 12.9803 43.0606 12.9524 42.8442 12.9187C42.7049 12.897 42.565 12.8809 42.428 12.8507C42.135 12.7914 41.8456 12.7155 41.5611 12.6235C41.326 12.5523 41.103 12.4459 40.8997 12.3079C40.8367 12.2757 40.7837 12.2268 40.7464 12.1666C40.7092 12.1064 40.6892 12.0371 40.6886 11.9663C40.693 11.9121 40.6795 11.8579 40.6503 11.812C40.621 11.7661 40.5776 11.731 40.5265 11.7122C40.4716 11.6921 40.4117 11.6904 40.3557 11.7075C40.2998 11.7245 40.251 11.7593 40.2166 11.8066C40.1716 11.8663 40.1481 11.9394 40.15 12.014C40.15 12.1761 40.15 12.3377 40.15 12.4992V13.368C40.15 13.5834 40.15 13.7989 40.15 14.0143C40.1506 14.1007 40.1655 14.1864 40.1939 14.268Z" fill="#006AFF"/>
<path d="M40.1487 9.07584C40.1492 9.08418 40.1492 9.09254 40.1487 9.10088C40.1459 9.31395 40.1487 9.52606 40.1487 9.73959C40.1485 9.83147 40.1553 9.92323 40.169 10.0141C40.2108 10.2302 40.3346 10.4218 40.5144 10.5489C40.7525 10.7271 41.0187 10.8644 41.3019 10.9551C41.3323 10.9631 41.3587 10.9819 41.3761 11.008C41.3936 11.0341 41.4008 11.0658 41.3964 11.0969C41.3912 11.3199 41.3921 11.5433 41.3926 11.7668C41.3911 11.8211 41.4073 11.8744 41.4387 11.9187C41.4702 11.9631 41.5152 11.9959 41.5669 12.0124C41.6742 12.0455 41.7819 12.0786 41.8915 12.1069C42.1943 12.1787 42.5 12.2401 42.8071 12.2883C43.0721 12.3299 43.339 12.3644 43.6064 12.3828C43.9484 12.4041 44.2895 12.4466 44.633 12.4348C44.697 12.4339 44.7611 12.4371 44.8248 12.4442C44.9015 12.4516 44.9787 12.4516 45.0553 12.4442C45.12 12.4424 45.1813 12.415 45.2257 12.368C45.2701 12.321 45.2941 12.2583 45.2922 12.1936C45.2904 12.1289 45.263 12.0677 45.216 12.0232C45.169 11.9788 45.1063 11.9549 45.0416 11.9567C44.6136 11.9538 44.1861 11.9529 43.7595 11.9094C43.5738 11.8915 43.3877 11.8764 43.2025 11.8537C42.9266 11.8197 42.6507 11.7809 42.3786 11.7209C42.2439 11.6912 42.1079 11.6694 41.9756 11.6265C41.9283 11.6113 41.8891 11.5873 41.8872 11.532C41.8849 11.4375 41.8839 11.3473 41.8872 11.2551C41.8891 11.2398 41.894 11.225 41.9017 11.2117C41.9095 11.1983 41.9198 11.1867 41.9322 11.1775C41.9446 11.1683 41.9587 11.1617 41.9737 11.1582C41.9888 11.1546 42.0043 11.1542 42.0195 11.1569C42.1679 11.1951 42.319 11.2202 42.4688 11.2514C42.6937 11.2986 42.9214 11.3265 43.1482 11.3605C43.34 11.3898 43.5351 11.395 43.7288 11.4134C44.119 11.4502 44.5111 11.4606 44.9027 11.4691C45.1389 11.4753 45.3794 11.4611 45.6175 11.4569C45.7096 11.4569 45.8013 11.4502 45.8939 11.4436C46.2685 11.4158 46.6427 11.3926 47.0159 11.3402C47.2332 11.3099 47.4491 11.2721 47.6659 11.2367C47.7846 11.2059 47.9059 11.1863 48.0283 11.1781C48.0973 11.1781 48.1336 11.2112 48.1336 11.2816C48.1336 11.3662 48.1336 11.4507 48.1336 11.5353C48.1351 11.5613 48.1272 11.587 48.1114 11.6077C48.0957 11.6285 48.0731 11.643 48.0477 11.6487C47.9744 11.6704 47.8989 11.685 47.8237 11.7002C47.6763 11.7304 47.5271 11.7531 47.382 11.7909C47.3275 11.8063 47.2805 11.8412 47.2499 11.8888C47.2193 11.9365 47.2071 11.9938 47.2157 12.0498C47.2263 12.1127 47.2613 12.1689 47.3132 12.206C47.3651 12.2431 47.4296 12.2581 47.4926 12.2477C47.785 12.2005 48.0736 12.1362 48.3604 12.063C48.5612 12.012 48.6254 11.9359 48.6259 11.729C48.6264 11.5221 48.6259 11.3132 48.6259 11.1054C48.622 11.0723 48.6305 11.0389 48.6496 11.0116C48.6688 10.9843 48.6974 10.9651 48.7298 10.9575C49.0233 10.8644 49.2992 10.7231 49.5462 10.5394C49.6485 10.4678 49.7333 10.374 49.7943 10.265C49.8553 10.1561 49.891 10.0348 49.8986 9.91014C49.9126 9.74008 49.914 9.56923 49.9029 9.39897V8.48342C49.9071 8.40452 49.9029 8.32421 49.9029 8.24437V8.17446C49.9029 8.06816 49.9071 7.96186 49.9029 7.85556C49.899 7.75594 49.8782 7.65771 49.8415 7.56503C49.7615 7.39188 49.6347 7.2446 49.4753 7.13985C49.2381 6.97816 48.9785 6.85209 48.7048 6.76568C48.599 6.72741 48.4903 6.69717 48.3821 6.66599C48.274 6.63481 48.1714 6.60269 48.0637 6.58285C47.956 6.56301 47.862 6.52664 47.7557 6.51294C47.5885 6.49121 47.4217 6.45718 47.2554 6.42789C46.963 6.3764 46.6672 6.3542 46.3734 6.31925C46.1069 6.28712 45.8367 6.28334 45.5703 6.272C45.1711 6.25877 44.7705 6.25404 44.3703 6.27955C43.9546 6.30601 43.5388 6.3268 43.125 6.38112C42.8888 6.41419 42.6488 6.44585 42.4126 6.48979C42.1646 6.53703 41.9184 6.59183 41.6751 6.66128C41.3151 6.75266 40.9702 6.89588 40.6514 7.08646C40.4935 7.16869 40.3622 7.29421 40.273 7.44832C40.1838 7.60243 40.1404 7.77877 40.1478 7.95667C40.1506 8.01289 40.1506 8.06958 40.1501 8.1258L40.1487 9.07584ZM40.7558 7.70581C40.8478 7.60543 40.9573 7.52266 41.0789 7.46157C41.3957 7.31001 41.7285 7.19449 42.071 7.11717C42.3337 7.05103 42.5992 7 42.8661 6.95937C43.0726 6.92819 43.2818 6.90647 43.4897 6.88332C43.7165 6.85781 43.9437 6.85497 44.17 6.82946C44.4563 6.79733 44.744 6.82095 45.0308 6.81056C45.4054 6.803 45.7791 6.81624 46.1528 6.84458C46.389 6.86206 46.6252 6.87718 46.8553 6.91025C47.2063 6.95986 47.5582 7.00945 47.9031 7.09401C48.2355 7.16581 48.5597 7.27141 48.8706 7.40913C49.0342 7.47761 49.1814 7.58002 49.3024 7.70959C49.3851 7.80407 49.3851 7.84801 49.3024 7.9425C49.1513 8.10035 48.9652 8.22042 48.7591 8.29303C48.4869 8.40388 48.2057 8.4916 47.9187 8.55523C47.7127 8.60247 47.5044 8.64594 47.2941 8.6757C47.1052 8.70216 46.9205 8.73333 46.7324 8.75128C46.5973 8.76451 46.4627 8.78199 46.3276 8.79475C46.2987 8.80206 46.2693 8.80742 46.2397 8.81081C45.7297 8.85159 45.2178 8.86089 44.7067 8.83868C44.6971 8.8409 44.6872 8.84202 44.6774 8.84199C44.4029 8.84955 44.1303 8.81458 43.8568 8.8023C43.6621 8.7938 43.4694 8.76828 43.2762 8.74702C43.0277 8.71915 42.7801 8.68325 42.534 8.63554C42.3512 8.59963 42.1674 8.56515 41.9879 8.51649C41.6039 8.43575 41.2373 8.28797 40.9046 8.07997C40.8481 8.03934 40.797 7.99173 40.7525 7.93825C40.6726 7.84896 40.6726 7.79652 40.7548 7.70629L40.7558 7.70581Z" fill="#006AFF"/>
<path d="M7.37793 39.4902V32.332H9.84375C10.4004 32.332 10.8252 32.3662 11.1182 32.4346C11.5283 32.529 11.8783 32.6999 12.168 32.9473C12.5456 33.2663 12.8271 33.6748 13.0127 34.1729C13.2015 34.6676 13.2959 35.234 13.2959 35.8721C13.2959 36.4157 13.2324 36.8975 13.1055 37.3174C12.9785 37.7373 12.8158 38.0856 12.6172 38.3623C12.4186 38.6357 12.2005 38.8522 11.9629 39.0117C11.7285 39.168 11.4437 39.2868 11.1084 39.3682C10.7764 39.4495 10.3939 39.4902 9.96094 39.4902H7.37793ZM8.3252 38.6455H9.85352C10.3255 38.6455 10.695 38.6016 10.9619 38.5137C11.2321 38.4258 11.4469 38.3021 11.6064 38.1426C11.8311 37.918 12.0052 37.6169 12.1289 37.2393C12.2559 36.8584 12.3193 36.3978 12.3193 35.8574C12.3193 35.1087 12.1956 34.5342 11.9482 34.1338C11.7041 33.7301 11.4062 33.46 11.0547 33.3232C10.8008 33.2256 10.3923 33.1768 9.8291 33.1768H8.3252V38.6455ZM17.876 38.8506C17.5505 39.1273 17.2363 39.3226 16.9336 39.4365C16.6341 39.5505 16.3118 39.6074 15.9668 39.6074C15.3971 39.6074 14.9593 39.4691 14.6533 39.1924C14.3473 38.9124 14.1943 38.556 14.1943 38.123C14.1943 37.8691 14.2513 37.638 14.3652 37.4297C14.4824 37.2181 14.6338 37.0488 14.8193 36.9219C15.0081 36.7949 15.2197 36.6989 15.4541 36.6338C15.6266 36.5882 15.887 36.5443 16.2354 36.502C16.945 36.4173 17.4674 36.3164 17.8027 36.1992C17.806 36.0788 17.8076 36.0023 17.8076 35.9697C17.8076 35.6117 17.7246 35.3594 17.5586 35.2129C17.334 35.0143 17.0003 34.915 16.5576 34.915C16.1442 34.915 15.8382 34.9883 15.6396 35.1348C15.4443 35.278 15.2995 35.5335 15.2051 35.9014L14.3457 35.7842C14.4238 35.4163 14.5524 35.1201 14.7314 34.8955C14.9105 34.6676 15.1693 34.4935 15.5078 34.373C15.8464 34.2493 16.2386 34.1875 16.6846 34.1875C17.1273 34.1875 17.487 34.2396 17.7637 34.3438C18.0404 34.4479 18.2438 34.5798 18.374 34.7393C18.5042 34.8955 18.5954 35.0941 18.6475 35.335C18.6768 35.4847 18.6914 35.7549 18.6914 36.1455V37.3174C18.6914 38.1344 18.7093 38.652 18.7451 38.8701C18.7842 39.085 18.859 39.2917 18.9697 39.4902H18.0518C17.9606 39.3079 17.902 39.0947 17.876 38.8506ZM17.8027 36.8877C17.4837 37.0179 17.0052 37.1286 16.3672 37.2197C16.0059 37.2718 15.7503 37.3304 15.6006 37.3955C15.4508 37.4606 15.3353 37.5566 15.2539 37.6836C15.1725 37.8073 15.1318 37.9456 15.1318 38.0986C15.1318 38.333 15.2197 38.5283 15.3955 38.6846C15.5745 38.8408 15.835 38.9189 16.1768 38.9189C16.5153 38.9189 16.8164 38.8457 17.0801 38.6992C17.3438 38.5495 17.5374 38.346 17.6611 38.0889C17.7555 37.8903 17.8027 37.5973 17.8027 37.21V36.8877ZM21.9775 38.7041L22.1045 39.4805C21.8571 39.5326 21.6357 39.5586 21.4404 39.5586C21.1214 39.5586 20.874 39.5081 20.6982 39.4072C20.5225 39.3063 20.3988 39.1745 20.3271 39.0117C20.2555 38.8457 20.2197 38.499 20.2197 37.9717V34.9883H19.5752V34.3047H20.2197V33.0205L21.0938 32.4932V34.3047H21.9775V34.9883H21.0938V38.0205C21.0938 38.2712 21.1084 38.4323 21.1377 38.5039C21.1702 38.5755 21.2207 38.6325 21.2891 38.6748C21.3607 38.7171 21.4616 38.7383 21.5918 38.7383C21.6895 38.7383 21.818 38.7269 21.9775 38.7041ZM26.2256 38.8506C25.9001 39.1273 25.5859 39.3226 25.2832 39.4365C24.9837 39.5505 24.6615 39.6074 24.3164 39.6074C23.7467 39.6074 23.3089 39.4691 23.0029 39.1924C22.6969 38.9124 22.5439 38.556 22.5439 38.123C22.5439 37.8691 22.6009 37.638 22.7148 37.4297C22.832 37.2181 22.9834 37.0488 23.1689 36.9219C23.3577 36.7949 23.5693 36.6989 23.8037 36.6338C23.9762 36.5882 24.2367 36.5443 24.585 36.502C25.2946 36.4173 25.8171 36.3164 26.1523 36.1992C26.1556 36.0788 26.1572 36.0023 26.1572 35.9697C26.1572 35.6117 26.0742 35.3594 25.9082 35.2129C25.6836 35.0143 25.3499 34.915 24.9072 34.915C24.4938 34.915 24.1878 34.9883 23.9893 35.1348C23.7939 35.278 23.6491 35.5335 23.5547 35.9014L22.6953 35.7842C22.7734 35.4163 22.902 35.1201 23.0811 34.8955C23.2601 34.6676 23.5189 34.4935 23.8574 34.373C24.196 34.2493 24.5882 34.1875 25.0342 34.1875C25.4769 34.1875 25.8366 34.2396 26.1133 34.3438C26.39 34.4479 26.5934 34.5798 26.7236 34.7393C26.8538 34.8955 26.945 35.0941 26.9971 35.335C27.0264 35.4847 27.041 35.7549 27.041 36.1455V37.3174C27.041 38.1344 27.0589 38.652 27.0947 38.8701C27.1338 39.085 27.2087 39.2917 27.3193 39.4902H26.4014C26.3102 39.3079 26.2516 39.0947 26.2256 38.8506ZM26.1523 36.8877C25.8333 37.0179 25.3548 37.1286 24.7168 37.2197C24.3555 37.2718 24.0999 37.3304 23.9502 37.3955C23.8005 37.4606 23.6849 37.5566 23.6035 37.6836C23.5221 37.8073 23.4814 37.9456 23.4814 38.0986C23.4814 38.333 23.5693 38.5283 23.7451 38.6846C23.9242 38.8408 24.1846 38.9189 24.5264 38.9189C24.8649 38.9189 25.166 38.8457 25.4297 38.6992C25.6934 38.5495 25.887 38.346 26.0107 38.0889C26.1051 37.8903 26.1523 37.5973 26.1523 37.21V36.8877ZM36.4111 36.9805L37.3584 37.2197C37.1598 37.9977 36.8018 38.5918 36.2842 39.002C35.7699 39.4089 35.14 39.6123 34.3945 39.6123C33.623 39.6123 32.9948 39.4561 32.5098 39.1436C32.028 38.8278 31.6602 38.3721 31.4062 37.7764C31.1556 37.1807 31.0303 36.541 31.0303 35.8574C31.0303 35.112 31.1719 34.4626 31.4551 33.9092C31.7415 33.3525 32.1468 32.931 32.6709 32.6445C33.1982 32.3548 33.7777 32.21 34.4092 32.21C35.1253 32.21 35.7275 32.3923 36.2158 32.7568C36.7041 33.1214 37.0443 33.6341 37.2363 34.2949L36.3037 34.5146C36.1377 33.9938 35.8968 33.6146 35.5811 33.377C35.2653 33.1393 34.8682 33.0205 34.3896 33.0205C33.8395 33.0205 33.3789 33.1523 33.0078 33.416C32.64 33.6797 32.3812 34.0345 32.2314 34.4805C32.0817 34.9232 32.0068 35.3805 32.0068 35.8525C32.0068 36.4613 32.0947 36.9935 32.2705 37.4492C32.4495 37.9017 32.7262 38.2402 33.1006 38.4648C33.4749 38.6895 33.8802 38.8018 34.3164 38.8018C34.847 38.8018 35.2962 38.6488 35.6641 38.3428C36.0319 38.0368 36.2809 37.5827 36.4111 36.9805ZM41.9678 37.8203L42.876 37.9326C42.7327 38.4632 42.4674 38.875 42.0801 39.168C41.6927 39.4609 41.1979 39.6074 40.5957 39.6074C39.8372 39.6074 39.235 39.3747 38.7891 38.9092C38.3464 38.4404 38.125 37.7845 38.125 36.9414C38.125 36.069 38.3496 35.3919 38.7988 34.9102C39.248 34.4284 39.8307 34.1875 40.5469 34.1875C41.2402 34.1875 41.8066 34.4235 42.2461 34.8955C42.6855 35.3675 42.9053 36.0316 42.9053 36.8877C42.9053 36.9398 42.9036 37.0179 42.9004 37.1221H39.0332C39.0658 37.6917 39.2269 38.1279 39.5166 38.4307C39.8063 38.7334 40.1676 38.8848 40.6006 38.8848C40.9229 38.8848 41.1979 38.8001 41.4258 38.6309C41.6536 38.4616 41.8343 38.1914 41.9678 37.8203ZM39.082 36.3994H41.9775C41.9385 35.9632 41.8278 35.6361 41.6455 35.418C41.3656 35.0794 41.0026 34.9102 40.5566 34.9102C40.153 34.9102 39.8128 35.0452 39.5361 35.3154C39.2627 35.5856 39.1113 35.9469 39.082 36.3994ZM43.9844 39.4902V34.3047H44.7754V35.042C45.1562 34.4723 45.7064 34.1875 46.4258 34.1875C46.7383 34.1875 47.0247 34.2445 47.2852 34.3584C47.5488 34.4691 47.7458 34.6156 47.876 34.7979C48.0062 34.9801 48.0973 35.1966 48.1494 35.4473C48.182 35.61 48.1982 35.8949 48.1982 36.3018V39.4902H47.3193V36.3359C47.3193 35.9779 47.2852 35.7109 47.2168 35.5352C47.1484 35.3561 47.0264 35.2145 46.8506 35.1104C46.6781 35.0029 46.4746 34.9492 46.2402 34.9492C45.8659 34.9492 45.542 35.068 45.2686 35.3057C44.9984 35.5433 44.8633 35.9941 44.8633 36.6582V39.4902H43.9844ZM51.4697 38.7041L51.5967 39.4805C51.3493 39.5326 51.1279 39.5586 50.9326 39.5586C50.6136 39.5586 50.3662 39.5081 50.1904 39.4072C50.0146 39.3063 49.891 39.1745 49.8193 39.0117C49.7477 38.8457 49.7119 38.499 49.7119 37.9717V34.9883H49.0674V34.3047H49.7119V33.0205L50.5859 32.4932V34.3047H51.4697V34.9883H50.5859V38.0205C50.5859 38.2712 50.6006 38.4323 50.6299 38.5039C50.6624 38.5755 50.7129 38.6325 50.7812 38.6748C50.8529 38.7171 50.9538 38.7383 51.084 38.7383C51.1816 38.7383 51.3102 38.7269 51.4697 38.7041ZM55.8838 37.8203L56.792 37.9326C56.6488 38.4632 56.3835 38.875 55.9961 39.168C55.6087 39.4609 55.1139 39.6074 54.5117 39.6074C53.7533 39.6074 53.151 39.3747 52.7051 38.9092C52.2624 38.4404 52.041 37.7845 52.041 36.9414C52.041 36.069 52.2656 35.3919 52.7148 34.9102C53.1641 34.4284 53.7467 34.1875 54.4629 34.1875C55.1562 34.1875 55.7227 34.4235 56.1621 34.8955C56.6016 35.3675 56.8213 36.0316 56.8213 36.8877C56.8213 36.9398 56.8197 37.0179 56.8164 37.1221H52.9492C52.9818 37.6917 53.1429 38.1279 53.4326 38.4307C53.7223 38.7334 54.0837 38.8848 54.5166 38.8848C54.8389 38.8848 55.1139 38.8001 55.3418 38.6309C55.5697 38.4616 55.7503 38.1914 55.8838 37.8203ZM52.998 36.3994H55.8936C55.8545 35.9632 55.7438 35.6361 55.5615 35.418C55.2816 35.0794 54.9186 34.9102 54.4727 34.9102C54.069 34.9102 53.7288 35.0452 53.4521 35.3154C53.1787 35.5856 53.0273 35.9469 52.998 36.3994ZM57.8906 39.4902V34.3047H58.6816V35.0908C58.8835 34.723 59.069 34.4805 59.2383 34.3633C59.4108 34.2461 59.5996 34.1875 59.8047 34.1875C60.1009 34.1875 60.402 34.2819 60.708 34.4707L60.4053 35.2861C60.1904 35.1592 59.9756 35.0957 59.7607 35.0957C59.5687 35.0957 59.3962 35.1543 59.2432 35.2715C59.0902 35.3854 58.9811 35.5449 58.916 35.75C58.8184 36.0625 58.7695 36.4043 58.7695 36.7754V39.4902H57.8906ZM62.793 39.4902L65.542 32.332H66.5625L69.4922 39.4902H68.4131L67.5781 37.3223H64.585L63.7988 39.4902H62.793ZM64.8584 36.5508H67.2852L66.5381 34.5684C66.3102 33.9661 66.141 33.4714 66.0303 33.084C65.9391 33.543 65.8105 33.9987 65.6445 34.4512L64.8584 36.5508ZM70.1367 41.4775V34.3047H70.9375V34.9785C71.1263 34.7148 71.3395 34.5179 71.5771 34.3877C71.8148 34.2542 72.1029 34.1875 72.4414 34.1875C72.8841 34.1875 73.2747 34.3014 73.6133 34.5293C73.9518 34.7572 74.2074 35.0794 74.3799 35.4961C74.5524 35.9095 74.6387 36.3636 74.6387 36.8584C74.6387 37.389 74.5426 37.8675 74.3506 38.2939C74.1618 38.7171 73.8851 39.0426 73.5205 39.2705C73.1592 39.4951 72.7783 39.6074 72.3779 39.6074C72.085 39.6074 71.8213 39.5456 71.5869 39.4219C71.3558 39.2982 71.1654 39.1419 71.0156 38.9531V41.4775H70.1367ZM70.9326 36.9268C70.9326 37.5941 71.0677 38.0872 71.3379 38.4062C71.6081 38.7253 71.9352 38.8848 72.3193 38.8848C72.71 38.8848 73.0436 38.7204 73.3203 38.3916C73.6003 38.0596 73.7402 37.5469 73.7402 36.8535C73.7402 36.1927 73.6035 35.6979 73.3301 35.3691C73.0599 35.0404 72.736 34.876 72.3584 34.876C71.984 34.876 71.652 35.0518 71.3623 35.4033C71.0758 35.7516 70.9326 36.2594 70.9326 36.9268ZM75.7031 41.4775V34.3047H76.5039V34.9785C76.6927 34.7148 76.9059 34.5179 77.1436 34.3877C77.3812 34.2542 77.6693 34.1875 78.0078 34.1875C78.4505 34.1875 78.8411 34.3014 79.1797 34.5293C79.5182 34.7572 79.7738 35.0794 79.9463 35.4961C80.1188 35.9095 80.2051 36.3636 80.2051 36.8584C80.2051 37.389 80.109 37.8675 79.917 38.2939C79.7282 38.7171 79.4515 39.0426 79.0869 39.2705C78.7256 39.4951 78.3447 39.6074 77.9443 39.6074C77.6514 39.6074 77.3877 39.5456 77.1533 39.4219C76.9222 39.2982 76.7318 39.1419 76.582 38.9531V41.4775H75.7031ZM76.499 36.9268C76.499 37.5941 76.6341 38.0872 76.9043 38.4062C77.1745 38.7253 77.5016 38.8848 77.8857 38.8848C78.2764 38.8848 78.61 38.7204 78.8867 38.3916C79.1667 38.0596 79.3066 37.5469 79.3066 36.8535C79.3066 36.1927 79.1699 35.6979 78.8965 35.3691C78.6263 35.0404 78.3024 34.876 77.9248 34.876C77.5505 34.876 77.2184 35.0518 76.9287 35.4033C76.6423 35.7516 76.499 36.2594 76.499 36.9268ZM30.7178 50.1904L31.6113 50.1123C31.6536 50.4704 31.7513 50.765 31.9043 50.9961C32.0605 51.224 32.3014 51.4095 32.627 51.5527C32.9525 51.6927 33.3187 51.7627 33.7256 51.7627C34.0869 51.7627 34.4059 51.709 34.6826 51.6016C34.9593 51.4941 35.1644 51.3477 35.2979 51.1621C35.4346 50.9733 35.5029 50.7682 35.5029 50.5469C35.5029 50.3223 35.4378 50.127 35.3076 49.9609C35.1774 49.7917 34.9626 49.6501 34.6631 49.5361C34.471 49.4613 34.0462 49.3457 33.3887 49.1895C32.7311 49.0299 32.2705 48.8802 32.0068 48.7402C31.665 48.5612 31.4095 48.3398 31.2402 48.0762C31.0742 47.8092 30.9912 47.5114 30.9912 47.1826C30.9912 46.8213 31.0938 46.4844 31.2988 46.1719C31.5039 45.8561 31.8034 45.6169 32.1973 45.4541C32.5911 45.2913 33.029 45.21 33.5107 45.21C34.0413 45.21 34.5085 45.2962 34.9121 45.4688C35.319 45.638 35.6315 45.8887 35.8496 46.2207C36.0677 46.5527 36.1849 46.9287 36.2012 47.3486L35.293 47.417C35.2441 46.9645 35.0781 46.6227 34.7949 46.3916C34.515 46.1605 34.0999 46.0449 33.5498 46.0449C32.9769 46.0449 32.5586 46.1507 32.2949 46.3623C32.0345 46.5706 31.9043 46.8229 31.9043 47.1191C31.9043 47.3763 31.9971 47.5879 32.1826 47.7539C32.3649 47.9199 32.8402 48.0908 33.6084 48.2666C34.3799 48.4391 34.9089 48.5905 35.1953 48.7207C35.612 48.9128 35.9196 49.1569 36.1182 49.4531C36.3167 49.7461 36.416 50.0846 36.416 50.4688C36.416 50.8496 36.307 51.2093 36.0889 51.5479C35.8708 51.8831 35.5566 52.1452 35.1465 52.334C34.7396 52.5195 34.2806 52.6123 33.7695 52.6123C33.1217 52.6123 32.5781 52.5179 32.1387 52.3291C31.7025 52.1403 31.359 51.8571 31.1084 51.4795C30.861 51.0986 30.7308 50.6689 30.7178 50.1904ZM41.1475 50.8203L42.0557 50.9326C41.9124 51.4632 41.6471 51.875 41.2598 52.168C40.8724 52.4609 40.3776 52.6074 39.7754 52.6074C39.0169 52.6074 38.4147 52.3747 37.9688 51.9092C37.526 51.4404 37.3047 50.7845 37.3047 49.9414C37.3047 49.069 37.5293 48.3919 37.9785 47.9102C38.4277 47.4284 39.0104 47.1875 39.7266 47.1875C40.4199 47.1875 40.9863 47.4235 41.4258 47.8955C41.8652 48.3675 42.085 49.0316 42.085 49.8877C42.085 49.9398 42.0833 50.0179 42.0801 50.1221H38.2129C38.2454 50.6917 38.4066 51.1279 38.6963 51.4307C38.986 51.7334 39.3473 51.8848 39.7803 51.8848C40.1025 51.8848 40.3776 51.8001 40.6055 51.6309C40.8333 51.4616 41.014 51.1914 41.1475 50.8203ZM38.2617 49.3994H41.1572C41.1182 48.9632 41.0075 48.6361 40.8252 48.418C40.5452 48.0794 40.1823 47.9102 39.7363 47.9102C39.3327 47.9102 38.9925 48.0452 38.7158 48.3154C38.4424 48.5856 38.291 48.9469 38.2617 49.3994ZM43.1543 52.4902V47.3047H43.9453V48.0908C44.1471 47.723 44.3327 47.4805 44.502 47.3633C44.6745 47.2461 44.8633 47.1875 45.0684 47.1875C45.3646 47.1875 45.6657 47.2819 45.9717 47.4707L45.6689 48.2861C45.4541 48.1592 45.2393 48.0957 45.0244 48.0957C44.8324 48.0957 44.6598 48.1543 44.5068 48.2715C44.3538 48.3854 44.2448 48.5449 44.1797 48.75C44.082 49.0625 44.0332 49.4043 44.0332 49.7754V52.4902H43.1543ZM47.9346 52.4902L45.9619 47.3047H46.8896L48.0029 50.4102C48.1234 50.7454 48.234 51.0938 48.335 51.4551C48.4131 51.1816 48.5221 50.8529 48.6621 50.4688L49.8145 47.3047H50.7178L48.7549 52.4902H47.9346ZM55.0439 50.8203L55.9521 50.9326C55.8089 51.4632 55.5436 51.875 55.1562 52.168C54.7689 52.4609 54.2741 52.6074 53.6719 52.6074C52.9134 52.6074 52.3112 52.3747 51.8652 51.9092C51.4225 51.4404 51.2012 50.7845 51.2012 49.9414C51.2012 49.069 51.4258 48.3919 51.875 47.9102C52.3242 47.4284 52.9069 47.1875 53.623 47.1875C54.3164 47.1875 54.8828 47.4235 55.3223 47.8955C55.7617 48.3675 55.9814 49.0316 55.9814 49.8877C55.9814 49.9398 55.9798 50.0179 55.9766 50.1221H52.1094C52.1419 50.6917 52.3031 51.1279 52.5928 51.4307C52.8825 51.7334 53.2438 51.8848 53.6768 51.8848C53.999 51.8848 54.2741 51.8001 54.502 51.6309C54.7298 51.4616 54.9105 51.1914 55.0439 50.8203ZM52.1582 49.3994H55.0537C55.0146 48.9632 54.904 48.6361 54.7217 48.418C54.4417 48.0794 54.0788 47.9102 53.6328 47.9102C53.2292 47.9102 52.889 48.0452 52.6123 48.3154C52.3389 48.5856 52.1875 48.9469 52.1582 49.3994ZM57.0508 52.4902V47.3047H57.8418V48.0908C58.0436 47.723 58.2292 47.4805 58.3984 47.3633C58.571 47.2461 58.7598 47.1875 58.9648 47.1875C59.2611 47.1875 59.5622 47.2819 59.8682 47.4707L59.5654 48.2861C59.3506 48.1592 59.1357 48.0957 58.9209 48.0957C58.7288 48.0957 58.5563 48.1543 58.4033 48.2715C58.2503 48.3854 58.1413 48.5449 58.0762 48.75C57.9785 49.0625 57.9297 49.4043 57.9297 49.7754V52.4902H57.0508Z" fill="#2A303D"/>
</svg>
