<svg width="91" height="67" viewBox="0 0 91 67" fill="none" xmlns="http://www.w3.org/2000/svg">
<path d="M52.9096 29.4629L52.9192 29.4459C53.0578 29.2125 53.1211 28.9422 53.1005 28.6716L53.0909 27.5086V25.8615C53.0978 25.7414 53.0845 25.6211 53.0517 25.5054C53.0237 25.4195 52.9697 25.3443 52.8972 25.2903C52.8246 25.2364 52.7371 25.2062 52.6468 25.2041C52.5533 25.205 52.4631 25.238 52.3911 25.2976C52.3191 25.3572 52.2698 25.4397 52.2515 25.5313C52.2383 25.6227 52.2058 25.7103 52.156 25.788C52.1062 25.8658 52.0403 25.932 51.9628 25.9821C51.6348 26.2137 51.2716 26.3907 50.8871 26.5062C50.1752 26.7372 49.4441 26.9045 48.7026 27.0059C48.3028 27.0686 47.9014 27.116 47.4982 27.1481C47.074 27.1806 46.6483 27.2095 46.2241 27.2221C45.5786 27.2369 44.9324 27.2443 44.2854 27.1969C43.6983 27.154 43.1105 27.1229 42.5257 27.0489C42.1682 27.003 41.8128 26.9489 41.459 26.8838C41.0588 26.811 40.6633 26.7143 40.2746 26.5944C39.8505 26.4863 39.445 26.3154 39.0716 26.0873C38.9592 26.0338 38.8612 25.9542 38.7857 25.8552C38.7103 25.7562 38.6596 25.6406 38.6378 25.518C38.6179 25.4285 38.5675 25.3487 38.4953 25.2922C38.423 25.2358 38.3334 25.2062 38.2418 25.2086C38.1513 25.2117 38.0641 25.243 37.9924 25.2983C37.9207 25.3535 37.8681 25.4298 37.842 25.5165C37.8122 25.6163 37.7995 25.7204 37.8043 25.8245C37.8043 26.2375 37.8043 26.6506 37.8043 27.0637L37.7983 28.3377C37.7983 28.3547 37.7983 28.3717 37.7983 28.3895V28.5694H37.8035C37.8035 28.6679 37.8035 28.7663 37.8102 28.8655C37.8133 29.0184 37.846 29.1692 37.9064 29.3097C38.1057 29.7039 38.4345 30.0175 38.8377 30.198C39.396 30.4799 39.9867 30.6925 40.5966 30.8309C41.0844 30.9553 41.5819 31.0419 42.0771 31.1174C42.4917 31.1803 42.9099 31.2262 43.3282 31.2655C43.7598 31.3032 44.1943 31.3239 44.6259 31.3336C45.304 31.3491 45.9821 31.3558 46.6616 31.3099C47.2539 31.2692 47.8513 31.2359 48.4435 31.1618C48.8876 31.1041 49.3318 31.0345 49.7701 30.9472C50.3083 30.8428 50.8377 30.697 51.3535 30.5111C51.8333 30.3612 52.2768 30.1131 52.6556 29.7827C52.7505 29.6949 52.8338 29.5954 52.9036 29.4866L52.9096 29.4629Z" fill="#FF8B4D"/>
<path d="M37.8761 22.4864C37.9818 22.7619 38.1674 22.9996 38.4091 23.1689C38.7571 23.4211 39.1412 23.6192 39.5484 23.7567C39.7705 23.8366 39.8083 23.9047 39.7616 24.1313C39.758 24.151 39.7563 24.1711 39.7564 24.1912C39.7564 24.5206 39.752 24.8501 39.7564 25.1795C39.7586 25.2644 39.7878 25.3464 39.8397 25.4136C39.8916 25.4808 39.9635 25.5298 40.0451 25.5533C40.6683 25.7323 41.3023 25.871 41.9432 25.9686C42.3456 26.0383 42.7513 26.0877 43.1587 26.1167C43.6429 26.1478 44.1255 26.2055 44.6126 26.1981C44.6526 26.1981 44.6926 26.2048 44.7326 26.2077C44.9972 26.2267 45.2627 26.2294 45.5276 26.2159C45.6169 26.2106 45.7009 26.1719 45.7628 26.1074C45.8247 26.0429 45.8599 25.9573 45.8615 25.8679C45.8665 25.8218 45.8623 25.7752 45.8491 25.7308C45.8359 25.6863 45.814 25.6449 45.7846 25.609C45.7553 25.5731 45.719 25.5434 45.6781 25.5217C45.6372 25.4999 45.5923 25.4865 45.5461 25.4823C45.3265 25.4606 45.1058 25.4512 44.8851 25.4541C44.3965 25.4356 43.9079 25.4252 43.4201 25.3801C42.9937 25.3406 42.5685 25.2927 42.1446 25.2365C41.6789 25.1743 41.2237 25.0692 40.7639 24.9796C40.5663 24.9411 40.5278 24.89 40.5285 24.6835C40.5285 24.5628 40.5285 24.4422 40.5285 24.3215C40.533 24.1572 40.6166 24.0868 40.7758 24.1179C41.0023 24.1616 41.2281 24.209 41.4539 24.2549C41.8936 24.3459 42.3422 24.4029 42.7864 24.4488C43.2757 24.5014 43.768 24.5473 44.2617 24.5584C44.6778 24.5673 45.0945 24.6043 45.5106 24.5947C45.9399 24.585 46.3686 24.5628 46.7979 24.5547C46.9827 24.554 47.1672 24.5436 47.3509 24.5236C47.8632 24.4592 48.3791 24.437 48.8892 24.3459C49.2734 24.2771 49.6598 24.2201 50.0403 24.1298C50.2017 24.0913 50.315 24.1475 50.3194 24.2778C50.3246 24.4548 50.3194 24.6317 50.3194 24.8086C50.3218 24.8452 50.3113 24.8815 50.2899 24.9112C50.2684 24.9409 50.2372 24.9622 50.2017 24.9715C50.0981 25.0026 49.9929 25.0285 49.8871 25.0499C49.628 25.1018 49.3689 25.1484 49.1098 25.198C49.0407 25.2141 48.9782 25.2512 48.931 25.3042C48.8838 25.3572 48.8542 25.4236 48.8463 25.4941C48.8354 25.5583 48.8413 25.6243 48.8635 25.6856C48.8857 25.7469 48.9234 25.8014 48.9728 25.8438C49.0223 25.8862 49.0819 25.9151 49.1459 25.9276C49.2099 25.9401 49.276 25.9359 49.3378 25.9153C49.7864 25.8354 50.2335 25.7443 50.6747 25.6266C50.9938 25.5415 51.0915 25.4267 51.0915 25.0914C51.0915 24.7338 51.0915 24.3763 51.0915 24.0187C51.0849 23.9693 51.0962 23.9192 51.1233 23.8773C51.1505 23.8355 51.1917 23.8048 51.2396 23.7907C51.6296 23.6573 52.0024 23.4779 52.35 23.2563C52.586 23.1211 52.78 22.9233 52.9106 22.6847C53.0413 22.4462 53.1034 22.1762 53.0903 21.9045C53.0754 21.447 53.0903 20.9888 53.0903 20.5306C53.0903 20.0316 53.0903 19.5332 53.0903 19.0352C53.0912 18.9471 53.0795 18.8594 53.0555 18.7746C53.0433 18.7215 53.0207 18.6714 52.989 18.6271C52.9572 18.5828 52.917 18.5452 52.8707 18.5166C52.8244 18.4879 52.7728 18.4688 52.719 18.4602C52.6652 18.4516 52.6102 18.4538 52.5573 18.4667C52.4638 18.4857 52.3805 18.5382 52.323 18.6142C52.2655 18.6902 52.2377 18.7847 52.2449 18.8797C52.2496 18.9481 52.2393 19.0168 52.2146 19.0807C52.1899 19.1447 52.1515 19.2024 52.102 19.2499C51.9732 19.3767 51.8268 19.4844 51.6674 19.5697C51.2758 19.7725 50.8629 19.9314 50.4364 20.0435C49.9698 20.1732 49.4959 20.275 49.0173 20.3484C48.7522 20.3899 48.4867 20.4269 48.2207 20.4595C48.0068 20.4861 47.7928 20.5084 47.5789 20.5283C47.4827 20.5446 47.3317 20.5572 47.1481 20.5676C46.7987 20.5883 44.2033 20.5905 44.2033 20.5905C43.8183 20.572 43.4349 20.5417 43.0521 20.5032C42.7091 20.4686 42.3681 20.425 42.0291 20.3721C41.8107 20.3381 41.5916 20.3129 41.3769 20.2655C40.9177 20.1726 40.4642 20.0537 40.0185 19.9095C39.65 19.7979 39.3006 19.6312 38.9821 19.415C38.8833 19.3645 38.8002 19.2879 38.7419 19.1936C38.6836 19.0992 38.6522 18.9907 38.6512 18.8797C38.6581 18.7947 38.637 18.7098 38.5912 18.6379C38.5454 18.566 38.4773 18.5111 38.3973 18.4815C38.3113 18.45 38.2173 18.4474 38.1297 18.4741C38.042 18.5009 37.9655 18.5554 37.9117 18.6295C37.8412 18.723 37.8044 18.8375 37.8073 18.9545C37.8073 19.2084 37.8073 19.4616 37.8073 19.7148V21.0761C37.8073 21.4137 37.8073 21.7513 37.8073 22.0888C37.8083 22.2242 37.8315 22.3585 37.8761 22.4864Z" fill="#FF8B4D"/>
<path d="M37.8011 14.3523C37.8019 14.3654 37.8019 14.3785 37.8011 14.3915C37.7966 14.7254 37.8011 15.0578 37.8011 15.3924C37.8007 15.5364 37.8113 15.6801 37.8329 15.8225C37.8984 16.1612 38.0923 16.4614 38.3741 16.6605C38.7472 16.9398 39.1642 17.1549 39.6081 17.2971C39.6557 17.3095 39.6971 17.339 39.7244 17.3799C39.7517 17.4209 39.763 17.4705 39.7562 17.5192C39.748 17.8686 39.7495 18.2188 39.7502 18.5689C39.7478 18.654 39.7732 18.7376 39.8224 18.807C39.8717 18.8765 39.9423 18.928 40.0234 18.9538C40.1914 19.0057 40.3602 19.0575 40.532 19.1019C41.0065 19.2144 41.4854 19.3106 41.9666 19.3862C42.3819 19.4513 42.8002 19.5053 43.2192 19.5342C43.7551 19.5675 44.2896 19.6341 44.8278 19.6156C44.9282 19.6143 45.0285 19.6192 45.1283 19.6305C45.2485 19.6419 45.3694 19.6419 45.4896 19.6305C45.5909 19.6276 45.6869 19.5846 45.7565 19.511C45.8262 19.4373 45.8637 19.339 45.8608 19.2377C45.858 19.1364 45.815 19.0404 45.7414 18.9708C45.6677 18.9012 45.5694 18.8636 45.4681 18.8665C44.7974 18.862 44.1275 18.8606 43.459 18.7925C43.1681 18.7643 42.8764 18.7406 42.5862 18.7051C42.1539 18.6518 41.7216 18.5911 41.2952 18.4971C41.0842 18.4505 40.871 18.4164 40.6637 18.349C40.5897 18.3253 40.5283 18.2876 40.5253 18.201C40.5216 18.0529 40.5201 17.9115 40.5253 17.7672C40.5281 17.7432 40.5359 17.72 40.548 17.6991C40.5601 17.6782 40.5764 17.66 40.5958 17.6456C40.6152 17.6311 40.6373 17.6208 40.6608 17.6153C40.6844 17.6097 40.7088 17.609 40.7326 17.6132C40.965 17.6732 41.2019 17.7124 41.4366 17.7613C41.7889 17.8353 42.1458 17.879 42.5011 17.9323C42.8016 17.9782 43.1074 17.9863 43.4109 18.0152C44.0224 18.0729 44.6368 18.0892 45.2505 18.1025C45.6206 18.1122 45.9974 18.0899 46.3705 18.0833C46.5149 18.0833 46.6585 18.0729 46.8036 18.0625C47.3906 18.0189 47.9769 17.9826 48.5617 17.9004C48.9022 17.8531 49.2405 17.7938 49.5803 17.7383C49.7663 17.69 49.9564 17.6593 50.1481 17.6465C50.2562 17.6465 50.3132 17.6983 50.3132 17.8086C50.3132 17.9412 50.3132 18.0737 50.3132 18.2062C50.3154 18.2469 50.3031 18.2872 50.2784 18.3197C50.2537 18.3522 50.2183 18.375 50.1785 18.3838C50.0637 18.4179 49.9453 18.4408 49.8276 18.4645C49.5966 18.5119 49.3627 18.5474 49.1354 18.6067C49.05 18.6309 48.9764 18.6855 48.9284 18.7602C48.8804 18.8349 48.8614 18.9246 48.8748 19.0123C48.8914 19.1109 48.9463 19.199 49.0276 19.2571C49.1089 19.3153 49.21 19.3388 49.3087 19.3225C49.7669 19.2485 50.2192 19.1478 50.6685 19.0331C50.9832 18.9531 51.0838 18.8339 51.0846 18.5097C51.0853 18.1854 51.0846 17.8582 51.0846 17.5325C51.0785 17.4806 51.0917 17.4283 51.1218 17.3856C51.1518 17.3428 51.1965 17.3127 51.2474 17.3008C51.7072 17.155 52.1396 16.9336 52.5266 16.6457C52.6869 16.5334 52.8198 16.3864 52.9154 16.2157C53.011 16.045 53.0669 15.8549 53.0789 15.6596C53.1007 15.3931 53.1029 15.1254 53.0855 14.8586V13.424C53.0922 13.3004 53.0855 13.1745 53.0855 13.0494V12.9399C53.0855 12.7733 53.0922 12.6067 53.0855 12.4402C53.0794 12.2841 53.0468 12.1301 52.9893 11.9849C52.864 11.7136 52.6653 11.4828 52.4156 11.3187C52.0439 11.0653 51.6371 10.8678 51.2082 10.7323C51.0424 10.6724 50.8721 10.625 50.7026 10.5761C50.5331 10.5273 50.3724 10.477 50.2036 10.4459C50.0349 10.4148 49.8875 10.3578 49.721 10.3363C49.4589 10.3023 49.1976 10.2489 48.937 10.2031C48.4788 10.1224 48.0154 10.0876 47.5549 10.0328C47.1374 9.98246 46.714 9.97654 46.2965 9.95877C45.6709 9.93804 45.0432 9.93063 44.4162 9.97061C43.7647 10.0121 43.1133 10.0446 42.4648 10.1298C42.0947 10.1816 41.7186 10.2312 41.3485 10.3C40.9598 10.3741 40.5742 10.4599 40.1929 10.5688C39.6287 10.7119 39.0884 10.9364 38.5887 11.235C38.3413 11.3639 38.1356 11.5605 37.9959 11.802C37.8561 12.0435 37.788 12.3198 37.7996 12.5986C37.804 12.6867 37.804 12.7755 37.8033 12.8636L37.8011 14.3523ZM38.7523 12.2055C38.8964 12.0482 39.068 11.9185 39.2587 11.8228C39.7551 11.5853 40.2765 11.4043 40.8133 11.2831C41.2249 11.1795 41.6409 11.0995 42.0591 11.0359C42.3826 10.987 42.7106 10.953 43.0363 10.9167C43.3916 10.8767 43.7477 10.8723 44.1023 10.8323C44.5509 10.7819 45.0017 10.819 45.4511 10.8027C46.0381 10.7908 46.6237 10.8116 47.2092 10.856C47.5794 10.8834 47.9495 10.9071 48.31 10.9589C48.86 11.0366 49.4115 11.1143 49.9519 11.2468C50.4728 11.3593 50.9808 11.5248 51.468 11.7406C51.7243 11.8479 51.9549 12.0084 52.1446 12.2114C52.2742 12.3595 52.2742 12.4283 52.1446 12.5764C51.9079 12.8237 51.6163 13.0119 51.2933 13.1257C50.8667 13.2994 50.4261 13.4368 49.9764 13.5365C49.6536 13.6105 49.3272 13.6787 48.9977 13.7253C48.7016 13.7668 48.4122 13.8156 48.1176 13.8437C47.9058 13.8644 47.6949 13.8918 47.4831 13.9118C47.4379 13.9233 47.3919 13.9317 47.3454 13.937C46.5464 14.0009 45.7441 14.0155 44.9433 13.9807C44.9282 13.9842 44.9128 13.9859 44.8974 13.9859C44.4673 13.9977 44.0401 13.9429 43.6115 13.9237C43.3065 13.9103 43.0045 13.8704 42.7017 13.8371C42.3123 13.7934 41.9244 13.7371 41.5387 13.6624C41.2522 13.6061 40.9643 13.5521 40.683 13.4758C40.0814 13.3493 39.5068 13.1177 38.9855 12.7918C38.897 12.7281 38.8169 12.6535 38.7472 12.5697C38.622 12.4298 38.6221 12.3476 38.7509 12.2063L38.7523 12.2055Z" fill="#FF8B4D"/>
<path d="M60.6361 8.98186C59.2965 7.67798 57.5697 6.84432 55.7155 6.60631C55.3671 6.57102 55.0348 6.44131 54.7546 6.23116C54.4744 6.02101 54.2569 5.73839 54.1254 5.41373C53.5696 4.17631 52.7476 3.07677 51.718 2.19354C49.9009 0.674892 47.5787 -0.104192 45.2132 0.011208C45.2086 0.0104734 45.2038 0.0104734 45.1992 0.011208C45.1067 0.00750665 45.0134 0.00528908 44.9201 0.00528908C43.4018 0.0404409 41.9195 0.474468 40.6221 1.26376C38.9603 2.2475 37.6511 3.73027 36.8807 5.50109C36.7539 5.81018 36.5446 6.07845 36.2757 6.27663C36.0068 6.47482 35.6885 6.59526 35.3558 6.62481C34.2012 6.75689 33.0846 7.11779 32.0712 7.68638C30.3151 8.72394 28.9531 10.3151 28.1988 12.2102C27.6349 13.4562 27.4714 14.8464 27.7309 16.1892C27.9772 17.2809 28.3905 18.3281 28.9561 19.2939C29.5584 20.4492 30.4198 21.4496 31.4728 22.2169C32.5258 22.9842 33.742 23.4976 35.0263 23.717C35.294 23.7764 35.5736 23.7468 35.8229 23.6326C35.9733 23.5722 36.1006 23.4656 36.1866 23.3282C36.2725 23.1908 36.3126 23.0296 36.3011 22.8679C36.312 22.7227 36.2719 22.5781 36.1877 22.4592C36.1035 22.3403 35.9805 22.2545 35.8399 22.2165C35.6553 22.1371 35.4631 22.0768 35.2662 22.0366C33.7483 21.807 32.3557 21.0618 31.3227 19.9261C30.6592 19.228 30.1481 18.3995 29.8218 17.4934C29.4955 16.5872 29.3612 15.6231 29.4274 14.6622C29.4936 13.7014 29.7589 12.7648 30.2064 11.9119C30.6538 11.0591 31.2738 10.3086 32.0267 9.70806C33.4132 8.66797 35.1147 8.1354 36.8467 8.19939C37.661 8.1868 37.661 8.1868 37.9304 7.4517L37.9586 7.37767C38.3904 6.1826 39.0255 5.07114 39.8359 4.09234C40.462 3.34665 41.2345 2.73745 42.1056 2.30247C42.9767 1.86749 43.9279 1.616 44.9001 1.56357C46.0434 1.42177 47.2039 1.57278 48.2728 2.00241C49.3418 2.43205 50.284 3.12622 51.0111 4.0198C51.9875 5.24042 52.767 6.60618 53.3215 8.06761C53.3955 8.25194 53.4444 8.28155 53.6405 8.26897C54.0723 8.24281 54.5052 8.24405 54.9368 8.27267C56.3505 8.31334 57.7186 8.78212 58.8602 9.61702C59.7437 10.2739 60.4537 11.1364 60.9285 12.1297C61.4033 13.1229 61.6287 14.217 61.5852 15.3171C61.5596 16.9248 60.9748 18.4734 59.9313 19.6967C58.8879 20.92 57.4508 21.7416 55.8673 22.0203C55.5898 22.0556 55.3189 22.1304 55.0626 22.2424C54.9681 22.2809 54.8876 22.3473 54.8317 22.4327C54.7759 22.5182 54.7475 22.6186 54.7502 22.7206C54.7405 22.8609 54.7621 23.0015 54.8133 23.1325C54.8645 23.2634 54.9441 23.3814 55.0463 23.4779C55.164 23.5805 55.3031 23.6557 55.4533 23.698C55.6036 23.7404 55.7614 23.7489 55.9154 23.7229C56.6025 23.6054 57.2718 23.4012 57.9075 23.1152L58.2036 22.9975C59.7913 22.2706 61.1297 21.092 62.0513 19.6088C62.9729 18.1256 63.437 16.4037 63.3855 14.6583C63.2037 12.4909 62.2239 10.4682 60.6361 8.98186Z" fill="#5F6C89"/>
<path d="M5.40234 48.3452V41.187H7.86816C8.4248 41.187 8.84961 41.2212 9.14258 41.2896C9.55273 41.384 9.90267 41.5549 10.1924 41.8022C10.57 42.1213 10.8516 42.5298 11.0371 43.0278C11.2259 43.5226 11.3203 44.089 11.3203 44.7271C11.3203 45.2707 11.2568 45.7524 11.1299 46.1724C11.0029 46.5923 10.8402 46.9406 10.6416 47.2173C10.443 47.4907 10.2249 47.7072 9.9873 47.8667C9.75293 48.0229 9.4681 48.1418 9.13281 48.2231C8.80078 48.3045 8.41829 48.3452 7.98535 48.3452H5.40234ZM6.34961 47.5005H7.87793C8.34993 47.5005 8.7194 47.4565 8.98633 47.3687C9.25651 47.2808 9.47135 47.1571 9.63086 46.9976C9.85547 46.7729 10.0296 46.4718 10.1533 46.0942C10.2803 45.7134 10.3438 45.2528 10.3438 44.7124C10.3438 43.9637 10.2201 43.3892 9.97266 42.9888C9.72852 42.5851 9.43066 42.3149 9.0791 42.1782C8.8252 42.0806 8.41667 42.0317 7.85352 42.0317H6.34961V47.5005ZM12.5215 42.1978V41.187H13.4004V42.1978H12.5215ZM12.5215 48.3452V43.1597H13.4004V48.3452H12.5215ZM14.3916 46.7974L15.2607 46.6606C15.3096 47.009 15.4447 47.2759 15.666 47.4614C15.8906 47.647 16.2031 47.7397 16.6035 47.7397C17.0072 47.7397 17.3066 47.6584 17.502 47.4956C17.6973 47.3296 17.7949 47.1359 17.7949 46.9146C17.7949 46.716 17.7087 46.5597 17.5361 46.4458C17.4157 46.3677 17.1162 46.2684 16.6377 46.1479C15.9932 45.9852 15.5456 45.8452 15.2949 45.728C15.0475 45.6076 14.8587 45.4432 14.7285 45.2349C14.6016 45.0233 14.5381 44.7905 14.5381 44.5366C14.5381 44.3055 14.5902 44.0923 14.6943 43.897C14.8018 43.6984 14.9466 43.534 15.1289 43.4038C15.2656 43.3029 15.4512 43.2183 15.6855 43.1499C15.9232 43.0783 16.1771 43.0425 16.4473 43.0425C16.8542 43.0425 17.2106 43.1011 17.5166 43.2183C17.8258 43.3354 18.0537 43.495 18.2002 43.6968C18.3467 43.8953 18.4476 44.1623 18.5029 44.4976L17.6436 44.6147C17.6045 44.3478 17.4906 44.1395 17.3018 43.9897C17.1162 43.84 16.8525 43.7651 16.5107 43.7651C16.1071 43.7651 15.819 43.8319 15.6465 43.9653C15.474 44.0988 15.3877 44.255 15.3877 44.4341C15.3877 44.548 15.4235 44.6506 15.4951 44.7417C15.5667 44.8361 15.679 44.9142 15.832 44.9761C15.9199 45.0086 16.1787 45.0835 16.6084 45.2007C17.2301 45.3667 17.6631 45.5034 17.9072 45.6108C18.1546 45.715 18.3483 45.868 18.4883 46.0698C18.6283 46.2716 18.6982 46.5223 18.6982 46.8218C18.6982 47.1147 18.612 47.3914 18.4395 47.6519C18.2702 47.909 18.0244 48.1092 17.7021 48.2524C17.3799 48.3924 17.0153 48.4624 16.6084 48.4624C15.9346 48.4624 15.4202 48.3224 15.0654 48.0425C14.7139 47.7625 14.4893 47.3475 14.3916 46.7974ZM23.127 47.7056C22.8014 47.9823 22.4873 48.1776 22.1846 48.2915C21.8851 48.4054 21.5628 48.4624 21.2178 48.4624C20.6481 48.4624 20.2103 48.3241 19.9043 48.0474C19.5983 47.7674 19.4453 47.411 19.4453 46.978C19.4453 46.7241 19.5023 46.493 19.6162 46.2847C19.7334 46.0731 19.8848 45.9038 20.0703 45.7769C20.2591 45.6499 20.4707 45.5539 20.7051 45.4888C20.8776 45.4432 21.138 45.3993 21.4863 45.3569C22.196 45.2723 22.7184 45.1714 23.0537 45.0542C23.057 44.9338 23.0586 44.8573 23.0586 44.8247C23.0586 44.4666 22.9756 44.2144 22.8096 44.0679C22.585 43.8693 22.2513 43.77 21.8086 43.77C21.3952 43.77 21.0892 43.8433 20.8906 43.9897C20.6953 44.133 20.5505 44.3885 20.4561 44.7563L19.5967 44.6392C19.6748 44.2713 19.8034 43.9751 19.9824 43.7505C20.1615 43.5226 20.4202 43.3485 20.7588 43.228C21.0973 43.1043 21.4896 43.0425 21.9355 43.0425C22.3783 43.0425 22.738 43.0946 23.0146 43.1987C23.2913 43.3029 23.4948 43.4347 23.625 43.5942C23.7552 43.7505 23.8464 43.9491 23.8984 44.1899C23.9277 44.3397 23.9424 44.6099 23.9424 45.0005V46.1724C23.9424 46.9894 23.9603 47.507 23.9961 47.7251C24.0352 47.9399 24.11 48.1466 24.2207 48.3452H23.3027C23.2116 48.1629 23.153 47.9497 23.127 47.7056ZM23.0537 45.7427C22.7347 45.8729 22.2562 45.9836 21.6182 46.0747C21.2568 46.1268 21.0013 46.1854 20.8516 46.2505C20.7018 46.3156 20.5863 46.4116 20.5049 46.5386C20.4235 46.6623 20.3828 46.8006 20.3828 46.9536C20.3828 47.188 20.4707 47.3833 20.6465 47.5396C20.8255 47.6958 21.0859 47.7739 21.4277 47.7739C21.7663 47.7739 22.0674 47.7007 22.3311 47.5542C22.5947 47.4045 22.7884 47.201 22.9121 46.9438C23.0065 46.7453 23.0537 46.4523 23.0537 46.0649V45.7427ZM24.958 46.7974L25.8271 46.6606C25.876 47.009 26.0111 47.2759 26.2324 47.4614C26.457 47.647 26.7695 47.7397 27.1699 47.7397C27.5736 47.7397 27.873 47.6584 28.0684 47.4956C28.2637 47.3296 28.3613 47.1359 28.3613 46.9146C28.3613 46.716 28.2751 46.5597 28.1025 46.4458C27.9821 46.3677 27.6826 46.2684 27.2041 46.1479C26.5596 45.9852 26.112 45.8452 25.8613 45.728C25.6139 45.6076 25.4251 45.4432 25.2949 45.2349C25.168 45.0233 25.1045 44.7905 25.1045 44.5366C25.1045 44.3055 25.1566 44.0923 25.2607 43.897C25.3682 43.6984 25.513 43.534 25.6953 43.4038C25.832 43.3029 26.0176 43.2183 26.252 43.1499C26.4896 43.0783 26.7435 43.0425 27.0137 43.0425C27.4206 43.0425 27.777 43.1011 28.083 43.2183C28.3923 43.3354 28.6201 43.495 28.7666 43.6968C28.9131 43.8953 29.014 44.1623 29.0693 44.4976L28.21 44.6147C28.1709 44.3478 28.057 44.1395 27.8682 43.9897C27.6826 43.84 27.4189 43.7651 27.0771 43.7651C26.6735 43.7651 26.3854 43.8319 26.2129 43.9653C26.0404 44.0988 25.9541 44.255 25.9541 44.4341C25.9541 44.548 25.9899 44.6506 26.0615 44.7417C26.1331 44.8361 26.2454 44.9142 26.3984 44.9761C26.4863 45.0086 26.7451 45.0835 27.1748 45.2007C27.7965 45.3667 28.2295 45.5034 28.4736 45.6108C28.721 45.715 28.9147 45.868 29.0547 46.0698C29.1947 46.2716 29.2646 46.5223 29.2646 46.8218C29.2646 47.1147 29.1784 47.3914 29.0059 47.6519C28.8366 47.909 28.5908 48.1092 28.2686 48.2524C27.9463 48.3924 27.5817 48.4624 27.1748 48.4624C26.501 48.4624 25.9867 48.3224 25.6318 48.0425C25.2803 47.7625 25.0557 47.3475 24.958 46.7974ZM32.2285 47.5591L32.3555 48.3354C32.1081 48.3875 31.8867 48.4136 31.6914 48.4136C31.3724 48.4136 31.125 48.3631 30.9492 48.2622C30.7734 48.1613 30.6497 48.0295 30.5781 47.8667C30.5065 47.7007 30.4707 47.354 30.4707 46.8267V43.8433H29.8262V43.1597H30.4707V41.8755L31.3447 41.3481V43.1597H32.2285V43.8433H31.3447V46.8755C31.3447 47.1261 31.3594 47.2873 31.3887 47.3589C31.4212 47.4305 31.4717 47.4875 31.54 47.5298C31.6117 47.5721 31.7126 47.5933 31.8428 47.5933C31.9404 47.5933 32.069 47.5819 32.2285 47.5591ZM36.6426 46.6753L37.5508 46.7876C37.4076 47.3182 37.1423 47.73 36.7549 48.0229C36.3675 48.3159 35.8727 48.4624 35.2705 48.4624C34.512 48.4624 33.9098 48.2297 33.4639 47.7642C33.0212 47.2954 32.7998 46.6395 32.7998 45.7964C32.7998 44.924 33.0244 44.2469 33.4736 43.7651C33.9229 43.2834 34.5055 43.0425 35.2217 43.0425C35.915 43.0425 36.4814 43.2785 36.9209 43.7505C37.3604 44.2225 37.5801 44.8866 37.5801 45.7427C37.5801 45.7948 37.5785 45.8729 37.5752 45.9771H33.708C33.7406 46.5467 33.9017 46.9829 34.1914 47.2856C34.4811 47.5884 34.8424 47.7397 35.2754 47.7397C35.5977 47.7397 35.8727 47.6551 36.1006 47.4858C36.3285 47.3166 36.5091 47.0464 36.6426 46.6753ZM33.7568 45.2544H36.6523C36.6133 44.8182 36.5026 44.491 36.3203 44.2729C36.0404 43.9344 35.6774 43.7651 35.2314 43.7651C34.8278 43.7651 34.4876 43.9002 34.2109 44.1704C33.9375 44.4406 33.7861 44.8019 33.7568 45.2544ZM38.6494 48.3452V43.1597H39.4404V43.9458C39.6423 43.578 39.8278 43.3354 39.9971 43.2183C40.1696 43.1011 40.3584 43.0425 40.5635 43.0425C40.8597 43.0425 41.1608 43.1369 41.4668 43.3257L41.1641 44.1411C40.9492 44.0142 40.7344 43.9507 40.5195 43.9507C40.3275 43.9507 40.1549 44.0093 40.002 44.1265C39.849 44.2404 39.7399 44.3999 39.6748 44.605C39.5771 44.9175 39.5283 45.2593 39.5283 45.6304V48.3452H38.6494ZM44.8994 48.3452V41.187H48.0732C48.7113 41.187 49.1963 41.2521 49.5283 41.3823C49.8604 41.5093 50.1257 41.7355 50.3242 42.061C50.5228 42.3866 50.6221 42.7463 50.6221 43.1401C50.6221 43.6479 50.4577 44.076 50.1289 44.4243C49.8001 44.7726 49.2923 44.994 48.6055 45.0884C48.8561 45.2088 49.0465 45.3276 49.1768 45.4448C49.4535 45.6987 49.7155 46.0161 49.9629 46.397L51.208 48.3452H50.0166L49.0693 46.856C48.7926 46.4263 48.5648 46.0975 48.3857 45.8696C48.2067 45.6418 48.0456 45.4823 47.9023 45.3911C47.7624 45.3 47.6191 45.2365 47.4727 45.2007C47.3652 45.1779 47.1895 45.1665 46.9453 45.1665H45.8467V48.3452H44.8994ZM45.8467 44.3462H47.8828C48.3158 44.3462 48.6543 44.3022 48.8984 44.2144C49.1426 44.1232 49.3281 43.98 49.4551 43.7847C49.582 43.5861 49.6455 43.3713 49.6455 43.1401C49.6455 42.8016 49.5218 42.5233 49.2744 42.3052C49.0303 42.0871 48.6429 41.978 48.1123 41.978H45.8467V44.3462ZM55.5488 46.6753L56.457 46.7876C56.3138 47.3182 56.0485 47.73 55.6611 48.0229C55.2738 48.3159 54.779 48.4624 54.1768 48.4624C53.4183 48.4624 52.8161 48.2297 52.3701 47.7642C51.9274 47.2954 51.7061 46.6395 51.7061 45.7964C51.7061 44.924 51.9307 44.2469 52.3799 43.7651C52.8291 43.2834 53.4118 43.0425 54.1279 43.0425C54.8213 43.0425 55.3877 43.2785 55.8271 43.7505C56.2666 44.2225 56.4863 44.8866 56.4863 45.7427C56.4863 45.7948 56.4847 45.8729 56.4814 45.9771H52.6143C52.6468 46.5467 52.8079 46.9829 53.0977 47.2856C53.3874 47.5884 53.7487 47.7397 54.1816 47.7397C54.5039 47.7397 54.779 47.6551 55.0068 47.4858C55.2347 47.3166 55.4154 47.0464 55.5488 46.6753ZM52.6631 45.2544H55.5586C55.5195 44.8182 55.4089 44.491 55.2266 44.2729C54.9466 43.9344 54.5837 43.7651 54.1377 43.7651C53.734 43.7651 53.3939 43.9002 53.1172 44.1704C52.8438 44.4406 52.6924 44.8019 52.6631 45.2544ZM60.9492 46.4458L61.8135 46.5581C61.7191 47.1538 61.4766 47.6209 61.0859 47.9595C60.6986 48.2948 60.2217 48.4624 59.6553 48.4624C58.9456 48.4624 58.3743 48.2313 57.9414 47.769C57.5117 47.3035 57.2969 46.6379 57.2969 45.772C57.2969 45.2121 57.3896 44.7222 57.5752 44.3022C57.7607 43.8823 58.0423 43.5682 58.4199 43.3599C58.8008 43.1483 59.2142 43.0425 59.6602 43.0425C60.2233 43.0425 60.6839 43.1857 61.042 43.4722C61.4001 43.7554 61.6296 44.159 61.7305 44.6831L60.876 44.8149C60.7946 44.4666 60.6497 44.2046 60.4414 44.0288C60.2363 43.853 59.9873 43.7651 59.6943 43.7651C59.2516 43.7651 58.8919 43.9246 58.6152 44.2437C58.3385 44.5594 58.2002 45.0607 58.2002 45.7476C58.2002 46.4442 58.3337 46.9504 58.6006 47.2661C58.8675 47.5819 59.2158 47.7397 59.6455 47.7397C59.9906 47.7397 60.2786 47.634 60.5098 47.4224C60.7409 47.2108 60.8874 46.8853 60.9492 46.4458ZM62.2383 45.7524C62.2383 44.7922 62.5052 44.0809 63.0391 43.6187C63.485 43.2345 64.0286 43.0425 64.6699 43.0425C65.3828 43.0425 65.9655 43.2769 66.418 43.7456C66.8704 44.2111 67.0967 44.8556 67.0967 45.6792C67.0967 46.3465 66.9958 46.8722 66.7939 47.2563C66.5954 47.6372 66.304 47.9334 65.9199 48.145C65.5391 48.3566 65.1224 48.4624 64.6699 48.4624C63.944 48.4624 63.3564 48.2297 62.9072 47.7642C62.4613 47.2987 62.2383 46.6281 62.2383 45.7524ZM63.1416 45.7524C63.1416 46.4165 63.2865 46.9146 63.5762 47.2466C63.8659 47.5754 64.2305 47.7397 64.6699 47.7397C65.1061 47.7397 65.4691 47.5737 65.7588 47.2417C66.0485 46.9097 66.1934 46.4035 66.1934 45.7231C66.1934 45.0819 66.0469 44.5968 65.7539 44.2681C65.4642 43.936 65.1029 43.77 64.6699 43.77C64.2305 43.77 63.8659 43.9344 63.5762 44.2632C63.2865 44.592 63.1416 45.0884 63.1416 45.7524ZM69.5723 48.3452L67.5996 43.1597H68.5273L69.6406 46.2651C69.7611 46.6004 69.8717 46.9487 69.9727 47.3101C70.0508 47.0366 70.1598 46.7078 70.2998 46.3237L71.4521 43.1597H72.3555L70.3926 48.3452H69.5723ZM76.6816 46.6753L77.5898 46.7876C77.4466 47.3182 77.1813 47.73 76.7939 48.0229C76.4066 48.3159 75.9118 48.4624 75.3096 48.4624C74.5511 48.4624 73.9489 48.2297 73.5029 47.7642C73.0602 47.2954 72.8389 46.6395 72.8389 45.7964C72.8389 44.924 73.0635 44.2469 73.5127 43.7651C73.9619 43.2834 74.5446 43.0425 75.2607 43.0425C75.9541 43.0425 76.5205 43.2785 76.96 43.7505C77.3994 44.2225 77.6191 44.8866 77.6191 45.7427C77.6191 45.7948 77.6175 45.8729 77.6143 45.9771H73.7471C73.7796 46.5467 73.9408 46.9829 74.2305 47.2856C74.5202 47.5884 74.8815 47.7397 75.3145 47.7397C75.6367 47.7397 75.9118 47.6551 76.1396 47.4858C76.3675 47.3166 76.5482 47.0464 76.6816 46.6753ZM73.7959 45.2544H76.6914C76.6523 44.8182 76.5417 44.491 76.3594 44.2729C76.0794 43.9344 75.7165 43.7651 75.2705 43.7651C74.8669 43.7651 74.5267 43.9002 74.25 44.1704C73.9766 44.4406 73.8252 44.8019 73.7959 45.2544ZM78.6885 48.3452V43.1597H79.4795V43.9458C79.6813 43.578 79.8669 43.3354 80.0361 43.2183C80.2087 43.1011 80.3975 43.0425 80.6025 43.0425C80.8988 43.0425 81.1999 43.1369 81.5059 43.3257L81.2031 44.1411C80.9883 44.0142 80.7734 43.9507 80.5586 43.9507C80.3665 43.9507 80.194 44.0093 80.041 44.1265C79.888 44.2404 79.779 44.3999 79.7139 44.605C79.6162 44.9175 79.5674 45.2593 79.5674 45.6304V48.3452H78.6885ZM81.9893 50.3423L81.8916 49.5171C82.0837 49.5692 82.2513 49.5952 82.3945 49.5952C82.5898 49.5952 82.7461 49.5627 82.8633 49.4976C82.9805 49.4325 83.0765 49.3413 83.1514 49.2241C83.2067 49.1362 83.2962 48.9181 83.4199 48.5698C83.4362 48.521 83.4622 48.4494 83.498 48.355L81.5303 43.1597H82.4775L83.5566 46.1626C83.6966 46.5435 83.8219 46.9438 83.9326 47.3638C84.0335 46.9601 84.154 46.5662 84.2939 46.1821L85.4023 43.1597H86.2812L84.3086 48.4331C84.097 49.0028 83.9326 49.395 83.8154 49.6099C83.6592 49.8996 83.4801 50.1112 83.2783 50.2446C83.0765 50.3813 82.8356 50.4497 82.5557 50.4497C82.3864 50.4497 82.1976 50.4139 81.9893 50.3423ZM0.895508 60.0454L1.78906 59.9673C1.83138 60.3254 1.92904 60.62 2.08203 60.8511C2.23828 61.0789 2.47917 61.2645 2.80469 61.4077C3.13021 61.5477 3.49642 61.6177 3.90332 61.6177C4.26465 61.6177 4.58366 61.564 4.86035 61.4565C5.13704 61.3491 5.34212 61.2026 5.47559 61.0171C5.6123 60.8283 5.68066 60.6232 5.68066 60.4019C5.68066 60.1772 5.61556 59.9819 5.48535 59.8159C5.35514 59.6466 5.1403 59.505 4.84082 59.3911C4.64876 59.3162 4.22396 59.2007 3.56641 59.0444C2.90885 58.8849 2.44824 58.7352 2.18457 58.5952C1.84277 58.4162 1.58724 58.1948 1.41797 57.9312C1.25195 57.6642 1.16895 57.3664 1.16895 57.0376C1.16895 56.6763 1.27148 56.3394 1.47656 56.0269C1.68164 55.7111 1.98112 55.4718 2.375 55.3091C2.76888 55.1463 3.20671 55.0649 3.68848 55.0649C4.21908 55.0649 4.6862 55.1512 5.08984 55.3237C5.49674 55.493 5.80924 55.7437 6.02734 56.0757C6.24544 56.4077 6.36263 56.7837 6.37891 57.2036L5.4707 57.272C5.42188 56.8195 5.25586 56.4777 4.97266 56.2466C4.69271 56.0155 4.27767 55.8999 3.72754 55.8999C3.15462 55.8999 2.73633 56.0057 2.47266 56.2173C2.21224 56.4256 2.08203 56.6779 2.08203 56.9741C2.08203 57.2313 2.1748 57.4429 2.36035 57.6089C2.54264 57.7749 3.0179 57.9458 3.78613 58.1216C4.55762 58.2941 5.08659 58.4455 5.37305 58.5757C5.78971 58.7677 6.09733 59.0119 6.2959 59.3081C6.49447 59.6011 6.59375 59.9396 6.59375 60.3237C6.59375 60.7046 6.4847 61.0643 6.2666 61.4028C6.0485 61.7381 5.73438 62.0002 5.32422 62.189C4.91732 62.3745 4.45833 62.4673 3.94727 62.4673C3.29948 62.4673 2.75586 62.3729 2.31641 62.1841C1.88021 61.9953 1.53678 61.7121 1.28613 61.3345C1.03874 60.9536 0.908529 60.5239 0.895508 60.0454ZM7.44824 59.7524C7.44824 58.7922 7.71517 58.0809 8.24902 57.6187C8.69499 57.2345 9.23861 57.0425 9.87988 57.0425C10.5928 57.0425 11.1755 57.2769 11.6279 57.7456C12.0804 58.2111 12.3066 58.8556 12.3066 59.6792C12.3066 60.3465 12.2057 60.8722 12.0039 61.2563C11.8053 61.6372 11.514 61.9334 11.1299 62.145C10.749 62.3566 10.3324 62.4624 9.87988 62.4624C9.15397 62.4624 8.56641 62.2297 8.11719 61.7642C7.67122 61.2987 7.44824 60.6281 7.44824 59.7524ZM8.35156 59.7524C8.35156 60.4165 8.49642 60.9146 8.78613 61.2466C9.07585 61.5754 9.44043 61.7397 9.87988 61.7397C10.3161 61.7397 10.679 61.5737 10.9688 61.2417C11.2585 60.9097 11.4033 60.4035 11.4033 59.7231C11.4033 59.0819 11.2568 58.5968 10.9639 58.2681C10.6742 57.936 10.3128 57.77 9.87988 57.77C9.44043 57.77 9.07585 57.9344 8.78613 58.2632C8.49642 58.592 8.35156 59.0884 8.35156 59.7524ZM13.5518 62.3452V57.8433H12.7754V57.1597H13.5518V56.6079C13.5518 56.2596 13.5827 56.0008 13.6445 55.8315C13.7292 55.6037 13.8773 55.4198 14.0889 55.2798C14.3037 55.1366 14.6032 55.0649 14.9873 55.0649C15.2347 55.0649 15.5081 55.0942 15.8076 55.1528L15.6758 55.9194C15.4935 55.8869 15.321 55.8706 15.1582 55.8706C14.8913 55.8706 14.7025 55.9276 14.5918 56.0415C14.4811 56.1554 14.4258 56.3687 14.4258 56.6812V57.1597H15.4365V57.8433H14.4258V62.3452H13.5518ZM18.0439 61.5591L18.1709 62.3354C17.9235 62.3875 17.7021 62.4136 17.5068 62.4136C17.1878 62.4136 16.9404 62.3631 16.7646 62.2622C16.5889 62.1613 16.4652 62.0295 16.3936 61.8667C16.3219 61.7007 16.2861 61.354 16.2861 60.8267V57.8433H15.6416V57.1597H16.2861V55.8755L17.1602 55.3481V57.1597H18.0439V57.8433H17.1602V60.8755C17.1602 61.1261 17.1748 61.2873 17.2041 61.3589C17.2367 61.4305 17.2871 61.4875 17.3555 61.5298C17.4271 61.5721 17.528 61.5933 17.6582 61.5933C17.7559 61.5933 17.8844 61.5819 18.0439 61.5591ZM19.8652 62.3452L18.2783 57.1597H19.1865L20.0117 60.1528L20.3193 61.2661C20.3324 61.2108 20.4219 60.8543 20.5879 60.1968L21.4131 57.1597H22.3164L23.0928 60.1675L23.3516 61.1587L23.6494 60.1577L24.5381 57.1597H25.3926L23.7715 62.3452H22.8584L22.0332 59.2397L21.833 58.356L20.7832 62.3452H19.8652ZM29.5186 61.7056C29.193 61.9823 28.8789 62.1776 28.5762 62.2915C28.2767 62.4054 27.9544 62.4624 27.6094 62.4624C27.0397 62.4624 26.6019 62.3241 26.2959 62.0474C25.9899 61.7674 25.8369 61.411 25.8369 60.978C25.8369 60.7241 25.8939 60.493 26.0078 60.2847C26.125 60.0731 26.2764 59.9038 26.4619 59.7769C26.6507 59.6499 26.8623 59.5539 27.0967 59.4888C27.2692 59.4432 27.5296 59.3993 27.8779 59.3569C28.5876 59.2723 29.11 59.1714 29.4453 59.0542C29.4486 58.9338 29.4502 58.8573 29.4502 58.8247C29.4502 58.4666 29.3672 58.2144 29.2012 58.0679C28.9766 57.8693 28.6429 57.77 28.2002 57.77C27.7868 57.77 27.4808 57.8433 27.2822 57.9897C27.0869 58.133 26.9421 58.3885 26.8477 58.7563L25.9883 58.6392C26.0664 58.2713 26.195 57.9751 26.374 57.7505C26.5531 57.5226 26.8118 57.3485 27.1504 57.228C27.4889 57.1043 27.8812 57.0425 28.3271 57.0425C28.7699 57.0425 29.1296 57.0946 29.4062 57.1987C29.6829 57.3029 29.8864 57.4347 30.0166 57.5942C30.1468 57.7505 30.238 57.9491 30.29 58.1899C30.3193 58.3397 30.334 58.6099 30.334 59.0005V60.1724C30.334 60.9894 30.3519 61.507 30.3877 61.7251C30.4268 61.9399 30.5016 62.1466 30.6123 62.3452H29.6943C29.6032 62.1629 29.5446 61.9497 29.5186 61.7056ZM29.4453 59.7427C29.1263 59.8729 28.6478 59.9836 28.0098 60.0747C27.6484 60.1268 27.3929 60.1854 27.2432 60.2505C27.0934 60.3156 26.9779 60.4116 26.8965 60.5386C26.8151 60.6623 26.7744 60.8006 26.7744 60.9536C26.7744 61.188 26.8623 61.3833 27.0381 61.5396C27.2171 61.6958 27.4775 61.7739 27.8193 61.7739C28.1579 61.7739 28.459 61.7007 28.7227 61.5542C28.9863 61.4045 29.18 61.201 29.3037 60.9438C29.3981 60.7453 29.4453 60.4523 29.4453 60.0649V59.7427ZM31.6914 62.3452V57.1597H32.4824V57.9458C32.6842 57.578 32.8698 57.3354 33.0391 57.2183C33.2116 57.1011 33.4004 57.0425 33.6055 57.0425C33.9017 57.0425 34.2028 57.1369 34.5088 57.3257L34.2061 58.1411C33.9912 58.0142 33.7764 57.9507 33.5615 57.9507C33.3695 57.9507 33.1969 58.0093 33.0439 58.1265C32.891 58.2404 32.7819 58.3999 32.7168 58.605C32.6191 58.9175 32.5703 59.2593 32.5703 59.6304V62.3452H31.6914ZM38.5811 60.6753L39.4893 60.7876C39.346 61.3182 39.0807 61.73 38.6934 62.0229C38.306 62.3159 37.8112 62.4624 37.209 62.4624C36.4505 62.4624 35.8483 62.2297 35.4023 61.7642C34.9596 61.2954 34.7383 60.6395 34.7383 59.7964C34.7383 58.924 34.9629 58.2469 35.4121 57.7651C35.8613 57.2834 36.444 57.0425 37.1602 57.0425C37.8535 57.0425 38.4199 57.2785 38.8594 57.7505C39.2988 58.2225 39.5186 58.8866 39.5186 59.7427C39.5186 59.7948 39.5169 59.8729 39.5137 59.9771H35.6465C35.679 60.5467 35.8402 60.9829 36.1299 61.2856C36.4196 61.5884 36.7809 61.7397 37.2139 61.7397C37.5361 61.7397 37.8112 61.6551 38.0391 61.4858C38.2669 61.3166 38.4476 61.0464 38.5811 60.6753ZM35.6953 59.2544H38.5908C38.5518 58.8182 38.4411 58.491 38.2588 58.2729C37.9788 57.9344 37.6159 57.7651 37.1699 57.7651C36.7663 57.7651 36.4261 57.9002 36.1494 58.1704C35.876 58.4406 35.7246 58.8019 35.6953 59.2544ZM43.5078 62.3452V55.187H46.6816C47.3197 55.187 47.8047 55.2521 48.1367 55.3823C48.4688 55.5093 48.734 55.7355 48.9326 56.061C49.1312 56.3866 49.2305 56.7463 49.2305 57.1401C49.2305 57.6479 49.0661 58.076 48.7373 58.4243C48.4085 58.7726 47.9007 58.994 47.2139 59.0884C47.4645 59.2088 47.6549 59.3276 47.7852 59.4448C48.0618 59.6987 48.3239 60.0161 48.5713 60.397L49.8164 62.3452H48.625L47.6777 60.856C47.401 60.4263 47.1732 60.0975 46.9941 59.8696C46.8151 59.6418 46.654 59.4823 46.5107 59.3911C46.3708 59.3 46.2275 59.2365 46.0811 59.2007C45.9736 59.1779 45.7979 59.1665 45.5537 59.1665H44.4551V62.3452H43.5078ZM44.4551 58.3462H46.4912C46.9242 58.3462 47.2627 58.3022 47.5068 58.2144C47.751 58.1232 47.9365 57.98 48.0635 57.7847C48.1904 57.5861 48.2539 57.3713 48.2539 57.1401C48.2539 56.8016 48.1302 56.5233 47.8828 56.3052C47.6387 56.0871 47.2513 55.978 46.7207 55.978H44.4551V58.3462ZM54.1572 60.6753L55.0654 60.7876C54.9222 61.3182 54.6569 61.73 54.2695 62.0229C53.8822 62.3159 53.3874 62.4624 52.7852 62.4624C52.0267 62.4624 51.4245 62.2297 50.9785 61.7642C50.5358 61.2954 50.3145 60.6395 50.3145 59.7964C50.3145 58.924 50.5391 58.2469 50.9883 57.7651C51.4375 57.2834 52.0202 57.0425 52.7363 57.0425C53.4297 57.0425 53.9961 57.2785 54.4355 57.7505C54.875 58.2225 55.0947 58.8866 55.0947 59.7427C55.0947 59.7948 55.0931 59.8729 55.0898 59.9771H51.2227C51.2552 60.5467 51.4163 60.9829 51.7061 61.2856C51.9958 61.5884 52.3571 61.7397 52.79 61.7397C53.1123 61.7397 53.3874 61.6551 53.6152 61.4858C53.8431 61.3166 54.0238 61.0464 54.1572 60.6753ZM51.2715 59.2544H54.167C54.1279 58.8182 54.0173 58.491 53.835 58.2729C53.555 57.9344 53.1921 57.7651 52.7461 57.7651C52.3424 57.7651 52.0023 57.9002 51.7256 58.1704C51.4521 58.4406 51.3008 58.8019 51.2715 59.2544ZM56.1738 64.3325V57.1597H56.9746V57.8335C57.1634 57.5698 57.3766 57.3729 57.6143 57.2427C57.8519 57.1092 58.14 57.0425 58.4785 57.0425C58.9212 57.0425 59.3118 57.1564 59.6504 57.3843C59.9889 57.6121 60.2445 57.9344 60.417 58.3511C60.5895 58.7645 60.6758 59.2186 60.6758 59.7134C60.6758 60.244 60.5798 60.7225 60.3877 61.1489C60.1989 61.5721 59.9222 61.8976 59.5576 62.1255C59.1963 62.3501 58.8154 62.4624 58.415 62.4624C58.1221 62.4624 57.8584 62.4006 57.624 62.2769C57.3929 62.1532 57.2025 61.9969 57.0527 61.8081V64.3325H56.1738ZM56.9697 59.7817C56.9697 60.4491 57.1048 60.9422 57.375 61.2612C57.6452 61.5802 57.9723 61.7397 58.3564 61.7397C58.7471 61.7397 59.0807 61.5754 59.3574 61.2466C59.6374 60.9146 59.7773 60.4019 59.7773 59.7085C59.7773 59.0477 59.6406 58.5529 59.3672 58.2241C59.097 57.8953 58.7731 57.731 58.3955 57.731C58.0212 57.731 57.6891 57.9067 57.3994 58.2583C57.113 58.6066 56.9697 59.1144 56.9697 59.7817ZM61.4131 59.7524C61.4131 58.7922 61.68 58.0809 62.2139 57.6187C62.6598 57.2345 63.2035 57.0425 63.8447 57.0425C64.5576 57.0425 65.1403 57.2769 65.5928 57.7456C66.0452 58.2111 66.2715 58.8556 66.2715 59.6792C66.2715 60.3465 66.1706 60.8722 65.9688 61.2563C65.7702 61.6372 65.4788 61.9334 65.0947 62.145C64.7139 62.3566 64.2972 62.4624 63.8447 62.4624C63.1188 62.4624 62.5312 62.2297 62.082 61.7642C61.6361 61.2987 61.4131 60.6281 61.4131 59.7524ZM62.3164 59.7524C62.3164 60.4165 62.4613 60.9146 62.751 61.2466C63.0407 61.5754 63.4053 61.7397 63.8447 61.7397C64.2809 61.7397 64.6439 61.5737 64.9336 61.2417C65.2233 60.9097 65.3682 60.4035 65.3682 59.7231C65.3682 59.0819 65.2217 58.5968 64.9287 58.2681C64.639 57.936 64.2777 57.77 63.8447 57.77C63.4053 57.77 63.0407 57.9344 62.751 58.2632C62.4613 58.592 62.3164 59.0884 62.3164 59.7524ZM66.9551 60.7974L67.8242 60.6606C67.873 61.009 68.0081 61.2759 68.2295 61.4614C68.4541 61.647 68.7666 61.7397 69.167 61.7397C69.5706 61.7397 69.8701 61.6584 70.0654 61.4956C70.2607 61.3296 70.3584 61.1359 70.3584 60.9146C70.3584 60.716 70.2721 60.5597 70.0996 60.4458C69.9792 60.3677 69.6797 60.2684 69.2012 60.1479C68.5566 59.9852 68.109 59.8452 67.8584 59.728C67.611 59.6076 67.4222 59.4432 67.292 59.2349C67.165 59.0233 67.1016 58.7905 67.1016 58.5366C67.1016 58.3055 67.1536 58.0923 67.2578 57.897C67.3652 57.6984 67.5101 57.534 67.6924 57.4038C67.8291 57.3029 68.0146 57.2183 68.249 57.1499C68.4867 57.0783 68.7406 57.0425 69.0107 57.0425C69.4176 57.0425 69.7741 57.1011 70.0801 57.2183C70.3893 57.3354 70.6172 57.495 70.7637 57.6968C70.9102 57.8953 71.0111 58.1623 71.0664 58.4976L70.207 58.6147C70.168 58.3478 70.054 58.1395 69.8652 57.9897C69.6797 57.84 69.416 57.7651 69.0742 57.7651C68.6706 57.7651 68.3825 57.8319 68.21 57.9653C68.0374 58.0988 67.9512 58.255 67.9512 58.4341C67.9512 58.548 67.987 58.6506 68.0586 58.7417C68.1302 58.8361 68.2425 58.9142 68.3955 58.9761C68.4834 59.0086 68.7422 59.0835 69.1719 59.2007C69.7936 59.3667 70.2266 59.5034 70.4707 59.6108C70.7181 59.715 70.9118 59.868 71.0518 60.0698C71.1917 60.2716 71.2617 60.5223 71.2617 60.8218C71.2617 61.1147 71.1755 61.3914 71.0029 61.6519C70.8337 61.909 70.5879 62.1092 70.2656 62.2524C69.9434 62.3924 69.5788 62.4624 69.1719 62.4624C68.498 62.4624 67.9837 62.3224 67.6289 62.0425C67.2773 61.7625 67.0527 61.3475 66.9551 60.7974ZM72.3115 56.1978V55.187H73.1904V56.1978H72.3115ZM72.3115 62.3452V57.1597H73.1904V62.3452H72.3115ZM76.4521 61.5591L76.5791 62.3354C76.3317 62.3875 76.1104 62.4136 75.915 62.4136C75.596 62.4136 75.3486 62.3631 75.1729 62.2622C74.9971 62.1613 74.8734 62.0295 74.8018 61.8667C74.7301 61.7007 74.6943 61.354 74.6943 60.8267V57.8433H74.0498V57.1597H74.6943V55.8755L75.5684 55.3481V57.1597H76.4521V57.8433H75.5684V60.8755C75.5684 61.1261 75.583 61.2873 75.6123 61.3589C75.6449 61.4305 75.6953 61.4875 75.7637 61.5298C75.8353 61.5721 75.9362 61.5933 76.0664 61.5933C76.1641 61.5933 76.2926 61.5819 76.4521 61.5591ZM76.9893 59.7524C76.9893 58.7922 77.2562 58.0809 77.79 57.6187C78.236 57.2345 78.7796 57.0425 79.4209 57.0425C80.1338 57.0425 80.7165 57.2769 81.1689 57.7456C81.6214 58.2111 81.8477 58.8556 81.8477 59.6792C81.8477 60.3465 81.7467 60.8722 81.5449 61.2563C81.3464 61.6372 81.055 61.9334 80.6709 62.145C80.29 62.3566 79.8734 62.4624 79.4209 62.4624C78.695 62.4624 78.1074 62.2297 77.6582 61.7642C77.2122 61.2987 76.9893 60.6281 76.9893 59.7524ZM77.8926 59.7524C77.8926 60.4165 78.0374 60.9146 78.3271 61.2466C78.6169 61.5754 78.9814 61.7397 79.4209 61.7397C79.8571 61.7397 80.2201 61.5737 80.5098 61.2417C80.7995 60.9097 80.9443 60.4035 80.9443 59.7231C80.9443 59.0819 80.7979 58.5968 80.5049 58.2681C80.2152 57.936 79.8538 57.77 79.4209 57.77C78.9814 57.77 78.6169 57.9344 78.3271 58.2632C78.0374 58.592 77.8926 59.0884 77.8926 59.7524ZM82.873 62.3452V57.1597H83.6641V57.9458C83.8659 57.578 84.0514 57.3354 84.2207 57.2183C84.3932 57.1011 84.582 57.0425 84.7871 57.0425C85.0833 57.0425 85.3844 57.1369 85.6904 57.3257L85.3877 58.1411C85.1729 58.0142 84.958 57.9507 84.7432 57.9507C84.5511 57.9507 84.3786 58.0093 84.2256 58.1265C84.0726 58.2404 83.9635 58.3999 83.8984 58.605C83.8008 58.9175 83.752 59.2593 83.752 59.6304V62.3452H82.873ZM86.1738 64.3423L86.0762 63.5171C86.2682 63.5692 86.4359 63.5952 86.5791 63.5952C86.7744 63.5952 86.9307 63.5627 87.0479 63.4976C87.165 63.4325 87.2611 63.3413 87.3359 63.2241C87.3913 63.1362 87.4808 62.9181 87.6045 62.5698C87.6208 62.521 87.6468 62.4494 87.6826 62.355L85.7148 57.1597H86.6621L87.7412 60.1626C87.8812 60.5435 88.0065 60.9438 88.1172 61.3638C88.2181 60.9601 88.3385 60.5662 88.4785 60.1821L89.5869 57.1597H90.4658L88.4932 62.4331C88.2816 63.0028 88.1172 63.395 88 63.6099C87.8438 63.8996 87.6647 64.1112 87.4629 64.2446C87.2611 64.3813 87.0202 64.4497 86.7402 64.4497C86.571 64.4497 86.3822 64.4139 86.1738 64.3423Z" fill="#2A303D"/>
</svg>
