<svg width="90" height="56" viewBox="0 0 90 56" fill="none" xmlns="http://www.w3.org/2000/svg">
<rect x="30.4365" width="29.1267" height="22.4902" rx="1.09225" fill="#FF8B4D"/>
<rect x="31.1743" y="3.68701" width="27.6519" height="18.0659" rx="1.09225" fill="white"/>
<circle cx="57.1663" cy="1.84405" r="0.553039" fill="white"/>
<circle cx="55.3226" cy="1.84405" r="0.553039" fill="white"/>
<circle cx="53.4798" cy="1.84405" r="0.553039" fill="white"/>
<path d="M49.7906 18.7184L49.7967 18.7075C49.8852 18.5586 49.9256 18.386 49.9125 18.2133L49.9063 17.4711V16.42C49.9107 16.3434 49.9022 16.2666 49.8813 16.1928C49.8634 16.1379 49.8289 16.09 49.7827 16.0555C49.7364 16.0211 49.6805 16.0019 49.6229 16.0005C49.5632 16.0011 49.5056 16.0221 49.4597 16.0601C49.4138 16.0982 49.3823 16.1508 49.3706 16.2093C49.3622 16.2676 49.3414 16.3235 49.3097 16.3731C49.2779 16.4228 49.2358 16.465 49.1863 16.497C48.9771 16.6448 48.7453 16.7578 48.4999 16.8315C48.0456 16.9789 47.579 17.0856 47.1058 17.1504C46.8507 17.1904 46.5945 17.2206 46.3372 17.2411C46.0665 17.2619 45.7948 17.2803 45.5241 17.2883C45.1122 17.2978 44.6997 17.3025 44.2868 17.2723C43.9122 17.2449 43.5371 17.225 43.1639 17.1778C42.9357 17.1485 42.7089 17.114 42.4831 17.0724C42.2277 17.026 41.9753 16.9643 41.7272 16.8877C41.4566 16.8188 41.1978 16.7097 40.9595 16.5641C40.8878 16.53 40.8253 16.4792 40.7771 16.416C40.729 16.3528 40.6966 16.279 40.6827 16.2008C40.67 16.1437 40.6379 16.0928 40.5918 16.0567C40.5456 16.0207 40.4884 16.0018 40.43 16.0033C40.3722 16.0053 40.3166 16.0253 40.2708 16.0606C40.2251 16.0958 40.1915 16.1445 40.1748 16.1999C40.1558 16.2635 40.1477 16.33 40.1508 16.3964C40.1508 16.66 40.1508 16.9236 40.1508 17.1872L40.147 18.0003C40.147 18.0111 40.147 18.022 40.147 18.0333V18.1481H40.1503C40.1503 18.211 40.1503 18.2738 40.1545 18.3371C40.1565 18.4347 40.1774 18.5309 40.2159 18.6206C40.3431 18.8721 40.553 19.0723 40.8103 19.1875C41.1665 19.3674 41.5435 19.503 41.9327 19.5914C42.2441 19.6708 42.5615 19.726 42.8776 19.7742C43.1421 19.8144 43.4091 19.8437 43.676 19.8687C43.9514 19.8928 44.2287 19.906 44.5041 19.9122C44.9369 19.9221 45.3696 19.9263 45.8033 19.8971C46.1813 19.8711 46.5625 19.8498 46.9404 19.8026C47.2239 19.7657 47.5073 19.7213 47.787 19.6656C48.1305 19.599 48.4684 19.5059 48.7975 19.3873C49.1038 19.2916 49.3867 19.1333 49.6285 18.9224C49.6891 18.8664 49.7422 18.8029 49.7868 18.7335L49.7906 18.7184Z" fill="#FF8B4D"/>
<path d="M40.1939 14.268C40.2614 14.4438 40.3798 14.5955 40.5341 14.7036C40.7562 14.8645 41.0013 14.991 41.2611 15.0787C41.4029 15.1297 41.427 15.1732 41.3972 15.3177C41.3949 15.3303 41.3938 15.3431 41.3939 15.356C41.3939 15.5662 41.3911 15.7764 41.3939 15.9867C41.3953 16.0408 41.4139 16.0932 41.447 16.1361C41.4801 16.179 41.5261 16.2102 41.5781 16.2252C41.9758 16.3395 42.3804 16.428 42.7894 16.4903C43.0463 16.5347 43.3052 16.5663 43.5652 16.5847C43.8741 16.6046 44.1821 16.6414 44.493 16.6367C44.5185 16.6367 44.544 16.641 44.5695 16.6429C44.7384 16.655 44.9078 16.6567 45.0769 16.648C45.1339 16.6447 45.1875 16.62 45.227 16.5788C45.2665 16.5377 45.289 16.4831 45.29 16.426C45.2932 16.3966 45.2905 16.3668 45.2821 16.3385C45.2736 16.3101 45.2597 16.2837 45.2409 16.2608C45.2222 16.2379 45.1991 16.2189 45.173 16.205C45.1468 16.1911 45.1182 16.1826 45.0887 16.1799C44.9485 16.1661 44.8077 16.1601 44.6669 16.1619C44.3551 16.1501 44.0433 16.1435 43.7319 16.1147C43.4598 16.0895 43.1885 16.0589 42.9179 16.023C42.6208 15.9833 42.3302 15.9163 42.0369 15.8591C41.9107 15.8345 41.8862 15.8019 41.8866 15.6701C41.8866 15.5931 41.8866 15.5161 41.8866 15.4391C41.8895 15.3342 41.9429 15.2894 42.0444 15.3092C42.189 15.3371 42.3331 15.3673 42.4772 15.3966C42.7578 15.4547 43.0441 15.4911 43.3275 15.5204C43.6398 15.5539 43.954 15.5832 44.2691 15.5903C44.5346 15.596 44.8006 15.6196 45.0661 15.6134C45.3401 15.6073 45.6136 15.5931 45.8876 15.5879C46.0055 15.5875 46.1233 15.5809 46.2405 15.5681C46.5674 15.527 46.8967 15.5128 47.2222 15.4547C47.4674 15.4108 47.714 15.3744 47.9568 15.3168C48.0598 15.2922 48.1321 15.3281 48.1349 15.4113C48.1382 15.5242 48.1349 15.6371 48.1349 15.75C48.1364 15.7733 48.1298 15.7965 48.1161 15.8155C48.1024 15.8344 48.0825 15.848 48.0598 15.8539C47.9937 15.8737 47.9266 15.8903 47.859 15.904C47.6937 15.9371 47.5283 15.9668 47.363 15.9985C47.3189 16.0087 47.279 16.0324 47.2489 16.0662C47.2188 16.1001 47.1999 16.1424 47.1948 16.1874C47.1879 16.2284 47.1917 16.2706 47.2058 16.3097C47.22 16.3488 47.244 16.3835 47.2756 16.4106C47.3072 16.4377 47.3452 16.4561 47.386 16.4641C47.4268 16.4721 47.469 16.4694 47.5085 16.4562C47.7948 16.4052 48.0801 16.3471 48.3617 16.272C48.5653 16.2177 48.6277 16.1445 48.6277 15.9304C48.6277 15.7023 48.6277 15.4741 48.6277 15.2459C48.6234 15.2144 48.6306 15.1824 48.648 15.1557C48.6653 15.129 48.6916 15.1094 48.7221 15.1004C48.9711 15.0152 49.209 14.9008 49.4308 14.7593C49.5814 14.673 49.7052 14.5468 49.7886 14.3946C49.872 14.2423 49.9116 14.07 49.9032 13.8966C49.8938 13.6047 49.9032 13.3123 49.9032 13.0198C49.9032 12.7014 49.9032 12.3833 49.9032 12.0655C49.9038 12.0093 49.8964 11.9533 49.881 11.8992C49.8732 11.8653 49.8588 11.8333 49.8386 11.8051C49.8183 11.7768 49.7927 11.7528 49.7631 11.7345C49.7335 11.7163 49.7006 11.704 49.6663 11.6986C49.6319 11.6931 49.5969 11.6945 49.5631 11.7027C49.5034 11.7149 49.4503 11.7483 49.4136 11.7969C49.3769 11.8454 49.3591 11.9056 49.3637 11.9663C49.3667 12.01 49.3601 12.0538 49.3444 12.0946C49.3286 12.1354 49.3041 12.1722 49.2725 12.2025C49.1903 12.2835 49.0969 12.3522 48.9952 12.4066C48.7453 12.536 48.4818 12.6375 48.2096 12.709C47.9118 12.7917 47.6094 12.8567 47.3039 12.9036C47.1348 12.9301 46.9654 12.9537 46.7956 12.9745C46.6591 12.9915 46.5225 13.0057 46.386 13.0184C46.3246 13.0288 46.2282 13.0368 46.1111 13.0434C45.8881 13.0567 44.2318 13.0581 44.2318 13.0581C43.9861 13.0463 43.7414 13.0269 43.4971 13.0024C43.2782 12.9803 43.0606 12.9524 42.8442 12.9187C42.7049 12.897 42.565 12.8809 42.428 12.8507C42.135 12.7914 41.8456 12.7155 41.5611 12.6235C41.326 12.5523 41.103 12.4459 40.8997 12.3079C40.8367 12.2757 40.7837 12.2268 40.7464 12.1666C40.7092 12.1064 40.6892 12.0371 40.6886 11.9663C40.693 11.9121 40.6795 11.8579 40.6503 11.812C40.621 11.7661 40.5776 11.731 40.5265 11.7122C40.4716 11.6921 40.4117 11.6904 40.3557 11.7075C40.2998 11.7245 40.251 11.7593 40.2166 11.8066C40.1716 11.8663 40.1481 11.9394 40.15 12.014C40.15 12.1761 40.15 12.3377 40.15 12.4992V13.368C40.15 13.5834 40.15 13.7989 40.15 14.0143C40.1506 14.1007 40.1655 14.1864 40.1939 14.268Z" fill="#FF8B4D"/>
<path d="M40.1487 9.07584C40.1492 9.08418 40.1492 9.09254 40.1487 9.10088C40.1459 9.31395 40.1487 9.52606 40.1487 9.73959C40.1485 9.83147 40.1553 9.92323 40.169 10.0141C40.2108 10.2302 40.3346 10.4218 40.5144 10.5489C40.7525 10.7271 41.0187 10.8644 41.3019 10.9551C41.3323 10.9631 41.3587 10.9819 41.3761 11.008C41.3936 11.0341 41.4008 11.0658 41.3964 11.0969C41.3912 11.3199 41.3921 11.5433 41.3926 11.7668C41.3911 11.8211 41.4073 11.8744 41.4387 11.9187C41.4702 11.9631 41.5152 11.9959 41.5669 12.0124C41.6742 12.0455 41.7819 12.0786 41.8915 12.1069C42.1943 12.1787 42.5 12.2401 42.8071 12.2883C43.0721 12.3299 43.339 12.3644 43.6064 12.3828C43.9484 12.4041 44.2895 12.4466 44.633 12.4348C44.697 12.4339 44.7611 12.4371 44.8248 12.4442C44.9015 12.4516 44.9787 12.4516 45.0553 12.4442C45.12 12.4424 45.1813 12.415 45.2257 12.368C45.2701 12.321 45.2941 12.2583 45.2922 12.1936C45.2904 12.1289 45.263 12.0677 45.216 12.0232C45.169 11.9788 45.1063 11.9549 45.0416 11.9567C44.6136 11.9538 44.1861 11.9529 43.7595 11.9094C43.5738 11.8915 43.3877 11.8764 43.2025 11.8537C42.9266 11.8197 42.6507 11.7809 42.3786 11.7209C42.2439 11.6912 42.1079 11.6694 41.9756 11.6265C41.9283 11.6113 41.8891 11.5873 41.8872 11.532C41.8849 11.4375 41.8839 11.3473 41.8872 11.2551C41.8891 11.2398 41.894 11.225 41.9017 11.2117C41.9095 11.1983 41.9198 11.1867 41.9322 11.1775C41.9446 11.1683 41.9587 11.1617 41.9737 11.1582C41.9888 11.1546 42.0043 11.1542 42.0195 11.1569C42.1679 11.1951 42.319 11.2202 42.4688 11.2514C42.6937 11.2986 42.9214 11.3265 43.1482 11.3605C43.34 11.3898 43.5351 11.395 43.7288 11.4134C44.119 11.4502 44.5111 11.4606 44.9027 11.4691C45.1389 11.4753 45.3794 11.4611 45.6175 11.4569C45.7096 11.4569 45.8013 11.4502 45.8939 11.4436C46.2685 11.4158 46.6427 11.3926 47.0159 11.3402C47.2332 11.3099 47.4491 11.2721 47.6659 11.2367C47.7846 11.2059 47.9059 11.1863 48.0283 11.1781C48.0973 11.1781 48.1336 11.2112 48.1336 11.2816C48.1336 11.3662 48.1336 11.4507 48.1336 11.5353C48.1351 11.5613 48.1272 11.587 48.1114 11.6077C48.0957 11.6285 48.0731 11.643 48.0477 11.6487C47.9744 11.6704 47.8989 11.685 47.8237 11.7002C47.6763 11.7304 47.5271 11.7531 47.382 11.7909C47.3275 11.8063 47.2805 11.8412 47.2499 11.8888C47.2193 11.9365 47.2071 11.9938 47.2157 12.0498C47.2263 12.1127 47.2613 12.1689 47.3132 12.206C47.3651 12.2431 47.4296 12.2581 47.4926 12.2477C47.785 12.2005 48.0736 12.1362 48.3604 12.063C48.5612 12.012 48.6254 11.9359 48.6259 11.729C48.6264 11.5221 48.6259 11.3132 48.6259 11.1054C48.622 11.0723 48.6305 11.0389 48.6496 11.0116C48.6688 10.9843 48.6974 10.9651 48.7298 10.9575C49.0233 10.8644 49.2992 10.7231 49.5462 10.5394C49.6485 10.4678 49.7333 10.374 49.7943 10.265C49.8553 10.1561 49.891 10.0348 49.8986 9.91014C49.9126 9.74008 49.914 9.56923 49.9029 9.39897V8.48342C49.9071 8.40452 49.9029 8.32421 49.9029 8.24437V8.17446C49.9029 8.06816 49.9071 7.96186 49.9029 7.85556C49.899 7.75594 49.8782 7.65771 49.8415 7.56503C49.7615 7.39188 49.6347 7.2446 49.4753 7.13985C49.2381 6.97816 48.9785 6.85209 48.7048 6.76568C48.599 6.72741 48.4903 6.69717 48.3821 6.66599C48.274 6.63481 48.1714 6.60269 48.0637 6.58285C47.956 6.56301 47.862 6.52664 47.7557 6.51294C47.5885 6.49121 47.4217 6.45718 47.2554 6.42789C46.963 6.3764 46.6672 6.3542 46.3734 6.31925C46.1069 6.28712 45.8367 6.28334 45.5703 6.272C45.1711 6.25877 44.7705 6.25404 44.3703 6.27955C43.9546 6.30601 43.5388 6.3268 43.125 6.38112C42.8888 6.41419 42.6488 6.44585 42.4126 6.48979C42.1646 6.53703 41.9184 6.59183 41.6751 6.66128C41.3151 6.75266 40.9702 6.89588 40.6514 7.08646C40.4935 7.16869 40.3622 7.29421 40.273 7.44832C40.1838 7.60243 40.1404 7.77877 40.1478 7.95667C40.1506 8.01289 40.1506 8.06958 40.1501 8.1258L40.1487 9.07584ZM40.7558 7.70581C40.8478 7.60543 40.9573 7.52266 41.0789 7.46157C41.3957 7.31001 41.7285 7.19449 42.071 7.11717C42.3337 7.05103 42.5992 7 42.8661 6.95937C43.0726 6.92819 43.2818 6.90647 43.4897 6.88332C43.7165 6.85781 43.9437 6.85497 44.17 6.82946C44.4563 6.79733 44.744 6.82095 45.0308 6.81056C45.4054 6.803 45.7791 6.81624 46.1528 6.84458C46.389 6.86206 46.6252 6.87718 46.8553 6.91025C47.2063 6.95986 47.5582 7.00945 47.9031 7.09401C48.2355 7.16581 48.5597 7.27141 48.8706 7.40913C49.0342 7.47761 49.1814 7.58002 49.3024 7.70959C49.3851 7.80407 49.3851 7.84801 49.3024 7.9425C49.1513 8.10035 48.9652 8.22042 48.7591 8.29303C48.4869 8.40388 48.2057 8.4916 47.9187 8.55523C47.7127 8.60247 47.5044 8.64594 47.2941 8.6757C47.1052 8.70216 46.9205 8.73333 46.7324 8.75128C46.5973 8.76451 46.4627 8.78199 46.3276 8.79475C46.2987 8.80206 46.2693 8.80742 46.2397 8.81081C45.7297 8.85159 45.2178 8.86089 44.7067 8.83868C44.6971 8.8409 44.6872 8.84202 44.6774 8.84199C44.4029 8.84955 44.1303 8.81458 43.8568 8.8023C43.6621 8.7938 43.4694 8.76828 43.2762 8.74702C43.0277 8.71915 42.7801 8.68325 42.534 8.63554C42.3512 8.59963 42.1674 8.56515 41.9879 8.51649C41.6039 8.43575 41.2373 8.28797 40.9046 8.07997C40.8481 8.03934 40.797 7.99173 40.7525 7.93825C40.6726 7.84896 40.6726 7.79652 40.7548 7.70629L40.7558 7.70581Z" fill="#FF8B4D"/>
<path d="M4.90234 39.4902V32.332H7.36816C7.9248 32.332 8.34961 32.3662 8.64258 32.4346C9.05273 32.529 9.40267 32.6999 9.69238 32.9473C10.07 33.2663 10.3516 33.6748 10.5371 34.1729C10.7259 34.6676 10.8203 35.234 10.8203 35.8721C10.8203 36.4157 10.7568 36.8975 10.6299 37.3174C10.5029 37.7373 10.3402 38.0856 10.1416 38.3623C9.94303 38.6357 9.72493 38.8522 9.4873 39.0117C9.25293 39.168 8.9681 39.2868 8.63281 39.3682C8.30078 39.4495 7.91829 39.4902 7.48535 39.4902H4.90234ZM5.84961 38.6455H7.37793C7.84993 38.6455 8.2194 38.6016 8.48633 38.5137C8.75651 38.4258 8.97135 38.3021 9.13086 38.1426C9.35547 37.918 9.52962 37.6169 9.65332 37.2393C9.78027 36.8584 9.84375 36.3978 9.84375 35.8574C9.84375 35.1087 9.72005 34.5342 9.47266 34.1338C9.22852 33.7301 8.93066 33.46 8.5791 33.3232C8.3252 33.2256 7.91667 33.1768 7.35352 33.1768H5.84961V38.6455ZM12.0215 33.3428V32.332H12.9004V33.3428H12.0215ZM12.0215 39.4902V34.3047H12.9004V39.4902H12.0215ZM13.8916 37.9424L14.7607 37.8057C14.8096 38.154 14.9447 38.4209 15.166 38.6064C15.3906 38.792 15.7031 38.8848 16.1035 38.8848C16.5072 38.8848 16.8066 38.8034 17.002 38.6406C17.1973 38.4746 17.2949 38.2809 17.2949 38.0596C17.2949 37.861 17.2087 37.7048 17.0361 37.5908C16.9157 37.5127 16.6162 37.4134 16.1377 37.293C15.4932 37.1302 15.0456 36.9902 14.7949 36.873C14.5475 36.7526 14.3587 36.5882 14.2285 36.3799C14.1016 36.1683 14.0381 35.9355 14.0381 35.6816C14.0381 35.4505 14.0902 35.2373 14.1943 35.042C14.3018 34.8434 14.4466 34.679 14.6289 34.5488C14.7656 34.4479 14.9512 34.3633 15.1855 34.2949C15.4232 34.2233 15.6771 34.1875 15.9473 34.1875C16.3542 34.1875 16.7106 34.2461 17.0166 34.3633C17.3258 34.4805 17.5537 34.64 17.7002 34.8418C17.8467 35.0404 17.9476 35.3073 18.0029 35.6426L17.1436 35.7598C17.1045 35.4928 16.9906 35.2845 16.8018 35.1348C16.6162 34.985 16.3525 34.9102 16.0107 34.9102C15.6071 34.9102 15.319 34.9769 15.1465 35.1104C14.974 35.2438 14.8877 35.4001 14.8877 35.5791C14.8877 35.693 14.9235 35.7956 14.9951 35.8867C15.0667 35.9811 15.179 36.0592 15.332 36.1211C15.4199 36.1536 15.6787 36.2285 16.1084 36.3457C16.7301 36.5117 17.1631 36.6484 17.4072 36.7559C17.6546 36.86 17.8483 37.013 17.9883 37.2148C18.1283 37.4167 18.1982 37.6673 18.1982 37.9668C18.1982 38.2598 18.112 38.5365 17.9395 38.7969C17.7702 39.054 17.5244 39.2542 17.2021 39.3975C16.8799 39.5374 16.5153 39.6074 16.1084 39.6074C15.4346 39.6074 14.9202 39.4674 14.5654 39.1875C14.2139 38.9076 13.9893 38.4925 13.8916 37.9424ZM22.627 38.8506C22.3014 39.1273 21.9873 39.3226 21.6846 39.4365C21.3851 39.5505 21.0628 39.6074 20.7178 39.6074C20.1481 39.6074 19.7103 39.4691 19.4043 39.1924C19.0983 38.9124 18.9453 38.556 18.9453 38.123C18.9453 37.8691 19.0023 37.638 19.1162 37.4297C19.2334 37.2181 19.3848 37.0488 19.5703 36.9219C19.7591 36.7949 19.9707 36.6989 20.2051 36.6338C20.3776 36.5882 20.638 36.5443 20.9863 36.502C21.696 36.4173 22.2184 36.3164 22.5537 36.1992C22.557 36.0788 22.5586 36.0023 22.5586 35.9697C22.5586 35.6117 22.4756 35.3594 22.3096 35.2129C22.085 35.0143 21.7513 34.915 21.3086 34.915C20.8952 34.915 20.5892 34.9883 20.3906 35.1348C20.1953 35.278 20.0505 35.5335 19.9561 35.9014L19.0967 35.7842C19.1748 35.4163 19.3034 35.1201 19.4824 34.8955C19.6615 34.6676 19.9202 34.4935 20.2588 34.373C20.5973 34.2493 20.9896 34.1875 21.4355 34.1875C21.8783 34.1875 22.238 34.2396 22.5146 34.3438C22.7913 34.4479 22.9948 34.5798 23.125 34.7393C23.2552 34.8955 23.3464 35.0941 23.3984 35.335C23.4277 35.4847 23.4424 35.7549 23.4424 36.1455V37.3174C23.4424 38.1344 23.4603 38.652 23.4961 38.8701C23.5352 39.085 23.61 39.2917 23.7207 39.4902H22.8027C22.7116 39.3079 22.653 39.0947 22.627 38.8506ZM22.5537 36.8877C22.2347 37.0179 21.7562 37.1286 21.1182 37.2197C20.7568 37.2718 20.5013 37.3304 20.3516 37.3955C20.2018 37.4606 20.0863 37.5566 20.0049 37.6836C19.9235 37.8073 19.8828 37.9456 19.8828 38.0986C19.8828 38.333 19.9707 38.5283 20.1465 38.6846C20.3255 38.8408 20.5859 38.9189 20.9277 38.9189C21.2663 38.9189 21.5674 38.8457 21.8311 38.6992C22.0947 38.5495 22.2884 38.346 22.4121 38.0889C22.5065 37.8903 22.5537 37.5973 22.5537 37.21V36.8877ZM24.458 37.9424L25.3271 37.8057C25.376 38.154 25.5111 38.4209 25.7324 38.6064C25.957 38.792 26.2695 38.8848 26.6699 38.8848C27.0736 38.8848 27.373 38.8034 27.5684 38.6406C27.7637 38.4746 27.8613 38.2809 27.8613 38.0596C27.8613 37.861 27.7751 37.7048 27.6025 37.5908C27.4821 37.5127 27.1826 37.4134 26.7041 37.293C26.0596 37.1302 25.612 36.9902 25.3613 36.873C25.1139 36.7526 24.9251 36.5882 24.7949 36.3799C24.668 36.1683 24.6045 35.9355 24.6045 35.6816C24.6045 35.4505 24.6566 35.2373 24.7607 35.042C24.8682 34.8434 25.013 34.679 25.1953 34.5488C25.332 34.4479 25.5176 34.3633 25.752 34.2949C25.9896 34.2233 26.2435 34.1875 26.5137 34.1875C26.9206 34.1875 27.277 34.2461 27.583 34.3633C27.8923 34.4805 28.1201 34.64 28.2666 34.8418C28.4131 35.0404 28.514 35.3073 28.5693 35.6426L27.71 35.7598C27.6709 35.4928 27.557 35.2845 27.3682 35.1348C27.1826 34.985 26.9189 34.9102 26.5771 34.9102C26.1735 34.9102 25.8854 34.9769 25.7129 35.1104C25.5404 35.2438 25.4541 35.4001 25.4541 35.5791C25.4541 35.693 25.4899 35.7956 25.5615 35.8867C25.6331 35.9811 25.7454 36.0592 25.8984 36.1211C25.9863 36.1536 26.2451 36.2285 26.6748 36.3457C27.2965 36.5117 27.7295 36.6484 27.9736 36.7559C28.221 36.86 28.4147 37.013 28.5547 37.2148C28.6947 37.4167 28.7646 37.6673 28.7646 37.9668C28.7646 38.2598 28.6784 38.5365 28.5059 38.7969C28.3366 39.054 28.0908 39.2542 27.7686 39.3975C27.4463 39.5374 27.0817 39.6074 26.6748 39.6074C26.001 39.6074 25.4867 39.4674 25.1318 39.1875C24.7803 38.9076 24.5557 38.4925 24.458 37.9424ZM31.7285 38.7041L31.8555 39.4805C31.6081 39.5326 31.3867 39.5586 31.1914 39.5586C30.8724 39.5586 30.625 39.5081 30.4492 39.4072C30.2734 39.3063 30.1497 39.1745 30.0781 39.0117C30.0065 38.8457 29.9707 38.499 29.9707 37.9717V34.9883H29.3262V34.3047H29.9707V33.0205L30.8447 32.4932V34.3047H31.7285V34.9883H30.8447V38.0205C30.8447 38.2712 30.8594 38.4323 30.8887 38.5039C30.9212 38.5755 30.9717 38.6325 31.04 38.6748C31.1117 38.7171 31.2126 38.7383 31.3428 38.7383C31.4404 38.7383 31.569 38.7269 31.7285 38.7041ZM36.1426 37.8203L37.0508 37.9326C36.9076 38.4632 36.6423 38.875 36.2549 39.168C35.8675 39.4609 35.3727 39.6074 34.7705 39.6074C34.012 39.6074 33.4098 39.3747 32.9639 38.9092C32.5212 38.4404 32.2998 37.7845 32.2998 36.9414C32.2998 36.069 32.5244 35.3919 32.9736 34.9102C33.4229 34.4284 34.0055 34.1875 34.7217 34.1875C35.415 34.1875 35.9814 34.4235 36.4209 34.8955C36.8604 35.3675 37.0801 36.0316 37.0801 36.8877C37.0801 36.9398 37.0785 37.0179 37.0752 37.1221H33.208C33.2406 37.6917 33.4017 38.1279 33.6914 38.4307C33.9811 38.7334 34.3424 38.8848 34.7754 38.8848C35.0977 38.8848 35.3727 38.8001 35.6006 38.6309C35.8285 38.4616 36.0091 38.1914 36.1426 37.8203ZM33.2568 36.3994H36.1523C36.1133 35.9632 36.0026 35.6361 35.8203 35.418C35.5404 35.0794 35.1774 34.9102 34.7314 34.9102C34.3278 34.9102 33.9876 35.0452 33.7109 35.3154C33.4375 35.5856 33.2861 35.9469 33.2568 36.3994ZM38.1494 39.4902V34.3047H38.9404V35.0908C39.1423 34.723 39.3278 34.4805 39.4971 34.3633C39.6696 34.2461 39.8584 34.1875 40.0635 34.1875C40.3597 34.1875 40.6608 34.2819 40.9668 34.4707L40.6641 35.2861C40.4492 35.1592 40.2344 35.0957 40.0195 35.0957C39.8275 35.0957 39.6549 35.1543 39.502 35.2715C39.349 35.3854 39.2399 35.5449 39.1748 35.75C39.0771 36.0625 39.0283 36.4043 39.0283 36.7754V39.4902H38.1494ZM44.3994 39.4902V32.332H47.5732C48.2113 32.332 48.6963 32.3971 49.0283 32.5273C49.3604 32.6543 49.6257 32.8805 49.8242 33.2061C50.0228 33.5316 50.1221 33.8913 50.1221 34.2852C50.1221 34.793 49.9577 35.221 49.6289 35.5693C49.3001 35.9176 48.7923 36.139 48.1055 36.2334C48.3561 36.3538 48.5465 36.4727 48.6768 36.5898C48.9535 36.8438 49.2155 37.1611 49.4629 37.542L50.708 39.4902H49.5166L48.5693 38.001C48.2926 37.5713 48.0648 37.2425 47.8857 37.0146C47.7067 36.7868 47.5456 36.6273 47.4023 36.5361C47.2624 36.445 47.1191 36.3815 46.9727 36.3457C46.8652 36.3229 46.6895 36.3115 46.4453 36.3115H45.3467V39.4902H44.3994ZM45.3467 35.4912H47.3828C47.8158 35.4912 48.1543 35.4473 48.3984 35.3594C48.6426 35.2682 48.8281 35.125 48.9551 34.9297C49.082 34.7311 49.1455 34.5163 49.1455 34.2852C49.1455 33.9466 49.0218 33.6683 48.7744 33.4502C48.5303 33.2321 48.1429 33.123 47.6123 33.123H45.3467V35.4912ZM55.0488 37.8203L55.957 37.9326C55.8138 38.4632 55.5485 38.875 55.1611 39.168C54.7738 39.4609 54.279 39.6074 53.6768 39.6074C52.9183 39.6074 52.3161 39.3747 51.8701 38.9092C51.4274 38.4404 51.2061 37.7845 51.2061 36.9414C51.2061 36.069 51.4307 35.3919 51.8799 34.9102C52.3291 34.4284 52.9118 34.1875 53.6279 34.1875C54.3213 34.1875 54.8877 34.4235 55.3271 34.8955C55.7666 35.3675 55.9863 36.0316 55.9863 36.8877C55.9863 36.9398 55.9847 37.0179 55.9814 37.1221H52.1143C52.1468 37.6917 52.3079 38.1279 52.5977 38.4307C52.8874 38.7334 53.2487 38.8848 53.6816 38.8848C54.0039 38.8848 54.279 38.8001 54.5068 38.6309C54.7347 38.4616 54.9154 38.1914 55.0488 37.8203ZM52.1631 36.3994H55.0586C55.0195 35.9632 54.9089 35.6361 54.7266 35.418C54.4466 35.0794 54.0837 34.9102 53.6377 34.9102C53.234 34.9102 52.8939 35.0452 52.6172 35.3154C52.3438 35.5856 52.1924 35.9469 52.1631 36.3994ZM60.4492 37.5908L61.3135 37.7031C61.2191 38.2988 60.9766 38.766 60.5859 39.1045C60.1986 39.4398 59.7217 39.6074 59.1553 39.6074C58.4456 39.6074 57.8743 39.3763 57.4414 38.9141C57.0117 38.4486 56.7969 37.7829 56.7969 36.917C56.7969 36.3571 56.8896 35.8672 57.0752 35.4473C57.2607 35.0273 57.5423 34.7132 57.9199 34.5049C58.3008 34.2933 58.7142 34.1875 59.1602 34.1875C59.7233 34.1875 60.1839 34.3307 60.542 34.6172C60.9001 34.9004 61.1296 35.304 61.2305 35.8281L60.376 35.96C60.2946 35.6117 60.1497 35.3496 59.9414 35.1738C59.7363 34.998 59.4873 34.9102 59.1943 34.9102C58.7516 34.9102 58.3919 35.0697 58.1152 35.3887C57.8385 35.7044 57.7002 36.2057 57.7002 36.8926C57.7002 37.5892 57.8337 38.0954 58.1006 38.4111C58.3675 38.7269 58.7158 38.8848 59.1455 38.8848C59.4906 38.8848 59.7786 38.779 60.0098 38.5674C60.2409 38.3558 60.3874 38.0303 60.4492 37.5908ZM61.7383 36.8975C61.7383 35.9372 62.0052 35.2259 62.5391 34.7637C62.985 34.3796 63.5286 34.1875 64.1699 34.1875C64.8828 34.1875 65.4655 34.4219 65.918 34.8906C66.3704 35.3561 66.5967 36.0007 66.5967 36.8242C66.5967 37.4915 66.4958 38.0173 66.2939 38.4014C66.0954 38.7822 65.804 39.0785 65.4199 39.29C65.0391 39.5016 64.6224 39.6074 64.1699 39.6074C63.444 39.6074 62.8564 39.3747 62.4072 38.9092C61.9613 38.4437 61.7383 37.7731 61.7383 36.8975ZM62.6416 36.8975C62.6416 37.5615 62.7865 38.0596 63.0762 38.3916C63.3659 38.7204 63.7305 38.8848 64.1699 38.8848C64.6061 38.8848 64.9691 38.7188 65.2588 38.3867C65.5485 38.0547 65.6934 37.5485 65.6934 36.8682C65.6934 36.2269 65.5469 35.7419 65.2539 35.4131C64.9642 35.0811 64.6029 34.915 64.1699 34.915C63.7305 34.915 63.3659 35.0794 63.0762 35.4082C62.7865 35.737 62.6416 36.2334 62.6416 36.8975ZM69.0723 39.4902L67.0996 34.3047H68.0273L69.1406 37.4102C69.2611 37.7454 69.3717 38.0938 69.4727 38.4551C69.5508 38.1816 69.6598 37.8529 69.7998 37.4688L70.9521 34.3047H71.8555L69.8926 39.4902H69.0723ZM76.1816 37.8203L77.0898 37.9326C76.9466 38.4632 76.6813 38.875 76.2939 39.168C75.9066 39.4609 75.4118 39.6074 74.8096 39.6074C74.0511 39.6074 73.4489 39.3747 73.0029 38.9092C72.5602 38.4404 72.3389 37.7845 72.3389 36.9414C72.3389 36.069 72.5635 35.3919 73.0127 34.9102C73.4619 34.4284 74.0446 34.1875 74.7607 34.1875C75.4541 34.1875 76.0205 34.4235 76.46 34.8955C76.8994 35.3675 77.1191 36.0316 77.1191 36.8877C77.1191 36.9398 77.1175 37.0179 77.1143 37.1221H73.2471C73.2796 37.6917 73.4408 38.1279 73.7305 38.4307C74.0202 38.7334 74.3815 38.8848 74.8145 38.8848C75.1367 38.8848 75.4118 38.8001 75.6396 38.6309C75.8675 38.4616 76.0482 38.1914 76.1816 37.8203ZM73.2959 36.3994H76.1914C76.1523 35.9632 76.0417 35.6361 75.8594 35.418C75.5794 35.0794 75.2165 34.9102 74.7705 34.9102C74.3669 34.9102 74.0267 35.0452 73.75 35.3154C73.4766 35.5856 73.3252 35.9469 73.2959 36.3994ZM78.1885 39.4902V34.3047H78.9795V35.0908C79.1813 34.723 79.3669 34.4805 79.5361 34.3633C79.7087 34.2461 79.8975 34.1875 80.1025 34.1875C80.3988 34.1875 80.6999 34.2819 81.0059 34.4707L80.7031 35.2861C80.4883 35.1592 80.2734 35.0957 80.0586 35.0957C79.8665 35.0957 79.694 35.1543 79.541 35.2715C79.388 35.3854 79.279 35.5449 79.2139 35.75C79.1162 36.0625 79.0674 36.4043 79.0674 36.7754V39.4902H78.1885ZM81.4893 41.4873L81.3916 40.6621C81.5837 40.7142 81.7513 40.7402 81.8945 40.7402C82.0898 40.7402 82.2461 40.7077 82.3633 40.6426C82.4805 40.5775 82.5765 40.4863 82.6514 40.3691C82.7067 40.2812 82.7962 40.0632 82.9199 39.7148C82.9362 39.666 82.9622 39.5944 82.998 39.5L81.0303 34.3047H81.9775L83.0566 37.3076C83.1966 37.6885 83.3219 38.0889 83.4326 38.5088C83.5335 38.1051 83.654 37.7113 83.7939 37.3271L84.9023 34.3047H85.7812L83.8086 39.5781C83.597 40.1478 83.4326 40.54 83.3154 40.7549C83.1592 41.0446 82.9801 41.2562 82.7783 41.3896C82.5765 41.5264 82.3356 41.5947 82.0557 41.5947C81.8864 41.5947 81.6976 41.5589 81.4893 41.4873ZM21.0791 52.4902L23.8281 45.332H24.8486L27.7783 52.4902H26.6992L25.8643 50.3223H22.8711L22.085 52.4902H21.0791ZM23.1445 49.5508H25.5713L24.8242 47.5684C24.5964 46.9661 24.4271 46.4714 24.3164 46.084C24.2253 46.543 24.0967 46.9987 23.9307 47.4512L23.1445 49.5508ZM28.4229 54.4775V47.3047H29.2236V47.9785C29.4124 47.7148 29.6257 47.5179 29.8633 47.3877C30.1009 47.2542 30.389 47.1875 30.7275 47.1875C31.1702 47.1875 31.5609 47.3014 31.8994 47.5293C32.238 47.7572 32.4935 48.0794 32.666 48.4961C32.8385 48.9095 32.9248 49.3636 32.9248 49.8584C32.9248 50.389 32.8288 50.8675 32.6367 51.2939C32.4479 51.7171 32.1712 52.0426 31.8066 52.2705C31.4453 52.4951 31.0645 52.6074 30.6641 52.6074C30.3711 52.6074 30.1074 52.5456 29.873 52.4219C29.6419 52.2982 29.4515 52.1419 29.3018 51.9531V54.4775H28.4229ZM29.2188 49.9268C29.2188 50.5941 29.3538 51.0872 29.624 51.4062C29.8942 51.7253 30.2214 51.8848 30.6055 51.8848C30.9961 51.8848 31.3298 51.7204 31.6064 51.3916C31.8864 51.0596 32.0264 50.5469 32.0264 49.8535C32.0264 49.1927 31.8896 48.6979 31.6162 48.3691C31.346 48.0404 31.0221 47.876 30.6445 47.876C30.2702 47.876 29.9382 48.0518 29.6484 48.4033C29.362 48.7516 29.2188 49.2594 29.2188 49.9268ZM33.9893 54.4775V47.3047H34.79V47.9785C34.9788 47.7148 35.1921 47.5179 35.4297 47.3877C35.6673 47.2542 35.9554 47.1875 36.2939 47.1875C36.7367 47.1875 37.1273 47.3014 37.4658 47.5293C37.8044 47.7572 38.0599 48.0794 38.2324 48.4961C38.4049 48.9095 38.4912 49.3636 38.4912 49.8584C38.4912 50.389 38.3952 50.8675 38.2031 51.2939C38.0143 51.7171 37.7376 52.0426 37.373 52.2705C37.0117 52.4951 36.6309 52.6074 36.2305 52.6074C35.9375 52.6074 35.6738 52.5456 35.4395 52.4219C35.2083 52.2982 35.0179 52.1419 34.8682 51.9531V54.4775H33.9893ZM34.7852 49.9268C34.7852 50.5941 34.9202 51.0872 35.1904 51.4062C35.4606 51.7253 35.7878 51.8848 36.1719 51.8848C36.5625 51.8848 36.8962 51.7204 37.1729 51.3916C37.4528 51.0596 37.5928 50.5469 37.5928 49.8535C37.5928 49.1927 37.4561 48.6979 37.1826 48.3691C36.9124 48.0404 36.5885 47.876 36.2109 47.876C35.8366 47.876 35.5046 48.0518 35.2148 48.4033C34.9284 48.7516 34.7852 49.2594 34.7852 49.9268ZM42.1289 50.1904L43.0225 50.1123C43.0648 50.4704 43.1624 50.765 43.3154 50.9961C43.4717 51.224 43.7126 51.4095 44.0381 51.5527C44.3636 51.6927 44.7298 51.7627 45.1367 51.7627C45.498 51.7627 45.8171 51.709 46.0938 51.6016C46.3704 51.4941 46.5755 51.3477 46.709 51.1621C46.8457 50.9733 46.9141 50.7682 46.9141 50.5469C46.9141 50.3223 46.849 50.127 46.7188 49.9609C46.5885 49.7917 46.3737 49.6501 46.0742 49.5361C45.8822 49.4613 45.4574 49.3457 44.7998 49.1895C44.1423 49.0299 43.6816 48.8802 43.418 48.7402C43.0762 48.5612 42.8206 48.3398 42.6514 48.0762C42.4854 47.8092 42.4023 47.5114 42.4023 47.1826C42.4023 46.8213 42.5049 46.4844 42.71 46.1719C42.915 45.8561 43.2145 45.6169 43.6084 45.4541C44.0023 45.2913 44.4401 45.21 44.9219 45.21C45.4525 45.21 45.9196 45.2962 46.3232 45.4688C46.7301 45.638 47.0426 45.8887 47.2607 46.2207C47.4788 46.5527 47.596 46.9287 47.6123 47.3486L46.7041 47.417C46.6553 46.9645 46.4893 46.6227 46.2061 46.3916C45.9261 46.1605 45.5111 46.0449 44.9609 46.0449C44.388 46.0449 43.9697 46.1507 43.7061 46.3623C43.4456 46.5706 43.3154 46.8229 43.3154 47.1191C43.3154 47.3763 43.4082 47.5879 43.5938 47.7539C43.776 47.9199 44.2513 48.0908 45.0195 48.2666C45.791 48.4391 46.32 48.5905 46.6064 48.7207C47.0231 48.9128 47.3307 49.1569 47.5293 49.4531C47.7279 49.7461 47.8271 50.0846 47.8271 50.4688C47.8271 50.8496 47.7181 51.2093 47.5 51.5479C47.2819 51.8831 46.9678 52.1452 46.5576 52.334C46.1507 52.5195 45.6917 52.6123 45.1807 52.6123C44.5329 52.6123 43.9893 52.5179 43.5498 52.3291C43.1136 52.1403 42.7702 51.8571 42.5195 51.4795C42.2721 51.0986 42.1419 50.6689 42.1289 50.1904ZM52.5586 50.8203L53.4668 50.9326C53.3236 51.4632 53.0583 51.875 52.6709 52.168C52.2835 52.4609 51.7887 52.6074 51.1865 52.6074C50.4281 52.6074 49.8258 52.3747 49.3799 51.9092C48.9372 51.4404 48.7158 50.7845 48.7158 49.9414C48.7158 49.069 48.9404 48.3919 49.3896 47.9102C49.8389 47.4284 50.4215 47.1875 51.1377 47.1875C51.8311 47.1875 52.3975 47.4235 52.8369 47.8955C53.2764 48.3675 53.4961 49.0316 53.4961 49.8877C53.4961 49.9398 53.4945 50.0179 53.4912 50.1221H49.624C49.6566 50.6917 49.8177 51.1279 50.1074 51.4307C50.3971 51.7334 50.7585 51.8848 51.1914 51.8848C51.5137 51.8848 51.7887 51.8001 52.0166 51.6309C52.2445 51.4616 52.4251 51.1914 52.5586 50.8203ZM49.6729 49.3994H52.5684C52.5293 48.9632 52.4186 48.6361 52.2363 48.418C51.9564 48.0794 51.5934 47.9102 51.1475 47.9102C50.7438 47.9102 50.4036 48.0452 50.127 48.3154C49.8535 48.5856 49.7021 48.9469 49.6729 49.3994ZM54.5654 52.4902V47.3047H55.3564V48.0908C55.5583 47.723 55.7438 47.4805 55.9131 47.3633C56.0856 47.2461 56.2744 47.1875 56.4795 47.1875C56.7757 47.1875 57.0768 47.2819 57.3828 47.4707L57.0801 48.2861C56.8652 48.1592 56.6504 48.0957 56.4355 48.0957C56.2435 48.0957 56.071 48.1543 55.918 48.2715C55.765 48.3854 55.6559 48.5449 55.5908 48.75C55.4932 49.0625 55.4443 49.4043 55.4443 49.7754V52.4902H54.5654ZM59.3457 52.4902L57.373 47.3047H58.3008L59.4141 50.4102C59.5345 50.7454 59.6452 51.0938 59.7461 51.4551C59.8242 51.1816 59.9333 50.8529 60.0732 50.4688L61.2256 47.3047H62.1289L60.166 52.4902H59.3457ZM66.4551 50.8203L67.3633 50.9326C67.2201 51.4632 66.9548 51.875 66.5674 52.168C66.18 52.4609 65.6852 52.6074 65.083 52.6074C64.3245 52.6074 63.7223 52.3747 63.2764 51.9092C62.8337 51.4404 62.6123 50.7845 62.6123 49.9414C62.6123 49.069 62.8369 48.3919 63.2861 47.9102C63.7354 47.4284 64.318 47.1875 65.0342 47.1875C65.7275 47.1875 66.2939 47.4235 66.7334 47.8955C67.1729 48.3675 67.3926 49.0316 67.3926 49.8877C67.3926 49.9398 67.391 50.0179 67.3877 50.1221H63.5205C63.5531 50.6917 63.7142 51.1279 64.0039 51.4307C64.2936 51.7334 64.6549 51.8848 65.0879 51.8848C65.4102 51.8848 65.6852 51.8001 65.9131 51.6309C66.141 51.4616 66.3216 51.1914 66.4551 50.8203ZM63.5693 49.3994H66.4648C66.4258 48.9632 66.3151 48.6361 66.1328 48.418C65.8529 48.0794 65.4899 47.9102 65.0439 47.9102C64.6403 47.9102 64.3001 48.0452 64.0234 48.3154C63.75 48.5856 63.5986 48.9469 63.5693 49.3994ZM68.4619 52.4902V47.3047H69.2529V48.0908C69.4548 47.723 69.6403 47.4805 69.8096 47.3633C69.9821 47.2461 70.1709 47.1875 70.376 47.1875C70.6722 47.1875 70.9733 47.2819 71.2793 47.4707L70.9766 48.2861C70.7617 48.1592 70.5469 48.0957 70.332 48.0957C70.14 48.0957 69.9674 48.1543 69.8145 48.2715C69.6615 48.3854 69.5524 48.5449 69.4873 48.75C69.3896 49.0625 69.3408 49.4043 69.3408 49.7754V52.4902H68.4619Z" fill="#2A303D"/>
</svg>
