<svg width="82" height="67" viewBox="0 0 82 67" fill="none" xmlns="http://www.w3.org/2000/svg">
<path d="M50.2099 27.0086L50.2219 26.9875C50.3939 26.6978 50.4725 26.3622 50.447 26.0262L50.4351 24.5825V22.5377C50.4436 22.3887 50.4271 22.2393 50.3864 22.0957C50.3516 21.989 50.2846 21.8957 50.1945 21.8287C50.1045 21.7617 49.9959 21.7243 49.8837 21.7217C49.7677 21.7228 49.6556 21.7638 49.5663 21.8377C49.4769 21.9117 49.4157 22.0142 49.3929 22.1279C49.3767 22.2414 49.3362 22.35 49.2744 22.4466C49.2126 22.5431 49.1308 22.6253 49.0345 22.6876C48.6275 22.9751 48.1765 23.1948 47.6993 23.3382C46.8155 23.6249 45.9079 23.8325 44.9873 23.9585C44.4911 24.0363 43.9927 24.0951 43.4921 24.1349C42.9656 24.1754 42.4371 24.2112 41.9106 24.2268C41.1092 24.2452 40.3069 24.2544 39.5037 24.1956C38.775 24.1423 38.0453 24.1037 37.3193 24.0118C36.8755 23.9548 36.4343 23.8877 35.9951 23.8069C35.4982 23.7165 35.0072 23.5965 34.5247 23.4476C33.9983 23.3135 33.4949 23.1013 33.0313 22.8181C32.8918 22.7516 32.7701 22.6529 32.6764 22.5299C32.5828 22.407 32.5198 22.2635 32.4928 22.1113C32.4681 22.0002 32.4056 21.9012 32.3159 21.8311C32.2262 21.761 32.1149 21.7243 32.0012 21.7272C31.8889 21.7311 31.7806 21.77 31.6916 21.8386C31.6026 21.9072 31.5373 22.0019 31.5049 22.1095C31.4679 22.2334 31.4521 22.3626 31.458 22.4918C31.458 23.0046 31.458 23.5174 31.458 24.0302L31.4507 25.6117C31.4507 25.6329 31.4507 25.654 31.4507 25.6761V25.8994H31.4571C31.4571 26.0216 31.4571 26.1438 31.4654 26.267C31.4692 26.4568 31.5098 26.644 31.5849 26.8184C31.8323 27.3077 32.2405 27.6971 32.7409 27.9212C33.434 28.2712 34.1673 28.535 34.9244 28.7069C35.5301 28.8613 36.1476 28.9688 36.7624 29.0625C37.277 29.1407 37.7963 29.1976 38.3155 29.2463C38.8513 29.2932 39.3907 29.3189 39.9265 29.3309C40.7683 29.3502 41.6101 29.3585 42.4537 29.3015C43.1889 29.2509 43.9305 29.2096 44.6657 29.1177C45.2171 29.046 45.7685 28.9596 46.3125 28.8512C46.9807 28.7217 47.6379 28.5407 48.2782 28.3099C48.8739 28.1237 49.4244 27.8158 49.8947 27.4056C50.0124 27.2965 50.1159 27.173 50.2026 27.038L50.2099 27.0086Z" fill="#FF8B4D"/>
<path d="M31.5471 18.3477C31.6783 18.6898 31.9087 18.9849 32.2088 19.195C32.6408 19.5081 33.1176 19.7541 33.6231 19.9247C33.8988 20.024 33.9456 20.1085 33.8877 20.3897C33.8833 20.4143 33.8811 20.4392 33.8813 20.4642C33.8813 20.8731 33.8758 21.2821 33.8813 21.691C33.884 21.7964 33.9202 21.8982 33.9846 21.9816C34.0491 22.0651 34.1384 22.1258 34.2397 22.1551C35.0133 22.3773 35.8003 22.5495 36.596 22.6707C37.0956 22.7572 37.5992 22.8185 38.105 22.8544C38.706 22.893 39.3052 22.9647 39.9099 22.9555C39.9595 22.9555 40.0091 22.9638 40.0587 22.9675C40.3872 22.9911 40.7168 22.9944 41.0457 22.9776C41.1565 22.9711 41.2608 22.923 41.3377 22.8429C41.4145 22.7628 41.4583 22.6566 41.4602 22.5457C41.4664 22.4884 41.4612 22.4306 41.4448 22.3754C41.4284 22.3202 41.4012 22.2688 41.3648 22.2242C41.3283 22.1797 41.2834 22.1428 41.2325 22.1158C41.1817 22.0888 41.126 22.0721 41.0687 22.0669C40.796 22.04 40.522 22.0284 40.248 22.032C39.6415 22.009 39.035 21.9961 38.4294 21.9401C37.9 21.891 37.3722 21.8316 36.846 21.7618C36.2679 21.6846 35.7027 21.5541 35.132 21.4429C34.8867 21.3951 34.8389 21.3317 34.8398 21.0753C34.8398 20.9255 34.8398 20.7757 34.8398 20.6259C34.8453 20.4219 34.9492 20.3346 35.1468 20.3732C35.428 20.4274 35.7083 20.4862 35.9885 20.5432C36.5344 20.6562 37.0913 20.727 37.6427 20.784C38.2502 20.8492 38.8613 20.9062 39.4743 20.92C39.9907 20.931 40.5081 20.977 41.0246 20.965C41.5576 20.9531 42.0897 20.9255 42.6227 20.9154C42.852 20.9145 43.0812 20.9017 43.3092 20.8768C43.9451 20.7969 44.5856 20.7693 45.2188 20.6562C45.6958 20.5708 46.1755 20.5 46.6479 20.3879C46.8482 20.3401 46.9888 20.41 46.9943 20.5717C47.0007 20.7913 46.9943 21.011 46.9943 21.2306C46.9973 21.276 46.9843 21.3211 46.9576 21.358C46.931 21.3949 46.8923 21.4213 46.8482 21.4328C46.7195 21.4714 46.589 21.5035 46.4576 21.5302C46.136 21.5945 45.8143 21.6524 45.4927 21.714C45.4069 21.7339 45.3293 21.78 45.2707 21.8458C45.2121 21.9116 45.1754 21.994 45.1655 22.0816C45.152 22.1613 45.1594 22.2433 45.1869 22.3193C45.2145 22.3954 45.2612 22.4631 45.3227 22.5157C45.3841 22.5684 45.4581 22.6042 45.5375 22.6198C45.6169 22.6353 45.699 22.63 45.7757 22.6045C46.3326 22.5052 46.8877 22.3922 47.4354 22.2461C47.8315 22.1404 47.9528 21.998 47.9528 21.5817C47.9528 21.1378 47.9528 20.6939 47.9528 20.25C47.9446 20.1887 47.9586 20.1264 47.9923 20.0745C48.026 20.0226 48.0772 19.9844 48.1366 19.967C48.6208 19.8014 49.0836 19.5786 49.5151 19.3035C49.808 19.1357 50.0489 18.8901 50.2111 18.594C50.3733 18.2978 50.4504 17.9626 50.4341 17.6254C50.4157 17.0575 50.4341 16.4886 50.4341 15.9198C50.4341 15.3004 50.4341 14.6816 50.4341 14.0634C50.4353 13.9541 50.4207 13.8451 50.3909 13.7399C50.3757 13.674 50.3477 13.6118 50.3083 13.5568C50.2689 13.5018 50.219 13.4551 50.1615 13.4196C50.104 13.384 50.04 13.3602 49.9732 13.3496C49.9064 13.339 49.8381 13.3417 49.7724 13.3577C49.6564 13.3813 49.553 13.4464 49.4816 13.5408C49.4102 13.6352 49.3757 13.7524 49.3846 13.8704C49.3905 13.9553 49.3777 14.0405 49.347 14.1199C49.3164 14.1993 49.2686 14.271 49.2072 14.3299C49.0473 14.4873 48.8656 14.621 48.6678 14.7269C48.1816 14.9787 47.669 15.176 47.1395 15.3151C46.5603 15.4761 45.972 15.6025 45.3778 15.6937C45.0488 15.7452 44.7192 15.7911 44.389 15.8316C44.1234 15.8646 43.8578 15.8922 43.5922 15.917C43.4728 15.9373 43.2853 15.9529 43.0574 15.9657C42.6236 15.9915 39.4017 15.9942 39.4017 15.9942C38.9238 15.9712 38.4477 15.9336 37.9726 15.8858C37.5468 15.8429 37.1235 15.7887 36.7026 15.7231C36.4315 15.6809 36.1595 15.6496 35.893 15.5908C35.323 15.4754 34.76 15.3278 34.2066 15.1488C33.7492 15.0103 33.3155 14.8033 32.9201 14.5349C32.7974 14.4722 32.6943 14.3772 32.6218 14.26C32.5494 14.1429 32.5105 14.0082 32.5093 13.8704C32.5179 13.7649 32.4917 13.6595 32.4348 13.5702C32.3779 13.481 32.2933 13.4128 32.1941 13.376C32.0872 13.3369 31.9706 13.3337 31.8618 13.3669C31.753 13.4001 31.658 13.4678 31.5912 13.5598C31.5037 13.6758 31.458 13.818 31.4616 13.9633C31.4616 14.2785 31.4616 14.5928 31.4616 14.9071V16.5971C31.4616 17.0161 31.4616 17.4352 31.4616 17.8543C31.4628 18.0223 31.4917 18.1891 31.5471 18.3477Z" fill="#FF8B4D"/>
<path d="M31.4541 8.25002C31.4551 8.26624 31.4551 8.28252 31.4541 8.29874C31.4486 8.7132 31.4541 9.12582 31.4541 9.5412C31.4536 9.71992 31.4668 9.89842 31.4936 10.0751C31.5749 10.4956 31.8156 10.8683 32.1654 11.1154C32.6286 11.4622 33.1463 11.7292 33.6973 11.9057C33.7565 11.9212 33.8078 11.9578 33.8417 12.0086C33.8756 12.0594 33.8896 12.121 33.8811 12.1815C33.871 12.6152 33.8729 13.0499 33.8738 13.4846C33.8708 13.5902 33.9023 13.694 33.9634 13.7802C34.0246 13.8664 34.1122 13.9304 34.2129 13.9624C34.4215 14.0268 34.631 14.0911 34.8442 14.1462C35.4333 14.2859 36.0279 14.4054 36.6252 14.4991C37.1408 14.58 37.66 14.6471 38.1801 14.6829C38.8455 14.7243 39.509 14.807 40.1771 14.784C40.3017 14.7823 40.4263 14.7885 40.5502 14.8024C40.6994 14.8166 40.8495 14.8166 40.9987 14.8024C41.1244 14.7989 41.2436 14.7455 41.3301 14.6541C41.4165 14.5627 41.4631 14.4406 41.4595 14.3149C41.456 14.1891 41.4027 14.0699 41.3112 13.9835C41.2198 13.897 41.0978 13.8505 40.972 13.854C40.1394 13.8485 39.3077 13.8466 38.4779 13.7621C38.1167 13.7272 37.7547 13.6978 37.3944 13.6537C36.8577 13.5875 36.321 13.5121 35.7917 13.3954C35.5298 13.3375 35.2651 13.2952 35.0078 13.2116C34.9159 13.1822 34.8396 13.1354 34.836 13.0278C34.8314 12.844 34.8295 12.6685 34.836 12.4893C34.8395 12.4595 34.8491 12.4307 34.8641 12.4048C34.8792 12.3788 34.8994 12.3562 34.9234 12.3383C34.9475 12.3204 34.975 12.3076 35.0042 12.3007C35.0334 12.2938 35.0637 12.2929 35.0933 12.2982C35.3818 12.3726 35.6759 12.4213 35.9672 12.482C36.4047 12.5739 36.8476 12.6281 37.2887 12.6942C37.6618 12.7512 38.0414 12.7613 38.4182 12.7972C39.1772 12.8688 39.94 12.8891 40.7018 12.9056C41.1613 12.9176 41.6291 12.89 42.0923 12.8817C42.2715 12.8817 42.4497 12.8688 42.6299 12.856C43.3586 12.8017 44.0865 12.7567 44.8125 12.6547C45.2352 12.5959 45.6552 12.5224 46.077 12.4535C46.3078 12.3935 46.5438 12.3553 46.7818 12.3395C46.916 12.3395 46.9868 12.4038 46.9868 12.5408C46.9868 12.7053 46.9868 12.8698 46.9868 13.0343C46.9895 13.0849 46.9742 13.1348 46.9436 13.1752C46.9129 13.2156 46.869 13.2438 46.8195 13.2548C46.6771 13.2971 46.53 13.3256 46.3839 13.355C46.0972 13.4138 45.8068 13.4579 45.5247 13.5314C45.4186 13.5615 45.3272 13.6293 45.2677 13.722C45.2081 13.8148 45.1845 13.9261 45.2012 14.035C45.2217 14.1575 45.2899 14.2667 45.3908 14.3389C45.4918 14.4111 45.6173 14.4403 45.7397 14.4201C46.3086 14.3282 46.8701 14.2032 47.4279 14.0608C47.8185 13.9615 47.9434 13.8136 47.9444 13.411C47.9453 13.0085 47.9444 12.6023 47.9444 12.198C47.9368 12.1336 47.9532 12.0686 47.9905 12.0156C48.0278 11.9625 48.0834 11.925 48.1465 11.9103C48.7174 11.7293 49.254 11.4544 49.7345 11.097C49.9335 10.9577 50.0984 10.7752 50.2171 10.5633C50.3358 10.3514 50.4052 10.1154 50.4201 9.87294C50.4472 9.54215 50.45 9.2098 50.4284 8.8786V7.09762C50.4366 6.94415 50.4284 6.78791 50.4284 6.6326V6.49661C50.4284 6.28984 50.4366 6.08305 50.4284 5.87628C50.4207 5.68249 50.3804 5.49141 50.3089 5.31111C50.1534 4.97431 49.9067 4.6878 49.5967 4.48403C49.1353 4.16951 48.6303 3.92427 48.0978 3.75617C47.892 3.68174 47.6806 3.62292 47.4702 3.56227C47.2597 3.50162 47.0603 3.43913 46.8508 3.40053C46.6412 3.36194 46.4584 3.29119 46.2516 3.26454C45.9263 3.22227 45.6019 3.15608 45.2784 3.0991C44.7095 2.99893 44.1342 2.95576 43.5626 2.88776C43.0443 2.82526 42.5187 2.81791 42.0004 2.79585C41.2238 2.77012 40.4445 2.76092 39.6661 2.81055C38.8574 2.86201 38.0487 2.90244 37.2437 3.00813C36.7842 3.07245 36.3174 3.13404 35.8579 3.2195C35.3754 3.3114 34.8966 3.41801 34.4233 3.5531C33.7229 3.73085 33.0521 4.00945 32.4319 4.38018C32.1247 4.54015 31.8694 4.7843 31.6959 5.08409C31.5224 5.38387 31.4379 5.72689 31.4523 6.07296C31.4578 6.18232 31.4578 6.2926 31.4569 6.40196L31.4541 8.25002ZM32.635 5.58497C32.8139 5.3897 33.0269 5.2287 33.2636 5.10986C33.8798 4.81505 34.5271 4.59033 35.1934 4.43992C35.7044 4.31126 36.2209 4.21199 36.7401 4.13296C37.1417 4.07231 37.5488 4.03005 37.9532 3.98502C38.3943 3.9354 38.8363 3.92987 39.2765 3.88025C39.8334 3.81776 40.3931 3.8637 40.9509 3.84348C41.6796 3.82878 42.4065 3.85453 43.1335 3.90967C43.593 3.94367 44.0525 3.97308 44.5 4.03741C45.1828 4.13391 45.8674 4.23038 46.5383 4.39488C47.1849 4.53455 47.8156 4.73996 48.4204 5.00786C48.7386 5.14107 49.0249 5.34027 49.2603 5.59232C49.4212 5.77612 49.4212 5.86159 49.2603 6.04539C48.9664 6.35244 48.6044 6.58601 48.2035 6.72725C47.6739 6.9429 47.127 7.11354 46.5686 7.23731C46.168 7.32921 45.7627 7.41376 45.3537 7.47166C44.9861 7.52312 44.6268 7.58375 44.2611 7.61867C43.9982 7.6444 43.7363 7.67841 43.4735 7.70323C43.4173 7.71745 43.3602 7.72788 43.3026 7.73447C42.3106 7.8138 41.3147 7.8319 40.3205 7.78868C40.3018 7.793 40.2827 7.79518 40.2635 7.79513C39.7296 7.80983 39.1993 7.74182 38.6672 7.71792C38.2886 7.70138 37.9136 7.65175 37.5378 7.6104C37.0544 7.55618 36.5728 7.48634 36.094 7.39352C35.7384 7.32368 35.3809 7.25661 35.0317 7.16195C34.2849 7.00488 33.5716 6.71743 32.9245 6.3128C32.8146 6.23378 32.7151 6.14115 32.6286 6.03712C32.4732 5.86343 32.4732 5.76143 32.6332 5.5859L32.635 5.58497Z" fill="#FF8B4D"/>
<path d="M0.902344 48.3452V41.187H3.36816C3.9248 41.187 4.34961 41.2212 4.64258 41.2896C5.05273 41.384 5.40267 41.5549 5.69238 41.8022C6.06999 42.1213 6.35156 42.5298 6.53711 43.0278C6.72591 43.5226 6.82031 44.089 6.82031 44.7271C6.82031 45.2707 6.75684 45.7524 6.62988 46.1724C6.50293 46.5923 6.34017 46.9406 6.1416 47.2173C5.94303 47.4907 5.72493 47.7072 5.4873 47.8667C5.25293 48.0229 4.9681 48.1418 4.63281 48.2231C4.30078 48.3045 3.91829 48.3452 3.48535 48.3452H0.902344ZM1.84961 47.5005H3.37793C3.84993 47.5005 4.2194 47.4565 4.48633 47.3687C4.75651 47.2808 4.97135 47.1571 5.13086 46.9976C5.35547 46.7729 5.52962 46.4718 5.65332 46.0942C5.78027 45.7134 5.84375 45.2528 5.84375 44.7124C5.84375 43.9637 5.72005 43.3892 5.47266 42.9888C5.22852 42.5851 4.93066 42.3149 4.5791 42.1782C4.3252 42.0806 3.91667 42.0317 3.35352 42.0317H1.84961V47.5005ZM8.02148 42.1978V41.187H8.90039V42.1978H8.02148ZM8.02148 48.3452V43.1597H8.90039V48.3452H8.02148ZM9.8916 46.7974L10.7607 46.6606C10.8096 47.009 10.9447 47.2759 11.166 47.4614C11.3906 47.647 11.7031 47.7397 12.1035 47.7397C12.5072 47.7397 12.8066 47.6584 13.002 47.4956C13.1973 47.3296 13.2949 47.1359 13.2949 46.9146C13.2949 46.716 13.2087 46.5597 13.0361 46.4458C12.9157 46.3677 12.6162 46.2684 12.1377 46.1479C11.4932 45.9852 11.0456 45.8452 10.7949 45.728C10.5475 45.6076 10.3587 45.4432 10.2285 45.2349C10.1016 45.0233 10.0381 44.7905 10.0381 44.5366C10.0381 44.3055 10.0902 44.0923 10.1943 43.897C10.3018 43.6984 10.4466 43.534 10.6289 43.4038C10.7656 43.3029 10.9512 43.2183 11.1855 43.1499C11.4232 43.0783 11.6771 43.0425 11.9473 43.0425C12.3542 43.0425 12.7106 43.1011 13.0166 43.2183C13.3258 43.3354 13.5537 43.495 13.7002 43.6968C13.8467 43.8953 13.9476 44.1623 14.0029 44.4976L13.1436 44.6147C13.1045 44.3478 12.9906 44.1395 12.8018 43.9897C12.6162 43.84 12.3525 43.7651 12.0107 43.7651C11.6071 43.7651 11.319 43.8319 11.1465 43.9653C10.974 44.0988 10.8877 44.255 10.8877 44.4341C10.8877 44.548 10.9235 44.6506 10.9951 44.7417C11.0667 44.8361 11.179 44.9142 11.332 44.9761C11.4199 45.0086 11.6787 45.0835 12.1084 45.2007C12.7301 45.3667 13.1631 45.5034 13.4072 45.6108C13.6546 45.715 13.8483 45.868 13.9883 46.0698C14.1283 46.2716 14.1982 46.5223 14.1982 46.8218C14.1982 47.1147 14.112 47.3914 13.9395 47.6519C13.7702 47.909 13.5244 48.1092 13.2021 48.2524C12.8799 48.3924 12.5153 48.4624 12.1084 48.4624C11.4346 48.4624 10.9202 48.3224 10.5654 48.0425C10.2139 47.7625 9.98926 47.3475 9.8916 46.7974ZM18.627 47.7056C18.3014 47.9823 17.9873 48.1776 17.6846 48.2915C17.3851 48.4054 17.0628 48.4624 16.7178 48.4624C16.1481 48.4624 15.7103 48.3241 15.4043 48.0474C15.0983 47.7674 14.9453 47.411 14.9453 46.978C14.9453 46.7241 15.0023 46.493 15.1162 46.2847C15.2334 46.0731 15.3848 45.9038 15.5703 45.7769C15.7591 45.6499 15.9707 45.5539 16.2051 45.4888C16.3776 45.4432 16.638 45.3993 16.9863 45.3569C17.696 45.2723 18.2184 45.1714 18.5537 45.0542C18.557 44.9338 18.5586 44.8573 18.5586 44.8247C18.5586 44.4666 18.4756 44.2144 18.3096 44.0679C18.085 43.8693 17.7513 43.77 17.3086 43.77C16.8952 43.77 16.5892 43.8433 16.3906 43.9897C16.1953 44.133 16.0505 44.3885 15.9561 44.7563L15.0967 44.6392C15.1748 44.2713 15.3034 43.9751 15.4824 43.7505C15.6615 43.5226 15.9202 43.3485 16.2588 43.228C16.5973 43.1043 16.9896 43.0425 17.4355 43.0425C17.8783 43.0425 18.238 43.0946 18.5146 43.1987C18.7913 43.3029 18.9948 43.4347 19.125 43.5942C19.2552 43.7505 19.3464 43.9491 19.3984 44.1899C19.4277 44.3397 19.4424 44.6099 19.4424 45.0005V46.1724C19.4424 46.9894 19.4603 47.507 19.4961 47.7251C19.5352 47.9399 19.61 48.1466 19.7207 48.3452H18.8027C18.7116 48.1629 18.653 47.9497 18.627 47.7056ZM18.5537 45.7427C18.2347 45.8729 17.7562 45.9836 17.1182 46.0747C16.7568 46.1268 16.5013 46.1854 16.3516 46.2505C16.2018 46.3156 16.0863 46.4116 16.0049 46.5386C15.9235 46.6623 15.8828 46.8006 15.8828 46.9536C15.8828 47.188 15.9707 47.3833 16.1465 47.5396C16.3255 47.6958 16.5859 47.7739 16.9277 47.7739C17.2663 47.7739 17.5674 47.7007 17.8311 47.5542C18.0947 47.4045 18.2884 47.201 18.4121 46.9438C18.5065 46.7453 18.5537 46.4523 18.5537 46.0649V45.7427ZM20.458 46.7974L21.3271 46.6606C21.376 47.009 21.5111 47.2759 21.7324 47.4614C21.957 47.647 22.2695 47.7397 22.6699 47.7397C23.0736 47.7397 23.373 47.6584 23.5684 47.4956C23.7637 47.3296 23.8613 47.1359 23.8613 46.9146C23.8613 46.716 23.7751 46.5597 23.6025 46.4458C23.4821 46.3677 23.1826 46.2684 22.7041 46.1479C22.0596 45.9852 21.612 45.8452 21.3613 45.728C21.1139 45.6076 20.9251 45.4432 20.7949 45.2349C20.668 45.0233 20.6045 44.7905 20.6045 44.5366C20.6045 44.3055 20.6566 44.0923 20.7607 43.897C20.8682 43.6984 21.013 43.534 21.1953 43.4038C21.332 43.3029 21.5176 43.2183 21.752 43.1499C21.9896 43.0783 22.2435 43.0425 22.5137 43.0425C22.9206 43.0425 23.277 43.1011 23.583 43.2183C23.8923 43.3354 24.1201 43.495 24.2666 43.6968C24.4131 43.8953 24.514 44.1623 24.5693 44.4976L23.71 44.6147C23.6709 44.3478 23.557 44.1395 23.3682 43.9897C23.1826 43.84 22.9189 43.7651 22.5771 43.7651C22.1735 43.7651 21.8854 43.8319 21.7129 43.9653C21.5404 44.0988 21.4541 44.255 21.4541 44.4341C21.4541 44.548 21.4899 44.6506 21.5615 44.7417C21.6331 44.8361 21.7454 44.9142 21.8984 44.9761C21.9863 45.0086 22.2451 45.0835 22.6748 45.2007C23.2965 45.3667 23.7295 45.5034 23.9736 45.6108C24.221 45.715 24.4147 45.868 24.5547 46.0698C24.6947 46.2716 24.7646 46.5223 24.7646 46.8218C24.7646 47.1147 24.6784 47.3914 24.5059 47.6519C24.3366 47.909 24.0908 48.1092 23.7686 48.2524C23.4463 48.3924 23.0817 48.4624 22.6748 48.4624C22.001 48.4624 21.4867 48.3224 21.1318 48.0425C20.7803 47.7625 20.5557 47.3475 20.458 46.7974ZM27.7285 47.5591L27.8555 48.3354C27.6081 48.3875 27.3867 48.4136 27.1914 48.4136C26.8724 48.4136 26.625 48.3631 26.4492 48.2622C26.2734 48.1613 26.1497 48.0295 26.0781 47.8667C26.0065 47.7007 25.9707 47.354 25.9707 46.8267V43.8433H25.3262V43.1597H25.9707V41.8755L26.8447 41.3481V43.1597H27.7285V43.8433H26.8447V46.8755C26.8447 47.1261 26.8594 47.2873 26.8887 47.3589C26.9212 47.4305 26.9717 47.4875 27.04 47.5298C27.1117 47.5721 27.2126 47.5933 27.3428 47.5933C27.4404 47.5933 27.569 47.5819 27.7285 47.5591ZM32.1426 46.6753L33.0508 46.7876C32.9076 47.3182 32.6423 47.73 32.2549 48.0229C31.8675 48.3159 31.3727 48.4624 30.7705 48.4624C30.012 48.4624 29.4098 48.2297 28.9639 47.7642C28.5212 47.2954 28.2998 46.6395 28.2998 45.7964C28.2998 44.924 28.5244 44.2469 28.9736 43.7651C29.4229 43.2834 30.0055 43.0425 30.7217 43.0425C31.415 43.0425 31.9814 43.2785 32.4209 43.7505C32.8604 44.2225 33.0801 44.8866 33.0801 45.7427C33.0801 45.7948 33.0785 45.8729 33.0752 45.9771H29.208C29.2406 46.5467 29.4017 46.9829 29.6914 47.2856C29.9811 47.5884 30.3424 47.7397 30.7754 47.7397C31.0977 47.7397 31.3727 47.6551 31.6006 47.4858C31.8285 47.3166 32.0091 47.0464 32.1426 46.6753ZM29.2568 45.2544H32.1523C32.1133 44.8182 32.0026 44.491 31.8203 44.2729C31.5404 43.9344 31.1774 43.7651 30.7314 43.7651C30.3278 43.7651 29.9876 43.9002 29.7109 44.1704C29.4375 44.4406 29.2861 44.8019 29.2568 45.2544ZM34.1494 48.3452V43.1597H34.9404V43.9458C35.1423 43.578 35.3278 43.3354 35.4971 43.2183C35.6696 43.1011 35.8584 43.0425 36.0635 43.0425C36.3597 43.0425 36.6608 43.1369 36.9668 43.3257L36.6641 44.1411C36.4492 44.0142 36.2344 43.9507 36.0195 43.9507C35.8275 43.9507 35.6549 44.0093 35.502 44.1265C35.349 44.2404 35.2399 44.3999 35.1748 44.605C35.0771 44.9175 35.0283 45.2593 35.0283 45.6304V48.3452H34.1494ZM40.3994 48.3452V41.187H43.5732C44.2113 41.187 44.6963 41.2521 45.0283 41.3823C45.3604 41.5093 45.6257 41.7355 45.8242 42.061C46.0228 42.3866 46.1221 42.7463 46.1221 43.1401C46.1221 43.6479 45.9577 44.076 45.6289 44.4243C45.3001 44.7726 44.7923 44.994 44.1055 45.0884C44.3561 45.2088 44.5465 45.3276 44.6768 45.4448C44.9535 45.6987 45.2155 46.0161 45.4629 46.397L46.708 48.3452H45.5166L44.5693 46.856C44.2926 46.4263 44.0648 46.0975 43.8857 45.8696C43.7067 45.6418 43.5456 45.4823 43.4023 45.3911C43.2624 45.3 43.1191 45.2365 42.9727 45.2007C42.8652 45.1779 42.6895 45.1665 42.4453 45.1665H41.3467V48.3452H40.3994ZM41.3467 44.3462H43.3828C43.8158 44.3462 44.1543 44.3022 44.3984 44.2144C44.6426 44.1232 44.8281 43.98 44.9551 43.7847C45.082 43.5861 45.1455 43.3713 45.1455 43.1401C45.1455 42.8016 45.0218 42.5233 44.7744 42.3052C44.5303 42.0871 44.1429 41.978 43.6123 41.978H41.3467V44.3462ZM51.0488 46.6753L51.957 46.7876C51.8138 47.3182 51.5485 47.73 51.1611 48.0229C50.7738 48.3159 50.279 48.4624 49.6768 48.4624C48.9183 48.4624 48.3161 48.2297 47.8701 47.7642C47.4274 47.2954 47.2061 46.6395 47.2061 45.7964C47.2061 44.924 47.4307 44.2469 47.8799 43.7651C48.3291 43.2834 48.9118 43.0425 49.6279 43.0425C50.3213 43.0425 50.8877 43.2785 51.3271 43.7505C51.7666 44.2225 51.9863 44.8866 51.9863 45.7427C51.9863 45.7948 51.9847 45.8729 51.9814 45.9771H48.1143C48.1468 46.5467 48.3079 46.9829 48.5977 47.2856C48.8874 47.5884 49.2487 47.7397 49.6816 47.7397C50.0039 47.7397 50.279 47.6551 50.5068 47.4858C50.7347 47.3166 50.9154 47.0464 51.0488 46.6753ZM48.1631 45.2544H51.0586C51.0195 44.8182 50.9089 44.491 50.7266 44.2729C50.4466 43.9344 50.0837 43.7651 49.6377 43.7651C49.234 43.7651 48.8939 43.9002 48.6172 44.1704C48.3438 44.4406 48.1924 44.8019 48.1631 45.2544ZM56.4492 46.4458L57.3135 46.5581C57.2191 47.1538 56.9766 47.6209 56.5859 47.9595C56.1986 48.2948 55.7217 48.4624 55.1553 48.4624C54.4456 48.4624 53.8743 48.2313 53.4414 47.769C53.0117 47.3035 52.7969 46.6379 52.7969 45.772C52.7969 45.2121 52.8896 44.7222 53.0752 44.3022C53.2607 43.8823 53.5423 43.5682 53.9199 43.3599C54.3008 43.1483 54.7142 43.0425 55.1602 43.0425C55.7233 43.0425 56.1839 43.1857 56.542 43.4722C56.9001 43.7554 57.1296 44.159 57.2305 44.6831L56.376 44.8149C56.2946 44.4666 56.1497 44.2046 55.9414 44.0288C55.7363 43.853 55.4873 43.7651 55.1943 43.7651C54.7516 43.7651 54.3919 43.9246 54.1152 44.2437C53.8385 44.5594 53.7002 45.0607 53.7002 45.7476C53.7002 46.4442 53.8337 46.9504 54.1006 47.2661C54.3675 47.5819 54.7158 47.7397 55.1455 47.7397C55.4906 47.7397 55.7786 47.634 56.0098 47.4224C56.2409 47.2108 56.3874 46.8853 56.4492 46.4458ZM57.7383 45.7524C57.7383 44.7922 58.0052 44.0809 58.5391 43.6187C58.985 43.2345 59.5286 43.0425 60.1699 43.0425C60.8828 43.0425 61.4655 43.2769 61.918 43.7456C62.3704 44.2111 62.5967 44.8556 62.5967 45.6792C62.5967 46.3465 62.4958 46.8722 62.2939 47.2563C62.0954 47.6372 61.804 47.9334 61.4199 48.145C61.0391 48.3566 60.6224 48.4624 60.1699 48.4624C59.444 48.4624 58.8564 48.2297 58.4072 47.7642C57.9613 47.2987 57.7383 46.6281 57.7383 45.7524ZM58.6416 45.7524C58.6416 46.4165 58.7865 46.9146 59.0762 47.2466C59.3659 47.5754 59.7305 47.7397 60.1699 47.7397C60.6061 47.7397 60.9691 47.5737 61.2588 47.2417C61.5485 46.9097 61.6934 46.4035 61.6934 45.7231C61.6934 45.0819 61.5469 44.5968 61.2539 44.2681C60.9642 43.936 60.6029 43.77 60.1699 43.77C59.7305 43.77 59.3659 43.9344 59.0762 44.2632C58.7865 44.592 58.6416 45.0884 58.6416 45.7524ZM65.0723 48.3452L63.0996 43.1597H64.0273L65.1406 46.2651C65.2611 46.6004 65.3717 46.9487 65.4727 47.3101C65.5508 47.0366 65.6598 46.7078 65.7998 46.3237L66.9521 43.1597H67.8555L65.8926 48.3452H65.0723ZM72.1816 46.6753L73.0898 46.7876C72.9466 47.3182 72.6813 47.73 72.2939 48.0229C71.9066 48.3159 71.4118 48.4624 70.8096 48.4624C70.0511 48.4624 69.4489 48.2297 69.0029 47.7642C68.5602 47.2954 68.3389 46.6395 68.3389 45.7964C68.3389 44.924 68.5635 44.2469 69.0127 43.7651C69.4619 43.2834 70.0446 43.0425 70.7607 43.0425C71.4541 43.0425 72.0205 43.2785 72.46 43.7505C72.8994 44.2225 73.1191 44.8866 73.1191 45.7427C73.1191 45.7948 73.1175 45.8729 73.1143 45.9771H69.2471C69.2796 46.5467 69.4408 46.9829 69.7305 47.2856C70.0202 47.5884 70.3815 47.7397 70.8145 47.7397C71.1367 47.7397 71.4118 47.6551 71.6396 47.4858C71.8675 47.3166 72.0482 47.0464 72.1816 46.6753ZM69.2959 45.2544H72.1914C72.1523 44.8182 72.0417 44.491 71.8594 44.2729C71.5794 43.9344 71.2165 43.7651 70.7705 43.7651C70.3669 43.7651 70.0267 43.9002 69.75 44.1704C69.4766 44.4406 69.3252 44.8019 69.2959 45.2544ZM74.1885 48.3452V43.1597H74.9795V43.9458C75.1813 43.578 75.3669 43.3354 75.5361 43.2183C75.7087 43.1011 75.8975 43.0425 76.1025 43.0425C76.3988 43.0425 76.6999 43.1369 77.0059 43.3257L76.7031 44.1411C76.4883 44.0142 76.2734 43.9507 76.0586 43.9507C75.8665 43.9507 75.694 44.0093 75.541 44.1265C75.388 44.2404 75.279 44.3999 75.2139 44.605C75.1162 44.9175 75.0674 45.2593 75.0674 45.6304V48.3452H74.1885ZM77.4893 50.3423L77.3916 49.5171C77.5837 49.5692 77.7513 49.5952 77.8945 49.5952C78.0898 49.5952 78.2461 49.5627 78.3633 49.4976C78.4805 49.4325 78.5765 49.3413 78.6514 49.2241C78.7067 49.1362 78.7962 48.9181 78.9199 48.5698C78.9362 48.521 78.9622 48.4494 78.998 48.355L77.0303 43.1597H77.9775L79.0566 46.1626C79.1966 46.5435 79.3219 46.9438 79.4326 47.3638C79.5335 46.9601 79.654 46.5662 79.7939 46.1821L80.9023 43.1597H81.7812L79.8086 48.4331C79.597 49.0028 79.4326 49.395 79.3154 49.6099C79.1592 49.8996 78.9801 50.1112 78.7783 50.2446C78.5765 50.3813 78.3356 50.4497 78.0557 50.4497C77.8864 50.4497 77.6976 50.4139 77.4893 50.3423ZM14.5205 62.3452V55.187H17.2207C17.696 55.187 18.0589 55.2098 18.3096 55.2554C18.6611 55.314 18.9557 55.4263 19.1934 55.5923C19.431 55.755 19.6214 55.9845 19.7646 56.2808C19.9111 56.577 19.9844 56.9025 19.9844 57.2573C19.9844 57.866 19.7907 58.382 19.4033 58.8052C19.016 59.2251 18.3161 59.4351 17.3037 59.4351H15.4678V62.3452H14.5205ZM15.4678 58.5903H17.3184C17.9303 58.5903 18.3649 58.4764 18.6221 58.2485C18.8792 58.0207 19.0078 57.7 19.0078 57.2866C19.0078 56.9871 18.9313 56.7316 18.7783 56.52C18.6286 56.3052 18.43 56.1636 18.1826 56.0952C18.0231 56.0529 17.7285 56.0317 17.2988 56.0317H15.4678V58.5903ZM20.751 59.7524C20.751 58.7922 21.0179 58.0809 21.5518 57.6187C21.9977 57.2345 22.5413 57.0425 23.1826 57.0425C23.8955 57.0425 24.4782 57.2769 24.9307 57.7456C25.3831 58.2111 25.6094 58.8556 25.6094 59.6792C25.6094 60.3465 25.5085 60.8722 25.3066 61.2563C25.1081 61.6372 24.8167 61.9334 24.4326 62.145C24.0518 62.3566 23.6351 62.4624 23.1826 62.4624C22.4567 62.4624 21.8691 62.2297 21.4199 61.7642C20.974 61.2987 20.751 60.6281 20.751 59.7524ZM21.6543 59.7524C21.6543 60.4165 21.7992 60.9146 22.0889 61.2466C22.3786 61.5754 22.7432 61.7397 23.1826 61.7397C23.6188 61.7397 23.9818 61.5737 24.2715 61.2417C24.5612 60.9097 24.7061 60.4035 24.7061 59.7231C24.7061 59.0819 24.5596 58.5968 24.2666 58.2681C23.9769 57.936 23.6156 57.77 23.1826 57.77C22.7432 57.77 22.3786 57.9344 22.0889 58.2632C21.7992 58.592 21.6543 59.0884 21.6543 59.7524ZM26.293 60.7974L27.1621 60.6606C27.2109 61.009 27.346 61.2759 27.5674 61.4614C27.792 61.647 28.1045 61.7397 28.5049 61.7397C28.9085 61.7397 29.208 61.6584 29.4033 61.4956C29.5986 61.3296 29.6963 61.1359 29.6963 60.9146C29.6963 60.716 29.61 60.5597 29.4375 60.4458C29.3171 60.3677 29.0176 60.2684 28.5391 60.1479C27.8945 59.9852 27.4469 59.8452 27.1963 59.728C26.9489 59.6076 26.7601 59.4432 26.6299 59.2349C26.5029 59.0233 26.4395 58.7905 26.4395 58.5366C26.4395 58.3055 26.4915 58.0923 26.5957 57.897C26.7031 57.6984 26.848 57.534 27.0303 57.4038C27.167 57.3029 27.3525 57.2183 27.5869 57.1499C27.8245 57.0783 28.0785 57.0425 28.3486 57.0425C28.7555 57.0425 29.112 57.1011 29.418 57.2183C29.7272 57.3354 29.9551 57.495 30.1016 57.6968C30.248 57.8953 30.349 58.1623 30.4043 58.4976L29.5449 58.6147C29.5059 58.3478 29.3919 58.1395 29.2031 57.9897C29.0176 57.84 28.7539 57.7651 28.4121 57.7651C28.0085 57.7651 27.7204 57.8319 27.5479 57.9653C27.3753 58.0988 27.2891 58.255 27.2891 58.4341C27.2891 58.548 27.3249 58.6506 27.3965 58.7417C27.4681 58.8361 27.5804 58.9142 27.7334 58.9761C27.8213 59.0086 28.0801 59.0835 28.5098 59.2007C29.1315 59.3667 29.5645 59.5034 29.8086 59.6108C30.056 59.715 30.2497 59.868 30.3896 60.0698C30.5296 60.2716 30.5996 60.5223 30.5996 60.8218C30.5996 61.1147 30.5133 61.3914 30.3408 61.6519C30.1715 61.909 29.9258 62.1092 29.6035 62.2524C29.2812 62.3924 28.9167 62.4624 28.5098 62.4624C27.8359 62.4624 27.3216 62.3224 26.9668 62.0425C26.6152 61.7625 26.3906 61.3475 26.293 60.7974ZM33.5635 61.5591L33.6904 62.3354C33.443 62.3875 33.2217 62.4136 33.0264 62.4136C32.7074 62.4136 32.46 62.3631 32.2842 62.2622C32.1084 62.1613 31.9847 62.0295 31.9131 61.8667C31.8415 61.7007 31.8057 61.354 31.8057 60.8267V57.8433H31.1611V57.1597H31.8057V55.8755L32.6797 55.3481V57.1597H33.5635V57.8433H32.6797V60.8755C32.6797 61.1261 32.6943 61.2873 32.7236 61.3589C32.7562 61.4305 32.8066 61.4875 32.875 61.5298C32.9466 61.5721 33.0475 61.5933 33.1777 61.5933C33.2754 61.5933 33.404 61.5819 33.5635 61.5591ZM34.2666 62.7749L35.1211 62.9019C35.1569 63.1655 35.2562 63.3576 35.4189 63.478C35.637 63.6408 35.9349 63.7222 36.3125 63.7222C36.7194 63.7222 37.0335 63.6408 37.2549 63.478C37.4762 63.3153 37.626 63.0874 37.7041 62.7944C37.7497 62.6154 37.7708 62.2394 37.7676 61.6665C37.3835 62.119 36.9049 62.3452 36.332 62.3452C35.6191 62.3452 35.0674 62.0881 34.6768 61.5737C34.2861 61.0594 34.0908 60.4425 34.0908 59.7231C34.0908 59.2284 34.1803 58.7726 34.3594 58.356C34.5384 57.936 34.7972 57.6121 35.1357 57.3843C35.4775 57.1564 35.8779 57.0425 36.3369 57.0425C36.9489 57.0425 37.4535 57.2899 37.8506 57.7847V57.1597H38.6611V61.6421C38.6611 62.4494 38.5781 63.0207 38.4121 63.356C38.2493 63.6945 37.9889 63.9614 37.6309 64.1567C37.276 64.3521 36.8382 64.4497 36.3174 64.4497C35.6989 64.4497 35.1992 64.3097 34.8184 64.0298C34.4375 63.7531 34.2536 63.3348 34.2666 62.7749ZM34.9941 59.6597C34.9941 60.34 35.1292 60.8364 35.3994 61.1489C35.6696 61.4614 36.0081 61.6177 36.415 61.6177C36.8187 61.6177 37.1572 61.4631 37.4307 61.1538C37.7041 60.8413 37.8408 60.353 37.8408 59.689C37.8408 59.0542 37.6992 58.5757 37.416 58.2534C37.1361 57.9312 36.7975 57.77 36.4004 57.77C36.0098 57.77 35.6777 57.9295 35.4043 58.2485C35.1309 58.5643 34.9941 59.0347 34.9941 59.6597ZM39.9844 62.3452V57.1597H40.7754V57.9458C40.9772 57.578 41.1628 57.3354 41.332 57.2183C41.5046 57.1011 41.6934 57.0425 41.8984 57.0425C42.1947 57.0425 42.4958 57.1369 42.8018 57.3257L42.499 58.1411C42.2842 58.0142 42.0693 57.9507 41.8545 57.9507C41.6624 57.9507 41.4899 58.0093 41.3369 58.1265C41.1839 58.2404 41.0749 58.3999 41.0098 58.605C40.9121 58.9175 40.8633 59.2593 40.8633 59.6304V62.3452H39.9844ZM46.874 60.6753L47.7822 60.7876C47.639 61.3182 47.3737 61.73 46.9863 62.0229C46.599 62.3159 46.1042 62.4624 45.502 62.4624C44.7435 62.4624 44.1413 62.2297 43.6953 61.7642C43.2526 61.2954 43.0312 60.6395 43.0312 59.7964C43.0312 58.924 43.2559 58.2469 43.7051 57.7651C44.1543 57.2834 44.737 57.0425 45.4531 57.0425C46.1465 57.0425 46.7129 57.2785 47.1523 57.7505C47.5918 58.2225 47.8115 58.8866 47.8115 59.7427C47.8115 59.7948 47.8099 59.8729 47.8066 59.9771H43.9395C43.972 60.5467 44.1331 60.9829 44.4229 61.2856C44.7126 61.5884 45.0739 61.7397 45.5068 61.7397C45.8291 61.7397 46.1042 61.6551 46.332 61.4858C46.5599 61.3166 46.7406 61.0464 46.874 60.6753ZM43.9883 59.2544H46.8838C46.8447 58.8182 46.734 58.491 46.5518 58.2729C46.2718 57.9344 45.9089 57.7651 45.4629 57.7651C45.0592 57.7651 44.7191 57.9002 44.4424 58.1704C44.1689 58.4406 44.0176 58.8019 43.9883 59.2544ZM48.6807 60.0454L49.5742 59.9673C49.6165 60.3254 49.7142 60.62 49.8672 60.8511C50.0234 61.0789 50.2643 61.2645 50.5898 61.4077C50.9154 61.5477 51.2816 61.6177 51.6885 61.6177C52.0498 61.6177 52.3688 61.564 52.6455 61.4565C52.9222 61.3491 53.1273 61.2026 53.2607 61.0171C53.3975 60.8283 53.4658 60.6232 53.4658 60.4019C53.4658 60.1772 53.4007 59.9819 53.2705 59.8159C53.1403 59.6466 52.9255 59.505 52.626 59.3911C52.4339 59.3162 52.0091 59.2007 51.3516 59.0444C50.694 58.8849 50.2334 58.7352 49.9697 58.5952C49.6279 58.4162 49.3724 58.1948 49.2031 57.9312C49.0371 57.6642 48.9541 57.3664 48.9541 57.0376C48.9541 56.6763 49.0566 56.3394 49.2617 56.0269C49.4668 55.7111 49.7663 55.4718 50.1602 55.3091C50.554 55.1463 50.9919 55.0649 51.4736 55.0649C52.0042 55.0649 52.4714 55.1512 52.875 55.3237C53.2819 55.493 53.5944 55.7437 53.8125 56.0757C54.0306 56.4077 54.1478 56.7837 54.1641 57.2036L53.2559 57.272C53.207 56.8195 53.041 56.4777 52.7578 56.2466C52.4779 56.0155 52.0628 55.8999 51.5127 55.8999C50.9398 55.8999 50.5215 56.0057 50.2578 56.2173C49.9974 56.4256 49.8672 56.6779 49.8672 56.9741C49.8672 57.2313 49.96 57.4429 50.1455 57.6089C50.3278 57.7749 50.8031 57.9458 51.5713 58.1216C52.3428 58.2941 52.8717 58.4455 53.1582 58.5757C53.5749 58.7677 53.8825 59.0119 54.0811 59.3081C54.2796 59.6011 54.3789 59.9396 54.3789 60.3237C54.3789 60.7046 54.2699 61.0643 54.0518 61.4028C53.8337 61.7381 53.5195 62.0002 53.1094 62.189C52.7025 62.3745 52.2435 62.4673 51.7324 62.4673C51.0846 62.4673 50.541 62.3729 50.1016 62.1841C49.6654 61.9953 49.3219 61.7121 49.0713 61.3345C48.8239 60.9536 48.6937 60.5239 48.6807 60.0454ZM61.0977 61.5786C61.5371 61.8813 61.9424 62.1027 62.3135 62.2427L62.0352 62.9019C61.5208 62.7163 61.0081 62.4233 60.4971 62.0229C59.9665 62.3192 59.3805 62.4673 58.7393 62.4673C58.0915 62.4673 57.5039 62.311 56.9766 61.9985C56.4492 61.686 56.0423 61.2466 55.7559 60.6802C55.4727 60.1138 55.3311 59.4757 55.3311 58.7661C55.3311 58.0597 55.4743 57.4168 55.7607 56.8374C56.0472 56.258 56.4541 55.8169 56.9814 55.5142C57.512 55.2114 58.1045 55.0601 58.7588 55.0601C59.4196 55.0601 60.0153 55.2179 60.5459 55.5337C61.0765 55.8462 61.4801 56.2856 61.7568 56.8521C62.0368 57.4152 62.1768 58.0516 62.1768 58.7612C62.1768 59.3504 62.0872 59.881 61.9082 60.353C61.7292 60.8218 61.459 61.2303 61.0977 61.5786ZM59.0127 60.3677C59.5596 60.5207 60.0104 60.7485 60.3652 61.0513C60.9219 60.5435 61.2002 59.7801 61.2002 58.7612C61.2002 58.1818 61.1009 57.6756 60.9023 57.2427C60.707 56.8097 60.4189 56.4744 60.0381 56.2368C59.6605 55.9959 59.2357 55.8755 58.7637 55.8755C58.0573 55.8755 57.4714 56.118 57.0059 56.603C56.5404 57.0848 56.3076 57.8058 56.3076 58.7661C56.3076 59.6971 56.5371 60.4116 56.9961 60.9097C57.4583 61.4077 58.0475 61.6567 58.7637 61.6567C59.1022 61.6567 59.4212 61.5933 59.7207 61.4663C59.4245 61.2743 59.112 61.1375 58.7832 61.0562L59.0127 60.3677ZM63.417 62.3452V55.187H64.3643V61.5005H67.8896V62.3452H63.417Z" fill="#2A303D"/>
</svg>
