<svg width="90" height="51" viewBox="0 0 90 51" fill="none" xmlns="http://www.w3.org/2000/svg">
<path d="M52.6081 28.2596C56.5837 28.2596 59.8065 25.0368 59.8065 21.0612C59.8065 17.0856 56.5837 13.8628 52.6081 13.8628C48.6325 13.8628 45.4097 17.0856 45.4097 21.0612C45.4097 25.0368 48.6325 28.2596 52.6081 28.2596Z" fill="white"/>
<path d="M44.5172 9.15843C40.6579 9.15843 36.7988 9.15843 32.94 9.15843C32.573 9.18534 32.2045 9.13276 31.8596 9.00429C31.5148 8.87582 31.2017 8.6745 30.9417 8.41402C30.6817 8.15355 30.481 7.84005 30.3531 7.49494C30.2253 7.14983 30.1735 6.78122 30.2011 6.41423C30.2011 5.16021 30.2011 3.90644 30.2011 2.65291C30.1902 2.30319 30.251 1.95493 30.3796 1.62954C30.5082 1.30414 30.7019 1.00847 30.9489 0.760651C31.1959 0.512829 31.4909 0.318087 31.8159 0.188389C32.1408 0.0586902 32.4889 -0.00323316 32.8386 0.00641522C40.6115 0.00246709 48.3844 0.00246709 56.1573 0.00641522C56.5151 -0.0190648 56.8742 0.0315446 57.211 0.154886C57.5479 0.278227 57.8548 0.47151 58.1115 0.72202C58.3683 0.97253 58.569 1.27458 58.7005 1.60828C58.8321 1.94198 58.8915 2.29976 58.8749 2.65808C58.9512 4.04935 58.9406 5.44404 58.843 6.83398C58.8054 7.47588 58.5189 8.0778 58.0445 8.51184C57.5701 8.94589 56.9451 9.17784 56.3024 9.15843C53.3769 9.17028 50.4543 9.16287 47.5265 9.16361H44.5172V9.15843ZM41.4495 4.59317C41.4495 4.88557 41.4436 5.17798 41.4495 5.46964C41.4747 6.46975 41.2592 6.37648 42.4015 6.38832C42.7035 6.38832 42.8235 6.28173 42.8168 5.97156C42.802 5.22018 42.8227 4.46879 42.8101 3.71741C42.7916 2.65142 42.9996 2.81724 41.8381 2.78319C41.5539 2.77505 41.4354 2.88091 41.4451 3.17332C41.4613 3.64562 41.4495 4.11939 41.4495 4.59317ZM33.5775 4.53764C33.5775 4.8715 33.5738 5.2039 33.5775 5.5385C33.5893 6.47199 33.4538 6.35278 34.4347 6.38758C34.7878 6.40016 34.8952 6.2573 34.8878 5.92048C34.8715 5.17058 34.8833 4.41921 34.8833 3.66857C34.8833 2.72398 34.8833 2.73211 33.9395 2.78023C33.6722 2.7943 33.5693 2.89571 33.5745 3.15999C33.5863 3.6197 33.5782 4.07496 33.5775 4.53689V4.53764ZM37.5142 4.57539C37.5142 4.90851 37.5142 5.24164 37.5142 5.57476C37.5142 6.41719 37.5105 6.40609 38.3611 6.38907C38.6971 6.38315 38.8364 6.26175 38.8297 5.92122C38.8164 5.17207 38.8201 4.42215 38.826 3.67225C38.8341 2.72396 38.8304 2.72545 37.8851 2.78394C37.589 2.8017 37.5039 2.93199 37.5113 3.20145C37.5261 3.6582 37.515 4.11716 37.5142 4.57539ZM49.6762 5.26311C49.8011 5.25459 49.9265 5.25459 50.0515 5.26311C50.452 5.31715 50.552 5.12543 50.546 4.75677C50.5305 3.73297 50.5674 3.91434 49.6502 3.89805C49.5807 3.89805 49.5104 3.89805 49.4408 3.89805C48.8856 3.89805 48.8849 3.89804 48.8886 4.44585C48.8952 5.36527 48.7723 5.24978 49.6762 5.25941V5.26311ZM53.9742 5.25941H54.5169C54.5478 5.26291 54.5791 5.2603 54.609 5.2517C54.6389 5.24311 54.6668 5.22869 54.6911 5.2093C54.7154 5.18992 54.7357 5.16593 54.7507 5.1387C54.7658 5.11148 54.7754 5.08156 54.7789 5.05064C54.9884 4.18304 54.7789 3.90101 53.9098 3.90101C53.8265 3.90694 53.7429 3.90694 53.6596 3.90101C53.2613 3.84327 53.1207 4.00686 53.1326 4.41031C53.16 5.38525 53.0467 5.25941 53.9742 5.25941Z" fill="#FF8B4D"/>
<path d="M43.2566 26.1676C42.4904 26.1883 41.7243 26.1764 40.9573 26.1727C39.995 26.169 40.1016 26.2705 40.0942 25.2896C40.0942 25.0675 40.0831 24.8454 40.0942 24.6234C40.1119 24.2932 39.952 24.174 39.6403 24.1836C39.2917 24.1947 38.943 24.1762 38.5951 24.1918C38.2708 24.2066 38.1509 24.0726 38.1509 23.7476C38.1613 22.5358 38.1635 21.3232 38.1509 20.1114C38.1465 19.7412 38.2604 19.6028 38.6543 19.6065C39.2218 19.6119 39.7894 19.6149 40.3569 19.6154C40.3421 19.568 40.3251 19.5214 40.314 19.4718C40.2575 19.2912 40.2297 19.1028 40.2318 18.9136H40.1859C40.0363 18.8865 39.8832 18.8865 39.7336 18.9136C39.322 18.9255 38.9104 18.8996 38.4988 18.8833C38.3041 18.8755 38.1117 18.8383 37.9281 18.773C37.7149 18.7644 37.5049 18.7172 37.3085 18.6338C36.62 19.1532 35.8121 19.4913 34.9589 19.6169C35.383 19.6169 35.8072 19.6169 36.2307 19.6169C36.4705 19.6169 36.6304 19.6494 36.6282 19.9507C36.6186 21.247 36.6208 22.5417 36.6282 23.8387C36.6282 24.0874 36.529 24.1947 36.2825 24.191C35.8642 24.1844 35.446 24.1962 35.0284 24.1836C34.7012 24.174 34.5843 24.3317 34.5917 24.6396C34.6028 25.015 34.5754 25.3925 34.608 25.7656C34.6354 26.0824 34.534 26.1883 34.2179 26.1824C33.4658 26.1676 32.7128 26.172 31.9607 26.1824C30.7866 26.1942 30.9628 26.0284 30.9317 27.198C30.9214 27.5963 31.0495 27.7407 31.45 27.7318C32.3835 27.711 33.3169 27.7318 34.2504 27.7214C34.4977 27.7214 34.605 27.7902 34.5961 28.0508C34.5813 28.4683 34.5962 28.8858 34.5917 29.3034C34.588 29.5491 34.6612 29.7053 34.9418 29.7053C36.5304 29.7024 38.1188 29.7024 39.7069 29.7053C39.9964 29.7053 40.0986 29.5573 40.0919 29.2871C40.0838 28.9251 40.1097 28.5616 40.0867 28.2004C40.0638 27.8391 40.1852 27.7021 40.559 27.7147C41.283 27.7384 42.0077 27.7251 42.7325 27.7207C43.8777 27.7133 43.7578 27.8998 43.7733 26.6709C43.7814 26.2705 43.6282 26.1579 43.2566 26.1676Z" fill="#FF8B4D"/>
<path d="M52.6085 13.8637C53.8668 13.8632 55.1032 14.1928 56.1943 14.8195C57.2855 15.4463 58.1932 16.3483 58.8268 17.4355C58.832 17.3948 58.8393 17.3555 58.843 17.3141C58.9406 15.9241 58.9512 14.5295 58.8749 13.1382C58.8914 12.7799 58.832 12.4221 58.7004 12.0884C58.5688 11.7547 58.368 11.4527 58.1113 11.2022C57.8546 10.9516 57.5477 10.7583 57.211 10.6348C56.8742 10.5113 56.5151 10.4605 56.1573 10.4858C48.3839 10.4858 40.611 10.487 32.8386 10.4895C32.4889 10.4799 32.1408 10.5418 31.8159 10.6715C31.4909 10.8012 31.1959 10.9959 30.9489 11.2437C30.7019 11.4915 30.5082 11.7872 30.3796 12.1126C30.251 12.438 30.1902 12.7863 30.2011 13.136C30.1971 14.39 30.1971 15.6438 30.2011 16.8973C30.1735 17.2643 30.2253 17.6329 30.3531 17.978C30.481 18.3231 30.6817 18.6366 30.9417 18.8971C31.2017 19.1576 31.5148 19.3589 31.8596 19.4874C32.2045 19.6158 32.5731 19.6684 32.9401 19.6415C36.7994 19.6415 40.6584 19.6415 44.5172 19.6415H45.5536C45.8819 18.0121 46.7638 16.5465 48.0497 15.4934C49.3356 14.4402 50.9463 13.8644 52.6085 13.8637ZM34.4347 16.8707C33.4538 16.8344 33.5893 16.9543 33.5775 16.0216C33.573 15.6884 33.5775 15.3553 33.5775 15.0207C33.5775 14.5618 33.5864 14.1028 33.5775 13.6445C33.5716 13.3803 33.6752 13.2789 33.9425 13.2648C34.8856 13.2144 34.8855 13.207 34.8862 14.1531C34.8862 14.9037 34.8744 15.6551 34.8907 16.405C34.8951 16.7404 34.7863 16.884 34.4347 16.8707ZM38.3582 16.8707C37.5076 16.8869 37.5083 16.898 37.5113 16.0564C37.5113 15.7232 37.5113 15.3901 37.5113 15.057C37.5113 14.5988 37.5209 14.1405 37.5113 13.6823C37.5039 13.4099 37.5912 13.2826 37.8851 13.2648C38.8304 13.2078 38.8341 13.2063 38.826 14.1531C38.8201 14.9023 38.8164 15.6522 38.8297 16.4021C38.8356 16.7456 38.6964 16.867 38.3603 16.8729L38.3582 16.8707ZM42.3993 16.8707C41.2571 16.8588 41.4725 16.9521 41.4473 15.952C41.4407 15.6603 41.4473 15.3679 41.4473 15.0755C41.4473 14.6017 41.4592 14.1287 41.4436 13.6556C41.434 13.3632 41.5524 13.2574 41.8367 13.2655C42.9982 13.2996 42.7902 13.1338 42.8087 14.1998C42.8213 14.9511 42.8006 15.7025 42.8154 16.4539C42.8235 16.7648 42.7073 16.8744 42.4016 16.8714L42.3993 16.8707Z" fill="#FF8B4D"/>
<path d="M46.4683 21.0815C46.4632 19.8602 46.8224 18.665 47.5 17.6489C48.1776 16.6327 49.1429 15.8417 50.2723 15.377C51.4018 14.9122 52.6443 14.7949 53.8408 15.0399C55.0373 15.2849 56.1336 15.8812 56.9895 16.7525C57.8454 17.6238 58.422 18.7305 58.6456 19.9312C58.8693 21.1319 58.7297 22.3721 58.2449 23.4931C57.7601 24.6141 56.9521 25.5651 55.924 26.2244C54.8959 26.8838 53.6945 27.2216 52.4735 27.1947C50.873 27.16 49.3495 26.5014 48.2276 25.3594C47.1058 24.2174 46.4745 22.6823 46.4683 21.0815Z" fill="#6B94E7"/>
<path d="M49.8179 19.7399C49.6623 19.7293 49.5062 19.7519 49.3599 19.8061C49.2137 19.8603 49.0805 19.9449 48.9694 20.0543C48.8582 20.1637 48.7715 20.2954 48.715 20.4408C48.6585 20.5862 48.6335 20.7419 48.6416 20.8977C48.6466 21.106 48.7095 21.3087 48.8233 21.4832C48.937 21.6578 49.0972 21.7972 49.2858 21.8858C49.4743 21.9744 49.6838 22.0087 49.8908 21.985C50.0977 21.9612 50.294 21.8803 50.4575 21.7512C50.4927 21.7201 50.5372 21.7016 50.584 21.6983C50.6309 21.6951 50.6775 21.7075 50.7166 21.7335C51.3828 22.114 52.0506 22.4913 52.7198 22.8653C52.7761 22.8897 52.8228 22.9319 52.8528 22.9854C52.8827 23.0389 52.8943 23.1007 52.8856 23.1614C52.8794 23.3371 52.9143 23.5118 52.9875 23.6716C53.0607 23.8314 53.1703 23.9719 53.3074 24.0819C53.4445 24.1919 53.6053 24.2683 53.7772 24.3052C53.9491 24.342 54.1272 24.3382 54.2973 24.2941C54.5193 24.2434 54.7199 24.1244 54.8706 23.9537C55.0214 23.7831 55.1147 23.5694 55.1376 23.3428C55.1721 23.1405 55.1468 22.9324 55.0645 22.7443C54.9823 22.5562 54.8469 22.3963 54.6749 22.2842C54.4962 22.1496 54.2801 22.0739 54.0565 22.0675C53.8329 22.0611 53.6128 22.1244 53.4268 22.2487C53.3726 22.2897 53.3066 22.3122 53.2386 22.3129C53.1706 22.3136 53.1042 22.2924 53.0492 22.2524C52.4 21.8741 51.7434 21.5069 51.089 21.1361C50.992 21.0813 50.8942 21.0369 50.8987 20.8947C50.9031 20.7526 51.0113 20.7156 51.109 20.6726C51.7167 20.3876 52.3275 20.11 52.9316 19.8184C53.0015 19.7745 53.0836 19.754 53.166 19.7599C53.2483 19.7657 53.3266 19.7976 53.3897 19.851C53.5671 19.972 53.7755 20.0397 53.9902 20.0459C54.2048 20.0521 54.4168 19.9967 54.6009 19.8861C54.785 19.7755 54.9336 19.6145 55.0289 19.4221C55.1243 19.2297 55.1625 19.014 55.139 18.8005C55.1064 18.5189 54.9691 18.2598 54.7543 18.0747C54.5396 17.8896 54.2631 17.7921 53.9797 17.8014C53.6963 17.8107 53.4268 17.9262 53.2247 18.125C53.0226 18.3238 52.9026 18.5914 52.8885 18.8745C52.8919 18.9354 52.8755 18.9956 52.8415 19.0463C52.8076 19.0969 52.7581 19.1351 52.7006 19.1551C52.0704 19.4438 51.4426 19.7369 50.8173 20.0345C50.765 20.0683 50.7025 20.0825 50.6407 20.0746C50.5789 20.0668 50.522 20.0374 50.4798 19.9916C50.392 19.9074 50.2881 19.8417 50.1744 19.7985C50.0607 19.7553 49.9395 19.7353 49.8179 19.7399Z" fill="white"/>
<path d="M4.61426 46.7056V39.5474H7.08008C7.63672 39.5474 8.06152 39.5815 8.35449 39.6499C8.76465 39.7443 9.11458 39.9152 9.4043 40.1626C9.7819 40.4816 10.0635 40.8901 10.249 41.3882C10.4378 41.883 10.5322 42.4494 10.5322 43.0874C10.5322 43.631 10.4688 44.1128 10.3418 44.5327C10.2148 44.9526 10.0521 45.3009 9.85352 45.5776C9.65495 45.8511 9.43685 46.0675 9.19922 46.2271C8.96484 46.3833 8.68001 46.5021 8.34473 46.5835C8.0127 46.6649 7.63021 46.7056 7.19727 46.7056H4.61426ZM5.56152 45.8608H7.08984C7.56185 45.8608 7.93132 45.8169 8.19824 45.729C8.46842 45.6411 8.68327 45.5174 8.84277 45.3579C9.06738 45.1333 9.24154 44.8322 9.36523 44.4546C9.49219 44.0737 9.55566 43.6131 9.55566 43.0728C9.55566 42.3241 9.43197 41.7495 9.18457 41.3491C8.94043 40.9455 8.64258 40.6753 8.29102 40.5386C8.03711 40.4409 7.62858 40.3921 7.06543 40.3921H5.56152V45.8608ZM11.7334 40.5581V39.5474H12.6123V40.5581H11.7334ZM11.7334 46.7056V41.52H12.6123V46.7056H11.7334ZM13.6035 45.1577L14.4727 45.021C14.5215 45.3693 14.6566 45.6362 14.8779 45.8218C15.1025 46.0073 15.415 46.1001 15.8154 46.1001C16.2191 46.1001 16.5186 46.0187 16.7139 45.856C16.9092 45.6899 17.0068 45.4963 17.0068 45.2749C17.0068 45.0763 16.9206 44.9201 16.748 44.8062C16.6276 44.728 16.3281 44.6287 15.8496 44.5083C15.2051 44.3455 14.7575 44.2056 14.5068 44.0884C14.2594 43.9679 14.0706 43.8035 13.9404 43.5952C13.8135 43.3836 13.75 43.1509 13.75 42.897C13.75 42.6659 13.8021 42.4526 13.9062 42.2573C14.0137 42.0588 14.1585 41.8944 14.3408 41.7642C14.4775 41.6632 14.6631 41.5786 14.8975 41.5103C15.1351 41.4386 15.389 41.4028 15.6592 41.4028C16.0661 41.4028 16.4225 41.4614 16.7285 41.5786C17.0378 41.6958 17.2656 41.8553 17.4121 42.0571C17.5586 42.2557 17.6595 42.5226 17.7148 42.8579L16.8555 42.9751C16.8164 42.7082 16.7025 42.4998 16.5137 42.3501C16.3281 42.2004 16.0645 42.1255 15.7227 42.1255C15.319 42.1255 15.0309 42.1922 14.8584 42.3257C14.6859 42.4591 14.5996 42.6154 14.5996 42.7944C14.5996 42.9084 14.6354 43.0109 14.707 43.1021C14.7786 43.1965 14.891 43.2746 15.0439 43.3364C15.1318 43.369 15.3906 43.4438 15.8203 43.561C16.4421 43.7271 16.875 43.8638 17.1191 43.9712C17.3665 44.0754 17.5602 44.2284 17.7002 44.4302C17.8402 44.632 17.9102 44.8826 17.9102 45.1821C17.9102 45.4751 17.8239 45.7518 17.6514 46.0122C17.4821 46.2694 17.2363 46.4696 16.9141 46.6128C16.5918 46.7528 16.2272 46.8228 15.8203 46.8228C15.1465 46.8228 14.6322 46.6828 14.2773 46.4028C13.9258 46.1229 13.7012 45.7078 13.6035 45.1577ZM20.874 45.9194L21.001 46.6958C20.7536 46.7479 20.5322 46.7739 20.3369 46.7739C20.0179 46.7739 19.7705 46.7235 19.5947 46.6226C19.4189 46.5216 19.2952 46.3898 19.2236 46.2271C19.152 46.061 19.1162 45.7144 19.1162 45.187V42.2036H18.4717V41.52H19.1162V40.2358L19.9902 39.7085V41.52H20.874V42.2036H19.9902V45.2358C19.9902 45.4865 20.0049 45.6476 20.0342 45.7192C20.0667 45.7909 20.1172 45.8478 20.1855 45.8901C20.2572 45.9325 20.3581 45.9536 20.4883 45.9536C20.5859 45.9536 20.7145 45.9422 20.874 45.9194ZM21.7285 46.7056V41.52H22.5195V42.3062C22.7214 41.9383 22.9069 41.6958 23.0762 41.5786C23.2487 41.4614 23.4375 41.4028 23.6426 41.4028C23.9388 41.4028 24.2399 41.4972 24.5459 41.686L24.2432 42.5015C24.0283 42.3745 23.8135 42.311 23.5986 42.311C23.4066 42.311 23.234 42.3696 23.0811 42.4868C22.9281 42.6007 22.819 42.7603 22.7539 42.9653C22.6562 43.2778 22.6074 43.6196 22.6074 43.9907V46.7056H21.7285ZM25.0732 40.5581V39.5474H25.9521V40.5581H25.0732ZM25.0732 46.7056V41.52H25.9521V46.7056H25.0732ZM28.1055 46.7056H27.29V39.5474H28.1689V42.1011C28.54 41.6356 29.0137 41.4028 29.5898 41.4028C29.9089 41.4028 30.21 41.4679 30.4932 41.5981C30.7796 41.7251 31.014 41.9058 31.1963 42.1401C31.3818 42.3713 31.5267 42.6512 31.6309 42.98C31.735 43.3088 31.7871 43.6603 31.7871 44.0347C31.7871 44.9233 31.5674 45.6102 31.1279 46.0952C30.6885 46.5802 30.1611 46.8228 29.5459 46.8228C28.9339 46.8228 28.4538 46.5672 28.1055 46.0562V46.7056ZM28.0957 44.0737C28.0957 44.6955 28.1803 45.1447 28.3496 45.4214C28.6263 45.8739 29.0007 46.1001 29.4727 46.1001C29.8568 46.1001 30.1888 45.9341 30.4688 45.6021C30.7487 45.2668 30.8887 44.7687 30.8887 44.1079C30.8887 43.4308 30.7536 42.9312 30.4834 42.6089C30.2165 42.2866 29.8926 42.1255 29.5117 42.1255C29.1276 42.1255 28.7956 42.2931 28.5156 42.6284C28.2357 42.9604 28.0957 43.4422 28.0957 44.0737ZM36.2598 46.7056V45.9438C35.8561 46.5298 35.3076 46.8228 34.6143 46.8228C34.3083 46.8228 34.0218 46.7642 33.7549 46.647C33.4912 46.5298 33.2943 46.3833 33.1641 46.2075C33.0371 46.0285 32.9476 45.8104 32.8955 45.5532C32.8597 45.3807 32.8418 45.1073 32.8418 44.7329V41.52H33.7207V44.396C33.7207 44.855 33.7386 45.1642 33.7744 45.3237C33.8298 45.5549 33.9469 45.7371 34.126 45.8706C34.305 46.0008 34.5264 46.0659 34.79 46.0659C35.0537 46.0659 35.3011 45.9992 35.5322 45.8657C35.7633 45.729 35.9261 45.5451 36.0205 45.314C36.1182 45.0796 36.167 44.741 36.167 44.2983V41.52H37.0459V46.7056H36.2598ZM40.3467 45.9194L40.4736 46.6958C40.2262 46.7479 40.0049 46.7739 39.8096 46.7739C39.4906 46.7739 39.2432 46.7235 39.0674 46.6226C38.8916 46.5216 38.7679 46.3898 38.6963 46.2271C38.6247 46.061 38.5889 45.7144 38.5889 45.187V42.2036H37.9443V41.52H38.5889V40.2358L39.4629 39.7085V41.52H40.3467V42.2036H39.4629V45.2358C39.4629 45.4865 39.4775 45.6476 39.5068 45.7192C39.5394 45.7909 39.5898 45.8478 39.6582 45.8901C39.7298 45.9325 39.8307 45.9536 39.9609 45.9536C40.0586 45.9536 40.1872 45.9422 40.3467 45.9194ZM41.2158 40.5581V39.5474H42.0947V40.5581H41.2158ZM41.2158 46.7056V41.52H42.0947V46.7056H41.2158ZM43.1104 44.1128C43.1104 43.1525 43.3773 42.4412 43.9111 41.979C44.3571 41.5949 44.9007 41.4028 45.542 41.4028C46.2549 41.4028 46.8376 41.6372 47.29 42.106C47.7425 42.5715 47.9688 43.216 47.9688 44.0396C47.9688 44.7069 47.8678 45.2326 47.666 45.6167C47.4674 45.9976 47.1761 46.2938 46.792 46.5054C46.4111 46.717 45.9945 46.8228 45.542 46.8228C44.8161 46.8228 44.2285 46.59 43.7793 46.1245C43.3333 45.659 43.1104 44.9884 43.1104 44.1128ZM44.0137 44.1128C44.0137 44.7769 44.1585 45.2749 44.4482 45.6069C44.738 45.9357 45.1025 46.1001 45.542 46.1001C45.9782 46.1001 46.3411 45.9341 46.6309 45.6021C46.9206 45.27 47.0654 44.7638 47.0654 44.0835C47.0654 43.4422 46.9189 42.9572 46.626 42.6284C46.3363 42.2964 45.9749 42.1304 45.542 42.1304C45.1025 42.1304 44.738 42.2948 44.4482 42.6235C44.1585 42.9523 44.0137 43.4487 44.0137 44.1128ZM49.0039 46.7056V41.52H49.7949V42.2573C50.1758 41.6877 50.7259 41.4028 51.4453 41.4028C51.7578 41.4028 52.0443 41.4598 52.3047 41.5737C52.5684 41.6844 52.7653 41.8309 52.8955 42.0132C53.0257 42.1955 53.1169 42.4119 53.1689 42.6626C53.2015 42.8254 53.2178 43.1102 53.2178 43.5171V46.7056H52.3389V43.5513C52.3389 43.1932 52.3047 42.9263 52.2363 42.7505C52.168 42.5715 52.0459 42.4299 51.8701 42.3257C51.6976 42.2183 51.4941 42.1646 51.2598 42.1646C50.8854 42.1646 50.5615 42.2834 50.2881 42.521C50.0179 42.7586 49.8828 43.2095 49.8828 43.8735V46.7056H49.0039ZM57.1436 44.4058L58.0371 44.3276C58.0794 44.6857 58.1771 44.9803 58.3301 45.2114C58.4863 45.4393 58.7272 45.6248 59.0527 45.7681C59.3783 45.908 59.7445 45.978 60.1514 45.978C60.5127 45.978 60.8317 45.9243 61.1084 45.8169C61.3851 45.7095 61.5902 45.563 61.7236 45.3774C61.8604 45.1886 61.9287 44.9836 61.9287 44.7622C61.9287 44.5376 61.8636 44.3423 61.7334 44.1763C61.6032 44.007 61.3883 43.8654 61.0889 43.7515C60.8968 43.6766 60.472 43.561 59.8145 43.4048C59.1569 43.2453 58.6963 43.0955 58.4326 42.9556C58.0908 42.7765 57.8353 42.5552 57.666 42.2915C57.5 42.0246 57.417 41.7267 57.417 41.3979C57.417 41.0366 57.5195 40.6997 57.7246 40.3872C57.9297 40.0715 58.2292 39.8322 58.623 39.6694C59.0169 39.5067 59.4548 39.4253 59.9365 39.4253C60.4671 39.4253 60.9342 39.5116 61.3379 39.6841C61.7448 39.8534 62.0573 40.104 62.2754 40.436C62.4935 40.7681 62.6107 41.144 62.627 41.564L61.7188 41.6323C61.6699 41.1799 61.5039 40.8381 61.2207 40.6069C60.9408 40.3758 60.5257 40.2603 59.9756 40.2603C59.4027 40.2603 58.9844 40.366 58.7207 40.5776C58.4603 40.786 58.3301 41.0382 58.3301 41.3345C58.3301 41.5916 58.4229 41.8032 58.6084 41.9692C58.7907 42.1353 59.266 42.3062 60.0342 42.4819C60.8057 42.6545 61.3346 42.8058 61.6211 42.936C62.0378 43.1281 62.3454 43.3722 62.5439 43.6685C62.7425 43.9614 62.8418 44.3 62.8418 44.6841C62.8418 45.0649 62.7327 45.4246 62.5146 45.7632C62.2965 46.0985 61.9824 46.3605 61.5723 46.5493C61.1654 46.7349 60.7064 46.8276 60.1953 46.8276C59.5475 46.8276 59.0039 46.7332 58.5645 46.5444C58.1283 46.3556 57.7848 46.0724 57.5342 45.6948C57.2868 45.314 57.1566 44.8843 57.1436 44.4058ZM67.5732 45.0356L68.4814 45.1479C68.3382 45.6785 68.0729 46.0903 67.6855 46.3833C67.2982 46.6763 66.8034 46.8228 66.2012 46.8228C65.4427 46.8228 64.8405 46.59 64.3945 46.1245C63.9518 45.6558 63.7305 44.9998 63.7305 44.1567C63.7305 43.2843 63.9551 42.6073 64.4043 42.1255C64.8535 41.6437 65.4362 41.4028 66.1523 41.4028C66.8457 41.4028 67.4121 41.6388 67.8516 42.1108C68.291 42.5828 68.5107 43.2469 68.5107 44.103C68.5107 44.1551 68.5091 44.2332 68.5059 44.3374H64.6387C64.6712 44.9071 64.8324 45.3433 65.1221 45.646C65.4118 45.9487 65.7731 46.1001 66.2061 46.1001C66.5283 46.1001 66.8034 46.0155 67.0312 45.8462C67.2591 45.6769 67.4398 45.4067 67.5732 45.0356ZM64.6875 43.6147H67.583C67.5439 43.1785 67.4333 42.8514 67.251 42.6333C66.971 42.2948 66.6081 42.1255 66.1621 42.1255C65.7585 42.1255 65.4183 42.2606 65.1416 42.5308C64.8682 42.8009 64.7168 43.1623 64.6875 43.6147ZM69.5801 46.7056V41.52H70.3711V42.3062C70.5729 41.9383 70.7585 41.6958 70.9277 41.5786C71.1003 41.4614 71.2891 41.4028 71.4941 41.4028C71.7904 41.4028 72.0915 41.4972 72.3975 41.686L72.0947 42.5015C71.8799 42.3745 71.665 42.311 71.4502 42.311C71.2581 42.311 71.0856 42.3696 70.9326 42.4868C70.7796 42.6007 70.6706 42.7603 70.6055 42.9653C70.5078 43.2778 70.459 43.6196 70.459 43.9907V46.7056H69.5801ZM74.3604 46.7056L72.3877 41.52H73.3154L74.4287 44.6255C74.5492 44.9608 74.6598 45.3091 74.7607 45.6704C74.8389 45.397 74.9479 45.0682 75.0879 44.6841L76.2402 41.52H77.1436L75.1807 46.7056H74.3604ZM81.4697 45.0356L82.3779 45.1479C82.2347 45.6785 81.9694 46.0903 81.582 46.3833C81.1947 46.6763 80.6999 46.8228 80.0977 46.8228C79.3392 46.8228 78.737 46.59 78.291 46.1245C77.8483 45.6558 77.627 44.9998 77.627 44.1567C77.627 43.2843 77.8516 42.6073 78.3008 42.1255C78.75 41.6437 79.3327 41.4028 80.0488 41.4028C80.7422 41.4028 81.3086 41.6388 81.748 42.1108C82.1875 42.5828 82.4072 43.2469 82.4072 44.103C82.4072 44.1551 82.4056 44.2332 82.4023 44.3374H78.5352C78.5677 44.9071 78.7288 45.3433 79.0186 45.646C79.3083 45.9487 79.6696 46.1001 80.1025 46.1001C80.4248 46.1001 80.6999 46.0155 80.9277 45.8462C81.1556 45.6769 81.3363 45.4067 81.4697 45.0356ZM78.584 43.6147H81.4795C81.4404 43.1785 81.3298 42.8514 81.1475 42.6333C80.8675 42.2948 80.5046 42.1255 80.0586 42.1255C79.6549 42.1255 79.3148 42.2606 79.0381 42.5308C78.7646 42.8009 78.6133 43.1623 78.584 43.6147ZM83.4766 46.7056V41.52H84.2676V42.3062C84.4694 41.9383 84.6549 41.6958 84.8242 41.5786C84.9967 41.4614 85.1855 41.4028 85.3906 41.4028C85.6868 41.4028 85.988 41.4972 86.2939 41.686L85.9912 42.5015C85.7764 42.3745 85.5615 42.311 85.3467 42.311C85.1546 42.311 84.9821 42.3696 84.8291 42.4868C84.6761 42.6007 84.5671 42.7603 84.502 42.9653C84.4043 43.2778 84.3555 43.6196 84.3555 43.9907V46.7056H83.4766Z" fill="#2A303D"/>
</svg>
