<svg width="78" height="53" viewBox="0 0 78 53" fill="none" xmlns="http://www.w3.org/2000/svg">
<path d="M50.4378 29.9176L50.4524 29.8916C50.6649 29.5338 50.762 29.1192 50.7306 28.7043L50.7159 26.9209V24.3958C50.7264 24.2118 50.7061 24.0274 50.6558 23.8501C50.6127 23.7183 50.5298 23.6031 50.4186 23.5203C50.3073 23.4376 50.1731 23.3914 50.0345 23.3882C49.8912 23.3895 49.7528 23.4401 49.6425 23.5315C49.5321 23.6229 49.4566 23.7495 49.4286 23.89C49.4085 24.0301 49.3586 24.1643 49.2823 24.2835C49.206 24.4027 49.105 24.5042 48.9862 24.5812C48.4834 24.9362 47.9265 25.2076 47.337 25.3847C46.2453 25.7389 45.1243 25.9952 43.9873 26.1507C43.3741 26.2475 42.7577 26.3207 42.1404 26.3687C41.4898 26.4183 40.8393 26.463 40.1887 26.4768C39.199 26.4996 38.2076 26.511 37.2155 26.4386C36.3153 26.3727 35.4142 26.3248 34.5172 26.2101C33.9691 26.1402 33.4242 26.0572 32.8818 25.9572C32.2663 25.8457 31.658 25.6974 31.0602 25.5132C30.41 25.3475 29.7883 25.0855 29.2158 24.7357C29.0434 24.6537 28.8931 24.5318 28.7774 24.38C28.6617 24.2282 28.5839 24.051 28.5505 23.8631C28.52 23.7259 28.4427 23.6035 28.3319 23.517C28.221 23.4305 28.0836 23.3853 27.943 23.389C27.8043 23.3938 27.6705 23.442 27.5605 23.5267C27.4506 23.6115 27.3699 23.7285 27.3299 23.8615C27.2842 24.0146 27.2647 24.1743 27.2721 24.334C27.2721 24.9675 27.2721 25.601 27.2721 26.2345L27.2632 28.1862C27.2632 28.2123 27.2632 28.2383 27.2632 28.2676V28.5432H27.2713C27.2713 28.6945 27.277 28.845 27.2819 28.9946C27.2867 29.2283 27.3367 29.4589 27.4291 29.6736C27.7347 30.2783 28.2389 30.7595 28.8571 31.0366C29.7131 31.4688 30.6187 31.7946 31.5538 32.0068C32.302 32.1979 33.0648 32.3321 33.8308 32.4459C34.4668 32.5427 35.1076 32.6127 35.7492 32.6696C36.4112 32.7273 37.0773 32.7591 37.7392 32.7737C38.7793 32.7973 39.8186 32.8078 40.8612 32.7371C41.7737 32.6745 42.6853 32.6249 43.5937 32.5069C44.276 32.4183 44.9534 32.3118 45.6267 32.1817C46.4522 32.0217 47.264 31.7982 48.055 31.5132C48.7908 31.2831 49.4707 30.9026 50.0515 30.3958C50.197 30.2615 50.3249 30.1092 50.4321 29.9428H50.437L50.4378 29.9176Z" fill="#006AFF"/>
<path d="M27.3907 19.2249C27.5515 19.6469 27.8347 20.0114 28.2039 20.2715C28.7375 20.6581 29.3264 20.9619 29.9508 21.1726C30.2866 21.2954 30.3492 21.397 30.2761 21.7467C30.2705 21.777 30.2678 21.8078 30.2679 21.8386C30.2679 22.3436 30.2614 22.8486 30.263 23.3537C30.2671 23.4831 30.3121 23.608 30.3916 23.7103C30.4711 23.8126 30.581 23.887 30.7054 23.9229C31.661 24.1974 32.6332 24.4101 33.616 24.5596C34.2332 24.6651 34.8553 24.7395 35.4799 24.7825C36.2224 24.8305 36.9624 24.9191 37.709 24.9077C37.77 24.9077 37.8318 24.9183 37.8928 24.9224C38.2987 24.9514 38.7061 24.9555 39.1126 24.9346C39.2495 24.9266 39.3784 24.8672 39.4734 24.7683C39.5684 24.6693 39.6225 24.5382 39.625 24.4011C39.6326 24.3304 39.6261 24.2589 39.6058 24.1907C39.5855 24.1226 39.5519 24.0591 39.5069 24.0041C39.4618 23.9491 39.4063 23.9036 39.3435 23.8702C39.2807 23.8369 39.2119 23.8163 39.1411 23.8099C38.8044 23.7767 38.4661 23.7624 38.1278 23.7668C37.3788 23.7383 36.6298 23.7228 35.8816 23.6529C35.2278 23.5927 34.5759 23.5193 33.9258 23.4325C33.2118 23.3374 32.5141 23.1763 31.8114 23.0389C31.5081 22.9795 31.4495 22.9015 31.4504 22.5868C31.4504 22.4013 31.4504 22.2167 31.4552 22.0313C31.4617 21.7792 31.5902 21.6719 31.8342 21.719C32.1815 21.7857 32.5279 21.8589 32.8743 21.9289C33.5485 22.0687 34.2316 22.1525 34.9139 22.2265C35.6645 22.3078 36.4192 22.3778 37.1763 22.3948C37.8139 22.4087 38.4531 22.4656 39.0915 22.4501C39.7502 22.4355 40.4073 22.4014 41.0652 22.3892C41.3486 22.388 41.6317 22.372 41.9134 22.3412C42.699 22.2428 43.4902 22.2086 44.2717 22.0687C44.8605 21.963 45.4534 21.876 46.0373 21.7369C46.2812 21.6776 46.4585 21.7646 46.465 21.9695C46.4732 22.2411 46.465 22.5119 46.465 22.7827C46.4682 22.8388 46.452 22.8942 46.4192 22.9397C46.3863 22.9852 46.3387 23.0179 46.2845 23.0324C46.1218 23.0804 45.9641 23.1202 45.8022 23.1528C45.4046 23.2341 45.0069 23.304 44.6101 23.3829C44.5037 23.4071 44.4076 23.4636 44.3347 23.5447C44.2619 23.6259 44.216 23.7276 44.2034 23.8359C44.1868 23.9344 44.196 24.0356 44.23 24.1295C44.2641 24.2234 44.3218 24.307 44.3977 24.372C44.4736 24.437 44.565 24.4812 44.6631 24.5004C44.7611 24.5196 44.8625 24.5132 44.9573 24.4816C45.6453 24.3588 46.3308 24.2197 47.0075 24.0392C47.4954 23.9083 47.6467 23.7326 47.6467 23.2186C47.6467 22.6705 47.6515 22.1224 47.6467 21.5735C47.6366 21.497 47.6545 21.4195 47.6971 21.3553C47.7397 21.291 47.8041 21.2443 47.8784 21.2238C48.4783 21.0195 49.0516 20.7443 49.5862 20.4041C49.9487 20.1972 50.247 19.8941 50.4479 19.5282C50.6488 19.1624 50.7446 18.748 50.7247 18.3311C50.702 17.6293 50.7199 16.9267 50.7199 16.224C50.7199 15.4591 50.7199 14.6946 50.7199 13.9307C50.7212 13.7958 50.7031 13.6613 50.6662 13.5315C50.6475 13.45 50.6129 13.3731 50.5643 13.3052C50.5157 13.2372 50.4541 13.1796 50.3831 13.1357C50.3121 13.0917 50.233 13.0623 50.1505 13.0491C50.068 13.0359 49.9837 13.0393 49.9026 13.0589C49.7592 13.0881 49.6315 13.1685 49.5433 13.2851C49.4551 13.4018 49.4125 13.5466 49.4236 13.6925C49.4312 13.7976 49.4155 13.9031 49.3777 14.0015C49.3399 14.0999 49.2809 14.1887 49.2048 14.2617C49.0072 14.4553 48.7829 14.6196 48.5388 14.7497C47.9383 15.0605 47.3053 15.3041 46.6513 15.4759C45.9358 15.6747 45.2091 15.8309 44.4751 15.9435C44.0684 16.0069 43.6618 16.0636 43.2552 16.1134C42.9299 16.1541 42.5989 16.1883 42.2712 16.2192H42.2655C42.1183 16.2444 41.8865 16.2631 41.6052 16.2794C41.0692 16.3111 37.0893 16.3143 37.0893 16.3143C36.4989 16.2859 35.9109 16.2395 35.3238 16.1801C34.7984 16.1259 34.2755 16.059 33.7551 15.9793C33.42 15.9272 33.0841 15.8882 32.7548 15.8166C32.0508 15.6741 31.3555 15.4919 30.6721 15.2709C30.1055 15.1004 29.568 14.8449 29.0782 14.513C28.9266 14.4357 28.7992 14.3183 28.7098 14.1737C28.6203 14.029 28.5722 13.8626 28.5707 13.6925C28.5813 13.5621 28.549 13.4319 28.4786 13.3216C28.4083 13.2113 28.3038 13.1271 28.1812 13.0817C28.0498 13.0327 27.9061 13.0278 27.7717 13.0677C27.6373 13.1076 27.5196 13.1902 27.4363 13.3029C27.3272 13.4459 27.2699 13.6217 27.2736 13.8014C27.2736 14.191 27.2736 14.5789 27.2736 14.9676V17.0552C27.2785 17.5732 27.2736 18.0904 27.2736 18.6084C27.2781 18.819 27.3176 19.0273 27.3907 19.2249Z" fill="#006AFF"/>
<path d="M27.2733 6.74884C27.2746 6.76888 27.2746 6.78898 27.2733 6.80902C27.2668 7.32135 27.2685 7.83206 27.2733 8.34358C27.2727 8.56435 27.289 8.78484 27.3221 9.00311C27.4225 9.52238 27.7197 9.98273 28.1516 10.288C28.7238 10.7162 29.3634 11.046 30.044 11.2639C30.1183 11.2823 30.1831 11.3277 30.2256 11.3914C30.2682 11.455 30.2855 11.5322 30.2742 11.6079C30.262 12.1438 30.2636 12.6805 30.2652 13.2173C30.2615 13.3478 30.3004 13.476 30.3759 13.5825C30.4515 13.689 30.5596 13.768 30.684 13.8077C30.9418 13.889 31.2004 13.9703 31.4639 14.0289C32.1918 14.2013 32.9277 14.3493 33.6637 14.4648C34.3005 14.5648 34.9421 14.6477 35.5845 14.6876C36.4067 14.7388 37.2257 14.8405 38.0511 14.8128C38.2051 14.8108 38.3591 14.8183 38.5122 14.8356C38.6964 14.8532 38.8818 14.8532 39.066 14.8356C39.2188 14.8276 39.3623 14.7601 39.4661 14.6477C39.5698 14.5353 39.6255 14.3867 39.6213 14.2338C39.617 14.0809 39.5532 13.9357 39.4434 13.8292C39.3335 13.7227 39.1864 13.6633 39.0335 13.6637C38.0047 13.6572 36.9776 13.6548 35.9529 13.5548C35.5065 13.5117 35.0584 13.4734 34.6144 13.4206C33.9516 13.3393 33.2888 13.2457 32.635 13.1018C32.3097 13.0302 31.9844 12.9782 31.6664 12.8806C31.5509 12.844 31.459 12.7863 31.4542 12.657C31.4485 12.4358 31.446 12.2129 31.4542 11.9917C31.4587 11.955 31.4706 11.9196 31.4893 11.8876C31.5079 11.8556 31.5328 11.8277 31.5626 11.8056C31.5923 11.7836 31.6262 11.7678 31.6622 11.7593C31.6983 11.7507 31.7357 11.7496 31.7721 11.7559C32.1283 11.8478 32.4918 11.908 32.8513 11.9844C33.3913 12.0983 33.9386 12.165 34.4834 12.2463C34.9445 12.317 35.413 12.3276 35.8781 12.3732C36.8158 12.4618 37.7583 12.4845 38.6992 12.5073C39.2685 12.522 39.8443 12.4878 40.4168 12.4781C40.638 12.4781 40.8584 12.4618 41.0812 12.4463C41.9814 12.3797 42.88 12.3235 43.777 12.1975C44.2991 12.1251 44.818 12.0348 45.3393 11.9486C45.6245 11.8746 45.9161 11.8275 46.2102 11.808C46.3729 11.8128 46.4631 11.8893 46.4631 12.0568C46.4631 12.2601 46.4631 12.4634 46.4631 12.6667C46.4666 12.7292 46.4477 12.7909 46.4098 12.8408C46.372 12.8907 46.3177 12.9256 46.2566 12.9391C46.0809 12.9912 45.8988 13.0262 45.7182 13.0628C45.3636 13.1351 45.005 13.1896 44.6569 13.2807C44.526 13.318 44.4132 13.4017 44.3397 13.5163C44.2662 13.6308 44.237 13.7683 44.2577 13.9028C44.283 14.054 44.3672 14.189 44.4919 14.2782C44.6166 14.3674 44.7716 14.4035 44.9229 14.3786C45.6255 14.2696 46.3192 14.111 47.008 13.9345C47.4902 13.8117 47.6448 13.6288 47.6456 13.1319C47.6464 12.635 47.6513 12.1332 47.6456 11.6331C47.6361 11.5535 47.6563 11.4732 47.7024 11.4076C47.7485 11.3421 47.8171 11.2958 47.8952 11.2777C48.6003 11.0541 49.2632 10.7147 49.8567 10.2734C50.1024 10.1012 50.3061 9.87589 50.4527 9.61415C50.5992 9.35242 50.6849 9.061 50.7033 8.76159C50.7369 8.35307 50.7404 7.94263 50.7139 7.5336V5.33382C50.7245 5.14434 50.7139 4.95161 50.7139 4.75969V4.59135C50.7139 4.33599 50.7245 4.08063 50.7139 3.82527C50.7046 3.58605 50.6548 3.35013 50.5667 3.12752C50.3745 2.71156 50.0697 2.35775 49.6868 2.10612C49.1168 1.71745 48.4929 1.4144 47.8351 1.20667C47.5805 1.11477 47.3195 1.04402 47.06 0.967574C46.8006 0.891131 46.5534 0.815498 46.2948 0.767518C46.0362 0.719537 45.8069 0.632546 45.5548 0.599203C45.153 0.547157 44.7521 0.465015 44.3528 0.395077C43.6502 0.271466 42.9394 0.217781 42.2335 0.134018C41.5935 0.0567611 40.9437 0.0478192 40.2989 0.0258619C39.3401 -0.00585406 38.3772 -0.0172367 37.4159 0.0437556C36.4173 0.107188 35.4178 0.151905 34.4241 0.287715C33.8548 0.369038 33.2799 0.443054 32.7163 0.548773C32.1202 0.65856 31.529 0.792733 30.9443 0.961072C30.079 1.1813 29.2503 1.5262 28.4842 1.98493C28.1048 2.18256 27.7895 2.48416 27.5752 2.85442C27.3609 3.22469 27.2565 3.64832 27.2741 4.07576C27.2807 4.21075 27.2807 4.34738 27.2798 4.48237L27.2733 6.74884ZM28.7323 3.45851C28.9533 3.2172 29.2165 3.01822 29.5089 2.87135C30.2687 2.50738 31.0668 2.22969 31.8884 2.04348C32.5195 1.88083 33.1579 1.76212 33.7987 1.66453C34.2948 1.58972 34.7973 1.53766 35.2967 1.48155C35.8415 1.42056 36.3872 1.41324 36.9313 1.35225C37.6193 1.27499 38.3138 1.33192 38.9993 1.30671C39.8996 1.28882 40.7974 1.32051 41.6952 1.38801C42.2579 1.4303 42.8247 1.46934 43.3834 1.54578C44.2306 1.65078 45.072 1.79816 45.9044 1.98736C46.7032 2.15988 47.4823 2.41357 48.2295 2.74448C48.6226 2.909 48.9763 3.15515 49.2672 3.46663C49.4656 3.69677 49.4656 3.79926 49.2672 4.02615C48.9042 4.40548 48.4571 4.6941 47.9619 4.86866C47.3077 5.13514 46.6323 5.34596 45.9427 5.49891C45.4474 5.61602 44.9473 5.71685 44.4423 5.78841C43.9925 5.85184 43.5477 5.92665 43.0923 5.96976C42.767 6.00147 42.4417 6.04378 42.1164 6.07387C42.0469 6.09131 41.9762 6.10408 41.905 6.11209C40.6798 6.20996 39.4498 6.23223 38.2219 6.17877C38.1987 6.18416 38.1749 6.18688 38.1511 6.18689C37.4916 6.20478 36.8369 6.12104 36.179 6.09176C35.7114 6.07143 35.2479 6.01042 34.7843 5.95918C34.1874 5.8925 33.5921 5.80631 33.0009 5.69165C32.5618 5.60544 32.1202 5.52248 31.6884 5.40537C30.766 5.21127 29.8851 4.85617 29.086 4.35632C28.9507 4.26011 28.828 4.14725 28.7209 4.02044C28.5338 3.80087 28.5338 3.67483 28.7315 3.45851H28.7323Z" fill="#006AFF"/>
<path d="M7.125 47.1593C7.125 47.6959 7.04 48.1843 6.87 48.6243C6.7 49.0643 6.46 49.4409 6.15 49.7543C5.84 50.0676 5.46667 50.3109 5.03 50.4843C4.59667 50.6543 4.11667 50.7393 3.59 50.7393H0.915V43.5743H3.59C4.11667 43.5743 4.59667 43.6609 5.03 43.8343C5.46667 44.0043 5.84 44.2476 6.15 44.5643C6.46 44.8776 6.7 45.2543 6.87 45.6943C7.04 46.1343 7.125 46.6226 7.125 47.1593ZM6.13 47.1593C6.13 46.7193 6.07 46.3259 5.95 45.9793C5.83 45.6326 5.66 45.3393 5.44 45.0993C5.22 44.8593 4.95333 44.6759 4.64 44.5493C4.32667 44.4226 3.97667 44.3593 3.59 44.3593H1.885V49.9543H3.59C3.97667 49.9543 4.32667 49.8909 4.64 49.7643C4.95333 49.6376 5.22 49.4559 5.44 49.2193C5.66 48.9793 5.83 48.6859 5.95 48.3393C6.07 47.9926 6.13 47.5993 6.13 47.1593ZM9.05 46.6893C9.21 46.3426 9.40667 46.0726 9.64 45.8793C9.87333 45.6826 10.1583 45.5843 10.495 45.5843C10.6017 45.5843 10.7033 45.5959 10.8 45.6193C10.9 45.6426 10.9883 45.6793 11.065 45.7293L11 46.3943C10.98 46.4776 10.93 46.5193 10.85 46.5193C10.8033 46.5193 10.735 46.5093 10.645 46.4893C10.555 46.4693 10.4533 46.4593 10.34 46.4593C10.18 46.4593 10.0367 46.4826 9.91 46.5293C9.78667 46.5759 9.675 46.6459 9.575 46.7393C9.47833 46.8293 9.39 46.9426 9.31 47.0793C9.23333 47.2126 9.16333 47.3659 9.1 47.5393V50.7393H8.205V45.6743H8.715C8.81167 45.6743 8.87833 45.6926 8.915 45.7293C8.95167 45.7659 8.97667 45.8293 8.99 45.9193L9.05 46.6893ZM12.7876 45.6743V50.7393H11.8976V45.6743H12.7876ZM12.9776 44.0843C12.9776 44.1709 12.9592 44.2526 12.9226 44.3293C12.8892 44.4026 12.8426 44.4693 12.7826 44.5293C12.7259 44.5859 12.6576 44.6309 12.5776 44.6643C12.5009 44.6976 12.4192 44.7143 12.3326 44.7143C12.2459 44.7143 12.1642 44.6976 12.0876 44.6643C12.0142 44.6309 11.9492 44.5859 11.8926 44.5293C11.8359 44.4693 11.7909 44.4026 11.7576 44.3293C11.7242 44.2526 11.7076 44.1709 11.7076 44.0843C11.7076 43.9976 11.7242 43.9159 11.7576 43.8393C11.7909 43.7593 11.8359 43.6909 11.8926 43.6343C11.9492 43.5743 12.0142 43.5276 12.0876 43.4943C12.1642 43.4609 12.2459 43.4443 12.3326 43.4443C12.4192 43.4443 12.5009 43.4609 12.5776 43.4943C12.6576 43.5276 12.7259 43.5743 12.7826 43.6343C12.8426 43.6909 12.8892 43.7593 12.9226 43.8393C12.9592 43.9159 12.9776 43.9976 12.9776 44.0843ZM18.5899 45.6743L16.5249 50.7393H15.7249L13.6599 45.6743H14.3849C14.4583 45.6743 14.5183 45.6926 14.5649 45.7293C14.6116 45.7659 14.6433 45.8093 14.6599 45.8593L15.9449 49.1193C15.9849 49.2426 16.0199 49.3626 16.0499 49.4793C16.0799 49.5959 16.1083 49.7126 16.1349 49.8293C16.1616 49.7126 16.1899 49.5959 16.2199 49.4793C16.2499 49.3626 16.2866 49.2426 16.3299 49.1193L17.6299 45.8593C17.6499 45.8059 17.6833 45.7626 17.7299 45.7293C17.7766 45.6926 17.8316 45.6743 17.8949 45.6743H18.5899ZM22.6595 47.6543C22.6595 47.4476 22.6295 47.2593 22.5695 47.0893C22.5128 46.9159 22.4278 46.7676 22.3145 46.6443C22.2045 46.5176 22.0695 46.4209 21.9095 46.3543C21.7495 46.2843 21.5678 46.2493 21.3645 46.2493C20.9378 46.2493 20.5995 46.3743 20.3495 46.6243C20.1028 46.8709 19.9495 47.2143 19.8895 47.6543H22.6595ZM23.3795 50.0293C23.2695 50.1626 23.1378 50.2793 22.9845 50.3793C22.8311 50.4759 22.6661 50.5559 22.4895 50.6193C22.3161 50.6826 22.1361 50.7293 21.9495 50.7593C21.7628 50.7926 21.5778 50.8093 21.3945 50.8093C21.0445 50.8093 20.7211 50.7509 20.4245 50.6343C20.1311 50.5143 19.8761 50.3409 19.6595 50.1143C19.4461 49.8843 19.2795 49.6009 19.1595 49.2643C19.0395 48.9276 18.9795 48.5409 18.9795 48.1043C18.9795 47.7509 19.0328 47.4209 19.1395 47.1143C19.2495 46.8076 19.4061 46.5426 19.6095 46.3193C19.8128 46.0926 20.0611 45.9159 20.3545 45.7893C20.6478 45.6593 20.9778 45.5943 21.3445 45.5943C21.6478 45.5943 21.9278 45.6459 22.1845 45.7493C22.4445 45.8493 22.6678 45.9959 22.8545 46.1893C23.0445 46.3793 23.1928 46.6159 23.2995 46.8993C23.4061 47.1793 23.4595 47.4993 23.4595 47.8593C23.4595 47.9993 23.4445 48.0926 23.4145 48.1393C23.3845 48.1859 23.3278 48.2093 23.2445 48.2093H19.8595C19.8695 48.5293 19.9128 48.8076 19.9895 49.0443C20.0695 49.2809 20.1795 49.4793 20.3195 49.6393C20.4595 49.7959 20.6261 49.9143 20.8195 49.9943C21.0128 50.0709 21.2295 50.1093 21.4695 50.1093C21.6928 50.1093 21.8845 50.0843 22.0445 50.0343C22.2078 49.9809 22.3478 49.9243 22.4645 49.8643C22.5811 49.8043 22.6778 49.7493 22.7545 49.6993C22.8345 49.6459 22.9028 49.6193 22.9595 49.6193C23.0328 49.6193 23.0895 49.6476 23.1295 49.7043L23.3795 50.0293ZM25.3977 46.6893C25.5577 46.3426 25.7543 46.0726 25.9877 45.8793C26.221 45.6826 26.506 45.5843 26.8427 45.5843C26.9493 45.5843 27.051 45.5959 27.1477 45.6193C27.2477 45.6426 27.336 45.6793 27.4127 45.7293L27.3477 46.3943C27.3277 46.4776 27.2777 46.5193 27.1977 46.5193C27.151 46.5193 27.0827 46.5093 26.9927 46.4893C26.9027 46.4693 26.801 46.4593 26.6877 46.4593C26.5277 46.4593 26.3843 46.4826 26.2577 46.5293C26.1343 46.5759 26.0227 46.6459 25.9227 46.7393C25.826 46.8293 25.7377 46.9426 25.6577 47.0793C25.581 47.2126 25.511 47.3659 25.4477 47.5393V50.7393H24.5527V45.6743H25.0627C25.1593 45.6743 25.226 45.6926 25.2627 45.7293C25.2993 45.7659 25.3243 45.8293 25.3377 45.9193L25.3977 46.6893ZM32.734 47.0443C33.014 47.0443 33.2607 47.0109 33.474 46.9443C33.6907 46.8743 33.8707 46.7776 34.014 46.6543C34.1607 46.5276 34.2707 46.3776 34.344 46.2043C34.4173 46.0309 34.454 45.8393 34.454 45.6293C34.454 45.2026 34.314 44.8809 34.034 44.6643C33.754 44.4476 33.334 44.3393 32.774 44.3393H31.714V47.0443H32.734ZM36.044 50.7393H35.184C35.0073 50.7393 34.8773 50.6709 34.794 50.5343L32.934 47.9743C32.8773 47.8943 32.8157 47.8376 32.749 47.8043C32.6857 47.7676 32.5857 47.7493 32.449 47.7493H31.714V50.7393H30.749V43.5743H32.774C33.2273 43.5743 33.619 43.6209 33.949 43.7143C34.279 43.8043 34.5507 43.9359 34.764 44.1093C34.9807 44.2826 35.1407 44.4926 35.244 44.7393C35.3473 44.9826 35.399 45.2559 35.399 45.5593C35.399 45.8126 35.359 46.0493 35.279 46.2693C35.199 46.4893 35.0823 46.6876 34.929 46.8643C34.779 47.0376 34.594 47.1859 34.374 47.3093C34.1573 47.4326 33.9107 47.5259 33.634 47.5893C33.7573 47.6593 33.864 47.7609 33.954 47.8943L36.044 50.7393ZM39.8763 47.6543C39.8763 47.4476 39.8463 47.2593 39.7863 47.0893C39.7296 46.9159 39.6446 46.7676 39.5313 46.6443C39.4213 46.5176 39.2863 46.4209 39.1263 46.3543C38.9663 46.2843 38.7846 46.2493 38.5813 46.2493C38.1546 46.2493 37.8163 46.3743 37.5663 46.6243C37.3196 46.8709 37.1663 47.2143 37.1063 47.6543H39.8763ZM40.5963 50.0293C40.4863 50.1626 40.3546 50.2793 40.2013 50.3793C40.0479 50.4759 39.8829 50.5559 39.7063 50.6193C39.5329 50.6826 39.3529 50.7293 39.1663 50.7593C38.9796 50.7926 38.7946 50.8093 38.6113 50.8093C38.2613 50.8093 37.9379 50.7509 37.6413 50.6343C37.3479 50.5143 37.0929 50.3409 36.8763 50.1143C36.6629 49.8843 36.4963 49.6009 36.3763 49.2643C36.2563 48.9276 36.1963 48.5409 36.1963 48.1043C36.1963 47.7509 36.2496 47.4209 36.3563 47.1143C36.4663 46.8076 36.6229 46.5426 36.8263 46.3193C37.0296 46.0926 37.2779 45.9159 37.5713 45.7893C37.8646 45.6593 38.1946 45.5943 38.5613 45.5943C38.8646 45.5943 39.1446 45.6459 39.4013 45.7493C39.6613 45.8493 39.8846 45.9959 40.0713 46.1893C40.2613 46.3793 40.4096 46.6159 40.5163 46.8993C40.6229 47.1793 40.6763 47.4993 40.6763 47.8593C40.6763 47.9993 40.6613 48.0926 40.6313 48.1393C40.6013 48.1859 40.5446 48.2093 40.4613 48.2093H37.0763C37.0863 48.5293 37.1296 48.8076 37.2063 49.0443C37.2863 49.2809 37.3963 49.4793 37.5363 49.6393C37.6763 49.7959 37.8429 49.9143 38.0363 49.9943C38.2296 50.0709 38.4463 50.1093 38.6863 50.1093C38.9096 50.1093 39.1013 50.0843 39.2613 50.0343C39.4246 49.9809 39.5646 49.9243 39.6813 49.8643C39.7979 49.8043 39.8946 49.7493 39.9713 49.6993C40.0513 49.6459 40.1196 49.6193 40.1763 49.6193C40.2496 49.6193 40.3063 49.6476 40.3463 49.7043L40.5963 50.0293ZM42.6645 49.5193C42.8278 49.7393 43.0061 49.8943 43.1995 49.9843C43.3928 50.0743 43.6095 50.1193 43.8495 50.1193C44.3228 50.1193 44.6861 49.9509 44.9395 49.6143C45.1928 49.2776 45.3195 48.7976 45.3195 48.1743C45.3195 47.8443 45.2895 47.5609 45.2295 47.3243C45.1728 47.0876 45.0895 46.8943 44.9795 46.7443C44.8695 46.5909 44.7345 46.4793 44.5745 46.4093C44.4145 46.3393 44.2328 46.3043 44.0295 46.3043C43.7395 46.3043 43.4845 46.3709 43.2645 46.5043C43.0478 46.6376 42.8478 46.8259 42.6645 47.0693V49.5193ZM42.6195 46.4593C42.8328 46.1959 43.0795 45.9843 43.3595 45.8243C43.6395 45.6643 43.9595 45.5843 44.3195 45.5843C44.6128 45.5843 44.8778 45.6409 45.1145 45.7543C45.3511 45.8643 45.5528 46.0293 45.7195 46.2493C45.8861 46.4659 46.0145 46.7359 46.1045 47.0593C46.1945 47.3826 46.2395 47.7543 46.2395 48.1743C46.2395 48.5476 46.1895 48.8959 46.0895 49.2193C45.9895 49.5393 45.8445 49.8176 45.6545 50.0543C45.4678 50.2876 45.2378 50.4726 44.9645 50.6093C44.6945 50.7426 44.3895 50.8093 44.0495 50.8093C43.7395 50.8093 43.4728 50.7576 43.2495 50.6543C43.0295 50.5476 42.8345 50.4009 42.6645 50.2143V52.4543H41.7695V45.6743H42.3045C42.4311 45.6743 42.5095 45.7359 42.5395 45.8593L42.6195 46.4593ZM49.5099 45.5943C49.8799 45.5943 50.2133 45.6559 50.5099 45.7793C50.8066 45.9026 51.0599 46.0776 51.2699 46.3043C51.4799 46.5309 51.6399 46.8059 51.7499 47.1293C51.8633 47.4493 51.9199 47.8076 51.9199 48.2043C51.9199 48.6043 51.8633 48.9643 51.7499 49.2843C51.6399 49.6043 51.4799 49.8776 51.2699 50.1043C51.0599 50.3309 50.8066 50.5059 50.5099 50.6293C50.2133 50.7493 49.8799 50.8093 49.5099 50.8093C49.1366 50.8093 48.7999 50.7493 48.4999 50.6293C48.2033 50.5059 47.9499 50.3309 47.7399 50.1043C47.5299 49.8776 47.3683 49.6043 47.2549 49.2843C47.1449 48.9643 47.0899 48.6043 47.0899 48.2043C47.0899 47.8076 47.1449 47.4493 47.2549 47.1293C47.3683 46.8059 47.5299 46.5309 47.7399 46.3043C47.9499 46.0776 48.2033 45.9026 48.4999 45.7793C48.7999 45.6559 49.1366 45.5943 49.5099 45.5943ZM49.5099 50.1143C50.0099 50.1143 50.3833 49.9476 50.6299 49.6143C50.8766 49.2776 50.9999 48.8093 50.9999 48.2093C50.9999 47.6059 50.8766 47.1359 50.6299 46.7993C50.3833 46.4626 50.0099 46.2943 49.5099 46.2943C49.2566 46.2943 49.0349 46.3376 48.8449 46.4243C48.6583 46.5109 48.5016 46.6359 48.3749 46.7993C48.2516 46.9626 48.1583 47.1643 48.0949 47.4043C48.0349 47.6409 48.0049 47.9093 48.0049 48.2093C48.0049 48.8093 48.1283 49.2776 48.3749 49.6143C48.6249 49.9476 49.0033 50.1143 49.5099 50.1143ZM55.9988 46.5093C55.9588 46.5826 55.8971 46.6193 55.8138 46.6193C55.7638 46.6193 55.7071 46.6009 55.6438 46.5643C55.5804 46.5276 55.5021 46.4876 55.4088 46.4443C55.3188 46.3976 55.2104 46.3559 55.0838 46.3193C54.9571 46.2793 54.8071 46.2593 54.6338 46.2593C54.4838 46.2593 54.3488 46.2793 54.2288 46.3193C54.1088 46.3559 54.0054 46.4076 53.9188 46.4743C53.8354 46.5409 53.7704 46.6193 53.7238 46.7093C53.6804 46.7959 53.6588 46.8909 53.6588 46.9943C53.6588 47.1243 53.6954 47.2326 53.7688 47.3193C53.8454 47.4059 53.9454 47.4809 54.0688 47.5443C54.1921 47.6076 54.3321 47.6643 54.4888 47.7143C54.6454 47.7609 54.8054 47.8126 54.9688 47.8693C55.1354 47.9226 55.2971 47.9826 55.4538 48.0493C55.6104 48.1159 55.7504 48.1993 55.8738 48.2993C55.9971 48.3993 56.0954 48.5226 56.1688 48.6693C56.2454 48.8126 56.2838 48.9859 56.2838 49.1893C56.2838 49.4226 56.2421 49.6393 56.1588 49.8393C56.0754 50.0359 55.9521 50.2076 55.7888 50.3543C55.6254 50.4976 55.4254 50.6109 55.1888 50.6943C54.9521 50.7776 54.6788 50.8193 54.3688 50.8193C54.0154 50.8193 53.6954 50.7626 53.4088 50.6493C53.1221 50.5326 52.8788 50.3843 52.6788 50.2043L52.8888 49.8643C52.9154 49.8209 52.9471 49.7876 52.9838 49.7643C53.0204 49.7409 53.0671 49.7293 53.1238 49.7293C53.1838 49.7293 53.2471 49.7526 53.3138 49.7993C53.3804 49.8459 53.4604 49.8976 53.5538 49.9543C53.6504 50.0109 53.7671 50.0626 53.9038 50.1093C54.0404 50.1559 54.2104 50.1793 54.4138 50.1793C54.5871 50.1793 54.7388 50.1576 54.8687 50.1143C54.9988 50.0676 55.1071 50.0059 55.1938 49.9293C55.2804 49.8526 55.3438 49.7643 55.3838 49.6643C55.4271 49.5643 55.4488 49.4576 55.4488 49.3443C55.4488 49.2043 55.4104 49.0893 55.3338 48.9993C55.2604 48.9059 55.1621 48.8276 55.0388 48.7643C54.9154 48.6976 54.7738 48.6409 54.6138 48.5943C54.4571 48.5443 54.2954 48.4926 54.1288 48.4393C53.9654 48.3859 53.8038 48.3259 53.6438 48.2593C53.4871 48.1893 53.3471 48.1026 53.2238 47.9993C53.1004 47.8959 53.0004 47.7693 52.9238 47.6193C52.8504 47.4659 52.8138 47.2809 52.8138 47.0643C52.8138 46.8709 52.8538 46.6859 52.9338 46.5093C53.0138 46.3293 53.1304 46.1726 53.2838 46.0393C53.4371 45.9026 53.6254 45.7943 53.8488 45.7143C54.0721 45.6343 54.3271 45.5943 54.6138 45.5943C54.9471 45.5943 55.2454 45.6476 55.5088 45.7543C55.7754 45.8576 56.0054 46.0009 56.1988 46.1843L55.9988 46.5093ZM58.3149 45.6743V50.7393H57.4249V45.6743H58.3149ZM58.5049 44.0843C58.5049 44.1709 58.4866 44.2526 58.4499 44.3293C58.4166 44.4026 58.3699 44.4693 58.3099 44.5293C58.2533 44.5859 58.1849 44.6309 58.1049 44.6643C58.0283 44.6976 57.9466 44.7143 57.8599 44.7143C57.7733 44.7143 57.6916 44.6976 57.6149 44.6643C57.5416 44.6309 57.4766 44.5859 57.4199 44.5293C57.3633 44.4693 57.3183 44.4026 57.2849 44.3293C57.2516 44.2526 57.2349 44.1709 57.2349 44.0843C57.2349 43.9976 57.2516 43.9159 57.2849 43.8393C57.3183 43.7593 57.3633 43.6909 57.4199 43.6343C57.4766 43.5743 57.5416 43.5276 57.6149 43.4943C57.6916 43.4609 57.7733 43.4443 57.8599 43.4443C57.9466 43.4443 58.0283 43.4609 58.1049 43.4943C58.1849 43.5276 58.2533 43.5743 58.3099 43.6343C58.3699 43.6909 58.4166 43.7593 58.4499 43.8393C58.4866 43.9159 58.5049 43.9976 58.5049 44.0843ZM61.3323 50.8193C60.9323 50.8193 60.6239 50.7076 60.4073 50.4843C60.1939 50.2609 60.0873 49.9393 60.0873 49.5193V46.4193H59.4773C59.4239 46.4193 59.3789 46.4043 59.3423 46.3743C59.3056 46.3409 59.2873 46.2909 59.2873 46.2243V45.8693L60.1173 45.7643L60.3223 44.1993C60.3323 44.1493 60.3539 44.1093 60.3873 44.0793C60.4239 44.0459 60.4706 44.0293 60.5273 44.0293H60.9773V45.7743H62.4423V46.4193H60.9773V49.4593C60.9773 49.6726 61.0289 49.8309 61.1323 49.9343C61.2356 50.0376 61.3689 50.0893 61.5323 50.0893C61.6256 50.0893 61.7056 50.0776 61.7723 50.0543C61.8423 50.0276 61.9023 49.9993 61.9523 49.9693C62.0023 49.9393 62.0439 49.9126 62.0773 49.8893C62.1139 49.8626 62.1456 49.8493 62.1723 49.8493C62.2189 49.8493 62.2606 49.8776 62.2973 49.9343L62.5573 50.3593C62.4039 50.5026 62.2189 50.6159 62.0023 50.6993C61.7856 50.7793 61.5623 50.8193 61.3323 50.8193ZM65.467 45.5943C65.837 45.5943 66.1703 45.6559 66.467 45.7793C66.7636 45.9026 67.017 46.0776 67.227 46.3043C67.437 46.5309 67.597 46.8059 67.707 47.1293C67.8203 47.4493 67.877 47.8076 67.877 48.2043C67.877 48.6043 67.8203 48.9643 67.707 49.2843C67.597 49.6043 67.437 49.8776 67.227 50.1043C67.017 50.3309 66.7636 50.5059 66.467 50.6293C66.1703 50.7493 65.837 50.8093 65.467 50.8093C65.0936 50.8093 64.757 50.7493 64.457 50.6293C64.1603 50.5059 63.907 50.3309 63.697 50.1043C63.487 49.8776 63.3253 49.6043 63.212 49.2843C63.102 48.9643 63.047 48.6043 63.047 48.2043C63.047 47.8076 63.102 47.4493 63.212 47.1293C63.3253 46.8059 63.487 46.5309 63.697 46.3043C63.907 46.0776 64.1603 45.9026 64.457 45.7793C64.757 45.6559 65.0936 45.5943 65.467 45.5943ZM65.467 50.1143C65.967 50.1143 66.3403 49.9476 66.587 49.6143C66.8336 49.2776 66.957 48.8093 66.957 48.2093C66.957 47.6059 66.8336 47.1359 66.587 46.7993C66.3403 46.4626 65.967 46.2943 65.467 46.2943C65.2136 46.2943 64.992 46.3376 64.802 46.4243C64.6153 46.5109 64.4586 46.6359 64.332 46.7993C64.2086 46.9626 64.1153 47.1643 64.052 47.4043C63.992 47.6409 63.962 47.9093 63.962 48.2093C63.962 48.8093 64.0853 49.2776 64.332 49.6143C64.582 49.9476 64.9603 50.1143 65.467 50.1143ZM69.8508 46.6893C70.0108 46.3426 70.2074 46.0726 70.4408 45.8793C70.6741 45.6826 70.9591 45.5843 71.2958 45.5843C71.4024 45.5843 71.5041 45.5959 71.6008 45.6193C71.7008 45.6426 71.7891 45.6793 71.8658 45.7293L71.8008 46.3943C71.7808 46.4776 71.7308 46.5193 71.6508 46.5193C71.6041 46.5193 71.5358 46.5093 71.4458 46.4893C71.3558 46.4693 71.2541 46.4593 71.1408 46.4593C70.9808 46.4593 70.8374 46.4826 70.7108 46.5293C70.5874 46.5759 70.4758 46.6459 70.3758 46.7393C70.2791 46.8293 70.1908 46.9426 70.1108 47.0793C70.0341 47.2126 69.9641 47.3659 69.9008 47.5393V50.7393H69.0058V45.6743H69.5158C69.6124 45.6743 69.6791 45.6926 69.7158 45.7293C69.7524 45.7659 69.7774 45.8293 69.7908 45.9193L69.8508 46.6893ZM77.0184 45.6743L74.1934 52.2343C74.1634 52.3009 74.125 52.3543 74.0784 52.3943C74.035 52.4343 73.9667 52.4543 73.8734 52.4543H73.2134L74.1384 50.4443L72.0484 45.6743H72.8184C72.895 45.6743 72.955 45.6943 72.9984 45.7343C73.045 45.7709 73.0767 45.8126 73.0934 45.8593L74.4484 49.0493C74.5017 49.1893 74.5467 49.3359 74.5834 49.4893C74.63 49.3326 74.68 49.1843 74.7334 49.0443L76.0484 45.8593C76.0684 45.8059 76.1017 45.7626 76.1484 45.7293C76.1984 45.6926 76.2534 45.6743 76.3134 45.6743H77.0184Z" fill="#2A303D"/>
</svg>
