<svg width="145" height="60" viewBox="0 0 145 60" fill="none" xmlns="http://www.w3.org/2000/svg">
<rect x="0.5" y="0.5" width="144" height="59" rx="9.5" fill="white"/>
<rect x="0.5" y="0.5" width="144" height="59" rx="9.5" stroke="#C3C9D6" stroke-dasharray="5 5"/>
<g clip-path="url(#clip0_2744_1695)">
<path d="M45.7137 30.2545C45.7137 30.5607 45.6242 30.8601 45.4565 31.1147C45.2888 31.3693 45.0505 31.5678 44.7717 31.685C44.4928 31.8022 44.186 31.8329 43.8899 31.7731C43.5939 31.7134 43.322 31.5659 43.1086 31.3494C42.8952 31.1328 42.7498 30.8569 42.6909 30.5565C42.6321 30.2562 42.6623 29.9448 42.7778 29.6619C42.8933 29.379 43.0889 29.1371 43.3398 28.967C43.5908 28.7969 43.8858 28.7061 44.1877 28.7061C44.5924 28.7061 44.9805 28.8692 45.2667 29.1596C45.5529 29.45 45.7137 29.8438 45.7137 30.2545ZM47.6877 30.2545C47.6877 30.5607 47.7772 30.8601 47.9448 31.1147C48.1125 31.3693 48.3509 31.5678 48.6297 31.685C48.9086 31.8022 49.2154 31.8329 49.5114 31.7731C49.8074 31.7134 50.0794 31.5659 50.2928 31.3494C50.5062 31.1328 50.6515 30.8569 50.7104 30.5565C50.7693 30.2562 50.7391 29.9448 50.6236 29.6619C50.5081 29.379 50.3125 29.1371 50.0615 28.967C49.8106 28.7969 49.5155 28.7061 49.2137 28.7061C48.809 28.7061 48.4208 28.8692 48.1346 29.1596C47.8484 29.45 47.6877 29.8438 47.6877 30.2545Z" fill="#1E52BB"/>
<path d="M58.0781 31.9351H57.7422C57.0705 31.9346 56.4077 31.7782 55.8047 31.478C56.0006 30.33 56.0878 29.1656 56.0651 28.0007C55.4125 27.0403 54.6694 26.1465 53.8464 25.3319C54.2105 24.6358 54.7495 24.0496 55.4089 23.6329L55.6953 23.4532L55.4714 23.189C54.3431 21.9004 52.9513 20.8769 51.3932 20.19L51.0833 20.0526L51.0052 20.3855C50.8204 21.152 50.4385 21.8549 49.8984 22.4227C48.8788 21.8726 47.8086 21.4248 46.7031 21.0857C45.599 21.4195 44.5297 21.862 43.5104 22.4069C42.9727 21.8403 42.5926 21.1391 42.4089 20.3749L42.3281 20.042L42.0182 20.1794C40.4583 20.8776 39.066 21.9107 37.9375 23.2075L37.7135 23.4717L38 23.6514C38.6585 24.0657 39.1975 24.6491 39.5625 25.3425C38.7409 26.1518 37.9979 27.0393 37.3438 27.9928C37.3193 29.1656 37.4066 30.3381 37.6042 31.4939C37.0042 31.7921 36.3451 31.9475 35.6771 31.9483H35.3385L35 31.9061L35.0312 32.2469C35.1935 33.9677 35.7269 35.6312 36.5938 37.1194L36.7708 37.4048L37.0313 37.1828C37.6268 36.6714 38.3459 36.3303 39.1146 36.1946C39.6106 37.2344 40.2036 38.2236 40.8854 39.1487C41.9803 39.5383 43.1096 39.8197 44.2578 39.989C44.372 40.7782 44.2749 41.5841 43.9766 42.3221L43.8542 42.6392L44.1823 42.7132C45.0118 42.8998 45.8587 42.9946 46.7083 42.9959L49.2344 42.7132L49.5625 42.6392L49.4349 42.3221C49.1363 41.5823 49.04 40.7744 49.1563 39.9837C50.2999 39.8144 51.4249 39.5339 52.5156 39.1461C53.2009 38.225 53.7974 37.2393 54.2969 36.2025C55.0654 36.3387 55.7844 36.6798 56.3802 37.1907L56.6406 37.41L56.8125 37.1168C57.6802 35.629 58.2137 33.9653 58.375 32.2443L58.4063 31.9034L58.0781 31.9351ZM50.3177 36.0995C47.9502 36.7602 45.4508 36.7602 43.0833 36.0995C41.7606 34.0234 41.0015 31.6298 40.8828 29.1607C41.6434 28.2035 42.5251 27.3524 43.5052 26.6293C44.4908 25.902 45.5659 25.3087 46.7031 24.8643C47.8372 25.3081 48.9095 25.8996 49.8932 26.624C50.8772 27.3522 51.7624 28.2086 52.526 29.1713C52.4623 30.4001 52.2408 31.6153 51.8672 32.786C51.4939 33.9537 50.973 35.0675 50.3177 36.0995Z" fill="#1E52BB"/>
<path d="M67.6952 22.7156C71.5311 22.7156 73.6847 25.5086 73.6847 29.8684C73.6896 30.3405 73.6583 30.8123 73.591 31.2794H63.4347C63.6196 34.5744 65.5701 36.646 68.4451 36.646C69.7809 36.6308 71.0826 36.2163 72.1873 35.4543L73.1066 37.1401C71.6461 38.1472 69.9245 38.6934 68.1587 38.7097C64.1405 38.7255 60.9556 35.7371 60.9556 30.7483C60.9556 25.7596 64.2629 22.7156 67.6952 22.7156ZM71.4686 29.5857C71.4686 26.4783 70.1066 24.7529 67.7577 24.7529C65.6535 24.7529 63.7368 26.51 63.4295 29.5857H71.4582H71.4686ZM76.5702 25.1941H74.3436V23.2494L76.6873 23.0935L76.9972 18.8261H79.13V23.0935H83.1769V25.2074H79.1379V33.6681C79.1379 35.5521 79.7264 36.6169 81.4582 36.6169C82.043 36.5742 82.6173 36.4359 83.1587 36.2074L83.6535 38.1521C82.76 38.4871 81.8211 38.6805 80.8696 38.7255C77.6535 38.7255 76.5702 36.6539 76.5702 33.6417V25.1941ZM91.4764 22.7156C92.2902 22.7116 93.0969 22.8703 93.8502 23.1827C94.6036 23.4951 95.2889 23.955 95.867 24.5362L94.5988 26.1982C93.703 25.4055 92.7759 24.8506 91.5675 24.8506C88.8462 24.8506 86.88 27.2287 86.88 30.7483C86.88 34.2679 88.755 36.5852 91.5103 36.5852C92.9321 36.5852 94.1405 35.8639 95.0363 35.0474L96.1795 36.7411C94.8429 37.9848 93.1047 38.6904 91.2915 38.7255C87.3019 38.7255 84.242 35.819 84.242 30.7563C84.2394 25.6328 87.604 22.7156 91.4764 22.7156ZM103.351 22.7156C105.083 22.7156 106.216 23.3736 107.557 24.4728L107.432 21.8674V16.0015H110V38.3424H107.898L107.682 36.5535H107.588C106.414 37.7135 104.805 38.7255 103.042 38.7255C99.2707 38.7255 96.828 35.819 96.828 30.7483C96.828 25.7781 99.9191 22.7156 103.351 22.7156ZM103.599 36.5535C104.989 36.5535 106.203 35.8639 107.435 34.4397V26.481C106.167 25.321 105.023 24.8797 103.789 24.8797C101.377 24.8797 99.4608 27.2314 99.4608 30.7166C99.4556 34.3578 100.971 36.5535 103.599 36.5535Z" fill="#15181E"/>
</g>
<defs>
<clipPath id="clip0_2744_1695">
<rect width="75" height="27" fill="white" transform="translate(35 16)"/>
</clipPath>
</defs>
</svg>
