<svg width="90" height="57" viewBox="0 0 90 57" fill="none" xmlns="http://www.w3.org/2000/svg">
<path d="M45.0016 27.5961H42.1792C41.875 27.5961 41.864 27.5843 41.8633 27.2726C41.8633 26.7518 41.8688 26.2304 41.8633 25.7096C41.8633 25.5255 41.9226 25.4592 42.1102 25.4634C42.5634 25.4737 43.0172 25.4634 43.4704 25.4696C43.6359 25.4696 43.7008 25.4185 43.6966 25.2482C43.6883 24.8764 43.7001 24.5039 43.6918 24.1315C43.6877 23.9542 43.7401 23.8783 43.9332 23.8804C44.6574 23.8896 45.3817 23.8896 46.1059 23.8804C46.2859 23.8804 46.3432 23.9494 46.339 24.1198C46.3307 24.4784 46.3445 24.8371 46.3335 25.1958C46.3273 25.3861 46.4025 25.4427 46.5839 25.4392C47.0301 25.4303 47.4771 25.4392 47.9234 25.4344C48.1089 25.4344 48.1772 25.5089 48.1765 25.6882C48.1724 26.2297 48.1765 26.7711 48.1765 27.3126C48.1765 27.5498 48.1289 27.596 47.8875 27.5967C46.9269 27.5967 45.9659 27.5967 45.0044 27.5967L45.0016 27.5961Z" fill="#5F6C89"/>
<path d="M52.2025 27.5135C51.2488 27.5135 50.2949 27.5135 49.3407 27.5135C49.0552 27.5135 49.0524 27.5136 49.0518 27.2377C49.0518 26.7638 49.0559 26.2907 49.0518 25.8168C49.0518 25.6519 49.1076 25.5898 49.2759 25.5898C51.2072 25.594 53.1454 25.5899 55.0801 25.5947C55.2083 25.5922 55.3356 25.6155 55.4546 25.6631C55.5737 25.7106 55.682 25.7815 55.7732 25.8716C55.8644 25.9616 55.9366 26.0691 55.9856 26.1875C56.0346 26.306 56.0594 26.433 56.0585 26.5612C56.0577 26.6894 56.0311 26.8161 55.9805 26.9338C55.9299 27.0516 55.8562 27.158 55.7638 27.2468C55.6714 27.3357 55.5621 27.4051 55.4424 27.451C55.3228 27.4969 55.1951 27.5185 55.067 27.5143C54.1103 27.5163 53.1564 27.5135 52.2025 27.5135Z" fill="#5F6C89"/>
<path d="M37.7991 27.5138C36.8383 27.5138 35.8774 27.5138 34.9166 27.5138C34.7189 27.5185 34.5248 27.4612 34.3613 27.3498C34.1979 27.2385 34.0735 27.0788 34.0055 26.8931C33.9319 26.7054 33.9209 26.4991 33.9741 26.3047C34.0273 26.1103 34.1418 25.9383 34.3007 25.8143C34.4734 25.667 34.6946 25.5889 34.9215 25.5949C36.8528 25.5949 38.7785 25.595 40.707 25.5908C40.8822 25.5908 40.9457 25.6474 40.9429 25.8253C40.9337 26.3123 40.9337 26.7995 40.9429 27.2869C40.9464 27.4676 40.8781 27.52 40.705 27.5186C39.7345 27.5111 38.7668 27.5138 37.7991 27.5138Z" fill="#5F6C89"/>
<path d="M36.9382 5.70403C39.3394 5.70403 41.7404 5.70403 44.1412 5.70403H46.0132C47.8334 5.70403 49.6536 5.70747 51.4739 5.70058C51.8741 5.71272 52.2632 5.5681 52.5584 5.29754C52.8536 5.02699 53.0314 4.65187 53.0541 4.25211C53.1152 3.3873 53.1219 2.5195 53.0741 1.65385C53.0845 1.43092 53.0475 1.20832 52.9657 1.00071C52.8838 0.79309 52.759 0.605166 52.5993 0.449299C52.4395 0.293432 52.2486 0.173164 52.0391 0.0964073C51.8295 0.0196511 51.6061 -0.0118481 51.3835 0.0039798C46.547 0.0039798 41.7103 0.0039798 36.8734 0.0039798C36.6558 -0.00194598 36.4393 0.0366369 36.2372 0.117351C36.0351 0.198066 35.8515 0.3192 35.6979 0.473358C35.5443 0.627517 35.4237 0.811444 35.3437 1.01384C35.2636 1.21624 35.2258 1.43285 35.2325 1.65039C35.2325 2.4321 35.2325 3.21221 35.2325 3.9907C35.2144 4.21963 35.2461 4.44975 35.3253 4.66529C35.4046 4.88083 35.5295 5.07669 35.6915 5.23943C35.8535 5.40217 36.0488 5.52796 36.264 5.60815C36.4792 5.68834 36.7092 5.72105 36.9382 5.70403Z" fill="#5F6C89"/>
<path d="M51.8162 8.0805H51.8238L51.7948 8.07568C51.7589 8.06809 51.7224 8.06188 51.6844 8.05705C51.5848 8.04041 51.484 8.03165 51.383 8.03085C46.5465 8.03085 41.7098 8.03085 36.8729 8.03085C36.6553 8.02502 36.4388 8.06368 36.2367 8.14447C36.0345 8.22526 35.851 8.34648 35.6974 8.50069C35.5437 8.6549 35.4232 8.83886 35.3432 9.0413C35.2632 9.24373 35.2253 9.46038 35.232 9.67796C35.232 10.4597 35.232 11.2398 35.232 12.0183C35.2149 12.2467 35.2473 12.4761 35.3269 12.6909C35.4066 12.9057 35.5316 13.1008 35.6935 13.2628C35.8555 13.4248 36.0504 13.55 36.2651 13.6299C36.4799 13.7097 36.7093 13.7423 36.9377 13.7254C39.3389 13.7254 41.74 13.7254 44.1407 13.7254H46.0127C47.8329 13.7254 49.6531 13.7295 51.4734 13.7219C51.8736 13.7341 52.2628 13.5895 52.5579 13.3189C52.8531 13.0483 53.0309 12.6732 53.0536 12.2735C53.1147 11.4086 53.1214 10.5408 53.0736 9.6752C53.0897 9.30286 52.9716 8.93711 52.7409 8.64446C52.5101 8.3518 52.182 8.15168 51.8162 8.0805Z" fill="#5F6C89"/>
<path d="M51.3834 16.0518H49.2639V16.047C45.1346 16.047 41.0051 16.047 36.8754 16.047C36.6578 16.0411 36.4413 16.0798 36.2392 16.1606C36.037 16.2414 35.8535 16.3626 35.6999 16.5168C35.5463 16.671 35.4257 16.855 35.3457 17.0574C35.2657 17.2598 35.2278 17.4765 35.2345 17.6941V17.6989C35.2345 18.4806 35.2345 19.2607 35.2345 20.0392C35.2173 20.2677 35.2496 20.4972 35.3292 20.7121C35.4088 20.9269 35.5338 21.1221 35.6958 21.2842C35.8577 21.4463 36.0527 21.5716 36.2675 21.6515C36.4822 21.7313 36.7117 21.7639 36.9402 21.747C39.3415 21.747 41.7424 21.747 44.1432 21.747H46.0152C47.8354 21.747 49.6556 21.7504 51.4759 21.747C51.8761 21.7591 52.2652 21.6145 52.5604 21.344C52.8556 21.0734 53.0334 20.6983 53.0561 20.2985C53.1172 19.4337 53.1239 18.5659 53.0761 17.7003C53.0863 17.4773 53.0492 17.2546 52.9671 17.047C52.8851 16.8394 52.76 16.6516 52.6 16.4958C52.4401 16.3401 52.249 16.22 52.0393 16.1434C51.8296 16.0669 51.6061 16.0357 51.3834 16.0518Z" fill="#5F6C89"/>
<path d="M38.3773 3.89372C38.954 3.89372 39.4216 3.42618 39.4216 2.84945C39.4216 2.27271 38.954 1.80518 38.3773 1.80518C37.8005 1.80518 37.333 2.27271 37.333 2.84945C37.333 3.42618 37.8005 3.89372 38.3773 3.89372Z" fill="white"/>
<path d="M38.3773 11.9225C38.954 11.9225 39.4216 11.455 39.4216 10.8783C39.4216 10.3015 38.954 9.83398 38.3773 9.83398C37.8005 9.83398 37.333 10.3015 37.333 10.8783C37.333 11.455 37.8005 11.9225 38.3773 11.9225Z" fill="white"/>
<path d="M38.3773 19.9523C38.954 19.9523 39.4216 19.4848 39.4216 18.908C39.4216 18.3313 38.954 17.8638 38.3773 17.8638C37.8005 17.8638 37.333 18.3313 37.333 18.908C37.333 19.4848 37.8005 19.9523 38.3773 19.9523Z" fill="white"/>
<path d="M13.252 43.5967V36.4385H18.4277V37.2832H14.1992V39.4756H18.1592V40.3154H14.1992V42.752H18.5938V43.5967H13.252ZM19.2041 43.5967L21.0986 40.9014L19.3457 38.4111H20.4443L21.2402 39.627C21.39 39.8581 21.5104 40.0518 21.6016 40.208C21.7448 39.9932 21.8766 39.8027 21.9971 39.6367L22.8711 38.4111H23.9209L22.1289 40.8525L24.0576 43.5967H22.9785L21.9141 41.9854L21.6309 41.5508L20.2686 43.5967H19.2041ZM26.709 42.8105L26.8359 43.5869C26.5885 43.639 26.3672 43.665 26.1719 43.665C25.8529 43.665 25.6055 43.6146 25.4297 43.5137C25.2539 43.4128 25.1302 43.2809 25.0586 43.1182C24.987 42.9521 24.9512 42.6055 24.9512 42.0781V39.0947H24.3066V38.4111H24.9512V37.127L25.8252 36.5996V38.4111H26.709V39.0947H25.8252V42.127C25.8252 42.3776 25.8398 42.5387 25.8691 42.6104C25.9017 42.682 25.9521 42.7389 26.0205 42.7812C26.0921 42.8236 26.193 42.8447 26.3232 42.8447C26.4209 42.8447 26.5495 42.8333 26.709 42.8105ZM31.123 41.9268L32.0312 42.0391C31.888 42.5697 31.6227 42.9814 31.2354 43.2744C30.848 43.5674 30.3532 43.7139 29.751 43.7139C28.9925 43.7139 28.3903 43.4811 27.9443 43.0156C27.5016 42.5469 27.2803 41.891 27.2803 41.0479C27.2803 40.1755 27.5049 39.4984 27.9541 39.0166C28.4033 38.5348 28.986 38.2939 29.7021 38.2939C30.3955 38.2939 30.9619 38.5299 31.4014 39.002C31.8408 39.474 32.0605 40.138 32.0605 40.9941C32.0605 41.0462 32.0589 41.1243 32.0557 41.2285H28.1885C28.221 41.7982 28.3822 42.2344 28.6719 42.5371C28.9616 42.8398 29.3229 42.9912 29.7559 42.9912C30.0781 42.9912 30.3532 42.9066 30.5811 42.7373C30.8089 42.568 30.9896 42.2979 31.123 41.9268ZM28.2373 40.5059H31.1328C31.0938 40.0697 30.9831 39.7425 30.8008 39.5244C30.5208 39.1859 30.1579 39.0166 29.7119 39.0166C29.3083 39.0166 28.9681 39.1517 28.6914 39.4219C28.418 39.6921 28.2666 40.0534 28.2373 40.5059ZM33.1299 43.5967V38.4111H33.9209V39.1973C34.1227 38.8294 34.3083 38.5869 34.4775 38.4697C34.6501 38.3525 34.8389 38.2939 35.0439 38.2939C35.3402 38.2939 35.6413 38.3883 35.9473 38.5771L35.6445 39.3926C35.4297 39.2656 35.2148 39.2021 35 39.2021C34.8079 39.2021 34.6354 39.2607 34.4824 39.3779C34.3294 39.4919 34.2204 39.6514 34.1553 39.8564C34.0576 40.1689 34.0088 40.5107 34.0088 40.8818V43.5967H33.1299ZM36.4697 43.5967V38.4111H37.2607V39.1484C37.6416 38.5788 38.1917 38.2939 38.9111 38.2939C39.2236 38.2939 39.5101 38.3509 39.7705 38.4648C40.0342 38.5755 40.2311 38.722 40.3613 38.9043C40.4915 39.0866 40.5827 39.3031 40.6348 39.5537C40.6673 39.7165 40.6836 40.0013 40.6836 40.4082V43.5967H39.8047V40.4424C39.8047 40.0843 39.7705 39.8174 39.7021 39.6416C39.6338 39.4626 39.5117 39.321 39.3359 39.2168C39.1634 39.1094 38.96 39.0557 38.7256 39.0557C38.3512 39.0557 38.0273 39.1745 37.7539 39.4121C37.4837 39.6497 37.3486 40.1006 37.3486 40.7646V43.5967H36.4697ZM45.4199 42.957C45.0944 43.2337 44.7803 43.429 44.4775 43.543C44.1781 43.6569 43.8558 43.7139 43.5107 43.7139C42.9411 43.7139 42.5033 43.5755 42.1973 43.2988C41.8913 43.0189 41.7383 42.6624 41.7383 42.2295C41.7383 41.9756 41.7952 41.7445 41.9092 41.5361C42.0264 41.3245 42.1777 41.1553 42.3633 41.0283C42.5521 40.9014 42.7637 40.8053 42.998 40.7402C43.1706 40.6947 43.431 40.6507 43.7793 40.6084C44.4889 40.5238 45.0114 40.4229 45.3467 40.3057C45.3499 40.1852 45.3516 40.1087 45.3516 40.0762C45.3516 39.7181 45.2686 39.4658 45.1025 39.3193C44.8779 39.1208 44.5443 39.0215 44.1016 39.0215C43.6882 39.0215 43.3822 39.0947 43.1836 39.2412C42.9883 39.3844 42.8434 39.64 42.749 40.0078L41.8896 39.8906C41.9678 39.5228 42.0964 39.2266 42.2754 39.002C42.4544 38.7741 42.7132 38.5999 43.0518 38.4795C43.3903 38.3558 43.7826 38.2939 44.2285 38.2939C44.6712 38.2939 45.0309 38.346 45.3076 38.4502C45.5843 38.5544 45.7878 38.6862 45.918 38.8457C46.0482 39.002 46.1393 39.2005 46.1914 39.4414C46.2207 39.5911 46.2354 39.8613 46.2354 40.252V41.4238C46.2354 42.2409 46.2533 42.7585 46.2891 42.9766C46.3281 43.1914 46.403 43.3981 46.5137 43.5967H45.5957C45.5046 43.4144 45.446 43.2012 45.4199 42.957ZM45.3467 40.9941C45.0277 41.1243 44.5492 41.235 43.9111 41.3262C43.5498 41.3783 43.2943 41.4368 43.1445 41.502C42.9948 41.5671 42.8792 41.6631 42.7979 41.79C42.7165 41.9137 42.6758 42.0521 42.6758 42.2051C42.6758 42.4395 42.7637 42.6348 42.9395 42.791C43.1185 42.9473 43.3789 43.0254 43.7207 43.0254C44.0592 43.0254 44.3604 42.9521 44.624 42.8057C44.8877 42.6559 45.0814 42.4525 45.2051 42.1953C45.2995 41.9967 45.3467 41.7038 45.3467 41.3164V40.9941ZM47.583 43.5967V36.4385H48.4619V43.5967H47.583ZM52.7246 43.5967V36.4385H55.4248C55.9001 36.4385 56.263 36.4613 56.5137 36.5068C56.8652 36.5654 57.1598 36.6777 57.3975 36.8438C57.6351 37.0065 57.8255 37.236 57.9688 37.5322C58.1152 37.8285 58.1885 38.154 58.1885 38.5088C58.1885 39.1175 57.9948 39.6335 57.6074 40.0566C57.2201 40.4766 56.5202 40.6865 55.5078 40.6865H53.6719V43.5967H52.7246ZM53.6719 39.8418H55.5225C56.1344 39.8418 56.569 39.7279 56.8262 39.5C57.0833 39.2721 57.2119 38.9515 57.2119 38.5381C57.2119 38.2386 57.1354 37.9831 56.9824 37.7715C56.8327 37.5566 56.6341 37.415 56.3867 37.3467C56.2272 37.3044 55.9326 37.2832 55.5029 37.2832H53.6719V39.8418ZM62.666 42.957C62.3405 43.2337 62.0264 43.429 61.7236 43.543C61.4242 43.6569 61.1019 43.7139 60.7568 43.7139C60.1872 43.7139 59.7493 43.5755 59.4434 43.2988C59.1374 43.0189 58.9844 42.6624 58.9844 42.2295C58.9844 41.9756 59.0413 41.7445 59.1553 41.5361C59.2725 41.3245 59.4238 41.1553 59.6094 41.0283C59.7982 40.9014 60.0098 40.8053 60.2441 40.7402C60.4167 40.6947 60.6771 40.6507 61.0254 40.6084C61.735 40.5238 62.2575 40.4229 62.5928 40.3057C62.596 40.1852 62.5977 40.1087 62.5977 40.0762C62.5977 39.7181 62.5146 39.4658 62.3486 39.3193C62.124 39.1208 61.7904 39.0215 61.3477 39.0215C60.9342 39.0215 60.6283 39.0947 60.4297 39.2412C60.2344 39.3844 60.0895 39.64 59.9951 40.0078L59.1357 39.8906C59.2139 39.5228 59.3424 39.2266 59.5215 39.002C59.7005 38.7741 59.9593 38.5999 60.2979 38.4795C60.6364 38.3558 61.0286 38.2939 61.4746 38.2939C61.9173 38.2939 62.277 38.346 62.5537 38.4502C62.8304 38.5544 63.0339 38.6862 63.1641 38.8457C63.2943 39.002 63.3854 39.2005 63.4375 39.4414C63.4668 39.5911 63.4814 39.8613 63.4814 40.252V41.4238C63.4814 42.2409 63.4993 42.7585 63.5352 42.9766C63.5742 43.1914 63.6491 43.3981 63.7598 43.5967H62.8418C62.7507 43.4144 62.6921 43.2012 62.666 42.957ZM62.5928 40.9941C62.2738 41.1243 61.7952 41.235 61.1572 41.3262C60.7959 41.3783 60.5404 41.4368 60.3906 41.502C60.2409 41.5671 60.1253 41.6631 60.0439 41.79C59.9626 41.9137 59.9219 42.0521 59.9219 42.2051C59.9219 42.4395 60.0098 42.6348 60.1855 42.791C60.3646 42.9473 60.625 43.0254 60.9668 43.0254C61.3053 43.0254 61.6064 42.9521 61.8701 42.8057C62.1338 42.6559 62.3275 42.4525 62.4512 42.1953C62.5456 41.9967 62.5928 41.7038 62.5928 41.3164V40.9941ZM66.7676 42.8105L66.8945 43.5869C66.6471 43.639 66.4258 43.665 66.2305 43.665C65.9115 43.665 65.6641 43.6146 65.4883 43.5137C65.3125 43.4128 65.1888 43.2809 65.1172 43.1182C65.0456 42.9521 65.0098 42.6055 65.0098 42.0781V39.0947H64.3652V38.4111H65.0098V37.127L65.8838 36.5996V38.4111H66.7676V39.0947H65.8838V42.127C65.8838 42.3776 65.8984 42.5387 65.9277 42.6104C65.9603 42.682 66.0107 42.7389 66.0791 42.7812C66.1507 42.8236 66.2516 42.8447 66.3818 42.8447C66.4795 42.8447 66.6081 42.8333 66.7676 42.8105ZM71.0156 41.6973L71.8799 41.8096C71.7855 42.4053 71.543 42.8724 71.1523 43.2109C70.765 43.5462 70.2881 43.7139 69.7217 43.7139C69.012 43.7139 68.4408 43.4827 68.0078 43.0205C67.5781 42.555 67.3633 41.8893 67.3633 41.0234C67.3633 40.4635 67.4561 39.9736 67.6416 39.5537C67.8271 39.1338 68.1087 38.8197 68.4863 38.6113C68.8672 38.3997 69.2806 38.2939 69.7266 38.2939C70.2897 38.2939 70.7503 38.4372 71.1084 38.7236C71.4665 39.0068 71.696 39.4105 71.7969 39.9346L70.9424 40.0664C70.861 39.7181 70.7161 39.4561 70.5078 39.2803C70.3027 39.1045 70.0537 39.0166 69.7607 39.0166C69.318 39.0166 68.9583 39.1761 68.6816 39.4951C68.4049 39.8109 68.2666 40.3122 68.2666 40.999C68.2666 41.6956 68.4001 42.2018 68.667 42.5176C68.9339 42.8333 69.2822 42.9912 69.7119 42.9912C70.057 42.9912 70.3451 42.8854 70.5762 42.6738C70.8073 42.4622 70.9538 42.1367 71.0156 41.6973ZM72.6318 43.5967V36.4385H73.5107V39.0068C73.9209 38.5316 74.4385 38.2939 75.0635 38.2939C75.4476 38.2939 75.7812 38.3704 76.0645 38.5234C76.3477 38.6732 76.5495 38.8815 76.6699 39.1484C76.7936 39.4154 76.8555 39.8027 76.8555 40.3105V43.5967H75.9766V40.3105C75.9766 39.8711 75.8805 39.5521 75.6885 39.3535C75.4997 39.1517 75.2311 39.0508 74.8828 39.0508C74.6224 39.0508 74.3766 39.1191 74.1455 39.2559C73.9176 39.3893 73.7549 39.5716 73.6572 39.8027C73.5596 40.0339 73.5107 40.3529 73.5107 40.7598V43.5967H72.6318ZM33.6426 52.0869L34.5898 52.3262C34.3913 53.1042 34.0332 53.6982 33.5156 54.1084C33.0013 54.5153 32.3714 54.7188 31.626 54.7188C30.8545 54.7188 30.2262 54.5625 29.7412 54.25C29.2594 53.9342 28.8916 53.4785 28.6377 52.8828C28.387 52.2871 28.2617 51.6475 28.2617 50.9639C28.2617 50.2184 28.4033 49.569 28.6865 49.0156C28.973 48.459 29.3783 48.0374 29.9023 47.751C30.4297 47.4613 31.0091 47.3164 31.6406 47.3164C32.3568 47.3164 32.959 47.4987 33.4473 47.8633C33.9355 48.2279 34.2757 48.7406 34.4678 49.4014L33.5352 49.6211C33.3691 49.1003 33.1283 48.721 32.8125 48.4834C32.4967 48.2458 32.0996 48.127 31.6211 48.127C31.071 48.127 30.6104 48.2588 30.2393 48.5225C29.8714 48.7861 29.6126 49.141 29.4629 49.5869C29.3132 50.0296 29.2383 50.487 29.2383 50.959C29.2383 51.5677 29.3262 52.0999 29.502 52.5557C29.681 53.0081 29.9577 53.3467 30.332 53.5713C30.7064 53.7959 31.1117 53.9082 31.5479 53.9082C32.0785 53.9082 32.5277 53.7552 32.8955 53.4492C33.2633 53.1432 33.5124 52.6891 33.6426 52.0869ZM35.6396 54.5967V49.4111H36.4307V50.1973C36.6325 49.8294 36.818 49.5869 36.9873 49.4697C37.1598 49.3525 37.3486 49.2939 37.5537 49.2939C37.8499 49.2939 38.151 49.3883 38.457 49.5771L38.1543 50.3926C37.9395 50.2656 37.7246 50.2021 37.5098 50.2021C37.3177 50.2021 37.1452 50.2607 36.9922 50.3779C36.8392 50.4919 36.7301 50.6514 36.665 50.8564C36.5674 51.1689 36.5186 51.5107 36.5186 51.8818V54.5967H35.6396ZM42.3633 53.957C42.0378 54.2337 41.7236 54.429 41.4209 54.543C41.1214 54.6569 40.7992 54.7139 40.4541 54.7139C39.8844 54.7139 39.4466 54.5755 39.1406 54.2988C38.8346 54.0189 38.6816 53.6624 38.6816 53.2295C38.6816 52.9756 38.7386 52.7445 38.8525 52.5361C38.9697 52.3245 39.1211 52.1553 39.3066 52.0283C39.4954 51.9014 39.707 51.8053 39.9414 51.7402C40.1139 51.6947 40.3743 51.6507 40.7227 51.6084C41.4323 51.5238 41.9548 51.4229 42.29 51.3057C42.2933 51.1852 42.2949 51.1087 42.2949 51.0762C42.2949 50.7181 42.2119 50.4658 42.0459 50.3193C41.8213 50.1208 41.4876 50.0215 41.0449 50.0215C40.6315 50.0215 40.3255 50.0947 40.127 50.2412C39.9316 50.3844 39.7868 50.64 39.6924 51.0078L38.833 50.8906C38.9111 50.5228 39.0397 50.2266 39.2188 50.002C39.3978 49.7741 39.6566 49.5999 39.9951 49.4795C40.3337 49.3558 40.7259 49.2939 41.1719 49.2939C41.6146 49.2939 41.9743 49.346 42.251 49.4502C42.5277 49.5544 42.7311 49.6862 42.8613 49.8457C42.9915 50.002 43.0827 50.2005 43.1348 50.4414C43.1641 50.5911 43.1787 50.8613 43.1787 51.252V52.4238C43.1787 53.2409 43.1966 53.7585 43.2324 53.9766C43.2715 54.1914 43.3464 54.3981 43.457 54.5967H42.5391C42.4479 54.4144 42.3893 54.2012 42.3633 53.957ZM42.29 51.9941C41.971 52.1243 41.4925 52.235 40.8545 52.3262C40.4932 52.3783 40.2376 52.4368 40.0879 52.502C39.9382 52.5671 39.8226 52.6631 39.7412 52.79C39.6598 52.9137 39.6191 53.0521 39.6191 53.2051C39.6191 53.4395 39.707 53.6348 39.8828 53.791C40.0618 53.9473 40.3223 54.0254 40.6641 54.0254C41.0026 54.0254 41.3037 53.9521 41.5674 53.8057C41.8311 53.6559 42.0247 53.4525 42.1484 53.1953C42.2428 52.9967 42.29 52.7038 42.29 52.3164V51.9941ZM45.5029 54.5967L43.916 49.4111H44.8242L45.6494 52.4043L45.957 53.5176C45.9701 53.4622 46.0596 53.1058 46.2256 52.4482L47.0508 49.4111H47.9541L48.7305 52.4189L48.9893 53.4102L49.2871 52.4092L50.1758 49.4111H51.0303L49.4092 54.5967H48.4961L47.6709 51.4912L47.4707 50.6074L46.4209 54.5967H45.5029ZM51.7529 54.5967V47.4385H52.6318V54.5967H51.7529ZM57.5488 52.9268L58.457 53.0391C58.3138 53.5697 58.0485 53.9814 57.6611 54.2744C57.2738 54.5674 56.779 54.7139 56.1768 54.7139C55.4183 54.7139 54.8161 54.4811 54.3701 54.0156C53.9274 53.5469 53.7061 52.891 53.7061 52.0479C53.7061 51.1755 53.9307 50.4984 54.3799 50.0166C54.8291 49.5348 55.4118 49.2939 56.1279 49.2939C56.8213 49.2939 57.3877 49.5299 57.8271 50.002C58.2666 50.474 58.4863 51.138 58.4863 51.9941C58.4863 52.0462 58.4847 52.1243 58.4814 52.2285H54.6143C54.6468 52.7982 54.8079 53.2344 55.0977 53.5371C55.3874 53.8398 55.7487 53.9912 56.1816 53.9912C56.5039 53.9912 56.779 53.9066 57.0068 53.7373C57.2347 53.568 57.4154 53.2979 57.5488 52.9268ZM54.6631 51.5059H57.5586C57.5195 51.0697 57.4089 50.7425 57.2266 50.5244C56.9466 50.1859 56.5837 50.0166 56.1377 50.0166C55.734 50.0166 55.3939 50.1517 55.1172 50.4219C54.8438 50.6921 54.6924 51.0534 54.6631 51.5059ZM59.5557 54.5967V49.4111H60.3467V50.1973C60.5485 49.8294 60.734 49.5869 60.9033 49.4697C61.0758 49.3525 61.2646 49.2939 61.4697 49.2939C61.766 49.2939 62.0671 49.3883 62.373 49.5771L62.0703 50.3926C61.8555 50.2656 61.6406 50.2021 61.4258 50.2021C61.2337 50.2021 61.0612 50.2607 60.9082 50.3779C60.7552 50.4919 60.6462 50.6514 60.5811 50.8564C60.4834 51.1689 60.4346 51.5107 60.4346 51.8818V54.5967H59.5557Z" fill="#2A303D"/>
</svg>
