<svg width="90" height="61" viewBox="0 0 90 61" fill="none" xmlns="http://www.w3.org/2000/svg">
<path d="M44.9667 16.5223C48.7033 16.5223 52.4398 16.5223 56.176 16.5223C56.3875 16.5177 56.5987 16.5417 56.8039 16.5935C57.1007 16.675 57.3551 16.867 57.5148 17.1301C57.6746 17.3932 57.7277 17.7074 57.6631 18.0084C56.893 21.6371 56.1231 25.2654 55.3534 28.8934C55.3262 29.0196 55.3078 29.1475 55.2845 29.2749C55.2748 29.4526 55.2289 29.6264 55.1495 29.7857C55.0701 29.9449 54.9589 30.0862 54.8228 30.2009C54.6867 30.3155 54.5285 30.401 54.3581 30.4522C54.1877 30.5034 54.0086 30.5191 53.8318 30.4984C51.6814 30.5032 49.5309 30.5044 47.3804 30.5018H36.3825C36.1477 30.5149 35.9122 30.4951 35.6829 30.4428C35.4514 30.3904 35.2404 30.2712 35.0759 30.1001C34.9115 29.929 34.8007 29.7135 34.7575 29.4801C33.9418 25.6338 33.1304 21.7867 32.3232 17.9389C32.2967 17.7546 32.312 17.5667 32.3681 17.3892C32.4241 17.2116 32.5195 17.049 32.647 16.9134C32.7746 16.7778 32.931 16.6726 33.1048 16.6058C33.2786 16.539 33.4652 16.5122 33.6507 16.5273C34.9299 16.5184 36.2124 16.5223 37.4932 16.5223C39.9836 16.5223 42.4743 16.5223 44.9651 16.5223H44.9667ZM45.0263 23.0293C44.9476 23.0247 44.8689 23.0358 44.7946 23.0619C44.7203 23.088 44.6519 23.1286 44.5934 23.1813C44.5348 23.234 44.4874 23.2978 44.4537 23.369C44.4201 23.4402 44.4009 23.5174 44.3973 23.596C44.3964 23.7493 44.4541 23.8971 44.5586 24.0091C44.6632 24.1212 44.8066 24.1891 44.9595 24.1989C45.1186 24.208 45.275 24.1551 45.396 24.0515C45.517 23.9478 45.5931 23.8013 45.6085 23.6427C45.612 23.4847 45.5527 23.3318 45.4437 23.2174C45.3347 23.1029 45.1848 23.0363 45.0268 23.0321L45.0263 23.0293Z" fill="#8893AD"/>
<path d="M44.1107 15.3236C44.2453 14.7841 44.361 14.3325 44.4711 13.8776C44.4776 13.8309 44.4743 13.7834 44.4614 13.738C44.4486 13.6926 44.4265 13.6504 44.3966 13.614C44.3251 13.5069 44.265 13.3927 44.2175 13.2731C44.0467 12.7931 44.1168 12.6997 44.6307 12.6986C44.9355 12.6986 45.2425 12.7069 45.5467 12.6952C45.8248 12.6846 45.9026 12.8209 45.8431 13.0678C45.8324 13.1848 45.7943 13.2976 45.7319 13.3971C45.6232 13.5282 45.5562 13.6887 45.5392 13.8581C45.5223 14.0275 45.5562 14.1981 45.6368 14.3481C45.7269 14.6373 45.7964 14.9343 45.8954 15.3058C46.3364 14.8053 46.7424 14.3603 47.1339 13.8987C47.6225 13.3735 48.0486 12.7935 48.4036 12.1702C48.4492 12.0818 48.5032 12.0156 48.62 12.0317C49.4447 12.143 50.2812 12.1296 51.0998 12.3126C51.6654 12.4567 52.1914 12.726 52.6389 13.1007C53.0864 13.4753 53.4441 13.9457 53.6854 14.4771C53.9209 14.9239 54.116 15.3909 54.2683 15.8725C54.3673 16.1689 54.3161 16.2702 53.9902 16.2668C52.8745 16.254 51.7584 16.2635 50.6427 16.2635C45.8034 16.2635 40.9649 16.2635 36.1271 16.2635C35.621 16.2635 35.6183 16.259 35.769 15.778C35.9738 15.1397 36.2615 14.531 36.6249 13.9677C36.9902 13.4018 37.4929 12.9378 38.0862 12.6189C38.6795 12.3001 39.3439 12.1369 40.0174 12.1446C40.4278 12.1213 40.84 12.109 41.2454 12.0506C41.3279 12.0277 41.4159 12.0364 41.4924 12.0749C41.5688 12.1135 41.6281 12.1792 41.6586 12.2592C42.3785 13.355 43.1994 14.381 44.1107 15.3236Z" fill="#6B94E7"/>
<path d="M44.9474 0.0091033C45.9346 -0.0502741 46.9174 0.181805 47.7737 0.676486C48.3746 1.05243 48.8705 1.57446 49.215 2.19386C49.5596 2.81325 49.7416 3.50984 49.7442 4.21862C49.7597 4.66607 49.8345 5.10948 49.9666 5.53725C50.1224 5.97192 50.1511 6.44195 50.0495 6.89235C49.9478 7.34275 49.72 7.75488 49.3927 8.08053C49.2418 8.27397 49.1246 8.49152 49.0462 8.724C48.6152 9.73308 47.9516 10.6259 47.1097 11.3296C46.4861 11.9042 45.6616 12.2108 44.8141 12.183C43.9665 12.1552 43.1639 11.7954 42.5793 11.1811C41.7998 10.4619 41.1828 9.58454 40.7696 8.60777C40.701 8.37072 40.5564 8.1628 40.358 8.01602C40.2535 7.93873 40.1736 7.8329 40.1278 7.71125C39.7574 6.86534 39.5243 6.04279 40.0627 5.13738C40.2343 4.71367 40.3187 4.25969 40.3107 3.80261C40.5888 1.14866 42.7506 0.0613819 44.7272 0.0124405C44.8173 0.00687899 44.9107 0.0091033 44.9474 0.0091033ZM47.92 4.15243C47.8416 4.29926 48.0118 4.43718 47.8855 4.51282C47.7743 4.57789 47.6631 4.46833 47.5646 4.41716C47.3272 4.26411 47.0616 4.15995 46.7835 4.11077C46.5053 4.06159 46.2201 4.06838 45.9446 4.13074C45.2275 4.32525 44.4734 4.33844 43.75 4.16912C43.5016 4.10083 43.2491 4.04808 42.9942 4.01117C42.1449 3.94388 41.5093 4.46555 41.205 5.44716C41.1494 5.63347 41.1711 5.87929 40.8608 5.88652C40.7723 5.88652 40.7301 6.01499 40.7295 6.11342C40.7109 6.40618 40.7144 6.69992 40.7401 6.99215C40.7824 7.27968 40.8663 7.61615 41.1672 7.71514C41.2526 7.74251 41.3295 7.79161 41.3902 7.85761C41.4509 7.92361 41.4935 8.00426 41.5137 8.09166C41.8906 9.16256 42.5842 10.0936 43.5025 10.7612C43.9181 11.0665 44.4203 11.2311 44.936 11.2311C45.4517 11.2311 45.9539 11.0665 46.3695 10.7612C47.1888 10.1611 47.8294 9.34945 48.2226 8.41311C48.3605 8.12503 48.3688 7.73683 48.7982 7.66787C48.8427 7.66064 48.8855 7.59001 48.9128 7.5394C49.1733 7.1145 49.2586 6.60504 49.1508 6.11843C49.1213 5.99886 49.0807 5.86204 48.9483 5.8626C48.7125 5.8626 48.6947 5.69576 48.6486 5.54281C48.5118 5.0319 48.2629 4.55787 47.92 4.15521V4.15243Z" fill="#8893AD"/>
<path d="M44.9837 31.8425C41.6816 31.8425 38.3799 31.8425 35.0786 31.8425C34.9018 31.8591 34.7245 31.8168 34.5742 31.7224C34.4742 31.6573 34.3988 31.5608 34.3597 31.4482C34.3207 31.3355 34.3202 31.213 34.3584 31.1001C34.3953 30.9739 34.4751 30.8646 34.5841 30.7912C34.6931 30.7177 34.8244 30.6848 34.9551 30.698C35.7538 30.6918 36.5535 30.6924 37.3522 30.6924C43.1565 30.6924 48.9607 30.6933 54.7647 30.6952C54.9173 30.6911 55.07 30.7026 55.2202 30.7297C55.351 30.7447 55.4707 30.8102 55.5538 30.9122C55.6369 31.0142 55.6769 31.1447 55.6651 31.2758C55.6706 31.4075 55.6259 31.5364 55.54 31.6364C55.4541 31.7365 55.3334 31.8002 55.2024 31.8147C54.9693 31.8421 54.7345 31.8512 54.5 31.842C51.3281 31.8434 48.156 31.8436 44.9837 31.8425Z" fill="#8893AD"/>
<path d="M13.252 47.8462V40.688H18.4277V41.5327H14.1992V43.7251H18.1592V44.5649H14.1992V47.0015H18.5938V47.8462H13.252ZM19.2041 47.8462L21.0986 45.1509L19.3457 42.6606H20.4443L21.2402 43.8765C21.39 44.1076 21.5104 44.3013 21.6016 44.4575C21.7448 44.2427 21.8766 44.0522 21.9971 43.8862L22.8711 42.6606H23.9209L22.1289 45.1021L24.0576 47.8462H22.9785L21.9141 46.2349L21.6309 45.8003L20.2686 47.8462H19.2041ZM26.709 47.0601L26.8359 47.8364C26.5885 47.8885 26.3672 47.9146 26.1719 47.9146C25.8529 47.9146 25.6055 47.8641 25.4297 47.7632C25.2539 47.6623 25.1302 47.5304 25.0586 47.3677C24.987 47.2017 24.9512 46.855 24.9512 46.3276V43.3442H24.3066V42.6606H24.9512V41.3765L25.8252 40.8491V42.6606H26.709V43.3442H25.8252V46.3765C25.8252 46.6271 25.8398 46.7882 25.8691 46.8599C25.9017 46.9315 25.9521 46.9884 26.0205 47.0308C26.0921 47.0731 26.193 47.0942 26.3232 47.0942C26.4209 47.0942 26.5495 47.0828 26.709 47.0601ZM31.123 46.1763L32.0312 46.2886C31.888 46.8192 31.6227 47.231 31.2354 47.5239C30.848 47.8169 30.3532 47.9634 29.751 47.9634C28.9925 47.9634 28.3903 47.7306 27.9443 47.2651C27.5016 46.7964 27.2803 46.1405 27.2803 45.2974C27.2803 44.425 27.5049 43.7479 27.9541 43.2661C28.4033 42.7843 28.986 42.5435 29.7021 42.5435C30.3955 42.5435 30.9619 42.7795 31.4014 43.2515C31.8408 43.7235 32.0605 44.3875 32.0605 45.2437C32.0605 45.2957 32.0589 45.3739 32.0557 45.478H28.1885C28.221 46.0477 28.3822 46.4839 28.6719 46.7866C28.9616 47.0894 29.3229 47.2407 29.7559 47.2407C30.0781 47.2407 30.3532 47.1561 30.5811 46.9868C30.8089 46.8175 30.9896 46.5474 31.123 46.1763ZM28.2373 44.7554H31.1328C31.0938 44.3192 30.9831 43.992 30.8008 43.7739C30.5208 43.4354 30.1579 43.2661 29.7119 43.2661C29.3083 43.2661 28.9681 43.4012 28.6914 43.6714C28.418 43.9416 28.2666 44.3029 28.2373 44.7554ZM33.1299 47.8462V42.6606H33.9209V43.4468C34.1227 43.0789 34.3083 42.8364 34.4775 42.7192C34.6501 42.6021 34.8389 42.5435 35.0439 42.5435C35.3402 42.5435 35.6413 42.6379 35.9473 42.8267L35.6445 43.6421C35.4297 43.5151 35.2148 43.4517 35 43.4517C34.8079 43.4517 34.6354 43.5103 34.4824 43.6274C34.3294 43.7414 34.2204 43.9009 34.1553 44.106C34.0576 44.4185 34.0088 44.7603 34.0088 45.1313V47.8462H33.1299ZM36.4697 47.8462V42.6606H37.2607V43.3979C37.6416 42.8283 38.1917 42.5435 38.9111 42.5435C39.2236 42.5435 39.5101 42.6004 39.7705 42.7144C40.0342 42.825 40.2311 42.9715 40.3613 43.1538C40.4915 43.3361 40.5827 43.5526 40.6348 43.8032C40.6673 43.966 40.6836 44.2508 40.6836 44.6577V47.8462H39.8047V44.6919C39.8047 44.3338 39.7705 44.0669 39.7021 43.8911C39.6338 43.7121 39.5117 43.5705 39.3359 43.4663C39.1634 43.3589 38.96 43.3052 38.7256 43.3052C38.3512 43.3052 38.0273 43.424 37.7539 43.6616C37.4837 43.8993 37.3486 44.3501 37.3486 45.0142V47.8462H36.4697ZM45.4199 47.2065C45.0944 47.4832 44.7803 47.6785 44.4775 47.7925C44.1781 47.9064 43.8558 47.9634 43.5107 47.9634C42.9411 47.9634 42.5033 47.825 42.1973 47.5483C41.8913 47.2684 41.7383 46.9119 41.7383 46.479C41.7383 46.2251 41.7952 45.994 41.9092 45.7856C42.0264 45.5741 42.1777 45.4048 42.3633 45.2778C42.5521 45.1509 42.7637 45.0549 42.998 44.9897C43.1706 44.9442 43.431 44.9002 43.7793 44.8579C44.4889 44.7733 45.0114 44.6724 45.3467 44.5552C45.3499 44.4347 45.3516 44.3582 45.3516 44.3257C45.3516 43.9676 45.2686 43.7153 45.1025 43.5688C44.8779 43.3703 44.5443 43.271 44.1016 43.271C43.6882 43.271 43.3822 43.3442 43.1836 43.4907C42.9883 43.634 42.8434 43.8895 42.749 44.2573L41.8896 44.1401C41.9678 43.7723 42.0964 43.4761 42.2754 43.2515C42.4544 43.0236 42.7132 42.8494 43.0518 42.729C43.3903 42.6053 43.7826 42.5435 44.2285 42.5435C44.6712 42.5435 45.0309 42.5955 45.3076 42.6997C45.5843 42.8039 45.7878 42.9357 45.918 43.0952C46.0482 43.2515 46.1393 43.45 46.1914 43.6909C46.2207 43.8407 46.2354 44.1108 46.2354 44.5015V45.6733C46.2354 46.4904 46.2533 47.008 46.2891 47.2261C46.3281 47.4409 46.403 47.6476 46.5137 47.8462H45.5957C45.5046 47.6639 45.446 47.4507 45.4199 47.2065ZM45.3467 45.2437C45.0277 45.3739 44.5492 45.4845 43.9111 45.5757C43.5498 45.6278 43.2943 45.6864 43.1445 45.7515C42.9948 45.8166 42.8792 45.9126 42.7979 46.0396C42.7165 46.1632 42.6758 46.3016 42.6758 46.4546C42.6758 46.689 42.7637 46.8843 42.9395 47.0405C43.1185 47.1968 43.3789 47.2749 43.7207 47.2749C44.0592 47.2749 44.3604 47.2017 44.624 47.0552C44.8877 46.9054 45.0814 46.702 45.2051 46.4448C45.2995 46.2463 45.3467 45.9533 45.3467 45.5659V45.2437ZM47.583 47.8462V40.688H48.4619V47.8462H47.583ZM52.7246 47.8462V40.688H55.4248C55.9001 40.688 56.263 40.7108 56.5137 40.7563C56.8652 40.8149 57.1598 40.9272 57.3975 41.0933C57.6351 41.256 57.8255 41.4855 57.9688 41.7817C58.1152 42.078 58.1885 42.4035 58.1885 42.7583C58.1885 43.367 57.9948 43.883 57.6074 44.3062C57.2201 44.7261 56.5202 44.936 55.5078 44.936H53.6719V47.8462H52.7246ZM53.6719 44.0913H55.5225C56.1344 44.0913 56.569 43.9774 56.8262 43.7495C57.0833 43.5216 57.2119 43.201 57.2119 42.7876C57.2119 42.4881 57.1354 42.2326 56.9824 42.021C56.8327 41.8062 56.6341 41.6646 56.3867 41.5962C56.2272 41.5539 55.9326 41.5327 55.5029 41.5327H53.6719V44.0913ZM62.666 47.2065C62.3405 47.4832 62.0264 47.6785 61.7236 47.7925C61.4242 47.9064 61.1019 47.9634 60.7568 47.9634C60.1872 47.9634 59.7493 47.825 59.4434 47.5483C59.1374 47.2684 58.9844 46.9119 58.9844 46.479C58.9844 46.2251 59.0413 45.994 59.1553 45.7856C59.2725 45.5741 59.4238 45.4048 59.6094 45.2778C59.7982 45.1509 60.0098 45.0549 60.2441 44.9897C60.4167 44.9442 60.6771 44.9002 61.0254 44.8579C61.735 44.7733 62.2575 44.6724 62.5928 44.5552C62.596 44.4347 62.5977 44.3582 62.5977 44.3257C62.5977 43.9676 62.5146 43.7153 62.3486 43.5688C62.124 43.3703 61.7904 43.271 61.3477 43.271C60.9342 43.271 60.6283 43.3442 60.4297 43.4907C60.2344 43.634 60.0895 43.8895 59.9951 44.2573L59.1357 44.1401C59.2139 43.7723 59.3424 43.4761 59.5215 43.2515C59.7005 43.0236 59.9593 42.8494 60.2979 42.729C60.6364 42.6053 61.0286 42.5435 61.4746 42.5435C61.9173 42.5435 62.277 42.5955 62.5537 42.6997C62.8304 42.8039 63.0339 42.9357 63.1641 43.0952C63.2943 43.2515 63.3854 43.45 63.4375 43.6909C63.4668 43.8407 63.4814 44.1108 63.4814 44.5015V45.6733C63.4814 46.4904 63.4993 47.008 63.5352 47.2261C63.5742 47.4409 63.6491 47.6476 63.7598 47.8462H62.8418C62.7507 47.6639 62.6921 47.4507 62.666 47.2065ZM62.5928 45.2437C62.2738 45.3739 61.7952 45.4845 61.1572 45.5757C60.7959 45.6278 60.5404 45.6864 60.3906 45.7515C60.2409 45.8166 60.1253 45.9126 60.0439 46.0396C59.9626 46.1632 59.9219 46.3016 59.9219 46.4546C59.9219 46.689 60.0098 46.8843 60.1855 47.0405C60.3646 47.1968 60.625 47.2749 60.9668 47.2749C61.3053 47.2749 61.6064 47.2017 61.8701 47.0552C62.1338 46.9054 62.3275 46.702 62.4512 46.4448C62.5456 46.2463 62.5928 45.9533 62.5928 45.5659V45.2437ZM66.7676 47.0601L66.8945 47.8364C66.6471 47.8885 66.4258 47.9146 66.2305 47.9146C65.9115 47.9146 65.6641 47.8641 65.4883 47.7632C65.3125 47.6623 65.1888 47.5304 65.1172 47.3677C65.0456 47.2017 65.0098 46.855 65.0098 46.3276V43.3442H64.3652V42.6606H65.0098V41.3765L65.8838 40.8491V42.6606H66.7676V43.3442H65.8838V46.3765C65.8838 46.6271 65.8984 46.7882 65.9277 46.8599C65.9603 46.9315 66.0107 46.9884 66.0791 47.0308C66.1507 47.0731 66.2516 47.0942 66.3818 47.0942C66.4795 47.0942 66.6081 47.0828 66.7676 47.0601ZM71.0156 45.9468L71.8799 46.0591C71.7855 46.6548 71.543 47.1219 71.1523 47.4604C70.765 47.7957 70.2881 47.9634 69.7217 47.9634C69.012 47.9634 68.4408 47.7323 68.0078 47.27C67.5781 46.8045 67.3633 46.1388 67.3633 45.2729C67.3633 44.7131 67.4561 44.2231 67.6416 43.8032C67.8271 43.3833 68.1087 43.0692 68.4863 42.8608C68.8672 42.6493 69.2806 42.5435 69.7266 42.5435C70.2897 42.5435 70.7503 42.6867 71.1084 42.9731C71.4665 43.2563 71.696 43.66 71.7969 44.1841L70.9424 44.3159C70.861 43.9676 70.7161 43.7056 70.5078 43.5298C70.3027 43.354 70.0537 43.2661 69.7607 43.2661C69.318 43.2661 68.9583 43.4256 68.6816 43.7446C68.4049 44.0604 68.2666 44.5617 68.2666 45.2485C68.2666 45.9451 68.4001 46.4513 68.667 46.7671C68.9339 47.0828 69.2822 47.2407 69.7119 47.2407C70.057 47.2407 70.3451 47.1349 70.5762 46.9233C70.8073 46.7118 70.9538 46.3862 71.0156 45.9468ZM72.6318 47.8462V40.688H73.5107V43.2563C73.9209 42.7811 74.4385 42.5435 75.0635 42.5435C75.4476 42.5435 75.7812 42.62 76.0645 42.7729C76.3477 42.9227 76.5495 43.131 76.6699 43.3979C76.7936 43.6649 76.8555 44.0522 76.8555 44.5601V47.8462H75.9766V44.5601C75.9766 44.1206 75.8805 43.8016 75.6885 43.603C75.4997 43.4012 75.2311 43.3003 74.8828 43.3003C74.6224 43.3003 74.3766 43.3687 74.1455 43.5054C73.9176 43.6388 73.7549 43.8211 73.6572 44.0522C73.5596 44.2834 73.5107 44.6024 73.5107 45.0093V47.8462H72.6318ZM17.7441 58.8462L20.4932 51.688H21.5137L24.4434 58.8462H23.3643L22.5293 56.6782H19.5361L18.75 58.8462H17.7441ZM19.8096 55.9067H22.2363L21.4893 53.9243C21.2614 53.3221 21.0921 52.8273 20.9814 52.4399C20.8903 52.8989 20.7617 53.3547 20.5957 53.8071L19.8096 55.9067ZM24.7363 57.2983L25.6055 57.1616C25.6543 57.5099 25.7894 57.7769 26.0107 57.9624C26.2354 58.1479 26.5479 58.2407 26.9482 58.2407C27.3519 58.2407 27.6514 58.1593 27.8467 57.9966C28.042 57.8306 28.1396 57.6369 28.1396 57.4155C28.1396 57.217 28.0534 57.0607 27.8809 56.9468C27.7604 56.8687 27.4609 56.7694 26.9824 56.6489C26.3379 56.4862 25.8903 56.3462 25.6396 56.229C25.3923 56.1086 25.2035 55.9442 25.0732 55.7358C24.9463 55.5243 24.8828 55.2915 24.8828 55.0376C24.8828 54.8065 24.9349 54.5933 25.0391 54.3979C25.1465 54.1994 25.2913 54.035 25.4736 53.9048C25.6104 53.8039 25.7959 53.7192 26.0303 53.6509C26.2679 53.5793 26.5218 53.5435 26.792 53.5435C27.1989 53.5435 27.5553 53.6021 27.8613 53.7192C28.1706 53.8364 28.3984 53.9959 28.5449 54.1978C28.6914 54.3963 28.7923 54.6632 28.8477 54.9985L27.9883 55.1157C27.9492 54.8488 27.8353 54.6405 27.6465 54.4907C27.4609 54.341 27.1973 54.2661 26.8555 54.2661C26.4518 54.2661 26.1637 54.3328 25.9912 54.4663C25.8187 54.5998 25.7324 54.756 25.7324 54.9351C25.7324 55.049 25.7682 55.1515 25.8398 55.2427C25.9115 55.3371 26.0238 55.4152 26.1768 55.4771C26.2646 55.5096 26.5234 55.5845 26.9531 55.7017C27.5749 55.8677 28.0078 56.0044 28.252 56.1118C28.4993 56.216 28.693 56.369 28.833 56.5708C28.973 56.7726 29.043 57.0233 29.043 57.3228C29.043 57.6157 28.9567 57.8924 28.7842 58.1528C28.6149 58.41 28.3691 58.6102 28.0469 58.7534C27.7246 58.8934 27.36 58.9634 26.9531 58.9634C26.2793 58.9634 25.765 58.8234 25.4102 58.5435C25.0586 58.2635 24.834 57.8485 24.7363 57.2983ZM29.7363 57.2983L30.6055 57.1616C30.6543 57.5099 30.7894 57.7769 31.0107 57.9624C31.2354 58.1479 31.5479 58.2407 31.9482 58.2407C32.3519 58.2407 32.6514 58.1593 32.8467 57.9966C33.042 57.8306 33.1396 57.6369 33.1396 57.4155C33.1396 57.217 33.0534 57.0607 32.8809 56.9468C32.7604 56.8687 32.4609 56.7694 31.9824 56.6489C31.3379 56.4862 30.8903 56.3462 30.6396 56.229C30.3923 56.1086 30.2035 55.9442 30.0732 55.7358C29.9463 55.5243 29.8828 55.2915 29.8828 55.0376C29.8828 54.8065 29.9349 54.5933 30.0391 54.3979C30.1465 54.1994 30.2913 54.035 30.4736 53.9048C30.6104 53.8039 30.7959 53.7192 31.0303 53.6509C31.2679 53.5793 31.5218 53.5435 31.792 53.5435C32.1989 53.5435 32.5553 53.6021 32.8613 53.7192C33.1706 53.8364 33.3984 53.9959 33.5449 54.1978C33.6914 54.3963 33.7923 54.6632 33.8477 54.9985L32.9883 55.1157C32.9492 54.8488 32.8353 54.6405 32.6465 54.4907C32.4609 54.341 32.1973 54.2661 31.8555 54.2661C31.4518 54.2661 31.1637 54.3328 30.9912 54.4663C30.8187 54.5998 30.7324 54.756 30.7324 54.9351C30.7324 55.049 30.7682 55.1515 30.8398 55.2427C30.9115 55.3371 31.0238 55.4152 31.1768 55.4771C31.2646 55.5096 31.5234 55.5845 31.9531 55.7017C32.5749 55.8677 33.0078 56.0044 33.252 56.1118C33.4993 56.216 33.693 56.369 33.833 56.5708C33.973 56.7726 34.043 57.0233 34.043 57.3228C34.043 57.6157 33.9567 57.8924 33.7842 58.1528C33.6149 58.41 33.3691 58.6102 33.0469 58.7534C32.7246 58.8934 32.36 58.9634 31.9531 58.9634C31.2793 58.9634 30.765 58.8234 30.4102 58.5435C30.0586 58.2635 29.834 57.8485 29.7363 57.2983ZM38.6377 57.1763L39.5459 57.2886C39.4027 57.8192 39.1374 58.231 38.75 58.5239C38.3626 58.8169 37.8678 58.9634 37.2656 58.9634C36.5072 58.9634 35.9049 58.7306 35.459 58.2651C35.0163 57.7964 34.7949 57.1405 34.7949 56.2974C34.7949 55.425 35.0195 54.7479 35.4688 54.2661C35.918 53.7843 36.5007 53.5435 37.2168 53.5435C37.9102 53.5435 38.4766 53.7795 38.916 54.2515C39.3555 54.7235 39.5752 55.3875 39.5752 56.2437C39.5752 56.2957 39.5736 56.3739 39.5703 56.478H35.7031C35.7357 57.0477 35.8968 57.4839 36.1865 57.7866C36.4762 58.0894 36.8376 58.2407 37.2705 58.2407C37.5928 58.2407 37.8678 58.1561 38.0957 57.9868C38.3236 57.8175 38.5042 57.5474 38.6377 57.1763ZM35.752 55.7554H38.6475C38.6084 55.3192 38.4977 54.992 38.3154 54.7739C38.0355 54.4354 37.6725 54.2661 37.2266 54.2661C36.8229 54.2661 36.4827 54.4012 36.2061 54.6714C35.9326 54.9416 35.7812 55.3029 35.752 55.7554ZM40.3027 57.2983L41.1719 57.1616C41.2207 57.5099 41.3558 57.7769 41.5771 57.9624C41.8018 58.1479 42.1143 58.2407 42.5146 58.2407C42.9183 58.2407 43.2178 58.1593 43.4131 57.9966C43.6084 57.8306 43.7061 57.6369 43.7061 57.4155C43.7061 57.217 43.6198 57.0607 43.4473 56.9468C43.3268 56.8687 43.0273 56.7694 42.5488 56.6489C41.9043 56.4862 41.4567 56.3462 41.2061 56.229C40.9587 56.1086 40.7699 55.9442 40.6396 55.7358C40.5127 55.5243 40.4492 55.2915 40.4492 55.0376C40.4492 54.8065 40.5013 54.5933 40.6055 54.3979C40.7129 54.1994 40.8577 54.035 41.04 53.9048C41.1768 53.8039 41.3623 53.7192 41.5967 53.6509C41.8343 53.5793 42.0882 53.5435 42.3584 53.5435C42.7653 53.5435 43.1217 53.6021 43.4277 53.7192C43.737 53.8364 43.9648 53.9959 44.1113 54.1978C44.2578 54.3963 44.3587 54.6632 44.4141 54.9985L43.5547 55.1157C43.5156 54.8488 43.4017 54.6405 43.2129 54.4907C43.0273 54.341 42.7637 54.2661 42.4219 54.2661C42.0182 54.2661 41.7301 54.3328 41.5576 54.4663C41.3851 54.5998 41.2988 54.756 41.2988 54.9351C41.2988 55.049 41.3346 55.1515 41.4062 55.2427C41.4779 55.3371 41.5902 55.4152 41.7432 55.4771C41.8311 55.5096 42.0898 55.5845 42.5195 55.7017C43.1413 55.8677 43.5742 56.0044 43.8184 56.1118C44.0658 56.216 44.2594 56.369 44.3994 56.5708C44.5394 56.7726 44.6094 57.0233 44.6094 57.3228C44.6094 57.6157 44.5231 57.8924 44.3506 58.1528C44.1813 58.41 43.9355 58.6102 43.6133 58.7534C43.291 58.8934 42.9264 58.9634 42.5195 58.9634C41.8457 58.9634 41.3314 58.8234 40.9766 58.5435C40.625 58.2635 40.4004 57.8485 40.3027 57.2983ZM45.3027 57.2983L46.1719 57.1616C46.2207 57.5099 46.3558 57.7769 46.5771 57.9624C46.8018 58.1479 47.1143 58.2407 47.5146 58.2407C47.9183 58.2407 48.2178 58.1593 48.4131 57.9966C48.6084 57.8306 48.7061 57.6369 48.7061 57.4155C48.7061 57.217 48.6198 57.0607 48.4473 56.9468C48.3268 56.8687 48.0273 56.7694 47.5488 56.6489C46.9043 56.4862 46.4567 56.3462 46.2061 56.229C45.9587 56.1086 45.7699 55.9442 45.6396 55.7358C45.5127 55.5243 45.4492 55.2915 45.4492 55.0376C45.4492 54.8065 45.5013 54.5933 45.6055 54.3979C45.7129 54.1994 45.8577 54.035 46.04 53.9048C46.1768 53.8039 46.3623 53.7192 46.5967 53.6509C46.8343 53.5793 47.0882 53.5435 47.3584 53.5435C47.7653 53.5435 48.1217 53.6021 48.4277 53.7192C48.737 53.8364 48.9648 53.9959 49.1113 54.1978C49.2578 54.3963 49.3587 54.6632 49.4141 54.9985L48.5547 55.1157C48.5156 54.8488 48.4017 54.6405 48.2129 54.4907C48.0273 54.341 47.7637 54.2661 47.4219 54.2661C47.0182 54.2661 46.7301 54.3328 46.5576 54.4663C46.3851 54.5998 46.2988 54.756 46.2988 54.9351C46.2988 55.049 46.3346 55.1515 46.4062 55.2427C46.4779 55.3371 46.5902 55.4152 46.7432 55.4771C46.8311 55.5096 47.0898 55.5845 47.5195 55.7017C48.1413 55.8677 48.5742 56.0044 48.8184 56.1118C49.0658 56.216 49.2594 56.369 49.3994 56.5708C49.5394 56.7726 49.6094 57.0233 49.6094 57.3228C49.6094 57.6157 49.5231 57.8924 49.3506 58.1528C49.1813 58.41 48.9355 58.6102 48.6133 58.7534C48.291 58.8934 47.9264 58.9634 47.5195 58.9634C46.8457 58.9634 46.3314 58.8234 45.9766 58.5435C45.625 58.2635 45.4004 57.8485 45.3027 57.2983ZM50.6543 58.8462V53.6606H51.4404V54.3882C51.6032 54.1343 51.8197 53.9308 52.0898 53.7778C52.36 53.6216 52.6676 53.5435 53.0127 53.5435C53.3968 53.5435 53.7109 53.6232 53.9551 53.7827C54.2025 53.9422 54.3766 54.1652 54.4775 54.4517C54.8877 53.8462 55.4215 53.5435 56.0791 53.5435C56.5934 53.5435 56.9889 53.6867 57.2656 53.9731C57.5423 54.2563 57.6807 54.6942 57.6807 55.2866V58.8462H56.8066V55.5796C56.8066 55.228 56.7773 54.9757 56.7188 54.8228C56.6634 54.6665 56.5609 54.5412 56.4111 54.4468C56.2614 54.3524 56.0856 54.3052 55.8838 54.3052C55.5192 54.3052 55.2165 54.4272 54.9756 54.6714C54.7347 54.9123 54.6143 55.2996 54.6143 55.8335V58.8462H53.7354V55.4771C53.7354 55.0864 53.6637 54.7935 53.5205 54.5981C53.3773 54.4028 53.1429 54.3052 52.8174 54.3052C52.57 54.3052 52.3405 54.3703 52.1289 54.5005C51.9206 54.6307 51.7692 54.8211 51.6748 55.0718C51.5804 55.3224 51.5332 55.6838 51.5332 56.1558V58.8462H50.6543ZM62.5342 57.1763L63.4424 57.2886C63.2992 57.8192 63.0339 58.231 62.6465 58.5239C62.2591 58.8169 61.7643 58.9634 61.1621 58.9634C60.4036 58.9634 59.8014 58.7306 59.3555 58.2651C58.9128 57.7964 58.6914 57.1405 58.6914 56.2974C58.6914 55.425 58.916 54.7479 59.3652 54.2661C59.8145 53.7843 60.3971 53.5435 61.1133 53.5435C61.8066 53.5435 62.373 53.7795 62.8125 54.2515C63.252 54.7235 63.4717 55.3875 63.4717 56.2437C63.4717 56.2957 63.4701 56.3739 63.4668 56.478H59.5996C59.6322 57.0477 59.7933 57.4839 60.083 57.7866C60.3727 58.0894 60.734 58.2407 61.167 58.2407C61.4893 58.2407 61.7643 58.1561 61.9922 57.9868C62.2201 57.8175 62.4007 57.5474 62.5342 57.1763ZM59.6484 55.7554H62.5439C62.5049 55.3192 62.3942 54.992 62.2119 54.7739C61.932 54.4354 61.569 54.2661 61.123 54.2661C60.7194 54.2661 60.3792 54.4012 60.1025 54.6714C59.8291 54.9416 59.6777 55.3029 59.6484 55.7554ZM64.5508 58.8462V53.6606H65.3418V54.3979C65.7227 53.8283 66.2728 53.5435 66.9922 53.5435C67.3047 53.5435 67.5911 53.6004 67.8516 53.7144C68.1152 53.825 68.3122 53.9715 68.4424 54.1538C68.5726 54.3361 68.6637 54.5526 68.7158 54.8032C68.7484 54.966 68.7646 55.2508 68.7646 55.6577V58.8462H67.8857V55.6919C67.8857 55.3338 67.8516 55.0669 67.7832 54.8911C67.7148 54.7121 67.5928 54.5705 67.417 54.4663C67.2445 54.3589 67.041 54.3052 66.8066 54.3052C66.4323 54.3052 66.1084 54.424 65.835 54.6616C65.5648 54.8993 65.4297 55.3501 65.4297 56.0142V58.8462H64.5508ZM72.0361 58.0601L72.1631 58.8364C71.9157 58.8885 71.6943 58.9146 71.499 58.9146C71.18 58.9146 70.9326 58.8641 70.7568 58.7632C70.5811 58.6623 70.4574 58.5304 70.3857 58.3677C70.3141 58.2017 70.2783 57.855 70.2783 57.3276V54.3442H69.6338V53.6606H70.2783V52.3765L71.1523 51.8491V53.6606H72.0361V54.3442H71.1523V57.3765C71.1523 57.6271 71.167 57.7882 71.1963 57.8599C71.2288 57.9315 71.2793 57.9884 71.3477 58.0308C71.4193 58.0731 71.5202 58.0942 71.6504 58.0942C71.748 58.0942 71.8766 58.0828 72.0361 58.0601Z" fill="#2A303D"/>
</svg>
