<svg width="170" height="140" viewBox="0 0 170 140" fill="none" xmlns="http://www.w3.org/2000/svg">
<rect x="0.5" y="0.5" width="169" height="139" rx="9.5" fill="white"/>
<rect x="0.5" y="0.5" width="169" height="139" rx="9.5" stroke="#C3C9D6" stroke-dasharray="4 4"/>
<mask id="path-2-inside-1_2764_4553" fill="white">
<path d="M97.4167 82.4543H73.129C72.9921 82.4543 72.8892 82.4543 72.8115 82.4454C72.7519 82.4446 72.6944 82.4235 72.6486 82.3854C72.6106 82.3396 72.5895 82.2821 72.5886 82.2226C72.5798 82.1486 72.5798 82.0427 72.5798 81.905L72.5664 41.0226C72.5601 40.6559 72.6126 40.2905 72.7219 39.9403C72.8135 39.6497 72.9723 39.3847 73.1853 39.1667C73.4026 38.9535 73.6671 38.7945 73.9574 38.7026C74.3072 38.5929 74.6724 38.5401 75.0389 38.5464H95.0101C95.2957 38.5438 95.5806 38.5776 95.8577 38.6471C96.099 38.7082 96.3288 38.8082 96.538 38.9432C96.7324 39.0694 96.9018 39.2306 97.0377 39.4184C97.1766 39.6131 97.2804 39.8305 97.3442 40.061C97.3669 40.1193 97.3845 40.1795 97.3967 40.2409C97.4093 40.3045 97.4182 40.3687 97.4234 40.4334C97.4293 40.4992 97.4315 40.5666 97.433 40.6347C97.4345 40.7028 97.433 40.7717 97.433 40.8398L97.4145 82.4543"/>
</mask>
<path d="M97.4167 82.4543H73.129C72.9921 82.4543 72.8892 82.4543 72.8115 82.4454C72.7519 82.4446 72.6944 82.4235 72.6486 82.3854C72.6106 82.3396 72.5895 82.2821 72.5886 82.2226C72.5798 82.1486 72.5798 82.0427 72.5798 81.905L72.5664 41.0226C72.5601 40.6559 72.6126 40.2905 72.7219 39.9403C72.8135 39.6497 72.9723 39.3847 73.1853 39.1667C73.4026 38.9535 73.6671 38.7945 73.9574 38.7026C74.3072 38.5929 74.6724 38.5401 75.0389 38.5464H95.0101C95.2957 38.5438 95.5806 38.5776 95.8577 38.6471C96.099 38.7082 96.3288 38.8082 96.538 38.9432C96.7324 39.0694 96.9018 39.2306 97.0377 39.4184C97.1766 39.6131 97.2804 39.8305 97.3442 40.061C97.3669 40.1193 97.3845 40.1795 97.3967 40.2409C97.4093 40.3045 97.4182 40.3687 97.4234 40.4334C97.4293 40.4992 97.4315 40.5666 97.433 40.6347C97.4345 40.7028 97.433 40.7717 97.433 40.8398L97.4145 82.4543" fill="#5F6C89"/>
<path d="M72.8115 82.4454L72.925 81.4519L72.875 81.4462L72.8247 81.4455L72.8115 82.4454ZM72.6486 82.3854L71.8782 83.023L71.938 83.0953L72.0103 83.1552L72.6486 82.3854ZM72.5886 82.2226L73.5885 82.2083L73.5878 82.1557L73.5815 82.1034L72.5886 82.2226ZM72.5798 81.905H73.5798L73.5798 81.9047L72.5798 81.905ZM72.5664 41.0226L73.5664 41.0223L73.5664 41.0138L73.5663 41.0053L72.5664 41.0226ZM72.7219 39.9403L71.7681 39.6397L71.7673 39.6423L72.7219 39.9403ZM73.1853 39.1667L72.4849 38.453L72.4775 38.4603L72.4702 38.4677L73.1853 39.1667ZM73.9574 38.7026L73.6581 37.7484L73.6556 37.7492L73.9574 38.7026ZM75.0389 38.5464L75.0218 39.5463L75.0304 39.5464H75.0389V38.5464ZM95.0101 38.5464V39.5464L95.0193 39.5464L95.0101 38.5464ZM95.8577 38.6471L96.1033 37.6777L96.1009 37.6771L95.8577 38.6471ZM96.538 38.9432L97.0826 38.1045L97.0801 38.1029L96.538 38.9432ZM97.0377 39.4184L97.8516 38.8374L97.848 38.8325L97.0377 39.4184ZM97.3442 40.061L96.3804 40.3278L96.394 40.377L96.4126 40.4246L97.3442 40.061ZM97.3967 40.2409L98.3776 40.0464L98.3775 40.0458L97.3967 40.2409ZM97.4234 40.4334L96.4265 40.5127L96.4274 40.5229L97.4234 40.4334ZM97.433 40.8398L98.433 40.8402V40.8398H97.433ZM97.4167 82.4543V81.4543H73.129V82.4543V83.4543H97.4167V82.4543ZM73.129 82.4543V81.4543C73.0574 81.4543 73.009 81.4542 72.9692 81.4534C72.9285 81.4525 72.9188 81.4512 72.925 81.4519L72.8115 82.4454L72.6979 83.4389C72.8459 83.4559 73.0169 83.4543 73.129 83.4543V82.4543ZM72.8115 82.4454L72.8247 81.4455C72.9937 81.4477 73.1568 81.5078 73.2869 81.6157L72.6486 82.3854L72.0103 83.1552C72.2321 83.3391 72.5101 83.4415 72.7982 83.4453L72.8115 82.4454ZM72.6486 82.3854L73.419 81.7479C73.5263 81.8776 73.5861 82.04 73.5885 82.2083L72.5886 82.2226L71.5887 82.2369C71.5928 82.5242 71.695 82.8016 71.8782 83.023L72.6486 82.3854ZM72.5886 82.2226L73.5815 82.1034C73.583 82.1156 73.5815 82.1094 73.5806 82.0667C73.5798 82.0264 73.5798 81.977 73.5798 81.905H72.5798H71.5798C71.5798 82.014 71.578 82.1934 71.5958 82.3417L72.5886 82.2226ZM72.5798 81.905L73.5798 81.9047L73.5664 41.0223L72.5664 41.0226L71.5664 41.0229L71.5798 81.9053L72.5798 81.905ZM72.5664 41.0226L73.5663 41.0053C73.5618 40.7454 73.599 40.4865 73.6765 40.2383L72.7219 39.9403L71.7673 39.6423C71.6262 40.0945 71.5584 40.5663 71.5666 41.0399L72.5664 41.0226ZM72.7219 39.9403L73.6756 40.241C73.7201 40.1 73.7971 39.9715 73.9004 39.8658L73.1853 39.1667L72.4702 38.4677C72.1475 38.7979 71.907 39.1993 71.7682 39.6397L72.7219 39.9403ZM73.1853 39.1667L73.8857 39.8805C73.9908 39.7774 74.1188 39.7004 74.2592 39.656L73.9574 38.7026L73.6556 37.7492C73.2155 37.8886 72.8144 38.1297 72.4849 38.453L73.1853 39.1667ZM73.9574 38.7026L74.2567 39.6567C74.5042 39.5791 74.7625 39.5418 75.0218 39.5463L75.0389 38.5464L75.0561 37.5465C74.5823 37.5384 74.1102 37.6066 73.6581 37.7484L73.9574 38.7026ZM75.0389 38.5464V39.5464H95.0101V38.5464V37.5464H75.0389V38.5464ZM95.0101 38.5464L95.0193 39.5464C95.2199 39.5445 95.4199 39.5683 95.6145 39.617L95.8577 38.6471L96.1009 37.6771C95.7413 37.5869 95.3716 37.543 95.0008 37.5464L95.0101 38.5464ZM95.8577 38.6471L95.6121 39.6164C95.7482 39.6509 95.8779 39.7074 95.9959 39.7835L96.538 38.9432L97.0801 38.1029C96.7797 37.9091 96.4498 37.7655 96.1033 37.6777L95.8577 38.6471ZM96.538 38.9432L95.9934 39.7819C96.0844 39.841 96.1637 39.9164 96.2273 40.0044L97.0377 39.4184L97.848 38.8325C97.64 38.5447 97.3805 38.2979 97.0826 38.1045L96.538 38.9432ZM97.0377 39.4184L96.2238 39.9995C96.2948 40.0989 96.3478 40.2101 96.3804 40.3278L97.3442 40.061L98.3079 39.7942C98.2129 39.451 98.0584 39.1272 97.8515 38.8374L97.0377 39.4184ZM97.3442 40.061L96.4126 40.4246C96.4141 40.4283 96.4152 40.4321 96.4159 40.436L97.3967 40.2409L98.3775 40.0458C98.3538 39.9269 98.3198 39.8103 98.2757 39.6974L97.3442 40.061ZM97.3967 40.2409L96.4158 40.4354C96.4209 40.4609 96.4245 40.4867 96.4265 40.5127L97.4234 40.4334L98.4202 40.354C98.412 40.2507 98.3978 40.148 98.3776 40.0464L97.3967 40.2409ZM97.4234 40.4334L96.4274 40.5229C96.4301 40.5534 96.4318 40.5928 96.4332 40.6564L97.433 40.6347L98.4328 40.613C98.4312 40.5404 98.4285 40.4451 98.4194 40.3438L97.4234 40.4334ZM97.433 40.6347L96.4332 40.6564C96.4344 40.7119 96.433 40.741 96.433 40.8398H97.433H98.433C98.433 40.8024 98.4345 40.6938 98.4328 40.613L97.433 40.6347ZM97.433 40.8398L96.433 40.8393L96.4145 82.4538L97.4145 82.4543L98.4145 82.4547L98.433 40.8402L97.433 40.8398Z" fill="#96A0B7" mask="url(#path-2-inside-1_2764_4553)"/>
<path d="M75.5532 44.7109H94.5042V47.3759H75.5532V44.7109Z" fill="white"/>
<path d="M75.5591 66.1675H94.5012V68.8325H75.5591V66.1675Z" fill="white"/>
<path d="M75.562 71.731H94.5012V74.3959H75.562V71.731Z" fill="white"/>
<path d="M54.455 93.5092V95.9142H57.335V96.7792H54.455V99.8242H53.385V92.6442H57.835V93.5092H54.455ZM60.8662 97.5692C60.4695 97.5826 60.1328 97.6142 59.8562 97.6642C59.5795 97.7109 59.3545 97.7742 59.1812 97.8542C59.0078 97.9342 58.8828 98.0292 58.8062 98.1392C58.7295 98.2459 58.6912 98.3659 58.6912 98.4992C58.6912 98.6259 58.7112 98.7359 58.7512 98.8292C58.7945 98.9192 58.8512 98.9942 58.9212 99.0542C58.9945 99.1109 59.0795 99.1526 59.1762 99.1792C59.2728 99.2059 59.3778 99.2192 59.4912 99.2192C59.6412 99.2192 59.7778 99.2042 59.9012 99.1742C60.0278 99.1442 60.1462 99.1026 60.2562 99.0492C60.3662 98.9926 60.4712 98.9242 60.5712 98.8442C60.6712 98.7642 60.7695 98.6726 60.8662 98.5692V97.5692ZM58.0062 95.4542C58.2895 95.1842 58.5962 94.9826 58.9262 94.8492C59.2595 94.7159 59.6245 94.6492 60.0212 94.6492C60.3112 94.6492 60.5678 94.6976 60.7912 94.7942C61.0145 94.8876 61.2028 95.0192 61.3562 95.1892C61.5095 95.3592 61.6245 95.5626 61.7012 95.7992C61.7812 96.0359 61.8212 96.2976 61.8212 96.5842V99.8242H61.3862C61.2895 99.8242 61.2162 99.8092 61.1662 99.7792C61.1162 99.7459 61.0762 99.6859 61.0462 99.5992L60.9412 99.1542C60.8112 99.2742 60.6828 99.3809 60.5562 99.4742C60.4295 99.5642 60.2962 99.6426 60.1562 99.7092C60.0195 99.7726 59.8728 99.8209 59.7162 99.8542C59.5595 99.8876 59.3862 99.9042 59.1962 99.9042C58.9962 99.9042 58.8078 99.8776 58.6312 99.8242C58.4578 99.7676 58.3062 99.6826 58.1762 99.5692C58.0462 99.4559 57.9428 99.3142 57.8662 99.1442C57.7928 98.9742 57.7562 98.7759 57.7562 98.5492C57.7562 98.3492 57.8095 98.1576 57.9162 97.9742C58.0262 97.7876 58.2028 97.6209 58.4462 97.4742C58.6928 97.3276 59.0128 97.2076 59.4062 97.1142C59.8028 97.0209 60.2895 96.9676 60.8662 96.9542V96.5842C60.8662 96.2009 60.7845 95.9142 60.6212 95.7242C60.4578 95.5342 60.2178 95.4392 59.9012 95.4392C59.6878 95.4392 59.5078 95.4659 59.3612 95.5192C59.2178 95.5726 59.0928 95.6326 58.9862 95.6992C58.8828 95.7626 58.7912 95.8209 58.7112 95.8742C58.6345 95.9276 58.5545 95.9542 58.4712 95.9542C58.4045 95.9542 58.3462 95.9359 58.2962 95.8992C58.2495 95.8626 58.2112 95.8192 58.1812 95.7692L58.0062 95.4542ZM64.1464 94.7442V99.8242H63.1714V94.7442H64.1464ZM64.3314 93.1742C64.3314 93.2642 64.3131 93.3509 64.2764 93.4342C64.2397 93.5142 64.1897 93.5859 64.1264 93.6492C64.0664 93.7092 63.9947 93.7576 63.9114 93.7942C63.8281 93.8276 63.7414 93.8442 63.6514 93.8442C63.5614 93.8442 63.4764 93.8276 63.3964 93.7942C63.3164 93.7576 63.2447 93.7092 63.1814 93.6492C63.1214 93.5859 63.0731 93.5142 63.0364 93.4342C63.0031 93.3509 62.9864 93.2642 62.9864 93.1742C62.9864 93.0809 63.0031 92.9942 63.0364 92.9142C63.0731 92.8309 63.1214 92.7592 63.1814 92.6992C63.2447 92.6359 63.3164 92.5876 63.3964 92.5542C63.4764 92.5176 63.5614 92.4992 63.6514 92.4992C63.7414 92.4992 63.8281 92.5176 63.9114 92.5542C63.9947 92.5876 64.0664 92.6359 64.1264 92.6992C64.1897 92.7592 64.2397 92.8309 64.2764 92.9142C64.3131 92.9942 64.3314 93.0809 64.3314 93.1742ZM66.558 92.4442V99.8242H65.578V92.4442H66.558ZM70.1156 94.6642C70.489 94.6642 70.8256 94.7259 71.1256 94.8492C71.429 94.9692 71.6856 95.1442 71.8956 95.3742C72.109 95.6009 72.2723 95.8759 72.3856 96.1992C72.499 96.5192 72.5556 96.8792 72.5556 97.2792C72.5556 97.6792 72.499 98.0409 72.3856 98.3642C72.2723 98.6876 72.109 98.9626 71.8956 99.1892C71.6856 99.4159 71.429 99.5909 71.1256 99.7142C70.8256 99.8342 70.489 99.8942 70.1156 99.8942C69.739 99.8942 69.399 99.8342 69.0956 99.7142C68.7956 99.5909 68.539 99.4159 68.3256 99.1892C68.1123 98.9626 67.9473 98.6876 67.8306 98.3642C67.7173 98.0409 67.6606 97.6792 67.6606 97.2792C67.6606 96.8792 67.7173 96.5192 67.8306 96.1992C67.9473 95.8759 68.1123 95.6009 68.3256 95.3742C68.539 95.1442 68.7956 94.9692 69.0956 94.8492C69.399 94.7259 69.739 94.6642 70.1156 94.6642ZM70.1156 99.1342C70.5956 99.1342 70.954 98.9726 71.1906 98.6492C71.4273 98.3259 71.5456 97.8709 71.5456 97.2842C71.5456 96.6976 71.4273 96.2426 71.1906 95.9192C70.954 95.5926 70.5956 95.4292 70.1156 95.4292C69.629 95.4292 69.2656 95.5926 69.0256 95.9192C68.789 96.2426 68.6706 96.6976 68.6706 97.2842C68.6706 97.8709 68.789 98.3259 69.0256 98.6492C69.2656 98.9726 69.629 99.1342 70.1156 99.1342ZM77.9075 94.7442L75.8475 99.8242H74.9675L72.9075 94.7442H73.7125C73.7892 94.7442 73.8525 94.7626 73.9025 94.7992C73.9525 94.8359 73.9858 94.8826 74.0025 94.9392L75.2175 98.0592C75.2608 98.1892 75.2975 98.3192 75.3275 98.4492C75.3608 98.5759 75.3908 98.7026 75.4175 98.8292C75.4442 98.7026 75.4742 98.5759 75.5075 98.4492C75.5408 98.3226 75.5808 98.1926 75.6275 98.0592L76.8575 94.9392C76.8775 94.8826 76.9125 94.8359 76.9625 94.7992C77.0125 94.7626 77.0725 94.7442 77.1425 94.7442H77.9075ZM81.9016 96.7192C81.9016 96.5259 81.8732 96.3476 81.8166 96.1842C81.7632 96.0209 81.6832 95.8792 81.5766 95.7592C81.4699 95.6392 81.3399 95.5459 81.1866 95.4792C81.0332 95.4126 80.8566 95.3792 80.6566 95.3792C80.2466 95.3792 79.9232 95.4976 79.6866 95.7342C79.4532 95.9709 79.3049 96.2992 79.2416 96.7192H81.9016ZM82.7066 99.0992C82.5866 99.2392 82.4482 99.3609 82.2916 99.4642C82.1349 99.5642 81.9682 99.6459 81.7916 99.7092C81.6149 99.7726 81.4316 99.8192 81.2416 99.8492C81.0549 99.8792 80.8699 99.8942 80.6866 99.8942C80.3366 99.8942 80.0116 99.8359 79.7116 99.7192C79.4149 99.5992 79.1566 99.4259 78.9366 99.1992C78.7199 98.9692 78.5499 98.6859 78.4266 98.3492C78.3066 98.0092 78.2466 97.6192 78.2466 97.1792C78.2466 96.8259 78.3016 96.4976 78.4116 96.1942C78.5216 95.8876 78.6782 95.6209 78.8816 95.3942C79.0882 95.1676 79.3399 94.9892 79.6366 94.8592C79.9332 94.7292 80.2666 94.6642 80.6366 94.6642C80.9466 94.6642 81.2316 94.7159 81.4916 94.8192C81.7549 94.9192 81.9816 95.0659 82.1716 95.2592C82.3616 95.4526 82.5099 95.6909 82.6166 95.9742C82.7266 96.2576 82.7816 96.5809 82.7816 96.9442C82.7816 97.0942 82.7649 97.1959 82.7316 97.2492C82.6982 97.2992 82.6366 97.3242 82.5466 97.3242H79.2166C79.2266 97.6276 79.2699 97.8926 79.3466 98.1192C79.4232 98.3426 79.5282 98.5292 79.6616 98.6792C79.7982 98.8292 79.9599 98.9409 80.1466 99.0142C80.3332 99.0876 80.5416 99.1242 80.7716 99.1242C80.9882 99.1242 81.1749 99.0992 81.3316 99.0492C81.4916 98.9992 81.6282 98.9459 81.7416 98.8892C81.8582 98.8292 81.9549 98.7742 82.0316 98.7242C82.1116 98.6742 82.1816 98.6492 82.2416 98.6492C82.3216 98.6492 82.3832 98.6792 82.4266 98.7392L82.7066 99.0992ZM84.7495 95.7192C84.9129 95.3859 85.1095 95.1242 85.3395 94.9342C85.5695 94.7442 85.8462 94.6492 86.1695 94.6492C86.2795 94.6492 86.3829 94.6626 86.4795 94.6892C86.5795 94.7126 86.6662 94.7492 86.7395 94.7992L86.6745 95.5342C86.6512 95.6242 86.5962 95.6692 86.5095 95.6692C86.4629 95.6692 86.3929 95.6609 86.2995 95.6442C86.2062 95.6242 86.1062 95.6142 85.9995 95.6142C85.8429 95.6142 85.7045 95.6376 85.5845 95.6842C85.4645 95.7276 85.3562 95.7942 85.2595 95.8842C85.1662 95.9709 85.0829 96.0792 85.0095 96.2092C84.9362 96.3359 84.8679 96.4809 84.8045 96.6442V99.8242H83.8295V94.7442H84.3895C84.4962 94.7442 84.5679 94.7642 84.6045 94.8042C84.6445 94.8409 84.6729 94.9076 84.6895 95.0042L84.7495 95.7192ZM93.7211 93.8142C93.6878 93.8709 93.6528 93.9126 93.6161 93.9392C93.5794 93.9659 93.5328 93.9792 93.4761 93.9792C93.4161 93.9792 93.3478 93.9526 93.2711 93.8992C93.1944 93.8426 93.0978 93.7809 92.9811 93.7142C92.8678 93.6442 92.7311 93.5826 92.5711 93.5292C92.4111 93.4726 92.2194 93.4442 91.9961 93.4442C91.7861 93.4442 91.6011 93.4726 91.4411 93.5292C91.2844 93.5826 91.1528 93.6576 91.0461 93.7542C90.9394 93.8476 90.8578 93.9592 90.8011 94.0892C90.7478 94.2159 90.7211 94.3542 90.7211 94.5042C90.7211 94.6976 90.7694 94.8576 90.8661 94.9842C90.9661 95.1109 91.0961 95.2192 91.2561 95.3092C91.4161 95.3992 91.5978 95.4776 91.8011 95.5442C92.0044 95.6109 92.2128 95.6809 92.4261 95.7542C92.6394 95.8242 92.8478 95.9059 93.0511 95.9992C93.2544 96.0926 93.4361 96.2109 93.5961 96.3542C93.7561 96.4942 93.8844 96.6676 93.9811 96.8742C94.0811 97.0776 94.1311 97.3276 94.1311 97.6242C94.1311 97.9409 94.0761 98.2376 93.9661 98.5142C93.8594 98.7909 93.7028 99.0326 93.4961 99.2392C93.2894 99.4459 93.0344 99.6092 92.7311 99.7292C92.4311 99.8459 92.0894 99.9042 91.7061 99.9042C91.4761 99.9042 91.2528 99.8809 91.0361 99.8342C90.8194 99.7909 90.6144 99.7292 90.4211 99.6492C90.2278 99.5659 90.0461 99.4676 89.8761 99.3542C89.7094 99.2376 89.5594 99.1076 89.4261 98.9642L89.7311 98.4542C89.7611 98.4142 89.7961 98.3809 89.8361 98.3542C89.8794 98.3276 89.9278 98.3142 89.9811 98.3142C90.0511 98.3142 90.1311 98.3509 90.2211 98.4242C90.3144 98.4976 90.4278 98.5792 90.5611 98.6692C90.6978 98.7559 90.8594 98.8359 91.0461 98.9092C91.2361 98.9826 91.4661 99.0192 91.7361 99.0192C91.9561 99.0192 92.1528 98.9909 92.3261 98.9342C92.4994 98.8742 92.6444 98.7909 92.7611 98.6842C92.8811 98.5742 92.9728 98.4426 93.0361 98.2892C93.0994 98.1359 93.1311 97.9659 93.1311 97.7792C93.1311 97.5692 93.0828 97.3976 92.9861 97.2642C92.8894 97.1309 92.7611 97.0192 92.6011 96.9292C92.4411 96.8392 92.2594 96.7626 92.0561 96.6992C91.8528 96.6359 91.6444 96.5709 91.4311 96.5042C91.2178 96.4342 91.0094 96.3542 90.8061 96.2642C90.6028 96.1742 90.4211 96.0576 90.2611 95.9142C90.1011 95.7676 89.9728 95.5859 89.8761 95.3692C89.7794 95.1492 89.7311 94.8792 89.7311 94.5592C89.7311 94.3026 89.7811 94.0542 89.8811 93.8142C89.9811 93.5742 90.1261 93.3626 90.3161 93.1792C90.5094 92.9926 90.7461 92.8442 91.0261 92.7342C91.3061 92.6209 91.6261 92.5642 91.9861 92.5642C92.3894 92.5642 92.7594 92.6292 93.0961 92.7592C93.4361 92.8859 93.7311 93.0692 93.9811 93.3092L93.7211 93.8142ZM98.5813 96.7192C98.5813 96.5259 98.5529 96.3476 98.4963 96.1842C98.4429 96.0209 98.3629 95.8792 98.2563 95.7592C98.1496 95.6392 98.0196 95.5459 97.8663 95.4792C97.7129 95.4126 97.5363 95.3792 97.3363 95.3792C96.9263 95.3792 96.6029 95.4976 96.3663 95.7342C96.1329 95.9709 95.9846 96.2992 95.9213 96.7192H98.5813ZM99.3863 99.0992C99.2663 99.2392 99.1279 99.3609 98.9713 99.4642C98.8146 99.5642 98.6479 99.6459 98.4713 99.7092C98.2946 99.7726 98.1113 99.8192 97.9213 99.8492C97.7346 99.8792 97.5496 99.8942 97.3663 99.8942C97.0163 99.8942 96.6913 99.8359 96.3913 99.7192C96.0946 99.5992 95.8363 99.4259 95.6163 99.1992C95.3996 98.9692 95.2296 98.6859 95.1063 98.3492C94.9863 98.0092 94.9263 97.6192 94.9263 97.1792C94.9263 96.8259 94.9813 96.4976 95.0913 96.1942C95.2013 95.8876 95.3579 95.6209 95.5613 95.3942C95.7679 95.1676 96.0196 94.9892 96.3163 94.8592C96.6129 94.7292 96.9463 94.6642 97.3163 94.6642C97.6263 94.6642 97.9113 94.7159 98.1713 94.8192C98.4346 94.9192 98.6613 95.0659 98.8513 95.2592C99.0413 95.4526 99.1896 95.6909 99.2963 95.9742C99.4063 96.2576 99.4613 96.5809 99.4613 96.9442C99.4613 97.0942 99.4446 97.1959 99.4113 97.2492C99.3779 97.2992 99.3163 97.3242 99.2263 97.3242H95.8963C95.9063 97.6276 95.9496 97.8926 96.0263 98.1192C96.1029 98.3426 96.2079 98.5292 96.3413 98.6792C96.4779 98.8292 96.6396 98.9409 96.8263 99.0142C97.0129 99.0876 97.2213 99.1242 97.4513 99.1242C97.6679 99.1242 97.8546 99.0992 98.0113 99.0492C98.1713 98.9992 98.3079 98.9459 98.4213 98.8892C98.5379 98.8292 98.6346 98.7742 98.7113 98.7242C98.7913 98.6742 98.8613 98.6492 98.9213 98.6492C99.0013 98.6492 99.0629 98.6792 99.1063 98.7392L99.3863 99.0992ZM101.429 95.7192C101.593 95.3859 101.789 95.1242 102.019 94.9342C102.249 94.7442 102.526 94.6492 102.849 94.6492C102.959 94.6492 103.063 94.6626 103.159 94.6892C103.259 94.7126 103.346 94.7492 103.419 94.7992L103.354 95.5342C103.331 95.6242 103.276 95.6692 103.189 95.6692C103.143 95.6692 103.073 95.6609 102.979 95.6442C102.886 95.6242 102.786 95.6142 102.679 95.6142C102.523 95.6142 102.384 95.6376 102.264 95.6842C102.144 95.7276 102.036 95.7942 101.939 95.8842C101.846 95.9709 101.763 96.0792 101.689 96.2092C101.616 96.3359 101.548 96.4809 101.484 96.6442V99.8242H100.509V94.7442H101.069C101.176 94.7442 101.248 94.7642 101.284 94.8042C101.324 94.8409 101.353 94.9076 101.369 95.0042L101.429 95.7192ZM108.581 94.7442L106.521 99.8242H105.641L103.581 94.7442H104.386C104.463 94.7442 104.526 94.7626 104.576 94.7992C104.626 94.8359 104.66 94.8826 104.676 94.9392L105.891 98.0592C105.935 98.1892 105.971 98.3192 106.001 98.4492C106.035 98.5759 106.065 98.7026 106.091 98.8292C106.118 98.7026 106.148 98.5759 106.181 98.4492C106.215 98.3226 106.255 98.1926 106.301 98.0592L107.531 94.9392C107.551 94.8826 107.586 94.8359 107.636 94.7992C107.686 94.7626 107.746 94.7442 107.816 94.7442H108.581ZM112.575 96.7192C112.575 96.5259 112.547 96.3476 112.49 96.1842C112.437 96.0209 112.357 95.8792 112.25 95.7592C112.144 95.6392 112.014 95.5459 111.86 95.4792C111.707 95.4126 111.53 95.3792 111.33 95.3792C110.92 95.3792 110.597 95.4976 110.36 95.7342C110.127 95.9709 109.979 96.2992 109.915 96.7192H112.575ZM113.38 99.0992C113.26 99.2392 113.122 99.3609 112.965 99.4642C112.809 99.5642 112.642 99.6459 112.465 99.7092C112.289 99.7726 112.105 99.8192 111.915 99.8492C111.729 99.8792 111.544 99.8942 111.36 99.8942C111.01 99.8942 110.685 99.8359 110.385 99.7192C110.089 99.5992 109.83 99.4259 109.61 99.1992C109.394 98.9692 109.224 98.6859 109.1 98.3492C108.98 98.0092 108.92 97.6192 108.92 97.1792C108.92 96.8259 108.975 96.4976 109.085 96.1942C109.195 95.8876 109.352 95.6209 109.555 95.3942C109.762 95.1676 110.014 94.9892 110.31 94.8592C110.607 94.7292 110.94 94.6642 111.31 94.6642C111.62 94.6642 111.905 94.7159 112.165 94.8192C112.429 94.9192 112.655 95.0659 112.845 95.2592C113.035 95.4526 113.184 95.6909 113.29 95.9742C113.4 96.2576 113.455 96.5809 113.455 96.9442C113.455 97.0942 113.439 97.1959 113.405 97.2492C113.372 97.2992 113.31 97.3242 113.22 97.3242H109.89C109.9 97.6276 109.944 97.8926 110.02 98.1192C110.097 98.3426 110.202 98.5292 110.335 98.6792C110.472 98.8292 110.634 98.9409 110.82 99.0142C111.007 99.0876 111.215 99.1242 111.445 99.1242C111.662 99.1242 111.849 99.0992 112.005 99.0492C112.165 98.9992 112.302 98.9459 112.415 98.8892C112.532 98.8292 112.629 98.7742 112.705 98.7242C112.785 98.6742 112.855 98.6492 112.915 98.6492C112.995 98.6492 113.057 98.6792 113.1 98.7392L113.38 99.0992ZM115.423 95.7192C115.587 95.3859 115.783 95.1242 116.013 94.9342C116.243 94.7442 116.52 94.6492 116.843 94.6492C116.953 94.6492 117.057 94.6626 117.153 94.6892C117.253 94.7126 117.34 94.7492 117.413 94.7992L117.348 95.5342C117.325 95.6242 117.27 95.6692 117.183 95.6692C117.137 95.6692 117.067 95.6609 116.973 95.6442C116.88 95.6242 116.78 95.6142 116.673 95.6142C116.517 95.6142 116.378 95.6376 116.258 95.6842C116.138 95.7276 116.03 95.7942 115.933 95.8842C115.84 95.9709 115.757 96.0792 115.683 96.2092C115.61 96.3359 115.542 96.4809 115.478 96.6442V99.8242H114.503V94.7442H115.063C115.17 94.7442 115.242 94.7642 115.278 94.8042C115.318 94.8409 115.347 94.9076 115.363 95.0042L115.423 95.7192Z" fill="#2A303D"/>
</svg>
