<svg width="145" height="60" viewBox="0 0 145 60" fill="none" xmlns="http://www.w3.org/2000/svg">
<rect x="0.5" y="0.5" width="144" height="59" rx="9.5" fill="white"/>
<rect x="0.5" y="0.5" width="144" height="59" rx="9.5" stroke="#C3C9D6" stroke-dasharray="5 5"/>
<path d="M60.8946 34.8751V30.9189H56.1214V34.8751H54.2583V25.0996H56.1214V29.2089H60.8943V25.0996H62.7321V34.8751H60.8946Z" fill="#006AFF"/>
<path d="M72.023 33.012H66.9184L66.1016 34.8498H64.1108L68.4755 25.0996H70.4917L74.8564 34.8498H72.8402L72.023 33.012ZM69.4707 27.1416L67.6586 31.302H71.2828L69.4707 27.1416Z" fill="#4276E0"/>
<path d="M80.9051 31.991H78.1483V34.8497H76.3105V25.102H80.9027C85.6756 25.0764 85.6756 31.9934 80.9027 31.9934L80.9051 31.991ZM78.1483 30.3064H80.9048C83.2785 30.3064 83.2529 26.8352 80.9048 26.8352H78.1483V30.3064ZM94.6114 34.8497H92.4166L89.5835 31.5828H87.8245V34.8497H85.9868V25.0742H90.6067C92.9038 25.0998 94.129 26.6056 94.129 28.3158C94.129 30.026 93.5168 30.9958 91.6532 31.3787L94.614 34.6969L94.6114 34.8497ZM87.8245 26.8076V29.9471H90.6323C91.7807 29.9471 92.2913 29.1559 92.2913 28.3646C92.2913 27.5732 91.7809 26.8076 90.6323 26.8076H87.8245ZM105.178 30.0258C105.153 32.5526 103.596 35.0771 100.176 35.0771C96.7557 35.0771 95.1476 32.6013 95.1476 30.049C95.1476 27.4967 96.8067 24.9189 100.176 24.9189C103.545 24.9189 105.204 27.4713 105.178 30.0236V30.0258ZM96.9851 30.0768C97.0107 31.6847 97.8784 33.3949 100.178 33.3949C102.477 33.3949 103.343 31.6593 103.37 30.0492C103.398 28.4391 102.477 26.578 100.178 26.578C97.8784 26.578 96.9361 28.4411 96.9851 30.0768ZM112.07 25.0998H114.086V25.1763L110.768 29.9215L114.162 34.7966V34.8475H112.12L109.619 31.1957L107.117 34.8475H105.075V34.7966L108.47 29.9215L105.177 25.1763V25.0998H107.193L109.621 28.7241L112.07 25.0998ZM119.701 29.1325L122.282 25.0998H124.502V25.1763L120.622 30.817V34.8497H118.785V30.817L115.032 25.1763V25.0998H117.227L119.701 29.1325Z" fill="#2A303D"/>
<path d="M34.3541 26.115L31.2446 22.5996" stroke="#55607A" stroke-width="0.121582" stroke-miterlimit="10"/>
<path d="M24.5518 23.4106L26.9856 26.9597" stroke="#55607A" stroke-width="0.0607908" stroke-miterlimit="10"/>
<path d="M34.3542 26.115L37.43 22.5659M34.3542 26.115L26.9854 26.9599L30.5007 30.0358M34.3542 26.115L41.723 26.9599L38.0725 30.0358L41.723 33.2472M37.4639 37.3038L34.3544 33.856M31.2444 37.3033L34.3539 33.8555M26.9854 33.112L30.5007 30.0362" stroke="#55607A" stroke-width="0.121582" stroke-miterlimit="10"/>
<path d="M37.4302 22.5659L38.0724 30.0358L37.4641 37.3031" stroke="#55607A" stroke-width="0.121582" stroke-miterlimit="10"/>
<path d="M41.723 33.247L34.3542 33.8553L26.9854 33.1118" stroke="#55607A" stroke-width="0.121582" stroke-miterlimit="10"/>
<path d="M31.2445 37.3033L30.501 30.036L31.2445 22.5996" stroke="#55607A" stroke-width="0.121582" stroke-miterlimit="10"/>
<path d="M23.605 27.9063L26.9852 26.9599M27.6952 20.0645L31.2443 22.5996L32.0534 18.4761L37.4279 22.5661" stroke="#55607A" stroke-width="0.0607908" stroke-miterlimit="10"/>
<path d="M36.6187 18.4761L37.4277 22.5661M40.979 20.0645L37.4299 22.5661L44.1563 23.4108L41.7225 26.9599L45.1703 27.9063" stroke="#55607A" stroke-width="0.0607908" stroke-miterlimit="10"/>
<path d="M41.7227 26.9599L45.1029 32.0978M36.6187 18.4761L31.2441 22.5996" stroke="#55607A" stroke-width="0.0607908" stroke-miterlimit="10"/>
<path d="M41.723 26.9598L40.9795 20.0645M41.723 33.2469L45.1032 32.0975" stroke="#55607A" stroke-width="0.0607908" stroke-miterlimit="10"/>
<path d="M40.9795 39.872L41.7229 33.2469L45.1705 27.9062M41.7229 33.2469L44.1568 36.5256M37.4639 37.3032L40.9792 39.8722" stroke="#55607A" stroke-width="0.0607908" stroke-miterlimit="10"/>
<path d="M32.0557 41.4585L37.4639 37.3033L44.1565 36.5259M37.4639 37.3033L36.6548 41.4609M31.2466 37.3033L32.0557 41.4609" stroke="#55607A" stroke-width="0.0607908" stroke-miterlimit="10"/>
<path d="M24.5518 36.5598L31.2444 37.3033L36.6526 41.4585M31.2444 37.3033L27.6954 39.8723M26.9856 33.1118L24.5518 36.5596" stroke="#55607A" stroke-width="0.0607908" stroke-miterlimit="10"/>
<path d="M27.695 39.8719L26.9852 33.1116L23.5713 32.0638L26.9852 26.96" stroke="#55607A" stroke-width="0.0607908" stroke-miterlimit="10"/>
<path d="M26.9852 33.112L23.605 27.9065M27.6952 20.0649L26.9856 26.9601" stroke="#55607A" stroke-width="0.0607908" stroke-miterlimit="10"/>
<path d="M24.5518 23.4106L31.2444 22.6016" stroke="#55607A" stroke-width="0.0607908" stroke-miterlimit="10"/>
<path d="M25.0923 18.8476L27.6951 20.0643L27.4924 17.2251M32.0555 18.4759L27.4922 17.2251" stroke="#2A303D" stroke-width="0.0472332" stroke-miterlimit="10"/>
<path d="M32.8647 15.6025L32.0556 18.4759L30.0952 16.0757L27.6953 20.0643M36.6189 18.4759L32.8669 15.6025" stroke="#2A303D" stroke-width="0.0472332" stroke-miterlimit="10"/>
<path d="M35.7742 15.5015L36.6189 18.4761L38.5793 16.0761L40.9792 20.0647M32.0557 18.4761L35.7737 15.5015" stroke="#2A303D" stroke-width="0.0472332" stroke-miterlimit="10"/>
<path d="M45.6098 20.772L40.979 20.0643L41.2156 17.2251L36.6187 18.4759M40.979 20.0643L43.6468 18.7123" stroke="#2A303D" stroke-width="0.0472332" stroke-miterlimit="10"/>
<path d="M44.1562 23.4108L45.6098 20.7721M48.3139 25.7768L44.1562 23.4108L43.6489 18.7124M44.1562 23.4108L47.1984 23.1742" stroke="#2A303D" stroke-width="0.0472332" stroke-miterlimit="10"/>
<path d="M48.6857 28.6162L45.1703 27.9064L47.1985 23.1743M45.1703 27.9064L48.314 25.7769M45.1025 32.0979L48.6855 28.6166" stroke="#2A303D" stroke-width="0.0472332" stroke-miterlimit="10"/>
<path d="M45.1702 27.9062L48.7871 31.4216L45.1024 32.0978L48.2461 34.1935M44.1562 36.5256L48.2463 34.1933" stroke="#2A303D" stroke-width="0.0472332" stroke-miterlimit="10"/>
<path d="M43.6157 41.1898L44.1565 36.5255L47.1648 36.8317L45.1027 32.0996M44.1565 36.5255L45.5761 39.1933" stroke="#2A303D" stroke-width="0.0472332" stroke-miterlimit="10"/>
<path d="M43.6156 41.1903L40.979 39.8722M40.979 39.8722L41.1817 42.8126M38.5791 43.9283L40.979 39.8722L45.5759 39.1958" stroke="#2A303D" stroke-width="0.0472332" stroke-miterlimit="10"/>
<path d="M36.6526 41.4585L38.5769 43.926M32.8667 44.5007L36.6526 41.4585L41.1819 42.8105M36.6526 41.4585L35.7735 44.5007" stroke="#2A303D" stroke-width="0.0472332" stroke-miterlimit="10"/>
<path d="M32.0554 41.4583L32.8645 44.5004M30.1311 43.9258L32.0554 41.4583L35.7735 44.5004M27.6973 39.8716L30.1311 43.9279" stroke="#2A303D" stroke-width="0.0472332" stroke-miterlimit="10"/>
<path d="M32.0555 41.4585L27.4586 42.8781M27.4586 42.8803L27.6952 39.872L25.0586 41.3255M24.5518 36.5596L25.0591 41.3255" stroke="#2A303D" stroke-width="0.0472332" stroke-miterlimit="10"/>
<path d="M27.6953 39.8722L23.0645 39.23M20.3606 34.2298L24.5519 36.5622L23.065 39.23M24.5519 36.5622L21.5098 36.8683M20.3602 34.2274L23.5714 32.0641L19.9209 31.4219" stroke="#2A303D" stroke-width="0.0472332" stroke-miterlimit="10"/>
<path d="M23.5714 32.0639L21.5093 36.8637M23.605 27.9062L19.9204 31.4214" stroke="#2A303D" stroke-width="0.0472332" stroke-miterlimit="10"/>
<path d="M23.5714 32.0641L19.9209 28.6161M23.6051 27.9063L20.4615 25.8105" stroke="#2A303D" stroke-width="0.0472332" stroke-miterlimit="10"/>
<path d="M19.9204 28.6162L23.605 27.9064L21.5093 23.1743" stroke="#2A303D" stroke-width="0.0472332" stroke-miterlimit="10"/>
<path d="M24.552 23.4107L21.5098 23.1741M25.0925 18.8477L24.552 23.4107L20.4619 25.8106M24.552 23.4107L23.0984 20.9091" stroke="#2A303D" stroke-width="0.0472332" stroke-miterlimit="10"/>
<path d="M27.6951 20.0645L23.0981 20.9094" stroke="#2A303D" stroke-width="0.0472332" stroke-miterlimit="10"/>
<path d="M28.6909 31.7934L28.7156 28.2443L32.2712 28.2692L32.2465 31.8183L28.6909 31.7934ZM32.5378 27.8791L32.5625 24.3301L36.1181 24.355L36.0934 27.9041L32.5378 27.8791ZM32.5374 35.6737L32.5621 32.1246L36.1177 32.1496L36.093 35.6986L32.5374 35.6737ZM36.4179 31.7595L36.4426 28.2104L39.9982 28.2353L39.9735 31.7844L36.4179 31.7595Z" fill="#4276E0"/>
<path d="M36.2136 23.8019L36.2311 21.3344L38.7086 21.3519L38.6868 23.8194L36.2136 23.8019ZM30.0186 23.8015L30.0361 21.334L32.5137 21.3515L32.4962 23.819L30.0186 23.8015ZM25.7294 28.1924L25.7468 25.7249L28.2244 25.7424L28.2069 28.2099L25.7294 28.1924ZM25.7261 34.4001L25.7519 31.9328L28.2294 31.959L28.2036 34.4257L25.7261 34.4001ZM40.5039 34.352L40.5214 31.8845L42.999 31.902L42.9815 34.3695L40.5039 34.352ZM40.5536 28.2182L40.5794 25.7509L43.0569 25.7772L43.0311 28.2445L40.5536 28.2182Z" fill="#1E52BB"/>
<path d="M23.7208 24.2158L23.7321 22.5933L25.3512 22.6046L25.3398 24.2272L23.7208 24.2158ZM26.8871 20.9143L26.8985 19.2918L28.5175 19.3031L28.5062 20.9257L26.8871 20.9143ZM31.2437 19.2808L31.2551 17.6583L32.8741 17.6697L32.8628 19.2922L31.2437 19.2808ZM22.7695 28.7091L22.7809 27.0865L24.3899 27.0975L24.3785 28.72L22.7695 28.7091ZM43.3378 22.616L44.9604 22.6046L44.9717 24.2237L43.3492 24.2351L43.3378 22.616ZM40.1714 19.2581L41.794 19.2467L41.8054 20.8658L40.1828 20.8771L40.1714 19.2581ZM35.7998 17.6662L37.4223 17.6548L37.4337 19.2738L35.8111 19.2852L35.7998 17.6662ZM44.2842 27.1049L45.9068 27.0935L45.9181 28.7126L44.2956 28.724L44.2842 27.1049Z" fill="#006AFF"/>
<path d="M29.9858 38.6086L30.0033 36.1411L32.4809 36.1586L32.4634 38.6261L29.9858 38.6086ZM36.1813 38.6086L36.1987 36.1411L38.6763 36.1586L38.6588 38.6261L36.1813 38.6086Z" fill="#1E52BB"/>
<path d="M43.3276 37.3559L43.3389 35.7333L44.958 35.7447L44.9466 37.3672L43.3276 37.3559ZM40.1979 40.6935L40.2093 39.0709L41.8284 39.0823L41.817 40.7048L40.1979 40.6935ZM35.8383 42.2911L35.8496 40.6685L37.4687 40.6799L37.4573 42.3025L35.8383 42.2911ZM44.2805 32.8624L44.2919 31.2398L45.911 31.2512L45.8996 32.8738L44.2805 32.8624ZM23.7241 35.7325L25.3466 35.7211L25.358 37.3401L23.7354 37.3515L23.7241 35.7325ZM26.8909 39.0567L28.5134 39.0453L28.5248 40.6644L26.9022 40.6758L26.8909 39.0567ZM31.2284 40.6486L32.851 40.6373L32.8624 42.2563L31.2398 42.2677L31.2284 40.6486ZM22.7803 31.2457L24.4028 31.2344L24.4142 32.8534L22.7916 32.8648L22.7803 31.2457Z" fill="#006AFF"/>
<path d="M46.7319 23.609L46.7381 22.73L47.6337 22.7365L47.6276 23.6156L46.7319 23.609Z" fill="#2C66DD"/>
<path d="M47.8887 26.2638L47.8948 25.3848L48.7905 25.3913L48.7844 26.2704L47.8887 26.2638Z" fill="#2C66DD"/>
<path d="M45.166 21.2599L45.1721 20.3809L46.0678 20.3874L46.0617 21.2665L45.166 21.2599Z" fill="#2C66DD"/>
<path d="M24.6406 19.2516L24.6467 18.3726L25.5424 18.3791L25.5363 19.2582L24.6406 19.2516Z" fill="#2C66DD"/>
<path d="M19.5005 29.0544L19.5066 28.1753L20.4023 28.1819L20.3962 29.0609L19.5005 29.0544Z" fill="#2C66DD"/>
<path d="M43.1919 19.2516L43.198 18.3726L44.0937 18.3791L44.0876 19.2582L43.1919 19.2516Z" fill="#2C66DD"/>
<path d="M20.0112 26.2629L20.0174 25.3838L20.913 25.3903L20.9069 26.2694L20.0112 26.2629Z" fill="#2C66DD"/>
<path d="M29.6772 16.5285L29.6834 15.6494L30.579 15.656L30.5729 16.535L29.6772 16.5285Z" fill="#2C66DD"/>
<path d="M21.1001 23.6086L21.1062 22.7295L22.0019 22.7361L21.9958 23.6151L21.1001 23.6086Z" fill="#2C66DD"/>
<path d="M22.6997 21.2257L22.7058 20.3467L23.6015 20.3532L23.5954 21.2323L22.6997 21.2257Z" fill="#2C66DD"/>
<path d="M27.0396 16.781L27.9186 16.7749L27.9252 17.6706L27.0461 17.6767L27.0396 16.781ZM32.4692 15.0535L33.3482 15.0474L33.3548 15.943L32.4757 15.9492L32.4692 15.0535Z" fill="#2C66DD"/>
<path d="M40.8086 17.6857L40.8147 16.8066L41.7104 16.8132L41.7043 17.6923L40.8086 17.6857Z" fill="#2C66DD"/>
<path d="M48.3315 29.0212L48.3377 28.1421L49.2333 28.1486L49.2272 29.0277L48.3315 29.0212Z" fill="#2C66DD"/>
<path d="M35.3286 15.9162L35.3347 15.0371L36.2304 15.0437L36.2243 15.9227L35.3286 15.9162Z" fill="#2C66DD"/>
<path d="M38.1196 16.4948L38.1258 15.6157L39.0214 15.6223L39.0153 16.5013L38.1196 16.4948Z" fill="#2C66DD"/>
<path d="M43.1909 41.6491L43.197 40.77L44.0927 40.7766L44.0866 41.6556L43.1909 41.6491Z" fill="#2C66DD"/>
<path d="M48.3315 31.8463L48.3377 30.9673L49.2333 30.9738L49.2272 31.8529L48.3315 31.8463Z" fill="#2C66DD"/>
<path d="M24.6396 41.6486L24.6458 40.7695L25.5415 40.7761L25.5353 41.6552L24.6396 41.6486Z" fill="#2C66DD"/>
<path d="M47.8887 34.6715L47.8948 33.7925L48.7905 33.799L48.7844 34.6781L47.8887 34.6715Z" fill="#2C66DD"/>
<path d="M38.1191 44.4064L38.1253 43.5273L39.0209 43.5339L39.0148 44.413L38.1191 44.4064Z" fill="#2C66DD"/>
<path d="M46.731 37.3263L46.7371 36.4473L47.6328 36.4538L47.6266 37.3329L46.731 37.3263Z" fill="#2C66DD"/>
<path d="M45.1655 39.7091L45.1717 38.8301L46.0673 38.8366L46.0612 39.7157L45.1655 39.7091Z" fill="#2C66DD"/>
<path d="M40.7721 42.407L41.6512 42.4009L41.6578 43.2966L40.7787 43.3027L40.7721 42.407ZM35.376 44.0672L36.255 44.061L36.2616 44.9567L35.3825 44.9628L35.376 44.0672Z" fill="#2C66DD"/>
<path d="M27.0566 43.317L27.0628 42.438L27.9584 42.4445L27.9523 43.3236L27.0566 43.317Z" fill="#2C66DD"/>
<path d="M21.0664 37.2917L21.0725 36.4126L21.9682 36.4192L21.9621 37.2982L21.0664 37.2917Z" fill="#2C66DD"/>
<path d="M20.0107 34.6711L20.0169 33.792L20.9125 33.7986L20.9064 34.6776L20.0107 34.6711Z" fill="#2C66DD"/>
<path d="M22.6655 39.7087L22.6717 38.8296L23.5673 38.8361L23.5612 39.7152L22.6655 39.7087Z" fill="#2C66DD"/>
<path d="M19.5005 31.8459L19.5066 30.9668L20.4023 30.9734L20.3962 31.8524L19.5005 31.8459Z" fill="#2C66DD"/>
<path d="M32.5029 44.9508L32.5091 44.0718L33.4047 44.0783L33.3986 44.9574L32.5029 44.9508Z" fill="#2C66DD"/>
<path d="M29.6436 44.3722L29.6497 43.4932L30.5454 43.4997L30.5392 44.3788L29.6436 44.3722Z" fill="#2C66DD"/>
</svg>
