<svg width="40" height="40" viewBox="0 0 40 40" fill="none" xmlns="http://www.w3.org/2000/svg">
<path d="M5.30113 7.18311H35.0491C35.3969 7.18311 35.7305 7.32127 35.9764 7.5672C36.2223 7.81313 36.3605 8.14669 36.3605 8.49449V25.3873C36.3605 25.7351 36.2223 26.0686 35.9764 26.3146C35.7305 26.5605 35.3969 26.6987 35.0491 26.6987H5.30113C4.95333 26.6987 4.61977 26.5605 4.37384 26.3146C4.12791 26.0686 3.98975 25.7351 3.98975 25.3873V8.49449C3.98975 8.14669 4.12791 7.81313 4.37384 7.5672C4.61977 7.32127 4.95333 7.18311 5.30113 7.18311Z" fill="#D5E0F8" stroke="#6B94E7" stroke-width="0.684279"/>
<path d="M37.1431 29.5374H2.86136C1.67456 29.5374 0.712154 28.3717 0.711426 26.9292V26.6997H39.2886V26.9292C39.2872 28.3674 38.3284 29.5337 37.1431 29.5374Z" fill="white" stroke="#6B94E7" stroke-width="0.684279" stroke-miterlimit="10"/>
<mask id="path-3-inside-1_2775_1849" fill="white">
<path d="M22.9596 28.4035H17.3316C17.1795 28.403 17.0334 28.3441 16.9237 28.2388C16.8139 28.1335 16.7489 27.99 16.7422 27.8381V27.8301H23.5504V27.8359C23.5441 27.9884 23.479 28.1326 23.369 28.2383C23.2589 28.344 23.1122 28.4032 22.9596 28.4035Z"/>
</mask>
<path d="M22.9596 28.4035H17.3316C17.1795 28.403 17.0334 28.3441 16.9237 28.2388C16.8139 28.1335 16.7489 27.99 16.7422 27.8381V27.8301H23.5504V27.8359C23.5441 27.9884 23.479 28.1326 23.369 28.2383C23.2589 28.344 23.1122 28.4032 22.9596 28.4035Z" fill="#577D9E"/>
<path d="M22.9596 28.4035V29.0877L22.9607 29.0877L22.9596 28.4035ZM17.3316 28.4035L17.3297 29.0877H17.3316V28.4035ZM16.7422 27.8381H16.0579V27.8533L16.0586 27.8684L16.7422 27.8381ZM16.7422 27.8301V27.1458H16.0579V27.8301H16.7422ZM23.5504 27.8301H24.2347V27.1458H23.5504V27.8301ZM23.5504 27.8359L24.2341 27.8645L24.2347 27.8502V27.8359H23.5504ZM22.9596 28.4035V27.7192H17.3316V28.4035V29.0877H22.9596V28.4035ZM17.3316 28.4035L17.3334 27.7192C17.3573 27.7192 17.3802 27.7285 17.3973 27.745L16.9237 28.2388L16.45 28.7326C16.6867 28.9597 17.0017 29.0868 17.3297 29.0877L17.3316 28.4035ZM16.9237 28.2388L17.3973 27.745C17.4146 27.7615 17.4247 27.784 17.4258 27.8078L16.7422 27.8381L16.0586 27.8684C16.0731 28.1961 16.2132 28.5056 16.45 28.7326L16.9237 28.2388ZM16.7422 27.8381H17.4265V27.8301H16.7422H16.0579V27.8381H16.7422ZM16.7422 27.8301V28.5144H23.5504V27.8301V27.1458H16.7422V27.8301ZM23.5504 27.8301H22.8662V27.8359H23.5504H24.2347V27.8301H23.5504ZM23.5504 27.8359L22.8668 27.8073C22.8678 27.7836 22.8779 27.7612 22.8949 27.7448L23.369 28.2383L23.843 28.7318C24.0802 28.5039 24.2204 28.1932 24.2341 27.8645L23.5504 27.8359ZM23.369 28.2383L22.8949 27.7448C22.912 27.7284 22.9348 27.7192 22.9585 27.7192L22.9596 28.4035L22.9607 29.0877C23.2897 29.0872 23.6058 28.9597 23.843 28.7318L23.369 28.2383Z" fill="#6B94E7" mask="url(#path-3-inside-1_2775_1849)"/>
</svg>
