<svg width="170" height="140" viewBox="0 0 170 140" fill="none" xmlns="http://www.w3.org/2000/svg">
<rect x="0.5" y="0.5" width="169" height="139" rx="9.5" fill="white"/>
<rect x="0.5" y="0.5" width="169" height="139" rx="9.5" stroke="#C3C9D6" stroke-dasharray="4 4"/>
<mask id="path-2-inside-1_2731_13143" fill="white">
<path d="M97.4167 82.4543H73.129C72.9921 82.4543 72.8892 82.4543 72.8115 82.4454C72.7519 82.4446 72.6944 82.4235 72.6486 82.3854C72.6106 82.3396 72.5895 82.2821 72.5886 82.2226C72.5798 82.1486 72.5798 82.0427 72.5798 81.905L72.5664 41.0226C72.5601 40.6559 72.6126 40.2905 72.7219 39.9403C72.8135 39.6497 72.9723 39.3847 73.1853 39.1667C73.4026 38.9535 73.6671 38.7945 73.9574 38.7026C74.3072 38.5929 74.6724 38.5401 75.0389 38.5464H95.0101C95.2957 38.5438 95.5806 38.5776 95.8577 38.6471C96.099 38.7082 96.3288 38.8082 96.538 38.9432C96.7324 39.0694 96.9018 39.2306 97.0377 39.4184C97.1766 39.6131 97.2804 39.8305 97.3442 40.061C97.3669 40.1193 97.3845 40.1795 97.3967 40.2409C97.4093 40.3045 97.4182 40.3687 97.4234 40.4334C97.4293 40.4992 97.4315 40.5666 97.433 40.6347C97.4345 40.7028 97.433 40.7717 97.433 40.8398L97.4145 82.4543"/>
</mask>
<path d="M97.4167 82.4543H73.129C72.9921 82.4543 72.8892 82.4543 72.8115 82.4454C72.7519 82.4446 72.6944 82.4235 72.6486 82.3854C72.6106 82.3396 72.5895 82.2821 72.5886 82.2226C72.5798 82.1486 72.5798 82.0427 72.5798 81.905L72.5664 41.0226C72.5601 40.6559 72.6126 40.2905 72.7219 39.9403C72.8135 39.6497 72.9723 39.3847 73.1853 39.1667C73.4026 38.9535 73.6671 38.7945 73.9574 38.7026C74.3072 38.5929 74.6724 38.5401 75.0389 38.5464H95.0101C95.2957 38.5438 95.5806 38.5776 95.8577 38.6471C96.099 38.7082 96.3288 38.8082 96.538 38.9432C96.7324 39.0694 96.9018 39.2306 97.0377 39.4184C97.1766 39.6131 97.2804 39.8305 97.3442 40.061C97.3669 40.1193 97.3845 40.1795 97.3967 40.2409C97.4093 40.3045 97.4182 40.3687 97.4234 40.4334C97.4293 40.4992 97.4315 40.5666 97.433 40.6347C97.4345 40.7028 97.433 40.7717 97.433 40.8398L97.4145 82.4543" fill="#0C8844"/>
<path d="M72.8115 82.4454L72.925 81.4519L72.875 81.4462L72.8247 81.4455L72.8115 82.4454ZM72.6486 82.3854L71.8782 83.023L71.938 83.0953L72.0103 83.1552L72.6486 82.3854ZM72.5886 82.2226L73.5885 82.2083L73.5878 82.1557L73.5815 82.1034L72.5886 82.2226ZM72.5798 81.905H73.5798L73.5798 81.9047L72.5798 81.905ZM72.5664 41.0226L73.5664 41.0223L73.5664 41.0138L73.5663 41.0053L72.5664 41.0226ZM72.7219 39.9403L71.7681 39.6397L71.7673 39.6423L72.7219 39.9403ZM73.1853 39.1667L72.4849 38.453L72.4775 38.4603L72.4702 38.4677L73.1853 39.1667ZM73.9574 38.7026L73.6581 37.7484L73.6556 37.7492L73.9574 38.7026ZM75.0389 38.5464L75.0218 39.5463L75.0304 39.5464H75.0389V38.5464ZM95.0101 38.5464V39.5464L95.0193 39.5464L95.0101 38.5464ZM95.8577 38.6471L96.1033 37.6777L96.1009 37.6771L95.8577 38.6471ZM96.538 38.9432L97.0826 38.1045L97.0801 38.1029L96.538 38.9432ZM97.0377 39.4184L97.8516 38.8374L97.848 38.8325L97.0377 39.4184ZM97.3442 40.061L96.3804 40.3278L96.394 40.377L96.4126 40.4246L97.3442 40.061ZM97.3967 40.2409L98.3776 40.0464L98.3775 40.0458L97.3967 40.2409ZM97.4234 40.4334L96.4265 40.5127L96.4274 40.5229L97.4234 40.4334ZM97.433 40.8398L98.433 40.8402V40.8398H97.433ZM97.4167 82.4543V81.4543H73.129V82.4543V83.4543H97.4167V82.4543ZM73.129 82.4543V81.4543C73.0574 81.4543 73.009 81.4542 72.9692 81.4534C72.9285 81.4525 72.9188 81.4512 72.925 81.4519L72.8115 82.4454L72.6979 83.4389C72.8459 83.4559 73.0169 83.4543 73.129 83.4543V82.4543ZM72.8115 82.4454L72.8247 81.4455C72.9937 81.4477 73.1568 81.5078 73.2869 81.6157L72.6486 82.3854L72.0103 83.1552C72.2321 83.3391 72.5101 83.4415 72.7982 83.4453L72.8115 82.4454ZM72.6486 82.3854L73.419 81.7479C73.5263 81.8776 73.5861 82.04 73.5885 82.2083L72.5886 82.2226L71.5887 82.2369C71.5928 82.5242 71.695 82.8016 71.8782 83.023L72.6486 82.3854ZM72.5886 82.2226L73.5815 82.1034C73.583 82.1156 73.5815 82.1094 73.5806 82.0667C73.5798 82.0264 73.5798 81.977 73.5798 81.905H72.5798H71.5798C71.5798 82.014 71.578 82.1934 71.5958 82.3417L72.5886 82.2226ZM72.5798 81.905L73.5798 81.9047L73.5664 41.0223L72.5664 41.0226L71.5664 41.0229L71.5798 81.9053L72.5798 81.905ZM72.5664 41.0226L73.5663 41.0053C73.5618 40.7454 73.599 40.4865 73.6765 40.2383L72.7219 39.9403L71.7673 39.6423C71.6262 40.0945 71.5584 40.5663 71.5666 41.0399L72.5664 41.0226ZM72.7219 39.9403L73.6756 40.241C73.7201 40.1 73.7971 39.9715 73.9004 39.8658L73.1853 39.1667L72.4702 38.4677C72.1475 38.7979 71.907 39.1993 71.7682 39.6397L72.7219 39.9403ZM73.1853 39.1667L73.8857 39.8805C73.9908 39.7774 74.1188 39.7004 74.2592 39.656L73.9574 38.7026L73.6556 37.7492C73.2155 37.8886 72.8144 38.1297 72.4849 38.453L73.1853 39.1667ZM73.9574 38.7026L74.2567 39.6567C74.5042 39.5791 74.7625 39.5418 75.0218 39.5463L75.0389 38.5464L75.0561 37.5465C74.5823 37.5384 74.1102 37.6066 73.6581 37.7484L73.9574 38.7026ZM75.0389 38.5464V39.5464H95.0101V38.5464V37.5464H75.0389V38.5464ZM95.0101 38.5464L95.0193 39.5464C95.2199 39.5445 95.4199 39.5683 95.6145 39.617L95.8577 38.6471L96.1009 37.6771C95.7413 37.5869 95.3716 37.543 95.0008 37.5464L95.0101 38.5464ZM95.8577 38.6471L95.6121 39.6164C95.7482 39.6509 95.8779 39.7074 95.9959 39.7835L96.538 38.9432L97.0801 38.1029C96.7797 37.9091 96.4498 37.7655 96.1033 37.6777L95.8577 38.6471ZM96.538 38.9432L95.9934 39.7819C96.0844 39.841 96.1637 39.9164 96.2273 40.0044L97.0377 39.4184L97.848 38.8325C97.64 38.5447 97.3805 38.2979 97.0826 38.1045L96.538 38.9432ZM97.0377 39.4184L96.2238 39.9995C96.2948 40.0989 96.3478 40.2101 96.3804 40.3278L97.3442 40.061L98.3079 39.7942C98.2129 39.451 98.0584 39.1272 97.8515 38.8374L97.0377 39.4184ZM97.3442 40.061L96.4126 40.4246C96.4141 40.4283 96.4152 40.4321 96.4159 40.436L97.3967 40.2409L98.3775 40.0458C98.3538 39.9269 98.3198 39.8103 98.2757 39.6974L97.3442 40.061ZM97.3967 40.2409L96.4158 40.4354C96.4209 40.4609 96.4245 40.4867 96.4265 40.5127L97.4234 40.4334L98.4202 40.354C98.412 40.2507 98.3978 40.148 98.3776 40.0464L97.3967 40.2409ZM97.4234 40.4334L96.4274 40.5229C96.4301 40.5534 96.4318 40.5928 96.4332 40.6564L97.433 40.6347L98.4328 40.613C98.4312 40.5404 98.4285 40.4451 98.4194 40.3438L97.4234 40.4334ZM97.433 40.6347L96.4332 40.6564C96.4344 40.7119 96.433 40.741 96.433 40.8398H97.433H98.433C98.433 40.8024 98.4345 40.6938 98.4328 40.613L97.433 40.6347ZM97.433 40.8398L96.433 40.8393L96.4145 82.4538L97.4145 82.4543L98.4145 82.4547L98.433 40.8402L97.433 40.8398Z" fill="#B7DCC7" mask="url(#path-2-inside-1_2731_13143)"/>
<path d="M75.5532 44.7109H94.5042V47.3759H75.5532V44.7109Z" fill="white"/>
<path d="M75.5591 66.1675H94.5012V68.8325H75.5591V66.1675Z" fill="white"/>
<path d="M75.562 71.731H94.5012V74.3959H75.562V71.731Z" fill="white"/>
<path d="M66.435 92.6442V99.8242H65.505V94.7142C65.505 94.6376 65.5067 94.5559 65.51 94.4692C65.5167 94.3826 65.5233 94.2942 65.53 94.2042L63.14 98.5892C63.0567 98.7526 62.9283 98.8342 62.755 98.8342H62.605C62.4317 98.8342 62.305 98.7526 62.225 98.5892L59.79 94.1892C59.81 94.3759 59.82 94.5509 59.82 94.7142V99.8242H58.885V92.6442H59.675C59.7683 92.6442 59.84 92.6542 59.89 92.6742C59.9433 92.6909 59.9933 92.7409 60.04 92.8242L62.44 97.1242C62.4867 97.2109 62.53 97.3026 62.57 97.3992C62.61 97.4959 62.6483 97.5926 62.685 97.6892C62.755 97.4926 62.8367 97.3026 62.93 97.1192L65.285 92.8242C65.3283 92.7409 65.375 92.6909 65.425 92.6742C65.4783 92.6542 65.5517 92.6442 65.645 92.6442H66.435ZM70.5947 97.5692C70.198 97.5826 69.8614 97.6142 69.5847 97.6642C69.308 97.7109 69.083 97.7742 68.9097 97.8542C68.7364 97.9342 68.6114 98.0292 68.5347 98.1392C68.458 98.2459 68.4197 98.3659 68.4197 98.4992C68.4197 98.6259 68.4397 98.7359 68.4797 98.8292C68.523 98.9192 68.5797 98.9942 68.6497 99.0542C68.723 99.1109 68.808 99.1526 68.9047 99.1792C69.0014 99.2059 69.1064 99.2192 69.2197 99.2192C69.3697 99.2192 69.5064 99.2042 69.6297 99.1742C69.7564 99.1442 69.8747 99.1026 69.9847 99.0492C70.0947 98.9926 70.1997 98.9242 70.2997 98.8442C70.3997 98.7642 70.498 98.6726 70.5947 98.5692V97.5692ZM67.7347 95.4542C68.018 95.1842 68.3247 94.9826 68.6547 94.8492C68.988 94.7159 69.353 94.6492 69.7497 94.6492C70.0397 94.6492 70.2964 94.6976 70.5197 94.7942C70.743 94.8876 70.9314 95.0192 71.0847 95.1892C71.238 95.3592 71.353 95.5626 71.4297 95.7992C71.5097 96.0359 71.5497 96.2976 71.5497 96.5842V99.8242H71.1147C71.018 99.8242 70.9447 99.8092 70.8947 99.7792C70.8447 99.7459 70.8047 99.6859 70.7747 99.5992L70.6697 99.1542C70.5397 99.2742 70.4114 99.3809 70.2847 99.4742C70.158 99.5642 70.0247 99.6426 69.8847 99.7092C69.748 99.7726 69.6014 99.8209 69.4447 99.8542C69.288 99.8876 69.1147 99.9042 68.9247 99.9042C68.7247 99.9042 68.5364 99.8776 68.3597 99.8242C68.1864 99.7676 68.0347 99.6826 67.9047 99.5692C67.7747 99.4559 67.6714 99.3142 67.5947 99.1442C67.5214 98.9742 67.4847 98.7759 67.4847 98.5492C67.4847 98.3492 67.538 98.1576 67.6447 97.9742C67.7547 97.7876 67.9314 97.6209 68.1747 97.4742C68.4214 97.3276 68.7414 97.2076 69.1347 97.1142C69.5314 97.0209 70.018 96.9676 70.5947 96.9542V96.5842C70.5947 96.2009 70.513 95.9142 70.3497 95.7242C70.1864 95.5342 69.9464 95.4392 69.6297 95.4392C69.4164 95.4392 69.2364 95.4659 69.0897 95.5192C68.9464 95.5726 68.8214 95.6326 68.7147 95.6992C68.6114 95.7626 68.5197 95.8209 68.4397 95.8742C68.363 95.9276 68.283 95.9542 68.1997 95.9542C68.133 95.9542 68.0747 95.9359 68.0247 95.8992C67.978 95.8626 67.9397 95.8192 67.9097 95.7692L67.7347 95.4542ZM73.8749 94.7442V99.8242H72.8999V94.7442H73.8749ZM74.0599 93.1742C74.0599 93.2642 74.0416 93.3509 74.0049 93.4342C73.9683 93.5142 73.9183 93.5859 73.8549 93.6492C73.7949 93.7092 73.7233 93.7576 73.6399 93.7942C73.5566 93.8276 73.4699 93.8442 73.3799 93.8442C73.2899 93.8442 73.2049 93.8276 73.1249 93.7942C73.0449 93.7576 72.9733 93.7092 72.9099 93.6492C72.8499 93.5859 72.8016 93.5142 72.7649 93.4342C72.7316 93.3509 72.7149 93.2642 72.7149 93.1742C72.7149 93.0809 72.7316 92.9942 72.7649 92.9142C72.8016 92.8309 72.8499 92.7592 72.9099 92.6992C72.9733 92.6359 73.0449 92.5876 73.1249 92.5542C73.2049 92.5176 73.2899 92.4992 73.3799 92.4992C73.4699 92.4992 73.5566 92.5176 73.6399 92.5542C73.7233 92.5876 73.7949 92.6359 73.8549 92.6992C73.9183 92.7592 73.9683 92.8309 74.0049 92.9142C74.0416 92.9942 74.0599 93.0809 74.0599 93.1742ZM76.2016 95.4492C76.3116 95.3326 76.4266 95.2259 76.5466 95.1292C76.6666 95.0326 76.7932 94.9509 76.9266 94.8842C77.0632 94.8142 77.2082 94.7609 77.3616 94.7242C77.5182 94.6842 77.6849 94.6642 77.8616 94.6642C78.1416 94.6642 78.3866 94.7109 78.5966 94.8042C78.8099 94.8976 78.9882 95.0292 79.1316 95.1992C79.2749 95.3659 79.3832 95.5676 79.4566 95.8042C79.5299 96.0409 79.5666 96.3026 79.5666 96.5892V99.8242H78.5866V96.5892C78.5866 96.2259 78.5032 95.9442 78.3366 95.7442C78.1699 95.5409 77.9149 95.4392 77.5716 95.4392C77.3216 95.4392 77.0866 95.4992 76.8666 95.6192C76.6499 95.7359 76.4482 95.8959 76.2616 96.0992V99.8242H75.2866V94.7442H75.8716C76.0082 94.7442 76.0932 94.8092 76.1266 94.9392L76.2016 95.4492ZM87.3266 93.8142C87.2932 93.8709 87.2582 93.9126 87.2216 93.9392C87.1849 93.9659 87.1382 93.9792 87.0816 93.9792C87.0216 93.9792 86.9532 93.9526 86.8766 93.8992C86.7999 93.8426 86.7032 93.7809 86.5866 93.7142C86.4732 93.6442 86.3366 93.5826 86.1766 93.5292C86.0166 93.4726 85.8249 93.4442 85.6016 93.4442C85.3916 93.4442 85.2066 93.4726 85.0466 93.5292C84.8899 93.5826 84.7582 93.6576 84.6516 93.7542C84.5449 93.8476 84.4632 93.9592 84.4066 94.0892C84.3532 94.2159 84.3266 94.3542 84.3266 94.5042C84.3266 94.6976 84.3749 94.8576 84.4716 94.9842C84.5716 95.1109 84.7016 95.2192 84.8616 95.3092C85.0216 95.3992 85.2032 95.4776 85.4066 95.5442C85.6099 95.6109 85.8182 95.6809 86.0316 95.7542C86.2449 95.8242 86.4532 95.9059 86.6566 95.9992C86.8599 96.0926 87.0416 96.2109 87.2016 96.3542C87.3616 96.4942 87.4899 96.6676 87.5866 96.8742C87.6866 97.0776 87.7366 97.3276 87.7366 97.6242C87.7366 97.9409 87.6816 98.2376 87.5716 98.5142C87.4649 98.7909 87.3082 99.0326 87.1016 99.2392C86.8949 99.4459 86.6399 99.6092 86.3366 99.7292C86.0366 99.8459 85.6949 99.9042 85.3116 99.9042C85.0816 99.9042 84.8582 99.8809 84.6416 99.8342C84.4249 99.7909 84.2199 99.7292 84.0266 99.6492C83.8332 99.5659 83.6516 99.4676 83.4816 99.3542C83.3149 99.2376 83.1649 99.1076 83.0316 98.9642L83.3366 98.4542C83.3666 98.4142 83.4016 98.3809 83.4416 98.3542C83.4849 98.3276 83.5332 98.3142 83.5866 98.3142C83.6566 98.3142 83.7366 98.3509 83.8266 98.4242C83.9199 98.4976 84.0332 98.5792 84.1666 98.6692C84.3032 98.7559 84.4649 98.8359 84.6516 98.9092C84.8416 98.9826 85.0716 99.0192 85.3416 99.0192C85.5616 99.0192 85.7582 98.9909 85.9316 98.9342C86.1049 98.8742 86.2499 98.7909 86.3666 98.6842C86.4866 98.5742 86.5782 98.4426 86.6416 98.2892C86.7049 98.1359 86.7366 97.9659 86.7366 97.7792C86.7366 97.5692 86.6882 97.3976 86.5916 97.2642C86.4949 97.1309 86.3666 97.0192 86.2066 96.9292C86.0466 96.8392 85.8649 96.7626 85.6616 96.6992C85.4582 96.6359 85.2499 96.5709 85.0366 96.5042C84.8232 96.4342 84.6149 96.3542 84.4116 96.2642C84.2082 96.1742 84.0266 96.0576 83.8666 95.9142C83.7066 95.7676 83.5782 95.5859 83.4816 95.3692C83.3849 95.1492 83.3366 94.8792 83.3366 94.5592C83.3366 94.3026 83.3866 94.0542 83.4866 93.8142C83.5866 93.5742 83.7316 93.3626 83.9216 93.1792C84.1149 92.9926 84.3516 92.8442 84.6316 92.7342C84.9116 92.6209 85.2316 92.5642 85.5916 92.5642C85.9949 92.5642 86.3649 92.6292 86.7016 92.7592C87.0416 92.8859 87.3366 93.0692 87.5866 93.3092L87.3266 93.8142ZM92.1867 96.7192C92.1867 96.5259 92.1584 96.3476 92.1017 96.1842C92.0484 96.0209 91.9684 95.8792 91.8617 95.7592C91.7551 95.6392 91.6251 95.5459 91.4717 95.4792C91.3184 95.4126 91.1417 95.3792 90.9417 95.3792C90.5317 95.3792 90.2084 95.4976 89.9717 95.7342C89.7384 95.9709 89.5901 96.2992 89.5267 96.7192H92.1867ZM92.9917 99.0992C92.8717 99.2392 92.7334 99.3609 92.5767 99.4642C92.4201 99.5642 92.2534 99.6459 92.0767 99.7092C91.9001 99.7726 91.7167 99.8192 91.5267 99.8492C91.3401 99.8792 91.1551 99.8942 90.9717 99.8942C90.6217 99.8942 90.2967 99.8359 89.9967 99.7192C89.7001 99.5992 89.4417 99.4259 89.2217 99.1992C89.0051 98.9692 88.8351 98.6859 88.7117 98.3492C88.5917 98.0092 88.5317 97.6192 88.5317 97.1792C88.5317 96.8259 88.5867 96.4976 88.6967 96.1942C88.8067 95.8876 88.9634 95.6209 89.1667 95.3942C89.3734 95.1676 89.6251 94.9892 89.9217 94.8592C90.2184 94.7292 90.5517 94.6642 90.9217 94.6642C91.2317 94.6642 91.5167 94.7159 91.7767 94.8192C92.0401 94.9192 92.2667 95.0659 92.4567 95.2592C92.6467 95.4526 92.7951 95.6909 92.9017 95.9742C93.0117 96.2576 93.0667 96.5809 93.0667 96.9442C93.0667 97.0942 93.0501 97.1959 93.0167 97.2492C92.9834 97.2992 92.9217 97.3242 92.8317 97.3242H89.5017C89.5117 97.6276 89.5551 97.8926 89.6317 98.1192C89.7084 98.3426 89.8134 98.5292 89.9467 98.6792C90.0834 98.8292 90.2451 98.9409 90.4317 99.0142C90.6184 99.0876 90.8267 99.1242 91.0567 99.1242C91.2734 99.1242 91.4601 99.0992 91.6167 99.0492C91.7767 98.9992 91.9134 98.9459 92.0267 98.8892C92.1434 98.8292 92.2401 98.7742 92.3167 98.7242C92.3967 98.6742 92.4667 98.6492 92.5267 98.6492C92.6067 98.6492 92.6684 98.6792 92.7117 98.7392L92.9917 99.0992ZM95.0347 95.7192C95.198 95.3859 95.3947 95.1242 95.6247 94.9342C95.8547 94.7442 96.1314 94.6492 96.4547 94.6492C96.5647 94.6492 96.668 94.6626 96.7647 94.6892C96.8647 94.7126 96.9514 94.7492 97.0247 94.7992L96.9597 95.5342C96.9364 95.6242 96.8814 95.6692 96.7947 95.6692C96.748 95.6692 96.678 95.6609 96.5847 95.6442C96.4914 95.6242 96.3914 95.6142 96.2847 95.6142C96.128 95.6142 95.9897 95.6376 95.8697 95.6842C95.7497 95.7276 95.6414 95.7942 95.5447 95.8842C95.4514 95.9709 95.368 96.0792 95.2947 96.2092C95.2214 96.3359 95.153 96.4809 95.0897 96.6442V99.8242H94.1147V94.7442H94.6747C94.7814 94.7442 94.853 94.7642 94.8897 94.8042C94.9297 94.8409 94.958 94.9076 94.9747 95.0042L95.0347 95.7192ZM102.187 94.7442L100.127 99.8242H99.2468L97.1868 94.7442H97.9918C98.0685 94.7442 98.1318 94.7626 98.1818 94.7992C98.2318 94.8359 98.2651 94.8826 98.2818 94.9392L99.4968 98.0592C99.5401 98.1892 99.5768 98.3192 99.6068 98.4492C99.6401 98.5759 99.6701 98.7026 99.6968 98.8292C99.7235 98.7026 99.7535 98.5759 99.7868 98.4492C99.8201 98.3226 99.8601 98.1926 99.9068 98.0592L101.137 94.9392C101.157 94.8826 101.192 94.8359 101.242 94.7992C101.292 94.7626 101.352 94.7442 101.422 94.7442H102.187ZM106.181 96.7192C106.181 96.5259 106.153 96.3476 106.096 96.1842C106.043 96.0209 105.963 95.8792 105.856 95.7592C105.749 95.6392 105.619 95.5459 105.466 95.4792C105.313 95.4126 105.136 95.3792 104.936 95.3792C104.526 95.3792 104.203 95.4976 103.966 95.7342C103.733 95.9709 103.584 96.2992 103.521 96.7192H106.181ZM106.986 99.0992C106.866 99.2392 106.728 99.3609 106.571 99.4642C106.414 99.5642 106.248 99.6459 106.071 99.7092C105.894 99.7726 105.711 99.8192 105.521 99.8492C105.334 99.8792 105.149 99.8942 104.966 99.8942C104.616 99.8942 104.291 99.8359 103.991 99.7192C103.694 99.5992 103.436 99.4259 103.216 99.1992C102.999 98.9692 102.829 98.6859 102.706 98.3492C102.586 98.0092 102.526 97.6192 102.526 97.1792C102.526 96.8259 102.581 96.4976 102.691 96.1942C102.801 95.8876 102.958 95.6209 103.161 95.3942C103.368 95.1676 103.619 94.9892 103.916 94.8592C104.213 94.7292 104.546 94.6642 104.916 94.6642C105.226 94.6642 105.511 94.7159 105.771 94.8192C106.034 94.9192 106.261 95.0659 106.451 95.2592C106.641 95.4526 106.789 95.6909 106.896 95.9742C107.006 96.2576 107.061 96.5809 107.061 96.9442C107.061 97.0942 107.044 97.1959 107.011 97.2492C106.978 97.2992 106.916 97.3242 106.826 97.3242H103.496C103.506 97.6276 103.549 97.8926 103.626 98.1192C103.703 98.3426 103.808 98.5292 103.941 98.6792C104.078 98.8292 104.239 98.9409 104.426 99.0142C104.613 99.0876 104.821 99.1242 105.051 99.1242C105.268 99.1242 105.454 99.0992 105.611 99.0492C105.771 98.9992 105.908 98.9459 106.021 98.8892C106.138 98.8292 106.234 98.7742 106.311 98.7242C106.391 98.6742 106.461 98.6492 106.521 98.6492C106.601 98.6492 106.663 98.6792 106.706 98.7392L106.986 99.0992ZM109.029 95.7192C109.192 95.3859 109.389 95.1242 109.619 94.9342C109.849 94.7442 110.125 94.6492 110.449 94.6492C110.559 94.6492 110.662 94.6626 110.759 94.6892C110.859 94.7126 110.945 94.7492 111.019 94.7992L110.954 95.5342C110.93 95.6242 110.875 95.6692 110.789 95.6692C110.742 95.6692 110.672 95.6609 110.579 95.6442C110.485 95.6242 110.385 95.6142 110.279 95.6142C110.122 95.6142 109.984 95.6376 109.864 95.6842C109.744 95.7276 109.635 95.7942 109.539 95.8842C109.445 95.9709 109.362 96.0792 109.289 96.2092C109.215 96.3359 109.147 96.4809 109.084 96.6442V99.8242H108.109V94.7442H108.669C108.775 94.7442 108.847 94.7642 108.884 94.8042C108.924 94.8409 108.952 94.9076 108.969 95.0042L109.029 95.7192Z" fill="#2A303D"/>
</svg>
