<svg width="170" height="140" viewBox="0 0 170 140" fill="none" xmlns="http://www.w3.org/2000/svg">
<rect x="0.5" y="0.5" width="169" height="139" rx="9.5" fill="white"/>
<rect x="0.5" y="0.5" width="169" height="139" rx="9.5" stroke="#B4BBCC" stroke-dasharray="4 4"/>
<path d="M104.723 45.9902C104.702 43.4328 103.671 40.9873 101.855 39.1862C100.039 37.3852 97.5853 36.3745 95.0278 36.3743C93.7838 36.3736 92.5515 36.6131 91.3983 37.0795C90.4356 35.1062 88.9378 33.4431 87.0757 32.2798C85.2136 31.1165 83.0622 30.4998 80.8666 30.5C78.2014 30.5005 75.616 31.4094 73.5368 33.0768C71.4576 34.7441 70.0088 37.0704 69.4293 39.6718C66.8736 39.8381 64.4769 40.9706 62.7257 42.8395C60.9745 44.7084 60 47.1736 60 49.7347C60 52.4095 61.0626 54.9747 62.9539 56.8661C64.8453 58.7574 67.4105 59.82 70.0853 59.82H102.177C104.073 59.82 105.892 59.0668 107.232 57.7261C108.573 56.3854 109.326 54.567 109.326 52.671C109.326 51.2222 108.886 49.8075 108.064 48.6145C107.242 47.4215 106.076 46.5063 104.723 45.9902Z" fill="#E1E4EB"/>
<mask id="path-3-inside-1_2731_13168" fill="white">
<path d="M97.4201 87.9543H73.1325C72.9955 87.9543 72.8926 87.9543 72.8149 87.9454C72.7553 87.9446 72.6979 87.9235 72.652 87.8854C72.6141 87.8396 72.5929 87.7821 72.5921 87.7226C72.5832 87.6486 72.5832 87.5427 72.5832 87.405L72.5698 46.5226C72.5635 46.1559 72.616 45.7905 72.7253 45.4403C72.8169 45.1497 72.9757 44.8847 73.1887 44.6667C73.406 44.4535 73.6706 44.2945 73.9608 44.2026C74.3106 44.0929 74.6758 44.0401 75.0424 44.0464H95.0135C95.2992 44.0438 95.584 44.0776 95.8611 44.1471C96.1024 44.2082 96.3322 44.3082 96.5414 44.4432C96.7359 44.5694 96.9053 44.7306 97.0411 44.9184C97.18 45.1131 97.2838 45.3305 97.3476 45.561C97.3703 45.6193 97.3879 45.6795 97.4001 45.7409C97.4127 45.8045 97.4216 45.8687 97.4268 45.9334C97.4327 45.9992 97.4349 46.0666 97.4364 46.1347C97.4379 46.2028 97.4364 46.2717 97.4364 46.3398L97.4179 87.9543"/>
</mask>
<path d="M97.4201 87.9543H73.1325C72.9955 87.9543 72.8926 87.9543 72.8149 87.9454C72.7553 87.9446 72.6979 87.9235 72.652 87.8854C72.6141 87.8396 72.5929 87.7821 72.5921 87.7226C72.5832 87.6486 72.5832 87.5427 72.5832 87.405L72.5698 46.5226C72.5635 46.1559 72.616 45.7905 72.7253 45.4403C72.8169 45.1497 72.9757 44.8847 73.1887 44.6667C73.406 44.4535 73.6706 44.2945 73.9608 44.2026C74.3106 44.0929 74.6758 44.0401 75.0424 44.0464H95.0135C95.2992 44.0438 95.584 44.0776 95.8611 44.1471C96.1024 44.2082 96.3322 44.3082 96.5414 44.4432C96.7359 44.5694 96.9053 44.7306 97.0411 44.9184C97.18 45.1131 97.2838 45.3305 97.3476 45.561C97.3703 45.6193 97.3879 45.6795 97.4001 45.7409C97.4127 45.8045 97.4216 45.8687 97.4268 45.9334C97.4327 45.9992 97.4349 46.0666 97.4364 46.1347C97.4379 46.2028 97.4364 46.2717 97.4364 46.3398L97.4179 87.9543" fill="#0C8844"/>
<path d="M72.8149 87.9454L72.9284 86.9519L72.8785 86.9462L72.8282 86.9455L72.8149 87.9454ZM72.652 87.8854L71.8816 88.523L71.9414 88.5953L72.0137 88.6552L72.652 87.8854ZM72.5921 87.7226L73.592 87.7083L73.5912 87.6557L73.5849 87.6034L72.5921 87.7226ZM72.5832 87.405H73.5832L73.5832 87.4047L72.5832 87.405ZM72.5698 46.5226L73.5698 46.5223L73.5698 46.5138L73.5697 46.5053L72.5698 46.5226ZM72.7253 45.4403L71.7716 45.1397L71.7707 45.1423L72.7253 45.4403ZM73.1887 44.6667L72.4883 43.953L72.4809 43.9603L72.4736 43.9677L73.1887 44.6667ZM73.9608 44.2026L73.6615 43.2484L73.659 43.2492L73.9608 44.2026ZM75.0424 44.0464L75.0252 45.0463L75.0338 45.0464H75.0424V44.0464ZM95.0135 44.0464V45.0464L95.0227 45.0464L95.0135 44.0464ZM95.8611 44.1471L96.1067 43.1777L96.1043 43.1771L95.8611 44.1471ZM96.5414 44.4432L97.086 43.6045L97.0835 43.6029L96.5414 44.4432ZM97.0411 44.9184L97.855 44.3374L97.8515 44.3325L97.0411 44.9184ZM97.3476 45.561L96.3838 45.8278L96.3975 45.877L96.416 45.9246L97.3476 45.561ZM97.4001 45.7409L98.381 45.5464L98.3809 45.5458L97.4001 45.7409ZM97.4268 45.9334L96.4299 46.0127L96.4308 46.0229L97.4268 45.9334ZM97.4364 46.3398L98.4364 46.3402V46.3398H97.4364ZM97.4201 87.9543V86.9543H73.1325V87.9543V88.9543H97.4201V87.9543ZM73.1325 87.9543V86.9543C73.0608 86.9543 73.0124 86.9542 72.9726 86.9534C72.9319 86.9525 72.9222 86.9512 72.9284 86.9519L72.8149 87.9454L72.7013 88.9389C72.8493 88.9559 73.0203 88.9543 73.1325 88.9543V87.9543ZM72.8149 87.9454L72.8282 86.9455C72.9971 86.9477 73.1602 87.0078 73.2903 87.1157L72.652 87.8854L72.0137 88.6552C72.2355 88.8391 72.5136 88.9415 72.8016 88.9453L72.8149 87.9454ZM72.652 87.8854L73.4225 87.2479C73.5298 87.3776 73.5896 87.54 73.592 87.7083L72.5921 87.7226L71.5922 87.7369C71.5963 88.0242 71.6984 88.3016 71.8816 88.523L72.652 87.8854ZM72.5921 87.7226L73.5849 87.6034C73.5864 87.6156 73.585 87.6094 73.5841 87.5667C73.5832 87.5264 73.5832 87.477 73.5832 87.405H72.5832H71.5832C71.5832 87.514 71.5814 87.6934 71.5992 87.8417L72.5921 87.7226ZM72.5832 87.405L73.5832 87.4047L73.5698 46.5223L72.5698 46.5226L71.5698 46.5229L71.5832 87.4053L72.5832 87.405ZM72.5698 46.5226L73.5697 46.5053C73.5652 46.2454 73.6024 45.9865 73.6799 45.7383L72.7253 45.4403L71.7707 45.1423C71.6296 45.5945 71.5618 46.0663 71.57 46.5399L72.5698 46.5226ZM72.7253 45.4403L73.679 45.741C73.7235 45.6 73.8005 45.4715 73.9038 45.3658L73.1887 44.6667L72.4736 43.9677C72.1509 44.2979 71.9104 44.6993 71.7716 45.1397L72.7253 45.4403ZM73.1887 44.6667L73.8891 45.3805C73.9942 45.2774 74.1222 45.2004 74.2627 45.156L73.9608 44.2026L73.659 43.2492C73.2189 43.3886 72.8178 43.6297 72.4883 43.953L73.1887 44.6667ZM73.9608 44.2026L74.2601 45.1567C74.5076 45.0791 74.7659 45.0418 75.0252 45.0463L75.0424 44.0464L75.0595 43.0465C74.5857 43.0384 74.1137 43.1066 73.6615 43.2484L73.9608 44.2026ZM75.0424 44.0464V45.0464H95.0135V44.0464V43.0464H75.0424V44.0464ZM95.0135 44.0464L95.0227 45.0464C95.2233 45.0445 95.4233 45.0683 95.6179 45.117L95.8611 44.1471L96.1043 43.1771C95.7447 43.0869 95.375 43.043 95.0042 43.0464L95.0135 44.0464ZM95.8611 44.1471L95.6155 45.1164C95.7517 45.1509 95.8813 45.2074 95.9994 45.2835L96.5414 44.4432L97.0835 43.6029C96.7831 43.4091 96.4532 43.2655 96.1067 43.1777L95.8611 44.1471ZM96.5414 44.4432L95.9968 45.2819C96.0878 45.341 96.1671 45.4164 96.2307 45.5044L97.0411 44.9184L97.8515 44.3325C97.6434 44.0447 97.3839 43.7979 97.086 43.6045L96.5414 44.4432ZM97.0411 44.9184L96.2272 45.4995C96.2982 45.5989 96.3512 45.7101 96.3838 45.8278L97.3476 45.561L98.3113 45.2942C98.2163 44.951 98.0619 44.6272 97.855 44.3374L97.0411 44.9184ZM97.3476 45.561L96.416 45.9246C96.4175 45.9283 96.4186 45.9321 96.4194 45.936L97.4001 45.7409L98.3809 45.5458C98.3573 45.4269 98.3232 45.3103 98.2791 45.1974L97.3476 45.561ZM97.4001 45.7409L96.4192 45.9354C96.4243 45.9609 96.4279 45.9867 96.4299 46.0127L97.4268 45.9334L98.4236 45.854C98.4154 45.7507 98.4012 45.648 98.381 45.5464L97.4001 45.7409ZM97.4268 45.9334L96.4308 46.0229C96.4335 46.0534 96.4353 46.0928 96.4366 46.1564L97.4364 46.1347L98.4362 46.113C98.4346 46.0404 98.4319 45.9451 98.4228 45.8438L97.4268 45.9334ZM97.4364 46.1347L96.4366 46.1564C96.4379 46.2119 96.4364 46.241 96.4364 46.3398H97.4364H98.4364C98.4364 46.3024 98.4379 46.1938 98.4362 46.113L97.4364 46.1347ZM97.4364 46.3398L96.4364 46.3393L96.4179 87.9538L97.4179 87.9543L98.4179 87.9547L98.4364 46.3402L97.4364 46.3398Z" fill="#B7DCC7" mask="url(#path-3-inside-1_2731_13168)"/>
<path d="M75.5566 50.2109H94.5077V52.8759H75.5566V50.2109Z" fill="white"/>
<path d="M75.5625 71.6675H94.5046V74.3325H75.5625V71.6675Z" fill="white"/>
<path d="M75.5654 77.231H94.5046V79.8959H75.5654V77.231Z" fill="white"/>
<path d="M52.435 98.32V105.5H51.505V100.39C51.505 100.313 51.5067 100.232 51.51 100.145C51.5167 100.058 51.5233 99.97 51.53 99.88L49.14 104.265C49.0567 104.428 48.9283 104.51 48.755 104.51H48.605C48.4317 104.51 48.305 104.428 48.225 104.265L45.79 99.865C45.81 100.052 45.82 100.227 45.82 100.39V105.5H44.885V98.32H45.675C45.7683 98.32 45.84 98.33 45.89 98.35C45.9433 98.3667 45.9933 98.4167 46.04 98.5L48.44 102.8C48.4867 102.887 48.53 102.978 48.57 103.075C48.61 103.172 48.6483 103.268 48.685 103.365C48.755 103.168 48.8367 102.978 48.93 102.795L51.285 98.5C51.3283 98.4167 51.375 98.3667 51.425 98.35C51.4783 98.33 51.5517 98.32 51.645 98.32H52.435ZM56.5947 103.245C56.198 103.258 55.8614 103.29 55.5847 103.34C55.308 103.387 55.083 103.45 54.9097 103.53C54.7364 103.61 54.6114 103.705 54.5347 103.815C54.458 103.922 54.4197 104.042 54.4197 104.175C54.4197 104.302 54.4397 104.412 54.4797 104.505C54.523 104.595 54.5797 104.67 54.6497 104.73C54.723 104.787 54.808 104.828 54.9047 104.855C55.0014 104.882 55.1064 104.895 55.2197 104.895C55.3697 104.895 55.5064 104.88 55.6297 104.85C55.7564 104.82 55.8747 104.778 55.9847 104.725C56.0947 104.668 56.1997 104.6 56.2997 104.52C56.3997 104.44 56.498 104.348 56.5947 104.245V103.245ZM53.7347 101.13C54.018 100.86 54.3247 100.658 54.6547 100.525C54.988 100.392 55.353 100.325 55.7497 100.325C56.0397 100.325 56.2964 100.373 56.5197 100.47C56.743 100.563 56.9314 100.695 57.0847 100.865C57.238 101.035 57.353 101.238 57.4297 101.475C57.5097 101.712 57.5497 101.973 57.5497 102.26V105.5H57.1147C57.018 105.5 56.9447 105.485 56.8947 105.455C56.8447 105.422 56.8047 105.362 56.7747 105.275L56.6697 104.83C56.5397 104.95 56.4114 105.057 56.2847 105.15C56.158 105.24 56.0247 105.318 55.8847 105.385C55.748 105.448 55.6014 105.497 55.4447 105.53C55.288 105.563 55.1147 105.58 54.9247 105.58C54.7247 105.58 54.5364 105.553 54.3597 105.5C54.1864 105.443 54.0347 105.358 53.9047 105.245C53.7747 105.132 53.6714 104.99 53.5947 104.82C53.5214 104.65 53.4847 104.452 53.4847 104.225C53.4847 104.025 53.538 103.833 53.6447 103.65C53.7547 103.463 53.9314 103.297 54.1747 103.15C54.4214 103.003 54.7414 102.883 55.1347 102.79C55.5314 102.697 56.018 102.643 56.5947 102.63V102.26C56.5947 101.877 56.513 101.59 56.3497 101.4C56.1864 101.21 55.9464 101.115 55.6297 101.115C55.4164 101.115 55.2364 101.142 55.0897 101.195C54.9464 101.248 54.8214 101.308 54.7147 101.375C54.6114 101.438 54.5197 101.497 54.4397 101.55C54.363 101.603 54.283 101.63 54.1997 101.63C54.133 101.63 54.0747 101.612 54.0247 101.575C53.978 101.538 53.9397 101.495 53.9097 101.445L53.7347 101.13ZM59.8749 100.42V105.5H58.8999V100.42H59.8749ZM60.0599 98.85C60.0599 98.94 60.0416 99.0267 60.0049 99.11C59.9683 99.19 59.9183 99.2617 59.8549 99.325C59.7949 99.385 59.7233 99.4333 59.6399 99.47C59.5566 99.5033 59.4699 99.52 59.3799 99.52C59.2899 99.52 59.2049 99.5033 59.1249 99.47C59.0449 99.4333 58.9733 99.385 58.9099 99.325C58.8499 99.2617 58.8016 99.19 58.7649 99.11C58.7316 99.0267 58.7149 98.94 58.7149 98.85C58.7149 98.7567 58.7316 98.67 58.7649 98.59C58.8016 98.5067 58.8499 98.435 58.9099 98.375C58.9733 98.3117 59.0449 98.2633 59.1249 98.23C59.2049 98.1933 59.2899 98.175 59.3799 98.175C59.4699 98.175 59.5566 98.1933 59.6399 98.23C59.7233 98.2633 59.7949 98.3117 59.8549 98.375C59.9183 98.435 59.9683 98.5067 60.0049 98.59C60.0416 98.67 60.0599 98.7567 60.0599 98.85ZM62.2016 101.125C62.3116 101.008 62.4266 100.902 62.5466 100.805C62.6666 100.708 62.7932 100.627 62.9266 100.56C63.0632 100.49 63.2082 100.437 63.3616 100.4C63.5182 100.36 63.6849 100.34 63.8616 100.34C64.1416 100.34 64.3866 100.387 64.5966 100.48C64.8099 100.573 64.9882 100.705 65.1316 100.875C65.2749 101.042 65.3832 101.243 65.4566 101.48C65.5299 101.717 65.5666 101.978 65.5666 102.265V105.5H64.5866V102.265C64.5866 101.902 64.5032 101.62 64.3366 101.42C64.1699 101.217 63.9149 101.115 63.5716 101.115C63.3216 101.115 63.0866 101.175 62.8666 101.295C62.6499 101.412 62.4482 101.572 62.2616 101.775V105.5H61.2866V100.42H61.8716C62.0082 100.42 62.0932 100.485 62.1266 100.615L62.2016 101.125ZM74.6266 103.96C74.6866 103.96 74.7382 103.983 74.7816 104.03L75.2016 104.49C74.9082 104.837 74.5499 105.105 74.1266 105.295C73.7066 105.485 73.1999 105.58 72.6066 105.58C72.0866 105.58 71.6149 105.49 71.1916 105.31C70.7716 105.13 70.4116 104.878 70.1116 104.555C69.8149 104.232 69.5849 103.845 69.4216 103.395C69.2582 102.945 69.1766 102.45 69.1766 101.91C69.1766 101.37 69.2616 100.875 69.4316 100.425C69.6049 99.975 69.8466 99.5883 70.1566 99.265C70.4666 98.9417 70.8366 98.69 71.2666 98.51C71.6999 98.33 72.1782 98.24 72.7016 98.24C73.2116 98.24 73.6649 98.3233 74.0616 98.49C74.4582 98.6567 74.8032 98.8783 75.0966 99.155L74.7466 99.65C74.7232 99.6867 74.6932 99.7167 74.6566 99.74C74.6232 99.7633 74.5782 99.775 74.5216 99.775C74.4582 99.775 74.3832 99.7433 74.2966 99.68C74.2132 99.6167 74.1016 99.5467 73.9616 99.47C73.8249 99.39 73.6549 99.3183 73.4516 99.255C73.2482 99.1917 72.9949 99.16 72.6916 99.16C72.3349 99.16 72.0082 99.2233 71.7116 99.35C71.4149 99.4733 71.1582 99.6533 70.9416 99.89C70.7282 100.123 70.5616 100.412 70.4416 100.755C70.3249 101.095 70.2666 101.48 70.2666 101.91C70.2666 102.347 70.3282 102.735 70.4516 103.075C70.5749 103.415 70.7449 103.703 70.9616 103.94C71.1782 104.177 71.4332 104.357 71.7266 104.48C72.0199 104.603 72.3366 104.665 72.6766 104.665C72.8832 104.665 73.0682 104.653 73.2316 104.63C73.3982 104.603 73.5499 104.565 73.6866 104.515C73.8266 104.465 73.9582 104.402 74.0816 104.325C74.2049 104.245 74.3266 104.15 74.4466 104.04C74.4732 104.017 74.5016 103.998 74.5316 103.985C74.5616 103.968 74.5932 103.96 74.6266 103.96ZM77.0717 98.12V105.5H76.0917V98.12H77.0717ZM80.6293 100.34C81.0026 100.34 81.3393 100.402 81.6393 100.525C81.9426 100.645 82.1993 100.82 82.4093 101.05C82.6226 101.277 82.786 101.552 82.8993 101.875C83.0126 102.195 83.0693 102.555 83.0693 102.955C83.0693 103.355 83.0126 103.717 82.8993 104.04C82.786 104.363 82.6226 104.638 82.4093 104.865C82.1993 105.092 81.9426 105.267 81.6393 105.39C81.3393 105.51 81.0026 105.57 80.6293 105.57C80.2526 105.57 79.9126 105.51 79.6093 105.39C79.3093 105.267 79.0526 105.092 78.8393 104.865C78.626 104.638 78.461 104.363 78.3443 104.04C78.231 103.717 78.1743 103.355 78.1743 102.955C78.1743 102.555 78.231 102.195 78.3443 101.875C78.461 101.552 78.626 101.277 78.8393 101.05C79.0526 100.82 79.3093 100.645 79.6093 100.525C79.9126 100.402 80.2526 100.34 80.6293 100.34ZM80.6293 104.81C81.1093 104.81 81.4676 104.648 81.7043 104.325C81.941 104.002 82.0593 103.547 82.0593 102.96C82.0593 102.373 81.941 101.918 81.7043 101.595C81.4676 101.268 81.1093 101.105 80.6293 101.105C80.1426 101.105 79.7793 101.268 79.5393 101.595C79.3026 101.918 79.1843 102.373 79.1843 102.96C79.1843 103.547 79.3026 104.002 79.5393 104.325C79.7793 104.648 80.1426 104.81 80.6293 104.81ZM88.3827 100.42V105.5H87.7977C87.6643 105.5 87.5777 105.435 87.5377 105.305L87.4677 104.795C87.3577 104.912 87.2427 105.018 87.1227 105.115C87.0027 105.212 86.8743 105.295 86.7377 105.365C86.601 105.432 86.456 105.483 86.3027 105.52C86.1493 105.56 85.9843 105.58 85.8077 105.58C85.5277 105.58 85.281 105.533 85.0677 105.44C84.8577 105.347 84.681 105.217 84.5377 105.05C84.3943 104.88 84.286 104.677 84.2127 104.44C84.1393 104.203 84.1027 103.942 84.1027 103.655V100.42H85.0827V103.655C85.0827 104.018 85.166 104.302 85.3327 104.505C85.4993 104.705 85.7543 104.805 86.0977 104.805C86.3477 104.805 86.581 104.747 86.7977 104.63C87.0143 104.51 87.2177 104.347 87.4077 104.14V100.42H88.3827ZM93.0186 101.65C92.8586 101.44 92.6853 101.293 92.4986 101.21C92.3153 101.127 92.1086 101.085 91.8786 101.085C91.4319 101.085 91.0853 101.247 90.8386 101.57C90.5953 101.89 90.4736 102.358 90.4736 102.975C90.4736 103.298 90.5003 103.575 90.5536 103.805C90.6103 104.032 90.6903 104.218 90.7936 104.365C90.9003 104.508 91.0303 104.615 91.1836 104.685C91.3369 104.752 91.5103 104.785 91.7036 104.785C91.9869 104.785 92.2319 104.722 92.4386 104.595C92.6453 104.468 92.8386 104.29 93.0186 104.06V101.65ZM93.9986 98.12V105.5H93.4086C93.2719 105.5 93.1869 105.435 93.1536 105.305L93.0686 104.72C92.8519 104.977 92.6053 105.183 92.3286 105.34C92.0553 105.493 91.7386 105.57 91.3786 105.57C91.0886 105.57 90.8253 105.513 90.5886 105.4C90.3553 105.287 90.1553 105.122 89.9886 104.905C89.8219 104.685 89.6936 104.413 89.6036 104.09C89.5136 103.767 89.4686 103.395 89.4686 102.975C89.4686 102.598 89.5186 102.248 89.6186 101.925C89.7186 101.602 89.8636 101.322 90.0536 101.085C90.2436 100.848 90.4736 100.663 90.7436 100.53C91.0136 100.393 91.3186 100.325 91.6586 100.325C91.9653 100.325 92.2253 100.375 92.4386 100.475C92.6553 100.575 92.8486 100.717 93.0186 100.9V98.12H93.9986ZM101.803 99.49C101.77 99.5467 101.735 99.5883 101.698 99.615C101.661 99.6417 101.615 99.655 101.558 99.655C101.498 99.655 101.43 99.6283 101.353 99.575C101.276 99.5183 101.18 99.4567 101.063 99.39C100.95 99.32 100.813 99.2583 100.653 99.205C100.493 99.1483 100.301 99.12 100.078 99.12C99.8681 99.12 99.6831 99.1483 99.5231 99.205C99.3665 99.2583 99.2348 99.3333 99.1281 99.43C99.0215 99.5233 98.9398 99.635 98.8831 99.765C98.8298 99.8917 98.8031 100.03 98.8031 100.18C98.8031 100.373 98.8515 100.533 98.9481 100.66C99.0481 100.787 99.1781 100.895 99.3381 100.985C99.4981 101.075 99.6798 101.153 99.8831 101.22C100.086 101.287 100.295 101.357 100.508 101.43C100.721 101.5 100.93 101.582 101.133 101.675C101.336 101.768 101.518 101.887 101.678 102.03C101.838 102.17 101.966 102.343 102.063 102.55C102.163 102.753 102.213 103.003 102.213 103.3C102.213 103.617 102.158 103.913 102.048 104.19C101.941 104.467 101.785 104.708 101.578 104.915C101.371 105.122 101.116 105.285 100.813 105.405C100.513 105.522 100.171 105.58 99.7881 105.58C99.5581 105.58 99.3348 105.557 99.1181 105.51C98.9015 105.467 98.6965 105.405 98.5031 105.325C98.3098 105.242 98.1281 105.143 97.9581 105.03C97.7915 104.913 97.6415 104.783 97.5081 104.64L97.8131 104.13C97.8431 104.09 97.8781 104.057 97.9181 104.03C97.9615 104.003 98.0098 103.99 98.0631 103.99C98.1331 103.99 98.2131 104.027 98.3031 104.1C98.3965 104.173 98.5098 104.255 98.6431 104.345C98.7798 104.432 98.9415 104.512 99.1281 104.585C99.3181 104.658 99.5481 104.695 99.8181 104.695C100.038 104.695 100.235 104.667 100.408 104.61C100.581 104.55 100.726 104.467 100.843 104.36C100.963 104.25 101.055 104.118 101.118 103.965C101.181 103.812 101.213 103.642 101.213 103.455C101.213 103.245 101.165 103.073 101.068 102.94C100.971 102.807 100.843 102.695 100.683 102.605C100.523 102.515 100.341 102.438 100.138 102.375C99.9348 102.312 99.7265 102.247 99.5131 102.18C99.2998 102.11 99.0915 102.03 98.8881 101.94C98.6848 101.85 98.5031 101.733 98.3431 101.59C98.1831 101.443 98.0548 101.262 97.9581 101.045C97.8615 100.825 97.8131 100.555 97.8131 100.235C97.8131 99.9783 97.8631 99.73 97.9631 99.49C98.0631 99.25 98.2081 99.0383 98.3981 98.855C98.5915 98.6683 98.8281 98.52 99.1081 98.41C99.3881 98.2967 99.7081 98.24 100.068 98.24C100.471 98.24 100.841 98.305 101.178 98.435C101.518 98.5617 101.813 98.745 102.063 98.985L101.803 99.49ZM106.663 102.395C106.663 102.202 106.635 102.023 106.578 101.86C106.525 101.697 106.445 101.555 106.338 101.435C106.232 101.315 106.102 101.222 105.948 101.155C105.795 101.088 105.618 101.055 105.418 101.055C105.008 101.055 104.685 101.173 104.448 101.41C104.215 101.647 104.067 101.975 104.003 102.395H106.663ZM107.468 104.775C107.348 104.915 107.21 105.037 107.053 105.14C106.897 105.24 106.73 105.322 106.553 105.385C106.377 105.448 106.193 105.495 106.003 105.525C105.817 105.555 105.632 105.57 105.448 105.57C105.098 105.57 104.773 105.512 104.473 105.395C104.177 105.275 103.918 105.102 103.698 104.875C103.482 104.645 103.312 104.362 103.188 104.025C103.068 103.685 103.008 103.295 103.008 102.855C103.008 102.502 103.063 102.173 103.173 101.87C103.283 101.563 103.44 101.297 103.643 101.07C103.85 100.843 104.102 100.665 104.398 100.535C104.695 100.405 105.028 100.34 105.398 100.34C105.708 100.34 105.993 100.392 106.253 100.495C106.517 100.595 106.743 100.742 106.933 100.935C107.123 101.128 107.272 101.367 107.378 101.65C107.488 101.933 107.543 102.257 107.543 102.62C107.543 102.77 107.527 102.872 107.493 102.925C107.46 102.975 107.398 103 107.308 103H103.978C103.988 103.303 104.032 103.568 104.108 103.795C104.185 104.018 104.29 104.205 104.423 104.355C104.56 104.505 104.722 104.617 104.908 104.69C105.095 104.763 105.303 104.8 105.533 104.8C105.75 104.8 105.937 104.775 106.093 104.725C106.253 104.675 106.39 104.622 106.503 104.565C106.62 104.505 106.717 104.45 106.793 104.4C106.873 104.35 106.943 104.325 107.003 104.325C107.083 104.325 107.145 104.355 107.188 104.415L107.468 104.775ZM109.511 101.395C109.675 101.062 109.871 100.8 110.101 100.61C110.331 100.42 110.608 100.325 110.931 100.325C111.041 100.325 111.145 100.338 111.241 100.365C111.341 100.388 111.428 100.425 111.501 100.475L111.436 101.21C111.413 101.3 111.358 101.345 111.271 101.345C111.225 101.345 111.155 101.337 111.061 101.32C110.968 101.3 110.868 101.29 110.761 101.29C110.605 101.29 110.466 101.313 110.346 101.36C110.226 101.403 110.118 101.47 110.021 101.56C109.928 101.647 109.845 101.755 109.771 101.885C109.698 102.012 109.63 102.157 109.566 102.32V105.5H108.591V100.42H109.151C109.258 100.42 109.33 100.44 109.366 100.48C109.406 100.517 109.435 100.583 109.451 100.68L109.511 101.395ZM116.663 100.42L114.603 105.5H113.723L111.663 100.42H112.468C112.545 100.42 112.608 100.438 112.658 100.475C112.708 100.512 112.742 100.558 112.758 100.615L113.973 103.735C114.017 103.865 114.053 103.995 114.083 104.125C114.117 104.252 114.147 104.378 114.173 104.505C114.2 104.378 114.23 104.252 114.263 104.125C114.297 103.998 114.337 103.868 114.383 103.735L115.613 100.615C115.633 100.558 115.668 100.512 115.718 100.475C115.768 100.438 115.828 100.42 115.898 100.42H116.663ZM120.657 102.395C120.657 102.202 120.629 102.023 120.572 101.86C120.519 101.697 120.439 101.555 120.332 101.435C120.226 101.315 120.096 101.222 119.942 101.155C119.789 101.088 119.612 101.055 119.412 101.055C119.002 101.055 118.679 101.173 118.442 101.41C118.209 101.647 118.061 101.975 117.997 102.395H120.657ZM121.462 104.775C121.342 104.915 121.204 105.037 121.047 105.14C120.891 105.24 120.724 105.322 120.547 105.385C120.371 105.448 120.187 105.495 119.997 105.525C119.811 105.555 119.626 105.57 119.442 105.57C119.092 105.57 118.767 105.512 118.467 105.395C118.171 105.275 117.912 105.102 117.692 104.875C117.476 104.645 117.306 104.362 117.182 104.025C117.062 103.685 117.002 103.295 117.002 102.855C117.002 102.502 117.057 102.173 117.167 101.87C117.277 101.563 117.434 101.297 117.637 101.07C117.844 100.843 118.096 100.665 118.392 100.535C118.689 100.405 119.022 100.34 119.392 100.34C119.702 100.34 119.987 100.392 120.247 100.495C120.511 100.595 120.737 100.742 120.927 100.935C121.117 101.128 121.266 101.367 121.372 101.65C121.482 101.933 121.537 102.257 121.537 102.62C121.537 102.77 121.521 102.872 121.487 102.925C121.454 102.975 121.392 103 121.302 103H117.972C117.982 103.303 118.026 103.568 118.102 103.795C118.179 104.018 118.284 104.205 118.417 104.355C118.554 104.505 118.716 104.617 118.902 104.69C119.089 104.763 119.297 104.8 119.527 104.8C119.744 104.8 119.931 104.775 120.087 104.725C120.247 104.675 120.384 104.622 120.497 104.565C120.614 104.505 120.711 104.45 120.787 104.4C120.867 104.35 120.937 104.325 120.997 104.325C121.077 104.325 121.139 104.355 121.182 104.415L121.462 104.775ZM123.505 101.395C123.669 101.062 123.865 100.8 124.095 100.61C124.325 100.42 124.602 100.325 124.925 100.325C125.035 100.325 125.139 100.338 125.235 100.365C125.335 100.388 125.422 100.425 125.495 100.475L125.43 101.21C125.407 101.3 125.352 101.345 125.265 101.345C125.219 101.345 125.149 101.337 125.055 101.32C124.962 101.3 124.862 101.29 124.755 101.29C124.599 101.29 124.46 101.313 124.34 101.36C124.22 101.403 124.112 101.47 124.015 101.56C123.922 101.647 123.839 101.755 123.765 101.885C123.692 102.012 123.624 102.157 123.56 102.32V105.5H122.585V100.42H123.145C123.252 100.42 123.324 100.44 123.36 100.48C123.4 100.517 123.429 100.583 123.445 100.68L123.505 101.395Z" fill="#2A303D"/>
</svg>
