<svg width="90" height="49" viewBox="0 0 90 49" fill="none" xmlns="http://www.w3.org/2000/svg">
<path d="M50.7831 23.5479C50.7831 23.5479 48.3772 24.2734 48.0382 24.3882C47.6992 24.5029 46.4392 25.4297 46.4096 26.509C46.38 27.5884 44.8513 30.9581 47.195 30.0017C48.1804 30.1474 49.1819 30.1474 50.1672 30.0017C51.5863 29.7477 54.0233 30.4103 54.3935 30.0017C54.7636 29.593 54.8695 30.1031 54.6466 28.7217C54.4238 27.3404 54.6822 26.7859 54.5837 25.4593C54.4853 24.1328 54.7022 23.7634 53.9004 23.5472C52.8643 23.4352 51.8192 23.4354 50.7831 23.5479Z" fill="white"/>
<path d="M68.2418 2.03419C68.2418 1.64348 68.0866 1.26878 67.8103 0.992508C67.5341 0.716239 67.1594 0.561035 66.7687 0.561035H34.3994C34.0087 0.561035 33.634 0.716239 33.3577 0.992508C33.0815 1.26878 32.9263 1.64348 32.9263 2.03419V20.1902H68.2418V2.03419Z" fill="#C0D1F5"/>
<path d="M68.6401 20.59H32.5273V2.34221C32.5275 1.76394 32.7574 1.20943 33.1664 0.800598C33.5753 0.39177 34.1299 0.162109 34.7082 0.162109H66.46C67.0382 0.162109 67.5927 0.391794 68.0016 0.800644C68.4104 1.20949 68.6401 1.76401 68.6401 2.34221V20.59ZM33.3291 19.7912H67.8458V2.34221C67.8459 2.16059 67.8102 1.98074 67.7408 1.81292C67.6713 1.6451 67.5695 1.49261 67.441 1.36419C67.3126 1.23576 67.1601 1.1339 66.9923 1.06444C66.8245 0.994984 66.6446 0.959285 66.463 0.959382H34.7082C34.5266 0.959285 34.3467 0.994984 34.1789 1.06444C34.0111 1.1339 33.8586 1.23576 33.7302 1.36419C33.6017 1.49261 33.4999 1.6451 33.4304 1.81292C33.361 1.98074 33.3253 2.16059 33.3254 2.34221L33.3291 19.7912Z" fill="#6B94E7"/>
<path d="M35.8955 25.967H65.2711C65.6611 25.9671 66.0473 25.8904 66.4076 25.7412C66.7679 25.5921 67.0953 25.3734 67.3711 25.0976C67.6469 24.8219 67.8657 24.4945 68.015 24.1342C68.1642 23.774 68.2411 23.3878 68.2411 22.9978V20.1899H32.9263V22.9978C32.9263 23.7853 33.2391 24.5405 33.7959 25.0974C34.3528 25.6542 35.108 25.967 35.8955 25.967Z" fill="white"/>
<path d="M65.2712 26.3676H35.8963C35.0031 26.3666 34.1468 26.0114 33.5152 25.3798C32.8836 24.7482 32.5283 23.8918 32.5273 22.9986V19.791H68.6401V22.9986C68.6392 23.8918 68.2839 24.7482 67.6523 25.3798C67.0207 26.0114 66.1644 26.3666 65.2712 26.3676ZM33.3254 20.5935V23.0023C33.3261 23.6838 33.5972 24.3372 34.079 24.8192C34.5608 25.3011 35.2141 25.5723 35.8956 25.5733H65.2712C65.9528 25.5725 66.6063 25.3014 67.0882 24.8194C67.5702 24.3374 67.8413 23.6839 67.8421 23.0023V20.5935H33.3254Z" fill="#6B94E7"/>
<path d="M45.5155 30.3763L45.2505 29.6234C45.8227 29.4213 45.9863 28.527 46.0085 28.3842V25.748H46.8058V28.4597C46.7962 28.5219 46.6074 29.9906 45.5155 30.3763Z" fill="#6B94E7"/>
<path d="M55.4726 30.377C54.3807 29.9913 54.1927 28.5219 54.186 28.4604V28.413V25.748H54.9841V28.3856C55.027 28.6892 55.2372 29.4457 55.7421 29.6234L55.4726 30.377Z" fill="#6B94E7"/>
<path d="M56.3146 29.5996H44.6753V30.3976H56.3146V29.5996Z" fill="#6B94E7"/>
<path d="M18.2705 7.68604H48.4974C48.8508 7.68604 49.1897 7.82642 49.4396 8.07631C49.6895 8.3262 49.8299 8.66513 49.8299 9.01853V26.1833C49.8299 26.5367 49.6895 26.8756 49.4396 27.1255C49.1897 27.3754 48.8508 27.5158 48.4974 27.5158H18.2705C17.9171 27.5158 17.5782 27.3754 17.3283 27.1255C17.0784 26.8756 16.938 26.5367 16.938 26.1833V9.01853C16.938 8.66513 17.0784 8.3262 17.3283 8.07631C17.5782 7.82642 17.9171 7.68604 18.2705 7.68604Z" fill="#C0D1F5" stroke="#6B94E7" stroke-width="0.740274"/>
<path d="M50.6251 30.4009H15.7915C14.5856 30.4009 13.6077 29.2165 13.6069 27.7508V27.5176H52.8052V27.7508C52.8037 29.2121 51.8295 30.3972 50.6251 30.4009Z" fill="white" stroke="#6B94E7" stroke-width="0.740274" stroke-miterlimit="10"/>
<path d="M36.2101 29.2511H30.4915C30.3369 29.2506 30.1885 29.1907 30.077 29.0838C29.9655 28.9768 29.8994 28.831 29.8926 28.6766V28.6685H36.8104V28.6744C36.804 28.8293 36.7379 28.9758 36.626 29.0833C36.5142 29.1907 36.3652 29.2508 36.2101 29.2511Z" fill="#6B94E7"/>
<path d="M72.1774 11.8389H63.3311C62.8209 11.8389 62.4072 12.2525 62.4072 12.7627V29.165C62.4072 29.6752 62.8209 30.0889 63.3311 30.0889H72.1774C72.6876 30.0889 73.1012 29.6752 73.1012 29.165V12.7627C73.1012 12.2525 72.6876 11.8389 72.1774 11.8389Z" fill="white"/>
<path d="M73.4166 27.0515H62.4072V13.0196C62.4071 12.8227 62.4458 12.6278 62.5211 12.446C62.5963 12.2641 62.7067 12.0988 62.8458 11.9596C62.9849 11.8204 63.1502 11.71 63.332 11.6346C63.5138 11.5593 63.7087 11.5205 63.9055 11.5205H71.8213C72.2444 11.5205 72.6502 11.6886 72.9493 11.9878C73.2485 12.2869 73.4166 12.6927 73.4166 13.1158V27.0515Z" fill="#C0D1F5"/>
<path d="M67.7552 29.1573C68.2016 29.1573 68.5635 28.7954 68.5635 28.3489C68.5635 27.9025 68.2016 27.5405 67.7552 27.5405C67.3087 27.5405 66.9468 27.9025 66.9468 28.3489C66.9468 28.7954 67.3087 29.1573 67.7552 29.1573Z" fill="#6B94E7"/>
<path d="M68.9115 12.7524H66.5959C66.5149 12.7524 66.4372 12.7846 66.38 12.8419C66.3227 12.8991 66.2905 12.9768 66.2905 13.0578C66.2905 13.1388 66.3227 13.2165 66.38 13.2737C66.4372 13.331 66.5149 13.3632 66.5959 13.3632H68.9115C68.9925 13.3632 69.0701 13.331 69.1274 13.2737C69.1847 13.2165 69.2168 13.1388 69.2168 13.0578C69.2168 12.9768 69.1847 12.8991 69.1274 12.8419C69.0701 12.7846 68.9925 12.7524 68.9115 12.7524Z" fill="#6B94E7"/>
<path d="M71.9634 30.3997H63.5435C63.1586 30.3993 62.7896 30.2463 62.5174 29.9741C62.2453 29.702 62.0922 29.3329 62.0918 28.9481V12.9722C62.0922 12.5873 62.2453 12.2183 62.5174 11.9461C62.7896 11.674 63.1586 11.5209 63.5435 11.5205H71.9634C72.3484 11.5207 72.7177 11.6737 72.9902 11.9458C73.2626 12.218 73.4159 12.5871 73.4165 12.9722V28.9481C73.4159 29.3331 73.2626 29.7022 72.9902 29.9744C72.7177 30.2466 72.3484 30.3995 71.9634 30.3997ZM63.5442 11.8359C63.2428 11.8361 62.9538 11.9558 62.7407 12.1689C62.5275 12.3819 62.4075 12.6708 62.4072 12.9722V28.9481C62.4075 29.2496 62.5274 29.5386 62.7406 29.7519C62.9537 29.9652 63.2427 30.0853 63.5442 30.0858H71.9634C72.2649 30.0855 72.554 29.9654 72.7672 29.7521C72.9804 29.5388 73.1002 29.2496 73.1004 28.9481V12.9722C73.1 12.6708 72.9801 12.3819 72.7669 12.1689C72.5537 11.9558 72.2647 11.8361 71.9634 11.8359H63.5442Z" fill="#6B94E7" stroke="#6B94E7" stroke-width="0.4" stroke-miterlimit="10"/>
<path d="M0.742188 46.4009V39.2427H2.16797L3.8623 44.311C4.01855 44.783 4.13249 45.1362 4.2041 45.3706C4.28548 45.1102 4.41243 44.7277 4.58496 44.2231L6.29883 39.2427H7.57324V46.4009H6.66016V40.4097L4.58008 46.4009H3.72559L1.65527 40.3071V46.4009H0.742188ZM12.373 45.7612C12.0475 46.0379 11.7334 46.2332 11.4307 46.3472C11.1312 46.4611 10.8089 46.5181 10.4639 46.5181C9.89421 46.5181 9.45638 46.3797 9.15039 46.103C8.8444 45.8231 8.69141 45.4666 8.69141 45.0337C8.69141 44.7798 8.74837 44.5487 8.8623 44.3403C8.97949 44.1287 9.13086 43.9595 9.31641 43.8325C9.50521 43.7056 9.7168 43.6095 9.95117 43.5444C10.1237 43.4989 10.3841 43.4549 10.7324 43.4126C11.4421 43.328 11.9645 43.2271 12.2998 43.1099C12.3031 42.9894 12.3047 42.9129 12.3047 42.8804C12.3047 42.5223 12.2217 42.27 12.0557 42.1235C11.8311 41.925 11.4974 41.8257 11.0547 41.8257C10.6413 41.8257 10.3353 41.8989 10.1367 42.0454C9.94141 42.1886 9.79655 42.4442 9.70215 42.812L8.84277 42.6948C8.9209 42.327 9.04948 42.0308 9.22852 41.8062C9.40755 41.5783 9.66634 41.4041 10.0049 41.2837C10.3434 41.16 10.7357 41.0981 11.1816 41.0981C11.6243 41.0981 11.984 41.1502 12.2607 41.2544C12.5374 41.3586 12.7409 41.4904 12.8711 41.6499C13.0013 41.8062 13.0924 42.0047 13.1445 42.2456C13.1738 42.3953 13.1885 42.6655 13.1885 43.0562V44.228C13.1885 45.0451 13.2064 45.5627 13.2422 45.7808C13.2812 45.9956 13.3561 46.2023 13.4668 46.4009H12.5488C12.4577 46.2186 12.3991 46.0054 12.373 45.7612ZM12.2998 43.7983C11.9808 43.9285 11.5023 44.0392 10.8643 44.1304C10.5029 44.1825 10.2474 44.241 10.0977 44.3062C9.94792 44.3713 9.83236 44.4673 9.75098 44.5942C9.6696 44.7179 9.62891 44.8563 9.62891 45.0093C9.62891 45.2437 9.7168 45.439 9.89258 45.5952C10.0716 45.7515 10.332 45.8296 10.6738 45.8296C11.0124 45.8296 11.3135 45.7563 11.5771 45.6099C11.8408 45.4601 12.0345 45.2567 12.1582 44.9995C12.2526 44.8009 12.2998 44.508 12.2998 44.1206V43.7983ZM14.5557 46.4009V41.2153H15.3467V41.9526C15.7275 41.383 16.2777 41.0981 16.9971 41.0981C17.3096 41.0981 17.596 41.1551 17.8564 41.269C18.1201 41.3797 18.3171 41.5262 18.4473 41.7085C18.5775 41.8908 18.6686 42.1073 18.7207 42.3579C18.7533 42.5207 18.7695 42.8055 18.7695 43.2124V46.4009H17.8906V43.2466C17.8906 42.8885 17.8564 42.6216 17.7881 42.4458C17.7197 42.2668 17.5977 42.1252 17.4219 42.021C17.2493 41.9136 17.0459 41.8599 16.8115 41.8599C16.4372 41.8599 16.1133 41.9787 15.8398 42.2163C15.5697 42.4539 15.4346 42.9048 15.4346 43.5688V46.4009H14.5557ZM23.5059 45.7612C23.1803 46.0379 22.8662 46.2332 22.5635 46.3472C22.264 46.4611 21.9417 46.5181 21.5967 46.5181C21.027 46.5181 20.5892 46.3797 20.2832 46.103C19.9772 45.8231 19.8242 45.4666 19.8242 45.0337C19.8242 44.7798 19.8812 44.5487 19.9951 44.3403C20.1123 44.1287 20.2637 43.9595 20.4492 43.8325C20.638 43.7056 20.8496 43.6095 21.084 43.5444C21.2565 43.4989 21.5169 43.4549 21.8652 43.4126C22.5749 43.328 23.0973 43.2271 23.4326 43.1099C23.4359 42.9894 23.4375 42.9129 23.4375 42.8804C23.4375 42.5223 23.3545 42.27 23.1885 42.1235C22.9639 41.925 22.6302 41.8257 22.1875 41.8257C21.7741 41.8257 21.4681 41.8989 21.2695 42.0454C21.0742 42.1886 20.9294 42.4442 20.835 42.812L19.9756 42.6948C20.0537 42.327 20.1823 42.0308 20.3613 41.8062C20.5404 41.5783 20.7992 41.4041 21.1377 41.2837C21.4762 41.16 21.8685 41.0981 22.3145 41.0981C22.7572 41.0981 23.1169 41.1502 23.3936 41.2544C23.6702 41.3586 23.8737 41.4904 24.0039 41.6499C24.1341 41.8062 24.2253 42.0047 24.2773 42.2456C24.3066 42.3953 24.3213 42.6655 24.3213 43.0562V44.228C24.3213 45.0451 24.3392 45.5627 24.375 45.7808C24.4141 45.9956 24.4889 46.2023 24.5996 46.4009H23.6816C23.5905 46.2186 23.5319 46.0054 23.5059 45.7612ZM23.4326 43.7983C23.1136 43.9285 22.6351 44.0392 21.9971 44.1304C21.6357 44.1825 21.3802 44.241 21.2305 44.3062C21.0807 44.3713 20.9652 44.4673 20.8838 44.5942C20.8024 44.7179 20.7617 44.8563 20.7617 45.0093C20.7617 45.2437 20.8496 45.439 21.0254 45.5952C21.2044 45.7515 21.4648 45.8296 21.8066 45.8296C22.1452 45.8296 22.4463 45.7563 22.71 45.6099C22.9736 45.4601 23.1673 45.2567 23.291 44.9995C23.3854 44.8009 23.4326 44.508 23.4326 44.1206V43.7983ZM25.5273 46.8306L26.3818 46.9575C26.4176 47.2212 26.5169 47.4132 26.6797 47.5337C26.8978 47.6965 27.1956 47.7778 27.5732 47.7778C27.9801 47.7778 28.2943 47.6965 28.5156 47.5337C28.737 47.3709 28.8867 47.1431 28.9648 46.8501C29.0104 46.6711 29.0316 46.2951 29.0283 45.7222C28.6442 46.1746 28.1657 46.4009 27.5928 46.4009C26.8799 46.4009 26.3281 46.1437 25.9375 45.6294C25.5469 45.1151 25.3516 44.4982 25.3516 43.7788C25.3516 43.284 25.4411 42.8283 25.6201 42.4116C25.7992 41.9917 26.0579 41.6678 26.3965 41.4399C26.7383 41.2121 27.1387 41.0981 27.5977 41.0981C28.2096 41.0981 28.7142 41.3455 29.1113 41.8403V41.2153H29.9219V45.6978C29.9219 46.505 29.8389 47.0763 29.6729 47.4116C29.5101 47.7502 29.2497 48.0171 28.8916 48.2124C28.5368 48.4077 28.099 48.5054 27.5781 48.5054C26.9596 48.5054 26.46 48.3654 26.0791 48.0854C25.6982 47.8088 25.5143 47.3905 25.5273 46.8306ZM26.2549 43.7153C26.2549 44.3957 26.39 44.8921 26.6602 45.2046C26.9303 45.5171 27.2689 45.6733 27.6758 45.6733C28.0794 45.6733 28.418 45.5187 28.6914 45.2095C28.9648 44.897 29.1016 44.4087 29.1016 43.7446C29.1016 43.1099 28.96 42.6313 28.6768 42.3091C28.3968 41.9868 28.0583 41.8257 27.6611 41.8257C27.2705 41.8257 26.9385 41.9852 26.665 42.3042C26.3916 42.62 26.2549 43.0903 26.2549 43.7153ZM34.8047 44.731L35.7129 44.8433C35.5697 45.3739 35.3044 45.7856 34.917 46.0786C34.5296 46.3716 34.0348 46.5181 33.4326 46.5181C32.6742 46.5181 32.0719 46.2853 31.626 45.8198C31.1833 45.3511 30.9619 44.6951 30.9619 43.8521C30.9619 42.9797 31.1865 42.3026 31.6357 41.8208C32.085 41.339 32.6676 41.0981 33.3838 41.0981C34.0771 41.0981 34.6436 41.3341 35.083 41.8062C35.5225 42.2782 35.7422 42.9422 35.7422 43.7983C35.7422 43.8504 35.7406 43.9285 35.7373 44.0327H31.8701C31.9027 44.6024 32.0638 45.0386 32.3535 45.3413C32.6432 45.644 33.0046 45.7954 33.4375 45.7954C33.7598 45.7954 34.0348 45.7108 34.2627 45.5415C34.4906 45.3722 34.6712 45.1021 34.8047 44.731ZM31.9189 43.3101H34.8145C34.7754 42.8739 34.6647 42.5467 34.4824 42.3286C34.2025 41.9901 33.8395 41.8208 33.3936 41.8208C32.9899 41.8208 32.6497 41.9559 32.373 42.2261C32.0996 42.4963 31.9482 42.8576 31.9189 43.3101ZM40.1855 46.4009V45.7466C39.8568 46.2609 39.3734 46.5181 38.7354 46.5181C38.3219 46.5181 37.9411 46.4041 37.5928 46.1763C37.2477 45.9484 36.9792 45.631 36.7871 45.2241C36.5983 44.814 36.5039 44.3436 36.5039 43.813C36.5039 43.2954 36.5902 42.8267 36.7627 42.4067C36.9352 41.9836 37.194 41.6597 37.5391 41.4351C37.8841 41.2104 38.2699 41.0981 38.6963 41.0981C39.0088 41.0981 39.2871 41.1649 39.5312 41.2983C39.7754 41.4285 39.974 41.5994 40.127 41.811V39.2427H41.001V46.4009H40.1855ZM37.4072 43.813C37.4072 44.4771 37.5472 44.9735 37.8271 45.3022C38.1071 45.631 38.4375 45.7954 38.8184 45.7954C39.2025 45.7954 39.528 45.6392 39.7949 45.3267C40.0651 45.0109 40.2002 44.5308 40.2002 43.8862C40.2002 43.1766 40.0635 42.6558 39.79 42.3237C39.5166 41.9917 39.1797 41.8257 38.7793 41.8257C38.3887 41.8257 38.0615 41.9852 37.7979 42.3042C37.5374 42.6232 37.4072 43.1261 37.4072 43.813ZM45.3027 46.4009V39.2427H50.4785V40.0874H46.25V42.2798H50.21V43.1196H46.25V45.5562H50.6445V46.4009H45.3027ZM51.8408 46.4009V41.2153H52.6318V41.9526C53.0127 41.383 53.5628 41.0981 54.2822 41.0981C54.5947 41.0981 54.8812 41.1551 55.1416 41.269C55.4053 41.3797 55.6022 41.5262 55.7324 41.7085C55.8626 41.8908 55.9538 42.1073 56.0059 42.3579C56.0384 42.5207 56.0547 42.8055 56.0547 43.2124V46.4009H55.1758V43.2466C55.1758 42.8885 55.1416 42.6216 55.0732 42.4458C55.0049 42.2668 54.8828 42.1252 54.707 42.021C54.5345 41.9136 54.3311 41.8599 54.0967 41.8599C53.7223 41.8599 53.3984 41.9787 53.125 42.2163C52.8548 42.4539 52.7197 42.9048 52.7197 43.5688V46.4009H51.8408ZM60.7715 46.4009V45.7466C60.4427 46.2609 59.9593 46.5181 59.3213 46.5181C58.9079 46.5181 58.527 46.4041 58.1787 46.1763C57.8337 45.9484 57.5651 45.631 57.373 45.2241C57.1842 44.814 57.0898 44.3436 57.0898 43.813C57.0898 43.2954 57.1761 42.8267 57.3486 42.4067C57.5212 41.9836 57.7799 41.6597 58.125 41.4351C58.4701 41.2104 58.8558 41.0981 59.2822 41.0981C59.5947 41.0981 59.873 41.1649 60.1172 41.2983C60.3613 41.4285 60.5599 41.5994 60.7129 41.811V39.2427H61.5869V46.4009H60.7715ZM57.9932 43.813C57.9932 44.4771 58.1331 44.9735 58.4131 45.3022C58.693 45.631 59.0234 45.7954 59.4043 45.7954C59.7884 45.7954 60.1139 45.6392 60.3809 45.3267C60.651 45.0109 60.7861 44.5308 60.7861 43.8862C60.7861 43.1766 60.6494 42.6558 60.376 42.3237C60.1025 41.9917 59.7656 41.8257 59.3652 41.8257C58.9746 41.8257 58.6475 41.9852 58.3838 42.3042C58.1234 42.6232 57.9932 43.1261 57.9932 43.813ZM62.9736 48.3882V41.2153H63.7744V41.8892C63.9632 41.6255 64.1764 41.4285 64.4141 41.2983C64.6517 41.1649 64.9398 41.0981 65.2783 41.0981C65.721 41.0981 66.1117 41.2121 66.4502 41.4399C66.7887 41.6678 67.0443 41.9901 67.2168 42.4067C67.3893 42.8201 67.4756 43.2743 67.4756 43.769C67.4756 44.2996 67.3796 44.7782 67.1875 45.2046C66.9987 45.6278 66.722 45.9533 66.3574 46.1812C65.9961 46.4058 65.6152 46.5181 65.2148 46.5181C64.9219 46.5181 64.6582 46.4562 64.4238 46.3325C64.1927 46.2088 64.0023 46.0526 63.8525 45.8638V48.3882H62.9736ZM63.7695 43.8374C63.7695 44.5047 63.9046 44.9979 64.1748 45.3169C64.445 45.6359 64.7721 45.7954 65.1562 45.7954C65.5469 45.7954 65.8805 45.631 66.1572 45.3022C66.4372 44.9702 66.5771 44.4575 66.5771 43.7642C66.5771 43.1034 66.4404 42.6086 66.167 42.2798C65.8968 41.951 65.5729 41.7866 65.1953 41.7866C64.821 41.7866 64.4889 41.9624 64.1992 42.314C63.9128 42.6623 63.7695 43.1701 63.7695 43.8374ZM68.2129 43.8081C68.2129 42.8478 68.4798 42.1366 69.0137 41.6743C69.4596 41.2902 70.0033 41.0981 70.6445 41.0981C71.3574 41.0981 71.9401 41.3325 72.3926 41.8013C72.8451 42.2668 73.0713 42.9113 73.0713 43.7349C73.0713 44.4022 72.9704 44.9279 72.7686 45.312C72.57 45.6929 72.2786 45.9891 71.8945 46.2007C71.5137 46.4123 71.097 46.5181 70.6445 46.5181C69.9186 46.5181 69.3311 46.2853 68.8818 45.8198C68.4359 45.3543 68.2129 44.6838 68.2129 43.8081ZM69.1162 43.8081C69.1162 44.4722 69.2611 44.9702 69.5508 45.3022C69.8405 45.631 70.2051 45.7954 70.6445 45.7954C71.0807 45.7954 71.4437 45.6294 71.7334 45.2974C72.0231 44.9653 72.168 44.4591 72.168 43.7788C72.168 43.1375 72.0215 42.6525 71.7285 42.3237C71.4388 41.9917 71.0775 41.8257 70.6445 41.8257C70.2051 41.8257 69.8405 41.9901 69.5508 42.3188C69.2611 42.6476 69.1162 43.144 69.1162 43.8081ZM74.1113 40.2534V39.2427H74.9902V40.2534H74.1113ZM74.1113 46.4009V41.2153H74.9902V46.4009H74.1113ZM76.333 46.4009V41.2153H77.124V41.9526C77.5049 41.383 78.055 41.0981 78.7744 41.0981C79.0869 41.0981 79.3734 41.1551 79.6338 41.269C79.8975 41.3797 80.0944 41.5262 80.2246 41.7085C80.3548 41.8908 80.446 42.1073 80.498 42.3579C80.5306 42.5207 80.5469 42.8055 80.5469 43.2124V46.4009H79.668V43.2466C79.668 42.8885 79.6338 42.6216 79.5654 42.4458C79.4971 42.2668 79.375 42.1252 79.1992 42.021C79.0267 41.9136 78.8232 41.8599 78.5889 41.8599C78.2145 41.8599 77.8906 41.9787 77.6172 42.2163C77.347 42.4539 77.2119 42.9048 77.2119 43.5688V46.4009H76.333ZM83.8184 45.6147L83.9453 46.3911C83.6979 46.4432 83.4766 46.4692 83.2812 46.4692C82.9622 46.4692 82.7148 46.4188 82.5391 46.3179C82.3633 46.217 82.2396 46.0851 82.168 45.9224C82.0964 45.7563 82.0605 45.4097 82.0605 44.8823V41.8989H81.416V41.2153H82.0605V39.9312L82.9346 39.4038V41.2153H83.8184V41.8989H82.9346V44.9312C82.9346 45.1818 82.9492 45.3429 82.9785 45.4146C83.0111 45.4862 83.0615 45.5431 83.1299 45.5854C83.2015 45.6278 83.3024 45.6489 83.4326 45.6489C83.5303 45.6489 83.6589 45.6375 83.8184 45.6147ZM84.3311 44.853L85.2002 44.7163C85.249 45.0646 85.3841 45.3315 85.6055 45.5171C85.8301 45.7026 86.1426 45.7954 86.543 45.7954C86.9466 45.7954 87.2461 45.714 87.4414 45.5513C87.6367 45.3853 87.7344 45.1916 87.7344 44.9702C87.7344 44.7716 87.6481 44.6154 87.4756 44.5015C87.3551 44.4233 87.0557 44.3241 86.5771 44.2036C85.9326 44.0409 85.485 43.9009 85.2344 43.7837C84.987 43.6632 84.7982 43.4989 84.668 43.2905C84.541 43.0789 84.4775 42.8462 84.4775 42.5923C84.4775 42.3612 84.5296 42.1479 84.6338 41.9526C84.7412 41.7541 84.8861 41.5897 85.0684 41.4595C85.2051 41.3586 85.3906 41.2739 85.625 41.2056C85.8626 41.134 86.1165 41.0981 86.3867 41.0981C86.7936 41.0981 87.1501 41.1567 87.4561 41.2739C87.7653 41.3911 87.9932 41.5506 88.1396 41.7524C88.2861 41.951 88.387 42.2179 88.4424 42.5532L87.583 42.6704C87.5439 42.4035 87.43 42.1951 87.2412 42.0454C87.0557 41.8957 86.792 41.8208 86.4502 41.8208C86.0465 41.8208 85.7585 41.8875 85.5859 42.021C85.4134 42.1545 85.3271 42.3107 85.3271 42.4897C85.3271 42.6037 85.363 42.7062 85.4346 42.7974C85.5062 42.8918 85.6185 42.9699 85.7715 43.0317C85.8594 43.0643 86.1182 43.1392 86.5479 43.2563C87.1696 43.4224 87.6025 43.5591 87.8467 43.6665C88.0941 43.7707 88.2878 43.9237 88.4277 44.1255C88.5677 44.3273 88.6377 44.578 88.6377 44.8774C88.6377 45.1704 88.5514 45.4471 88.3789 45.7075C88.2096 45.9647 87.9639 46.1649 87.6416 46.3081C87.3193 46.4481 86.9548 46.5181 86.5479 46.5181C85.874 46.5181 85.3597 46.3781 85.0049 46.0981C84.6533 45.8182 84.4287 45.4032 84.3311 44.853Z" fill="#2A303D"/>
</svg>
