<svg width="90" height="64" viewBox="0 0 90 64" fill="none" xmlns="http://www.w3.org/2000/svg">
<path d="M50.7831 23.5479C50.7831 23.5479 48.3772 24.2734 48.0382 24.3882C47.6992 24.5029 46.4392 25.4297 46.4096 26.509C46.38 27.5884 44.8513 30.9581 47.195 30.0017C48.1804 30.1474 49.1819 30.1474 50.1672 30.0017C51.5863 29.7477 54.0233 30.4103 54.3935 30.0017C54.7636 29.593 54.8695 30.1031 54.6466 28.7217C54.4238 27.3404 54.6822 26.7859 54.5837 25.4593C54.4853 24.1328 54.7022 23.7634 53.9004 23.5472C52.8643 23.4352 51.8192 23.4354 50.7831 23.5479Z" fill="white"/>
<path d="M68.2418 2.03419C68.2418 1.64348 68.0866 1.26878 67.8103 0.992508C67.5341 0.716239 67.1594 0.561035 66.7687 0.561035H34.3994C34.0087 0.561035 33.634 0.716239 33.3577 0.992508C33.0815 1.26878 32.9263 1.64348 32.9263 2.03419V20.1902H68.2418V2.03419Z" fill="#C0D1F5"/>
<path d="M68.6401 20.59H32.5273V2.34221C32.5275 1.76394 32.7574 1.20943 33.1664 0.800598C33.5753 0.39177 34.1299 0.162109 34.7082 0.162109H66.46C67.0382 0.162109 67.5927 0.391794 68.0016 0.800644C68.4104 1.20949 68.6401 1.76401 68.6401 2.34221V20.59ZM33.3291 19.7912H67.8458V2.34221C67.8459 2.16059 67.8102 1.98074 67.7408 1.81292C67.6713 1.6451 67.5695 1.49261 67.441 1.36419C67.3126 1.23576 67.1601 1.1339 66.9923 1.06444C66.8245 0.994984 66.6446 0.959285 66.463 0.959382H34.7082C34.5266 0.959285 34.3467 0.994984 34.1789 1.06444C34.0111 1.1339 33.8586 1.23576 33.7302 1.36419C33.6017 1.49261 33.4999 1.6451 33.4304 1.81292C33.361 1.98074 33.3253 2.16059 33.3254 2.34221L33.3291 19.7912Z" fill="#6B94E7"/>
<path d="M35.8955 25.967H65.2711C65.6611 25.9671 66.0473 25.8904 66.4076 25.7412C66.7679 25.5921 67.0953 25.3734 67.3711 25.0976C67.6469 24.8219 67.8657 24.4945 68.015 24.1342C68.1642 23.774 68.2411 23.3878 68.2411 22.9978V20.1899H32.9263V22.9978C32.9263 23.7853 33.2391 24.5405 33.7959 25.0974C34.3528 25.6542 35.108 25.967 35.8955 25.967Z" fill="white"/>
<path d="M65.2712 26.3676H35.8963C35.0031 26.3666 34.1468 26.0114 33.5152 25.3798C32.8836 24.7482 32.5283 23.8918 32.5273 22.9986V19.791H68.6401V22.9986C68.6392 23.8918 68.2839 24.7482 67.6523 25.3798C67.0207 26.0114 66.1644 26.3666 65.2712 26.3676ZM33.3254 20.5935V23.0023C33.3261 23.6838 33.5972 24.3372 34.079 24.8192C34.5608 25.3011 35.2141 25.5723 35.8956 25.5733H65.2712C65.9528 25.5725 66.6063 25.3014 67.0882 24.8194C67.5702 24.3374 67.8413 23.6839 67.8421 23.0023V20.5935H33.3254Z" fill="#6B94E7"/>
<path d="M45.5155 30.3763L45.2505 29.6234C45.8227 29.4213 45.9863 28.527 46.0085 28.3842V25.748H46.8058V28.4597C46.7962 28.5219 46.6074 29.9906 45.5155 30.3763Z" fill="#6B94E7"/>
<path d="M55.4726 30.377C54.3807 29.9913 54.1927 28.5219 54.186 28.4604V28.413V25.748H54.9841V28.3856C55.027 28.6892 55.2372 29.4457 55.7421 29.6234L55.4726 30.377Z" fill="#6B94E7"/>
<path d="M56.3146 29.5996H44.6753V30.3976H56.3146V29.5996Z" fill="#6B94E7"/>
<path d="M18.2705 7.68604H48.4974C48.8508 7.68604 49.1897 7.82642 49.4396 8.07631C49.6895 8.3262 49.8299 8.66513 49.8299 9.01853V26.1833C49.8299 26.5367 49.6895 26.8756 49.4396 27.1255C49.1897 27.3754 48.8508 27.5158 48.4974 27.5158H18.2705C17.9171 27.5158 17.5782 27.3754 17.3283 27.1255C17.0784 26.8756 16.938 26.5367 16.938 26.1833V9.01853C16.938 8.66513 17.0784 8.3262 17.3283 8.07631C17.5782 7.82642 17.9171 7.68604 18.2705 7.68604Z" fill="#C0D1F5" stroke="#6B94E7" stroke-width="0.740274"/>
<path d="M50.6251 30.4009H15.7915C14.5856 30.4009 13.6077 29.2165 13.6069 27.7508V27.5176H52.8052V27.7508C52.8037 29.2121 51.8295 30.3972 50.6251 30.4009Z" fill="white" stroke="#6B94E7" stroke-width="0.740274" stroke-miterlimit="10"/>
<path d="M36.2101 29.2511H30.4915C30.3369 29.2506 30.1885 29.1907 30.077 29.0838C29.9655 28.9768 29.8994 28.831 29.8926 28.6766V28.6685H36.8104V28.6744C36.804 28.8293 36.7379 28.9758 36.626 29.0833C36.5142 29.1907 36.3652 29.2508 36.2101 29.2511Z" fill="#6B94E7"/>
<path d="M72.1774 11.8389H63.3311C62.8209 11.8389 62.4072 12.2525 62.4072 12.7627V29.165C62.4072 29.6752 62.8209 30.0889 63.3311 30.0889H72.1774C72.6876 30.0889 73.1012 29.6752 73.1012 29.165V12.7627C73.1012 12.2525 72.6876 11.8389 72.1774 11.8389Z" fill="white"/>
<path d="M73.4166 27.0515H62.4072V13.0196C62.4071 12.8227 62.4458 12.6278 62.5211 12.446C62.5963 12.2641 62.7067 12.0988 62.8458 11.9596C62.9849 11.8204 63.1502 11.71 63.332 11.6346C63.5138 11.5593 63.7087 11.5205 63.9055 11.5205H71.8213C72.2444 11.5205 72.6502 11.6886 72.9493 11.9878C73.2485 12.2869 73.4166 12.6927 73.4166 13.1158V27.0515Z" fill="#C0D1F5"/>
<path d="M67.7552 29.1573C68.2016 29.1573 68.5635 28.7954 68.5635 28.3489C68.5635 27.9025 68.2016 27.5405 67.7552 27.5405C67.3087 27.5405 66.9468 27.9025 66.9468 28.3489C66.9468 28.7954 67.3087 29.1573 67.7552 29.1573Z" fill="#6B94E7"/>
<path d="M68.9115 12.7524H66.5959C66.5149 12.7524 66.4372 12.7846 66.38 12.8419C66.3227 12.8991 66.2905 12.9768 66.2905 13.0578C66.2905 13.1388 66.3227 13.2165 66.38 13.2737C66.4372 13.331 66.5149 13.3632 66.5959 13.3632H68.9115C68.9925 13.3632 69.0701 13.331 69.1274 13.2737C69.1847 13.2165 69.2168 13.1388 69.2168 13.0578C69.2168 12.9768 69.1847 12.8991 69.1274 12.8419C69.0701 12.7846 68.9925 12.7524 68.9115 12.7524Z" fill="#6B94E7"/>
<path d="M71.9634 30.3997H63.5435C63.1586 30.3993 62.7896 30.2463 62.5174 29.9741C62.2453 29.702 62.0922 29.3329 62.0918 28.9481V12.9722C62.0922 12.5873 62.2453 12.2183 62.5174 11.9461C62.7896 11.674 63.1586 11.5209 63.5435 11.5205H71.9634C72.3484 11.5207 72.7177 11.6737 72.9902 11.9458C73.2626 12.218 73.4159 12.5871 73.4165 12.9722V28.9481C73.4159 29.3331 73.2626 29.7022 72.9902 29.9744C72.7177 30.2466 72.3484 30.3995 71.9634 30.3997ZM63.5442 11.8359C63.2428 11.8361 62.9538 11.9558 62.7407 12.1689C62.5275 12.3819 62.4075 12.6708 62.4072 12.9722V28.9481C62.4075 29.2496 62.5274 29.5386 62.7406 29.7519C62.9537 29.9652 63.2427 30.0853 63.5442 30.0858H71.9634C72.2649 30.0855 72.554 29.9654 72.7672 29.7521C72.9804 29.5388 73.1002 29.2496 73.1004 28.9481V12.9722C73.1 12.6708 72.9801 12.3819 72.7669 12.1689C72.5537 11.9558 72.2647 11.8361 71.9634 11.8359H63.5442Z" fill="#6B94E7" stroke="#6B94E7" stroke-width="0.4" stroke-miterlimit="10"/>
<path d="M1.23047 47.4009V40.2427H2.65625L4.35059 45.311C4.50684 45.783 4.62077 46.1362 4.69238 46.3706C4.77376 46.1102 4.90072 45.7277 5.07324 45.2231L6.78711 40.2427H8.06152V47.4009H7.14844V41.4097L5.06836 47.4009H4.21387L2.14355 41.3071V47.4009H1.23047ZM12.8613 46.7612C12.5358 47.0379 12.2217 47.2332 11.9189 47.3472C11.6195 47.4611 11.2972 47.5181 10.9521 47.5181C10.3825 47.5181 9.94466 47.3797 9.63867 47.103C9.33268 46.8231 9.17969 46.4666 9.17969 46.0337C9.17969 45.7798 9.23665 45.5487 9.35059 45.3403C9.46777 45.1287 9.61914 44.9595 9.80469 44.8325C9.99349 44.7056 10.2051 44.6095 10.4395 44.5444C10.612 44.4989 10.8724 44.4549 11.2207 44.4126C11.9303 44.328 12.4528 44.2271 12.7881 44.1099C12.7913 43.9894 12.793 43.9129 12.793 43.8804C12.793 43.5223 12.71 43.27 12.5439 43.1235C12.3193 42.925 11.9857 42.8257 11.543 42.8257C11.1296 42.8257 10.8236 42.8989 10.625 43.0454C10.4297 43.1886 10.2848 43.4442 10.1904 43.812L9.33105 43.6948C9.40918 43.327 9.53776 43.0308 9.7168 42.8062C9.89583 42.5783 10.1546 42.4041 10.4932 42.2837C10.8317 42.16 11.224 42.0981 11.6699 42.0981C12.1126 42.0981 12.4723 42.1502 12.749 42.2544C13.0257 42.3586 13.2292 42.4904 13.3594 42.6499C13.4896 42.8062 13.5807 43.0047 13.6328 43.2456C13.6621 43.3953 13.6768 43.6655 13.6768 44.0562V45.228C13.6768 46.0451 13.6947 46.5627 13.7305 46.7808C13.7695 46.9956 13.8444 47.2023 13.9551 47.4009H13.0371C12.946 47.2186 12.8874 47.0054 12.8613 46.7612ZM12.7881 44.7983C12.4691 44.9285 11.9906 45.0392 11.3525 45.1304C10.9912 45.1825 10.7357 45.241 10.5859 45.3062C10.4362 45.3713 10.3206 45.4673 10.2393 45.5942C10.1579 45.7179 10.1172 45.8563 10.1172 46.0093C10.1172 46.2437 10.2051 46.439 10.3809 46.5952C10.5599 46.7515 10.8203 46.8296 11.1621 46.8296C11.5007 46.8296 11.8018 46.7563 12.0654 46.6099C12.3291 46.4601 12.5228 46.2567 12.6465 45.9995C12.7409 45.8009 12.7881 45.508 12.7881 45.1206V44.7983ZM15.0439 47.4009V42.2153H15.835V42.9526C16.2158 42.383 16.766 42.0981 17.4854 42.0981C17.7979 42.0981 18.0843 42.1551 18.3447 42.269C18.6084 42.3797 18.8053 42.5262 18.9355 42.7085C19.0658 42.8908 19.1569 43.1073 19.209 43.3579C19.2415 43.5207 19.2578 43.8055 19.2578 44.2124V47.4009H18.3789V44.2466C18.3789 43.8885 18.3447 43.6216 18.2764 43.4458C18.208 43.2668 18.0859 43.1252 17.9102 43.021C17.7376 42.9136 17.5342 42.8599 17.2998 42.8599C16.9255 42.8599 16.6016 42.9787 16.3281 43.2163C16.0579 43.4539 15.9229 43.9048 15.9229 44.5688V47.4009H15.0439ZM23.9941 46.7612C23.6686 47.0379 23.3545 47.2332 23.0518 47.3472C22.7523 47.4611 22.43 47.5181 22.085 47.5181C21.5153 47.5181 21.0775 47.3797 20.7715 47.103C20.4655 46.8231 20.3125 46.4666 20.3125 46.0337C20.3125 45.7798 20.3695 45.5487 20.4834 45.3403C20.6006 45.1287 20.752 44.9595 20.9375 44.8325C21.1263 44.7056 21.3379 44.6095 21.5723 44.5444C21.7448 44.4989 22.0052 44.4549 22.3535 44.4126C23.0632 44.328 23.5856 44.2271 23.9209 44.1099C23.9242 43.9894 23.9258 43.9129 23.9258 43.8804C23.9258 43.5223 23.8428 43.27 23.6768 43.1235C23.4521 42.925 23.1185 42.8257 22.6758 42.8257C22.2624 42.8257 21.9564 42.8989 21.7578 43.0454C21.5625 43.1886 21.4176 43.4442 21.3232 43.812L20.4639 43.6948C20.542 43.327 20.6706 43.0308 20.8496 42.8062C21.0286 42.5783 21.2874 42.4041 21.626 42.2837C21.9645 42.16 22.3568 42.0981 22.8027 42.0981C23.2454 42.0981 23.6051 42.1502 23.8818 42.2544C24.1585 42.3586 24.362 42.4904 24.4922 42.6499C24.6224 42.8062 24.7135 43.0047 24.7656 43.2456C24.7949 43.3953 24.8096 43.6655 24.8096 44.0562V45.228C24.8096 46.0451 24.8275 46.5627 24.8633 46.7808C24.9023 46.9956 24.9772 47.2023 25.0879 47.4009H24.1699C24.0788 47.2186 24.0202 47.0054 23.9941 46.7612ZM23.9209 44.7983C23.6019 44.9285 23.1234 45.0392 22.4854 45.1304C22.124 45.1825 21.8685 45.241 21.7188 45.3062C21.569 45.3713 21.4535 45.4673 21.3721 45.5942C21.2907 45.7179 21.25 45.8563 21.25 46.0093C21.25 46.2437 21.3379 46.439 21.5137 46.5952C21.6927 46.7515 21.9531 46.8296 22.2949 46.8296C22.6335 46.8296 22.9346 46.7563 23.1982 46.6099C23.4619 46.4601 23.6556 46.2567 23.7793 45.9995C23.8737 45.8009 23.9209 45.508 23.9209 45.1206V44.7983ZM26.0156 47.8306L26.8701 47.9575C26.9059 48.2212 27.0052 48.4132 27.168 48.5337C27.3861 48.6965 27.6839 48.7778 28.0615 48.7778C28.4684 48.7778 28.7826 48.6965 29.0039 48.5337C29.2253 48.3709 29.375 48.1431 29.4531 47.8501C29.4987 47.6711 29.5199 47.2951 29.5166 46.7222C29.1325 47.1746 28.654 47.4009 28.0811 47.4009C27.3682 47.4009 26.8164 47.1437 26.4258 46.6294C26.0352 46.1151 25.8398 45.4982 25.8398 44.7788C25.8398 44.284 25.9294 43.8283 26.1084 43.4116C26.2874 42.9917 26.5462 42.6678 26.8848 42.4399C27.2266 42.2121 27.627 42.0981 28.0859 42.0981C28.6979 42.0981 29.2025 42.3455 29.5996 42.8403V42.2153H30.4102V46.6978C30.4102 47.505 30.3271 48.0763 30.1611 48.4116C29.9984 48.7502 29.738 49.0171 29.3799 49.2124C29.0251 49.4077 28.5872 49.5054 28.0664 49.5054C27.4479 49.5054 26.9482 49.3654 26.5674 49.0854C26.1865 48.8088 26.0026 48.3905 26.0156 47.8306ZM26.7432 44.7153C26.7432 45.3957 26.8783 45.8921 27.1484 46.2046C27.4186 46.5171 27.7572 46.6733 28.1641 46.6733C28.5677 46.6733 28.9062 46.5187 29.1797 46.2095C29.4531 45.897 29.5898 45.4087 29.5898 44.7446C29.5898 44.1099 29.4482 43.6313 29.165 43.3091C28.8851 42.9868 28.5465 42.8257 28.1494 42.8257C27.7588 42.8257 27.4268 42.9852 27.1533 43.3042C26.8799 43.62 26.7432 44.0903 26.7432 44.7153ZM35.293 45.731L36.2012 45.8433C36.0579 46.3739 35.7926 46.7856 35.4053 47.0786C35.0179 47.3716 34.5231 47.5181 33.9209 47.5181C33.1624 47.5181 32.5602 47.2853 32.1143 46.8198C31.6715 46.3511 31.4502 45.6951 31.4502 44.8521C31.4502 43.9797 31.6748 43.3026 32.124 42.8208C32.5732 42.339 33.1559 42.0981 33.8721 42.0981C34.5654 42.0981 35.1318 42.3341 35.5713 42.8062C36.0107 43.2782 36.2305 43.9422 36.2305 44.7983C36.2305 44.8504 36.2288 44.9285 36.2256 45.0327H32.3584C32.391 45.6024 32.5521 46.0386 32.8418 46.3413C33.1315 46.644 33.4928 46.7954 33.9258 46.7954C34.248 46.7954 34.5231 46.7108 34.751 46.5415C34.9788 46.3722 35.1595 46.1021 35.293 45.731ZM32.4072 44.3101H35.3027C35.2637 43.8739 35.153 43.5467 34.9707 43.3286C34.6908 42.9901 34.3278 42.8208 33.8818 42.8208C33.4782 42.8208 33.138 42.9559 32.8613 43.2261C32.5879 43.4963 32.4365 43.8576 32.4072 44.3101ZM40.6738 47.4009V46.7466C40.3451 47.2609 39.8617 47.5181 39.2236 47.5181C38.8102 47.5181 38.4294 47.4041 38.0811 47.1763C37.736 46.9484 37.4674 46.631 37.2754 46.2241C37.0866 45.814 36.9922 45.3436 36.9922 44.813C36.9922 44.2954 37.0785 43.8267 37.251 43.4067C37.4235 42.9836 37.6823 42.6597 38.0273 42.4351C38.3724 42.2104 38.7581 42.0981 39.1846 42.0981C39.4971 42.0981 39.7754 42.1649 40.0195 42.2983C40.2637 42.4285 40.4622 42.5994 40.6152 42.811V40.2427H41.4893V47.4009H40.6738ZM37.8955 44.813C37.8955 45.4771 38.0355 45.9735 38.3154 46.3022C38.5954 46.631 38.9258 46.7954 39.3066 46.7954C39.6908 46.7954 40.0163 46.6392 40.2832 46.3267C40.5534 46.0109 40.6885 45.5308 40.6885 44.8862C40.6885 44.1766 40.5518 43.6558 40.2783 43.3237C40.0049 42.9917 39.668 42.8257 39.2676 42.8257C38.877 42.8257 38.5498 42.9852 38.2861 43.3042C38.0257 43.6232 37.8955 44.1261 37.8955 44.813ZM45.791 47.4009V40.2427H50.9668V41.0874H46.7383V43.2798H50.6982V44.1196H46.7383V46.5562H51.1328V47.4009H45.791ZM52.3291 47.4009V42.2153H53.1201V42.9526C53.501 42.383 54.0511 42.0981 54.7705 42.0981C55.083 42.0981 55.3695 42.1551 55.6299 42.269C55.8936 42.3797 56.0905 42.5262 56.2207 42.7085C56.3509 42.8908 56.4421 43.1073 56.4941 43.3579C56.5267 43.5207 56.543 43.8055 56.543 44.2124V47.4009H55.6641V44.2466C55.6641 43.8885 55.6299 43.6216 55.5615 43.4458C55.4932 43.2668 55.3711 43.1252 55.1953 43.021C55.0228 42.9136 54.8193 42.8599 54.585 42.8599C54.2106 42.8599 53.8867 42.9787 53.6133 43.2163C53.3431 43.4539 53.208 43.9048 53.208 44.5688V47.4009H52.3291ZM61.2598 47.4009V46.7466C60.931 47.2609 60.4476 47.5181 59.8096 47.5181C59.3962 47.5181 59.0153 47.4041 58.667 47.1763C58.3219 46.9484 58.0534 46.631 57.8613 46.2241C57.6725 45.814 57.5781 45.3436 57.5781 44.813C57.5781 44.2954 57.6644 43.8267 57.8369 43.4067C58.0094 42.9836 58.2682 42.6597 58.6133 42.4351C58.9583 42.2104 59.3441 42.0981 59.7705 42.0981C60.083 42.0981 60.3613 42.1649 60.6055 42.2983C60.8496 42.4285 61.0482 42.5994 61.2012 42.811V40.2427H62.0752V47.4009H61.2598ZM58.4814 44.813C58.4814 45.4771 58.6214 45.9735 58.9014 46.3022C59.1813 46.631 59.5117 46.7954 59.8926 46.7954C60.2767 46.7954 60.6022 46.6392 60.8691 46.3267C61.1393 46.0109 61.2744 45.5308 61.2744 44.8862C61.2744 44.1766 61.1377 43.6558 60.8643 43.3237C60.5908 42.9917 60.2539 42.8257 59.8535 42.8257C59.4629 42.8257 59.1357 42.9852 58.8721 43.3042C58.6117 43.6232 58.4814 44.1261 58.4814 44.813ZM63.4619 49.3882V42.2153H64.2627V42.8892C64.4515 42.6255 64.6647 42.4285 64.9023 42.2983C65.14 42.1649 65.4281 42.0981 65.7666 42.0981C66.2093 42.0981 66.5999 42.2121 66.9385 42.4399C67.277 42.6678 67.5326 42.9901 67.7051 43.4067C67.8776 43.8201 67.9639 44.2743 67.9639 44.769C67.9639 45.2996 67.8678 45.7782 67.6758 46.2046C67.487 46.6278 67.2103 46.9533 66.8457 47.1812C66.4844 47.4058 66.1035 47.5181 65.7031 47.5181C65.4102 47.5181 65.1465 47.4562 64.9121 47.3325C64.681 47.2088 64.4906 47.0526 64.3408 46.8638V49.3882H63.4619ZM64.2578 44.8374C64.2578 45.5047 64.3929 45.9979 64.6631 46.3169C64.9333 46.6359 65.2604 46.7954 65.6445 46.7954C66.0352 46.7954 66.3688 46.631 66.6455 46.3022C66.9255 45.9702 67.0654 45.4575 67.0654 44.7642C67.0654 44.1034 66.9287 43.6086 66.6553 43.2798C66.3851 42.951 66.0612 42.7866 65.6836 42.7866C65.3092 42.7866 64.9772 42.9624 64.6875 43.314C64.401 43.6623 64.2578 44.1701 64.2578 44.8374ZM68.7012 44.8081C68.7012 43.8478 68.9681 43.1366 69.502 42.6743C69.9479 42.2902 70.4915 42.0981 71.1328 42.0981C71.8457 42.0981 72.4284 42.3325 72.8809 42.8013C73.3333 43.2668 73.5596 43.9113 73.5596 44.7349C73.5596 45.4022 73.4587 45.9279 73.2568 46.312C73.0583 46.6929 72.7669 46.9891 72.3828 47.2007C72.002 47.4123 71.5853 47.5181 71.1328 47.5181C70.4069 47.5181 69.8193 47.2853 69.3701 46.8198C68.9242 46.3543 68.7012 45.6838 68.7012 44.8081ZM69.6045 44.8081C69.6045 45.4722 69.7493 45.9702 70.0391 46.3022C70.3288 46.631 70.6934 46.7954 71.1328 46.7954C71.569 46.7954 71.932 46.6294 72.2217 46.2974C72.5114 45.9653 72.6562 45.4591 72.6562 44.7788C72.6562 44.1375 72.5098 43.6525 72.2168 43.3237C71.9271 42.9917 71.5658 42.8257 71.1328 42.8257C70.6934 42.8257 70.3288 42.9901 70.0391 43.3188C69.7493 43.6476 69.6045 44.144 69.6045 44.8081ZM74.5996 41.2534V40.2427H75.4785V41.2534H74.5996ZM74.5996 47.4009V42.2153H75.4785V47.4009H74.5996ZM76.8213 47.4009V42.2153H77.6123V42.9526C77.9932 42.383 78.5433 42.0981 79.2627 42.0981C79.5752 42.0981 79.8617 42.1551 80.1221 42.269C80.3857 42.3797 80.5827 42.5262 80.7129 42.7085C80.8431 42.8908 80.9342 43.1073 80.9863 43.3579C81.0189 43.5207 81.0352 43.8055 81.0352 44.2124V47.4009H80.1562V44.2466C80.1562 43.8885 80.1221 43.6216 80.0537 43.4458C79.9854 43.2668 79.8633 43.1252 79.6875 43.021C79.515 42.9136 79.3115 42.8599 79.0771 42.8599C78.7028 42.8599 78.3789 42.9787 78.1055 43.2163C77.8353 43.4539 77.7002 43.9048 77.7002 44.5688V47.4009H76.8213ZM84.3066 46.6147L84.4336 47.3911C84.1862 47.4432 83.9648 47.4692 83.7695 47.4692C83.4505 47.4692 83.2031 47.4188 83.0273 47.3179C82.8516 47.217 82.7279 47.0851 82.6562 46.9224C82.5846 46.7563 82.5488 46.4097 82.5488 45.8823V42.8989H81.9043V42.2153H82.5488V40.9312L83.4229 40.4038V42.2153H84.3066V42.8989H83.4229V45.9312C83.4229 46.1818 83.4375 46.3429 83.4668 46.4146C83.4993 46.4862 83.5498 46.5431 83.6182 46.5854C83.6898 46.6278 83.7907 46.6489 83.9209 46.6489C84.0186 46.6489 84.1471 46.6375 84.3066 46.6147ZM84.8193 45.853L85.6885 45.7163C85.7373 46.0646 85.8724 46.3315 86.0938 46.5171C86.3184 46.7026 86.6309 46.7954 87.0312 46.7954C87.4349 46.7954 87.7344 46.714 87.9297 46.5513C88.125 46.3853 88.2227 46.1916 88.2227 45.9702C88.2227 45.7716 88.1364 45.6154 87.9639 45.5015C87.8434 45.4233 87.5439 45.3241 87.0654 45.2036C86.4209 45.0409 85.9733 44.9009 85.7227 44.7837C85.4753 44.6632 85.2865 44.4989 85.1562 44.2905C85.0293 44.0789 84.9658 43.8462 84.9658 43.5923C84.9658 43.3612 85.0179 43.1479 85.1221 42.9526C85.2295 42.7541 85.3743 42.5897 85.5566 42.4595C85.6934 42.3586 85.8789 42.2739 86.1133 42.2056C86.3509 42.134 86.6048 42.0981 86.875 42.0981C87.2819 42.0981 87.6383 42.1567 87.9443 42.2739C88.2536 42.3911 88.4814 42.5506 88.6279 42.7524C88.7744 42.951 88.8753 43.2179 88.9307 43.5532L88.0713 43.6704C88.0322 43.4035 87.9183 43.1951 87.7295 43.0454C87.5439 42.8957 87.2803 42.8208 86.9385 42.8208C86.5348 42.8208 86.2467 42.8875 86.0742 43.021C85.9017 43.1545 85.8154 43.3107 85.8154 43.4897C85.8154 43.6037 85.8512 43.7062 85.9229 43.7974C85.9945 43.8918 86.1068 43.9699 86.2598 44.0317C86.3477 44.0643 86.6064 44.1392 87.0361 44.2563C87.6579 44.4224 88.0908 44.5591 88.335 44.6665C88.5824 44.7707 88.776 44.9237 88.916 45.1255C89.056 45.3273 89.126 45.578 89.126 45.8774C89.126 46.1704 89.0397 46.4471 88.8672 46.7075C88.6979 46.9647 88.4521 47.1649 88.1299 47.3081C87.8076 47.4481 87.443 47.5181 87.0361 47.5181C86.3623 47.5181 85.848 47.3781 85.4932 47.0981C85.1416 46.8182 84.917 46.4032 84.8193 45.853ZM11.2012 62.5054C10.7161 61.8934 10.306 61.1772 9.9707 60.3569C9.63542 59.5366 9.46777 58.687 9.46777 57.8081C9.46777 57.0334 9.5931 56.2912 9.84375 55.5815C10.1367 54.758 10.5892 53.9377 11.2012 53.1206H11.8311C11.4372 53.7977 11.1768 54.2811 11.0498 54.5708C10.8512 55.02 10.695 55.4888 10.5811 55.9771C10.4411 56.5858 10.3711 57.1978 10.3711 57.813C10.3711 59.3787 10.8577 60.9429 11.8311 62.5054H11.2012ZM12.9785 60.4009V53.2427H16.1523C16.7904 53.2427 17.2754 53.3078 17.6074 53.438C17.9395 53.5649 18.2048 53.7912 18.4033 54.1167C18.6019 54.4422 18.7012 54.8019 18.7012 55.1958C18.7012 55.7036 18.5368 56.1317 18.208 56.48C17.8792 56.8283 17.3714 57.0496 16.6846 57.144C16.9352 57.2645 17.1257 57.3833 17.2559 57.5005C17.5326 57.7544 17.7946 58.0718 18.042 58.4526L19.2871 60.4009H18.0957L17.1484 58.9116C16.8717 58.4819 16.6439 58.1532 16.4648 57.9253C16.2858 57.6974 16.1247 57.5379 15.9814 57.4468C15.8415 57.3556 15.6982 57.2922 15.5518 57.2563C15.4443 57.2336 15.2686 57.2222 15.0244 57.2222H13.9258V60.4009H12.9785ZM13.9258 56.4019H15.9619C16.3949 56.4019 16.7334 56.3579 16.9775 56.27C17.2217 56.1789 17.4072 56.0356 17.5342 55.8403C17.6611 55.6418 17.7246 55.4269 17.7246 55.1958C17.7246 54.8573 17.6009 54.5789 17.3535 54.3608C17.1094 54.1427 16.722 54.0337 16.1914 54.0337H13.9258V56.4019ZM19.751 57.8081C19.751 56.8478 20.0179 56.1366 20.5518 55.6743C20.9977 55.2902 21.5413 55.0981 22.1826 55.0981C22.8955 55.0981 23.4782 55.3325 23.9307 55.8013C24.3831 56.2668 24.6094 56.9113 24.6094 57.7349C24.6094 58.4022 24.5085 58.9279 24.3066 59.312C24.1081 59.6929 23.8167 59.9891 23.4326 60.2007C23.0518 60.4123 22.6351 60.5181 22.1826 60.5181C21.4567 60.5181 20.8691 60.2853 20.4199 59.8198C19.974 59.3543 19.751 58.6838 19.751 57.8081ZM20.6543 57.8081C20.6543 58.4722 20.7992 58.9702 21.0889 59.3022C21.3786 59.631 21.7432 59.7954 22.1826 59.7954C22.6188 59.7954 22.9818 59.6294 23.2715 59.2974C23.5612 58.9653 23.7061 58.4591 23.7061 57.7788C23.7061 57.1375 23.5596 56.6525 23.2666 56.3237C22.9769 55.9917 22.6156 55.8257 22.1826 55.8257C21.7432 55.8257 21.3786 55.9901 21.0889 56.3188C20.7992 56.6476 20.6543 57.144 20.6543 57.8081ZM29.0283 59.7612C28.7028 60.0379 28.3887 60.2332 28.0859 60.3472C27.7865 60.4611 27.4642 60.5181 27.1191 60.5181C26.5495 60.5181 26.1117 60.3797 25.8057 60.103C25.4997 59.8231 25.3467 59.4666 25.3467 59.0337C25.3467 58.7798 25.4036 58.5487 25.5176 58.3403C25.6348 58.1287 25.7861 57.9595 25.9717 57.8325C26.1605 57.7056 26.3721 57.6095 26.6064 57.5444C26.779 57.4989 27.0394 57.4549 27.3877 57.4126C28.0973 57.328 28.6198 57.2271 28.9551 57.1099C28.9583 56.9894 28.96 56.9129 28.96 56.8804C28.96 56.5223 28.877 56.27 28.7109 56.1235C28.4863 55.925 28.1527 55.8257 27.71 55.8257C27.2965 55.8257 26.9906 55.8989 26.792 56.0454C26.5967 56.1886 26.4518 56.4442 26.3574 56.812L25.498 56.6948C25.5762 56.327 25.7048 56.0308 25.8838 55.8062C26.0628 55.5783 26.3216 55.4041 26.6602 55.2837C26.9987 55.16 27.391 55.0981 27.8369 55.0981C28.2796 55.0981 28.6393 55.1502 28.916 55.2544C29.1927 55.3586 29.3962 55.4904 29.5264 55.6499C29.6566 55.8062 29.7477 56.0047 29.7998 56.2456C29.8291 56.3953 29.8438 56.6655 29.8438 57.0562V58.228C29.8438 59.0451 29.8617 59.5627 29.8975 59.7808C29.9365 59.9956 30.0114 60.2023 30.1221 60.4009H29.2041C29.113 60.2186 29.0544 60.0054 29.0283 59.7612ZM28.9551 57.7983C28.6361 57.9285 28.1576 58.0392 27.5195 58.1304C27.1582 58.1825 26.9027 58.241 26.7529 58.3062C26.6032 58.3713 26.4876 58.4673 26.4062 58.5942C26.3249 58.7179 26.2842 58.8563 26.2842 59.0093C26.2842 59.2437 26.3721 59.439 26.5479 59.5952C26.7269 59.7515 26.9873 59.8296 27.3291 59.8296C27.6676 59.8296 27.9688 59.7563 28.2324 59.6099C28.4961 59.4601 28.6898 59.2567 28.8135 58.9995C28.9079 58.8009 28.9551 58.508 28.9551 58.1206V57.7983ZM31.2109 60.4009V55.2153H31.9971V55.9429C32.1598 55.689 32.3763 55.4855 32.6465 55.3325C32.9167 55.1763 33.2243 55.0981 33.5693 55.0981C33.9535 55.0981 34.2676 55.1779 34.5117 55.3374C34.7591 55.4969 34.9333 55.7199 35.0342 56.0063C35.4443 55.4009 35.9782 55.0981 36.6357 55.0981C37.1501 55.0981 37.5456 55.2414 37.8223 55.5278C38.099 55.811 38.2373 56.2489 38.2373 56.8413V60.4009H37.3633V57.1343C37.3633 56.7827 37.334 56.5304 37.2754 56.3774C37.2201 56.2212 37.1175 56.0959 36.9678 56.0015C36.818 55.9071 36.6423 55.8599 36.4404 55.8599C36.0758 55.8599 35.7731 55.9819 35.5322 56.2261C35.2913 56.467 35.1709 56.8543 35.1709 57.3882V60.4009H34.292V57.0317C34.292 56.6411 34.2204 56.3481 34.0771 56.1528C33.9339 55.9575 33.6995 55.8599 33.374 55.8599C33.1266 55.8599 32.8971 55.925 32.6855 56.0552C32.4772 56.1854 32.3258 56.3758 32.2314 56.6265C32.137 56.8771 32.0898 57.2384 32.0898 57.7104V60.4009H31.2109ZM39.5459 54.2534V53.2427H40.4248V54.2534H39.5459ZM39.5459 60.4009V55.2153H40.4248V60.4009H39.5459ZM41.7676 60.4009V55.2153H42.5586V55.9526C42.9395 55.383 43.4896 55.0981 44.209 55.0981C44.5215 55.0981 44.8079 55.1551 45.0684 55.269C45.332 55.3797 45.529 55.5262 45.6592 55.7085C45.7894 55.8908 45.8805 56.1073 45.9326 56.3579C45.9652 56.5207 45.9814 56.8055 45.9814 57.2124V60.4009H45.1025V57.2466C45.1025 56.8885 45.0684 56.6216 45 56.4458C44.9316 56.2668 44.8096 56.1252 44.6338 56.021C44.4613 55.9136 44.2578 55.8599 44.0234 55.8599C43.6491 55.8599 43.3252 55.9787 43.0518 56.2163C42.7816 56.4539 42.6465 56.9048 42.6465 57.5688V60.4009H41.7676ZM47.1729 60.8306L48.0273 60.9575C48.0632 61.2212 48.1624 61.4132 48.3252 61.5337C48.5433 61.6965 48.8411 61.7778 49.2188 61.7778C49.6257 61.7778 49.9398 61.6965 50.1611 61.5337C50.3825 61.3709 50.5322 61.1431 50.6104 60.8501C50.6559 60.6711 50.6771 60.2951 50.6738 59.7222C50.2897 60.1746 49.8112 60.4009 49.2383 60.4009C48.5254 60.4009 47.9736 60.1437 47.583 59.6294C47.1924 59.1151 46.9971 58.4982 46.9971 57.7788C46.9971 57.284 47.0866 56.8283 47.2656 56.4116C47.4447 55.9917 47.7035 55.6678 48.042 55.4399C48.3838 55.2121 48.7842 55.0981 49.2432 55.0981C49.8551 55.0981 50.3597 55.3455 50.7568 55.8403V55.2153H51.5674V59.6978C51.5674 60.505 51.4844 61.0763 51.3184 61.4116C51.1556 61.7502 50.8952 62.0171 50.5371 62.2124C50.1823 62.4077 49.7445 62.5054 49.2236 62.5054C48.6051 62.5054 48.1055 62.3654 47.7246 62.0854C47.3438 61.8088 47.1598 61.3905 47.1729 60.8306ZM47.9004 57.7153C47.9004 58.3957 48.0355 58.8921 48.3057 59.2046C48.5758 59.5171 48.9144 59.6733 49.3213 59.6733C49.7249 59.6733 50.0635 59.5187 50.3369 59.2095C50.6104 58.897 50.7471 58.4087 50.7471 57.7446C50.7471 57.1099 50.6055 56.6313 50.3223 56.3091C50.0423 55.9868 49.7038 55.8257 49.3066 55.8257C48.916 55.8257 48.584 55.9852 48.3105 56.3042C48.0371 56.62 47.9004 57.0903 47.9004 57.7153ZM52.2412 60.5229L54.3164 53.1206H55.0195L52.9492 60.5229H52.2412ZM57.0459 60.4009L55.1465 53.2427H56.1182L57.207 57.9351C57.3242 58.4266 57.4251 58.9149 57.5098 59.3999C57.6921 58.6349 57.7995 58.1938 57.832 58.0767L59.1943 53.2427H60.3369L61.3623 56.8657C61.6195 57.7642 61.805 58.6089 61.9189 59.3999C62.0101 58.9474 62.1289 58.4282 62.2754 57.8423L63.3984 53.2427H64.3506L62.3877 60.4009H61.4746L59.9658 54.9468C59.8389 54.491 59.764 54.2111 59.7412 54.1069C59.6663 54.4357 59.5964 54.7157 59.5312 54.9468L58.0127 60.4009H57.0459ZM65.2881 60.4009V53.2427H70.1172V54.0874H66.2354V56.3042H69.5947V57.1489H66.2354V60.4009H65.2881ZM71.3818 60.4009V53.2427H72.3291V56.1821H76.0498V53.2427H76.9971V60.4009H76.0498V57.0269H72.3291V60.4009H71.3818ZM79.043 62.5054H78.4131C79.3864 60.9429 79.873 59.3787 79.873 57.813C79.873 57.201 79.8031 56.5939 79.6631 55.9917C79.5524 55.5034 79.3978 55.0347 79.1992 54.5854C79.0723 54.2925 78.8102 53.8042 78.4131 53.1206H79.043C79.6549 53.9377 80.1074 54.758 80.4004 55.5815C80.651 56.2912 80.7764 57.0334 80.7764 57.8081C80.7764 58.687 80.6071 59.5366 80.2686 60.3569C79.9333 61.1772 79.5247 61.8934 79.043 62.5054Z" fill="#2A303D"/>
</svg>
