<svg width="90" height="50" viewBox="0 0 90 50" fill="none" xmlns="http://www.w3.org/2000/svg">
<path d="M44.7617 23.5479C44.7617 23.5479 42.3558 24.2734 42.0167 24.3882C41.6777 24.5029 40.4177 25.4297 40.3881 26.509C40.3585 27.5884 38.8299 30.9581 41.1736 30.0017C42.1589 30.1474 43.1604 30.1474 44.1458 30.0017C45.5649 29.7477 48.0019 30.4103 48.372 30.0017C48.7421 29.593 48.848 30.1031 48.6251 28.7217C48.4023 27.3404 48.6607 26.7859 48.5622 25.4593C48.4638 24.1328 48.6807 23.7634 47.879 23.5472C46.8429 23.4352 45.7977 23.4354 44.7617 23.5479Z" fill="white"/>
<path d="M62.2203 2.03419C62.2203 1.64348 62.0651 1.26878 61.7888 0.992508C61.5126 0.716239 61.1379 0.561035 60.7472 0.561035H28.3779C27.9872 0.561035 27.6125 0.716239 27.3363 0.992508C27.06 1.26878 26.9048 1.64348 26.9048 2.03419V20.1902H62.2203V2.03419Z" fill="#F0F4FD"/>
<path d="M62.2203 2.03419C62.2203 1.64348 62.0651 1.26878 61.7888 0.992508C61.5126 0.716239 61.1379 0.561035 60.7472 0.561035H28.3779C27.9872 0.561035 27.6125 0.716239 27.3363 0.992508C27.06 1.26878 26.9048 1.64348 26.9048 2.03419V20.1902H62.2203V2.03419Z" fill="#D5E0F8"/>
<path d="M62.6187 20.59H26.5059V2.34221C26.5061 1.76394 26.7359 1.20943 27.1449 0.800598C27.5538 0.39177 28.1084 0.162109 28.6867 0.162109H60.4385C61.0167 0.162109 61.5713 0.391794 61.9801 0.800644C62.389 1.20949 62.6187 1.76401 62.6187 2.34221V20.59ZM27.3076 19.7912H61.8243V2.34221C61.8244 2.16059 61.7888 1.98074 61.7193 1.81292C61.6498 1.6451 61.548 1.49261 61.4196 1.36419C61.2911 1.23576 61.1386 1.1339 60.9708 1.06444C60.803 0.994984 60.6231 0.959285 60.4415 0.959382H28.6867C28.5051 0.959285 28.3252 0.994984 28.1574 1.06444C27.9896 1.1339 27.8371 1.23576 27.7087 1.36419C27.5802 1.49261 27.4784 1.6451 27.4089 1.81292C27.3395 1.98074 27.3038 2.16059 27.3039 2.34221L27.3076 19.7912Z" fill="#6B94E7"/>
<path d="M29.874 25.967H59.2496C59.6396 25.9671 60.0258 25.8904 60.3861 25.7412C60.7464 25.5921 61.0738 25.3734 61.3496 25.0976C61.6254 24.8219 61.8442 24.4945 61.9935 24.1342C62.1428 23.774 62.2196 23.3878 62.2196 22.9978V20.1899H26.9048V22.9978C26.9048 23.7853 27.2176 24.5405 27.7745 25.0974C28.3313 25.6542 29.0865 25.967 29.874 25.967Z" fill="white"/>
<path d="M59.2497 26.3676H29.8748C28.9816 26.3666 28.1253 26.0114 27.4937 25.3798C26.8621 24.7482 26.5068 23.8918 26.5059 22.9986V19.791H62.6187V22.9986C62.6177 23.8918 62.2624 24.7482 61.6308 25.3798C60.9992 26.0114 60.1429 26.3666 59.2497 26.3676ZM27.3039 20.5935V23.0023C27.3047 23.6838 27.5757 24.3372 28.0575 24.8192C28.5393 25.3011 29.1926 25.5723 29.8741 25.5733H59.2497C59.9313 25.5725 60.5848 25.3014 61.0668 24.8194C61.5487 24.3374 61.8199 23.6839 61.8206 23.0023V20.5935H27.3039Z" fill="#6B94E7"/>
<path d="M39.494 30.3763L39.229 29.6234C39.8012 29.4213 39.9648 28.527 39.9871 28.3842V25.748H40.7843V28.4597C40.7747 28.5219 40.5859 29.9906 39.494 30.3763Z" fill="#6B94E7"/>
<path d="M49.4512 30.377C48.3592 29.9913 48.1712 28.5219 48.1646 28.4604V28.413V25.748H48.9626V28.3856C49.0055 28.6892 49.2158 29.4457 49.7206 29.6234L49.4512 30.377Z" fill="#6B94E7"/>
<path d="M50.2931 29.5996H38.6538V30.3976H50.2931V29.5996Z" fill="#6B94E7"/>
<path d="M12.249 7.68604H42.4759C42.8293 7.68604 43.1682 7.82642 43.4181 8.07631C43.668 8.3262 43.8084 8.66513 43.8084 9.01853V26.1833C43.8084 26.5367 43.668 26.8756 43.4181 27.1255C43.1682 27.3754 42.8293 27.5158 42.4759 27.5158H12.249C11.8956 27.5158 11.5567 27.3754 11.3068 27.1255C11.0569 26.8756 10.9165 26.5367 10.9165 26.1833V9.01853C10.9165 8.66513 11.0569 8.3262 11.3068 8.07631C11.5567 7.82642 11.8956 7.68604 12.249 7.68604Z" fill="#D5E0F8" stroke="#6B94E7" stroke-width="0.740274"/>
<path d="M44.6036 30.4009H9.76999C8.56408 30.4009 7.58619 29.2165 7.58545 27.7508V27.5176H46.7837V27.7508C46.7822 29.2121 45.808 30.3972 44.6036 30.4009Z" fill="white" stroke="#6B94E7" stroke-width="0.740274" stroke-miterlimit="10"/>
<path d="M30.1886 29.2511H24.47C24.3154 29.2506 24.167 29.1907 24.0555 29.0838C23.944 28.9768 23.8779 28.831 23.8711 28.6766V28.6685H30.789V28.6744C30.7825 28.8293 30.7164 28.9758 30.6045 29.0833C30.4927 29.1907 30.3437 29.2508 30.1886 29.2511Z" fill="#6B94E7"/>
<path d="M71.749 11.8467H71.1816V17.6006H71.749V11.8467Z" fill="#6B94E7"/>
<path d="M63.9957 29.9651C64.9812 29.9651 65.78 29.1662 65.78 28.1808C65.78 27.1953 64.9812 26.3965 63.9957 26.3965C63.0103 26.3965 62.2114 27.1953 62.2114 28.1808C62.2114 29.1662 63.0103 29.9651 63.9957 29.9651Z" fill="#CEE7DA"/>
<path d="M63.9965 26.6796C64.2933 26.6796 64.5834 26.7676 64.8302 26.9325C65.077 27.0974 65.2693 27.3318 65.3829 27.606C65.4964 27.8802 65.5262 28.1819 65.4683 28.473C65.4104 28.7641 65.2674 29.0314 65.0576 29.2413C64.8477 29.4512 64.5803 29.5941 64.2892 29.652C63.9981 29.7099 63.6964 29.6802 63.4222 29.5666C63.148 29.453 62.9137 29.2607 62.7488 29.0139C62.5839 28.7671 62.4959 28.477 62.4959 28.1802C62.496 27.7823 62.6542 27.4007 62.9356 27.1193C63.2169 26.8379 63.5985 26.6798 63.9965 26.6796ZM63.9965 26.1147C63.5874 26.1145 63.1875 26.2356 62.8472 26.4627C62.507 26.6897 62.2418 27.0126 62.085 27.3905C61.9283 27.7683 61.8872 28.1842 61.9668 28.5854C62.0465 28.9866 62.2433 29.3552 62.5325 29.6446C62.8217 29.9339 63.1901 30.131 63.5913 30.2109C63.9925 30.2908 64.4084 30.2499 64.7863 30.0934C65.1643 29.9369 65.4873 29.6719 65.7146 29.3318C65.9419 28.9917 66.0632 28.5918 66.0632 28.1827C66.0624 27.6347 65.8444 27.1094 65.457 26.7218C65.0697 26.3342 64.5445 26.1159 63.9965 26.1147Z" fill="#6B94E7"/>
<path d="M71.4646 22.7606C70.9453 22.7601 70.4473 22.5536 70.0801 22.1864C69.7129 21.8192 69.5064 21.3212 69.5059 20.8019V17.5408C69.5059 17.0213 69.7122 16.5231 70.0795 16.1557C70.4469 15.7884 70.9451 15.582 71.4646 15.582C71.9841 15.582 72.4824 15.7884 72.8497 16.1557C73.217 16.5231 73.4234 17.0213 73.4234 17.5408V20.8044C73.4222 21.3233 73.2154 21.8206 72.8482 22.1873C72.4811 22.554 71.9835 22.7602 71.4646 22.7606Z" fill="#CEE7DA"/>
<path d="M71.4646 15.8627C71.9089 15.863 72.335 16.0397 72.6492 16.3539C72.9634 16.6681 73.14 17.0941 73.1403 17.5384V20.802C73.1403 21.2463 72.9638 21.6725 72.6496 21.9867C72.3354 22.3009 71.9093 22.4774 71.4649 22.4774C71.0206 22.4774 70.5944 22.3009 70.2802 21.9867C69.966 21.6725 69.7895 21.2463 69.7895 20.802V17.5409C69.7897 17.0967 69.9662 16.6706 70.2803 16.3564C70.5944 16.0422 71.0204 15.8655 71.4646 15.8652M71.4646 15.3004C70.8702 15.3004 70.3001 15.5364 69.8796 15.9565C69.4591 16.3766 69.2227 16.9465 69.2222 17.5409V20.8045C69.2222 21.3992 69.4584 21.9696 69.879 22.3902C70.2995 22.8107 70.8699 23.047 71.4646 23.047C72.0594 23.047 72.6297 22.8107 73.0503 22.3902C73.4708 21.9696 73.7071 21.3992 73.7071 20.8045V17.5409C73.7072 17.2464 73.6492 16.9547 73.5366 16.6826C73.4239 16.4105 73.2587 16.1632 73.0505 15.9549C72.8423 15.7466 72.595 15.5813 72.3229 15.4686C72.0508 15.3559 71.7592 15.2979 71.4646 15.2979V15.3004Z" fill="#6B94E7"/>
<path d="M78.5309 29.9651C79.5163 29.9651 80.3152 29.1662 80.3152 28.1808C80.3152 27.1953 79.5163 26.3965 78.5309 26.3965C77.5454 26.3965 76.7466 27.1953 76.7466 28.1808C76.7466 29.1662 77.5454 29.9651 78.5309 29.9651Z" fill="#CEE7DA"/>
<path d="M78.5316 26.6801C78.8284 26.6801 79.1185 26.7681 79.3653 26.933C79.6121 27.0979 79.8045 27.3322 79.918 27.6064C80.0316 27.8806 80.0613 28.1824 80.0034 28.4735C79.9455 28.7646 79.8026 29.0319 79.5927 29.2418C79.3829 29.4517 79.1155 29.5946 78.8244 29.6525C78.5333 29.7104 78.2316 29.6807 77.9574 29.5671C77.6832 29.4535 77.4488 29.2612 77.2839 29.0144C77.119 28.7676 77.031 28.4775 77.031 28.1807C77.0312 27.7828 77.1893 27.4012 77.4707 27.1198C77.7521 26.8384 78.1337 26.6802 78.5316 26.6801ZM78.5316 26.1152C78.1226 26.115 77.7226 26.2361 77.3824 26.4631C77.0421 26.6902 76.7769 27.0131 76.6202 27.391C76.4635 27.7688 76.4223 28.1847 76.502 28.5859C76.5816 28.9871 76.7785 29.3557 77.0677 29.645C77.3568 29.9344 77.7253 30.1315 78.1265 30.2114C78.5277 30.2913 78.9435 30.2504 79.3215 30.0939C79.6994 29.9374 80.0225 29.6724 80.2498 29.3322C80.4771 28.9921 80.5984 28.5923 80.5984 28.1832C80.5975 27.6352 80.3796 27.1099 79.9922 26.7223C79.6048 26.3347 79.0796 26.1164 78.5316 26.1152Z" fill="#6B94E7"/>
<path d="M81.5543 19.4736H61.0295C60.6597 19.4736 60.3599 19.7735 60.3599 20.1433V27.4537C60.3599 27.8236 60.6597 28.1234 61.0295 28.1234H81.5543C81.9241 28.1234 82.224 27.8236 82.224 27.4537V20.1433C82.224 19.7735 81.9241 19.4736 81.5543 19.4736Z" fill="#FFDECC"/>
<path d="M81.0144 19.7572C81.2602 19.7576 81.4957 19.8553 81.6695 20.0291C81.8433 20.2029 81.9411 20.4385 81.9414 20.6842V26.9139C81.9409 27.1595 81.843 27.3948 81.6693 27.5684C81.4955 27.7419 81.26 27.8394 81.0144 27.8396H61.5704C61.3248 27.8394 61.0893 27.7419 60.9155 27.5684C60.7418 27.3948 60.6439 27.1595 60.6434 26.9139V20.6842C60.6436 20.4384 60.7413 20.2027 60.9151 20.0289C61.0889 19.8551 61.3246 19.7574 61.5704 19.7572H81.0144ZM81.0144 19.1924H61.5704C61.1743 19.1925 60.7944 19.35 60.5143 19.6301C60.2343 19.9102 60.0768 20.29 60.0767 20.6861V26.9158C60.0767 27.3118 60.234 27.6915 60.514 27.9715C60.794 28.2515 61.1737 28.4088 61.5697 28.4088H81.0144C81.4105 28.4088 81.7903 28.2516 82.0704 27.9716C82.3505 27.6916 82.5079 27.3118 82.5081 26.9158V20.6861C82.5078 20.29 82.3503 19.9103 82.0702 19.6303C81.7902 19.3502 81.4105 19.1927 81.0144 19.1924Z" fill="#6B94E7"/>
<path d="M62.4829 22.2934C62.8447 22.2934 63.1381 22 63.1381 21.6381C63.1381 21.2763 62.8447 20.9829 62.4829 20.9829C62.121 20.9829 61.8276 21.2763 61.8276 21.6381C61.8276 22 62.121 22.2934 62.4829 22.2934Z" fill="#6B94E7"/>
<path d="M64.7343 22.2934C65.0962 22.2934 65.3896 22 65.3896 21.6381C65.3896 21.2763 65.0962 20.9829 64.7343 20.9829C64.3725 20.9829 64.0791 21.2763 64.0791 21.6381C64.0791 22 64.3725 22.2934 64.7343 22.2934Z" fill="#6B94E7"/>
<path d="M66.9848 22.2934C67.3467 22.2934 67.64 22 67.64 21.6381C67.64 21.2763 67.3467 20.9829 66.9848 20.9829C66.6229 20.9829 66.3296 21.2763 66.3296 21.6381C66.3296 22 66.6229 22.2934 66.9848 22.2934Z" fill="#6B94E7"/>
<path d="M63.4219 28.1094V25.4647C63.422 25.1076 63.5639 24.7651 63.8163 24.5125C64.0687 24.2599 64.411 24.1177 64.7681 24.1172H77.7722C78.1294 24.1179 78.4717 24.26 78.7243 24.5126C78.9768 24.7652 79.119 25.1075 79.1197 25.4647V28.11L63.4219 28.1094Z" fill="white"/>
<path d="M77.7729 24.4002C78.0559 24.4002 78.3272 24.5126 78.5273 24.7127C78.7274 24.9128 78.8398 25.1841 78.8398 25.4671V27.8288H63.7088V25.4633C63.7088 25.181 63.8206 24.9102 64.0199 24.7102C64.2192 24.5102 64.4896 24.3974 64.7719 24.3964H77.7729M77.7729 23.8315H64.7719C64.3391 23.8315 63.9241 24.0035 63.6181 24.3095C63.3121 24.6155 63.1401 25.0306 63.1401 25.4633V28.3924H79.4047V25.4633C79.4047 25.0306 79.2327 24.6155 78.9267 24.3095C78.6207 24.0035 78.2057 23.8315 77.7729 23.8315Z" fill="#6B94E7"/>
<path d="M71.4725 12.9626C72.1754 12.9626 72.7453 12.3927 72.7453 11.6898C72.7453 10.9868 72.1754 10.417 71.4725 10.417C70.7696 10.417 70.1997 10.9868 70.1997 11.6898C70.1997 12.3927 70.7696 12.9626 71.4725 12.9626Z" fill="#CEE7DA"/>
<path d="M71.473 10.6994C71.6686 10.6994 71.8599 10.7574 72.0225 10.8661C72.1852 10.9748 72.3119 11.1293 72.3868 11.31C72.4617 11.4907 72.4813 11.6896 72.4431 11.8815C72.4049 12.0734 72.3107 12.2496 72.1724 12.3879C72.0341 12.5263 71.8578 12.6205 71.666 12.6586C71.4741 12.6968 71.2752 12.6772 71.0945 12.6023C70.9137 12.5275 70.7593 12.4007 70.6506 12.238C70.5419 12.0754 70.4839 11.8841 70.4839 11.6885C70.4844 11.4263 70.5888 11.175 70.7741 10.9897C70.9595 10.8043 71.2108 10.6999 71.473 10.6994ZM71.473 10.1346C71.2687 10.1345 71.0663 10.1746 70.8775 10.2527C70.6887 10.3309 70.5172 10.4454 70.3727 10.5898C70.2281 10.7342 70.1134 10.9057 70.0352 11.0944C69.9569 11.2832 69.9166 11.4855 69.9165 11.6898C69.9165 11.9976 70.0078 12.2985 70.1788 12.5545C70.3499 12.8105 70.5929 13.01 70.8773 13.1278C71.1618 13.2456 71.4747 13.2764 71.7767 13.2163C72.0786 13.1563 72.3559 13.008 72.5736 12.7904C72.7913 12.5727 72.9395 12.2954 72.9996 11.9934C73.0596 11.6915 73.0288 11.3785 72.911 11.0941C72.7932 10.8097 72.5937 10.5666 72.3377 10.3956C72.0818 10.2246 71.7808 10.1333 71.473 10.1333V10.1346Z" fill="#6B94E7"/>
<path d="M66.5078 25.5586H64.7674C64.633 25.5586 64.5239 25.6676 64.5239 25.8021V26.195C64.5239 26.3295 64.633 26.4385 64.7674 26.4385H66.5078C66.6423 26.4385 66.7513 26.3295 66.7513 26.195V25.8021C66.7513 25.6676 66.6423 25.5586 66.5078 25.5586Z" fill="#6B94E7"/>
<path d="M68.9799 25.5586H67.9569C67.8224 25.5586 67.7134 25.6676 67.7134 25.8021V26.195C67.7134 26.3295 67.8224 26.4385 67.9569 26.4385H68.9799C69.1144 26.4385 69.2234 26.3295 69.2234 26.195V25.8021C69.2234 25.6676 69.1144 25.5586 68.9799 25.5586Z" fill="#6B94E7"/>
<path d="M74.959 8.0332H74.9521C74.917 8.03725 74.8832 8.04903 74.8531 8.0677C74.823 8.08636 74.7975 8.11144 74.7783 8.14115C74.6647 8.28613 74.6528 8.40224 74.9038 8.66772C75.6865 9.53087 76.1201 10.6544 76.1201 11.8196C76.1201 12.9848 75.6865 14.1083 74.9038 14.9714C74.59 15.3085 74.6973 15.4108 74.7927 15.4968C74.8881 15.5827 74.9961 15.6882 75.3111 15.3518C76.2329 14.3642 76.7316 13.0552 76.7007 11.7047C76.6854 10.4015 76.1723 9.15354 75.2665 8.21647C75.1921 8.11737 75.0816 8.05153 74.959 8.0332Z" fill="#6B94E7"/>
<path d="M67.2388 13.7831C66.85 12.9401 66.719 12.001 66.8625 11.0838C67.006 10.1667 67.4176 9.31242 68.0453 8.62851C68.3083 8.32098 68.253 8.2419 68.1394 8.13521C68.0258 8.02852 67.9599 8.03793 67.9411 8.03855C67.8138 8.07047 67.7023 8.14738 67.6273 8.25508C66.7388 9.20844 66.2439 10.4627 66.2422 11.7659C66.2262 12.4325 66.3428 13.0956 66.5855 13.7167C66.8281 14.3377 67.1919 14.9043 67.6555 15.3835C67.9367 15.6534 68.0434 15.5956 68.1539 15.4946C68.2298 15.4243 68.3327 15.3276 68.0798 15.027C67.7346 14.6601 67.4506 14.2401 67.2388 13.7831Z" fill="#6B94E7"/>
<path d="M69.3862 9.93818C69.6278 9.64194 69.5594 9.54027 69.4452 9.43608C69.4068 9.38986 69.3518 9.36056 69.292 9.35449C69.2186 9.35449 69.1207 9.40658 68.97 9.57102C68.4026 10.1797 68.0921 10.9839 68.1033 11.816C68.0933 12.645 68.3976 13.4471 68.955 14.061C69.2544 14.3647 69.3636 14.2718 69.4496 14.1946C69.5355 14.1174 69.6416 14.0245 69.378 13.6925C68.9219 13.1731 68.6711 12.5051 68.6726 11.8138C68.6741 11.1226 68.9278 10.4556 69.3862 9.93818Z" fill="#6B94E7"/>
<path d="M73.9586 9.56195C73.833 9.42722 73.7305 9.3584 73.651 9.35547H73.6454C73.5813 9.36273 73.5224 9.39442 73.481 9.44397C73.3812 9.53936 73.3153 9.64104 73.5355 9.92409C73.9993 10.4377 74.2584 11.1036 74.2636 11.7956C74.2688 12.4875 74.0198 13.1573 73.5638 13.6778C73.319 14.0048 73.3755 14.092 73.4822 14.1893C73.5054 14.2157 73.5338 14.2369 73.5657 14.2517C73.5976 14.2664 73.6322 14.2742 73.6674 14.2747C73.7301 14.2703 73.8362 14.2257 73.9962 14.0412C74.5989 13.3248 74.8987 12.4018 74.8322 11.468C74.7701 10.7508 74.4613 10.0772 73.9586 9.56195Z" fill="#6B94E7"/>
<path d="M66.1559 11.8389H57.3096C56.7994 11.8389 56.3857 12.2525 56.3857 12.7627V29.165C56.3857 29.6752 56.7994 30.0889 57.3096 30.0889H66.1559C66.6661 30.0889 67.0797 29.6752 67.0797 29.165V12.7627C67.0797 12.2525 66.6661 11.8389 66.1559 11.8389Z" fill="white"/>
<path d="M67.3951 27.0515H56.3857V13.0196C56.3856 12.8227 56.4243 12.6278 56.4996 12.446C56.5748 12.2641 56.6852 12.0988 56.8243 11.9596C56.9634 11.8204 57.1287 11.71 57.3105 11.6346C57.4923 11.5593 57.6872 11.5205 57.884 11.5205H65.7998C66.2229 11.5205 66.6287 11.6886 66.9279 11.9878C67.227 12.2869 67.3951 12.6927 67.3951 13.1158V27.0515Z" fill="#EAF0FC"/>
<path d="M67.3951 27.0515H56.3857V13.0196C56.3856 12.8227 56.4243 12.6278 56.4996 12.446C56.5748 12.2641 56.6852 12.0988 56.8243 11.9596C56.9634 11.8204 57.1287 11.71 57.3105 11.6346C57.4923 11.5593 57.6872 11.5205 57.884 11.5205H65.7998C66.2229 11.5205 66.6287 11.6886 66.9279 11.9878C67.227 12.2869 67.3951 12.6927 67.3951 13.1158V27.0515Z" fill="#D5E0F8"/>
<path d="M61.7337 29.1573C62.1801 29.1573 62.5421 28.7954 62.5421 28.3489C62.5421 27.9025 62.1801 27.5405 61.7337 27.5405C61.2872 27.5405 60.9253 27.9025 60.9253 28.3489C60.9253 28.7954 61.2872 29.1573 61.7337 29.1573Z" fill="#6B94E7"/>
<path d="M62.89 12.7524H60.5744C60.4934 12.7524 60.4157 12.7846 60.3585 12.8419C60.3012 12.8991 60.269 12.9768 60.269 13.0578C60.269 13.1388 60.3012 13.2165 60.3585 13.2737C60.4157 13.331 60.4934 13.3632 60.5744 13.3632H62.89C62.971 13.3632 63.0486 13.331 63.1059 13.2737C63.1632 13.2165 63.1953 13.1388 63.1953 13.0578C63.1953 12.9768 63.1632 12.8991 63.1059 12.8419C63.0486 12.7846 62.971 12.7524 62.89 12.7524Z" fill="#6B94E7"/>
<path d="M65.9419 30.3997H57.522C57.1371 30.3993 56.7681 30.2463 56.4959 29.9741C56.2238 29.702 56.0707 29.3329 56.0703 28.9481V12.9722C56.0707 12.5873 56.2238 12.2183 56.4959 11.9461C56.7681 11.674 57.1371 11.5209 57.522 11.5205H65.9419C66.327 11.5207 66.6962 11.6737 66.9687 11.9458C67.2411 12.218 67.3944 12.5871 67.395 12.9722V28.9481C67.3944 29.3331 67.2411 29.7022 66.9687 29.9744C66.6962 30.2466 66.327 30.3995 65.9419 30.3997ZM57.5227 11.8359C57.2214 11.8361 56.9324 11.9558 56.7192 12.1689C56.506 12.3819 56.3861 12.6708 56.3857 12.9722V28.9481C56.3861 29.2496 56.506 29.5386 56.7191 29.7519C56.9322 29.9652 57.2212 30.0853 57.5227 30.0858H65.9419C66.2434 30.0855 66.5325 29.9654 66.7457 29.7521C66.9589 29.5388 67.0787 29.2496 67.0789 28.9481V12.9722C67.0785 12.6708 66.9586 12.3819 66.7454 12.1689C66.5322 11.9558 66.2432 11.8361 65.9419 11.8359H57.5227Z" fill="#6B94E7" stroke="#6B94E7" stroke-width="0.4" stroke-miterlimit="10"/>
<path d="M5.24219 47V39.8418H6.66797L8.3623 44.9102C8.51855 45.3822 8.63249 45.7354 8.7041 45.9697C8.78548 45.7093 8.91243 45.3268 9.08496 44.8223L10.7988 39.8418H12.0732V47H11.1602V41.0088L9.08008 47H8.22559L6.15527 40.9062V47H5.24219ZM16.873 46.3604C16.5475 46.637 16.2334 46.8324 15.9307 46.9463C15.6312 47.0602 15.3089 47.1172 14.9639 47.1172C14.3942 47.1172 13.9564 46.9788 13.6504 46.7021C13.3444 46.4222 13.1914 46.0658 13.1914 45.6328C13.1914 45.3789 13.2484 45.1478 13.3623 44.9395C13.4795 44.7279 13.6309 44.5586 13.8164 44.4316C14.0052 44.3047 14.2168 44.2087 14.4512 44.1436C14.6237 44.098 14.8841 44.054 15.2324 44.0117C15.9421 43.9271 16.4645 43.8262 16.7998 43.709C16.8031 43.5885 16.8047 43.512 16.8047 43.4795C16.8047 43.1214 16.7217 42.8691 16.5557 42.7227C16.3311 42.5241 15.9974 42.4248 15.5547 42.4248C15.1413 42.4248 14.8353 42.498 14.6367 42.6445C14.4414 42.7878 14.2965 43.0433 14.2021 43.4111L13.3428 43.2939C13.4209 42.9261 13.5495 42.6299 13.7285 42.4053C13.9076 42.1774 14.1663 42.0033 14.5049 41.8828C14.8434 41.7591 15.2357 41.6973 15.6816 41.6973C16.1243 41.6973 16.484 41.7493 16.7607 41.8535C17.0374 41.9577 17.2409 42.0895 17.3711 42.249C17.5013 42.4053 17.5924 42.6038 17.6445 42.8447C17.6738 42.9945 17.6885 43.2646 17.6885 43.6553V44.8271C17.6885 45.6442 17.7064 46.1618 17.7422 46.3799C17.7812 46.5947 17.8561 46.8014 17.9668 47H17.0488C16.9577 46.8177 16.8991 46.6045 16.873 46.3604ZM16.7998 44.3975C16.4808 44.5277 16.0023 44.6383 15.3643 44.7295C15.0029 44.7816 14.7474 44.8402 14.5977 44.9053C14.4479 44.9704 14.3324 45.0664 14.251 45.1934C14.1696 45.3171 14.1289 45.4554 14.1289 45.6084C14.1289 45.8428 14.2168 46.0381 14.3926 46.1943C14.5716 46.3506 14.832 46.4287 15.1738 46.4287C15.5124 46.4287 15.8135 46.3555 16.0771 46.209C16.3408 46.0592 16.5345 45.8558 16.6582 45.5986C16.7526 45.4001 16.7998 45.1071 16.7998 44.7197V44.3975ZM19.0557 47V41.8145H19.8467V42.5518C20.2275 41.9821 20.7777 41.6973 21.4971 41.6973C21.8096 41.6973 22.096 41.7542 22.3564 41.8682C22.6201 41.9788 22.8171 42.1253 22.9473 42.3076C23.0775 42.4899 23.1686 42.7064 23.2207 42.957C23.2533 43.1198 23.2695 43.4046 23.2695 43.8115V47H22.3906V43.8457C22.3906 43.4876 22.3564 43.2207 22.2881 43.0449C22.2197 42.8659 22.0977 42.7243 21.9219 42.6201C21.7493 42.5127 21.5459 42.459 21.3115 42.459C20.9372 42.459 20.6133 42.5778 20.3398 42.8154C20.0697 43.0531 19.9346 43.5039 19.9346 44.168V47H19.0557ZM28.0059 46.3604C27.6803 46.637 27.3662 46.8324 27.0635 46.9463C26.764 47.0602 26.4417 47.1172 26.0967 47.1172C25.527 47.1172 25.0892 46.9788 24.7832 46.7021C24.4772 46.4222 24.3242 46.0658 24.3242 45.6328C24.3242 45.3789 24.3812 45.1478 24.4951 44.9395C24.6123 44.7279 24.7637 44.5586 24.9492 44.4316C25.138 44.3047 25.3496 44.2087 25.584 44.1436C25.7565 44.098 26.0169 44.054 26.3652 44.0117C27.0749 43.9271 27.5973 43.8262 27.9326 43.709C27.9359 43.5885 27.9375 43.512 27.9375 43.4795C27.9375 43.1214 27.8545 42.8691 27.6885 42.7227C27.4639 42.5241 27.1302 42.4248 26.6875 42.4248C26.2741 42.4248 25.9681 42.498 25.7695 42.6445C25.5742 42.7878 25.4294 43.0433 25.335 43.4111L24.4756 43.2939C24.5537 42.9261 24.6823 42.6299 24.8613 42.4053C25.0404 42.1774 25.2992 42.0033 25.6377 41.8828C25.9762 41.7591 26.3685 41.6973 26.8145 41.6973C27.2572 41.6973 27.6169 41.7493 27.8936 41.8535C28.1702 41.9577 28.3737 42.0895 28.5039 42.249C28.6341 42.4053 28.7253 42.6038 28.7773 42.8447C28.8066 42.9945 28.8213 43.2646 28.8213 43.6553V44.8271C28.8213 45.6442 28.8392 46.1618 28.875 46.3799C28.9141 46.5947 28.9889 46.8014 29.0996 47H28.1816C28.0905 46.8177 28.0319 46.6045 28.0059 46.3604ZM27.9326 44.3975C27.6136 44.5277 27.1351 44.6383 26.4971 44.7295C26.1357 44.7816 25.8802 44.8402 25.7305 44.9053C25.5807 44.9704 25.4652 45.0664 25.3838 45.1934C25.3024 45.3171 25.2617 45.4554 25.2617 45.6084C25.2617 45.8428 25.3496 46.0381 25.5254 46.1943C25.7044 46.3506 25.9648 46.4287 26.3066 46.4287C26.6452 46.4287 26.9463 46.3555 27.21 46.209C27.4736 46.0592 27.6673 45.8558 27.791 45.5986C27.8854 45.4001 27.9326 45.1071 27.9326 44.7197V44.3975ZM30.0273 47.4297L30.8818 47.5566C30.9176 47.8203 31.0169 48.0124 31.1797 48.1328C31.3978 48.2956 31.6956 48.377 32.0732 48.377C32.4801 48.377 32.7943 48.2956 33.0156 48.1328C33.237 47.9701 33.3867 47.7422 33.4648 47.4492C33.5104 47.2702 33.5316 46.8942 33.5283 46.3213C33.1442 46.7738 32.6657 47 32.0928 47C31.3799 47 30.8281 46.7428 30.4375 46.2285C30.0469 45.7142 29.8516 45.0973 29.8516 44.3779C29.8516 43.8831 29.9411 43.4274 30.1201 43.0107C30.2992 42.5908 30.5579 42.2669 30.8965 42.0391C31.2383 41.8112 31.6387 41.6973 32.0977 41.6973C32.7096 41.6973 33.2142 41.9447 33.6113 42.4395V41.8145H34.4219V46.2969C34.4219 47.1042 34.3389 47.6755 34.1729 48.0107C34.0101 48.3493 33.7497 48.6162 33.3916 48.8115C33.0368 49.0068 32.599 49.1045 32.0781 49.1045C31.4596 49.1045 30.96 48.9645 30.5791 48.6846C30.1982 48.4079 30.0143 47.9896 30.0273 47.4297ZM30.7549 44.3145C30.7549 44.9948 30.89 45.4912 31.1602 45.8037C31.4303 46.1162 31.7689 46.2725 32.1758 46.2725C32.5794 46.2725 32.918 46.1178 33.1914 45.8086C33.4648 45.4961 33.6016 45.0078 33.6016 44.3438C33.6016 43.709 33.46 43.2305 33.1768 42.9082C32.8968 42.5859 32.5583 42.4248 32.1611 42.4248C31.7705 42.4248 31.4385 42.5843 31.165 42.9033C30.8916 43.2191 30.7549 43.6895 30.7549 44.3145ZM39.3047 45.3301L40.2129 45.4424C40.0697 45.973 39.8044 46.3848 39.417 46.6777C39.0296 46.9707 38.5348 47.1172 37.9326 47.1172C37.1742 47.1172 36.5719 46.8844 36.126 46.4189C35.6833 45.9502 35.4619 45.2943 35.4619 44.4512C35.4619 43.5788 35.6865 42.9017 36.1357 42.4199C36.585 41.9382 37.1676 41.6973 37.8838 41.6973C38.5771 41.6973 39.1436 41.9333 39.583 42.4053C40.0225 42.8773 40.2422 43.5413 40.2422 44.3975C40.2422 44.4495 40.2406 44.5277 40.2373 44.6318H36.3701C36.4027 45.2015 36.5638 45.6377 36.8535 45.9404C37.1432 46.2432 37.5046 46.3945 37.9375 46.3945C38.2598 46.3945 38.5348 46.3099 38.7627 46.1406C38.9906 45.9714 39.1712 45.7012 39.3047 45.3301ZM36.4189 43.9092H39.3145C39.2754 43.473 39.1647 43.1458 38.9824 42.9277C38.7025 42.5892 38.3395 42.4199 37.8936 42.4199C37.4899 42.4199 37.1497 42.555 36.873 42.8252C36.5996 43.0954 36.4482 43.4567 36.4189 43.9092ZM44.6855 47V46.3457C44.3568 46.86 43.8734 47.1172 43.2354 47.1172C42.8219 47.1172 42.4411 47.0033 42.0928 46.7754C41.7477 46.5475 41.4792 46.2301 41.2871 45.8232C41.0983 45.4131 41.0039 44.9427 41.0039 44.4121C41.0039 43.8945 41.0902 43.4258 41.2627 43.0059C41.4352 42.5827 41.694 42.2588 42.0391 42.0342C42.3841 41.8096 42.7699 41.6973 43.1963 41.6973C43.5088 41.6973 43.7871 41.764 44.0312 41.8975C44.2754 42.0277 44.474 42.1986 44.627 42.4102V39.8418H45.501V47H44.6855ZM41.9072 44.4121C41.9072 45.0762 42.0472 45.5726 42.3271 45.9014C42.6071 46.2301 42.9375 46.3945 43.3184 46.3945C43.7025 46.3945 44.028 46.2383 44.2949 45.9258C44.5651 45.61 44.7002 45.1299 44.7002 44.4854C44.7002 43.7757 44.5635 43.2549 44.29 42.9229C44.0166 42.5908 43.6797 42.4248 43.2793 42.4248C42.8887 42.4248 42.5615 42.5843 42.2979 42.9033C42.0374 43.2223 41.9072 43.7253 41.9072 44.4121ZM49.7832 47V39.8418H52.249C52.8057 39.8418 53.2305 39.876 53.5234 39.9443C53.9336 40.0387 54.2835 40.2096 54.5732 40.457C54.9508 40.776 55.2324 41.1846 55.418 41.6826C55.6068 42.1774 55.7012 42.7438 55.7012 43.3818C55.7012 43.9255 55.6377 44.4072 55.5107 44.8271C55.3838 45.2471 55.221 45.5954 55.0225 45.8721C54.8239 46.1455 54.6058 46.362 54.3682 46.5215C54.1338 46.6777 53.849 46.7965 53.5137 46.8779C53.1816 46.9593 52.7992 47 52.3662 47H49.7832ZM50.7305 46.1553H52.2588C52.7308 46.1553 53.1003 46.1113 53.3672 46.0234C53.6374 45.9355 53.8522 45.8118 54.0117 45.6523C54.2363 45.4277 54.4105 45.1266 54.5342 44.749C54.6611 44.3682 54.7246 43.9076 54.7246 43.3672C54.7246 42.6185 54.6009 42.0439 54.3535 41.6436C54.1094 41.2399 53.8115 40.9697 53.46 40.833C53.2061 40.7354 52.7975 40.6865 52.2344 40.6865H50.7305V46.1553ZM60.4473 45.3301L61.3555 45.4424C61.2122 45.973 60.9469 46.3848 60.5596 46.6777C60.1722 46.9707 59.6774 47.1172 59.0752 47.1172C58.3167 47.1172 57.7145 46.8844 57.2686 46.4189C56.8258 45.9502 56.6045 45.2943 56.6045 44.4512C56.6045 43.5788 56.8291 42.9017 57.2783 42.4199C57.7275 41.9382 58.3102 41.6973 59.0264 41.6973C59.7197 41.6973 60.2861 41.9333 60.7256 42.4053C61.165 42.8773 61.3848 43.5413 61.3848 44.3975C61.3848 44.4495 61.3831 44.5277 61.3799 44.6318H57.5127C57.5452 45.2015 57.7064 45.6377 57.9961 45.9404C58.2858 46.2432 58.6471 46.3945 59.0801 46.3945C59.4023 46.3945 59.6774 46.3099 59.9053 46.1406C60.1331 45.9714 60.3138 45.7012 60.4473 45.3301ZM57.5615 43.9092H60.457C60.418 43.473 60.3073 43.1458 60.125 42.9277C59.8451 42.5892 59.4821 42.4199 59.0361 42.4199C58.6325 42.4199 58.2923 42.555 58.0156 42.8252C57.7422 43.0954 57.5908 43.4567 57.5615 43.9092ZM63.9043 47L61.9316 41.8145H62.8594L63.9727 44.9199C64.0931 45.2552 64.2038 45.6035 64.3047 45.9648C64.3828 45.6914 64.4919 45.3626 64.6318 44.9785L65.7842 41.8145H66.6875L64.7246 47H63.9043ZM67.4688 40.8525V39.8418H68.3477V40.8525H67.4688ZM67.4688 47V41.8145H68.3477V47H67.4688ZM73.0742 45.1006L73.9385 45.2129C73.8441 45.8086 73.6016 46.2757 73.2109 46.6143C72.8236 46.9495 72.3467 47.1172 71.7803 47.1172C71.0706 47.1172 70.4993 46.8861 70.0664 46.4238C69.6367 45.9583 69.4219 45.2926 69.4219 44.4268C69.4219 43.8669 69.5146 43.377 69.7002 42.957C69.8857 42.5371 70.1673 42.223 70.5449 42.0146C70.9258 41.8031 71.3392 41.6973 71.7852 41.6973C72.3483 41.6973 72.8089 41.8405 73.167 42.127C73.5251 42.4102 73.7546 42.8138 73.8555 43.3379L73.001 43.4697C72.9196 43.1214 72.7747 42.8594 72.5664 42.6836C72.3613 42.5078 72.1123 42.4199 71.8193 42.4199C71.3766 42.4199 71.0169 42.5794 70.7402 42.8984C70.4635 43.2142 70.3252 43.7155 70.3252 44.4023C70.3252 45.099 70.4587 45.6051 70.7256 45.9209C70.9925 46.2367 71.3408 46.3945 71.7705 46.3945C72.1156 46.3945 72.4036 46.2887 72.6348 46.0771C72.8659 45.8656 73.0124 45.54 73.0742 45.1006ZM78.2402 45.3301L79.1484 45.4424C79.0052 45.973 78.7399 46.3848 78.3525 46.6777C77.9652 46.9707 77.4704 47.1172 76.8682 47.1172C76.1097 47.1172 75.5075 46.8844 75.0615 46.4189C74.6188 45.9502 74.3975 45.2943 74.3975 44.4512C74.3975 43.5788 74.6221 42.9017 75.0713 42.4199C75.5205 41.9382 76.1032 41.6973 76.8193 41.6973C77.5127 41.6973 78.0791 41.9333 78.5186 42.4053C78.958 42.8773 79.1777 43.5413 79.1777 44.3975C79.1777 44.4495 79.1761 44.5277 79.1729 44.6318H75.3057C75.3382 45.2015 75.4993 45.6377 75.7891 45.9404C76.0788 46.2432 76.4401 46.3945 76.873 46.3945C77.1953 46.3945 77.4704 46.3099 77.6982 46.1406C77.9261 45.9714 78.1068 45.7012 78.2402 45.3301ZM75.3545 43.9092H78.25C78.2109 43.473 78.1003 43.1458 77.918 42.9277C77.638 42.5892 77.2751 42.4199 76.8291 42.4199C76.4255 42.4199 76.0853 42.555 75.8086 42.8252C75.5352 43.0954 75.3838 43.4567 75.3545 43.9092ZM79.9053 45.4521L80.7744 45.3154C80.8232 45.6637 80.9583 45.9307 81.1797 46.1162C81.4043 46.3018 81.7168 46.3945 82.1172 46.3945C82.5208 46.3945 82.8203 46.3132 83.0156 46.1504C83.2109 45.9844 83.3086 45.7907 83.3086 45.5693C83.3086 45.3708 83.2223 45.2145 83.0498 45.1006C82.9294 45.0225 82.6299 44.9232 82.1514 44.8027C81.5068 44.64 81.0592 44.5 80.8086 44.3828C80.5612 44.2624 80.3724 44.098 80.2422 43.8896C80.1152 43.6781 80.0518 43.4453 80.0518 43.1914C80.0518 42.9603 80.1038 42.7471 80.208 42.5518C80.3154 42.3532 80.4603 42.1888 80.6426 42.0586C80.7793 41.9577 80.9648 41.873 81.1992 41.8047C81.4368 41.7331 81.6908 41.6973 81.9609 41.6973C82.3678 41.6973 82.7243 41.7559 83.0303 41.873C83.3395 41.9902 83.5674 42.1497 83.7139 42.3516C83.8604 42.5501 83.9613 42.8171 84.0166 43.1523L83.1572 43.2695C83.1182 43.0026 83.0042 42.7943 82.8154 42.6445C82.6299 42.4948 82.3662 42.4199 82.0244 42.4199C81.6208 42.4199 81.3327 42.4867 81.1602 42.6201C80.9876 42.7536 80.9014 42.9098 80.9014 43.0889C80.9014 43.2028 80.9372 43.3053 81.0088 43.3965C81.0804 43.4909 81.1927 43.569 81.3457 43.6309C81.4336 43.6634 81.6924 43.7383 82.1221 43.8555C82.7438 44.0215 83.1768 44.1582 83.4209 44.2656C83.6683 44.3698 83.862 44.5228 84.002 44.7246C84.1419 44.9264 84.2119 45.1771 84.2119 45.4766C84.2119 45.7695 84.1257 46.0462 83.9531 46.3066C83.7839 46.5638 83.5381 46.764 83.2158 46.9072C82.8936 47.0472 82.529 47.1172 82.1221 47.1172C81.4482 47.1172 80.9339 46.9772 80.5791 46.6973C80.2275 46.4173 80.0029 46.0023 79.9053 45.4521Z" fill="#2A303D"/>
</svg>
