<svg width="116" height="67" viewBox="0 0 116 67" fill="none" xmlns="http://www.w3.org/2000/svg">
<path d="M65.4096 29.4629L65.4192 29.4459C65.5578 29.2125 65.6211 28.9422 65.6005 28.6716L65.5909 27.5086V25.8615C65.5978 25.7414 65.5845 25.6211 65.5517 25.5054C65.5237 25.4195 65.4697 25.3443 65.3972 25.2903C65.3246 25.2364 65.2371 25.2062 65.1468 25.2041C65.0533 25.205 64.9631 25.238 64.8911 25.2976C64.8191 25.3572 64.7698 25.4397 64.7515 25.5313C64.7383 25.6227 64.7058 25.7103 64.656 25.788C64.6062 25.8658 64.5403 25.932 64.4628 25.9821C64.1348 26.2137 63.7716 26.3907 63.3871 26.5062C62.6752 26.7372 61.9441 26.9045 61.2026 27.0059C60.8028 27.0686 60.4014 27.116 59.9982 27.1481C59.574 27.1806 59.1483 27.2095 58.7241 27.2221C58.0786 27.2369 57.4324 27.2443 56.7854 27.1969C56.1983 27.154 55.6105 27.1229 55.0257 27.0489C54.6682 27.003 54.3128 26.9489 53.959 26.8838C53.5588 26.811 53.1633 26.7143 52.7746 26.5944C52.3505 26.4863 51.945 26.3154 51.5716 26.0873C51.4592 26.0338 51.3612 25.9542 51.2857 25.8552C51.2103 25.7562 51.1596 25.6406 51.1378 25.518C51.1179 25.4285 51.0675 25.3487 50.9953 25.2922C50.923 25.2358 50.8334 25.2062 50.7418 25.2086C50.6513 25.2117 50.5641 25.243 50.4924 25.2983C50.4207 25.3535 50.3681 25.4298 50.342 25.5165C50.3122 25.6163 50.2995 25.7204 50.3043 25.8245C50.3043 26.2375 50.3043 26.6506 50.3043 27.0637L50.2983 28.3377C50.2983 28.3547 50.2983 28.3717 50.2983 28.3895V28.5694H50.3035C50.3035 28.6679 50.3035 28.7663 50.3102 28.8655C50.3133 29.0184 50.346 29.1692 50.4064 29.3097C50.6057 29.7039 50.9345 30.0175 51.3377 30.198C51.896 30.4799 52.4867 30.6925 53.0966 30.8309C53.5844 30.9553 54.0819 31.0419 54.5771 31.1174C54.9917 31.1803 55.4099 31.2262 55.8282 31.2655C56.2598 31.3032 56.6943 31.3239 57.1259 31.3336C57.804 31.3491 58.4821 31.3558 59.1616 31.3099C59.7539 31.2692 60.3513 31.2359 60.9435 31.1618C61.3876 31.1041 61.8318 31.0345 62.2701 30.9472C62.8083 30.8428 63.3377 30.697 63.8535 30.5111C64.3333 30.3612 64.7768 30.1131 65.1556 29.7827C65.2505 29.6949 65.3338 29.5954 65.4036 29.4866L65.4096 29.4629Z" fill="#5F6C89"/>
<path d="M50.3761 22.4864C50.4818 22.7619 50.6674 22.9996 50.9091 23.1689C51.2571 23.4211 51.6412 23.6192 52.0484 23.7567C52.2705 23.8366 52.3083 23.9047 52.2616 24.1313C52.258 24.151 52.2563 24.1711 52.2564 24.1912C52.2564 24.5206 52.252 24.8501 52.2564 25.1795C52.2586 25.2644 52.2878 25.3464 52.3397 25.4136C52.3916 25.4808 52.4635 25.5298 52.5451 25.5533C53.1683 25.7323 53.8023 25.871 54.4432 25.9686C54.8456 26.0383 55.2513 26.0877 55.6587 26.1167C56.1429 26.1478 56.6255 26.2055 57.1126 26.1981C57.1526 26.1981 57.1926 26.2048 57.2326 26.2077C57.4972 26.2267 57.7627 26.2294 58.0276 26.2159C58.1169 26.2106 58.2009 26.1719 58.2628 26.1074C58.3247 26.0429 58.3599 25.9573 58.3615 25.8679C58.3665 25.8218 58.3623 25.7752 58.3491 25.7308C58.3359 25.6863 58.314 25.6449 58.2846 25.609C58.2553 25.5731 58.219 25.5434 58.1781 25.5217C58.1372 25.4999 58.0923 25.4865 58.0461 25.4823C57.8265 25.4606 57.6058 25.4512 57.3851 25.4541C56.8965 25.4356 56.4079 25.4252 55.9201 25.3801C55.4937 25.3406 55.0685 25.2927 54.6446 25.2365C54.1789 25.1743 53.7237 25.0692 53.2639 24.9796C53.0663 24.9411 53.0278 24.89 53.0285 24.6835C53.0285 24.5628 53.0285 24.4422 53.0285 24.3215C53.033 24.1572 53.1166 24.0868 53.2758 24.1179C53.5023 24.1616 53.7281 24.209 53.9539 24.2549C54.3936 24.3459 54.8422 24.4029 55.2864 24.4488C55.7757 24.5014 56.268 24.5473 56.7617 24.5584C57.1778 24.5673 57.5945 24.6043 58.0106 24.5947C58.4399 24.585 58.8686 24.5628 59.2979 24.5547C59.4827 24.554 59.6672 24.5436 59.8509 24.5236C60.3632 24.4592 60.8791 24.437 61.3892 24.3459C61.7734 24.2771 62.1598 24.2201 62.5403 24.1298C62.7017 24.0913 62.815 24.1475 62.8194 24.2778C62.8246 24.4548 62.8194 24.6317 62.8194 24.8086C62.8218 24.8452 62.8113 24.8815 62.7899 24.9112C62.7684 24.9409 62.7372 24.9622 62.7017 24.9715C62.5981 25.0026 62.4929 25.0285 62.3871 25.0499C62.128 25.1018 61.8689 25.1484 61.6098 25.198C61.5407 25.2141 61.4782 25.2512 61.431 25.3042C61.3838 25.3572 61.3542 25.4236 61.3463 25.4941C61.3354 25.5583 61.3413 25.6243 61.3635 25.6856C61.3857 25.7469 61.4234 25.8014 61.4728 25.8438C61.5223 25.8862 61.5819 25.9151 61.6459 25.9276C61.7099 25.9401 61.776 25.9359 61.8378 25.9153C62.2864 25.8354 62.7335 25.7443 63.1747 25.6266C63.4938 25.5415 63.5915 25.4267 63.5915 25.0914C63.5915 24.7338 63.5915 24.3763 63.5915 24.0187C63.5849 23.9693 63.5962 23.9192 63.6233 23.8773C63.6505 23.8355 63.6917 23.8048 63.7396 23.7907C64.1296 23.6573 64.5024 23.4779 64.85 23.2563C65.086 23.1211 65.28 22.9233 65.4106 22.6847C65.5413 22.4462 65.6034 22.1762 65.5903 21.9045C65.5754 21.447 65.5903 20.9888 65.5903 20.5306C65.5903 20.0316 65.5903 19.5332 65.5903 19.0352C65.5912 18.9471 65.5795 18.8594 65.5555 18.7746C65.5433 18.7215 65.5207 18.6714 65.489 18.6271C65.4572 18.5828 65.417 18.5452 65.3707 18.5166C65.3244 18.4879 65.2728 18.4688 65.219 18.4602C65.1652 18.4516 65.1102 18.4538 65.0573 18.4667C64.9638 18.4857 64.8805 18.5382 64.823 18.6142C64.7655 18.6902 64.7377 18.7847 64.7449 18.8797C64.7496 18.9481 64.7393 19.0168 64.7146 19.0807C64.6899 19.1447 64.6515 19.2024 64.602 19.2499C64.4732 19.3767 64.3268 19.4844 64.1674 19.5697C63.7758 19.7725 63.3629 19.9314 62.9364 20.0435C62.4698 20.1732 61.9959 20.275 61.5173 20.3484C61.2522 20.3899 60.9867 20.4269 60.7207 20.4595C60.5068 20.4861 60.2928 20.5084 60.0789 20.5283C59.9827 20.5446 59.8317 20.5572 59.6481 20.5676C59.2987 20.5883 56.7033 20.5905 56.7033 20.5905C56.3183 20.572 55.9349 20.5417 55.5521 20.5032C55.2091 20.4686 54.8681 20.425 54.5291 20.3721C54.3107 20.3381 54.0916 20.3129 53.8769 20.2655C53.4177 20.1726 52.9642 20.0537 52.5185 19.9095C52.15 19.7979 51.8006 19.6312 51.4821 19.415C51.3833 19.3645 51.3002 19.2879 51.2419 19.1936C51.1836 19.0992 51.1522 18.9907 51.1512 18.8797C51.1581 18.7947 51.137 18.7098 51.0912 18.6379C51.0454 18.566 50.9773 18.5111 50.8973 18.4815C50.8113 18.45 50.7173 18.4474 50.6297 18.4741C50.542 18.5009 50.4655 18.5554 50.4117 18.6295C50.3412 18.723 50.3044 18.8375 50.3073 18.9545C50.3073 19.2084 50.3073 19.4616 50.3073 19.7148V21.0761C50.3073 21.4137 50.3073 21.7513 50.3073 22.0888C50.3083 22.2242 50.3315 22.3585 50.3761 22.4864Z" fill="#5F6C89"/>
<path d="M50.3011 14.3523C50.3019 14.3654 50.3019 14.3785 50.3011 14.3915C50.2966 14.7254 50.3011 15.0578 50.3011 15.3924C50.3007 15.5364 50.3113 15.6801 50.3329 15.8225C50.3984 16.1612 50.5923 16.4614 50.8741 16.6605C51.2472 16.9398 51.6642 17.1549 52.1081 17.2971C52.1557 17.3095 52.1971 17.339 52.2244 17.3799C52.2517 17.4209 52.263 17.4705 52.2562 17.5192C52.248 17.8686 52.2495 18.2188 52.2502 18.5689C52.2478 18.654 52.2732 18.7376 52.3224 18.807C52.3717 18.8765 52.4423 18.928 52.5234 18.9538C52.6914 19.0057 52.8602 19.0575 53.032 19.1019C53.5065 19.2144 53.9854 19.3106 54.4666 19.3862C54.8819 19.4513 55.3002 19.5053 55.7192 19.5342C56.2551 19.5675 56.7896 19.6341 57.3278 19.6156C57.4282 19.6143 57.5285 19.6192 57.6283 19.6305C57.7485 19.6419 57.8694 19.6419 57.9896 19.6305C58.0909 19.6276 58.1869 19.5846 58.2565 19.511C58.3262 19.4373 58.3637 19.339 58.3608 19.2377C58.358 19.1364 58.315 19.0404 58.2414 18.9708C58.1677 18.9012 58.0694 18.8636 57.9681 18.8665C57.2974 18.862 56.6275 18.8606 55.959 18.7925C55.6681 18.7643 55.3764 18.7406 55.0862 18.7051C54.6539 18.6518 54.2216 18.5911 53.7952 18.4971C53.5842 18.4505 53.371 18.4164 53.1637 18.349C53.0897 18.3253 53.0283 18.2876 53.0253 18.201C53.0216 18.0529 53.0201 17.9115 53.0253 17.7672C53.0281 17.7432 53.0359 17.72 53.048 17.6991C53.0601 17.6782 53.0764 17.66 53.0958 17.6456C53.1152 17.6311 53.1373 17.6208 53.1608 17.6153C53.1844 17.6097 53.2088 17.609 53.2326 17.6132C53.465 17.6732 53.7019 17.7124 53.9366 17.7613C54.2889 17.8353 54.6458 17.879 55.0011 17.9323C55.3016 17.9782 55.6074 17.9863 55.9109 18.0152C56.5224 18.0729 57.1368 18.0892 57.7505 18.1025C58.1206 18.1122 58.4974 18.0899 58.8705 18.0833C59.0149 18.0833 59.1585 18.0729 59.3036 18.0625C59.8906 18.0189 60.4769 17.9826 61.0617 17.9004C61.4022 17.8531 61.7405 17.7938 62.0803 17.7383C62.2663 17.69 62.4564 17.6593 62.6481 17.6465C62.7562 17.6465 62.8132 17.6983 62.8132 17.8086C62.8132 17.9412 62.8132 18.0737 62.8132 18.2062C62.8154 18.2469 62.8031 18.2872 62.7784 18.3197C62.7537 18.3522 62.7183 18.375 62.6785 18.3838C62.5637 18.4179 62.4453 18.4408 62.3276 18.4645C62.0966 18.5119 61.8627 18.5474 61.6354 18.6067C61.55 18.6309 61.4764 18.6855 61.4284 18.7602C61.3804 18.8349 61.3614 18.9246 61.3748 19.0123C61.3914 19.1109 61.4463 19.199 61.5276 19.2571C61.6089 19.3153 61.71 19.3388 61.8087 19.3225C62.2669 19.2485 62.7192 19.1478 63.1685 19.0331C63.4832 18.9531 63.5838 18.8339 63.5846 18.5097C63.5853 18.1854 63.5846 17.8582 63.5846 17.5325C63.5785 17.4806 63.5917 17.4283 63.6218 17.3856C63.6518 17.3428 63.6965 17.3127 63.7474 17.3008C64.2072 17.155 64.6396 16.9336 65.0266 16.6457C65.1869 16.5334 65.3198 16.3864 65.4154 16.2157C65.511 16.045 65.5669 15.8549 65.5789 15.6596C65.6007 15.3931 65.6029 15.1254 65.5855 14.8586V13.424C65.5922 13.3004 65.5855 13.1745 65.5855 13.0494V12.9399C65.5855 12.7733 65.5922 12.6067 65.5855 12.4402C65.5794 12.2841 65.5468 12.1301 65.4893 11.9849C65.364 11.7136 65.1653 11.4828 64.9156 11.3187C64.5439 11.0653 64.1371 10.8678 63.7082 10.7323C63.5424 10.6724 63.3721 10.625 63.2026 10.5761C63.0331 10.5273 62.8724 10.477 62.7036 10.4459C62.5349 10.4148 62.3875 10.3578 62.221 10.3363C61.9589 10.3023 61.6976 10.2489 61.437 10.2031C60.9788 10.1224 60.5154 10.0876 60.0549 10.0328C59.6374 9.98246 59.214 9.97654 58.7965 9.95877C58.1709 9.93804 57.5432 9.93063 56.9162 9.97061C56.2647 10.0121 55.6133 10.0446 54.9648 10.1298C54.5947 10.1816 54.2186 10.2312 53.8485 10.3C53.4598 10.3741 53.0742 10.4599 52.6929 10.5688C52.1287 10.7119 51.5884 10.9364 51.0887 11.235C50.8413 11.3639 50.6356 11.5605 50.4959 11.802C50.3561 12.0435 50.288 12.3198 50.2996 12.5986C50.304 12.6867 50.304 12.7755 50.3033 12.8636L50.3011 14.3523ZM51.2523 12.2055C51.3964 12.0482 51.568 11.9185 51.7587 11.8228C52.2551 11.5853 52.7765 11.4043 53.3133 11.2831C53.7249 11.1795 54.1409 11.0995 54.5591 11.0359C54.8826 10.987 55.2106 10.953 55.5363 10.9167C55.8916 10.8767 56.2477 10.8723 56.6023 10.8323C57.0509 10.7819 57.5017 10.819 57.9511 10.8027C58.5381 10.7908 59.1237 10.8116 59.7092 10.856C60.0794 10.8834 60.4495 10.9071 60.81 10.9589C61.36 11.0366 61.9115 11.1143 62.4519 11.2468C62.9728 11.3593 63.4808 11.5248 63.968 11.7406C64.2243 11.8479 64.4549 12.0084 64.6446 12.2114C64.7742 12.3595 64.7742 12.4283 64.6446 12.5764C64.4079 12.8237 64.1163 13.0119 63.7933 13.1257C63.3667 13.2994 62.9261 13.4368 62.4764 13.5365C62.1536 13.6105 61.8272 13.6787 61.4977 13.7253C61.2016 13.7668 60.9122 13.8156 60.6176 13.8437C60.4058 13.8644 60.1949 13.8918 59.9831 13.9118C59.9379 13.9233 59.8919 13.9317 59.8454 13.937C59.0464 14.0009 58.2441 14.0155 57.4433 13.9807C57.4282 13.9842 57.4128 13.9859 57.3974 13.9859C56.9673 13.9977 56.5401 13.9429 56.1115 13.9237C55.8065 13.9103 55.5045 13.8704 55.2017 13.8371C54.8123 13.7934 54.4244 13.7371 54.0387 13.6624C53.7522 13.6061 53.4643 13.5521 53.183 13.4758C52.5814 13.3493 52.0068 13.1177 51.4855 12.7918C51.397 12.7281 51.3169 12.6535 51.2472 12.5697C51.122 12.4298 51.1221 12.3476 51.2509 12.2063L51.2523 12.2055Z" fill="#5F6C89"/>
<path d="M73.1361 8.98186C71.7965 7.67798 70.0697 6.84432 68.2155 6.60631C67.8671 6.57102 67.5348 6.44131 67.2546 6.23116C66.9744 6.02101 66.7569 5.73839 66.6254 5.41373C66.0696 4.17631 65.2476 3.07677 64.218 2.19354C62.4009 0.674892 60.0787 -0.104192 57.7132 0.011208C57.7086 0.0104734 57.7038 0.0104734 57.6992 0.011208C57.6067 0.00750665 57.5134 0.00528908 57.4201 0.00528908C55.9018 0.0404409 54.4195 0.474468 53.1221 1.26376C51.4603 2.2475 50.1511 3.73027 49.3807 5.50109C49.2539 5.81018 49.0446 6.07845 48.7757 6.27663C48.5068 6.47482 48.1885 6.59526 47.8558 6.62481C46.7012 6.75689 45.5846 7.11779 44.5712 7.68638C42.8151 8.72394 41.4531 10.3151 40.6988 12.2102C40.1349 13.4562 39.9714 14.8464 40.2309 16.1892C40.4772 17.2809 40.8905 18.3281 41.4561 19.2939C42.0584 20.4492 42.9198 21.4496 43.9728 22.2169C45.0258 22.9842 46.242 23.4976 47.5263 23.717C47.794 23.7764 48.0736 23.7468 48.3229 23.6326C48.4733 23.5722 48.6006 23.4656 48.6866 23.3282C48.7725 23.1908 48.8126 23.0296 48.8011 22.8679C48.812 22.7227 48.7719 22.5781 48.6877 22.4592C48.6035 22.3403 48.4805 22.2545 48.3399 22.2165C48.1553 22.1371 47.9631 22.0768 47.7662 22.0366C46.2483 21.807 44.8557 21.0618 43.8227 19.9261C43.1592 19.228 42.6481 18.3995 42.3218 17.4934C41.9955 16.5872 41.8612 15.6231 41.9274 14.6622C41.9936 13.7014 42.2589 12.7648 42.7064 11.9119C43.1538 11.0591 43.7738 10.3086 44.5267 9.70806C45.9132 8.66797 47.6147 8.1354 49.3467 8.19939C50.161 8.1868 50.161 8.1868 50.4304 7.4517L50.4586 7.37767C50.8904 6.1826 51.5255 5.07114 52.3359 4.09234C52.962 3.34665 53.7345 2.73745 54.6056 2.30247C55.4767 1.86749 56.4279 1.616 57.4001 1.56357C58.5434 1.42177 59.7039 1.57278 60.7728 2.00241C61.8418 2.43205 62.784 3.12622 63.5111 4.0198C64.4875 5.24042 65.267 6.60618 65.8215 8.06761C65.8955 8.25194 65.9444 8.28155 66.1405 8.26897C66.5723 8.24281 67.0052 8.24405 67.4368 8.27267C68.8505 8.31334 70.2186 8.78212 71.3602 9.61702C72.2437 10.2739 72.9537 11.1364 73.4285 12.1297C73.9033 13.1229 74.1287 14.217 74.0852 15.3171C74.0596 16.9248 73.4748 18.4734 72.4313 19.6967C71.3879 20.92 69.9508 21.7416 68.3673 22.0203C68.0898 22.0556 67.8189 22.1304 67.5626 22.2424C67.4681 22.2809 67.3876 22.3473 67.3317 22.4327C67.2759 22.5182 67.2475 22.6186 67.2502 22.7206C67.2405 22.8609 67.2621 23.0015 67.3133 23.1325C67.3645 23.2634 67.4441 23.3814 67.5463 23.4779C67.664 23.5805 67.8031 23.6557 67.9533 23.698C68.1036 23.7404 68.2614 23.7489 68.4154 23.7229C69.1025 23.6054 69.7718 23.4012 70.4075 23.1152L70.7036 22.9975C72.2913 22.2706 73.6297 21.092 74.5513 19.6088C75.4729 18.1256 75.937 16.4037 75.8855 14.6583C75.7037 12.4909 74.7239 10.4682 73.1361 8.98186Z" fill="#5F6C89"/>
<path d="M14.2305 48.3452V41.187H15.6562L17.3506 46.2554C17.5068 46.7274 17.6208 47.0806 17.6924 47.3149C17.7738 47.0545 17.9007 46.672 18.0732 46.1675L19.7871 41.187H21.0615V48.3452H20.1484V42.354L18.0684 48.3452H17.2139L15.1436 42.2515V48.3452H14.2305ZM25.8613 47.7056C25.5358 47.9823 25.2217 48.1776 24.9189 48.2915C24.6195 48.4054 24.2972 48.4624 23.9521 48.4624C23.3825 48.4624 22.9447 48.3241 22.6387 48.0474C22.3327 47.7674 22.1797 47.411 22.1797 46.978C22.1797 46.7241 22.2367 46.493 22.3506 46.2847C22.4678 46.0731 22.6191 45.9038 22.8047 45.7769C22.9935 45.6499 23.2051 45.5539 23.4395 45.4888C23.612 45.4432 23.8724 45.3993 24.2207 45.3569C24.9303 45.2723 25.4528 45.1714 25.7881 45.0542C25.7913 44.9338 25.793 44.8573 25.793 44.8247C25.793 44.4666 25.71 44.2144 25.5439 44.0679C25.3193 43.8693 24.9857 43.77 24.543 43.77C24.1296 43.77 23.8236 43.8433 23.625 43.9897C23.4297 44.133 23.2848 44.3885 23.1904 44.7563L22.3311 44.6392C22.4092 44.2713 22.5378 43.9751 22.7168 43.7505C22.8958 43.5226 23.1546 43.3485 23.4932 43.228C23.8317 43.1043 24.224 43.0425 24.6699 43.0425C25.1126 43.0425 25.4723 43.0946 25.749 43.1987C26.0257 43.3029 26.2292 43.4347 26.3594 43.5942C26.4896 43.7505 26.5807 43.9491 26.6328 44.1899C26.6621 44.3397 26.6768 44.6099 26.6768 45.0005V46.1724C26.6768 46.9894 26.6947 47.507 26.7305 47.7251C26.7695 47.9399 26.8444 48.1466 26.9551 48.3452H26.0371C25.946 48.1629 25.8874 47.9497 25.8613 47.7056ZM25.7881 45.7427C25.4691 45.8729 24.9906 45.9836 24.3525 46.0747C23.9912 46.1268 23.7357 46.1854 23.5859 46.2505C23.4362 46.3156 23.3206 46.4116 23.2393 46.5386C23.1579 46.6623 23.1172 46.8006 23.1172 46.9536C23.1172 47.188 23.2051 47.3833 23.3809 47.5396C23.5599 47.6958 23.8203 47.7739 24.1621 47.7739C24.5007 47.7739 24.8018 47.7007 25.0654 47.5542C25.3291 47.4045 25.5228 47.201 25.6465 46.9438C25.7409 46.7453 25.7881 46.4523 25.7881 46.0649V45.7427ZM28.0439 48.3452V43.1597H28.835V43.897C29.2158 43.3273 29.766 43.0425 30.4854 43.0425C30.7979 43.0425 31.0843 43.0994 31.3447 43.2134C31.6084 43.3241 31.8053 43.4705 31.9355 43.6528C32.0658 43.8351 32.1569 44.0516 32.209 44.3022C32.2415 44.465 32.2578 44.7498 32.2578 45.1567V48.3452H31.3789V45.1909C31.3789 44.8328 31.3447 44.5659 31.2764 44.3901C31.208 44.2111 31.0859 44.0695 30.9102 43.9653C30.7376 43.8579 30.5342 43.8042 30.2998 43.8042C29.9255 43.8042 29.6016 43.923 29.3281 44.1606C29.0579 44.3983 28.9229 44.8491 28.9229 45.5132V48.3452H28.0439ZM36.9941 47.7056C36.6686 47.9823 36.3545 48.1776 36.0518 48.2915C35.7523 48.4054 35.43 48.4624 35.085 48.4624C34.5153 48.4624 34.0775 48.3241 33.7715 48.0474C33.4655 47.7674 33.3125 47.411 33.3125 46.978C33.3125 46.7241 33.3695 46.493 33.4834 46.2847C33.6006 46.0731 33.752 45.9038 33.9375 45.7769C34.1263 45.6499 34.3379 45.5539 34.5723 45.4888C34.7448 45.4432 35.0052 45.3993 35.3535 45.3569C36.0632 45.2723 36.5856 45.1714 36.9209 45.0542C36.9242 44.9338 36.9258 44.8573 36.9258 44.8247C36.9258 44.4666 36.8428 44.2144 36.6768 44.0679C36.4521 43.8693 36.1185 43.77 35.6758 43.77C35.2624 43.77 34.9564 43.8433 34.7578 43.9897C34.5625 44.133 34.4176 44.3885 34.3232 44.7563L33.4639 44.6392C33.542 44.2713 33.6706 43.9751 33.8496 43.7505C34.0286 43.5226 34.2874 43.3485 34.626 43.228C34.9645 43.1043 35.3568 43.0425 35.8027 43.0425C36.2454 43.0425 36.6051 43.0946 36.8818 43.1987C37.1585 43.3029 37.362 43.4347 37.4922 43.5942C37.6224 43.7505 37.7135 43.9491 37.7656 44.1899C37.7949 44.3397 37.8096 44.6099 37.8096 45.0005V46.1724C37.8096 46.9894 37.8275 47.507 37.8633 47.7251C37.9023 47.9399 37.9772 48.1466 38.0879 48.3452H37.1699C37.0788 48.1629 37.0202 47.9497 36.9941 47.7056ZM36.9209 45.7427C36.6019 45.8729 36.1234 45.9836 35.4854 46.0747C35.124 46.1268 34.8685 46.1854 34.7188 46.2505C34.569 46.3156 34.4535 46.4116 34.3721 46.5386C34.2907 46.6623 34.25 46.8006 34.25 46.9536C34.25 47.188 34.3379 47.3833 34.5137 47.5396C34.6927 47.6958 34.9531 47.7739 35.2949 47.7739C35.6335 47.7739 35.9346 47.7007 36.1982 47.5542C36.4619 47.4045 36.6556 47.201 36.7793 46.9438C36.8737 46.7453 36.9209 46.4523 36.9209 46.0649V45.7427ZM39.0156 48.7749L39.8701 48.9019C39.9059 49.1655 40.0052 49.3576 40.168 49.478C40.3861 49.6408 40.6839 49.7222 41.0615 49.7222C41.4684 49.7222 41.7826 49.6408 42.0039 49.478C42.2253 49.3153 42.375 49.0874 42.4531 48.7944C42.4987 48.6154 42.5199 48.2394 42.5166 47.6665C42.1325 48.119 41.654 48.3452 41.0811 48.3452C40.3682 48.3452 39.8164 48.0881 39.4258 47.5737C39.0352 47.0594 38.8398 46.4425 38.8398 45.7231C38.8398 45.2284 38.9294 44.7726 39.1084 44.356C39.2874 43.936 39.5462 43.6121 39.8848 43.3843C40.2266 43.1564 40.627 43.0425 41.0859 43.0425C41.6979 43.0425 42.2025 43.2899 42.5996 43.7847V43.1597H43.4102V47.6421C43.4102 48.4494 43.3271 49.0207 43.1611 49.356C42.9984 49.6945 42.738 49.9614 42.3799 50.1567C42.0251 50.3521 41.5872 50.4497 41.0664 50.4497C40.4479 50.4497 39.9482 50.3097 39.5674 50.0298C39.1865 49.7531 39.0026 49.3348 39.0156 48.7749ZM39.7432 45.6597C39.7432 46.34 39.8783 46.8364 40.1484 47.1489C40.4186 47.4614 40.7572 47.6177 41.1641 47.6177C41.5677 47.6177 41.9062 47.4631 42.1797 47.1538C42.4531 46.8413 42.5898 46.353 42.5898 45.689C42.5898 45.0542 42.4482 44.5757 42.165 44.2534C41.8851 43.9312 41.5465 43.77 41.1494 43.77C40.7588 43.77 40.4268 43.9295 40.1533 44.2485C39.8799 44.5643 39.7432 45.0347 39.7432 45.6597ZM48.293 46.6753L49.2012 46.7876C49.0579 47.3182 48.7926 47.73 48.4053 48.0229C48.0179 48.3159 47.5231 48.4624 46.9209 48.4624C46.1624 48.4624 45.5602 48.2297 45.1143 47.7642C44.6715 47.2954 44.4502 46.6395 44.4502 45.7964C44.4502 44.924 44.6748 44.2469 45.124 43.7651C45.5732 43.2834 46.1559 43.0425 46.8721 43.0425C47.5654 43.0425 48.1318 43.2785 48.5713 43.7505C49.0107 44.2225 49.2305 44.8866 49.2305 45.7427C49.2305 45.7948 49.2288 45.8729 49.2256 45.9771H45.3584C45.391 46.5467 45.5521 46.9829 45.8418 47.2856C46.1315 47.5884 46.4928 47.7397 46.9258 47.7397C47.248 47.7397 47.5231 47.6551 47.751 47.4858C47.9788 47.3166 48.1595 47.0464 48.293 46.6753ZM45.4072 45.2544H48.3027C48.2637 44.8182 48.153 44.491 47.9707 44.2729C47.6908 43.9344 47.3278 43.7651 46.8818 43.7651C46.4782 43.7651 46.138 43.9002 45.8613 44.1704C45.5879 44.4406 45.4365 44.8019 45.4072 45.2544ZM53.6738 48.3452V47.6909C53.3451 48.2052 52.8617 48.4624 52.2236 48.4624C51.8102 48.4624 51.4294 48.3485 51.0811 48.1206C50.736 47.8927 50.4674 47.5754 50.2754 47.1685C50.0866 46.7583 49.9922 46.2879 49.9922 45.7573C49.9922 45.2397 50.0785 44.771 50.251 44.3511C50.4235 43.9279 50.6823 43.604 51.0273 43.3794C51.3724 43.1548 51.7581 43.0425 52.1846 43.0425C52.4971 43.0425 52.7754 43.1092 53.0195 43.2427C53.2637 43.3729 53.4622 43.5438 53.6152 43.7554V41.187H54.4893V48.3452H53.6738ZM50.8955 45.7573C50.8955 46.4214 51.0355 46.9178 51.3154 47.2466C51.5954 47.5754 51.9258 47.7397 52.3066 47.7397C52.6908 47.7397 53.0163 47.5835 53.2832 47.271C53.5534 46.9552 53.6885 46.4751 53.6885 45.8306C53.6885 45.1209 53.5518 44.6001 53.2783 44.2681C53.0049 43.936 52.668 43.77 52.2676 43.77C51.877 43.77 51.5498 43.9295 51.2861 44.2485C51.0257 44.5675 50.8955 45.0705 50.8955 45.7573ZM58.791 48.3452V41.187H63.9668V42.0317H59.7383V44.2241H63.6982V45.064H59.7383V47.5005H64.1328V48.3452H58.791ZM65.3291 48.3452V43.1597H66.1201V43.897C66.501 43.3273 67.0511 43.0425 67.7705 43.0425C68.083 43.0425 68.3695 43.0994 68.6299 43.2134C68.8936 43.3241 69.0905 43.4705 69.2207 43.6528C69.3509 43.8351 69.4421 44.0516 69.4941 44.3022C69.5267 44.465 69.543 44.7498 69.543 45.1567V48.3452H68.6641V45.1909C68.6641 44.8328 68.6299 44.5659 68.5615 44.3901C68.4932 44.2111 68.3711 44.0695 68.1953 43.9653C68.0228 43.8579 67.8193 43.8042 67.585 43.8042C67.2106 43.8042 66.8867 43.923 66.6133 44.1606C66.3431 44.3983 66.208 44.8491 66.208 45.5132V48.3452H65.3291ZM74.2598 48.3452V47.6909C73.931 48.2052 73.4476 48.4624 72.8096 48.4624C72.3962 48.4624 72.0153 48.3485 71.667 48.1206C71.3219 47.8927 71.0534 47.5754 70.8613 47.1685C70.6725 46.7583 70.5781 46.2879 70.5781 45.7573C70.5781 45.2397 70.6644 44.771 70.8369 44.3511C71.0094 43.9279 71.2682 43.604 71.6133 43.3794C71.9583 43.1548 72.3441 43.0425 72.7705 43.0425C73.083 43.0425 73.3613 43.1092 73.6055 43.2427C73.8496 43.3729 74.0482 43.5438 74.2012 43.7554V41.187H75.0752V48.3452H74.2598ZM71.4814 45.7573C71.4814 46.4214 71.6214 46.9178 71.9014 47.2466C72.1813 47.5754 72.5117 47.7397 72.8926 47.7397C73.2767 47.7397 73.6022 47.5835 73.8691 47.271C74.1393 46.9552 74.2744 46.4751 74.2744 45.8306C74.2744 45.1209 74.1377 44.6001 73.8643 44.2681C73.5908 43.936 73.2539 43.77 72.8535 43.77C72.4629 43.77 72.1357 43.9295 71.8721 44.2485C71.6117 44.5675 71.4814 45.0705 71.4814 45.7573ZM76.4619 50.3325V43.1597H77.2627V43.8335C77.4515 43.5698 77.6647 43.3729 77.9023 43.2427C78.14 43.1092 78.4281 43.0425 78.7666 43.0425C79.2093 43.0425 79.5999 43.1564 79.9385 43.3843C80.277 43.6121 80.5326 43.9344 80.7051 44.3511C80.8776 44.7645 80.9639 45.2186 80.9639 45.7134C80.9639 46.244 80.8678 46.7225 80.6758 47.1489C80.487 47.5721 80.2103 47.8976 79.8457 48.1255C79.4844 48.3501 79.1035 48.4624 78.7031 48.4624C78.4102 48.4624 78.1465 48.4006 77.9121 48.2769C77.681 48.1532 77.4906 47.9969 77.3408 47.8081V50.3325H76.4619ZM77.2578 45.7817C77.2578 46.4491 77.3929 46.9422 77.6631 47.2612C77.9333 47.5802 78.2604 47.7397 78.6445 47.7397C79.0352 47.7397 79.3688 47.5754 79.6455 47.2466C79.9255 46.9146 80.0654 46.4019 80.0654 45.7085C80.0654 45.0477 79.9287 44.5529 79.6553 44.2241C79.3851 43.8953 79.0612 43.731 78.6836 43.731C78.3092 43.731 77.9772 43.9067 77.6875 44.2583C77.401 44.6066 77.2578 45.1144 77.2578 45.7817ZM81.7012 45.7524C81.7012 44.7922 81.9681 44.0809 82.502 43.6187C82.9479 43.2345 83.4915 43.0425 84.1328 43.0425C84.8457 43.0425 85.4284 43.2769 85.8809 43.7456C86.3333 44.2111 86.5596 44.8556 86.5596 45.6792C86.5596 46.3465 86.4587 46.8722 86.2568 47.2563C86.0583 47.6372 85.7669 47.9334 85.3828 48.145C85.002 48.3566 84.5853 48.4624 84.1328 48.4624C83.4069 48.4624 82.8193 48.2297 82.3701 47.7642C81.9242 47.2987 81.7012 46.6281 81.7012 45.7524ZM82.6045 45.7524C82.6045 46.4165 82.7493 46.9146 83.0391 47.2466C83.3288 47.5754 83.6934 47.7397 84.1328 47.7397C84.569 47.7397 84.932 47.5737 85.2217 47.2417C85.5114 46.9097 85.6562 46.4035 85.6562 45.7231C85.6562 45.0819 85.5098 44.5968 85.2168 44.2681C84.9271 43.936 84.5658 43.77 84.1328 43.77C83.6934 43.77 83.3288 43.9344 83.0391 44.2632C82.7493 44.592 82.6045 45.0884 82.6045 45.7524ZM87.5996 42.1978V41.187H88.4785V42.1978H87.5996ZM87.5996 48.3452V43.1597H88.4785V48.3452H87.5996ZM89.8213 48.3452V43.1597H90.6123V43.897C90.9932 43.3273 91.5433 43.0425 92.2627 43.0425C92.5752 43.0425 92.8617 43.0994 93.1221 43.2134C93.3857 43.3241 93.5827 43.4705 93.7129 43.6528C93.8431 43.8351 93.9342 44.0516 93.9863 44.3022C94.0189 44.465 94.0352 44.7498 94.0352 45.1567V48.3452H93.1562V45.1909C93.1562 44.8328 93.1221 44.5659 93.0537 44.3901C92.9854 44.2111 92.8633 44.0695 92.6875 43.9653C92.515 43.8579 92.3115 43.8042 92.0771 43.8042C91.7028 43.8042 91.3789 43.923 91.1055 44.1606C90.8353 44.3983 90.7002 44.8491 90.7002 45.5132V48.3452H89.8213ZM97.3066 47.5591L97.4336 48.3354C97.1862 48.3875 96.9648 48.4136 96.7695 48.4136C96.4505 48.4136 96.2031 48.3631 96.0273 48.2622C95.8516 48.1613 95.7279 48.0295 95.6562 47.8667C95.5846 47.7007 95.5488 47.354 95.5488 46.8267V43.8433H94.9043V43.1597H95.5488V41.8755L96.4229 41.3481V43.1597H97.3066V43.8433H96.4229V46.8755C96.4229 47.1261 96.4375 47.2873 96.4668 47.3589C96.4993 47.4305 96.5498 47.4875 96.6182 47.5298C96.6898 47.5721 96.7907 47.5933 96.9209 47.5933C97.0186 47.5933 97.1471 47.5819 97.3066 47.5591ZM97.8193 46.7974L98.6885 46.6606C98.7373 47.009 98.8724 47.2759 99.0938 47.4614C99.3184 47.647 99.6309 47.7397 100.031 47.7397C100.435 47.7397 100.734 47.6584 100.93 47.4956C101.125 47.3296 101.223 47.1359 101.223 46.9146C101.223 46.716 101.136 46.5597 100.964 46.4458C100.843 46.3677 100.544 46.2684 100.065 46.1479C99.4209 45.9852 98.9733 45.8452 98.7227 45.728C98.4753 45.6076 98.2865 45.4432 98.1562 45.2349C98.0293 45.0233 97.9658 44.7905 97.9658 44.5366C97.9658 44.3055 98.0179 44.0923 98.1221 43.897C98.2295 43.6984 98.3743 43.534 98.5566 43.4038C98.6934 43.3029 98.8789 43.2183 99.1133 43.1499C99.3509 43.0783 99.6048 43.0425 99.875 43.0425C100.282 43.0425 100.638 43.1011 100.944 43.2183C101.254 43.3354 101.481 43.495 101.628 43.6968C101.774 43.8953 101.875 44.1623 101.931 44.4976L101.071 44.6147C101.032 44.3478 100.918 44.1395 100.729 43.9897C100.544 43.84 100.28 43.7651 99.9385 43.7651C99.5348 43.7651 99.2467 43.8319 99.0742 43.9653C98.9017 44.0988 98.8154 44.255 98.8154 44.4341C98.8154 44.548 98.8512 44.6506 98.9229 44.7417C98.9945 44.8361 99.1068 44.9142 99.2598 44.9761C99.3477 45.0086 99.6064 45.0835 100.036 45.2007C100.658 45.3667 101.091 45.5034 101.335 45.6108C101.582 45.715 101.776 45.868 101.916 46.0698C102.056 46.2716 102.126 46.5223 102.126 46.8218C102.126 47.1147 102.04 47.3914 101.867 47.6519C101.698 47.909 101.452 48.1092 101.13 48.2524C100.808 48.3924 100.443 48.4624 100.036 48.4624C99.3623 48.4624 98.848 48.3224 98.4932 48.0425C98.1416 47.7625 97.917 47.3475 97.8193 46.7974ZM6.31543 59.8354L7.2627 60.0747C7.06413 60.8527 6.70605 61.4468 6.18848 61.8569C5.67415 62.2638 5.04427 62.4673 4.29883 62.4673C3.52734 62.4673 2.89909 62.311 2.41406 61.9985C1.93229 61.6828 1.56445 61.2271 1.31055 60.6313C1.0599 60.0356 0.93457 59.396 0.93457 58.7124C0.93457 57.967 1.07617 57.3175 1.35938 56.7642C1.64583 56.2075 2.05111 55.786 2.5752 55.4995C3.10254 55.2098 3.68197 55.0649 4.31348 55.0649C5.02962 55.0649 5.63184 55.2472 6.12012 55.6118C6.6084 55.9764 6.94857 56.4891 7.14062 57.1499L6.20801 57.3696C6.04199 56.8488 5.80111 56.4696 5.48535 56.2319C5.1696 55.9943 4.77246 55.8755 4.29395 55.8755C3.74382 55.8755 3.2832 56.0073 2.91211 56.271C2.54427 56.5347 2.28548 56.8895 2.13574 57.3354C1.986 57.7782 1.91113 58.2355 1.91113 58.7075C1.91113 59.3162 1.99902 59.8485 2.1748 60.3042C2.35384 60.7567 2.63053 61.0952 3.00488 61.3198C3.37923 61.5444 3.78451 61.6567 4.2207 61.6567C4.7513 61.6567 5.20052 61.5037 5.56836 61.1978C5.9362 60.8918 6.18522 60.4377 6.31543 59.8354ZM11.8721 60.6753L12.7803 60.7876C12.637 61.3182 12.3717 61.73 11.9844 62.0229C11.597 62.3159 11.1022 62.4624 10.5 62.4624C9.74154 62.4624 9.13932 62.2297 8.69336 61.7642C8.25065 61.2954 8.0293 60.6395 8.0293 59.7964C8.0293 58.924 8.25391 58.2469 8.70312 57.7651C9.15234 57.2834 9.73503 57.0425 10.4512 57.0425C11.1445 57.0425 11.7109 57.2785 12.1504 57.7505C12.5898 58.2225 12.8096 58.8866 12.8096 59.7427C12.8096 59.7948 12.8079 59.8729 12.8047 59.9771H8.9375C8.97005 60.5467 9.13118 60.9829 9.4209 61.2856C9.71061 61.5884 10.0719 61.7397 10.5049 61.7397C10.8271 61.7397 11.1022 61.6551 11.3301 61.4858C11.5579 61.3166 11.7386 61.0464 11.8721 60.6753ZM8.98633 59.2544H11.8818C11.8428 58.8182 11.7321 58.491 11.5498 58.2729C11.2699 57.9344 10.9069 57.7651 10.4609 57.7651C10.0573 57.7651 9.71712 57.9002 9.44043 58.1704C9.16699 58.4406 9.01562 58.8019 8.98633 59.2544ZM13.8887 62.3452V57.1597H14.6797V57.897C15.0605 57.3273 15.6107 57.0425 16.3301 57.0425C16.6426 57.0425 16.929 57.0994 17.1895 57.2134C17.4531 57.3241 17.6501 57.4705 17.7803 57.6528C17.9105 57.8351 18.0016 58.0516 18.0537 58.3022C18.0863 58.465 18.1025 58.7498 18.1025 59.1567V62.3452H17.2236V59.1909C17.2236 58.8328 17.1895 58.5659 17.1211 58.3901C17.0527 58.2111 16.9307 58.0695 16.7549 57.9653C16.5824 57.8579 16.3789 57.8042 16.1445 57.8042C15.7702 57.8042 15.4463 57.923 15.1729 58.1606C14.9027 58.3983 14.7676 58.8491 14.7676 59.5132V62.3452H13.8887ZM21.374 61.5591L21.501 62.3354C21.2536 62.3875 21.0322 62.4136 20.8369 62.4136C20.5179 62.4136 20.2705 62.3631 20.0947 62.2622C19.9189 62.1613 19.7952 62.0295 19.7236 61.8667C19.652 61.7007 19.6162 61.354 19.6162 60.8267V57.8433H18.9717V57.1597H19.6162V55.8755L20.4902 55.3481V57.1597H21.374V57.8433H20.4902V60.8755C20.4902 61.1261 20.5049 61.2873 20.5342 61.3589C20.5667 61.4305 20.6172 61.4875 20.6855 61.5298C20.7572 61.5721 20.8581 61.5933 20.9883 61.5933C21.0859 61.5933 21.2145 61.5819 21.374 61.5591ZM22.2285 62.3452V57.1597H23.0195V57.9458C23.2214 57.578 23.4069 57.3354 23.5762 57.2183C23.7487 57.1011 23.9375 57.0425 24.1426 57.0425C24.4388 57.0425 24.7399 57.1369 25.0459 57.3257L24.7432 58.1411C24.5283 58.0142 24.3135 57.9507 24.0986 57.9507C23.9066 57.9507 23.734 58.0093 23.5811 58.1265C23.4281 58.2404 23.319 58.3999 23.2539 58.605C23.1562 58.9175 23.1074 59.2593 23.1074 59.6304V62.3452H22.2285ZM28.9521 61.7056C28.6266 61.9823 28.3125 62.1776 28.0098 62.2915C27.7103 62.4054 27.388 62.4624 27.043 62.4624C26.4733 62.4624 26.0355 62.3241 25.7295 62.0474C25.4235 61.7674 25.2705 61.411 25.2705 60.978C25.2705 60.7241 25.3275 60.493 25.4414 60.2847C25.5586 60.0731 25.71 59.9038 25.8955 59.7769C26.0843 59.6499 26.2959 59.5539 26.5303 59.4888C26.7028 59.4432 26.9632 59.3993 27.3115 59.3569C28.0212 59.2723 28.5436 59.1714 28.8789 59.0542C28.8822 58.9338 28.8838 58.8573 28.8838 58.8247C28.8838 58.4666 28.8008 58.2144 28.6348 58.0679C28.4102 57.8693 28.0765 57.77 27.6338 57.77C27.2204 57.77 26.9144 57.8433 26.7158 57.9897C26.5205 58.133 26.3757 58.3885 26.2812 58.7563L25.4219 58.6392C25.5 58.2713 25.6286 57.9751 25.8076 57.7505C25.9867 57.5226 26.2454 57.3485 26.584 57.228C26.9225 57.1043 27.3148 57.0425 27.7607 57.0425C28.2035 57.0425 28.5632 57.0946 28.8398 57.1987C29.1165 57.3029 29.32 57.4347 29.4502 57.5942C29.5804 57.7505 29.6715 57.9491 29.7236 58.1899C29.7529 58.3397 29.7676 58.6099 29.7676 59.0005V60.1724C29.7676 60.9894 29.7855 61.507 29.8213 61.7251C29.8604 61.9399 29.9352 62.1466 30.0459 62.3452H29.1279C29.0368 62.1629 28.9782 61.9497 28.9521 61.7056ZM28.8789 59.7427C28.5599 59.8729 28.0814 59.9836 27.4434 60.0747C27.082 60.1268 26.8265 60.1854 26.6768 60.2505C26.527 60.3156 26.4115 60.4116 26.3301 60.5386C26.2487 60.6623 26.208 60.8006 26.208 60.9536C26.208 61.188 26.2959 61.3833 26.4717 61.5396C26.6507 61.6958 26.9111 61.7739 27.2529 61.7739C27.5915 61.7739 27.8926 61.7007 28.1562 61.5542C28.4199 61.4045 28.6136 61.201 28.7373 60.9438C28.8317 60.7453 28.8789 60.4523 28.8789 60.0649V59.7427ZM31.1152 62.3452V55.187H31.9941V62.3452H31.1152ZM36.2715 62.3452V55.187H39.4453C40.0833 55.187 40.5684 55.2521 40.9004 55.3823C41.2324 55.5093 41.4977 55.7355 41.6963 56.061C41.8949 56.3866 41.9941 56.7463 41.9941 57.1401C41.9941 57.6479 41.8298 58.076 41.501 58.4243C41.1722 58.7726 40.6644 58.994 39.9775 59.0884C40.2282 59.2088 40.4186 59.3276 40.5488 59.4448C40.8255 59.6987 41.0876 60.0161 41.335 60.397L42.5801 62.3452H41.3887L40.4414 60.856C40.1647 60.4263 39.9368 60.0975 39.7578 59.8696C39.5788 59.6418 39.4176 59.4823 39.2744 59.3911C39.1344 59.3 38.9912 59.2365 38.8447 59.2007C38.7373 59.1779 38.5615 59.1665 38.3174 59.1665H37.2188V62.3452H36.2715ZM37.2188 58.3462H39.2549C39.6878 58.3462 40.0264 58.3022 40.2705 58.2144C40.5146 58.1232 40.7002 57.98 40.8271 57.7847C40.9541 57.5861 41.0176 57.3713 41.0176 57.1401C41.0176 56.8016 40.8939 56.5233 40.6465 56.3052C40.4023 56.0871 40.015 55.978 39.4844 55.978H37.2188V58.3462ZM46.9209 60.6753L47.8291 60.7876C47.6859 61.3182 47.4206 61.73 47.0332 62.0229C46.6458 62.3159 46.151 62.4624 45.5488 62.4624C44.7904 62.4624 44.1882 62.2297 43.7422 61.7642C43.2995 61.2954 43.0781 60.6395 43.0781 59.7964C43.0781 58.924 43.3027 58.2469 43.752 57.7651C44.2012 57.2834 44.7839 57.0425 45.5 57.0425C46.1934 57.0425 46.7598 57.2785 47.1992 57.7505C47.6387 58.2225 47.8584 58.8866 47.8584 59.7427C47.8584 59.7948 47.8568 59.8729 47.8535 59.9771H43.9863C44.0189 60.5467 44.18 60.9829 44.4697 61.2856C44.7594 61.5884 45.1208 61.7397 45.5537 61.7397C45.876 61.7397 46.151 61.6551 46.3789 61.4858C46.6068 61.3166 46.7874 61.0464 46.9209 60.6753ZM44.0352 59.2544H46.9307C46.8916 58.8182 46.7809 58.491 46.5986 58.2729C46.3187 57.9344 45.9557 57.7651 45.5098 57.7651C45.1061 57.7651 44.766 57.9002 44.4893 58.1704C44.2158 58.4406 44.0645 58.8019 44.0352 59.2544ZM48.9375 64.3325V57.1597H49.7383V57.8335C49.9271 57.5698 50.1403 57.3729 50.3779 57.2427C50.6156 57.1092 50.9036 57.0425 51.2422 57.0425C51.6849 57.0425 52.0755 57.1564 52.4141 57.3843C52.7526 57.6121 53.0081 57.9344 53.1807 58.3511C53.3532 58.7645 53.4395 59.2186 53.4395 59.7134C53.4395 60.244 53.3434 60.7225 53.1514 61.1489C52.9626 61.5721 52.6859 61.8976 52.3213 62.1255C51.96 62.3501 51.5791 62.4624 51.1787 62.4624C50.8857 62.4624 50.6221 62.4006 50.3877 62.2769C50.1566 62.1532 49.9661 61.9969 49.8164 61.8081V64.3325H48.9375ZM49.7334 59.7817C49.7334 60.4491 49.8685 60.9422 50.1387 61.2612C50.4089 61.5802 50.736 61.7397 51.1201 61.7397C51.5107 61.7397 51.8444 61.5754 52.1211 61.2466C52.401 60.9146 52.541 60.4019 52.541 59.7085C52.541 59.0477 52.4043 58.5529 52.1309 58.2241C51.8607 57.8953 51.5368 57.731 51.1592 57.731C50.7848 57.731 50.4528 57.9067 50.1631 58.2583C49.8766 58.6066 49.7334 59.1144 49.7334 59.7817ZM54.1768 59.7524C54.1768 58.7922 54.4437 58.0809 54.9775 57.6187C55.4235 57.2345 55.9671 57.0425 56.6084 57.0425C57.3213 57.0425 57.904 57.2769 58.3564 57.7456C58.8089 58.2111 59.0352 58.8556 59.0352 59.6792C59.0352 60.3465 58.9342 60.8722 58.7324 61.2563C58.5339 61.6372 58.2425 61.9334 57.8584 62.145C57.4775 62.3566 57.0609 62.4624 56.6084 62.4624C55.8825 62.4624 55.2949 62.2297 54.8457 61.7642C54.3997 61.2987 54.1768 60.6281 54.1768 59.7524ZM55.0801 59.7524C55.0801 60.4165 55.2249 60.9146 55.5146 61.2466C55.8044 61.5754 56.1689 61.7397 56.6084 61.7397C57.0446 61.7397 57.4076 61.5737 57.6973 61.2417C57.987 60.9097 58.1318 60.4035 58.1318 59.7231C58.1318 59.0819 57.9854 58.5968 57.6924 58.2681C57.4027 57.936 57.0413 57.77 56.6084 57.77C56.1689 57.77 55.8044 57.9344 55.5146 58.2632C55.2249 58.592 55.0801 59.0884 55.0801 59.7524ZM59.7188 60.7974L60.5879 60.6606C60.6367 61.009 60.7718 61.2759 60.9932 61.4614C61.2178 61.647 61.5303 61.7397 61.9307 61.7397C62.3343 61.7397 62.6338 61.6584 62.8291 61.4956C63.0244 61.3296 63.1221 61.1359 63.1221 60.9146C63.1221 60.716 63.0358 60.5597 62.8633 60.4458C62.7428 60.3677 62.4434 60.2684 61.9648 60.1479C61.3203 59.9852 60.8727 59.8452 60.6221 59.728C60.3747 59.6076 60.1859 59.4432 60.0557 59.2349C59.9287 59.0233 59.8652 58.7905 59.8652 58.5366C59.8652 58.3055 59.9173 58.0923 60.0215 57.897C60.1289 57.6984 60.2738 57.534 60.4561 57.4038C60.5928 57.3029 60.7783 57.2183 61.0127 57.1499C61.2503 57.0783 61.5042 57.0425 61.7744 57.0425C62.1813 57.0425 62.5378 57.1011 62.8438 57.2183C63.153 57.3354 63.3809 57.495 63.5273 57.6968C63.6738 57.8953 63.7747 58.1623 63.8301 58.4976L62.9707 58.6147C62.9316 58.3478 62.8177 58.1395 62.6289 57.9897C62.4434 57.84 62.1797 57.7651 61.8379 57.7651C61.4342 57.7651 61.1462 57.8319 60.9736 57.9653C60.8011 58.0988 60.7148 58.255 60.7148 58.4341C60.7148 58.548 60.7507 58.6506 60.8223 58.7417C60.8939 58.8361 61.0062 58.9142 61.1592 58.9761C61.2471 59.0086 61.5059 59.0835 61.9355 59.2007C62.5573 59.3667 62.9902 59.5034 63.2344 59.6108C63.4818 59.715 63.6755 59.868 63.8154 60.0698C63.9554 60.2716 64.0254 60.5223 64.0254 60.8218C64.0254 61.1147 63.9391 61.3914 63.7666 61.6519C63.5973 61.909 63.3516 62.1092 63.0293 62.2524C62.707 62.3924 62.3424 62.4624 61.9355 62.4624C61.2617 62.4624 60.7474 62.3224 60.3926 62.0425C60.041 61.7625 59.8164 61.3475 59.7188 60.7974ZM65.0752 56.1978V55.187H65.9541V56.1978H65.0752ZM65.0752 62.3452V57.1597H65.9541V62.3452H65.0752ZM69.2158 61.5591L69.3428 62.3354C69.0954 62.3875 68.874 62.4136 68.6787 62.4136C68.3597 62.4136 68.1123 62.3631 67.9365 62.2622C67.7607 62.1613 67.637 62.0295 67.5654 61.8667C67.4938 61.7007 67.458 61.354 67.458 60.8267V57.8433H66.8135V57.1597H67.458V55.8755L68.332 55.3481V57.1597H69.2158V57.8433H68.332V60.8755C68.332 61.1261 68.3467 61.2873 68.376 61.3589C68.4085 61.4305 68.459 61.4875 68.5273 61.5298C68.599 61.5721 68.6999 61.5933 68.8301 61.5933C68.9277 61.5933 69.0563 61.5819 69.2158 61.5591ZM69.7529 59.7524C69.7529 58.7922 70.0199 58.0809 70.5537 57.6187C70.9997 57.2345 71.5433 57.0425 72.1846 57.0425C72.8975 57.0425 73.4801 57.2769 73.9326 57.7456C74.3851 58.2111 74.6113 58.8556 74.6113 59.6792C74.6113 60.3465 74.5104 60.8722 74.3086 61.2563C74.11 61.6372 73.8187 61.9334 73.4346 62.145C73.0537 62.3566 72.637 62.4624 72.1846 62.4624C71.4587 62.4624 70.8711 62.2297 70.4219 61.7642C69.9759 61.2987 69.7529 60.6281 69.7529 59.7524ZM70.6562 59.7524C70.6562 60.4165 70.8011 60.9146 71.0908 61.2466C71.3805 61.5754 71.7451 61.7397 72.1846 61.7397C72.6208 61.7397 72.9837 61.5737 73.2734 61.2417C73.5632 60.9097 73.708 60.4035 73.708 59.7231C73.708 59.0819 73.5615 58.5968 73.2686 58.2681C72.9788 57.936 72.6175 57.77 72.1846 57.77C71.7451 57.77 71.3805 57.9344 71.0908 58.2632C70.8011 58.592 70.6562 59.0884 70.6562 59.7524ZM75.6367 62.3452V57.1597H76.4277V57.9458C76.6296 57.578 76.8151 57.3354 76.9844 57.2183C77.1569 57.1011 77.3457 57.0425 77.5508 57.0425C77.847 57.0425 78.1481 57.1369 78.4541 57.3257L78.1514 58.1411C77.9365 58.0142 77.7217 57.9507 77.5068 57.9507C77.3148 57.9507 77.1423 58.0093 76.9893 58.1265C76.8363 58.2404 76.7272 58.3999 76.6621 58.605C76.5645 58.9175 76.5156 59.2593 76.5156 59.6304V62.3452H75.6367ZM78.9375 64.3423L78.8398 63.5171C79.0319 63.5692 79.1995 63.5952 79.3428 63.5952C79.5381 63.5952 79.6943 63.5627 79.8115 63.4976C79.9287 63.4325 80.0247 63.3413 80.0996 63.2241C80.1549 63.1362 80.2445 62.9181 80.3682 62.5698C80.3844 62.521 80.4105 62.4494 80.4463 62.355L78.4785 57.1597H79.4258L80.5049 60.1626C80.6449 60.5435 80.7702 60.9438 80.8809 61.3638C80.9818 60.9601 81.1022 60.5662 81.2422 60.1821L82.3506 57.1597H83.2295L81.2568 62.4331C81.0452 63.0028 80.8809 63.395 80.7637 63.6099C80.6074 63.8996 80.4284 64.1112 80.2266 64.2446C80.0247 64.3813 79.7839 64.4497 79.5039 64.4497C79.3346 64.4497 79.1458 64.4139 78.9375 64.3423ZM86.5498 60.0454L87.4434 59.9673C87.4857 60.3254 87.5833 60.62 87.7363 60.8511C87.8926 61.0789 88.1335 61.2645 88.459 61.4077C88.7845 61.5477 89.1507 61.6177 89.5576 61.6177C89.9189 61.6177 90.238 61.564 90.5146 61.4565C90.7913 61.3491 90.9964 61.2026 91.1299 61.0171C91.2666 60.8283 91.335 60.6232 91.335 60.4019C91.335 60.1772 91.2699 59.9819 91.1396 59.8159C91.0094 59.6466 90.7946 59.505 90.4951 59.3911C90.3031 59.3162 89.8783 59.2007 89.2207 59.0444C88.5632 58.8849 88.1025 58.7352 87.8389 58.5952C87.4971 58.4162 87.2415 58.1948 87.0723 57.9312C86.9062 57.6642 86.8232 57.3664 86.8232 57.0376C86.8232 56.6763 86.9258 56.3394 87.1309 56.0269C87.3359 55.7111 87.6354 55.4718 88.0293 55.3091C88.4232 55.1463 88.861 55.0649 89.3428 55.0649C89.8734 55.0649 90.3405 55.1512 90.7441 55.3237C91.151 55.493 91.4635 55.7437 91.6816 56.0757C91.8997 56.4077 92.0169 56.7837 92.0332 57.2036L91.125 57.272C91.0762 56.8195 90.9102 56.4777 90.627 56.2466C90.347 56.0155 89.932 55.8999 89.3818 55.8999C88.8089 55.8999 88.3906 56.0057 88.127 56.2173C87.8665 56.4256 87.7363 56.6779 87.7363 56.9741C87.7363 57.2313 87.8291 57.4429 88.0146 57.6089C88.1969 57.7749 88.6722 57.9458 89.4404 58.1216C90.2119 58.2941 90.7409 58.4455 91.0273 58.5757C91.444 58.7677 91.7516 59.0119 91.9502 59.3081C92.1488 59.6011 92.248 59.9396 92.248 60.3237C92.248 60.7046 92.139 61.0643 91.9209 61.4028C91.7028 61.7381 91.3887 62.0002 90.9785 62.189C90.5716 62.3745 90.1126 62.4673 89.6016 62.4673C88.9538 62.4673 88.4102 62.3729 87.9707 62.1841C87.5345 61.9953 87.1911 61.7121 86.9404 61.3345C86.693 60.9536 86.5628 60.5239 86.5498 60.0454ZM96.9795 60.6753L97.8877 60.7876C97.7445 61.3182 97.4792 61.73 97.0918 62.0229C96.7044 62.3159 96.2096 62.4624 95.6074 62.4624C94.849 62.4624 94.2467 62.2297 93.8008 61.7642C93.3581 61.2954 93.1367 60.6395 93.1367 59.7964C93.1367 58.924 93.3613 58.2469 93.8105 57.7651C94.2598 57.2834 94.8424 57.0425 95.5586 57.0425C96.252 57.0425 96.8184 57.2785 97.2578 57.7505C97.6973 58.2225 97.917 58.8866 97.917 59.7427C97.917 59.7948 97.9154 59.8729 97.9121 59.9771H94.0449C94.0775 60.5467 94.2386 60.9829 94.5283 61.2856C94.818 61.5884 95.1794 61.7397 95.6123 61.7397C95.9346 61.7397 96.2096 61.6551 96.4375 61.4858C96.6654 61.3166 96.846 61.0464 96.9795 60.6753ZM94.0938 59.2544H96.9893C96.9502 58.8182 96.8395 58.491 96.6572 58.2729C96.3773 57.9344 96.0143 57.7651 95.5684 57.7651C95.1647 57.7651 94.8245 57.9002 94.5479 58.1704C94.2744 58.4406 94.123 58.8019 94.0938 59.2544ZM98.9863 62.3452V57.1597H99.7773V57.9458C99.9792 57.578 100.165 57.3354 100.334 57.2183C100.507 57.1011 100.695 57.0425 100.9 57.0425C101.197 57.0425 101.498 57.1369 101.804 57.3257L101.501 58.1411C101.286 58.0142 101.071 57.9507 100.856 57.9507C100.664 57.9507 100.492 58.0093 100.339 58.1265C100.186 58.2404 100.077 58.3999 100.012 58.605C99.9141 58.9175 99.8652 59.2593 99.8652 59.6304V62.3452H98.9863ZM103.767 62.3452L101.794 57.1597H102.722L103.835 60.2651C103.955 60.6004 104.066 60.9487 104.167 61.3101C104.245 61.0366 104.354 60.7078 104.494 60.3237L105.646 57.1597H106.55L104.587 62.3452H103.767ZM110.876 60.6753L111.784 60.7876C111.641 61.3182 111.376 61.73 110.988 62.0229C110.601 62.3159 110.106 62.4624 109.504 62.4624C108.745 62.4624 108.143 62.2297 107.697 61.7642C107.255 61.2954 107.033 60.6395 107.033 59.7964C107.033 58.924 107.258 58.2469 107.707 57.7651C108.156 57.2834 108.739 57.0425 109.455 57.0425C110.148 57.0425 110.715 57.2785 111.154 57.7505C111.594 58.2225 111.813 58.8866 111.813 59.7427C111.813 59.7948 111.812 59.8729 111.809 59.9771H107.941C107.974 60.5467 108.135 60.9829 108.425 61.2856C108.715 61.5884 109.076 61.7397 109.509 61.7397C109.831 61.7397 110.106 61.6551 110.334 61.4858C110.562 61.3166 110.743 61.0464 110.876 60.6753ZM107.99 59.2544H110.886C110.847 58.8182 110.736 58.491 110.554 58.2729C110.274 57.9344 109.911 57.7651 109.465 57.7651C109.061 57.7651 108.721 57.9002 108.444 58.1704C108.171 58.4406 108.02 58.8019 107.99 59.2544ZM112.883 62.3452V57.1597H113.674V57.9458C113.876 57.578 114.061 57.3354 114.23 57.2183C114.403 57.1011 114.592 57.0425 114.797 57.0425C115.093 57.0425 115.394 57.1369 115.7 57.3257L115.397 58.1411C115.183 58.0142 114.968 57.9507 114.753 57.9507C114.561 57.9507 114.388 58.0093 114.235 58.1265C114.082 58.2404 113.973 58.3999 113.908 58.605C113.811 58.9175 113.762 59.2593 113.762 59.6304V62.3452H112.883Z" fill="#2A303D"/>
</svg>
