<svg width="90" height="58" viewBox="0 0 90 58" fill="none" xmlns="http://www.w3.org/2000/svg">
<path d="M39.7935 0.894531H59.5256V23.6514H30.4487V0.894531H39.7935Z" fill="white"/>
<path fill-rule="evenodd" clip-rule="evenodd" d="M29.8086 9.23486H59.8047V10.6176H29.8086V9.23486Z" fill="#006AFF"/>
<path fill-rule="evenodd" clip-rule="evenodd" d="M38.3511 10.1577H39.7V24.0753H38.3511V10.1577Z" fill="#006AFF"/>
<path fill-rule="evenodd" clip-rule="evenodd" d="M31.6074 12.5327H36.5536V13.4563H31.6074V12.5327ZM33.406 15.3014H36.5536V16.2245H33.406V15.3014ZM33.406 18.0718H36.5536V18.9954H33.406V18.0718ZM31.6074 20.8432H36.5536V21.7669H31.6074V20.8432ZM59.0992 0H30.9011C30.4211 0.0166639 29.9661 0.218049 29.631 0.562135C29.2958 0.90622 29.1065 1.36642 29.1025 1.84672V23.1523C29.1065 23.6326 29.2958 24.0928 29.631 24.4369C29.9661 24.781 30.4211 24.9824 30.9011 24.999H59.0992C59.5791 24.9822 60.0341 24.7808 60.3692 24.4367C60.7043 24.0927 60.8936 23.6326 60.8978 23.1523V1.84672C60.9012 1.60729 60.8574 1.36954 60.7688 1.14707C60.6802 0.9246 60.5486 0.72179 60.3815 0.550251C60.2145 0.378711 60.0152 0.241812 59.7952 0.147392C59.5751 0.0529714 59.3386 0.00288487 59.0992 0ZM55.5661 1.38269H56.9151V2.76538H55.5661V1.38269ZM52.8682 1.38269H54.2172V2.76538H52.8682V1.38269ZM30.4532 23.1518V10.6196H38.4805V23.6136H30.9011C30.8409 23.6144 30.7811 23.6029 30.7255 23.5798C30.6699 23.5567 30.6195 23.5225 30.5776 23.4792C30.5357 23.436 30.503 23.3846 30.4816 23.3283C30.4602 23.272 30.4505 23.2119 30.4532 23.1518ZM59.5505 23.1518C59.5531 23.2121 59.5434 23.2723 59.5219 23.3287C59.5004 23.3852 59.4676 23.4366 59.4254 23.4798C59.3833 23.5231 59.3328 23.5573 59.277 23.5803C59.2211 23.6033 59.1612 23.6146 59.1008 23.6136H39.8294V10.6196H59.5488V23.1523L59.5505 23.1518ZM59.5505 9.23415H30.4532V4.61708H59.5505V9.23415ZM59.5505 2.7698H58.1999V1.38711H59.5488V2.7698H59.5505Z" fill="#006AFF"/>
<path d="M39.7935 4.60107H59.5256V23.6518H30.4487V4.60107H39.7935Z" fill="white"/>
<path d="M44.8658 7.37842C46.2178 7.37842 47.5395 7.77934 48.6637 8.53049C49.7879 9.28165 50.6641 10.3493 51.1815 11.5984C51.6989 12.8475 51.8342 14.222 51.5705 15.5481C51.3067 16.8741 50.6556 18.0922 49.6996 19.0482C48.7436 20.0043 47.5255 20.6553 46.1994 20.9191C44.8734 21.1829 43.4989 21.0475 42.2498 20.5301C41.0007 20.0127 39.933 19.1365 39.1819 18.0123C38.4307 16.8881 38.0298 15.5665 38.0298 14.2144C38.0298 12.4014 38.75 10.6626 40.032 9.38064C41.314 8.09864 43.0528 7.37842 44.8658 7.37842Z" fill="#006AFF"/>
<path d="M47.7962 14.3809L47.7906 17.1568L44.6055 16.7066V14.3836L47.7962 14.3809Z" fill="white"/>
<path d="M47.7906 11.272V14.0589L44.6055 14.0821V11.7332L47.7906 11.272Z" fill="white"/>
<path d="M44.3198 11.7812L44.332 14.0892L41.936 14.1069V12.1076L44.3198 11.7812Z" fill="white"/>
<path d="M44.3194 14.351V16.6711L41.9351 16.3393V14.3394L44.3194 14.351Z" fill="white"/>
<path d="M4.30176 41.999V34.8408H5.72754L7.42188 39.9092C7.57812 40.3812 7.69206 40.7344 7.76367 40.9688C7.84505 40.7083 7.97201 40.3258 8.14453 39.8213L9.8584 34.8408H11.1328V41.999H10.2197V36.0078L8.13965 41.999H7.28516L5.21484 35.9053V41.999H4.30176ZM12.5537 35.8516V34.8408H13.4326V35.8516H12.5537ZM12.5537 41.999V36.8135H13.4326V41.999H12.5537ZM18.1592 40.0996L19.0234 40.2119C18.929 40.8076 18.6865 41.2747 18.2959 41.6133C17.9085 41.9486 17.4316 42.1162 16.8652 42.1162C16.1556 42.1162 15.5843 41.8851 15.1514 41.4229C14.7217 40.9574 14.5068 40.2917 14.5068 39.4258C14.5068 38.8659 14.5996 38.376 14.7852 37.9561C14.9707 37.5361 15.2523 37.222 15.6299 37.0137C16.0107 36.8021 16.4242 36.6963 16.8701 36.6963C17.4333 36.6963 17.8939 36.8395 18.252 37.126C18.61 37.4092 18.8395 37.8128 18.9404 38.3369L18.0859 38.4688C18.0046 38.1204 17.8597 37.8584 17.6514 37.6826C17.4463 37.5068 17.1973 37.4189 16.9043 37.4189C16.4616 37.4189 16.1019 37.5785 15.8252 37.8975C15.5485 38.2132 15.4102 38.7145 15.4102 39.4014C15.4102 40.098 15.5436 40.6042 15.8105 40.9199C16.0775 41.2357 16.4258 41.3936 16.8555 41.3936C17.2005 41.3936 17.4886 41.2878 17.7197 41.0762C17.9508 40.8646 18.0973 40.5391 18.1592 40.0996ZM19.7656 41.999V36.8135H20.5566V37.5996C20.7585 37.2318 20.944 36.9893 21.1133 36.8721C21.2858 36.7549 21.4746 36.6963 21.6797 36.6963C21.9759 36.6963 22.277 36.7907 22.583 36.9795L22.2803 37.7949C22.0654 37.668 21.8506 37.6045 21.6357 37.6045C21.4437 37.6045 21.2712 37.6631 21.1182 37.7803C20.9652 37.8942 20.8561 38.0537 20.791 38.2588C20.6934 38.5713 20.6445 38.9131 20.6445 39.2842V41.999H19.7656ZM22.7783 39.4062C22.7783 38.446 23.0452 37.7347 23.5791 37.2725C24.0251 36.8883 24.5687 36.6963 25.21 36.6963C25.9229 36.6963 26.5055 36.9307 26.958 37.3994C27.4105 37.8649 27.6367 38.5094 27.6367 39.333C27.6367 40.0003 27.5358 40.526 27.334 40.9102C27.1354 41.291 26.8441 41.5872 26.46 41.7988C26.0791 42.0104 25.6624 42.1162 25.21 42.1162C24.484 42.1162 23.8965 41.8835 23.4473 41.418C23.0013 40.9525 22.7783 40.2819 22.7783 39.4062ZM23.6816 39.4062C23.6816 40.0703 23.8265 40.5684 24.1162 40.9004C24.4059 41.2292 24.7705 41.3936 25.21 41.3936C25.6462 41.3936 26.0091 41.2275 26.2988 40.8955C26.5885 40.5635 26.7334 40.0573 26.7334 39.377C26.7334 38.7357 26.5869 38.2507 26.2939 37.9219C26.0042 37.5898 25.6429 37.4238 25.21 37.4238C24.7705 37.4238 24.4059 37.5882 24.1162 37.917C23.8265 38.2458 23.6816 38.7422 23.6816 39.4062ZM28.3203 40.4512L29.1895 40.3145C29.2383 40.6628 29.3734 40.9297 29.5947 41.1152C29.8193 41.3008 30.1318 41.3936 30.5322 41.3936C30.9359 41.3936 31.2354 41.3122 31.4307 41.1494C31.626 40.9834 31.7236 40.7897 31.7236 40.5684C31.7236 40.3698 31.6374 40.2135 31.4648 40.0996C31.3444 40.0215 31.0449 39.9222 30.5664 39.8018C29.9219 39.639 29.4743 39.499 29.2236 39.3818C28.9762 39.2614 28.7874 39.097 28.6572 38.8887C28.5303 38.6771 28.4668 38.4443 28.4668 38.1904C28.4668 37.9593 28.5189 37.7461 28.623 37.5508C28.7305 37.3522 28.8753 37.1878 29.0576 37.0576C29.1943 36.9567 29.3799 36.8721 29.6143 36.8037C29.8519 36.7321 30.1058 36.6963 30.376 36.6963C30.7829 36.6963 31.1393 36.7549 31.4453 36.8721C31.7546 36.9893 31.9824 37.1488 32.1289 37.3506C32.2754 37.5492 32.3763 37.8161 32.4316 38.1514L31.5723 38.2686C31.5332 38.0016 31.4193 37.7933 31.2305 37.6436C31.0449 37.4938 30.7812 37.4189 30.4395 37.4189C30.0358 37.4189 29.7477 37.4857 29.5752 37.6191C29.4027 37.7526 29.3164 37.9089 29.3164 38.0879C29.3164 38.2018 29.3522 38.3044 29.4238 38.3955C29.4954 38.4899 29.6077 38.568 29.7607 38.6299C29.8486 38.6624 30.1074 38.7373 30.5371 38.8545C31.1589 39.0205 31.5918 39.1572 31.8359 39.2646C32.0833 39.3688 32.277 39.5218 32.417 39.7236C32.557 39.9255 32.627 40.1761 32.627 40.4756C32.627 40.7686 32.5407 41.0452 32.3682 41.3057C32.1989 41.5628 31.9531 41.763 31.6309 41.9062C31.3086 42.0462 30.944 42.1162 30.5371 42.1162C29.8633 42.1162 29.349 41.9762 28.9941 41.6963C28.6426 41.4163 28.418 41.0013 28.3203 40.4512ZM33.3447 39.4062C33.3447 38.446 33.6117 37.7347 34.1455 37.2725C34.5915 36.8883 35.1351 36.6963 35.7764 36.6963C36.4893 36.6963 37.0719 36.9307 37.5244 37.3994C37.9769 37.8649 38.2031 38.5094 38.2031 39.333C38.2031 40.0003 38.1022 40.526 37.9004 40.9102C37.7018 41.291 37.4105 41.5872 37.0264 41.7988C36.6455 42.0104 36.2288 42.1162 35.7764 42.1162C35.0505 42.1162 34.4629 41.8835 34.0137 41.418C33.5677 40.9525 33.3447 40.2819 33.3447 39.4062ZM34.248 39.4062C34.248 40.0703 34.3929 40.5684 34.6826 40.9004C34.9723 41.2292 35.3369 41.3936 35.7764 41.3936C36.2126 41.3936 36.5755 41.2275 36.8652 40.8955C37.1549 40.5635 37.2998 40.0573 37.2998 39.377C37.2998 38.7357 37.1533 38.2507 36.8604 37.9219C36.5706 37.5898 36.2093 37.4238 35.7764 37.4238C35.3369 37.4238 34.9723 37.5882 34.6826 37.917C34.3929 38.2458 34.248 38.7422 34.248 39.4062ZM39.4482 41.999V37.4971H38.6719V36.8135H39.4482V36.2617C39.4482 35.9134 39.4792 35.6546 39.541 35.4854C39.6257 35.2575 39.7738 35.0736 39.9854 34.9336C40.2002 34.7904 40.4997 34.7188 40.8838 34.7188C41.1312 34.7188 41.4046 34.748 41.7041 34.8066L41.5723 35.5732C41.39 35.5407 41.2174 35.5244 41.0547 35.5244C40.7878 35.5244 40.599 35.5814 40.4883 35.6953C40.3776 35.8092 40.3223 36.0225 40.3223 36.335V36.8135H41.333V37.4971H40.3223V41.999H39.4482ZM43.9404 41.2129L44.0674 41.9893C43.82 42.0413 43.5986 42.0674 43.4033 42.0674C43.0843 42.0674 42.8369 42.0169 42.6611 41.916C42.4854 41.8151 42.3617 41.6833 42.29 41.5205C42.2184 41.3545 42.1826 41.0078 42.1826 40.4805V37.4971H41.5381V36.8135H42.1826V35.5293L43.0566 35.002V36.8135H43.9404V37.4971H43.0566V40.5293C43.0566 40.7799 43.0713 40.9411 43.1006 41.0127C43.1331 41.0843 43.1836 41.1413 43.252 41.1836C43.3236 41.2259 43.4245 41.2471 43.5547 41.2471C43.6523 41.2471 43.7809 41.2357 43.9404 41.2129ZM47.7197 41.999V34.8408H52.8955V35.6855H48.667V37.8779H52.627V38.7178H48.667V41.1543H53.0615V41.999H47.7197ZM54.2578 41.999V36.8135H55.0488V37.5508C55.4297 36.9811 55.9798 36.6963 56.6992 36.6963C57.0117 36.6963 57.2982 36.7533 57.5586 36.8672C57.8223 36.9779 58.0192 37.1243 58.1494 37.3066C58.2796 37.4889 58.3708 37.7054 58.4229 37.9561C58.4554 38.1188 58.4717 38.4036 58.4717 38.8105V41.999H57.5928V38.8447C57.5928 38.4867 57.5586 38.2197 57.4902 38.0439C57.4219 37.8649 57.2998 37.7233 57.124 37.6191C56.9515 37.5117 56.748 37.458 56.5137 37.458C56.1393 37.458 55.8154 37.5768 55.542 37.8145C55.2718 38.0521 55.1367 38.5029 55.1367 39.167V41.999H54.2578ZM63.1885 41.999V41.3447C62.8597 41.859 62.3763 42.1162 61.7383 42.1162C61.3249 42.1162 60.944 42.0023 60.5957 41.7744C60.2507 41.5465 59.9821 41.2292 59.79 40.8223C59.6012 40.4121 59.5068 39.9417 59.5068 39.4111C59.5068 38.8936 59.5931 38.4248 59.7656 38.0049C59.9382 37.5817 60.1969 37.2578 60.542 37.0332C60.887 36.8086 61.2728 36.6963 61.6992 36.6963C62.0117 36.6963 62.29 36.763 62.5342 36.8965C62.7783 37.0267 62.9769 37.1976 63.1299 37.4092V34.8408H64.0039V41.999H63.1885ZM60.4102 39.4111C60.4102 40.0752 60.5501 40.5716 60.8301 40.9004C61.11 41.2292 61.4404 41.3936 61.8213 41.3936C62.2054 41.3936 62.5309 41.2373 62.7979 40.9248C63.068 40.609 63.2031 40.1289 63.2031 39.4844C63.2031 38.7747 63.0664 38.2539 62.793 37.9219C62.5195 37.5898 62.1826 37.4238 61.7822 37.4238C61.3916 37.4238 61.0645 37.5833 60.8008 37.9023C60.5404 38.2214 60.4102 38.7243 60.4102 39.4111ZM65.3906 43.9863V36.8135H66.1914V37.4873C66.3802 37.2236 66.5934 37.0267 66.8311 36.8965C67.0687 36.763 67.3568 36.6963 67.6953 36.6963C68.138 36.6963 68.5286 36.8102 68.8672 37.0381C69.2057 37.266 69.4613 37.5882 69.6338 38.0049C69.8063 38.4183 69.8926 38.8724 69.8926 39.3672C69.8926 39.8978 69.7965 40.3763 69.6045 40.8027C69.4157 41.2259 69.139 41.5514 68.7744 41.7793C68.4131 42.0039 68.0322 42.1162 67.6318 42.1162C67.3389 42.1162 67.0752 42.0544 66.8408 41.9307C66.6097 41.807 66.4193 41.6507 66.2695 41.4619V43.9863H65.3906ZM66.1865 39.4355C66.1865 40.1029 66.3216 40.596 66.5918 40.915C66.862 41.234 67.1891 41.3936 67.5732 41.3936C67.9639 41.3936 68.2975 41.2292 68.5742 40.9004C68.8542 40.5684 68.9941 40.0557 68.9941 39.3623C68.9941 38.7015 68.8574 38.2067 68.584 37.8779C68.3138 37.5492 67.9899 37.3848 67.6123 37.3848C67.238 37.3848 66.9059 37.5605 66.6162 37.9121C66.3298 38.2604 66.1865 38.7682 66.1865 39.4355ZM70.6299 39.4062C70.6299 38.446 70.8968 37.7347 71.4307 37.2725C71.8766 36.8883 72.4202 36.6963 73.0615 36.6963C73.7744 36.6963 74.3571 36.9307 74.8096 37.3994C75.262 37.8649 75.4883 38.5094 75.4883 39.333C75.4883 40.0003 75.3874 40.526 75.1855 40.9102C74.987 41.291 74.6956 41.5872 74.3115 41.7988C73.9307 42.0104 73.514 42.1162 73.0615 42.1162C72.3356 42.1162 71.748 41.8835 71.2988 41.418C70.8529 40.9525 70.6299 40.2819 70.6299 39.4062ZM71.5332 39.4062C71.5332 40.0703 71.6781 40.5684 71.9678 40.9004C72.2575 41.2292 72.6221 41.3936 73.0615 41.3936C73.4977 41.3936 73.8607 41.2275 74.1504 40.8955C74.4401 40.5635 74.585 40.0573 74.585 39.377C74.585 38.7357 74.4385 38.2507 74.1455 37.9219C73.8558 37.5898 73.4945 37.4238 73.0615 37.4238C72.6221 37.4238 72.2575 37.5882 71.9678 37.917C71.6781 38.2458 71.5332 38.7422 71.5332 39.4062ZM76.5283 35.8516V34.8408H77.4072V35.8516H76.5283ZM76.5283 41.999V36.8135H77.4072V41.999H76.5283ZM78.75 41.999V36.8135H79.541V37.5508C79.9219 36.9811 80.472 36.6963 81.1914 36.6963C81.5039 36.6963 81.7904 36.7533 82.0508 36.8672C82.3145 36.9779 82.5114 37.1243 82.6416 37.3066C82.7718 37.4889 82.863 37.7054 82.915 37.9561C82.9476 38.1188 82.9639 38.4036 82.9639 38.8105V41.999H82.085V38.8447C82.085 38.4867 82.0508 38.2197 81.9824 38.0439C81.9141 37.8649 81.792 37.7233 81.6162 37.6191C81.4437 37.5117 81.2402 37.458 81.0059 37.458C80.6315 37.458 80.3076 37.5768 80.0342 37.8145C79.764 38.0521 79.6289 38.5029 79.6289 39.167V41.999H78.75ZM86.2354 41.2129L86.3623 41.9893C86.1149 42.0413 85.8936 42.0674 85.6982 42.0674C85.3792 42.0674 85.1318 42.0169 84.9561 41.916C84.7803 41.8151 84.6566 41.6833 84.585 41.5205C84.5133 41.3545 84.4775 41.0078 84.4775 40.4805V37.4971H83.833V36.8135H84.4775V35.5293L85.3516 35.002V36.8135H86.2354V37.4971H85.3516V40.5293C85.3516 40.7799 85.3662 40.9411 85.3955 41.0127C85.4281 41.0843 85.4785 41.1413 85.5469 41.1836C85.6185 41.2259 85.7194 41.2471 85.8496 41.2471C85.9473 41.2471 86.0758 41.2357 86.2354 41.2129ZM10.6885 54.999V47.8408H12.1143L13.8086 52.9092C13.9648 53.3812 14.0788 53.7344 14.1504 53.9688C14.2318 53.7083 14.3587 53.3258 14.5312 52.8213L16.2451 47.8408H17.5195V54.999H16.6064V49.0078L14.5264 54.999H13.6719L11.6016 48.9053V54.999H10.6885ZM22.3193 54.3594C21.9938 54.6361 21.6797 54.8314 21.377 54.9453C21.0775 55.0592 20.7552 55.1162 20.4102 55.1162C19.8405 55.1162 19.4027 54.9779 19.0967 54.7012C18.7907 54.4212 18.6377 54.0648 18.6377 53.6318C18.6377 53.3779 18.6947 53.1468 18.8086 52.9385C18.9258 52.7269 19.0771 52.5576 19.2627 52.4307C19.4515 52.3037 19.6631 52.2077 19.8975 52.1426C20.07 52.097 20.3304 52.0531 20.6787 52.0107C21.3883 51.9261 21.9108 51.8252 22.2461 51.708C22.2493 51.5876 22.251 51.5111 22.251 51.4785C22.251 51.1204 22.168 50.8682 22.002 50.7217C21.7773 50.5231 21.4437 50.4238 21.001 50.4238C20.5876 50.4238 20.2816 50.4971 20.083 50.6436C19.8877 50.7868 19.7428 51.0423 19.6484 51.4102L18.7891 51.293C18.8672 50.9251 18.9958 50.6289 19.1748 50.4043C19.3538 50.1764 19.6126 50.0023 19.9512 49.8818C20.2897 49.7581 20.682 49.6963 21.1279 49.6963C21.5706 49.6963 21.9303 49.7484 22.207 49.8525C22.4837 49.9567 22.6872 50.0885 22.8174 50.248C22.9476 50.4043 23.0387 50.6029 23.0908 50.8438C23.1201 50.9935 23.1348 51.2637 23.1348 51.6543V52.8262C23.1348 53.6432 23.1527 54.1608 23.1885 54.3789C23.2275 54.5938 23.3024 54.8005 23.4131 54.999H22.4951C22.404 54.8167 22.3454 54.6035 22.3193 54.3594ZM22.2461 52.3965C21.9271 52.5267 21.4486 52.6374 20.8105 52.7285C20.4492 52.7806 20.1937 52.8392 20.0439 52.9043C19.8942 52.9694 19.7786 53.0654 19.6973 53.1924C19.6159 53.3161 19.5752 53.4544 19.5752 53.6074C19.5752 53.8418 19.6631 54.0371 19.8389 54.1934C20.0179 54.3496 20.2783 54.4277 20.6201 54.4277C20.9587 54.4277 21.2598 54.3545 21.5234 54.208C21.7871 54.0583 21.9808 53.8548 22.1045 53.5977C22.1989 53.3991 22.2461 53.1061 22.2461 52.7188V52.3965ZM24.502 54.999V49.8135H25.293V50.5508C25.6738 49.9811 26.224 49.6963 26.9434 49.6963C27.2559 49.6963 27.5423 49.7533 27.8027 49.8672C28.0664 49.9779 28.2633 50.1243 28.3936 50.3066C28.5238 50.4889 28.6149 50.7054 28.667 50.9561C28.6995 51.1188 28.7158 51.4036 28.7158 51.8105V54.999H27.8369V51.8447C27.8369 51.4867 27.8027 51.2197 27.7344 51.0439C27.666 50.8649 27.5439 50.7233 27.3682 50.6191C27.1956 50.5117 26.9922 50.458 26.7578 50.458C26.3835 50.458 26.0596 50.5768 25.7861 50.8145C25.516 51.0521 25.3809 51.5029 25.3809 52.167V54.999H24.502ZM33.4521 54.3594C33.1266 54.6361 32.8125 54.8314 32.5098 54.9453C32.2103 55.0592 31.888 55.1162 31.543 55.1162C30.9733 55.1162 30.5355 54.9779 30.2295 54.7012C29.9235 54.4212 29.7705 54.0648 29.7705 53.6318C29.7705 53.3779 29.8275 53.1468 29.9414 52.9385C30.0586 52.7269 30.21 52.5576 30.3955 52.4307C30.5843 52.3037 30.7959 52.2077 31.0303 52.1426C31.2028 52.097 31.4632 52.0531 31.8115 52.0107C32.5212 51.9261 33.0436 51.8252 33.3789 51.708C33.3822 51.5876 33.3838 51.5111 33.3838 51.4785C33.3838 51.1204 33.3008 50.8682 33.1348 50.7217C32.9102 50.5231 32.5765 50.4238 32.1338 50.4238C31.7204 50.4238 31.4144 50.4971 31.2158 50.6436C31.0205 50.7868 30.8757 51.0423 30.7812 51.4102L29.9219 51.293C30 50.9251 30.1286 50.6289 30.3076 50.4043C30.4867 50.1764 30.7454 50.0023 31.084 49.8818C31.4225 49.7581 31.8148 49.6963 32.2607 49.6963C32.7035 49.6963 33.0632 49.7484 33.3398 49.8525C33.6165 49.9567 33.82 50.0885 33.9502 50.248C34.0804 50.4043 34.1715 50.6029 34.2236 50.8438C34.2529 50.9935 34.2676 51.2637 34.2676 51.6543V52.8262C34.2676 53.6432 34.2855 54.1608 34.3213 54.3789C34.3604 54.5938 34.4352 54.8005 34.5459 54.999H33.6279C33.5368 54.8167 33.4782 54.6035 33.4521 54.3594ZM33.3789 52.3965C33.0599 52.5267 32.5814 52.6374 31.9434 52.7285C31.582 52.7806 31.3265 52.8392 31.1768 52.9043C31.027 52.9694 30.9115 53.0654 30.8301 53.1924C30.7487 53.3161 30.708 53.4544 30.708 53.6074C30.708 53.8418 30.7959 54.0371 30.9717 54.1934C31.1507 54.3496 31.4111 54.4277 31.7529 54.4277C32.0915 54.4277 32.3926 54.3545 32.6562 54.208C32.9199 54.0583 33.1136 53.8548 33.2373 53.5977C33.3317 53.3991 33.3789 53.1061 33.3789 52.7188V52.3965ZM35.4736 55.4287L36.3281 55.5557C36.3639 55.8193 36.4632 56.0114 36.626 56.1318C36.8441 56.2946 37.1419 56.376 37.5195 56.376C37.9264 56.376 38.2406 56.2946 38.4619 56.1318C38.6833 55.9691 38.833 55.7412 38.9111 55.4482C38.9567 55.2692 38.9779 54.8932 38.9746 54.3203C38.5905 54.7728 38.112 54.999 37.5391 54.999C36.8262 54.999 36.2744 54.7419 35.8838 54.2275C35.4932 53.7132 35.2979 53.0964 35.2979 52.377C35.2979 51.8822 35.3874 51.4264 35.5664 51.0098C35.7454 50.5898 36.0042 50.266 36.3428 50.0381C36.6846 49.8102 37.085 49.6963 37.5439 49.6963C38.1559 49.6963 38.6605 49.9437 39.0576 50.4385V49.8135H39.8682V54.2959C39.8682 55.1032 39.7852 55.6745 39.6191 56.0098C39.4564 56.3483 39.196 56.6152 38.8379 56.8105C38.4831 57.0059 38.0452 57.1035 37.5244 57.1035C36.9059 57.1035 36.4062 56.9635 36.0254 56.6836C35.6445 56.4069 35.4606 55.9886 35.4736 55.4287ZM36.2012 52.3135C36.2012 52.9938 36.3363 53.4902 36.6064 53.8027C36.8766 54.1152 37.2152 54.2715 37.6221 54.2715C38.0257 54.2715 38.3643 54.1169 38.6377 53.8076C38.9111 53.4951 39.0479 53.0068 39.0479 52.3428C39.0479 51.708 38.9062 51.2295 38.623 50.9072C38.3431 50.585 38.0046 50.4238 37.6074 50.4238C37.2168 50.4238 36.8848 50.5833 36.6113 50.9023C36.3379 51.2181 36.2012 51.6885 36.2012 52.3135ZM44.751 53.3291L45.6592 53.4414C45.516 53.972 45.2507 54.3838 44.8633 54.6768C44.4759 54.9697 43.9811 55.1162 43.3789 55.1162C42.6204 55.1162 42.0182 54.8835 41.5723 54.418C41.1296 53.9492 40.9082 53.2933 40.9082 52.4502C40.9082 51.5778 41.1328 50.9007 41.582 50.4189C42.0312 49.9372 42.6139 49.6963 43.3301 49.6963C44.0234 49.6963 44.5898 49.9323 45.0293 50.4043C45.4688 50.8763 45.6885 51.5404 45.6885 52.3965C45.6885 52.4486 45.6868 52.5267 45.6836 52.6309H41.8164C41.849 53.2005 42.0101 53.6367 42.2998 53.9395C42.5895 54.2422 42.9508 54.3936 43.3838 54.3936C43.7061 54.3936 43.9811 54.3089 44.209 54.1396C44.4368 53.9704 44.6175 53.7002 44.751 53.3291ZM41.8652 51.9082H44.7607C44.7217 51.472 44.611 51.1449 44.4287 50.9268C44.1488 50.5882 43.7858 50.4189 43.3398 50.4189C42.9362 50.4189 42.596 50.554 42.3193 50.8242C42.0459 51.0944 41.8945 51.4557 41.8652 51.9082ZM46.7578 54.999V49.8135H47.5488V50.5996C47.7507 50.2318 47.9362 49.9893 48.1055 49.8721C48.278 49.7549 48.4668 49.6963 48.6719 49.6963C48.9681 49.6963 49.2692 49.7907 49.5752 49.9795L49.2725 50.7949C49.0576 50.668 48.8428 50.6045 48.6279 50.6045C48.4359 50.6045 48.2633 50.6631 48.1104 50.7803C47.9574 50.8942 47.8483 51.0537 47.7832 51.2588C47.6855 51.5713 47.6367 51.9131 47.6367 52.2842V54.999H46.7578ZM49.4385 55.1211L51.5137 47.7188H52.2168L50.1465 55.1211H49.4385ZM53.1543 54.999V47.8408H54.1016V54.999H53.1543ZM55.6641 54.999V49.8135H56.4551V50.5508C56.8359 49.9811 57.3861 49.6963 58.1055 49.6963C58.418 49.6963 58.7044 49.7533 58.9648 49.8672C59.2285 49.9779 59.4255 50.1243 59.5557 50.3066C59.6859 50.4889 59.777 50.7054 59.8291 50.9561C59.8617 51.1188 59.8779 51.4036 59.8779 51.8105V54.999H58.999V51.8447C58.999 51.4867 58.9648 51.2197 58.8965 51.0439C58.8281 50.8649 58.7061 50.7233 58.5303 50.6191C58.3577 50.5117 58.1543 50.458 57.9199 50.458C57.5456 50.458 57.2217 50.5768 56.9482 50.8145C56.6781 51.0521 56.543 51.5029 56.543 52.167V54.999H55.6641ZM63.1494 54.2129L63.2764 54.9893C63.029 55.0413 62.8076 55.0674 62.6123 55.0674C62.2933 55.0674 62.0459 55.0169 61.8701 54.916C61.6943 54.8151 61.5706 54.6833 61.499 54.5205C61.4274 54.3545 61.3916 54.0078 61.3916 53.4805V50.4971H60.7471V49.8135H61.3916V48.5293L62.2656 48.002V49.8135H63.1494V50.4971H62.2656V53.5293C62.2656 53.7799 62.2803 53.9411 62.3096 54.0127C62.3421 54.0843 62.3926 54.1413 62.4609 54.1836C62.5326 54.2259 62.6335 54.2471 62.7637 54.2471C62.8613 54.2471 62.9899 54.2357 63.1494 54.2129ZM67.4121 54.999V54.2373C67.0085 54.8232 66.46 55.1162 65.7666 55.1162C65.4606 55.1162 65.1742 55.0576 64.9072 54.9404C64.6436 54.8232 64.4466 54.6768 64.3164 54.501C64.1895 54.3219 64.0999 54.1038 64.0479 53.8467C64.012 53.6742 63.9941 53.4007 63.9941 53.0264V49.8135H64.873V52.6895C64.873 53.1484 64.891 53.4577 64.9268 53.6172C64.9821 53.8483 65.0993 54.0306 65.2783 54.1641C65.4574 54.2943 65.6787 54.3594 65.9424 54.3594C66.2061 54.3594 66.4535 54.2926 66.6846 54.1592C66.9157 54.0225 67.0785 53.8385 67.1729 53.6074C67.2705 53.373 67.3193 53.0345 67.3193 52.5918V49.8135H68.1982V54.999H67.4121ZM69.5801 54.999V49.8135H70.3711V50.5508C70.752 49.9811 71.3021 49.6963 72.0215 49.6963C72.334 49.6963 72.6204 49.7533 72.8809 49.8672C73.1445 49.9779 73.3415 50.1243 73.4717 50.3066C73.6019 50.4889 73.693 50.7054 73.7451 50.9561C73.7777 51.1188 73.7939 51.4036 73.7939 51.8105V54.999H72.915V51.8447C72.915 51.4867 72.8809 51.2197 72.8125 51.0439C72.7441 50.8649 72.6221 50.7233 72.4463 50.6191C72.2738 50.5117 72.0703 50.458 71.8359 50.458C71.4616 50.458 71.1377 50.5768 70.8643 50.8145C70.5941 51.0521 70.459 51.5029 70.459 52.167V54.999H69.5801ZM78.6963 53.3291L79.6045 53.4414C79.4613 53.972 79.196 54.3838 78.8086 54.6768C78.4212 54.9697 77.9264 55.1162 77.3242 55.1162C76.5658 55.1162 75.9635 54.8835 75.5176 54.418C75.0749 53.9492 74.8535 53.2933 74.8535 52.4502C74.8535 51.5778 75.0781 50.9007 75.5273 50.4189C75.9766 49.9372 76.5592 49.6963 77.2754 49.6963C77.9688 49.6963 78.5352 49.9323 78.9746 50.4043C79.4141 50.8763 79.6338 51.5404 79.6338 52.3965C79.6338 52.4486 79.6322 52.5267 79.6289 52.6309H75.7617C75.7943 53.2005 75.9554 53.6367 76.2451 53.9395C76.5348 54.2422 76.8962 54.3936 77.3291 54.3936C77.6514 54.3936 77.9264 54.3089 78.1543 54.1396C78.3822 53.9704 78.5628 53.7002 78.6963 53.3291ZM75.8105 51.9082H78.7061C78.667 51.472 78.5563 51.1449 78.374 50.9268C78.0941 50.5882 77.7311 50.4189 77.2852 50.4189C76.8815 50.4189 76.5413 50.554 76.2646 50.8242C75.9912 51.0944 75.8398 51.4557 75.8105 51.9082Z" fill="#2A303D"/>
</svg>
