<svg width="89" height="42" viewBox="0 0 89 42" fill="none" xmlns="http://www.w3.org/2000/svg">
<path d="M6.72 32.0518V39.2168H6.235C6.15833 39.2168 6.09333 39.2035 6.04 39.1768C5.99 39.1501 5.94 39.1051 5.89 39.0418L1.745 33.6418C1.75167 33.7251 1.75667 33.8068 1.76 33.8868C1.76333 33.9668 1.765 34.0418 1.765 34.1118V39.2168H0.915V32.0518H1.415C1.45833 32.0518 1.495 32.0551 1.525 32.0618C1.555 32.0651 1.58167 32.0735 1.605 32.0868C1.62833 32.0968 1.65167 32.1135 1.675 32.1368C1.69833 32.1568 1.72333 32.1835 1.75 32.2168L5.895 37.6118C5.88833 37.5251 5.88167 37.4418 5.875 37.3618C5.87167 37.2785 5.87 37.2001 5.87 37.1268V32.0518H6.72ZM11.5755 36.1318C11.5755 35.9251 11.5455 35.7368 11.4855 35.5668C11.4288 35.3935 11.3438 35.2451 11.2305 35.1218C11.1205 34.9951 10.9855 34.8985 10.8255 34.8318C10.6655 34.7618 10.4838 34.7268 10.2805 34.7268C9.8538 34.7268 9.51547 34.8518 9.26547 35.1018C9.0188 35.3485 8.86547 35.6918 8.80547 36.1318H11.5755ZM12.2955 38.5068C12.1855 38.6401 12.0538 38.7568 11.9005 38.8568C11.7471 38.9535 11.5821 39.0335 11.4055 39.0968C11.2321 39.1601 11.0521 39.2068 10.8655 39.2368C10.6788 39.2701 10.4938 39.2868 10.3105 39.2868C9.96047 39.2868 9.63714 39.2285 9.34047 39.1118C9.04714 38.9918 8.79214 38.8185 8.57547 38.5918C8.36214 38.3618 8.19547 38.0785 8.07547 37.7418C7.95547 37.4051 7.89547 37.0185 7.89547 36.5818C7.89547 36.2285 7.9488 35.8985 8.05547 35.5918C8.16547 35.2851 8.32214 35.0201 8.52547 34.7968C8.7288 34.5701 8.97714 34.3935 9.27047 34.2668C9.5638 34.1368 9.8938 34.0718 10.2605 34.0718C10.5638 34.0718 10.8438 34.1235 11.1005 34.2268C11.3605 34.3268 11.5838 34.4735 11.7705 34.6668C11.9605 34.8568 12.1088 35.0935 12.2155 35.3768C12.3221 35.6568 12.3755 35.9768 12.3755 36.3368C12.3755 36.4768 12.3605 36.5701 12.3305 36.6168C12.3005 36.6635 12.2438 36.6868 12.1605 36.6868H8.77547C8.78547 37.0068 8.8288 37.2851 8.90547 37.5218C8.98547 37.7585 9.09547 37.9568 9.23547 38.1168C9.37547 38.2735 9.54214 38.3918 9.73547 38.4718C9.9288 38.5485 10.1455 38.5868 10.3855 38.5868C10.6088 38.5868 10.8005 38.5618 10.9605 38.5118C11.1238 38.4585 11.2638 38.4018 11.3805 38.3418C11.4971 38.2818 11.5938 38.2268 11.6705 38.1768C11.7505 38.1235 11.8188 38.0968 11.8755 38.0968C11.9488 38.0968 12.0055 38.1251 12.0455 38.1818L12.2955 38.5068ZM14.9846 39.2968C14.5846 39.2968 14.2763 39.1851 14.0596 38.9618C13.8463 38.7385 13.7396 38.4168 13.7396 37.9968V34.8968H13.1296C13.0763 34.8968 13.0313 34.8818 12.9946 34.8518C12.9579 34.8185 12.9396 34.7685 12.9396 34.7018V34.3468L13.7696 34.2418L13.9746 32.6768C13.9846 32.6268 14.0063 32.5868 14.0396 32.5568C14.0763 32.5235 14.1229 32.5068 14.1796 32.5068H14.6296V34.2518H16.0946V34.8968H14.6296V37.9368C14.6296 38.1501 14.6813 38.3085 14.7846 38.4118C14.8879 38.5151 15.0213 38.5668 15.1846 38.5668C15.2779 38.5668 15.3579 38.5551 15.4246 38.5318C15.4946 38.5051 15.5546 38.4768 15.6046 38.4468C15.6546 38.4168 15.6963 38.3901 15.7296 38.3668C15.7663 38.3401 15.7979 38.3268 15.8246 38.3268C15.8713 38.3268 15.9129 38.3551 15.9496 38.4118L16.2096 38.8368C16.0563 38.9801 15.8713 39.0935 15.6546 39.1768C15.4379 39.2568 15.2146 39.2968 14.9846 39.2968ZM23.9986 34.1518L22.3586 39.2168H21.6536C21.5669 39.2168 21.5069 39.1601 21.4736 39.0468L20.3536 35.6118C20.3269 35.5351 20.3053 35.4585 20.2886 35.3818C20.2719 35.3018 20.2553 35.2235 20.2386 35.1468C20.2219 35.2235 20.2053 35.3018 20.1886 35.3818C20.1719 35.4585 20.1503 35.5368 20.1236 35.6168L18.9836 39.0468C18.9536 39.1601 18.8869 39.2168 18.7836 39.2168H18.1136L16.4736 34.1518H17.1736C17.2436 34.1518 17.3019 34.1701 17.3486 34.2068C17.3986 34.2435 17.4319 34.2868 17.4486 34.3368L18.4186 37.5968C18.4753 37.8368 18.5203 38.0635 18.5536 38.2768C18.5836 38.1668 18.6136 38.0551 18.6436 37.9418C18.6769 37.8285 18.7119 37.7135 18.7486 37.5968L19.8186 34.3168C19.8353 34.2668 19.8636 34.2251 19.9036 34.1918C19.9469 34.1585 19.9986 34.1418 20.0586 34.1418H20.4486C20.5153 34.1418 20.5703 34.1585 20.6136 34.1918C20.6569 34.2251 20.6869 34.2668 20.7036 34.3168L21.7486 37.5968C21.7853 37.7135 21.8186 37.8285 21.8486 37.9418C21.8786 38.0551 21.9069 38.1668 21.9336 38.2768C21.9503 38.1668 21.9703 38.0568 21.9936 37.9468C22.0203 37.8335 22.0486 37.7168 22.0786 37.5968L23.0686 34.3368C23.0853 34.2835 23.1169 34.2401 23.1636 34.2068C23.2103 34.1701 23.2653 34.1518 23.3286 34.1518H23.9986ZM26.9318 34.0718C27.3018 34.0718 27.6351 34.1335 27.9318 34.2568C28.2285 34.3801 28.4818 34.5551 28.6918 34.7818C28.9018 35.0085 29.0618 35.2835 29.1718 35.6068C29.2851 35.9268 29.3418 36.2851 29.3418 36.6818C29.3418 37.0818 29.2851 37.4418 29.1718 37.7618C29.0618 38.0818 28.9018 38.3551 28.6918 38.5818C28.4818 38.8085 28.2285 38.9835 27.9318 39.1068C27.6351 39.2268 27.3018 39.2868 26.9318 39.2868C26.5585 39.2868 26.2218 39.2268 25.9218 39.1068C25.6251 38.9835 25.3718 38.8085 25.1618 38.5818C24.9518 38.3551 24.7901 38.0818 24.6768 37.7618C24.5668 37.4418 24.5118 37.0818 24.5118 36.6818C24.5118 36.2851 24.5668 35.9268 24.6768 35.6068C24.7901 35.2835 24.9518 35.0085 25.1618 34.7818C25.3718 34.5551 25.6251 34.3801 25.9218 34.2568C26.2218 34.1335 26.5585 34.0718 26.9318 34.0718ZM26.9318 38.5918C27.4318 38.5918 27.8051 38.4251 28.0518 38.0918C28.2985 37.7551 28.4218 37.2868 28.4218 36.6868C28.4218 36.0835 28.2985 35.6135 28.0518 35.2768C27.8051 34.9401 27.4318 34.7718 26.9318 34.7718C26.6785 34.7718 26.4568 34.8151 26.2668 34.9018C26.0801 34.9885 25.9235 35.1135 25.7968 35.2768C25.6735 35.4401 25.5801 35.6418 25.5168 35.8818C25.4568 36.1185 25.4268 36.3868 25.4268 36.6868C25.4268 37.2868 25.5501 37.7551 25.7968 38.0918C26.0468 38.4251 26.4251 38.5918 26.9318 38.5918ZM31.3156 35.1668C31.4756 34.8201 31.6723 34.5501 31.9056 34.3568C32.139 34.1601 32.424 34.0618 32.7606 34.0618C32.8673 34.0618 32.969 34.0735 33.0656 34.0968C33.1656 34.1201 33.254 34.1568 33.3306 34.2068L33.2656 34.8718C33.2456 34.9551 33.1956 34.9968 33.1156 34.9968C33.069 34.9968 33.0006 34.9868 32.9106 34.9668C32.8206 34.9468 32.719 34.9368 32.6056 34.9368C32.4456 34.9368 32.3023 34.9601 32.1756 35.0068C32.0523 35.0535 31.9406 35.1235 31.8406 35.2168C31.744 35.3068 31.6556 35.4201 31.5756 35.5568C31.499 35.6901 31.429 35.8435 31.3656 36.0168V39.2168H30.4706V34.1518H30.9806C31.0773 34.1518 31.144 34.1701 31.1806 34.2068C31.2173 34.2435 31.2423 34.3068 31.2556 34.3968L31.3156 35.1668ZM35.0082 31.8518V36.1868H35.2382C35.3049 36.1868 35.3599 36.1785 35.4032 36.1618C35.4499 36.1418 35.4982 36.1035 35.5482 36.0468L37.1482 34.3318C37.1949 34.2751 37.2432 34.2318 37.2932 34.2018C37.3465 34.1685 37.4165 34.1518 37.5032 34.1518H38.3082L36.4432 36.1368C36.3532 36.2501 36.2565 36.3385 36.1532 36.4018C36.2132 36.4418 36.2665 36.4885 36.3132 36.5418C36.3632 36.5918 36.4099 36.6501 36.4532 36.7168L38.4332 39.2168H37.6382C37.5615 39.2168 37.4949 39.2051 37.4382 39.1818C37.3849 39.1551 37.3382 39.1085 37.2982 39.0418L35.6332 36.9668C35.5832 36.8968 35.5332 36.8518 35.4832 36.8318C35.4365 36.8085 35.3632 36.7968 35.2632 36.7968H35.0082V39.2168H34.1132V31.8518H35.0082ZM43.9449 35.5218C44.2249 35.5218 44.4716 35.4885 44.6849 35.4218C44.9016 35.3518 45.0816 35.2551 45.2249 35.1318C45.3716 35.0051 45.4816 34.8551 45.5549 34.6818C45.6283 34.5085 45.6649 34.3168 45.6649 34.1068C45.6649 33.6801 45.5249 33.3585 45.2449 33.1418C44.9649 32.9251 44.5449 32.8168 43.9849 32.8168H42.9249V35.5218H43.9449ZM47.2549 39.2168H46.3949C46.2183 39.2168 46.0883 39.1485 46.0049 39.0118L44.1449 36.4518C44.0883 36.3718 44.0266 36.3151 43.9599 36.2818C43.8966 36.2451 43.7966 36.2268 43.6599 36.2268H42.9249V39.2168H41.9599V32.0518H43.9849C44.4383 32.0518 44.8299 32.0985 45.1599 32.1918C45.4899 32.2818 45.7616 32.4135 45.9749 32.5868C46.1916 32.7601 46.3516 32.9701 46.4549 33.2168C46.5583 33.4601 46.6099 33.7335 46.6099 34.0368C46.6099 34.2901 46.5699 34.5268 46.4899 34.7468C46.4099 34.9668 46.2933 35.1651 46.1399 35.3418C45.9899 35.5151 45.8049 35.6635 45.5849 35.7868C45.3683 35.9101 45.1216 36.0035 44.8449 36.0668C44.9683 36.1368 45.0749 36.2385 45.1649 36.3718L47.2549 39.2168ZM51.0872 36.1318C51.0872 35.9251 51.0572 35.7368 50.9972 35.5668C50.9405 35.3935 50.8555 35.2451 50.7422 35.1218C50.6322 34.9951 50.4972 34.8985 50.3372 34.8318C50.1772 34.7618 49.9955 34.7268 49.7922 34.7268C49.3655 34.7268 49.0272 34.8518 48.7772 35.1018C48.5305 35.3485 48.3772 35.6918 48.3172 36.1318H51.0872ZM51.8072 38.5068C51.6972 38.6401 51.5655 38.7568 51.4122 38.8568C51.2589 38.9535 51.0939 39.0335 50.9172 39.0968C50.7439 39.1601 50.5639 39.2068 50.3772 39.2368C50.1905 39.2701 50.0055 39.2868 49.8222 39.2868C49.4722 39.2868 49.1489 39.2285 48.8522 39.1118C48.5589 38.9918 48.3039 38.8185 48.0872 38.5918C47.8739 38.3618 47.7072 38.0785 47.5872 37.7418C47.4672 37.4051 47.4072 37.0185 47.4072 36.5818C47.4072 36.2285 47.4605 35.8985 47.5672 35.5918C47.6772 35.2851 47.8339 35.0201 48.0372 34.7968C48.2405 34.5701 48.4889 34.3935 48.7822 34.2668C49.0755 34.1368 49.4055 34.0718 49.7722 34.0718C50.0755 34.0718 50.3555 34.1235 50.6122 34.2268C50.8722 34.3268 51.0955 34.4735 51.2822 34.6668C51.4722 34.8568 51.6205 35.0935 51.7272 35.3768C51.8339 35.6568 51.8872 35.9768 51.8872 36.3368C51.8872 36.4768 51.8722 36.5701 51.8422 36.6168C51.8122 36.6635 51.7555 36.6868 51.6722 36.6868H48.2872C48.2972 37.0068 48.3405 37.2851 48.4172 37.5218C48.4972 37.7585 48.6072 37.9568 48.7472 38.1168C48.8872 38.2735 49.0539 38.3918 49.2472 38.4718C49.4405 38.5485 49.6572 38.5868 49.8972 38.5868C50.1205 38.5868 50.3122 38.5618 50.4722 38.5118C50.6355 38.4585 50.7755 38.4018 50.8922 38.3418C51.0089 38.2818 51.1055 38.2268 51.1822 38.1768C51.2622 38.1235 51.3305 38.0968 51.3872 38.0968C51.4605 38.0968 51.5172 38.1251 51.5572 38.1818L51.8072 38.5068ZM53.8754 37.9968C54.0387 38.2168 54.2171 38.3718 54.4104 38.4618C54.6037 38.5518 54.8204 38.5968 55.0604 38.5968C55.5337 38.5968 55.8971 38.4285 56.1504 38.0918C56.4037 37.7551 56.5304 37.2751 56.5304 36.6518C56.5304 36.3218 56.5004 36.0385 56.4404 35.8018C56.3837 35.5651 56.3004 35.3718 56.1904 35.2218C56.0804 35.0685 55.9454 34.9568 55.7854 34.8868C55.6254 34.8168 55.4437 34.7818 55.2404 34.7818C54.9504 34.7818 54.6954 34.8485 54.4754 34.9818C54.2587 35.1151 54.0587 35.3035 53.8754 35.5468V37.9968ZM53.8304 34.9368C54.0437 34.6735 54.2904 34.4618 54.5704 34.3018C54.8504 34.1418 55.1704 34.0618 55.5304 34.0618C55.8237 34.0618 56.0887 34.1185 56.3254 34.2318C56.5621 34.3418 56.7637 34.5068 56.9304 34.7268C57.0971 34.9435 57.2254 35.2135 57.3154 35.5368C57.4054 35.8601 57.4504 36.2318 57.4504 36.6518C57.4504 37.0251 57.4004 37.3735 57.3004 37.6968C57.2004 38.0168 57.0554 38.2951 56.8654 38.5318C56.6787 38.7651 56.4487 38.9501 56.1754 39.0868C55.9054 39.2201 55.6004 39.2868 55.2604 39.2868C54.9504 39.2868 54.6837 39.2351 54.4604 39.1318C54.2404 39.0251 54.0454 38.8785 53.8754 38.6918V40.9318H52.9804V34.1518H53.5154C53.6421 34.1518 53.7204 34.2135 53.7504 34.3368L53.8304 34.9368ZM60.7209 34.0718C61.0909 34.0718 61.4242 34.1335 61.7209 34.2568C62.0175 34.3801 62.2709 34.5551 62.4809 34.7818C62.6909 35.0085 62.8509 35.2835 62.9609 35.6068C63.0742 35.9268 63.1309 36.2851 63.1309 36.6818C63.1309 37.0818 63.0742 37.4418 62.9609 37.7618C62.8509 38.0818 62.6909 38.3551 62.4809 38.5818C62.2709 38.8085 62.0175 38.9835 61.7209 39.1068C61.4242 39.2268 61.0909 39.2868 60.7209 39.2868C60.3475 39.2868 60.0109 39.2268 59.7109 39.1068C59.4142 38.9835 59.1609 38.8085 58.9509 38.5818C58.7409 38.3551 58.5792 38.0818 58.4659 37.7618C58.3559 37.4418 58.3009 37.0818 58.3009 36.6818C58.3009 36.2851 58.3559 35.9268 58.4659 35.6068C58.5792 35.2835 58.7409 35.0085 58.9509 34.7818C59.1609 34.5551 59.4142 34.3801 59.7109 34.2568C60.0109 34.1335 60.3475 34.0718 60.7209 34.0718ZM60.7209 38.5918C61.2209 38.5918 61.5942 38.4251 61.8409 38.0918C62.0875 37.7551 62.2109 37.2868 62.2109 36.6868C62.2109 36.0835 62.0875 35.6135 61.8409 35.2768C61.5942 34.9401 61.2209 34.7718 60.7209 34.7718C60.4675 34.7718 60.2459 34.8151 60.0559 34.9018C59.8692 34.9885 59.7125 35.1135 59.5859 35.2768C59.4625 35.4401 59.3692 35.6418 59.3059 35.8818C59.2459 36.1185 59.2159 36.3868 59.2159 36.6868C59.2159 37.2868 59.3392 37.7551 59.5859 38.0918C59.8359 38.4251 60.2142 38.5918 60.7209 38.5918ZM67.2097 34.9868C67.1697 35.0601 67.108 35.0968 67.0247 35.0968C66.9747 35.0968 66.918 35.0785 66.8547 35.0418C66.7914 35.0051 66.713 34.9651 66.6197 34.9218C66.5297 34.8751 66.4214 34.8335 66.2947 34.7968C66.168 34.7568 66.018 34.7368 65.8447 34.7368C65.6947 34.7368 65.5597 34.7568 65.4397 34.7968C65.3197 34.8335 65.2164 34.8851 65.1297 34.9518C65.0464 35.0185 64.9814 35.0968 64.9347 35.1868C64.8914 35.2735 64.8697 35.3685 64.8697 35.4718C64.8697 35.6018 64.9064 35.7101 64.9797 35.7968C65.0564 35.8835 65.1564 35.9585 65.2797 36.0218C65.403 36.0851 65.543 36.1418 65.6997 36.1918C65.8564 36.2385 66.0164 36.2901 66.1797 36.3468C66.3464 36.4001 66.508 36.4601 66.6647 36.5268C66.8214 36.5935 66.9614 36.6768 67.0847 36.7768C67.208 36.8768 67.3064 37.0001 67.3797 37.1468C67.4564 37.2901 67.4947 37.4635 67.4947 37.6668C67.4947 37.9001 67.453 38.1168 67.3697 38.3168C67.2864 38.5135 67.163 38.6851 66.9997 38.8318C66.8364 38.9751 66.6364 39.0885 66.3997 39.1718C66.163 39.2551 65.8897 39.2968 65.5797 39.2968C65.2264 39.2968 64.9064 39.2401 64.6197 39.1268C64.333 39.0101 64.0897 38.8618 63.8897 38.6818L64.0997 38.3418C64.1264 38.2985 64.158 38.2651 64.1947 38.2418C64.2314 38.2185 64.278 38.2068 64.3347 38.2068C64.3947 38.2068 64.458 38.2301 64.5247 38.2768C64.5914 38.3235 64.6714 38.3751 64.7647 38.4318C64.8614 38.4885 64.978 38.5401 65.1147 38.5868C65.2514 38.6335 65.4214 38.6568 65.6247 38.6568C65.798 38.6568 65.9497 38.6351 66.0797 38.5918C66.2097 38.5451 66.318 38.4835 66.4047 38.4068C66.4914 38.3301 66.5547 38.2418 66.5947 38.1418C66.638 38.0418 66.6597 37.9351 66.6597 37.8218C66.6597 37.6818 66.6214 37.5668 66.5447 37.4768C66.4714 37.3835 66.373 37.3051 66.2497 37.2418C66.1264 37.1751 65.9847 37.1185 65.8247 37.0718C65.668 37.0218 65.5064 36.9701 65.3397 36.9168C65.1764 36.8635 65.0147 36.8035 64.8547 36.7368C64.698 36.6668 64.558 36.5801 64.4347 36.4768C64.3114 36.3735 64.2114 36.2468 64.1347 36.0968C64.0614 35.9435 64.0247 35.7585 64.0247 35.5418C64.0247 35.3485 64.0647 35.1635 64.1447 34.9868C64.2247 34.8068 64.3414 34.6501 64.4947 34.5168C64.648 34.3801 64.8364 34.2718 65.0597 34.1918C65.283 34.1118 65.538 34.0718 65.8247 34.0718C66.158 34.0718 66.4564 34.1251 66.7197 34.2318C66.9864 34.3351 67.2164 34.4785 67.4097 34.6618L67.2097 34.9868ZM69.5259 34.1518V39.2168H68.6359V34.1518H69.5259ZM69.7159 32.5618C69.7159 32.6485 69.6975 32.7301 69.6609 32.8068C69.6275 32.8801 69.5809 32.9468 69.5209 33.0068C69.4642 33.0635 69.3959 33.1085 69.3159 33.1418C69.2392 33.1751 69.1575 33.1918 69.0709 33.1918C68.9842 33.1918 68.9025 33.1751 68.8259 33.1418C68.7525 33.1085 68.6875 33.0635 68.6309 33.0068C68.5742 32.9468 68.5292 32.8801 68.4959 32.8068C68.4625 32.7301 68.4459 32.6485 68.4459 32.5618C68.4459 32.4751 68.4625 32.3935 68.4959 32.3168C68.5292 32.2368 68.5742 32.1685 68.6309 32.1118C68.6875 32.0518 68.7525 32.0051 68.8259 31.9718C68.9025 31.9385 68.9842 31.9218 69.0709 31.9218C69.1575 31.9218 69.2392 31.9385 69.3159 31.9718C69.3959 32.0051 69.4642 32.0518 69.5209 32.1118C69.5809 32.1685 69.6275 32.2368 69.6609 32.3168C69.6975 32.3935 69.7159 32.4751 69.7159 32.5618ZM72.5432 39.2968C72.1432 39.2968 71.8349 39.1851 71.6182 38.9618C71.4049 38.7385 71.2982 38.4168 71.2982 37.9968V34.8968H70.6882C70.6349 34.8968 70.5899 34.8818 70.5532 34.8518C70.5165 34.8185 70.4982 34.7685 70.4982 34.7018V34.3468L71.3282 34.2418L71.5332 32.6768C71.5432 32.6268 71.5649 32.5868 71.5982 32.5568C71.6349 32.5235 71.6815 32.5068 71.7382 32.5068H72.1882V34.2518H73.6532V34.8968H72.1882V37.9368C72.1882 38.1501 72.2399 38.3085 72.3432 38.4118C72.4465 38.5151 72.5799 38.5668 72.7432 38.5668C72.8365 38.5668 72.9165 38.5551 72.9832 38.5318C73.0532 38.5051 73.1132 38.4768 73.1632 38.4468C73.2132 38.4168 73.2549 38.3901 73.2882 38.3668C73.3249 38.3401 73.3565 38.3268 73.3832 38.3268C73.4299 38.3268 73.4715 38.3551 73.5082 38.4118L73.7682 38.8368C73.6149 38.9801 73.4299 39.0935 73.2132 39.1768C72.9965 39.2568 72.7732 39.2968 72.5432 39.2968ZM76.6779 34.0718C77.0479 34.0718 77.3812 34.1335 77.6779 34.2568C77.9746 34.3801 78.2279 34.5551 78.4379 34.7818C78.6479 35.0085 78.8079 35.2835 78.9179 35.6068C79.0312 35.9268 79.0879 36.2851 79.0879 36.6818C79.0879 37.0818 79.0312 37.4418 78.9179 37.7618C78.8079 38.0818 78.6479 38.3551 78.4379 38.5818C78.2279 38.8085 77.9746 38.9835 77.6779 39.1068C77.3812 39.2268 77.0479 39.2868 76.6779 39.2868C76.3046 39.2868 75.9679 39.2268 75.6679 39.1068C75.3712 38.9835 75.1179 38.8085 74.9079 38.5818C74.6979 38.3551 74.5362 38.0818 74.4229 37.7618C74.3129 37.4418 74.2579 37.0818 74.2579 36.6818C74.2579 36.2851 74.3129 35.9268 74.4229 35.6068C74.5362 35.2835 74.6979 35.0085 74.9079 34.7818C75.1179 34.5551 75.3712 34.3801 75.6679 34.2568C75.9679 34.1335 76.3046 34.0718 76.6779 34.0718ZM76.6779 38.5918C77.1779 38.5918 77.5512 38.4251 77.7979 38.0918C78.0446 37.7551 78.1679 37.2868 78.1679 36.6868C78.1679 36.0835 78.0446 35.6135 77.7979 35.2768C77.5512 34.9401 77.1779 34.7718 76.6779 34.7718C76.4246 34.7718 76.2029 34.8151 76.0129 34.9018C75.8262 34.9885 75.6696 35.1135 75.5429 35.2768C75.4196 35.4401 75.3262 35.6418 75.2629 35.8818C75.2029 36.1185 75.1729 36.3868 75.1729 36.6868C75.1729 37.2868 75.2962 37.7551 75.5429 38.0918C75.7929 38.4251 76.1712 38.5918 76.6779 38.5918ZM81.0617 35.1668C81.2217 34.8201 81.4184 34.5501 81.6517 34.3568C81.8851 34.1601 82.1701 34.0618 82.5067 34.0618C82.6134 34.0618 82.7151 34.0735 82.8117 34.0968C82.9117 34.1201 83.0001 34.1568 83.0767 34.2068L83.0117 34.8718C82.9917 34.9551 82.9417 34.9968 82.8617 34.9968C82.8151 34.9968 82.7467 34.9868 82.6567 34.9668C82.5667 34.9468 82.4651 34.9368 82.3517 34.9368C82.1917 34.9368 82.0484 34.9601 81.9217 35.0068C81.7984 35.0535 81.6867 35.1235 81.5867 35.2168C81.4901 35.3068 81.4017 35.4201 81.3217 35.5568C81.2451 35.6901 81.1751 35.8435 81.1117 36.0168V39.2168H80.2167V34.1518H80.7267C80.8234 34.1518 80.8901 34.1701 80.9267 34.2068C80.9634 34.2435 80.9884 34.3068 81.0017 34.3968L81.0617 35.1668ZM88.2293 34.1518L85.4043 40.7118C85.3743 40.7785 85.336 40.8318 85.2893 40.8718C85.246 40.9118 85.1776 40.9318 85.0843 40.9318H84.4243L85.3493 38.9218L83.2593 34.1518H84.0293C84.106 34.1518 84.166 34.1718 84.2093 34.2118C84.256 34.2485 84.2876 34.2901 84.3043 34.3368L85.6593 37.5268C85.7126 37.6668 85.7576 37.8135 85.7943 37.9668C85.841 37.8101 85.891 37.6618 85.9443 37.5218L87.2593 34.3368C87.2793 34.2835 87.3126 34.2401 87.3593 34.2068C87.4093 34.1701 87.4643 34.1518 87.5243 34.1518H88.2293Z" fill="#2A303D"/>
<path d="M29.4756 6.48341L29.4473 1.57874C29.4473 0.706526 30.1543 0 31.026 0H41.2462C41.6077 0 41.9584 0.124263 42.2393 0.351261L44.3032 2.02189C44.2874 2.03382 44.2721 2.04575 44.2567 2.05822L44.5138 6.48341H29.4756Z" fill="#F9B21D"/>
<path d="M59.5529 3.28533V19.5089C59.5529 20.3811 58.8458 21.0876 57.9741 21.0876H31.0543C30.1827 21.0876 29.4756 20.3811 29.4756 19.5089V6.50061C29.4756 6.49492 29.4756 6.48927 29.4761 6.48358C29.4846 5.61988 30.1883 4.92187 31.0543 4.92187H40.1605C40.522 4.92187 40.8727 4.79761 41.1537 4.57061L44.2572 2.0584C44.2725 2.04592 44.2878 2.034 44.3037 2.02207C44.5767 1.81779 44.9086 1.70654 45.2508 1.70654H57.9742C58.8458 1.70659 59.5529 2.41366 59.5529 3.28533Z" fill="#E0A01A"/>
</svg>
