<svg width="90" height="51" viewBox="0 0 90 51" fill="none" xmlns="http://www.w3.org/2000/svg">
<path d="M52.6081 28.2596C56.5837 28.2596 59.8065 25.0368 59.8065 21.0612C59.8065 17.0856 56.5837 13.8628 52.6081 13.8628C48.6325 13.8628 45.4097 17.0856 45.4097 21.0612C45.4097 25.0368 48.6325 28.2596 52.6081 28.2596Z" fill="white"/>
<path d="M44.5172 9.15843C40.6579 9.15843 36.7988 9.15843 32.94 9.15843C32.573 9.18534 32.2045 9.13276 31.8596 9.00429C31.5148 8.87582 31.2017 8.6745 30.9417 8.41402C30.6817 8.15355 30.481 7.84005 30.3531 7.49494C30.2253 7.14983 30.1735 6.78122 30.2011 6.41423C30.2011 5.16021 30.2011 3.90644 30.2011 2.65291C30.1902 2.30319 30.251 1.95493 30.3796 1.62954C30.5082 1.30414 30.7019 1.00847 30.9489 0.760651C31.1959 0.512829 31.4909 0.318087 31.8159 0.188389C32.1408 0.0586902 32.4889 -0.00323316 32.8386 0.00641522C40.6115 0.00246709 48.3844 0.00246709 56.1573 0.00641522C56.5151 -0.0190648 56.8742 0.0315446 57.211 0.154886C57.5479 0.278227 57.8548 0.47151 58.1115 0.72202C58.3683 0.97253 58.569 1.27458 58.7005 1.60828C58.8321 1.94198 58.8915 2.29976 58.8749 2.65808C58.9512 4.04935 58.9406 5.44404 58.843 6.83398C58.8054 7.47588 58.5189 8.0778 58.0445 8.51184C57.5701 8.94589 56.9451 9.17784 56.3024 9.15843C53.3769 9.17028 50.4543 9.16287 47.5265 9.16361H44.5172V9.15843ZM41.4495 4.59317C41.4495 4.88557 41.4436 5.17798 41.4495 5.46964C41.4747 6.46975 41.2592 6.37648 42.4015 6.38832C42.7035 6.38832 42.8235 6.28173 42.8168 5.97156C42.802 5.22018 42.8227 4.46879 42.8101 3.71741C42.7916 2.65142 42.9996 2.81724 41.8381 2.78319C41.5539 2.77505 41.4354 2.88091 41.4451 3.17332C41.4613 3.64562 41.4495 4.11939 41.4495 4.59317ZM33.5775 4.53764C33.5775 4.8715 33.5738 5.2039 33.5775 5.5385C33.5893 6.47199 33.4538 6.35278 34.4347 6.38758C34.7878 6.40016 34.8952 6.2573 34.8878 5.92048C34.8715 5.17058 34.8833 4.41921 34.8833 3.66857C34.8833 2.72398 34.8833 2.73211 33.9395 2.78023C33.6722 2.7943 33.5693 2.89571 33.5745 3.15999C33.5863 3.6197 33.5782 4.07496 33.5775 4.53689V4.53764ZM37.5142 4.57539C37.5142 4.90851 37.5142 5.24164 37.5142 5.57476C37.5142 6.41719 37.5105 6.40609 38.3611 6.38907C38.6971 6.38315 38.8364 6.26175 38.8297 5.92122C38.8164 5.17207 38.8201 4.42215 38.826 3.67225C38.8341 2.72396 38.8304 2.72545 37.8851 2.78394C37.589 2.8017 37.5039 2.93199 37.5113 3.20145C37.5261 3.6582 37.515 4.11716 37.5142 4.57539ZM49.6762 5.26311C49.8011 5.25459 49.9265 5.25459 50.0515 5.26311C50.452 5.31715 50.552 5.12543 50.546 4.75677C50.5305 3.73297 50.5674 3.91434 49.6502 3.89805C49.5807 3.89805 49.5104 3.89805 49.4408 3.89805C48.8856 3.89805 48.8849 3.89804 48.8886 4.44585C48.8952 5.36527 48.7723 5.24978 49.6762 5.25941V5.26311ZM53.9742 5.25941H54.5169C54.5478 5.26291 54.5791 5.2603 54.609 5.2517C54.6389 5.24311 54.6668 5.22869 54.6911 5.2093C54.7154 5.18992 54.7357 5.16593 54.7507 5.1387C54.7658 5.11148 54.7754 5.08156 54.7789 5.05064C54.9884 4.18304 54.7789 3.90101 53.9098 3.90101C53.8265 3.90694 53.7429 3.90694 53.6596 3.90101C53.2613 3.84327 53.1207 4.00686 53.1326 4.41031C53.16 5.38525 53.0467 5.25941 53.9742 5.25941Z" fill="#F9B21D"/>
<path d="M43.2566 26.1676C42.4904 26.1883 41.7243 26.1764 40.9573 26.1727C39.995 26.169 40.1016 26.2705 40.0942 25.2896C40.0942 25.0675 40.0831 24.8454 40.0942 24.6234C40.1119 24.2932 39.952 24.174 39.6403 24.1836C39.2917 24.1947 38.943 24.1762 38.5951 24.1918C38.2708 24.2066 38.1509 24.0726 38.1509 23.7476C38.1613 22.5358 38.1635 21.3232 38.1509 20.1114C38.1465 19.7412 38.2604 19.6028 38.6543 19.6065C39.2218 19.6119 39.7894 19.6149 40.3569 19.6154C40.3421 19.568 40.3251 19.5214 40.314 19.4718C40.2575 19.2912 40.2297 19.1028 40.2318 18.9136H40.1859C40.0363 18.8865 39.8832 18.8865 39.7336 18.9136C39.322 18.9255 38.9104 18.8996 38.4988 18.8833C38.3041 18.8755 38.1117 18.8383 37.9281 18.773C37.7149 18.7644 37.5049 18.7172 37.3085 18.6338C36.62 19.1532 35.8121 19.4913 34.9589 19.6169C35.383 19.6169 35.8072 19.6169 36.2307 19.6169C36.4705 19.6169 36.6304 19.6494 36.6282 19.9507C36.6186 21.247 36.6208 22.5417 36.6282 23.8387C36.6282 24.0874 36.529 24.1947 36.2825 24.191C35.8642 24.1844 35.446 24.1962 35.0284 24.1836C34.7012 24.174 34.5843 24.3317 34.5917 24.6396C34.6028 25.015 34.5754 25.3925 34.608 25.7656C34.6354 26.0824 34.534 26.1883 34.2179 26.1824C33.4658 26.1676 32.7128 26.172 31.9607 26.1824C30.7866 26.1942 30.9628 26.0284 30.9317 27.198C30.9214 27.5963 31.0495 27.7407 31.45 27.7318C32.3835 27.711 33.3169 27.7318 34.2504 27.7214C34.4977 27.7214 34.605 27.7902 34.5961 28.0508C34.5813 28.4683 34.5962 28.8858 34.5917 29.3034C34.588 29.5491 34.6612 29.7053 34.9418 29.7053C36.5304 29.7024 38.1188 29.7024 39.7069 29.7053C39.9964 29.7053 40.0986 29.5573 40.0919 29.2871C40.0838 28.9251 40.1097 28.5616 40.0867 28.2004C40.0638 27.8391 40.1852 27.7021 40.559 27.7147C41.283 27.7384 42.0077 27.7251 42.7325 27.7207C43.8777 27.7133 43.7578 27.8998 43.7733 26.6709C43.7814 26.2705 43.6282 26.1579 43.2566 26.1676Z" fill="#F9B21D"/>
<path d="M52.6085 13.8637C53.8668 13.8632 55.1032 14.1928 56.1943 14.8195C57.2855 15.4463 58.1932 16.3483 58.8268 17.4355C58.832 17.3948 58.8393 17.3555 58.843 17.3141C58.9406 15.9241 58.9512 14.5295 58.8749 13.1382C58.8914 12.7799 58.832 12.4221 58.7004 12.0884C58.5688 11.7547 58.368 11.4527 58.1113 11.2022C57.8546 10.9516 57.5477 10.7583 57.211 10.6348C56.8742 10.5113 56.5151 10.4605 56.1573 10.4858C48.3839 10.4858 40.611 10.487 32.8386 10.4895C32.4889 10.4799 32.1408 10.5418 31.8159 10.6715C31.4909 10.8012 31.1959 10.9959 30.9489 11.2437C30.7019 11.4915 30.5082 11.7872 30.3796 12.1126C30.251 12.438 30.1902 12.7863 30.2011 13.136C30.1971 14.39 30.1971 15.6438 30.2011 16.8973C30.1735 17.2643 30.2253 17.6329 30.3531 17.978C30.481 18.3231 30.6817 18.6366 30.9417 18.8971C31.2017 19.1576 31.5148 19.3589 31.8596 19.4874C32.2045 19.6158 32.5731 19.6684 32.9401 19.6415C36.7994 19.6415 40.6584 19.6415 44.5172 19.6415H45.5536C45.8819 18.0121 46.7638 16.5465 48.0497 15.4934C49.3356 14.4402 50.9463 13.8644 52.6085 13.8637ZM34.4347 16.8707C33.4538 16.8344 33.5893 16.9543 33.5775 16.0216C33.573 15.6884 33.5775 15.3553 33.5775 15.0207C33.5775 14.5618 33.5864 14.1028 33.5775 13.6445C33.5716 13.3803 33.6752 13.2789 33.9425 13.2648C34.8856 13.2144 34.8855 13.207 34.8862 14.1531C34.8862 14.9037 34.8744 15.6551 34.8907 16.405C34.8951 16.7404 34.7863 16.884 34.4347 16.8707ZM38.3582 16.8707C37.5076 16.8869 37.5083 16.898 37.5113 16.0564C37.5113 15.7232 37.5113 15.3901 37.5113 15.057C37.5113 14.5988 37.5209 14.1405 37.5113 13.6823C37.5039 13.4099 37.5912 13.2826 37.8851 13.2648C38.8304 13.2078 38.8341 13.2063 38.826 14.1531C38.8201 14.9023 38.8164 15.6522 38.8297 16.4021C38.8356 16.7456 38.6964 16.867 38.3603 16.8729L38.3582 16.8707ZM42.3993 16.8707C41.2571 16.8588 41.4725 16.9521 41.4473 15.952C41.4407 15.6603 41.4473 15.3679 41.4473 15.0755C41.4473 14.6017 41.4592 14.1287 41.4436 13.6556C41.434 13.3632 41.5524 13.2574 41.8367 13.2655C42.9982 13.2996 42.7902 13.1338 42.8087 14.1998C42.8213 14.9511 42.8006 15.7025 42.8154 16.4539C42.8235 16.7648 42.7073 16.8744 42.4016 16.8714L42.3993 16.8707Z" fill="#F9B21D"/>
<path d="M46.4683 21.0815C46.4632 19.8602 46.8224 18.665 47.5 17.6489C48.1776 16.6327 49.1429 15.8417 50.2723 15.377C51.4018 14.9122 52.6443 14.7949 53.8408 15.0399C55.0373 15.2849 56.1336 15.8812 56.9895 16.7525C57.8454 17.6238 58.422 18.7305 58.6456 19.9312C58.8693 21.1319 58.7297 22.3721 58.2449 23.4931C57.7601 24.6141 56.9521 25.5651 55.924 26.2244C54.8959 26.8838 53.6945 27.2216 52.4735 27.1947C50.873 27.16 49.3495 26.5014 48.2276 25.3594C47.1058 24.2174 46.4745 22.6823 46.4683 21.0815Z" fill="#6B94E7"/>
<path d="M53.7126 24.0786C53.6441 24.3171 53.4998 24.5267 53.3016 24.676C53.1034 24.8253 52.862 24.906 52.6139 24.906C52.3658 24.906 52.1243 24.8253 51.9261 24.676C51.7279 24.5267 51.5837 24.3171 51.5151 24.0786H53.7126Z" fill="white"/>
<path d="M49.587 23.2156C49.6404 22.8575 49.8007 22.524 50.0468 22.2586C50.388 21.7387 50.5297 21.113 50.4459 20.4968C50.4542 20.1701 50.2796 18.4631 51.935 17.9543C51.935 17.9543 51.9175 17.2218 52.6076 17.2168C53.2976 17.2118 53.2802 17.9543 53.2802 17.9543C54.9331 18.4631 54.761 20.1701 54.7693 20.4968C54.6854 21.113 54.8272 21.7387 55.1684 22.2586C55.4145 22.524 55.5748 22.8575 55.6281 23.2156C55.6401 23.2982 55.647 23.3815 55.6489 23.465C55.6501 23.4959 55.6449 23.5268 55.6338 23.5557C55.6228 23.5846 55.606 23.611 55.5845 23.6332C55.563 23.6555 55.5372 23.6732 55.5087 23.6853C55.4802 23.6974 55.4496 23.7036 55.4186 23.7036H49.7973C49.7664 23.7036 49.7358 23.6974 49.7073 23.6853C49.6788 23.6732 49.653 23.6555 49.6315 23.6332C49.61 23.611 49.5932 23.5846 49.5821 23.5557C49.5711 23.5268 49.5659 23.4959 49.567 23.465C49.5687 23.3815 49.5754 23.2982 49.587 23.2156Z" fill="white"/>
<path d="M4.87793 46.7056V39.5474H5.84961L9.60938 45.1675V39.5474H10.5176V46.7056H9.5459L5.78613 41.0806V46.7056H4.87793ZM11.6748 44.1128C11.6748 43.1525 11.9417 42.4412 12.4756 41.979C12.9215 41.5949 13.4652 41.4028 14.1064 41.4028C14.8193 41.4028 15.402 41.6372 15.8545 42.106C16.307 42.5715 16.5332 43.216 16.5332 44.0396C16.5332 44.7069 16.4323 45.2326 16.2305 45.6167C16.0319 45.9976 15.7406 46.2938 15.3564 46.5054C14.9756 46.717 14.5589 46.8228 14.1064 46.8228C13.3805 46.8228 12.793 46.59 12.3438 46.1245C11.8978 45.659 11.6748 44.9884 11.6748 44.1128ZM12.5781 44.1128C12.5781 44.7769 12.723 45.2749 13.0127 45.6069C13.3024 45.9357 13.667 46.1001 14.1064 46.1001C14.5426 46.1001 14.9056 45.9341 15.1953 45.6021C15.485 45.27 15.6299 44.7638 15.6299 44.0835C15.6299 43.4422 15.4834 42.9572 15.1904 42.6284C14.9007 42.2964 14.5394 42.1304 14.1064 42.1304C13.667 42.1304 13.3024 42.2948 13.0127 42.6235C12.723 42.9523 12.5781 43.4487 12.5781 44.1128ZM19.4873 45.9194L19.6143 46.6958C19.3669 46.7479 19.1455 46.7739 18.9502 46.7739C18.6312 46.7739 18.3838 46.7235 18.208 46.6226C18.0322 46.5216 17.9085 46.3898 17.8369 46.2271C17.7653 46.061 17.7295 45.7144 17.7295 45.187V42.2036H17.085V41.52H17.7295V40.2358L18.6035 39.7085V41.52H19.4873V42.2036H18.6035V45.2358C18.6035 45.4865 18.6182 45.6476 18.6475 45.7192C18.68 45.7909 18.7305 45.8478 18.7988 45.8901C18.8704 45.9325 18.9714 45.9536 19.1016 45.9536C19.1992 45.9536 19.3278 45.9422 19.4873 45.9194ZM20.3564 40.5581V39.5474H21.2354V40.5581H20.3564ZM20.3564 46.7056V41.52H21.2354V46.7056H20.3564ZM22.7881 46.7056V42.2036H22.0117V41.52H22.7881V40.9683C22.7881 40.62 22.819 40.3612 22.8809 40.1919C22.9655 39.964 23.1136 39.7801 23.3252 39.6401C23.54 39.4969 23.8395 39.4253 24.2236 39.4253C24.471 39.4253 24.7445 39.4546 25.0439 39.5132L24.9121 40.2798C24.7298 40.2472 24.5573 40.231 24.3945 40.231C24.1276 40.231 23.9388 40.2879 23.8281 40.4019C23.7174 40.5158 23.6621 40.729 23.6621 41.0415V41.52H24.6729V42.2036H23.6621V46.7056H22.7881ZM25.3662 40.5581V39.5474H26.2451V40.5581H25.3662ZM25.3662 46.7056V41.52H26.2451V46.7056H25.3662ZM30.9717 44.8062L31.8359 44.9185C31.7415 45.5142 31.499 45.9813 31.1084 46.3198C30.721 46.6551 30.2441 46.8228 29.6777 46.8228C28.9681 46.8228 28.3968 46.5916 27.9639 46.1294C27.5342 45.6639 27.3193 44.9982 27.3193 44.1323C27.3193 43.5724 27.4121 43.0825 27.5977 42.6626C27.7832 42.2427 28.0648 41.9285 28.4424 41.7202C28.8232 41.5086 29.2367 41.4028 29.6826 41.4028C30.2458 41.4028 30.7064 41.5461 31.0645 41.8325C31.4225 42.1157 31.652 42.5194 31.7529 43.0435L30.8984 43.1753C30.8171 42.827 30.6722 42.5649 30.4639 42.3892C30.2588 42.2134 30.0098 42.1255 29.7168 42.1255C29.2741 42.1255 28.9144 42.285 28.6377 42.604C28.361 42.9198 28.2227 43.4211 28.2227 44.1079C28.2227 44.8045 28.3561 45.3107 28.623 45.6265C28.89 45.9422 29.2383 46.1001 29.668 46.1001C30.013 46.1001 30.3011 45.9943 30.5322 45.7827C30.7633 45.5711 30.9098 45.2456 30.9717 44.8062ZM35.9717 46.0659C35.6462 46.3426 35.332 46.5379 35.0293 46.6519C34.7298 46.7658 34.4076 46.8228 34.0625 46.8228C33.4928 46.8228 33.055 46.6844 32.749 46.4077C32.443 46.1278 32.29 45.7713 32.29 45.3384C32.29 45.0845 32.347 44.8534 32.4609 44.645C32.5781 44.4334 32.7295 44.2642 32.915 44.1372C33.1038 44.0103 33.3154 43.9142 33.5498 43.8491C33.7223 43.8035 33.9827 43.7596 34.3311 43.7173C35.0407 43.6326 35.5632 43.5317 35.8984 43.4146C35.9017 43.2941 35.9033 43.2176 35.9033 43.1851C35.9033 42.827 35.8203 42.5747 35.6543 42.4282C35.4297 42.2297 35.096 42.1304 34.6533 42.1304C34.2399 42.1304 33.9339 42.2036 33.7354 42.3501C33.54 42.4933 33.3952 42.7489 33.3008 43.1167L32.4414 42.9995C32.5195 42.6317 32.6481 42.3354 32.8271 42.1108C33.0062 41.883 33.265 41.7088 33.6035 41.5884C33.9421 41.4647 34.3343 41.4028 34.7803 41.4028C35.223 41.4028 35.5827 41.4549 35.8594 41.5591C36.1361 41.6632 36.3395 41.7951 36.4697 41.9546C36.5999 42.1108 36.6911 42.3094 36.7432 42.5503C36.7725 42.7 36.7871 42.9702 36.7871 43.3608V44.5327C36.7871 45.3498 36.805 45.8674 36.8408 46.0854C36.8799 46.3003 36.9548 46.507 37.0654 46.7056H36.1475C36.0563 46.5233 35.9977 46.3101 35.9717 46.0659ZM35.8984 44.103C35.5794 44.2332 35.1009 44.3439 34.4629 44.4351C34.1016 44.4871 33.846 44.5457 33.6963 44.6108C33.5465 44.6759 33.431 44.772 33.3496 44.8989C33.2682 45.0226 33.2275 45.161 33.2275 45.314C33.2275 45.5483 33.3154 45.7437 33.4912 45.8999C33.6702 46.0562 33.9307 46.1343 34.2725 46.1343C34.611 46.1343 34.9121 46.061 35.1758 45.9146C35.4395 45.7648 35.6331 45.5614 35.7568 45.3042C35.8512 45.1056 35.8984 44.8127 35.8984 44.4253V44.103ZM40.0732 45.9194L40.2002 46.6958C39.9528 46.7479 39.7314 46.7739 39.5361 46.7739C39.2171 46.7739 38.9697 46.7235 38.7939 46.6226C38.6182 46.5216 38.4945 46.3898 38.4229 46.2271C38.3512 46.061 38.3154 45.7144 38.3154 45.187V42.2036H37.6709V41.52H38.3154V40.2358L39.1895 39.7085V41.52H40.0732V42.2036H39.1895V45.2358C39.1895 45.4865 39.2041 45.6476 39.2334 45.7192C39.266 45.7909 39.3164 45.8478 39.3848 45.8901C39.4564 45.9325 39.5573 45.9536 39.6875 45.9536C39.7852 45.9536 39.9137 45.9422 40.0732 45.9194ZM40.9424 40.5581V39.5474H41.8213V40.5581H40.9424ZM40.9424 46.7056V41.52H41.8213V46.7056H40.9424ZM42.8369 44.1128C42.8369 43.1525 43.1038 42.4412 43.6377 41.979C44.0837 41.5949 44.6273 41.4028 45.2686 41.4028C45.9814 41.4028 46.5641 41.6372 47.0166 42.106C47.4691 42.5715 47.6953 43.216 47.6953 44.0396C47.6953 44.7069 47.5944 45.2326 47.3926 45.6167C47.194 45.9976 46.9027 46.2938 46.5186 46.5054C46.1377 46.717 45.721 46.8228 45.2686 46.8228C44.5426 46.8228 43.9551 46.59 43.5059 46.1245C43.0599 45.659 42.8369 44.9884 42.8369 44.1128ZM43.7402 44.1128C43.7402 44.7769 43.8851 45.2749 44.1748 45.6069C44.4645 45.9357 44.8291 46.1001 45.2686 46.1001C45.7048 46.1001 46.0677 45.9341 46.3574 45.6021C46.6471 45.27 46.792 44.7638 46.792 44.0835C46.792 43.4422 46.6455 42.9572 46.3525 42.6284C46.0628 42.2964 45.7015 42.1304 45.2686 42.1304C44.8291 42.1304 44.4645 42.2948 44.1748 42.6235C43.8851 42.9523 43.7402 43.4487 43.7402 44.1128ZM48.7305 46.7056V41.52H49.5215V42.2573C49.9023 41.6877 50.4525 41.4028 51.1719 41.4028C51.4844 41.4028 51.7708 41.4598 52.0312 41.5737C52.2949 41.6844 52.4919 41.8309 52.6221 42.0132C52.7523 42.1955 52.8434 42.4119 52.8955 42.6626C52.9281 42.8254 52.9443 43.1102 52.9443 43.5171V46.7056H52.0654V43.5513C52.0654 43.1932 52.0312 42.9263 51.9629 42.7505C51.8945 42.5715 51.7725 42.4299 51.5967 42.3257C51.4242 42.2183 51.2207 42.1646 50.9863 42.1646C50.612 42.1646 50.2881 42.2834 50.0146 42.521C49.7445 42.7586 49.6094 43.2095 49.6094 43.8735V46.7056H48.7305ZM56.8701 44.4058L57.7637 44.3276C57.806 44.6857 57.9036 44.9803 58.0566 45.2114C58.2129 45.4393 58.4538 45.6248 58.7793 45.7681C59.1048 45.908 59.471 45.978 59.8779 45.978C60.2393 45.978 60.5583 45.9243 60.835 45.8169C61.1117 45.7095 61.3167 45.563 61.4502 45.3774C61.5869 45.1886 61.6553 44.9836 61.6553 44.7622C61.6553 44.5376 61.5902 44.3423 61.46 44.1763C61.3298 44.007 61.1149 43.8654 60.8154 43.7515C60.6234 43.6766 60.1986 43.561 59.541 43.4048C58.8835 43.2453 58.4229 43.0955 58.1592 42.9556C57.8174 42.7765 57.5618 42.5552 57.3926 42.2915C57.2266 42.0246 57.1436 41.7267 57.1436 41.3979C57.1436 41.0366 57.2461 40.6997 57.4512 40.3872C57.6562 40.0715 57.9557 39.8322 58.3496 39.6694C58.7435 39.5067 59.1813 39.4253 59.6631 39.4253C60.1937 39.4253 60.6608 39.5116 61.0645 39.6841C61.4714 39.8534 61.7839 40.104 62.002 40.436C62.2201 40.7681 62.3372 41.144 62.3535 41.564L61.4453 41.6323C61.3965 41.1799 61.2305 40.8381 60.9473 40.6069C60.6673 40.3758 60.2523 40.2603 59.7021 40.2603C59.1292 40.2603 58.7109 40.366 58.4473 40.5776C58.1868 40.786 58.0566 41.0382 58.0566 41.3345C58.0566 41.5916 58.1494 41.8032 58.335 41.9692C58.5173 42.1353 58.9925 42.3062 59.7607 42.4819C60.5322 42.6545 61.0612 42.8058 61.3477 42.936C61.7643 43.1281 62.0719 43.3722 62.2705 43.6685C62.4691 43.9614 62.5684 44.3 62.5684 44.6841C62.5684 45.0649 62.4593 45.4246 62.2412 45.7632C62.0231 46.0985 61.709 46.3605 61.2988 46.5493C60.8919 46.7349 60.4329 46.8276 59.9219 46.8276C59.2741 46.8276 58.7305 46.7332 58.291 46.5444C57.8548 46.3556 57.5114 46.0724 57.2607 45.6948C57.0133 45.314 56.8831 44.8843 56.8701 44.4058ZM67.2998 45.0356L68.208 45.1479C68.0648 45.6785 67.7995 46.0903 67.4121 46.3833C67.0247 46.6763 66.5299 46.8228 65.9277 46.8228C65.1693 46.8228 64.5671 46.59 64.1211 46.1245C63.6784 45.6558 63.457 44.9998 63.457 44.1567C63.457 43.2843 63.6816 42.6073 64.1309 42.1255C64.5801 41.6437 65.1628 41.4028 65.8789 41.4028C66.5723 41.4028 67.1387 41.6388 67.5781 42.1108C68.0176 42.5828 68.2373 43.2469 68.2373 44.103C68.2373 44.1551 68.2357 44.2332 68.2324 44.3374H64.3652C64.3978 44.9071 64.5589 45.3433 64.8486 45.646C65.1383 45.9487 65.4997 46.1001 65.9326 46.1001C66.2549 46.1001 66.5299 46.0155 66.7578 45.8462C66.9857 45.6769 67.1663 45.4067 67.2998 45.0356ZM64.4141 43.6147H67.3096C67.2705 43.1785 67.1598 42.8514 66.9775 42.6333C66.6976 42.2948 66.3346 42.1255 65.8887 42.1255C65.485 42.1255 65.1449 42.2606 64.8682 42.5308C64.5947 42.8009 64.4434 43.1623 64.4141 43.6147ZM69.3066 46.7056V41.52H70.0977V42.3062C70.2995 41.9383 70.485 41.6958 70.6543 41.5786C70.8268 41.4614 71.0156 41.4028 71.2207 41.4028C71.5169 41.4028 71.818 41.4972 72.124 41.686L71.8213 42.5015C71.6064 42.3745 71.3916 42.311 71.1768 42.311C70.9847 42.311 70.8122 42.3696 70.6592 42.4868C70.5062 42.6007 70.3971 42.7603 70.332 42.9653C70.2344 43.2778 70.1855 43.6196 70.1855 43.9907V46.7056H69.3066ZM74.0869 46.7056L72.1143 41.52H73.042L74.1553 44.6255C74.2757 44.9608 74.3864 45.3091 74.4873 45.6704C74.5654 45.397 74.6745 45.0682 74.8145 44.6841L75.9668 41.52H76.8701L74.9072 46.7056H74.0869ZM81.1963 45.0356L82.1045 45.1479C81.9613 45.6785 81.696 46.0903 81.3086 46.3833C80.9212 46.6763 80.4264 46.8228 79.8242 46.8228C79.0658 46.8228 78.4635 46.59 78.0176 46.1245C77.5749 45.6558 77.3535 44.9998 77.3535 44.1567C77.3535 43.2843 77.5781 42.6073 78.0273 42.1255C78.4766 41.6437 79.0592 41.4028 79.7754 41.4028C80.4688 41.4028 81.0352 41.6388 81.4746 42.1108C81.9141 42.5828 82.1338 43.2469 82.1338 44.103C82.1338 44.1551 82.1322 44.2332 82.1289 44.3374H78.2617C78.2943 44.9071 78.4554 45.3433 78.7451 45.646C79.0348 45.9487 79.3962 46.1001 79.8291 46.1001C80.1514 46.1001 80.4264 46.0155 80.6543 45.8462C80.8822 45.6769 81.0628 45.4067 81.1963 45.0356ZM78.3105 43.6147H81.2061C81.167 43.1785 81.0563 42.8514 80.874 42.6333C80.5941 42.2948 80.2311 42.1255 79.7852 42.1255C79.3815 42.1255 79.0413 42.2606 78.7646 42.5308C78.4912 42.8009 78.3398 43.1623 78.3105 43.6147ZM83.2031 46.7056V41.52H83.9941V42.3062C84.196 41.9383 84.3815 41.6958 84.5508 41.5786C84.7233 41.4614 84.9121 41.4028 85.1172 41.4028C85.4134 41.4028 85.7145 41.4972 86.0205 41.686L85.7178 42.5015C85.5029 42.3745 85.2881 42.311 85.0732 42.311C84.8812 42.311 84.7087 42.3696 84.5557 42.4868C84.4027 42.6007 84.2936 42.7603 84.2285 42.9653C84.1309 43.2778 84.082 43.6196 84.082 43.9907V46.7056H83.2031Z" fill="#2A303D"/>
</svg>
