<svg width="40" height="40" viewBox="0 0 40 40" fill="none" xmlns="http://www.w3.org/2000/svg">
<path d="M37.6573 6.7544C37.6573 6.3637 37.5021 5.98899 37.2258 5.71272C36.9496 5.43645 36.5749 5.28125 36.1842 5.28125H3.81496C3.42426 5.28125 3.04954 5.43645 2.77327 5.71272C2.497 5.98899 2.3418 6.3637 2.3418 6.7544V24.9104H37.6573V6.7544Z" fill="#F0F4FD"/>
<path d="M37.6573 6.7544C37.6573 6.3637 37.5021 5.98899 37.2258 5.71272C36.9496 5.43645 36.5749 5.28125 36.1842 5.28125H3.81496C3.42426 5.28125 3.04954 5.43645 2.77327 5.71272C2.497 5.98899 2.3418 6.3637 2.3418 6.7544V24.9104H37.6573V6.7544Z" fill="#D5E0F8"/>
<path d="M38.0562 25.3102H1.94336V7.06243C1.94356 6.48416 2.17341 5.92964 2.58238 5.52081C2.99135 5.11198 3.54593 4.88232 4.1242 4.88232H35.876C36.4542 4.88232 37.0088 5.11201 37.4176 5.52086C37.8265 5.92971 38.0562 6.48423 38.0562 7.06243V25.3102ZM2.74508 24.5114H37.2618V7.06243C37.2619 6.8808 37.2263 6.70095 37.1568 6.53313C37.0873 6.36532 36.9855 6.21283 36.8571 6.0844C36.7286 5.95597 36.5761 5.85412 36.4083 5.78466C36.2405 5.7152 36.0606 5.6795 35.879 5.6796H4.1242C3.94257 5.6795 3.76272 5.7152 3.5949 5.78466C3.42709 5.85412 3.2746 5.95597 3.14617 6.0844C3.01774 6.21283 2.91589 6.36532 2.84643 6.53313C2.77697 6.70095 2.74128 6.8808 2.74138 7.06243L2.74508 24.5114Z" fill="#6B94E7"/>
<path d="M5.31154 30.6873H34.6871C35.0771 30.6874 35.4633 30.6106 35.8236 30.4614C36.1839 30.3123 36.5113 30.0936 36.7871 29.8179C37.0629 29.5421 37.2817 29.2148 37.431 28.8545C37.5803 28.4942 37.6571 28.108 37.6571 27.718V24.9102H2.34229V27.718C2.34229 28.5055 2.65512 29.2608 3.21196 29.8176C3.7688 30.3744 4.52405 30.6873 5.31154 30.6873Z" fill="white"/>
<path d="M34.6872 31.0878H5.31234C4.41913 31.0869 3.56279 30.7316 2.93119 30.1C2.29959 29.4684 1.94434 28.6121 1.94336 27.7188V24.5112H38.0562V27.7188C38.0552 28.6121 37.6999 29.4684 37.0683 30.1C36.4367 30.7316 35.5804 31.0869 34.6872 31.0878ZM2.74138 25.3137V27.7225C2.74216 28.404 3.01318 29.0574 3.495 29.5394C3.97682 30.0213 4.6301 30.2925 5.3116 30.2935H34.6872C35.3688 30.2927 36.0223 30.0216 36.5043 29.5396C36.9862 29.0577 37.2574 28.4042 37.2581 27.7225V25.3137H2.74138Z" fill="#6B94E7"/>
<path d="M18.4872 35.0965L18.2222 34.3436C18.7944 34.1415 18.958 33.2473 18.9802 33.1044V30.4683H19.7775V33.1799C19.7679 33.2421 19.5791 34.7108 18.4872 35.0965Z" fill="#6B94E7"/>
<path d="M21.5083 35.0972C20.4164 34.7115 20.2283 33.2421 20.2217 33.1806V33.1332V30.4683H21.0197V33.1059C21.0626 33.4094 21.2729 34.1659 21.7778 34.3436L21.5083 35.0972Z" fill="#6B94E7"/>
<path d="M25.8195 34.3198H14.1802V35.1178H25.8195V34.3198Z" fill="#6B94E7"/>
</svg>
