<svg width="170" height="140" viewBox="0 0 170 140" fill="none" xmlns="http://www.w3.org/2000/svg">
<rect x="0.5" y="0.5" width="169" height="139" rx="9.5" fill="white"/>
<rect x="0.5" y="0.5" width="169" height="139" rx="9.5" stroke="#B4BBCC" stroke-dasharray="4 4"/>
<mask id="path-2-inside-1_2731_20753" fill="white">
<path d="M97.4201 87.9543H73.1325C72.9955 87.9543 72.8926 87.9543 72.8149 87.9454C72.7553 87.9446 72.6979 87.9235 72.652 87.8854C72.6141 87.8396 72.5929 87.7821 72.5921 87.7226C72.5832 87.6486 72.5832 87.5427 72.5832 87.405L72.5698 46.5226C72.5635 46.1559 72.616 45.7905 72.7253 45.4403C72.8169 45.1497 72.9757 44.8847 73.1887 44.6667C73.406 44.4535 73.6706 44.2945 73.9608 44.2026C74.3106 44.0929 74.6758 44.0401 75.0424 44.0464H95.0135C95.2992 44.0438 95.584 44.0776 95.8611 44.1471C96.1024 44.2082 96.3322 44.3082 96.5414 44.4432C96.7359 44.5694 96.9053 44.7306 97.0411 44.9184C97.18 45.1131 97.2838 45.3305 97.3476 45.561C97.3703 45.6193 97.3879 45.6795 97.4001 45.7409C97.4127 45.8045 97.4216 45.8687 97.4268 45.9334C97.4327 45.9992 97.4349 46.0666 97.4364 46.1347C97.4379 46.2028 97.4364 46.2717 97.4364 46.3398L97.4179 87.9543"/>
</mask>
<path d="M97.4201 87.9543H73.1325C72.9955 87.9543 72.8926 87.9543 72.8149 87.9454C72.7553 87.9446 72.6979 87.9235 72.652 87.8854C72.6141 87.8396 72.5929 87.7821 72.5921 87.7226C72.5832 87.6486 72.5832 87.5427 72.5832 87.405L72.5698 46.5226C72.5635 46.1559 72.616 45.7905 72.7253 45.4403C72.8169 45.1497 72.9757 44.8847 73.1887 44.6667C73.406 44.4535 73.6706 44.2945 73.9608 44.2026C74.3106 44.0929 74.6758 44.0401 75.0424 44.0464H95.0135C95.2992 44.0438 95.584 44.0776 95.8611 44.1471C96.1024 44.2082 96.3322 44.3082 96.5414 44.4432C96.7359 44.5694 96.9053 44.7306 97.0411 44.9184C97.18 45.1131 97.2838 45.3305 97.3476 45.561C97.3703 45.6193 97.3879 45.6795 97.4001 45.7409C97.4127 45.8045 97.4216 45.8687 97.4268 45.9334C97.4327 45.9992 97.4349 46.0666 97.4364 46.1347C97.4379 46.2028 97.4364 46.2717 97.4364 46.3398L97.4179 87.9543" fill="#FF8B4D"/>
<path d="M72.8149 87.9454L72.9284 86.9519L72.8785 86.9462L72.8282 86.9455L72.8149 87.9454ZM72.652 87.8854L71.8816 88.523L71.9414 88.5953L72.0137 88.6552L72.652 87.8854ZM72.5921 87.7226L73.592 87.7083L73.5912 87.6557L73.5849 87.6034L72.5921 87.7226ZM72.5832 87.405H73.5832L73.5832 87.4047L72.5832 87.405ZM72.5698 46.5226L73.5698 46.5223L73.5698 46.5138L73.5697 46.5053L72.5698 46.5226ZM72.7253 45.4403L71.7716 45.1397L71.7707 45.1423L72.7253 45.4403ZM73.1887 44.6667L72.4883 43.953L72.4809 43.9603L72.4736 43.9677L73.1887 44.6667ZM73.9608 44.2026L73.6615 43.2484L73.659 43.2492L73.9608 44.2026ZM75.0424 44.0464L75.0252 45.0463L75.0338 45.0464H75.0424V44.0464ZM95.0135 44.0464V45.0464L95.0227 45.0464L95.0135 44.0464ZM95.8611 44.1471L96.1067 43.1777L96.1043 43.1771L95.8611 44.1471ZM96.5414 44.4432L97.086 43.6045L97.0835 43.6029L96.5414 44.4432ZM97.0411 44.9184L97.855 44.3374L97.8515 44.3325L97.0411 44.9184ZM97.3476 45.561L96.3838 45.8278L96.3975 45.877L96.416 45.9246L97.3476 45.561ZM97.4001 45.7409L98.381 45.5464L98.3809 45.5458L97.4001 45.7409ZM97.4268 45.9334L96.4299 46.0127L96.4308 46.0229L97.4268 45.9334ZM97.4364 46.3398L98.4364 46.3402V46.3398H97.4364ZM97.4201 87.9543V86.9543H73.1325V87.9543V88.9543H97.4201V87.9543ZM73.1325 87.9543V86.9543C73.0608 86.9543 73.0124 86.9542 72.9726 86.9534C72.9319 86.9525 72.9222 86.9512 72.9284 86.9519L72.8149 87.9454L72.7013 88.9389C72.8493 88.9559 73.0203 88.9543 73.1325 88.9543V87.9543ZM72.8149 87.9454L72.8282 86.9455C72.9971 86.9477 73.1602 87.0078 73.2903 87.1157L72.652 87.8854L72.0137 88.6552C72.2355 88.8391 72.5136 88.9415 72.8016 88.9453L72.8149 87.9454ZM72.652 87.8854L73.4225 87.2479C73.5298 87.3776 73.5896 87.54 73.592 87.7083L72.5921 87.7226L71.5922 87.7369C71.5963 88.0242 71.6984 88.3016 71.8816 88.523L72.652 87.8854ZM72.5921 87.7226L73.5849 87.6034C73.5864 87.6156 73.585 87.6094 73.5841 87.5667C73.5832 87.5264 73.5832 87.477 73.5832 87.405H72.5832H71.5832C71.5832 87.514 71.5814 87.6934 71.5992 87.8417L72.5921 87.7226ZM72.5832 87.405L73.5832 87.4047L73.5698 46.5223L72.5698 46.5226L71.5698 46.5229L71.5832 87.4053L72.5832 87.405ZM72.5698 46.5226L73.5697 46.5053C73.5652 46.2454 73.6024 45.9865 73.6799 45.7383L72.7253 45.4403L71.7707 45.1423C71.6296 45.5945 71.5618 46.0663 71.57 46.5399L72.5698 46.5226ZM72.7253 45.4403L73.679 45.741C73.7235 45.6 73.8005 45.4715 73.9038 45.3658L73.1887 44.6667L72.4736 43.9677C72.1509 44.2979 71.9104 44.6993 71.7716 45.1397L72.7253 45.4403ZM73.1887 44.6667L73.8891 45.3805C73.9942 45.2774 74.1222 45.2004 74.2627 45.156L73.9608 44.2026L73.659 43.2492C73.2189 43.3886 72.8178 43.6297 72.4883 43.953L73.1887 44.6667ZM73.9608 44.2026L74.2601 45.1567C74.5076 45.0791 74.7659 45.0418 75.0252 45.0463L75.0424 44.0464L75.0595 43.0465C74.5857 43.0384 74.1137 43.1066 73.6615 43.2484L73.9608 44.2026ZM75.0424 44.0464V45.0464H95.0135V44.0464V43.0464H75.0424V44.0464ZM95.0135 44.0464L95.0227 45.0464C95.2233 45.0445 95.4233 45.0683 95.6179 45.117L95.8611 44.1471L96.1043 43.1771C95.7447 43.0869 95.375 43.043 95.0042 43.0464L95.0135 44.0464ZM95.8611 44.1471L95.6155 45.1164C95.7517 45.1509 95.8813 45.2074 95.9994 45.2835L96.5414 44.4432L97.0835 43.6029C96.7831 43.4091 96.4532 43.2655 96.1067 43.1777L95.8611 44.1471ZM96.5414 44.4432L95.9968 45.2819C96.0878 45.341 96.1671 45.4164 96.2307 45.5044L97.0411 44.9184L97.8515 44.3325C97.6434 44.0447 97.3839 43.7979 97.086 43.6045L96.5414 44.4432ZM97.0411 44.9184L96.2272 45.4995C96.2982 45.5989 96.3512 45.7101 96.3838 45.8278L97.3476 45.561L98.3113 45.2942C98.2163 44.951 98.0619 44.6272 97.855 44.3374L97.0411 44.9184ZM97.3476 45.561L96.416 45.9246C96.4175 45.9283 96.4186 45.9321 96.4194 45.936L97.4001 45.7409L98.3809 45.5458C98.3573 45.4269 98.3232 45.3103 98.2791 45.1974L97.3476 45.561ZM97.4001 45.7409L96.4192 45.9354C96.4243 45.9609 96.4279 45.9867 96.4299 46.0127L97.4268 45.9334L98.4236 45.854C98.4154 45.7507 98.4012 45.648 98.381 45.5464L97.4001 45.7409ZM97.4268 45.9334L96.4308 46.0229C96.4335 46.0534 96.4353 46.0928 96.4366 46.1564L97.4364 46.1347L98.4362 46.113C98.4346 46.0404 98.4319 45.9451 98.4228 45.8438L97.4268 45.9334ZM97.4364 46.1347L96.4366 46.1564C96.4379 46.2119 96.4364 46.241 96.4364 46.3398H97.4364H98.4364C98.4364 46.3024 98.4379 46.1938 98.4362 46.113L97.4364 46.1347ZM97.4364 46.3398L96.4364 46.3393L96.4179 87.9538L97.4179 87.9543L98.4179 87.9547L98.4364 46.3402L97.4364 46.3398Z" fill="#FFCEB3" mask="url(#path-2-inside-1_2731_20753)"/>
<path d="M75.5566 50.2109H94.5077V52.8759H75.5566V50.2109Z" fill="white"/>
<path d="M75.5625 71.6675H94.5046V74.3325H75.5625V71.6675Z" fill="white"/>
<path d="M75.5654 77.231H94.5046V79.8959H75.5654V77.231Z" fill="white"/>
<path d="M59.56 102.015C59.83 102.015 60.0667 101.98 60.27 101.91C60.4767 101.84 60.6483 101.742 60.785 101.615C60.925 101.485 61.03 101.332 61.1 101.155C61.17 100.975 61.205 100.777 61.205 100.56C61.205 100.123 61.0683 99.78 60.795 99.53C60.525 99.28 60.1133 99.155 59.56 99.155H58.45V102.015H59.56ZM59.56 98.32C60.02 98.32 60.42 98.3733 60.76 98.48C61.1 98.5867 61.3817 98.7383 61.605 98.935C61.8283 99.1283 61.9933 99.3633 62.1 99.64C62.21 99.9167 62.265 100.223 62.265 100.56C62.265 100.897 62.2067 101.207 62.09 101.49C61.9733 101.77 61.8017 102.012 61.575 102.215C61.3483 102.418 61.065 102.577 60.725 102.69C60.3883 102.8 60 102.855 59.56 102.855H58.45V105.5H57.385V98.32H59.56ZM64.0718 101.395C64.2351 101.062 64.4318 100.8 64.6618 100.61C64.8918 100.42 65.1685 100.325 65.4918 100.325C65.6018 100.325 65.7051 100.338 65.8018 100.365C65.9018 100.388 65.9885 100.425 66.0618 100.475L65.9968 101.21C65.9735 101.3 65.9185 101.345 65.8318 101.345C65.7851 101.345 65.7151 101.337 65.6218 101.32C65.5285 101.3 65.4285 101.29 65.3218 101.29C65.1651 101.29 65.0268 101.313 64.9068 101.36C64.7868 101.403 64.6785 101.47 64.5818 101.56C64.4885 101.647 64.4051 101.755 64.3318 101.885C64.2585 102.012 64.1901 102.157 64.1268 102.32V105.5H63.1518V100.42H63.7118C63.8185 100.42 63.8901 100.44 63.9268 100.48C63.9668 100.517 63.9951 100.583 64.0118 100.68L64.0718 101.395ZM68.7934 100.34C69.1667 100.34 69.5034 100.402 69.8034 100.525C70.1067 100.645 70.3634 100.82 70.5734 101.05C70.7867 101.277 70.95 101.552 71.0634 101.875C71.1767 102.195 71.2334 102.555 71.2334 102.955C71.2334 103.355 71.1767 103.717 71.0634 104.04C70.95 104.363 70.7867 104.638 70.5734 104.865C70.3634 105.092 70.1067 105.267 69.8034 105.39C69.5034 105.51 69.1667 105.57 68.7934 105.57C68.4167 105.57 68.0767 105.51 67.7734 105.39C67.4734 105.267 67.2167 105.092 67.0034 104.865C66.79 104.638 66.625 104.363 66.5084 104.04C66.395 103.717 66.3384 103.355 66.3384 102.955C66.3384 102.555 66.395 102.195 66.5084 101.875C66.625 101.552 66.79 101.277 67.0034 101.05C67.2167 100.82 67.4734 100.645 67.7734 100.525C68.0767 100.402 68.4167 100.34 68.7934 100.34ZM68.7934 104.81C69.2734 104.81 69.6317 104.648 69.8684 104.325C70.105 104.002 70.2234 103.547 70.2234 102.96C70.2234 102.373 70.105 101.918 69.8684 101.595C69.6317 101.268 69.2734 101.105 68.7934 101.105C68.3067 101.105 67.9434 101.268 67.7034 101.595C67.4667 101.918 67.3484 102.373 67.3484 102.96C67.3484 103.547 67.4667 104.002 67.7034 104.325C67.9434 104.648 68.3067 104.81 68.7934 104.81ZM73.2967 104.25C73.4567 104.46 73.6301 104.607 73.8167 104.69C74.0034 104.773 74.2067 104.815 74.4267 104.815C74.8801 104.815 75.2284 104.653 75.4717 104.33C75.7184 104.007 75.8417 103.518 75.8417 102.865C75.8417 102.262 75.7334 101.82 75.5167 101.54C75.3001 101.257 74.9934 101.115 74.5967 101.115C74.3167 101.115 74.0734 101.178 73.8667 101.305C73.6634 101.432 73.4734 101.612 73.2967 101.845V104.25ZM73.2967 101.12C73.5067 100.887 73.7451 100.698 74.0117 100.555C74.2784 100.412 74.5817 100.34 74.9217 100.34C75.2184 100.34 75.4851 100.398 75.7217 100.515C75.9617 100.628 76.1651 100.793 76.3317 101.01C76.4984 101.223 76.6267 101.483 76.7167 101.79C76.8067 102.097 76.8517 102.443 76.8517 102.83C76.8517 103.24 76.8001 103.613 76.6967 103.95C76.5967 104.287 76.4517 104.575 76.2617 104.815C76.0751 105.055 75.8467 105.242 75.5767 105.375C75.3067 105.505 75.0034 105.57 74.6667 105.57C74.5034 105.57 74.3534 105.553 74.2167 105.52C74.0801 105.49 73.9534 105.445 73.8367 105.385C73.7234 105.325 73.6184 105.252 73.5217 105.165C73.4251 105.078 73.3334 104.98 73.2467 104.87L73.2017 105.295C73.1751 105.432 73.0917 105.5 72.9517 105.5H72.3217V98.12H73.2967V101.12ZM81.302 102.395C81.302 102.202 81.2736 102.023 81.217 101.86C81.1636 101.697 81.0836 101.555 80.977 101.435C80.8703 101.315 80.7403 101.222 80.587 101.155C80.4336 101.088 80.257 101.055 80.057 101.055C79.647 101.055 79.3236 101.173 79.087 101.41C78.8536 101.647 78.7053 101.975 78.642 102.395H81.302ZM82.107 104.775C81.987 104.915 81.8486 105.037 81.692 105.14C81.5353 105.24 81.3686 105.322 81.192 105.385C81.0153 105.448 80.832 105.495 80.642 105.525C80.4553 105.555 80.2703 105.57 80.087 105.57C79.737 105.57 79.412 105.512 79.112 105.395C78.8153 105.275 78.557 105.102 78.337 104.875C78.1203 104.645 77.9503 104.362 77.827 104.025C77.707 103.685 77.647 103.295 77.647 102.855C77.647 102.502 77.702 102.173 77.812 101.87C77.922 101.563 78.0786 101.297 78.282 101.07C78.4886 100.843 78.7403 100.665 79.037 100.535C79.3336 100.405 79.667 100.34 80.037 100.34C80.347 100.34 80.632 100.392 80.892 100.495C81.1553 100.595 81.382 100.742 81.572 100.935C81.762 101.128 81.9103 101.367 82.017 101.65C82.127 101.933 82.182 102.257 82.182 102.62C82.182 102.77 82.1653 102.872 82.132 102.925C82.0986 102.975 82.037 103 81.947 103H78.617C78.627 103.303 78.6703 103.568 78.747 103.795C78.8236 104.018 78.9286 104.205 79.062 104.355C79.1986 104.505 79.3603 104.617 79.547 104.69C79.7336 104.763 79.942 104.8 80.172 104.8C80.3886 104.8 80.5753 104.775 80.732 104.725C80.892 104.675 81.0286 104.622 81.142 104.565C81.2586 104.505 81.3553 104.45 81.432 104.4C81.512 104.35 81.582 104.325 81.642 104.325C81.722 104.325 81.7836 104.355 81.827 104.415L82.107 104.775ZM89.6742 99.49C89.6409 99.5467 89.6059 99.5883 89.5692 99.615C89.5326 99.6417 89.4859 99.655 89.4292 99.655C89.3692 99.655 89.3009 99.6283 89.2242 99.575C89.1476 99.5183 89.0509 99.4567 88.9342 99.39C88.8209 99.32 88.6842 99.2583 88.5242 99.205C88.3642 99.1483 88.1726 99.12 87.9492 99.12C87.7392 99.12 87.5542 99.1483 87.3942 99.205C87.2376 99.2583 87.1059 99.3333 86.9992 99.43C86.8926 99.5233 86.8109 99.635 86.7542 99.765C86.7009 99.8917 86.6742 100.03 86.6742 100.18C86.6742 100.373 86.7226 100.533 86.8192 100.66C86.9192 100.787 87.0492 100.895 87.2092 100.985C87.3692 101.075 87.5509 101.153 87.7542 101.22C87.9576 101.287 88.1659 101.357 88.3792 101.43C88.5926 101.5 88.8009 101.582 89.0042 101.675C89.2076 101.768 89.3892 101.887 89.5492 102.03C89.7092 102.17 89.8376 102.343 89.9342 102.55C90.0342 102.753 90.0842 103.003 90.0842 103.3C90.0842 103.617 90.0292 103.913 89.9192 104.19C89.8126 104.467 89.6559 104.708 89.4492 104.915C89.2426 105.122 88.9876 105.285 88.6842 105.405C88.3842 105.522 88.0426 105.58 87.6592 105.58C87.4292 105.58 87.2059 105.557 86.9892 105.51C86.7726 105.467 86.5676 105.405 86.3742 105.325C86.1809 105.242 85.9992 105.143 85.8292 105.03C85.6626 104.913 85.5126 104.783 85.3792 104.64L85.6842 104.13C85.7142 104.09 85.7492 104.057 85.7892 104.03C85.8326 104.003 85.8809 103.99 85.9342 103.99C86.0042 103.99 86.0842 104.027 86.1742 104.1C86.2676 104.173 86.3809 104.255 86.5142 104.345C86.6509 104.432 86.8126 104.512 86.9992 104.585C87.1892 104.658 87.4192 104.695 87.6892 104.695C87.9092 104.695 88.1059 104.667 88.2792 104.61C88.4526 104.55 88.5976 104.467 88.7142 104.36C88.8342 104.25 88.9259 104.118 88.9892 103.965C89.0526 103.812 89.0842 103.642 89.0842 103.455C89.0842 103.245 89.0359 103.073 88.9392 102.94C88.8426 102.807 88.7142 102.695 88.5542 102.605C88.3942 102.515 88.2126 102.438 88.0092 102.375C87.8059 102.312 87.5976 102.247 87.3842 102.18C87.1709 102.11 86.9626 102.03 86.7592 101.94C86.5559 101.85 86.3742 101.733 86.2142 101.59C86.0542 101.443 85.9259 101.262 85.8292 101.045C85.7326 100.825 85.6842 100.555 85.6842 100.235C85.6842 99.9783 85.7342 99.73 85.8342 99.49C85.9342 99.25 86.0792 99.0383 86.2692 98.855C86.4626 98.6683 86.6992 98.52 86.9792 98.41C87.2592 98.2967 87.5792 98.24 87.9392 98.24C88.3426 98.24 88.7126 98.305 89.0492 98.435C89.3892 98.5617 89.6842 98.745 89.9342 98.985L89.6742 99.49ZM94.5344 102.395C94.5344 102.202 94.506 102.023 94.4494 101.86C94.396 101.697 94.316 101.555 94.2094 101.435C94.1027 101.315 93.9727 101.222 93.8194 101.155C93.666 101.088 93.4894 101.055 93.2894 101.055C92.8794 101.055 92.556 101.173 92.3194 101.41C92.086 101.647 91.9377 101.975 91.8744 102.395H94.5344ZM95.3394 104.775C95.2194 104.915 95.081 105.037 94.9244 105.14C94.7677 105.24 94.601 105.322 94.4244 105.385C94.2477 105.448 94.0644 105.495 93.8744 105.525C93.6877 105.555 93.5027 105.57 93.3194 105.57C92.9694 105.57 92.6444 105.512 92.3444 105.395C92.0477 105.275 91.7894 105.102 91.5694 104.875C91.3527 104.645 91.1827 104.362 91.0594 104.025C90.9394 103.685 90.8794 103.295 90.8794 102.855C90.8794 102.502 90.9344 102.173 91.0444 101.87C91.1544 101.563 91.311 101.297 91.5144 101.07C91.721 100.843 91.9727 100.665 92.2694 100.535C92.566 100.405 92.8994 100.34 93.2694 100.34C93.5794 100.34 93.8644 100.392 94.1244 100.495C94.3877 100.595 94.6144 100.742 94.8044 100.935C94.9944 101.128 95.1427 101.367 95.2494 101.65C95.3594 101.933 95.4144 102.257 95.4144 102.62C95.4144 102.77 95.3977 102.872 95.3644 102.925C95.331 102.975 95.2694 103 95.1794 103H91.8494C91.8594 103.303 91.9027 103.568 91.9794 103.795C92.056 104.018 92.161 104.205 92.2944 104.355C92.431 104.505 92.5927 104.617 92.7794 104.69C92.966 104.763 93.1744 104.8 93.4044 104.8C93.621 104.8 93.8077 104.775 93.9644 104.725C94.1244 104.675 94.261 104.622 94.3744 104.565C94.491 104.505 94.5877 104.45 94.6644 104.4C94.7444 104.35 94.8144 104.325 94.8744 104.325C94.9544 104.325 95.016 104.355 95.0594 104.415L95.3394 104.775ZM97.3823 101.395C97.5457 101.062 97.7423 100.8 97.9723 100.61C98.2023 100.42 98.479 100.325 98.8023 100.325C98.9123 100.325 99.0157 100.338 99.1123 100.365C99.2123 100.388 99.299 100.425 99.3723 100.475L99.3073 101.21C99.284 101.3 99.229 101.345 99.1423 101.345C99.0957 101.345 99.0257 101.337 98.9323 101.32C98.839 101.3 98.739 101.29 98.6323 101.29C98.4757 101.29 98.3373 101.313 98.2173 101.36C98.0973 101.403 97.989 101.47 97.8923 101.56C97.799 101.647 97.7157 101.755 97.6423 101.885C97.569 102.012 97.5007 102.157 97.4373 102.32V105.5H96.4623V100.42H97.0223C97.129 100.42 97.2007 100.44 97.2373 100.48C97.2773 100.517 97.3057 100.583 97.3223 100.68L97.3823 101.395ZM104.534 100.42L102.474 105.5H101.594L99.5345 100.42H100.339C100.416 100.42 100.479 100.438 100.529 100.475C100.579 100.512 100.613 100.558 100.629 100.615L101.844 103.735C101.888 103.865 101.924 103.995 101.954 104.125C101.988 104.252 102.018 104.378 102.044 104.505C102.071 104.378 102.101 104.252 102.134 104.125C102.168 103.998 102.208 103.868 102.254 103.735L103.484 100.615C103.504 100.558 103.539 100.512 103.589 100.475C103.639 100.438 103.699 100.42 103.769 100.42H104.534ZM108.529 102.395C108.529 102.202 108.5 102.023 108.444 101.86C108.39 101.697 108.31 101.555 108.204 101.435C108.097 101.315 107.967 101.222 107.814 101.155C107.66 101.088 107.484 101.055 107.284 101.055C106.874 101.055 106.55 101.173 106.314 101.41C106.08 101.647 105.932 101.975 105.869 102.395H108.529ZM109.334 104.775C109.214 104.915 109.075 105.037 108.919 105.14C108.762 105.24 108.595 105.322 108.419 105.385C108.242 105.448 108.059 105.495 107.869 105.525C107.682 105.555 107.497 105.57 107.314 105.57C106.964 105.57 106.639 105.512 106.339 105.395C106.042 105.275 105.784 105.102 105.564 104.875C105.347 104.645 105.177 104.362 105.054 104.025C104.934 103.685 104.874 103.295 104.874 102.855C104.874 102.502 104.929 102.173 105.039 101.87C105.149 101.563 105.305 101.297 105.509 101.07C105.715 100.843 105.967 100.665 106.264 100.535C106.56 100.405 106.894 100.34 107.264 100.34C107.574 100.34 107.859 100.392 108.119 100.495C108.382 100.595 108.609 100.742 108.799 100.935C108.989 101.128 109.137 101.367 109.244 101.65C109.354 101.933 109.409 102.257 109.409 102.62C109.409 102.77 109.392 102.872 109.359 102.925C109.325 102.975 109.264 103 109.174 103H105.844C105.854 103.303 105.897 103.568 105.974 103.795C106.05 104.018 106.155 104.205 106.289 104.355C106.425 104.505 106.587 104.617 106.774 104.69C106.96 104.763 107.169 104.8 107.399 104.8C107.615 104.8 107.802 104.775 107.959 104.725C108.119 104.675 108.255 104.622 108.369 104.565C108.485 104.505 108.582 104.45 108.659 104.4C108.739 104.35 108.809 104.325 108.869 104.325C108.949 104.325 109.01 104.355 109.054 104.415L109.334 104.775ZM111.376 101.395C111.54 101.062 111.736 100.8 111.966 100.61C112.196 100.42 112.473 100.325 112.796 100.325C112.906 100.325 113.01 100.338 113.106 100.365C113.206 100.388 113.293 100.425 113.366 100.475L113.301 101.21C113.278 101.3 113.223 101.345 113.136 101.345C113.09 101.345 113.02 101.337 112.926 101.32C112.833 101.3 112.733 101.29 112.626 101.29C112.47 101.29 112.331 101.313 112.211 101.36C112.091 101.403 111.983 101.47 111.886 101.56C111.793 101.647 111.71 101.755 111.636 101.885C111.563 102.012 111.495 102.157 111.431 102.32V105.5H110.456V100.42H111.016C111.123 100.42 111.195 100.44 111.231 100.48C111.271 100.517 111.3 100.583 111.316 100.68L111.376 101.395Z" fill="#2A303D"/>
</svg>
