<svg width="77" height="46" viewBox="0 0 77 46" fill="none" xmlns="http://www.w3.org/2000/svg">
<path d="M37.7821 26.9604C33.3459 26.9604 28.9098 26.9604 24.4736 26.9604C23.2003 27.012 21.9294 26.8099 20.7349 26.3658C19.2121 25.7291 17.9384 24.6134 17.1067 23.1877C16.2751 21.762 15.9308 20.1041 16.1261 18.4651C16.3213 16.8262 17.0455 15.2956 18.1888 14.1052C19.3321 12.9148 20.8323 12.1295 22.462 11.8683C22.8269 11.8033 23.1969 11.7716 23.5675 11.7737C23.7059 11.7941 23.8468 11.7595 23.96 11.6773C24.0731 11.595 24.1496 11.4718 24.173 11.3339C24.8429 9.28601 26.2666 7.56955 28.1554 6.53261C30.0441 5.49568 32.2565 5.21588 34.3439 5.74995C34.3902 5.77109 34.4405 5.78192 34.4914 5.78169C34.5422 5.78147 34.5925 5.7702 34.6385 5.74865C34.6846 5.72711 34.7255 5.69582 34.7583 5.65693C34.7911 5.61804 34.815 5.57247 34.8285 5.52341C35.5181 4.02569 36.5883 2.7349 37.9324 1.77971C39.2764 0.824522 40.8473 0.238307 42.4885 0.079499C43.8434 -0.0991073 45.2211 0.0241103 46.5228 0.440316C47.8245 0.856522 49.0181 1.55541 50.0181 2.48696C50.9704 3.31971 51.747 4.33417 52.3022 5.47088C52.8575 6.60759 53.1803 7.84368 53.2517 9.10675C53.2708 9.356 53.3646 9.43297 53.6014 9.47329C55.6746 9.82224 57.5539 10.9032 58.8979 12.5198C60.242 14.1365 60.9616 16.1815 60.9261 18.2836C60.8906 20.3857 60.1023 22.4053 58.7045 23.9756C57.3067 25.546 55.392 26.5629 53.3082 26.8416C52.6831 26.9208 52.0535 26.9588 51.4234 26.9553C46.8768 26.9626 42.3297 26.9643 37.7821 26.9604ZM37.8781 25.3227C42.5978 25.3227 47.3169 25.3227 52.0355 25.3227C53.0721 25.324 54.097 25.1031 55.041 24.6747C55.9849 24.2463 56.826 23.6204 57.5076 22.8394C58.1891 22.0583 58.6952 21.1401 58.9917 20.1468C59.2882 19.1535 59.3682 18.1082 59.2264 17.0813C59.0056 15.4341 58.1969 13.9223 56.9494 12.8242C55.8476 11.8149 54.4527 11.1829 52.9673 11.0201C52.6291 11.0011 52.3095 10.8589 52.069 10.6204C51.8284 10.3819 51.6835 10.0635 51.6617 9.72549C51.6125 9.35895 51.6301 8.9836 51.5752 8.61852C51.4238 7.47539 51.0284 6.37816 50.4156 5.4013C49.8029 4.42444 48.9873 3.5908 48.0241 2.95688C46.686 2.0862 45.1217 1.62748 43.5253 1.63765C41.9289 1.64781 40.3706 2.12641 39.0437 3.01407C37.6782 3.94768 36.6235 5.26872 36.0154 6.80705C35.9734 6.94747 35.9032 7.07781 35.8089 7.19004C35.7147 7.30227 35.5984 7.39401 35.4674 7.4596C35.3363 7.52519 35.1932 7.56324 35.0469 7.57142C34.9006 7.5796 34.7542 7.55774 34.6166 7.50716C34.4854 7.47271 34.3549 7.43385 34.2259 7.39206C32.9097 6.99666 31.5054 7.00356 30.1932 7.41188C28.881 7.8202 27.7207 8.61132 26.8613 9.6837C26.2126 10.4985 25.7545 11.448 25.5205 12.4628C25.5063 12.6089 25.4622 12.7506 25.391 12.8789C25.3198 13.0073 25.2229 13.1197 25.1065 13.209C24.99 13.2984 24.8564 13.3629 24.714 13.3984C24.5716 13.434 24.4234 13.44 24.2786 13.4159C24.0191 13.41 23.7596 13.4034 23.5001 13.4048C21.9255 13.4423 20.4299 14.1016 19.3399 15.2386C18.25 16.3755 17.6545 17.8977 17.6836 19.4724C17.7127 21.0471 18.3639 22.5463 19.495 23.6423C20.6262 24.7382 22.1451 25.3419 23.72 25.3212C28.4396 25.3246 33.159 25.3263 37.8781 25.3263V25.3227Z" fill="#5F6C89"/>
<path d="M37.8777 25.3263C42.5973 25.3263 47.3164 25.3263 52.0351 25.3263C53.0717 25.3277 54.0966 25.1067 55.0405 24.6783C55.9845 24.2499 56.8256 23.6241 57.5071 22.843C58.1886 22.0619 58.6947 21.1437 58.9912 20.1504C59.2877 19.1571 59.3678 18.1118 59.226 17.0849C59.0051 15.4378 58.1965 13.9259 56.949 12.8279C55.8471 11.8185 54.4523 11.1865 52.9668 11.0237C52.6286 11.0048 52.3091 10.8626 52.0685 10.624C51.828 10.3855 51.6831 10.0672 51.6612 9.7291C51.6121 9.36256 51.6297 8.98723 51.5747 8.62215C51.4234 7.47902 51.0279 6.3818 50.4152 5.40493C49.8025 4.42807 48.9869 3.5944 48.0236 2.96049C46.6855 2.08981 45.1213 1.63111 43.5249 1.64128C41.9285 1.65144 40.3702 2.13002 39.0433 3.01768C37.6778 3.95129 36.623 5.27235 36.0149 6.81068C35.973 6.9511 35.9027 7.08145 35.8085 7.19367C35.7142 7.3059 35.598 7.39762 35.4669 7.46321C35.3359 7.5288 35.1928 7.56687 35.0465 7.57505C34.9002 7.58323 34.7537 7.56135 34.6162 7.51077C34.485 7.47632 34.3545 7.43748 34.2254 7.39569C32.9093 7.00029 31.505 7.00719 30.1928 7.41551C28.8805 7.82383 27.7203 8.61495 26.8608 9.68733C26.2122 10.5021 25.754 11.4517 25.52 12.4665C25.5058 12.6126 25.4618 12.7542 25.3906 12.8826C25.3193 13.0109 25.2225 13.1233 25.106 13.2126C24.9896 13.302 24.856 13.3665 24.7136 13.4021C24.5712 13.4376 24.423 13.4436 24.2782 13.4195C24.0187 13.4136 23.7591 13.407 23.4996 13.4085C21.9251 13.446 20.4294 14.1052 19.3395 15.2422C18.2496 16.3791 17.6541 17.9013 17.6831 19.476C17.7122 21.0508 18.3635 22.5499 19.4946 23.6459C20.6257 24.7419 22.1447 25.3455 23.7196 25.3248C28.4392 25.3258 33.1586 25.3263 37.8777 25.3263Z" fill="white"/>
<path d="M50.13 20.6859C50.13 21.5487 50.6513 21.9679 51.5932 21.9679C51.8846 21.9596 52.174 21.9183 52.4561 21.845V20.8455C52.2757 20.9032 52.0875 20.9326 51.8981 20.9325C51.507 20.9325 51.3624 20.8096 51.3624 20.4472V18.9106H52.4928V17.8824H51.3624V16.5787L50.1307 16.8469V17.8831H49.3125V18.9113H50.1235L50.13 20.6859ZM46.2911 20.7075C46.2911 20.4393 46.5593 20.3091 46.9648 20.3091C47.2117 20.3079 47.4576 20.3396 47.6961 20.4033V20.9246C47.4614 21.0545 47.1963 21.1195 46.9281 21.113C46.5298 21.113 46.2911 20.9606 46.2911 20.7075ZM46.6678 21.9823C47.0626 21.9949 47.4519 21.8862 47.7831 21.671V21.919H48.9997V19.3305C48.9997 18.3454 48.3403 17.8097 47.2323 17.8097C46.58 17.8193 45.9375 17.9701 45.3491 18.2519L45.7906 19.1572C46.1723 18.9749 46.5852 18.8668 47.0072 18.8387C47.5141 18.8387 47.7751 19.0343 47.7751 19.4398V19.6354C47.4773 19.5573 47.1706 19.5184 46.8627 19.5196C45.8266 19.5196 45.2039 19.951 45.2039 20.729C45.2099 20.9101 45.2536 21.088 45.3321 21.2513C45.4106 21.4146 45.5221 21.5598 45.6597 21.6776C45.7973 21.7955 45.958 21.8834 46.1314 21.9359C46.3048 21.9883 46.488 22.0042 46.6678 21.9823ZM39.9743 21.9169H41.2851V19.8238H43.4796V21.909H44.7904V16.5787H43.4796V18.6287H41.2851V16.5787H39.9743V21.9169ZM34.9835 19.8957C34.9832 19.7584 35.0106 19.6225 35.0641 19.496C35.1177 19.3696 35.1962 19.2553 35.2949 19.16C35.3937 19.0646 35.5107 18.9902 35.6389 18.9412C35.7672 18.8921 35.904 18.8695 36.0412 18.8746C36.3546 18.8705 36.6587 18.9813 36.8961 19.186V20.5982C36.6651 20.815 36.3579 20.9321 36.0412 20.9239C35.9039 20.9269 35.7674 20.9027 35.6396 20.8524C35.5119 20.8022 35.3954 20.7271 35.2969 20.6314C35.1985 20.5357 35.1201 20.4213 35.0663 20.295C35.0124 20.1687 34.9843 20.033 34.9835 19.8957ZM36.9105 21.9169H38.1271V16.3105L36.8961 16.5787V18.0923C36.6228 17.9327 36.3165 17.8377 36.0008 17.8145C35.685 17.7914 35.3682 17.8408 35.0745 17.959C34.7808 18.0771 34.518 18.2609 34.3062 18.4962C34.0945 18.7315 33.9393 19.0121 33.8526 19.3166C33.766 19.6211 33.7501 19.9413 33.8062 20.2529C33.8624 20.5644 33.989 20.859 34.1765 21.1141C34.3639 21.3692 34.6073 21.5781 34.8878 21.7247C35.1684 21.8713 35.4788 21.9518 35.7953 21.96H35.8312C36.2184 21.9601 36.5957 21.8383 36.9098 21.612L36.9105 21.9169ZM31.3185 18.8164C31.5093 18.8184 31.6944 18.8813 31.8469 18.9959C31.9994 19.1105 32.1113 19.2708 32.1663 19.4535H30.4859C30.5314 19.2683 30.6387 19.1042 30.7901 18.9884C30.9415 18.8726 31.1279 18.8119 31.3185 18.8164ZM29.2398 19.9057C29.2432 20.1879 29.3032 20.4665 29.416 20.7251C29.5289 20.9837 29.6925 21.2171 29.897 21.4114C30.1016 21.6058 30.343 21.7572 30.607 21.8568C30.871 21.9563 31.1523 22.0019 31.4343 21.9909C32.0519 22.0125 32.654 21.7945 33.1147 21.3826L32.2964 20.6586C32.19 20.761 32.0638 20.8408 31.9257 20.893C31.7875 20.9453 31.6401 20.969 31.4925 20.9627C31.2821 20.9693 31.0747 20.9119 30.8975 20.7982C30.7204 20.6845 30.5819 20.5197 30.5003 20.3257H33.3685V20.0215C33.3855 19.7464 33.3474 19.4708 33.2565 19.2106C33.1655 18.9505 33.0236 18.7111 32.8389 18.5065C32.6542 18.302 32.4306 18.1364 32.181 18.0194C31.9315 17.9024 31.6611 17.8364 31.3858 17.8253C31.1104 17.8142 30.8356 17.8582 30.5775 17.9547C30.3193 18.0512 30.0831 18.1983 29.8825 18.3873C29.682 18.5763 29.5212 18.8035 29.4096 19.0554C29.298 19.3074 29.2378 19.5791 29.2326 19.8547C29.2391 19.8709 29.2416 19.8884 29.2398 19.9057ZM27.1172 17.704C27.2027 17.693 27.2895 17.7002 27.3719 17.7254C27.4544 17.7505 27.5305 17.7929 27.5953 17.8498C27.66 17.9067 27.7119 17.9767 27.7474 18.0553C27.7829 18.1338 27.8013 18.219 27.8013 18.3052C27.8013 18.3913 27.7829 18.4765 27.7474 18.5551C27.7119 18.6336 27.66 18.7036 27.5953 18.7605C27.5305 18.8174 27.4544 18.8598 27.3719 18.8849C27.2895 18.9101 27.2027 18.9174 27.1172 18.9063H25.8229V17.7012L27.1172 17.704ZM24.51 21.9097H25.8208V19.9683H26.8202L27.8269 21.9097H29.2901L28.1167 19.7727C28.4146 19.6514 28.6695 19.4439 28.8489 19.1768C29.0282 18.9097 29.1238 18.5952 29.1233 18.2735C29.1195 18.0355 29.0668 17.8008 28.9685 17.584C28.8701 17.3672 28.7282 17.1729 28.5516 17.0133C28.375 16.8536 28.1674 16.7321 27.9418 16.6561C27.7162 16.5801 27.4774 16.5513 27.2402 16.5716H24.5078L24.51 21.9097Z" fill="#4A546B"/>
<path d="M44.2144 11.08C44.9263 11.08 45.9574 10.9318 45.9574 10.0826C45.9573 10.0178 45.9515 9.95308 45.9401 9.88923L45.5188 8.04346C45.4217 7.63864 45.3361 7.45097 44.6243 7.09792C43.9575 6.75328 43.2464 6.50213 42.511 6.35156C42.1753 6.35156 42.0796 6.77867 41.6849 6.77867C41.3031 6.77867 41.0241 6.45942 40.6653 6.45942C40.3237 6.45942 40.1016 6.69311 39.9304 7.17127C39.9304 7.17127 39.4515 8.52162 39.389 8.72079C39.3795 8.75616 39.3756 8.7928 39.3775 8.82937C39.3717 9.35354 41.4397 11.0742 44.2144 11.08ZM46.066 10.4328C46.1173 10.6209 46.1498 10.8136 46.163 11.0081C46.163 11.8055 45.2686 12.2498 44.0893 12.2498C41.4231 12.2477 39.0927 10.6866 39.0927 9.65914C39.0926 9.51621 39.1217 9.37476 39.1783 9.24353C38.2213 9.28524 36.9795 9.45637 36.9795 10.55C36.9795 12.3476 41.2297 14.5551 44.5905 14.5551C47.1711 14.5551 47.8204 13.3873 47.8204 12.4641C47.8204 11.7407 47.1934 10.9203 46.066 10.4299" fill="#C1181B"/>
<path d="M46.0675 10.4303C46.1188 10.6184 46.1513 10.8111 46.1645 11.0056C46.1645 11.803 45.2701 12.2474 44.0908 12.2474C41.4246 12.2474 39.0942 10.6863 39.0942 9.65522C39.0941 9.51229 39.1232 9.37085 39.1798 9.23962L39.3905 8.72119C39.381 8.75656 39.3771 8.7932 39.379 8.82977C39.379 9.35395 41.4469 11.0746 44.2159 11.0746C44.9278 11.0746 45.9589 10.9265 45.9589 10.0773C45.9588 10.0124 45.953 9.94772 45.9416 9.88388L46.0675 10.4303Z" fill="#4A546B"/>
<path d="M0.786133 43.9683V36.8101H3.95996C4.59798 36.8101 5.08301 36.8752 5.41504 37.0054C5.74707 37.1323 6.01237 37.3586 6.21094 37.6841C6.40951 38.0096 6.50879 38.3693 6.50879 38.7632C6.50879 39.271 6.3444 39.6991 6.01562 40.0474C5.68685 40.3957 5.17904 40.617 4.49219 40.7114C4.74284 40.8319 4.93327 40.9507 5.06348 41.0679C5.34017 41.3218 5.60221 41.6392 5.84961 42.02L7.09473 43.9683H5.90332L4.95605 42.479C4.67936 42.0493 4.4515 41.7205 4.27246 41.4927C4.09342 41.2648 3.93229 41.1053 3.78906 41.0142C3.64909 40.923 3.50586 40.8595 3.35938 40.8237C3.25195 40.8009 3.07617 40.7896 2.83203 40.7896H1.7334V43.9683H0.786133ZM1.7334 39.9692H3.76953C4.20247 39.9692 4.54102 39.9253 4.78516 39.8374C5.0293 39.7463 5.21484 39.603 5.3418 39.4077C5.46875 39.2091 5.53223 38.9943 5.53223 38.7632C5.53223 38.4246 5.40853 38.1463 5.16113 37.9282C4.91699 37.7101 4.52962 37.6011 3.99902 37.6011H1.7334V39.9692ZM11.4355 42.2983L12.3438 42.4106C12.2005 42.9412 11.9352 43.353 11.5479 43.646C11.1605 43.939 10.6657 44.0854 10.0635 44.0854C9.30501 44.0854 8.7028 43.8527 8.25684 43.3872C7.81413 42.9185 7.59277 42.2625 7.59277 41.4194C7.59277 40.547 7.81738 39.87 8.2666 39.3882C8.71582 38.9064 9.2985 38.6655 10.0146 38.6655C10.708 38.6655 11.2744 38.9015 11.7139 39.3735C12.1533 39.8455 12.373 40.5096 12.373 41.3657C12.373 41.4178 12.3714 41.4959 12.3682 41.6001H8.50098C8.53353 42.1698 8.69466 42.606 8.98438 42.9087C9.27409 43.2114 9.63542 43.3628 10.0684 43.3628C10.3906 43.3628 10.6657 43.2782 10.8936 43.1089C11.1214 42.9396 11.3021 42.6694 11.4355 42.2983ZM8.5498 40.8774H11.4453C11.4062 40.4412 11.2956 40.1141 11.1133 39.896C10.8333 39.5575 10.4704 39.3882 10.0244 39.3882C9.62077 39.3882 9.2806 39.5233 9.00391 39.7935C8.73047 40.0636 8.5791 40.425 8.5498 40.8774ZM16.8164 43.9683V43.314C16.4876 43.8283 16.0042 44.0854 15.3662 44.0854C14.9528 44.0854 14.5719 43.9715 14.2236 43.7437C13.8786 43.5158 13.61 43.1984 13.418 42.7915C13.2292 42.3813 13.1348 41.911 13.1348 41.3804C13.1348 40.8628 13.221 40.394 13.3936 39.9741C13.5661 39.5509 13.8249 39.2271 14.1699 39.0024C14.515 38.7778 14.9007 38.6655 15.3271 38.6655C15.6396 38.6655 15.918 38.7323 16.1621 38.8657C16.4062 38.9959 16.6048 39.1668 16.7578 39.3784V36.8101H17.6318V43.9683H16.8164ZM14.0381 41.3804C14.0381 42.0444 14.1781 42.5409 14.458 42.8696C14.738 43.1984 15.0684 43.3628 15.4492 43.3628C15.8333 43.3628 16.1589 43.2065 16.4258 42.894C16.696 42.5783 16.8311 42.0981 16.8311 41.4536C16.8311 40.744 16.6943 40.2231 16.4209 39.8911C16.1475 39.5591 15.8105 39.3931 15.4102 39.3931C15.0195 39.3931 14.6924 39.5526 14.4287 39.8716C14.1683 40.1906 14.0381 40.6935 14.0381 41.3804ZM21.9434 43.9683V36.8101H22.8906V39.7495H26.6113V36.8101H27.5586V43.9683H26.6113V40.5942H22.8906V43.9683H21.9434ZM32.4121 43.3286C32.0866 43.6053 31.7725 43.8006 31.4697 43.9146C31.1702 44.0285 30.848 44.0854 30.5029 44.0854C29.9333 44.0854 29.4954 43.9471 29.1895 43.6704C28.8835 43.3905 28.7305 43.034 28.7305 42.6011C28.7305 42.3472 28.7874 42.116 28.9014 41.9077C29.0186 41.6961 29.1699 41.5269 29.3555 41.3999C29.5443 41.2729 29.7559 41.1769 29.9902 41.1118C30.1628 41.0662 30.4232 41.0223 30.7715 40.98C31.4811 40.8953 32.0036 40.7944 32.3389 40.6772C32.3421 40.5568 32.3438 40.4803 32.3438 40.4478C32.3438 40.0897 32.2607 39.8374 32.0947 39.6909C31.8701 39.4924 31.5365 39.3931 31.0938 39.3931C30.6803 39.3931 30.3743 39.4663 30.1758 39.6128C29.9805 39.756 29.8356 40.0116 29.7412 40.3794L28.8818 40.2622C28.96 39.8944 29.0885 39.5981 29.2676 39.3735C29.4466 39.1457 29.7054 38.9715 30.0439 38.8511C30.3825 38.7274 30.7747 38.6655 31.2207 38.6655C31.6634 38.6655 32.0231 38.7176 32.2998 38.8218C32.5765 38.9259 32.7799 39.0578 32.9102 39.2173C33.0404 39.3735 33.1315 39.5721 33.1836 39.813C33.2129 39.9627 33.2275 40.2329 33.2275 40.6235V41.7954C33.2275 42.6125 33.2454 43.13 33.2812 43.3481C33.3203 43.563 33.3952 43.7697 33.5059 43.9683H32.5879C32.4967 43.786 32.4382 43.5728 32.4121 43.3286ZM32.3389 41.3657C32.0199 41.4959 31.5413 41.6066 30.9033 41.6978C30.542 41.7498 30.2865 41.8084 30.1367 41.8735C29.987 41.9386 29.8714 42.0347 29.79 42.1616C29.7087 42.2853 29.668 42.4237 29.668 42.5767C29.668 42.811 29.7559 43.0063 29.9316 43.1626C30.1107 43.3188 30.3711 43.397 30.7129 43.397C31.0514 43.397 31.3525 43.3237 31.6162 43.1772C31.8799 43.0275 32.0736 42.8241 32.1973 42.5669C32.2917 42.3683 32.3389 42.0754 32.3389 41.688V41.3657ZM36.5137 43.1821L36.6406 43.9585C36.3932 44.0106 36.1719 44.0366 35.9766 44.0366C35.6576 44.0366 35.4102 43.9862 35.2344 43.8853C35.0586 43.7843 34.9349 43.6525 34.8633 43.4897C34.7917 43.3237 34.7559 42.9771 34.7559 42.4497V39.4663H34.1113V38.7827H34.7559V37.4985L35.6299 36.9712V38.7827H36.5137V39.4663H35.6299V42.4985C35.6299 42.7492 35.6445 42.9103 35.6738 42.9819C35.7064 43.0535 35.7568 43.1105 35.8252 43.1528C35.8968 43.1951 35.9977 43.2163 36.1279 43.2163C36.2256 43.2163 36.3542 43.2049 36.5137 43.1821ZM40.2637 43.9683V36.8101H41.2354L44.9951 42.4302V36.8101H45.9033V43.9683H44.9316L41.1719 38.3433V43.9683H40.2637ZM50.9375 42.2983L51.8457 42.4106C51.7025 42.9412 51.4372 43.353 51.0498 43.646C50.6624 43.939 50.1676 44.0854 49.5654 44.0854C48.807 44.0854 48.2048 43.8527 47.7588 43.3872C47.3161 42.9185 47.0947 42.2625 47.0947 41.4194C47.0947 40.547 47.3193 39.87 47.7686 39.3882C48.2178 38.9064 48.8005 38.6655 49.5166 38.6655C50.21 38.6655 50.7764 38.9015 51.2158 39.3735C51.6553 39.8455 51.875 40.5096 51.875 41.3657C51.875 41.4178 51.8734 41.4959 51.8701 41.6001H48.0029C48.0355 42.1698 48.1966 42.606 48.4863 42.9087C48.776 43.2114 49.1374 43.3628 49.5703 43.3628C49.8926 43.3628 50.1676 43.2782 50.3955 43.1089C50.6234 42.9396 50.804 42.6694 50.9375 42.2983ZM48.0518 40.8774H50.9473C50.9082 40.4412 50.7975 40.1141 50.6152 39.896C50.3353 39.5575 49.9723 39.3882 49.5264 39.3882C49.1227 39.3882 48.7826 39.5233 48.5059 39.7935C48.2324 40.0636 48.0811 40.425 48.0518 40.8774ZM54.873 43.1821L55 43.9585C54.7526 44.0106 54.5312 44.0366 54.3359 44.0366C54.0169 44.0366 53.7695 43.9862 53.5938 43.8853C53.418 43.7843 53.2943 43.6525 53.2227 43.4897C53.151 43.3237 53.1152 42.9771 53.1152 42.4497V39.4663H52.4707V38.7827H53.1152V37.4985L53.9893 36.9712V38.7827H54.873V39.4663H53.9893V42.4985C53.9893 42.7492 54.0039 42.9103 54.0332 42.9819C54.0658 43.0535 54.1162 43.1105 54.1846 43.1528C54.2562 43.1951 54.3571 43.2163 54.4873 43.2163C54.585 43.2163 54.7135 43.2049 54.873 43.1821ZM56.6943 43.9683L55.1074 38.7827H56.0156L56.8408 41.7759L57.1484 42.8892C57.1615 42.8338 57.251 42.4774 57.417 41.8198L58.2422 38.7827H59.1455L59.9219 41.7905L60.1807 42.7817L60.4785 41.7808L61.3672 38.7827H62.2217L60.6006 43.9683H59.6875L58.8623 40.8628L58.6621 39.979L57.6123 43.9683H56.6943ZM62.6367 41.3755C62.6367 40.4152 62.9036 39.7039 63.4375 39.2417C63.8835 38.8576 64.4271 38.6655 65.0684 38.6655C65.7812 38.6655 66.3639 38.8999 66.8164 39.3687C67.2689 39.8341 67.4951 40.4787 67.4951 41.3022C67.4951 41.9696 67.3942 42.4953 67.1924 42.8794C66.9938 43.2603 66.7025 43.5565 66.3184 43.7681C65.9375 43.9797 65.5208 44.0854 65.0684 44.0854C64.3424 44.0854 63.7549 43.8527 63.3057 43.3872C62.8597 42.9217 62.6367 42.2511 62.6367 41.3755ZM63.54 41.3755C63.54 42.0396 63.6849 42.5376 63.9746 42.8696C64.2643 43.1984 64.6289 43.3628 65.0684 43.3628C65.5046 43.3628 65.8675 43.1968 66.1572 42.8647C66.4469 42.5327 66.5918 42.0265 66.5918 41.3462C66.5918 40.7049 66.4453 40.2199 66.1523 39.8911C65.8626 39.5591 65.5013 39.3931 65.0684 39.3931C64.6289 39.3931 64.2643 39.5575 63.9746 39.8862C63.6849 40.215 63.54 40.7114 63.54 41.3755ZM68.5205 43.9683V38.7827H69.3115V39.5688C69.5133 39.201 69.6989 38.9585 69.8682 38.8413C70.0407 38.7241 70.2295 38.6655 70.4346 38.6655C70.7308 38.6655 71.0319 38.7599 71.3379 38.9487L71.0352 39.7642C70.8203 39.6372 70.6055 39.5737 70.3906 39.5737C70.1986 39.5737 70.026 39.6323 69.873 39.7495C69.7201 39.8634 69.611 40.0229 69.5459 40.228C69.4482 40.5405 69.3994 40.8823 69.3994 41.2534V43.9683H68.5205ZM71.8652 43.9683V36.8101H72.7441V40.8921L74.8242 38.7827H75.9619L73.9795 40.7065L76.1621 43.9683H75.0781L73.3643 41.3169L72.7441 41.9126V43.9683H71.8652Z" fill="#2A303D"/>
</svg>
