<svg width="170" height="140" viewBox="0 0 170 140" fill="none" xmlns="http://www.w3.org/2000/svg">
<rect x="0.5" y="0.5" width="169" height="139" rx="9.5" fill="white"/>
<rect x="0.5" y="0.5" width="169" height="139" rx="9.5" stroke="#B4BBCC" stroke-dasharray="4 4"/>
<mask id="path-2-inside-1_2731_20801" fill="white">
<path d="M97.4201 87.9543H73.1325C72.9955 87.9543 72.8926 87.9543 72.8149 87.9454C72.7553 87.9446 72.6979 87.9235 72.652 87.8854C72.6141 87.8396 72.5929 87.7821 72.5921 87.7226C72.5832 87.6486 72.5832 87.5427 72.5832 87.405L72.5698 46.5226C72.5635 46.1559 72.616 45.7905 72.7253 45.4403C72.8169 45.1497 72.9757 44.8847 73.1887 44.6667C73.406 44.4535 73.6706 44.2945 73.9608 44.2026C74.3106 44.0929 74.6758 44.0401 75.0424 44.0464H95.0135C95.2992 44.0438 95.584 44.0776 95.8611 44.1471C96.1024 44.2082 96.3322 44.3082 96.5414 44.4432C96.7359 44.5694 96.9053 44.7306 97.0411 44.9184C97.18 45.1131 97.2838 45.3305 97.3476 45.561C97.3703 45.6193 97.3879 45.6795 97.4001 45.7409C97.4127 45.8045 97.4216 45.8687 97.4268 45.9334C97.4327 45.9992 97.4349 46.0666 97.4364 46.1347C97.4379 46.2028 97.4364 46.2717 97.4364 46.3398L97.4179 87.9543"/>
</mask>
<path d="M97.4201 87.9543H73.1325C72.9955 87.9543 72.8926 87.9543 72.8149 87.9454C72.7553 87.9446 72.6979 87.9235 72.652 87.8854C72.6141 87.8396 72.5929 87.7821 72.5921 87.7226C72.5832 87.6486 72.5832 87.5427 72.5832 87.405L72.5698 46.5226C72.5635 46.1559 72.616 45.7905 72.7253 45.4403C72.8169 45.1497 72.9757 44.8847 73.1887 44.6667C73.406 44.4535 73.6706 44.2945 73.9608 44.2026C74.3106 44.0929 74.6758 44.0401 75.0424 44.0464H95.0135C95.2992 44.0438 95.584 44.0776 95.8611 44.1471C96.1024 44.2082 96.3322 44.3082 96.5414 44.4432C96.7359 44.5694 96.9053 44.7306 97.0411 44.9184C97.18 45.1131 97.2838 45.3305 97.3476 45.561C97.3703 45.6193 97.3879 45.6795 97.4001 45.7409C97.4127 45.8045 97.4216 45.8687 97.4268 45.9334C97.4327 45.9992 97.4349 46.0666 97.4364 46.1347C97.4379 46.2028 97.4364 46.2717 97.4364 46.3398L97.4179 87.9543" fill="#006AFF"/>
<path d="M72.8149 87.9454L72.9284 86.9519L72.8785 86.9462L72.8282 86.9455L72.8149 87.9454ZM72.652 87.8854L71.8816 88.523L71.9414 88.5953L72.0137 88.6552L72.652 87.8854ZM72.5921 87.7226L73.592 87.7083L73.5912 87.6557L73.5849 87.6034L72.5921 87.7226ZM72.5832 87.405H73.5832L73.5832 87.4047L72.5832 87.405ZM72.5698 46.5226L73.5698 46.5223L73.5698 46.5138L73.5697 46.5053L72.5698 46.5226ZM72.7253 45.4403L71.7716 45.1397L71.7707 45.1423L72.7253 45.4403ZM73.1887 44.6667L72.4883 43.953L72.4809 43.9603L72.4736 43.9677L73.1887 44.6667ZM73.9608 44.2026L73.6615 43.2484L73.659 43.2492L73.9608 44.2026ZM75.0424 44.0464L75.0252 45.0463L75.0338 45.0464H75.0424V44.0464ZM95.0135 44.0464V45.0464L95.0227 45.0464L95.0135 44.0464ZM95.8611 44.1471L96.1067 43.1777L96.1043 43.1771L95.8611 44.1471ZM96.5414 44.4432L97.086 43.6045L97.0835 43.6029L96.5414 44.4432ZM97.0411 44.9184L97.855 44.3374L97.8515 44.3325L97.0411 44.9184ZM97.3476 45.561L96.3838 45.8278L96.3975 45.877L96.416 45.9246L97.3476 45.561ZM97.4001 45.7409L98.381 45.5464L98.3809 45.5458L97.4001 45.7409ZM97.4268 45.9334L96.4299 46.0127L96.4308 46.0229L97.4268 45.9334ZM97.4364 46.3398L98.4364 46.3402V46.3398H97.4364ZM97.4201 87.9543V86.9543H73.1325V87.9543V88.9543H97.4201V87.9543ZM73.1325 87.9543V86.9543C73.0608 86.9543 73.0124 86.9542 72.9726 86.9534C72.9319 86.9525 72.9222 86.9512 72.9284 86.9519L72.8149 87.9454L72.7013 88.9389C72.8493 88.9559 73.0203 88.9543 73.1325 88.9543V87.9543ZM72.8149 87.9454L72.8282 86.9455C72.9971 86.9477 73.1602 87.0078 73.2903 87.1157L72.652 87.8854L72.0137 88.6552C72.2355 88.8391 72.5136 88.9415 72.8016 88.9453L72.8149 87.9454ZM72.652 87.8854L73.4225 87.2479C73.5298 87.3776 73.5896 87.54 73.592 87.7083L72.5921 87.7226L71.5922 87.7369C71.5963 88.0242 71.6984 88.3016 71.8816 88.523L72.652 87.8854ZM72.5921 87.7226L73.5849 87.6034C73.5864 87.6156 73.585 87.6094 73.5841 87.5667C73.5832 87.5264 73.5832 87.477 73.5832 87.405H72.5832H71.5832C71.5832 87.514 71.5814 87.6934 71.5992 87.8417L72.5921 87.7226ZM72.5832 87.405L73.5832 87.4047L73.5698 46.5223L72.5698 46.5226L71.5698 46.5229L71.5832 87.4053L72.5832 87.405ZM72.5698 46.5226L73.5697 46.5053C73.5652 46.2454 73.6024 45.9865 73.6799 45.7383L72.7253 45.4403L71.7707 45.1423C71.6296 45.5945 71.5618 46.0663 71.57 46.5399L72.5698 46.5226ZM72.7253 45.4403L73.679 45.741C73.7235 45.6 73.8005 45.4715 73.9038 45.3658L73.1887 44.6667L72.4736 43.9677C72.1509 44.2979 71.9104 44.6993 71.7716 45.1397L72.7253 45.4403ZM73.1887 44.6667L73.8891 45.3805C73.9942 45.2774 74.1222 45.2004 74.2627 45.156L73.9608 44.2026L73.659 43.2492C73.2189 43.3886 72.8178 43.6297 72.4883 43.953L73.1887 44.6667ZM73.9608 44.2026L74.2601 45.1567C74.5076 45.0791 74.7659 45.0418 75.0252 45.0463L75.0424 44.0464L75.0595 43.0465C74.5857 43.0384 74.1137 43.1066 73.6615 43.2484L73.9608 44.2026ZM75.0424 44.0464V45.0464H95.0135V44.0464V43.0464H75.0424V44.0464ZM95.0135 44.0464L95.0227 45.0464C95.2233 45.0445 95.4233 45.0683 95.6179 45.117L95.8611 44.1471L96.1043 43.1771C95.7447 43.0869 95.375 43.043 95.0042 43.0464L95.0135 44.0464ZM95.8611 44.1471L95.6155 45.1164C95.7517 45.1509 95.8813 45.2074 95.9994 45.2835L96.5414 44.4432L97.0835 43.6029C96.7831 43.4091 96.4532 43.2655 96.1067 43.1777L95.8611 44.1471ZM96.5414 44.4432L95.9968 45.2819C96.0878 45.341 96.1671 45.4164 96.2307 45.5044L97.0411 44.9184L97.8515 44.3325C97.6434 44.0447 97.3839 43.7979 97.086 43.6045L96.5414 44.4432ZM97.0411 44.9184L96.2272 45.4995C96.2982 45.5989 96.3512 45.7101 96.3838 45.8278L97.3476 45.561L98.3113 45.2942C98.2163 44.951 98.0619 44.6272 97.855 44.3374L97.0411 44.9184ZM97.3476 45.561L96.416 45.9246C96.4175 45.9283 96.4186 45.9321 96.4194 45.936L97.4001 45.7409L98.3809 45.5458C98.3573 45.4269 98.3232 45.3103 98.2791 45.1974L97.3476 45.561ZM97.4001 45.7409L96.4192 45.9354C96.4243 45.9609 96.4279 45.9867 96.4299 46.0127L97.4268 45.9334L98.4236 45.854C98.4154 45.7507 98.4012 45.648 98.381 45.5464L97.4001 45.7409ZM97.4268 45.9334L96.4308 46.0229C96.4335 46.0534 96.4353 46.0928 96.4366 46.1564L97.4364 46.1347L98.4362 46.113C98.4346 46.0404 98.4319 45.9451 98.4228 45.8438L97.4268 45.9334ZM97.4364 46.1347L96.4366 46.1564C96.4379 46.2119 96.4364 46.241 96.4364 46.3398H97.4364H98.4364C98.4364 46.3024 98.4379 46.1938 98.4362 46.113L97.4364 46.1347ZM97.4364 46.3398L96.4364 46.3393L96.4179 87.9538L97.4179 87.9543L98.4179 87.9547L98.4364 46.3402L97.4364 46.3398Z" fill="#96B3EE" mask="url(#path-2-inside-1_2731_20801)"/>
<path d="M75.5566 50.2109H94.5077V52.8759H75.5566V50.2109Z" fill="white"/>
<path d="M75.5625 71.6675H94.5046V74.3325H75.5625V71.6675Z" fill="white"/>
<path d="M75.5654 77.231H94.5046V79.8959H75.5654V77.231Z" fill="white"/>
<path d="M97.4373 83.166C103.052 83.166 107.604 78.6144 107.604 72.9998C107.604 67.3851 103.052 62.8335 97.4373 62.8335C91.8226 62.8335 87.271 67.3851 87.271 72.9998C87.271 78.6144 91.8226 83.166 97.4373 83.166Z" fill="white" stroke="#006AFF" stroke-width="0.814278"/>
<path d="M98.5956 72.8312L98.1868 72.956C98.1868 72.956 98.2932 72.9384 98.2996 73.0208C98.323 73.3195 98.3463 73.6184 98.3692 73.9176C98.3692 73.9232 98.3604 73.9296 98.3436 73.9504C97.9716 73.7462 97.6126 73.5193 97.2683 73.2712L97.3387 73.2344C97.1787 73.2912 96.9995 73.3536 96.8131 73.4208C96.8707 73.4064 96.8779 73.4304 96.8811 73.5232C96.8811 73.5728 96.8811 73.6224 96.8811 73.6712C96.8682 74.0333 96.8035 74.3916 96.6891 74.7353C96.6619 74.8201 96.6435 74.8273 96.5819 74.7721C96.3014 74.5337 96.0787 74.2347 95.9306 73.8976C95.901 73.8256 95.8922 73.7976 95.9202 73.7744L95.7106 73.86C95.7337 73.8797 95.7534 73.9029 95.769 73.9288C95.8663 74.1749 96.0066 74.4017 96.1835 74.5985C96.2691 74.6937 96.3611 74.7825 96.4531 74.8705C96.4819 74.8985 96.5219 74.9145 96.5483 74.9505C95.9928 75.1908 95.4231 75.3971 94.8426 75.5681C94.8674 75.5169 94.8754 75.4945 94.8874 75.4745C95.1784 74.9955 95.4253 74.491 95.625 73.9672C95.6343 73.9443 95.6458 73.9223 95.6594 73.9016C95.6794 73.8784 95.6842 73.8824 95.7074 73.8616C95.5906 73.9088 95.4826 73.96 95.3642 74.0096H95.3698C95.1487 74.5635 94.859 75.0873 94.5073 75.5689C94.4255 75.4424 94.371 75.3001 94.3473 75.1513C94.309 74.9666 94.309 74.776 94.3473 74.5913C94.3565 74.5359 94.3848 74.4855 94.4273 74.4489C94.2985 74.5089 94.2209 74.5481 94.0961 74.6129C94.0961 74.5961 94.0705 74.8097 94.0641 74.8865C94.0449 75.1511 94.1042 75.4155 94.2345 75.6465C94.2889 75.749 94.2889 75.7529 94.1737 75.7866C93.6569 75.938 93.1398 76.0884 92.6224 76.2378C92.5831 76.2454 92.5432 76.2505 92.5032 76.253C92.5171 76.1819 92.535 76.1116 92.5568 76.0426C92.7284 75.6101 93.0333 75.2436 93.4273 74.9961C93.5516 74.9129 93.6793 74.8356 93.8105 74.7641C93.6289 74.8529 93.4489 74.9489 93.2769 75.0425C93.1931 75.1124 93.1089 75.1817 93.0241 75.2505C92.7512 75.4653 92.5227 75.731 92.3512 76.033C92.2648 76.1788 92.2156 76.3437 92.208 76.513C92.2105 76.7925 92.3229 77.0597 92.5208 77.257C92.7254 77.4793 92.9635 77.6683 93.2265 77.8171C93.6933 78.0814 94.1978 78.2727 94.7226 78.3843C95.1706 78.4883 95.6258 78.5651 96.0826 78.6299C96.4571 78.6827 96.8363 78.6987 97.2131 78.7347C97.2611 78.7445 97.311 78.7364 97.3535 78.7119C97.3959 78.6875 97.4279 78.6484 97.4435 78.6019C97.5987 78.2611 97.7707 77.9275 97.9188 77.5835C98.1673 77.031 98.3501 76.4512 98.4636 75.8562C98.5361 75.4301 98.5847 75.0004 98.6092 74.5689C98.6399 74.0466 98.6147 73.5225 98.534 73.0056C98.5164 72.8848 98.5116 72.8656 98.598 72.8376L98.5956 72.8312ZM96.9155 74.5913C97.0125 74.2086 97.0636 73.8156 97.0675 73.4208C97.0675 73.3136 97.0883 73.3032 97.1811 73.3552L98.3204 73.9952C98.3367 74.0073 98.3522 74.0204 98.3668 74.0344C97.9065 74.3568 97.4107 74.6253 96.8891 74.8345L96.8595 74.8153C96.8747 74.7433 96.8939 74.6633 96.9115 74.5921L96.9155 74.5913ZM96.7299 75.2161C96.7667 75.1097 96.7699 75.1081 96.8659 75.1625C97.2642 75.3877 97.6917 75.5565 98.1364 75.6641C98.1678 75.6739 98.1985 75.6856 98.2284 75.6993C97.56 76.0587 96.8572 76.3501 96.1306 76.569C96.1474 76.5314 96.1595 76.4986 96.1755 76.4682C96.3938 76.0665 96.5792 75.6478 96.7299 75.2161ZM96.4899 75.2065L96.5131 75.2281C96.5027 75.2617 96.4947 75.2961 96.4811 75.3289C96.2873 75.7826 96.065 76.2235 95.8154 76.649C95.7834 76.7042 95.757 76.7418 95.6826 76.6978C95.3299 76.4923 95.0132 76.2304 94.745 75.9226C94.7231 75.8933 94.7028 75.8628 94.6842 75.8314C95.2991 75.6707 95.9004 75.462 96.4827 75.2073L96.4899 75.2065ZM93.1673 77.4171C92.8894 77.2012 92.6742 76.9151 92.544 76.5882C92.5296 76.541 92.5183 76.4929 92.5104 76.4442C92.4968 76.3762 92.5192 76.341 92.5904 76.3242C93.1313 76.201 93.6705 76.0722 94.2113 75.9458C94.23 75.9439 94.2487 75.9439 94.2673 75.9458C94.2532 75.9759 94.2374 76.0053 94.2201 76.0338C93.9044 76.4861 93.5884 76.9394 93.2721 77.3939C93.2441 77.4379 93.2169 77.4635 93.1673 77.4171ZM93.3225 77.5299C93.3262 77.4929 93.3365 77.4568 93.3529 77.4235C93.5662 77.1418 93.7838 76.8624 94.0057 76.585C94.1545 76.3986 94.3113 76.2186 94.4809 76.0162C94.7584 76.346 95.0962 76.62 95.4762 76.8234C95.4058 76.8546 95.3706 76.873 95.333 76.8866L93.4817 77.5387C93.4697 77.5427 93.4585 77.5531 93.4473 77.5515C93.4049 77.5467 93.3673 77.5379 93.3225 77.5307V77.5299ZM94.7626 78.2163C94.3267 78.092 93.9098 77.909 93.5233 77.6723C93.5065 77.6611 93.4889 77.6507 93.4713 77.6403L93.4825 77.6027L95.5802 77.0186C95.5458 77.0818 95.5282 77.117 95.5074 77.1506C95.2962 77.4891 95.0834 77.8275 94.873 78.1667C94.845 78.2107 94.8162 78.2347 94.7626 78.2163ZM94.9626 78.2675L94.9522 78.2387L95.0162 78.1523C95.2738 77.8051 95.533 77.4595 95.789 77.1122C95.869 77.0082 95.861 77.005 95.9746 77.049C96.4709 77.2384 96.9892 77.364 97.5171 77.4227C97.5699 77.4283 97.6227 77.4387 97.6771 77.4483C97.6843 77.4483 97.6899 77.4571 97.6963 77.4619C96.8478 77.7817 95.9805 78.0494 95.0994 78.2635C95.0526 78.2685 95.0054 78.2685 94.9586 78.2635L94.9626 78.2675ZM97.7099 77.6163C97.6019 77.9179 97.4939 78.2203 97.3811 78.5211C97.3243 78.6723 97.3195 78.6739 97.1587 78.6483C96.5864 78.5577 96.0141 78.4659 95.4418 78.3731C95.3786 78.3627 95.317 78.3459 95.2546 78.3315L95.2498 78.3011C95.2962 78.2867 95.3426 78.2699 95.3906 78.2587C95.9399 78.1521 96.4804 78.0042 97.0075 77.8163C97.2027 77.7363 97.3947 77.6563 97.5883 77.5763L97.7259 77.5187C97.7233 77.5524 97.7179 77.5858 97.7099 77.6187V77.6163ZM98.1596 76.1306C98.0492 76.5135 97.9364 76.896 97.8212 77.2778C97.7795 77.4171 97.7763 77.4147 97.6323 77.3883C97.1216 77.297 96.6234 77.1455 96.1482 76.937C96.1042 76.9178 96.0618 76.8954 96.001 76.8658L98.2284 75.8146C98.2036 75.925 98.1868 76.0298 98.158 76.1306H98.1596ZM98.3796 74.4617C98.3609 74.7241 98.3398 74.986 98.3164 75.2473C98.3084 75.3369 98.2972 75.4273 98.282 75.5161C98.2572 75.6601 98.2548 75.6593 98.122 75.6161C97.7816 75.5059 97.4553 75.3561 97.1499 75.1697C97.0771 75.1257 97.0059 75.0785 96.9259 75.0281L98.3844 74.1481C98.3844 74.2529 98.39 74.3577 98.3844 74.4617H98.3796ZM95.7394 68.9413C95.709 68.9343 95.6813 68.9188 95.6594 68.8965C95.4338 68.6829 95.2106 68.4661 94.9866 68.2509C94.9753 68.2351 94.9657 68.2182 94.9578 68.2005C95.4901 68.3505 96.0347 68.453 96.5851 68.5069V68.5349L96.5051 68.5789C96.3019 68.6917 96.0986 68.8029 95.897 68.9173C95.8485 68.9448 95.7916 68.9536 95.737 68.9421L95.7394 68.9413ZM96.1042 69.0813C96.1042 69.0813 96.1578 69.0301 96.1739 69.0189C96.3587 68.8893 96.5435 68.7613 96.7275 68.6309C96.7659 68.6045 96.7979 68.5669 96.8323 68.6349C96.9267 68.8213 97.0243 69.0069 97.1195 69.1949C97.1235 69.2029 97.1195 69.2174 97.1147 69.2438L97.4475 69.295C97.4247 69.2904 97.4031 69.2808 97.3843 69.267C97.3655 69.2532 97.3499 69.2354 97.3387 69.2149C97.0178 68.672 96.753 68.0978 96.5483 67.5012C96.5235 67.4212 96.5131 67.3412 96.4955 67.2612H96.4707C96.4414 67.281 96.4106 67.2983 96.3787 67.3132C95.9674 67.4732 95.553 67.6205 95.1458 67.7869C94.8022 67.9165 94.4776 68.092 94.1809 68.3085C94.0761 68.3885 94.0209 68.4501 94.0041 68.5109C94.0577 68.6605 94.3729 68.7309 94.3729 68.7309H94.3777C94.2713 68.7005 94.2601 68.6653 94.3097 68.5661C94.3986 68.4126 94.526 68.2849 94.6794 68.1957C94.6914 68.1912 94.7045 68.1898 94.7172 68.1918C94.73 68.1937 94.742 68.1989 94.7522 68.2069C94.9394 68.4397 95.1234 68.6757 95.3122 68.9109C95.3122 68.9109 95.3122 68.9189 95.3042 68.9389L95.1986 68.9229C95.3018 68.9421 95.6178 69.0029 95.7522 69.0293L96.1082 69.0821L96.1042 69.0813ZM95.1498 68.0301C95.5065 67.8367 95.8768 67.6696 96.2579 67.53C96.3323 67.5012 96.3379 67.5028 96.3459 67.5788C96.377 67.8215 96.4355 68.0598 96.5203 68.2893C96.5244 68.3066 96.5265 68.3243 96.5267 68.3421L95.077 68.1029L95.0714 68.0829C95.0994 68.0637 95.1226 68.0453 95.1498 68.0301Z" fill="#006AFF"/>
<path d="M97.1122 69.2398L96.1017 69.0798L95.7529 69.0254L95.2953 68.9374C95.2209 68.9254 95.1433 68.9166 95.0681 68.899C94.8569 68.8502 94.6457 68.8006 94.436 68.7454H94.4288C94.4288 68.7454 94.0352 68.6534 94.0064 68.5054C93.9848 68.5854 94.032 68.6574 94.1448 68.7718C94.3912 69.0206 94.6505 69.2574 94.8953 69.5078C95.2686 69.8632 95.5256 70.3233 95.6325 70.8275C95.7395 71.3317 95.6914 71.8565 95.4945 72.3328C95.3203 72.7882 95.0689 73.2101 94.7513 73.5801C94.3068 74.1152 93.8114 74.6058 93.272 75.045C93.4 74.9842 93.832 74.749 94.4352 74.4489C94.5873 74.3689 94.7441 74.3057 94.8985 74.2329C95.0147 74.1759 95.1318 74.1206 95.2497 74.0673C95.4585 73.9721 95.7065 73.8793 95.9249 73.7849L95.9513 73.7737C96.0833 73.7161 96.2298 73.6601 96.3754 73.6057L96.7274 73.4689L96.7458 73.4617C96.9266 73.3857 97.133 73.3217 97.3058 73.2641C97.3163 73.2584 97.3273 73.2536 97.3386 73.2497L97.6138 73.1609C97.8066 73.0969 97.9547 73.0472 98.1019 73.0008L98.1483 72.9856L98.1795 72.9768L98.5283 72.8728C98.5542 72.8618 98.581 72.8527 98.6083 72.8456C99.0475 72.7216 99.4884 72.5928 99.9276 72.4768C100.757 72.2503 101.598 72.0655 102.446 71.9232C102.517 71.912 102.586 71.8968 102.666 71.8816C102.644 71.8408 102.631 71.8152 102.616 71.7912C102.266 71.2329 101.787 70.7665 101.22 70.4311C100.648 70.1038 100.034 69.8547 99.3947 69.6902C98.763 69.5221 98.1218 69.3915 97.4746 69.299L97.4362 69.2902C97.3296 69.27 97.2207 69.2531 97.1098 69.2398H97.1122ZM95.9489 70.6719C95.9393 70.6223 95.9577 70.5959 96.0097 70.6071C96.3092 70.6696 96.6023 70.7599 96.885 70.8767L95.9961 71.6816C95.9903 71.6647 95.9863 71.6473 95.9841 71.6296C96.0073 71.3091 95.9947 70.9871 95.9465 70.6695L95.9489 70.6719ZM96.9746 71.0639C96.8939 71.4752 96.7338 71.8668 96.5034 72.2168L96.0233 71.8568C96.3185 71.5673 96.6363 71.3019 96.9738 71.0631L96.9746 71.0639ZM96.8538 71.9168C96.9931 71.6536 97.0957 71.3726 97.1586 71.0815C97.1698 71.0279 97.185 70.9903 97.2474 71.0215C97.4725 71.1341 97.697 71.2474 97.9211 71.3615C97.9299 71.3663 97.9355 71.3775 97.9499 71.3943L96.813 72.0176C96.8322 71.9696 96.8402 71.9432 96.853 71.9176L96.8538 71.9168ZM97.0618 70.5759C97.0618 70.6223 97.045 70.6471 96.9914 70.6311C96.681 70.5399 96.3706 70.4495 96.0601 70.3583C96.0505 70.3583 96.0425 70.3455 96.0185 70.3271C96.2927 70.0353 96.5971 69.7736 96.9266 69.5462C96.999 69.7139 97.0423 69.8928 97.0546 70.0751C97.069 70.2407 97.061 70.4087 97.0618 70.5759ZM95.6721 70.1167C95.4357 69.7299 95.1291 69.3907 94.7681 69.1166L94.7833 69.0958C94.8073 69.1006 94.8321 69.1038 94.8561 69.1102C95.0217 69.1558 95.1865 69.203 95.3529 69.2462C95.4001 69.2582 95.4377 69.2742 95.4537 69.3262C95.5297 69.5742 95.6073 69.8223 95.6833 70.0703C95.6846 70.0785 95.6842 70.087 95.6821 70.0951C95.6801 70.1032 95.6764 70.1108 95.6713 70.1175L95.6721 70.1167ZM95.8769 70.2319L95.5345 69.2966L96.781 69.5366L96.789 69.5606C96.4533 69.7382 96.1459 69.9639 95.8769 70.2319ZM95.9033 72.152C96.0384 72.2059 96.1623 72.2843 96.269 72.3832L95.5257 72.948L95.9033 72.152ZM94.8521 73.7609C94.9907 73.5977 95.13 73.435 95.2697 73.2729C95.2885 73.2489 95.3103 73.2274 95.3345 73.2089C95.5921 73.0307 95.8505 72.8534 96.1097 72.6768C96.1229 72.671 96.1365 72.6664 96.1505 72.6632L96.1689 72.6856C95.7933 73.1446 95.3356 73.5298 94.8193 73.8217C94.8282 73.8004 94.8392 73.78 94.8521 73.7609ZM96.6122 73.1953C96.394 73.2763 96.1778 73.3619 95.9633 73.4521C95.7145 73.5585 95.4689 73.6729 95.2217 73.7833C95.1913 73.7969 95.1601 73.8089 95.1289 73.8217L95.1161 73.8025C95.1341 73.7844 95.1531 73.7673 95.1729 73.7513C95.6217 73.4315 96.0272 73.0551 96.3794 72.6312C96.4354 72.5632 96.4474 72.564 96.497 72.6312C96.5866 72.7599 96.6497 72.9051 96.6826 73.0584C96.6882 73.0715 96.6909 73.0856 96.6904 73.0998C96.6898 73.114 96.6861 73.1279 96.6795 73.1405C96.6729 73.1531 96.6636 73.164 96.6522 73.1725C96.6408 73.181 96.6277 73.1869 96.6138 73.1897L96.6122 73.1953ZM96.7906 73.1289C96.7826 73.0914 96.7767 73.0534 96.773 73.0152C96.7698 72.8202 96.7216 72.6286 96.6322 72.4552C96.6106 72.4128 96.5858 72.3752 96.6466 72.3408L97.8811 71.668C97.8867 71.668 97.8955 71.668 97.9323 71.668C97.5802 72.176 97.1987 72.663 96.7898 73.1265L96.7906 73.1289ZM96.9786 73.0344C97.0058 73.0032 97.0186 72.9864 97.0346 72.972C97.4808 72.5766 97.8759 72.1269 98.2107 71.6336C98.2387 71.5912 98.2627 71.5632 98.3195 71.6C98.6282 71.7977 98.917 72.025 99.1819 72.2784C99.1923 72.2913 99.2015 72.3053 99.2091 72.32L96.9786 73.0344ZM100.849 70.6727C101.354 70.9548 101.809 71.3196 102.193 71.752C102.206 71.7703 102.216 71.7895 102.225 71.8096C101.342 71.8803 100.467 72.0237 99.6076 72.2384L99.5948 72.2024C99.6468 72.152 99.698 72.1016 99.75 72.052C100.156 71.6788 100.485 71.2288 100.716 70.7279C100.764 70.6287 100.768 70.6271 100.849 70.6727ZM100.644 70.6255C100.629 70.6607 100.611 70.6947 100.591 70.7271C100.396 70.9911 100.201 71.2559 100 71.516C99.8284 71.74 99.6492 71.9592 99.4724 72.18C99.4443 72.2152 99.4155 72.248 99.3755 72.2952C99.1437 71.9383 98.8497 71.6258 98.5075 71.3727C99.1916 71.0627 99.8989 70.8064 100.623 70.6063L100.643 70.6247L100.644 70.6255ZM98.9483 69.9495C99.4549 70.0791 99.9504 70.249 100.43 70.4575C100.451 70.4668 100.471 70.4777 100.49 70.4903C100.499 70.4959 100.503 70.5071 100.522 70.5327C99.8388 70.6812 99.1697 70.8881 98.5219 71.1511L98.5043 71.1311C98.5171 71.0975 98.5291 71.0639 98.5435 71.0311C98.6943 70.7134 98.7922 70.3732 98.8331 70.0239C98.8419 69.9367 98.8571 69.9255 98.9443 69.9487L98.9483 69.9495ZM98.7427 70.0239C98.666 70.3635 98.5361 70.6888 98.3579 70.9879C98.2483 71.1903 98.2483 71.1855 98.0459 71.0791C97.8731 70.9895 97.6946 70.9103 97.5194 70.8263C97.4786 70.8071 97.4394 70.7895 97.3954 70.7711L97.3882 70.7431C97.8209 70.4321 98.2755 70.1527 98.7483 69.9071C98.7487 69.9458 98.7468 69.9845 98.7427 70.0231V70.0239ZM97.2266 70.6079C97.2282 70.2509 97.158 69.8972 97.0202 69.5678C97.5562 69.6534 98.0603 69.7366 98.5739 69.8591L97.2266 70.6079Z" fill="#2C66DD"/>
<path d="M60.1 99.49C60.0667 99.5467 60.0317 99.5883 59.995 99.615C59.9583 99.6417 59.9117 99.655 59.855 99.655C59.795 99.655 59.7267 99.6283 59.65 99.575C59.5733 99.5183 59.4767 99.4567 59.36 99.39C59.2467 99.32 59.11 99.2583 58.95 99.205C58.79 99.1483 58.5983 99.12 58.375 99.12C58.165 99.12 57.98 99.1483 57.82 99.205C57.6633 99.2583 57.5317 99.3333 57.425 99.43C57.3183 99.5233 57.2367 99.635 57.18 99.765C57.1267 99.8917 57.1 100.03 57.1 100.18C57.1 100.373 57.1483 100.533 57.245 100.66C57.345 100.787 57.475 100.895 57.635 100.985C57.795 101.075 57.9767 101.153 58.18 101.22C58.3833 101.287 58.5917 101.357 58.805 101.43C59.0183 101.5 59.2267 101.582 59.43 101.675C59.6333 101.768 59.815 101.887 59.975 102.03C60.135 102.17 60.2633 102.343 60.36 102.55C60.46 102.753 60.51 103.003 60.51 103.3C60.51 103.617 60.455 103.913 60.345 104.19C60.2383 104.467 60.0817 104.708 59.875 104.915C59.6683 105.122 59.4133 105.285 59.11 105.405C58.81 105.522 58.4683 105.58 58.085 105.58C57.855 105.58 57.6317 105.557 57.415 105.51C57.1983 105.467 56.9933 105.405 56.8 105.325C56.6067 105.242 56.425 105.143 56.255 105.03C56.0883 104.913 55.9383 104.783 55.805 104.64L56.11 104.13C56.14 104.09 56.175 104.057 56.215 104.03C56.2583 104.003 56.3067 103.99 56.36 103.99C56.43 103.99 56.51 104.027 56.6 104.1C56.6933 104.173 56.8067 104.255 56.94 104.345C57.0767 104.432 57.2383 104.512 57.425 104.585C57.615 104.658 57.845 104.695 58.115 104.695C58.335 104.695 58.5317 104.667 58.705 104.61C58.8783 104.55 59.0233 104.467 59.14 104.36C59.26 104.25 59.3517 104.118 59.415 103.965C59.4783 103.812 59.51 103.642 59.51 103.455C59.51 103.245 59.4617 103.073 59.365 102.94C59.2683 102.807 59.14 102.695 58.98 102.605C58.82 102.515 58.6383 102.438 58.435 102.375C58.2317 102.312 58.0233 102.247 57.81 102.18C57.5967 102.11 57.3883 102.03 57.185 101.94C56.9817 101.85 56.8 101.733 56.64 101.59C56.48 101.443 56.3517 101.262 56.255 101.045C56.1583 100.825 56.11 100.555 56.11 100.235C56.11 99.9783 56.16 99.73 56.26 99.49C56.36 99.25 56.505 99.0383 56.695 98.855C56.8883 98.6683 57.125 98.52 57.405 98.41C57.685 98.2967 58.005 98.24 58.365 98.24C58.7683 98.24 59.1383 98.305 59.475 98.435C59.815 98.5617 60.11 98.745 60.36 98.985L60.1 99.49ZM66.8395 103.96C66.8995 103.96 66.9511 103.983 66.9945 104.03L67.4145 104.49C67.1211 104.837 66.7628 105.105 66.3395 105.295C65.9195 105.485 65.4128 105.58 64.8195 105.58C64.2995 105.58 63.8278 105.49 63.4045 105.31C62.9845 105.13 62.6245 104.878 62.3245 104.555C62.0278 104.232 61.7978 103.845 61.6345 103.395C61.4711 102.945 61.3895 102.45 61.3895 101.91C61.3895 101.37 61.4745 100.875 61.6445 100.425C61.8178 99.975 62.0595 99.5883 62.3695 99.265C62.6795 98.9417 63.0495 98.69 63.4795 98.51C63.9128 98.33 64.3911 98.24 64.9145 98.24C65.4245 98.24 65.8778 98.3233 66.2745 98.49C66.6711 98.6567 67.0161 98.8783 67.3095 99.155L66.9595 99.65C66.9361 99.6867 66.9061 99.7167 66.8695 99.74C66.8361 99.7633 66.7911 99.775 66.7345 99.775C66.6711 99.775 66.5961 99.7433 66.5095 99.68C66.4261 99.6167 66.3145 99.5467 66.1745 99.47C66.0378 99.39 65.8678 99.3183 65.6645 99.255C65.4611 99.1917 65.2078 99.16 64.9045 99.16C64.5478 99.16 64.2211 99.2233 63.9245 99.35C63.6278 99.4733 63.3711 99.6533 63.1545 99.89C62.9411 100.123 62.7745 100.412 62.6545 100.755C62.5378 101.095 62.4795 101.48 62.4795 101.91C62.4795 102.347 62.5411 102.735 62.6645 103.075C62.7878 103.415 62.9578 103.703 63.1745 103.94C63.3911 104.177 63.6461 104.357 63.9395 104.48C64.2328 104.603 64.5495 104.665 64.8895 104.665C65.0961 104.665 65.2811 104.653 65.4445 104.63C65.6111 104.603 65.7628 104.565 65.8995 104.515C66.0395 104.465 66.1711 104.402 66.2945 104.325C66.4178 104.245 66.5395 104.15 66.6595 104.04C66.6861 104.017 66.7145 103.998 66.7445 103.985C66.7745 103.968 66.8061 103.96 66.8395 103.96ZM73.3629 103.96C73.4229 103.96 73.4746 103.983 73.5179 104.03L73.9379 104.49C73.6446 104.837 73.2862 105.105 72.8629 105.295C72.4429 105.485 71.9362 105.58 71.3429 105.58C70.8229 105.58 70.3512 105.49 69.9279 105.31C69.5079 105.13 69.1479 104.878 68.8479 104.555C68.5512 104.232 68.3212 103.845 68.1579 103.395C67.9946 102.945 67.9129 102.45 67.9129 101.91C67.9129 101.37 67.9979 100.875 68.1679 100.425C68.3412 99.975 68.5829 99.5883 68.8929 99.265C69.2029 98.9417 69.5729 98.69 70.0029 98.51C70.4362 98.33 70.9146 98.24 71.4379 98.24C71.9479 98.24 72.4012 98.3233 72.7979 98.49C73.1946 98.6567 73.5396 98.8783 73.8329 99.155L73.4829 99.65C73.4596 99.6867 73.4296 99.7167 73.3929 99.74C73.3596 99.7633 73.3146 99.775 73.2579 99.775C73.1946 99.775 73.1196 99.7433 73.0329 99.68C72.9496 99.6167 72.8379 99.5467 72.6979 99.47C72.5612 99.39 72.3912 99.3183 72.1879 99.255C71.9846 99.1917 71.7312 99.16 71.4279 99.16C71.0712 99.16 70.7446 99.2233 70.4479 99.35C70.1512 99.4733 69.8946 99.6533 69.6779 99.89C69.4646 100.123 69.2979 100.412 69.1779 100.755C69.0612 101.095 69.0029 101.48 69.0029 101.91C69.0029 102.347 69.0646 102.735 69.1879 103.075C69.3112 103.415 69.4812 103.703 69.6979 103.94C69.9146 104.177 70.1696 104.357 70.4629 104.48C70.7562 104.603 71.0729 104.665 71.4129 104.665C71.6196 104.665 71.8046 104.653 71.9679 104.63C72.1346 104.603 72.2862 104.565 72.4229 104.515C72.5629 104.465 72.6946 104.402 72.8179 104.325C72.9412 104.245 73.0629 104.15 73.1829 104.04C73.2096 104.017 73.2379 103.998 73.2679 103.985C73.2979 103.968 73.3296 103.96 73.3629 103.96ZM82.558 98.32V105.5H81.628V100.39C81.628 100.313 81.6297 100.232 81.633 100.145C81.6397 100.058 81.6464 99.97 81.653 99.88L79.263 104.265C79.1797 104.428 79.0514 104.51 78.878 104.51H78.728C78.5547 104.51 78.428 104.428 78.348 104.265L75.913 99.865C75.933 100.052 75.943 100.227 75.943 100.39V105.5H75.008V98.32H75.798C75.8914 98.32 75.963 98.33 76.013 98.35C76.0664 98.3667 76.1164 98.4167 76.163 98.5L78.563 102.8C78.6097 102.887 78.653 102.978 78.693 103.075C78.733 103.172 78.7714 103.268 78.808 103.365C78.878 103.168 78.9597 102.978 79.053 102.795L81.408 98.5C81.4514 98.4167 81.498 98.3667 81.548 98.35C81.6014 98.33 81.6747 98.32 81.768 98.32H82.558ZM90.5785 99.49C90.5452 99.5467 90.5102 99.5883 90.4735 99.615C90.4368 99.6417 90.3902 99.655 90.3335 99.655C90.2735 99.655 90.2052 99.6283 90.1285 99.575C90.0518 99.5183 89.9552 99.4567 89.8385 99.39C89.7252 99.32 89.5885 99.2583 89.4285 99.205C89.2685 99.1483 89.0768 99.12 88.8535 99.12C88.6435 99.12 88.4585 99.1483 88.2985 99.205C88.1418 99.2583 88.0102 99.3333 87.9035 99.43C87.7968 99.5233 87.7152 99.635 87.6585 99.765C87.6052 99.8917 87.5785 100.03 87.5785 100.18C87.5785 100.373 87.6268 100.533 87.7235 100.66C87.8235 100.787 87.9535 100.895 88.1135 100.985C88.2735 101.075 88.4552 101.153 88.6585 101.22C88.8618 101.287 89.0702 101.357 89.2835 101.43C89.4968 101.5 89.7052 101.582 89.9085 101.675C90.1118 101.768 90.2935 101.887 90.4535 102.03C90.6135 102.17 90.7418 102.343 90.8385 102.55C90.9385 102.753 90.9885 103.003 90.9885 103.3C90.9885 103.617 90.9335 103.913 90.8235 104.19C90.7168 104.467 90.5602 104.708 90.3535 104.915C90.1468 105.122 89.8918 105.285 89.5885 105.405C89.2885 105.522 88.9468 105.58 88.5635 105.58C88.3335 105.58 88.1102 105.557 87.8935 105.51C87.6768 105.467 87.4718 105.405 87.2785 105.325C87.0852 105.242 86.9035 105.143 86.7335 105.03C86.5668 104.913 86.4168 104.783 86.2835 104.64L86.5885 104.13C86.6185 104.09 86.6535 104.057 86.6935 104.03C86.7368 104.003 86.7852 103.99 86.8385 103.99C86.9085 103.99 86.9885 104.027 87.0785 104.1C87.1718 104.173 87.2852 104.255 87.4185 104.345C87.5552 104.432 87.7168 104.512 87.9035 104.585C88.0935 104.658 88.3235 104.695 88.5935 104.695C88.8135 104.695 89.0102 104.667 89.1835 104.61C89.3568 104.55 89.5018 104.467 89.6185 104.36C89.7385 104.25 89.8302 104.118 89.8935 103.965C89.9568 103.812 89.9885 103.642 89.9885 103.455C89.9885 103.245 89.9402 103.073 89.8435 102.94C89.7468 102.807 89.6185 102.695 89.4585 102.605C89.2985 102.515 89.1168 102.438 88.9135 102.375C88.7102 102.312 88.5018 102.247 88.2885 102.18C88.0752 102.11 87.8668 102.03 87.6635 101.94C87.4602 101.85 87.2785 101.733 87.1185 101.59C86.9585 101.443 86.8302 101.262 86.7335 101.045C86.6368 100.825 86.5885 100.555 86.5885 100.235C86.5885 99.9783 86.6385 99.73 86.7385 99.49C86.8385 99.25 86.9835 99.0383 87.1735 98.855C87.3668 98.6683 87.6035 98.52 87.8835 98.41C88.1635 98.2967 88.4835 98.24 88.8435 98.24C89.2468 98.24 89.6168 98.305 89.9535 98.435C90.2935 98.5617 90.5885 98.745 90.8385 98.985L90.5785 99.49ZM95.4387 102.395C95.4387 102.202 95.4103 102.023 95.3537 101.86C95.3003 101.697 95.2203 101.555 95.1137 101.435C95.007 101.315 94.877 101.222 94.7237 101.155C94.5703 101.088 94.3937 101.055 94.1937 101.055C93.7837 101.055 93.4603 101.173 93.2237 101.41C92.9903 101.647 92.842 101.975 92.7787 102.395H95.4387ZM96.2437 104.775C96.1237 104.915 95.9853 105.037 95.8287 105.14C95.672 105.24 95.5053 105.322 95.3287 105.385C95.152 105.448 94.9687 105.495 94.7787 105.525C94.592 105.555 94.407 105.57 94.2237 105.57C93.8737 105.57 93.5487 105.512 93.2487 105.395C92.952 105.275 92.6937 105.102 92.4737 104.875C92.257 104.645 92.087 104.362 91.9637 104.025C91.8437 103.685 91.7837 103.295 91.7837 102.855C91.7837 102.502 91.8387 102.173 91.9487 101.87C92.0587 101.563 92.2153 101.297 92.4187 101.07C92.6253 100.843 92.877 100.665 93.1737 100.535C93.4703 100.405 93.8037 100.34 94.1737 100.34C94.4837 100.34 94.7687 100.392 95.0287 100.495C95.292 100.595 95.5187 100.742 95.7087 100.935C95.8987 101.128 96.047 101.367 96.1537 101.65C96.2637 101.933 96.3187 102.257 96.3187 102.62C96.3187 102.77 96.302 102.872 96.2687 102.925C96.2353 102.975 96.1737 103 96.0837 103H92.7537C92.7637 103.303 92.807 103.568 92.8837 103.795C92.9603 104.018 93.0653 104.205 93.1987 104.355C93.3353 104.505 93.497 104.617 93.6837 104.69C93.8703 104.763 94.0787 104.8 94.3087 104.8C94.5253 104.8 94.712 104.775 94.8687 104.725C95.0287 104.675 95.1653 104.622 95.2787 104.565C95.3953 104.505 95.492 104.45 95.5687 104.4C95.6487 104.35 95.7187 104.325 95.7787 104.325C95.8587 104.325 95.9203 104.355 95.9637 104.415L96.2437 104.775ZM98.2866 101.395C98.45 101.062 98.6466 100.8 98.8766 100.61C99.1066 100.42 99.3833 100.325 99.7066 100.325C99.8166 100.325 99.92 100.338 100.017 100.365C100.117 100.388 100.203 100.425 100.277 100.475L100.212 101.21C100.188 101.3 100.133 101.345 100.047 101.345C100 101.345 99.93 101.337 99.8366 101.32C99.7433 101.3 99.6433 101.29 99.5366 101.29C99.38 101.29 99.2416 101.313 99.1216 101.36C99.0016 101.403 98.8933 101.47 98.7966 101.56C98.7033 101.647 98.62 101.755 98.5466 101.885C98.4733 102.012 98.405 102.157 98.3416 102.32V105.5H97.3666V100.42H97.9266C98.0333 100.42 98.105 100.44 98.1416 100.48C98.1816 100.517 98.21 100.583 98.2266 100.68L98.2866 101.395ZM105.439 100.42L103.379 105.5H102.499L100.439 100.42H101.244C101.32 100.42 101.384 100.438 101.434 100.475C101.484 100.512 101.517 100.558 101.534 100.615L102.749 103.735C102.792 103.865 102.829 103.995 102.859 104.125C102.892 104.252 102.922 104.378 102.949 104.505C102.975 104.378 103.005 104.252 103.039 104.125C103.072 103.998 103.112 103.868 103.159 103.735L104.389 100.615C104.409 100.558 104.444 100.512 104.494 100.475C104.544 100.438 104.604 100.42 104.674 100.42H105.439ZM109.433 102.395C109.433 102.202 109.404 102.023 109.348 101.86C109.294 101.697 109.214 101.555 109.108 101.435C109.001 101.315 108.871 101.222 108.718 101.155C108.564 101.088 108.388 101.055 108.188 101.055C107.778 101.055 107.454 101.173 107.218 101.41C106.984 101.647 106.836 101.975 106.773 102.395H109.433ZM110.238 104.775C110.118 104.915 109.979 105.037 109.823 105.14C109.666 105.24 109.499 105.322 109.323 105.385C109.146 105.448 108.963 105.495 108.773 105.525C108.586 105.555 108.401 105.57 108.218 105.57C107.868 105.57 107.543 105.512 107.243 105.395C106.946 105.275 106.688 105.102 106.468 104.875C106.251 104.645 106.081 104.362 105.958 104.025C105.838 103.685 105.778 103.295 105.778 102.855C105.778 102.502 105.833 102.173 105.943 101.87C106.053 101.563 106.209 101.297 106.413 101.07C106.619 100.843 106.871 100.665 107.168 100.535C107.464 100.405 107.798 100.34 108.168 100.34C108.478 100.34 108.763 100.392 109.023 100.495C109.286 100.595 109.513 100.742 109.703 100.935C109.893 101.128 110.041 101.367 110.148 101.65C110.258 101.933 110.313 102.257 110.313 102.62C110.313 102.77 110.296 102.872 110.263 102.925C110.229 102.975 110.168 103 110.078 103H106.748C106.758 103.303 106.801 103.568 106.878 103.795C106.954 104.018 107.059 104.205 107.193 104.355C107.329 104.505 107.491 104.617 107.678 104.69C107.864 104.763 108.073 104.8 108.303 104.8C108.519 104.8 108.706 104.775 108.863 104.725C109.023 104.675 109.159 104.622 109.273 104.565C109.389 104.505 109.486 104.45 109.563 104.4C109.643 104.35 109.713 104.325 109.773 104.325C109.853 104.325 109.914 104.355 109.958 104.415L110.238 104.775ZM112.281 101.395C112.444 101.062 112.641 100.8 112.871 100.61C113.101 100.42 113.377 100.325 113.701 100.325C113.811 100.325 113.914 100.338 114.011 100.365C114.111 100.388 114.197 100.425 114.271 100.475L114.206 101.21C114.182 101.3 114.127 101.345 114.041 101.345C113.994 101.345 113.924 101.337 113.831 101.32C113.737 101.3 113.637 101.29 113.531 101.29C113.374 101.29 113.236 101.313 113.116 101.36C112.996 101.403 112.887 101.47 112.791 101.56C112.697 101.647 112.614 101.755 112.541 101.885C112.467 102.012 112.399 102.157 112.336 102.32V105.5H111.361V100.42H111.921C112.027 100.42 112.099 100.44 112.136 100.48C112.176 100.517 112.204 100.583 112.221 100.68L112.281 101.395Z" fill="#2A303D"/>
</svg>
