<svg width="90" height="50" viewBox="0 0 90 50" fill="none" xmlns="http://www.w3.org/2000/svg">
<path d="M30.3619 14.6379C30.3619 12.6617 30.7489 10.7447 31.5121 8.94025C32.2493 7.1972 33.3048 5.63174 34.6492 4.28734C35.9936 2.94294 37.5591 1.88746 39.3021 1.15022C41.1066 0.386988 43.0236 0 44.9998 0C46.976 0 48.893 0.386988 50.6974 1.15022C52.4405 1.88746 54.006 2.94294 55.3504 4.28734C56.6948 5.63174 57.7502 7.1972 58.4875 8.94025C59.2507 10.7447 59.6377 12.6617 59.6377 14.6379C59.6377 16.6141 59.2507 18.5311 58.4875 20.3356C57.7502 22.0786 56.6948 23.6441 55.3504 24.9885C54.006 26.3329 52.4405 27.3883 50.6974 28.1256C48.893 28.8888 46.976 29.2758 44.9998 29.2758C43.0236 29.2758 41.1066 28.8888 39.3021 28.1256C37.5591 27.3883 35.9936 26.3329 34.6492 24.9885C33.3048 23.6441 32.2493 22.0786 31.5121 20.3356C30.7489 18.5311 30.3619 16.6141 30.3619 14.6379Z" fill="#006AFF"/>
<path d="M50.937 16.6409C50.9345 16.5252 50.9613 16.4107 51.015 16.3081C51.0688 16.2056 51.1476 16.1183 51.2441 16.0545C51.3489 16.0018 51.4631 15.9707 51.5801 15.9628C52.4382 15.9628 52.3177 16.7744 53.4576 16.7744C54.3157 16.7744 55.0327 15.9537 55.0327 14.5772C55.0327 13.2008 54.3162 12.3796 53.4576 12.3796C52.3173 12.3796 52.4382 13.1916 51.5801 13.1916C51.4631 13.1839 51.3489 13.1527 51.2441 13.1C51.1476 13.036 51.0689 12.9486 51.0152 12.846C50.9615 12.7434 50.9346 12.6288 50.937 12.513V8.54787H46.9315C46.8311 8.54909 46.7347 8.58738 46.6608 8.65538C46.6454 8.68887 46.6323 8.72333 46.6214 8.75854C46.6121 8.78507 46.606 8.81263 46.6032 8.84062C46.6032 8.94513 46.6271 9.04821 46.6731 9.14204C46.7191 9.23588 46.786 9.31794 46.8686 9.38195C47.0457 9.54767 47.1848 9.74966 47.2766 9.97413C47.3684 10.1986 47.4106 10.4403 47.4004 10.6826C47.4002 10.7362 47.3971 10.7897 47.3913 10.8429C47.3913 10.8477 47.3913 10.853 47.3913 10.8578C47.2914 11.7327 46.4419 12.5654 44.9057 12.5654C43.2672 12.5654 42.41 11.6185 42.41 10.6831C42.4 10.4408 42.4423 10.1991 42.5342 9.97466C42.626 9.7502 42.7652 9.54817 42.9423 9.38242C43.0274 9.30206 43.0993 9.2088 43.1554 9.10601C43.1925 9.0226 43.2104 8.9319 43.2077 8.84062C43.1996 8.77436 43.179 8.71019 43.1472 8.65151C43.0727 8.58582 42.9773 8.54873 42.878 8.54688L38.873 8.54688V12.5154C38.8746 12.6306 38.8473 12.7444 38.7936 12.8463C38.74 12.9483 38.6617 13.0351 38.5658 13.099C38.4611 13.1517 38.3468 13.1829 38.2298 13.1907C37.3717 13.1907 37.4922 12.3787 36.3519 12.3787C35.4942 12.3787 34.7767 13.2003 34.7767 14.5762C34.7767 15.9522 35.4942 16.7734 36.3519 16.7734C37.4917 16.7734 37.3712 15.9618 38.2298 15.9618C38.3468 15.9696 38.4611 16.0008 38.5658 16.0535C38.6618 16.1172 38.7402 16.2041 38.7939 16.3061C38.8476 16.4081 38.8747 16.5219 38.873 16.6371V20.6056H42.8741C42.8874 20.6047 42.9005 20.603 42.9135 20.6003C42.9212 20.6003 42.9293 20.6004 42.937 20.5975C42.9447 20.5946 42.9605 20.5931 42.9725 20.5907C43.0645 20.5779 43.1526 20.545 43.2306 20.4945C43.3087 20.4441 43.3747 20.3771 43.4241 20.2985C43.4768 20.1937 43.5081 20.0795 43.5163 19.9625C43.5163 19.1039 42.7033 19.2249 42.7033 18.0846C42.7033 17.2265 43.524 16.5094 44.9009 16.5094C46.2778 16.5094 47.0985 17.2265 47.0985 18.0846C47.0985 19.2244 46.286 19.1034 46.286 19.9625C46.294 20.0795 46.3253 20.1937 46.3781 20.2985C46.4271 20.3766 46.4924 20.4431 46.5697 20.4934C46.6469 20.5437 46.7342 20.5766 46.8254 20.5898C46.8398 20.5927 46.8542 20.596 46.8686 20.5979C46.8739 20.5979 46.8796 20.5979 46.8854 20.6003C46.8992 20.603 46.9131 20.6047 46.9272 20.6056H50.937V16.6409Z" fill="white"/>
<path d="M15.4199 43.9761L16.3135 43.8979C16.3558 44.256 16.4535 44.5506 16.6064 44.7817C16.7627 45.0096 17.0036 45.1951 17.3291 45.3384C17.6546 45.4784 18.0208 45.5483 18.4277 45.5483C18.7891 45.5483 19.1081 45.4946 19.3848 45.3872C19.6615 45.2798 19.8665 45.1333 20 44.9478C20.1367 44.759 20.2051 44.5539 20.2051 44.3325C20.2051 44.1079 20.14 43.9126 20.0098 43.7466C19.8796 43.5773 19.6647 43.4357 19.3652 43.3218C19.1732 43.2469 18.7484 43.1313 18.0908 42.9751C17.4333 42.8156 16.9727 42.6659 16.709 42.5259C16.3672 42.3468 16.1117 42.1255 15.9424 41.8618C15.7764 41.5949 15.6934 41.297 15.6934 40.9683C15.6934 40.6069 15.7959 40.27 16.001 39.9575C16.2061 39.6418 16.5055 39.4025 16.8994 39.2397C17.2933 39.077 17.7311 38.9956 18.2129 38.9956C18.7435 38.9956 19.2106 39.0819 19.6143 39.2544C20.0212 39.4237 20.3337 39.6743 20.5518 40.0063C20.7699 40.3384 20.887 40.7144 20.9033 41.1343L19.9951 41.2026C19.9463 40.7502 19.7803 40.4084 19.4971 40.1772C19.2171 39.9461 18.8021 39.8306 18.252 39.8306C17.679 39.8306 17.2607 39.9364 16.9971 40.1479C16.7367 40.3563 16.6064 40.6086 16.6064 40.9048C16.6064 41.1619 16.6992 41.3735 16.8848 41.5396C17.0671 41.7056 17.5423 41.8765 18.3105 42.0522C19.082 42.2248 19.611 42.3761 19.8975 42.5063C20.3141 42.6984 20.6217 42.9425 20.8203 43.2388C21.0189 43.5317 21.1182 43.8703 21.1182 44.2544C21.1182 44.6353 21.0091 44.995 20.791 45.3335C20.5729 45.6688 20.2588 45.9308 19.8486 46.1196C19.4417 46.3052 18.9827 46.3979 18.4717 46.3979C17.8239 46.3979 17.2803 46.3035 16.8408 46.1147C16.4046 45.9259 16.0612 45.6427 15.8105 45.2651C15.5632 44.8843 15.4329 44.4546 15.4199 43.9761ZM27.5195 43.7661L28.4668 44.0054C28.2682 44.7834 27.9102 45.3774 27.3926 45.7876C26.8783 46.1945 26.2484 46.3979 25.5029 46.3979C24.7314 46.3979 24.1032 46.2417 23.6182 45.9292C23.1364 45.6134 22.7686 45.1577 22.5146 44.562C22.264 43.9663 22.1387 43.3267 22.1387 42.6431C22.1387 41.8976 22.2803 41.2482 22.5635 40.6948C22.8499 40.1382 23.2552 39.7166 23.7793 39.4302C24.3066 39.1405 24.8861 38.9956 25.5176 38.9956C26.2337 38.9956 26.8359 39.1779 27.3242 39.5425C27.8125 39.9071 28.1527 40.4198 28.3447 41.0806L27.4121 41.3003C27.2461 40.7795 27.0052 40.4002 26.6895 40.1626C26.3737 39.925 25.9766 39.8062 25.498 39.8062C24.9479 39.8062 24.4873 39.938 24.1162 40.2017C23.7484 40.4653 23.4896 40.8201 23.3398 41.2661C23.1901 41.7088 23.1152 42.1662 23.1152 42.6382C23.1152 43.2469 23.2031 43.7791 23.3789 44.2349C23.5579 44.6873 23.8346 45.0259 24.209 45.2505C24.5833 45.4751 24.9886 45.5874 25.4248 45.5874C25.9554 45.5874 26.4046 45.4344 26.7725 45.1284C27.1403 44.8224 27.3893 44.3683 27.5195 43.7661ZM34.7461 43.7661L35.6934 44.0054C35.4948 44.7834 35.1367 45.3774 34.6191 45.7876C34.1048 46.1945 33.4749 46.3979 32.7295 46.3979C31.958 46.3979 31.3298 46.2417 30.8447 45.9292C30.363 45.6134 29.9951 45.1577 29.7412 44.562C29.4906 43.9663 29.3652 43.3267 29.3652 42.6431C29.3652 41.8976 29.5068 41.2482 29.79 40.6948C30.0765 40.1382 30.4818 39.7166 31.0059 39.4302C31.5332 39.1405 32.1126 38.9956 32.7441 38.9956C33.4603 38.9956 34.0625 39.1779 34.5508 39.5425C35.0391 39.9071 35.3792 40.4198 35.5713 41.0806L34.6387 41.3003C34.4727 40.7795 34.2318 40.4002 33.916 40.1626C33.6003 39.925 33.2031 39.8062 32.7246 39.8062C32.1745 39.8062 31.7139 39.938 31.3428 40.2017C30.9749 40.4653 30.7161 40.8201 30.5664 41.2661C30.4167 41.7088 30.3418 42.1662 30.3418 42.6382C30.3418 43.2469 30.4297 43.7791 30.6055 44.2349C30.7845 44.6873 31.0612 45.0259 31.4355 45.2505C31.8099 45.4751 32.2152 45.5874 32.6514 45.5874C33.182 45.5874 33.6312 45.4344 33.999 45.1284C34.3669 44.8224 34.6159 44.3683 34.7461 43.7661ZM36.8359 46.2759V39.1177H38.2617L39.9561 44.186C40.1123 44.658 40.2262 45.0112 40.2979 45.2456C40.3792 44.9852 40.5062 44.6027 40.6787 44.0981L42.3926 39.1177H43.667V46.2759H42.7539V40.2847L40.6738 46.2759H39.8193L37.749 40.1821V46.2759H36.8359ZM47.9785 46.2759V39.1177H50.6787C51.154 39.1177 51.5169 39.1405 51.7676 39.186C52.1191 39.2446 52.4137 39.3569 52.6514 39.5229C52.889 39.6857 53.0794 39.9152 53.2227 40.2114C53.3691 40.5076 53.4424 40.8332 53.4424 41.188C53.4424 41.7967 53.2487 42.3127 52.8613 42.7358C52.474 43.1558 51.7741 43.3657 50.7617 43.3657H48.9258V46.2759H47.9785ZM48.9258 42.521H50.7764C51.3883 42.521 51.8229 42.4071 52.0801 42.1792C52.3372 41.9513 52.4658 41.6307 52.4658 41.2173C52.4658 40.9178 52.3893 40.6623 52.2363 40.4507C52.0866 40.2358 51.888 40.0942 51.6406 40.0259C51.4811 39.9836 51.1865 39.9624 50.7568 39.9624H48.9258V42.521ZM54.5166 46.2759V39.1177H55.3955V46.2759H54.5166ZM60.1611 46.2759V45.5142C59.7575 46.1001 59.209 46.3931 58.5156 46.3931C58.2096 46.3931 57.9232 46.3345 57.6562 46.2173C57.3926 46.1001 57.1956 45.9536 57.0654 45.7778C56.9385 45.5988 56.849 45.3807 56.7969 45.1235C56.7611 44.951 56.7432 44.6776 56.7432 44.3032V41.0903H57.6221V43.9663C57.6221 44.4253 57.64 44.7345 57.6758 44.894C57.7311 45.1252 57.8483 45.3075 58.0273 45.4409C58.2064 45.5711 58.4277 45.6362 58.6914 45.6362C58.9551 45.6362 59.2025 45.5695 59.4336 45.436C59.6647 45.2993 59.8275 45.1154 59.9219 44.8843C60.0195 44.6499 60.0684 44.3114 60.0684 43.8687V41.0903H60.9473V46.2759H60.1611ZM62.168 46.7056L63.0225 46.8325C63.0583 47.0962 63.1576 47.2882 63.3203 47.4087C63.5384 47.5715 63.8363 47.6528 64.2139 47.6528C64.6208 47.6528 64.9349 47.5715 65.1562 47.4087C65.3776 47.2459 65.5273 47.0181 65.6055 46.7251C65.651 46.5461 65.6722 46.1701 65.6689 45.5972C65.2848 46.0496 64.8063 46.2759 64.2334 46.2759C63.5205 46.2759 62.9688 46.0187 62.5781 45.5044C62.1875 44.9901 61.9922 44.3732 61.9922 43.6538C61.9922 43.159 62.0817 42.7033 62.2607 42.2866C62.4398 41.8667 62.6986 41.5428 63.0371 41.3149C63.3789 41.0871 63.7793 40.9731 64.2383 40.9731C64.8503 40.9731 65.3548 41.2205 65.752 41.7153V41.0903H66.5625V45.5728C66.5625 46.38 66.4795 46.9513 66.3135 47.2866C66.1507 47.6252 65.8903 47.8921 65.5322 48.0874C65.1774 48.2827 64.7396 48.3804 64.2188 48.3804C63.6003 48.3804 63.1006 48.2404 62.7197 47.9604C62.3389 47.6838 62.1549 47.2655 62.168 46.7056ZM62.8955 43.5903C62.8955 44.2707 63.0306 44.7671 63.3008 45.0796C63.571 45.3921 63.9095 45.5483 64.3164 45.5483C64.7201 45.5483 65.0586 45.3937 65.332 45.0845C65.6055 44.772 65.7422 44.2837 65.7422 43.6196C65.7422 42.9849 65.6006 42.5063 65.3174 42.1841C65.0374 41.8618 64.6989 41.7007 64.3018 41.7007C63.9111 41.7007 63.5791 41.8602 63.3057 42.1792C63.0322 42.495 62.8955 42.9653 62.8955 43.5903ZM67.9004 40.1284V39.1177H68.7793V40.1284H67.9004ZM67.9004 46.2759V41.0903H68.7793V46.2759H67.9004ZM70.1221 46.2759V41.0903H70.9131V41.8276C71.2939 41.258 71.8441 40.9731 72.5635 40.9731C72.876 40.9731 73.1624 41.0301 73.4229 41.144C73.6865 41.2547 73.8835 41.4012 74.0137 41.5835C74.1439 41.7658 74.235 41.9823 74.2871 42.2329C74.3197 42.3957 74.3359 42.6805 74.3359 43.0874V46.2759H73.457V43.1216C73.457 42.7635 73.4229 42.4966 73.3545 42.3208C73.2861 42.1418 73.1641 42.0002 72.9883 41.896C72.8158 41.7886 72.6123 41.7349 72.3779 41.7349C72.0036 41.7349 71.6797 41.8537 71.4062 42.0913C71.1361 42.3289 71.001 42.7798 71.001 43.4438V46.2759H70.1221Z" fill="#2A303D"/>
</svg>
