<svg width="130" height="103" viewBox="0 0 130 103" fill="none" xmlns="http://www.w3.org/2000/svg">
<rect x="0.5" y="0.5" width="129" height="101.609" rx="9.5" fill="#F1EAF8"/>
<rect x="0.5" y="0.5" width="129" height="101.609" rx="9.5" stroke="#5C2E89" stroke-dasharray="4 4"/>
<path d="M62.9439 33.1159C60.3673 33.1159 57.7904 33.1159 55.2132 33.1159C54.968 33.1341 54.7218 33.0991 54.4913 33.0134C54.2608 32.9277 54.0516 32.7932 53.8779 32.6192C53.7041 32.4452 53.57 32.2357 53.4846 32.0051C53.3993 31.7745 53.3647 31.5282 53.3833 31.283C53.3833 30.444 53.3833 29.6068 53.3833 28.7713C53.3762 28.5378 53.4168 28.3053 53.5027 28.0881C53.5886 27.8708 53.7179 27.6734 53.8828 27.508C54.0477 27.3425 54.2447 27.2125 54.4616 27.1259C54.6786 27.0393 54.9109 26.9978 55.1444 27.0042C60.3362 27.0042 65.5273 27.0042 70.7176 27.0042C70.9565 26.9874 71.1962 27.0213 71.4211 27.1037C71.646 27.1861 71.8509 27.3152 72.0224 27.4824C72.1938 27.6496 72.3279 27.8513 72.4159 28.0741C72.5038 28.2968 72.5436 28.5357 72.5327 28.7749C72.5837 29.704 72.5765 30.6354 72.5112 31.5636C72.4867 31.9927 72.2957 32.3953 71.9788 32.6856C71.6619 32.976 71.2442 33.1312 70.8145 33.1181C68.861 33.1255 66.9074 33.1181 64.9538 33.1218H62.9447L62.9439 33.1159Z" fill="#663399"/>
<path d="M63.8658 56.6085H60.8373C60.5101 56.6085 60.4983 56.5959 60.4976 56.262C60.4976 55.7024 60.5035 55.1427 60.4976 54.5838C60.4976 54.3862 60.5619 54.3151 60.7626 54.3196C61.2489 54.3314 61.736 54.3196 62.2224 54.3262C62.4001 54.3262 62.4697 54.2714 62.4652 54.0893C62.4563 53.6896 62.4689 53.2899 62.46 52.8908C62.46 52.6999 62.5119 52.6184 62.7199 52.6206C63.4964 52.631 64.2744 52.6295 65.051 52.6206C65.2449 52.6206 65.3057 52.6947 65.3012 52.8775C65.2923 53.2625 65.3071 53.6474 65.2953 54.0323C65.2894 54.2367 65.3693 54.2974 65.564 54.2937C66.0429 54.2848 66.5226 54.2937 67.0023 54.2885C67.2007 54.2885 67.274 54.3692 67.2733 54.5609C67.2689 55.142 67.2733 55.7231 67.2733 56.3042C67.2733 56.5589 67.2222 56.6085 66.9631 56.6092C65.9317 56.6092 64.9002 56.6092 63.8688 56.6092L63.8658 56.6085Z" fill="#663399"/>
<path d="M71.5974 56.5241H68.526C68.2195 56.5241 68.2166 56.5241 68.2158 56.228C68.2158 55.7194 68.2203 55.2116 68.2158 54.703C68.2158 54.5268 68.2758 54.4595 68.4564 54.4595C70.5292 54.4639 72.6094 54.4595 74.6866 54.4647C74.8241 54.4621 74.9608 54.4871 75.0885 54.5382C75.2162 54.5893 75.3324 54.6654 75.4302 54.7621C75.5281 54.8588 75.6056 54.9742 75.6581 55.1013C75.7106 55.2284 75.7372 55.3648 75.7362 55.5023C75.7352 55.6399 75.7067 55.7759 75.6523 55.9022C75.5979 56.0286 75.5188 56.1428 75.4196 56.2381C75.3204 56.3334 75.2031 56.4078 75.0747 56.4571C74.9463 56.5063 74.8092 56.5294 74.6718 56.5248C73.645 56.5263 72.6212 56.5234 71.5974 56.5241Z" fill="#663399"/>
<path d="M56.1376 56.5234C55.1057 56.5234 54.0745 56.5234 53.0433 56.5234C52.8311 56.5285 52.6226 56.467 52.4472 56.3475C52.2718 56.228 52.1382 56.0565 52.0654 55.8571C51.9863 55.6557 51.9746 55.4341 52.0318 55.2255C52.0891 55.0168 52.2122 54.8322 52.3829 54.6993C52.5681 54.5409 52.8056 54.457 53.0492 54.4639C55.122 54.4639 57.1888 54.4639 59.2586 54.4595C59.4474 54.4595 59.5155 54.5209 59.5118 54.7112C59.5019 55.2348 59.5019 55.7577 59.5118 56.2798C59.5155 56.4745 59.4422 56.53 59.2564 56.5293C58.2141 56.5182 57.1755 56.5241 56.1376 56.5234Z" fill="#663399"/>
<path d="M64.9692 41.4747C64.9515 41.2689 64.944 41.072 64.9366 40.8825C64.93 40.7063 64.9241 40.5397 64.91 40.3806C64.8845 40.1115 64.9133 39.8401 64.9945 39.5824C65.0758 39.3247 65.2079 39.0858 65.383 38.88C65.5788 38.659 65.8168 38.4793 66.083 38.3515C66.3492 38.2238 66.6382 38.1505 66.9331 38.136C68.2825 38.0958 69.59 37.658 70.6915 36.8776C71.0661 36.5979 71.5202 36.4452 71.9877 36.4416H72.01C72.1052 36.4423 72.2002 36.4505 72.2942 36.466C72.1636 36.2289 71.9757 36.0283 71.7475 35.8826C71.5194 35.7368 71.2584 35.6506 70.9884 35.6317L70.9395 35.6258C70.9077 35.6258 70.8751 35.6213 70.8425 35.6199C70.81 35.6184 70.7604 35.6125 70.7174 35.6125C65.5266 35.6125 60.3356 35.6125 55.1443 35.6125C54.9108 35.6061 54.6784 35.6475 54.4615 35.7341C54.2445 35.8208 54.0476 35.9508 53.8827 36.1162C53.7178 36.2817 53.5885 36.4791 53.5026 36.6963C53.4167 36.9135 53.376 37.146 53.3832 37.3795C53.3832 37.8 53.3832 38.2204 53.3832 38.638C53.3832 39.0555 53.3832 39.4693 53.3832 39.8853C53.3648 40.1305 53.3996 40.3767 53.4851 40.6072C53.5706 40.8378 53.7048 41.0471 53.8786 41.221C54.0523 41.3949 54.2616 41.5293 54.492 41.615C54.7225 41.7007 54.9687 41.7356 55.2139 41.7175C57.791 41.7175 60.3679 41.7175 62.9445 41.7175C63.6147 41.7175 64.2845 41.7175 64.9537 41.7175H64.9944C64.9862 41.645 64.9781 41.5613 64.9692 41.4747Z" fill="#663399"/>
<path d="M65.8109 45.3535C65.6718 44.9833 65.5511 44.6058 65.4453 44.2179C62.0119 44.2179 58.5782 44.2179 55.1443 44.2179C54.9108 44.2116 54.6784 44.2531 54.4615 44.3398C54.2445 44.4266 54.0476 44.5567 53.8827 44.7222C53.7178 44.8877 53.5885 45.0851 53.5026 45.3024C53.4167 45.5196 53.3761 45.7522 53.3832 45.9857V45.9909C53.3832 46.4136 53.3832 46.8355 53.3832 47.2582C53.3832 47.6809 53.3832 48.0844 53.3832 48.4974V48.5026C53.3648 48.7478 53.3995 48.9942 53.4849 49.2248C53.5703 49.4554 53.7045 49.6648 53.8783 49.8388C54.0521 50.0128 54.2614 50.1473 54.4919 50.233C54.7224 50.3187 54.9687 50.3537 55.2139 50.3355C57.7911 50.3355 60.3679 50.3355 62.9446 50.3355H64.9537C66.4762 50.3355 67.9987 50.3355 69.5212 50.3355C67.838 49.0594 66.5514 47.3318 65.8109 45.3535Z" fill="#663399"/>
<path d="M56.7575 31.1732C57.3765 31.1732 57.8783 30.6714 57.8783 30.0524C57.8783 29.4334 57.3765 28.9316 56.7575 28.9316C56.1385 28.9316 55.6367 29.4334 55.6367 30.0524C55.6367 30.6714 56.1385 31.1732 56.7575 31.1732Z" fill="white"/>
<path d="M56.7575 39.7909C57.3765 39.7909 57.8783 39.2891 57.8783 38.6701C57.8783 38.0511 57.3765 37.5493 56.7575 37.5493C56.1385 37.5493 55.6367 38.0511 55.6367 38.6701C55.6367 39.2891 56.1385 39.7909 56.7575 39.7909Z" fill="white"/>
<path d="M56.7575 48.4076C57.3765 48.4076 57.8783 47.9058 57.8783 47.2868C57.8783 46.6678 57.3765 46.166 56.7575 46.166C56.1385 46.166 55.6367 46.6678 55.6367 47.2868C55.6367 47.9058 56.1385 48.4076 56.7575 48.4076Z" fill="white"/>
<path d="M71.9983 37.4854C72.2258 37.4947 72.4446 37.5752 72.6239 37.7156C73.5454 38.3682 74.5955 38.8167 75.7042 39.031C76.1103 39.1044 76.5204 39.1538 76.9323 39.1791C77.0862 39.1764 77.2389 39.2075 77.3795 39.2702C77.5201 39.3329 77.6453 39.4257 77.7462 39.542C77.847 39.6583 77.9212 39.7953 77.9633 39.9434C78.0055 40.0915 78.0147 40.2471 77.9902 40.3991C77.9624 41.3693 77.8504 42.3353 77.6555 43.2861C77.2807 45.1649 76.397 46.9047 75.1009 48.3156C74.338 49.1263 73.4585 49.8187 72.4914 50.3698C72.3249 50.4702 72.1331 50.5207 71.9387 50.5154C71.7444 50.51 71.5557 50.4489 71.395 50.3395C69.2772 49.1515 67.6462 47.2547 66.789 44.9828C66.3638 43.8253 66.102 42.6142 66.011 41.3844C65.9799 41.0194 65.9829 40.6537 65.9518 40.2888C65.9407 40.1451 65.9598 40.0008 66.0079 39.865C66.056 39.7292 66.132 39.605 66.2311 39.5004C66.3301 39.3958 66.45 39.313 66.5829 39.2576C66.7159 39.2021 66.859 39.1751 67.003 39.1783C68.5449 39.1257 70.0376 38.6223 71.2966 37.7304C71.4971 37.5737 71.7438 37.4876 71.9983 37.4854ZM71.9325 41.374C71.9325 40.6021 71.9325 39.83 71.9325 39.0577C71.9325 38.9837 71.9673 38.8889 71.9066 38.8504C71.8459 38.8119 71.7777 38.8948 71.7207 38.9333C70.4177 39.8007 68.9099 40.3112 67.3479 40.4139C67.1562 40.4272 67.097 40.4879 67.1044 40.6767C67.1348 41.7284 67.3035 42.7715 67.6063 43.7792C67.6529 43.9316 67.741 43.9665 67.8854 43.9657C69.1562 43.9618 70.4272 43.9618 71.6985 43.9657C71.8807 43.9657 71.9413 43.9094 71.9399 43.7259C71.928 42.9441 71.9354 42.1565 71.9354 41.374H71.9325ZM71.9717 46.5989H71.9643V48.9951C71.9643 49.0477 71.9488 49.1136 71.9947 49.1432C72.0561 49.1854 72.1057 49.1202 72.1523 49.0914C72.737 48.7326 73.2846 48.3165 73.7868 47.8492C74.8527 46.8259 75.6675 45.57 76.1676 44.1797C76.2327 44.0116 76.1913 43.9746 76.0195 43.9753C74.7487 43.9798 73.4774 43.9798 72.2056 43.9753C72.0176 43.9753 71.9658 44.0442 71.9672 44.2211C71.9754 45.0139 71.9717 45.8068 71.9717 46.5981V46.5989Z" fill="#4276E0"/>
<path d="M18.6 67.5994C18.5667 67.656 18.5317 67.6977 18.495 67.7244C18.4583 67.751 18.4117 67.7644 18.355 67.7644C18.295 67.7644 18.2267 67.7377 18.15 67.6844C18.0733 67.6277 17.9767 67.566 17.86 67.4994C17.7467 67.4294 17.61 67.3677 17.45 67.3144C17.29 67.2577 17.0983 67.2294 16.875 67.2294C16.665 67.2294 16.48 67.2577 16.32 67.3144C16.1633 67.3677 16.0317 67.4427 15.925 67.5394C15.8183 67.6327 15.7367 67.7444 15.68 67.8744C15.6267 68.001 15.6 68.1394 15.6 68.2894C15.6 68.4827 15.6483 68.6427 15.745 68.7694C15.845 68.896 15.975 69.0044 16.135 69.0944C16.295 69.1844 16.4767 69.2627 16.68 69.3294C16.8833 69.396 17.0917 69.466 17.305 69.5394C17.5183 69.6094 17.7267 69.691 17.93 69.7844C18.1333 69.8777 18.315 69.996 18.475 70.1394C18.635 70.2794 18.7633 70.4527 18.86 70.6594C18.96 70.8627 19.01 71.1127 19.01 71.4094C19.01 71.726 18.955 72.0227 18.845 72.2994C18.7383 72.576 18.5817 72.8177 18.375 73.0244C18.1683 73.231 17.9133 73.3944 17.61 73.5144C17.31 73.631 16.9683 73.6894 16.585 73.6894C16.355 73.6894 16.1317 73.666 15.915 73.6194C15.6983 73.576 15.4933 73.5144 15.3 73.4344C15.1067 73.351 14.925 73.2527 14.755 73.1394C14.5883 73.0227 14.4383 72.8927 14.305 72.7494L14.61 72.2394C14.64 72.1994 14.675 72.166 14.715 72.1394C14.7583 72.1127 14.8067 72.0994 14.86 72.0994C14.93 72.0994 15.01 72.136 15.1 72.2094C15.1933 72.2827 15.3067 72.3644 15.44 72.4544C15.5767 72.541 15.7383 72.621 15.925 72.6944C16.115 72.7677 16.345 72.8044 16.615 72.8044C16.835 72.8044 17.0317 72.776 17.205 72.7194C17.3783 72.6594 17.5233 72.576 17.64 72.4694C17.76 72.3594 17.8517 72.2277 17.915 72.0744C17.9783 71.921 18.01 71.751 18.01 71.5644C18.01 71.3544 17.9617 71.1827 17.865 71.0494C17.7683 70.916 17.64 70.8044 17.48 70.7144C17.32 70.6244 17.1383 70.5477 16.935 70.4844C16.7317 70.421 16.5233 70.356 16.31 70.2894C16.0967 70.2194 15.8883 70.1394 15.685 70.0494C15.4817 69.9594 15.3 69.8427 15.14 69.6994C14.98 69.5527 14.8517 69.371 14.755 69.1544C14.6583 68.9344 14.61 68.6644 14.61 68.3444C14.61 68.0877 14.66 67.8394 14.76 67.5994C14.86 67.3594 15.005 67.1477 15.195 66.9644C15.3883 66.7777 15.625 66.6294 15.905 66.5194C16.185 66.406 16.505 66.3494 16.865 66.3494C17.2683 66.3494 17.6383 66.4144 17.975 66.5444C18.315 66.671 18.61 66.8544 18.86 67.0944L18.6 67.5994ZM23.4602 70.5044C23.4602 70.311 23.4318 70.1327 23.3752 69.9694C23.3218 69.806 23.2418 69.6644 23.1352 69.5444C23.0285 69.4244 22.8985 69.331 22.7452 69.2644C22.5918 69.1977 22.4152 69.1644 22.2152 69.1644C21.8052 69.1644 21.4818 69.2827 21.2452 69.5194C21.0118 69.756 20.8635 70.0844 20.8002 70.5044H23.4602ZM24.2652 72.8844C24.1452 73.0244 24.0068 73.146 23.8502 73.2494C23.6935 73.3494 23.5268 73.431 23.3502 73.4944C23.1735 73.5577 22.9902 73.6044 22.8002 73.6344C22.6135 73.6644 22.4285 73.6794 22.2452 73.6794C21.8952 73.6794 21.5702 73.621 21.2702 73.5044C20.9735 73.3844 20.7152 73.211 20.4952 72.9844C20.2785 72.7544 20.1085 72.471 19.9852 72.1344C19.8652 71.7944 19.8052 71.4044 19.8052 70.9644C19.8052 70.611 19.8602 70.2827 19.9702 69.9794C20.0802 69.6727 20.2368 69.406 20.4402 69.1794C20.6468 68.9527 20.8985 68.7744 21.1952 68.6444C21.4918 68.5144 21.8252 68.4494 22.1952 68.4494C22.5052 68.4494 22.7902 68.501 23.0502 68.6044C23.3135 68.7044 23.5402 68.851 23.7302 69.0444C23.9202 69.2377 24.0685 69.476 24.1752 69.7594C24.2852 70.0427 24.3402 70.366 24.3402 70.7294C24.3402 70.8794 24.3235 70.981 24.2902 71.0344C24.2568 71.0844 24.1952 71.1094 24.1052 71.1094H20.7752C20.7852 71.4127 20.8285 71.6777 20.9052 71.9044C20.9818 72.1277 21.0868 72.3144 21.2202 72.4644C21.3568 72.6144 21.5185 72.726 21.7052 72.7994C21.8918 72.8727 22.1002 72.9094 22.3302 72.9094C22.5468 72.9094 22.7335 72.8844 22.8902 72.8344C23.0502 72.7844 23.1868 72.731 23.3002 72.6744C23.4168 72.6144 23.5135 72.5594 23.5902 72.5094C23.6702 72.4594 23.7402 72.4344 23.8002 72.4344C23.8802 72.4344 23.9418 72.4644 23.9852 72.5244L24.2652 72.8844ZM28.9481 69.4794C28.9181 69.516 28.8881 69.546 28.8581 69.5694C28.8315 69.5894 28.7915 69.5994 28.7381 69.5994C28.6848 69.5994 28.6281 69.5794 28.5681 69.5394C28.5115 69.496 28.4381 69.451 28.3481 69.4044C28.2615 69.3544 28.1548 69.3094 28.0281 69.2694C27.9048 69.226 27.7515 69.2044 27.5681 69.2044C27.3281 69.2044 27.1165 69.2477 26.9331 69.3344C26.7498 69.421 26.5965 69.5444 26.4731 69.7044C26.3531 69.8644 26.2615 70.0594 26.1981 70.2894C26.1348 70.5194 26.1031 70.7777 26.1031 71.0644C26.1031 71.361 26.1365 71.626 26.2031 71.8594C26.2698 72.0894 26.3648 72.2844 26.4881 72.4444C26.6115 72.601 26.7615 72.721 26.9381 72.8044C27.1148 72.8844 27.3115 72.9244 27.5281 72.9244C27.7381 72.9244 27.9115 72.8994 28.0481 72.8494C28.1848 72.796 28.2981 72.7394 28.3881 72.6794C28.4781 72.6194 28.5531 72.5644 28.6131 72.5144C28.6731 72.461 28.7348 72.4344 28.7981 72.4344C28.8781 72.4344 28.9398 72.4644 28.9831 72.5244L29.2631 72.8844C29.1465 73.0277 29.0148 73.1494 28.8681 73.2494C28.7248 73.3494 28.5715 73.431 28.4081 73.4944C28.2448 73.5577 28.0731 73.6044 27.8931 73.6344C27.7165 73.6644 27.5365 73.6794 27.3531 73.6794C27.0365 73.6794 26.7398 73.621 26.4631 73.5044C26.1898 73.3877 25.9515 73.2177 25.7481 72.9944C25.5481 72.771 25.3898 72.4977 25.2731 72.1744C25.1565 71.8477 25.0981 71.4777 25.0981 71.0644C25.0981 70.6877 25.1498 70.3394 25.2531 70.0194C25.3598 69.6994 25.5148 69.4244 25.7181 69.1944C25.9248 68.961 26.1781 68.7794 26.4781 68.6494C26.7781 68.516 27.1215 68.4494 27.5081 68.4494C27.8715 68.4494 28.1915 68.5077 28.4681 68.6244C28.7448 68.741 28.9915 68.906 29.2081 69.1194L28.9481 69.4794ZM34.3983 68.5294V73.6094H33.8133C33.6799 73.6094 33.5933 73.5444 33.5533 73.4144L33.4833 72.9044C33.3733 73.021 33.2583 73.1277 33.1383 73.2244C33.0183 73.321 32.8899 73.4044 32.7533 73.4744C32.6166 73.541 32.4716 73.5927 32.3183 73.6294C32.1649 73.6694 31.9999 73.6894 31.8233 73.6894C31.5433 73.6894 31.2966 73.6427 31.0833 73.5494C30.8733 73.456 30.6966 73.326 30.5533 73.1594C30.4099 72.9894 30.3016 72.786 30.2283 72.5494C30.1549 72.3127 30.1183 72.051 30.1183 71.7644V68.5294H31.0983V71.7644C31.0983 72.1277 31.1816 72.411 31.3483 72.6144C31.5149 72.8144 31.7699 72.9144 32.1133 72.9144C32.3633 72.9144 32.5966 72.856 32.8133 72.7394C33.0299 72.6194 33.2333 72.456 33.4233 72.2494V68.5294H34.3983ZM36.6792 69.5044C36.8426 69.171 37.0392 68.9094 37.2692 68.7194C37.4992 68.5294 37.7759 68.4344 38.0992 68.4344C38.2092 68.4344 38.3126 68.4477 38.4092 68.4744C38.5092 68.4977 38.5959 68.5344 38.6692 68.5844L38.6042 69.3194C38.5809 69.4094 38.5259 69.4544 38.4392 69.4544C38.3926 69.4544 38.3226 69.446 38.2292 69.4294C38.1359 69.4094 38.0359 69.3994 37.9292 69.3994C37.7726 69.3994 37.6342 69.4227 37.5142 69.4694C37.3942 69.5127 37.2859 69.5794 37.1892 69.6694C37.0959 69.756 37.0126 69.8644 36.9392 69.9944C36.8659 70.121 36.7976 70.266 36.7342 70.4294V73.6094H35.7592V68.5294H36.3192C36.4259 68.5294 36.4976 68.5494 36.5342 68.5894C36.5742 68.626 36.6026 68.6927 36.6192 68.7894L36.6792 69.5044ZM42.6008 70.5044C42.6008 70.311 42.5724 70.1327 42.5158 69.9694C42.4624 69.806 42.3824 69.6644 42.2758 69.5444C42.1691 69.4244 42.0391 69.331 41.8858 69.2644C41.7324 69.1977 41.5558 69.1644 41.3558 69.1644C40.9458 69.1644 40.6224 69.2827 40.3858 69.5194C40.1524 69.756 40.0041 70.0844 39.9408 70.5044H42.6008ZM43.4058 72.8844C43.2858 73.0244 43.1474 73.146 42.9908 73.2494C42.8341 73.3494 42.6674 73.431 42.4908 73.4944C42.3141 73.5577 42.1308 73.6044 41.9408 73.6344C41.7541 73.6644 41.5691 73.6794 41.3858 73.6794C41.0358 73.6794 40.7108 73.621 40.4108 73.5044C40.1141 73.3844 39.8558 73.211 39.6358 72.9844C39.4191 72.7544 39.2491 72.471 39.1258 72.1344C39.0058 71.7944 38.9458 71.4044 38.9458 70.9644C38.9458 70.611 39.0008 70.2827 39.1108 69.9794C39.2208 69.6727 39.3774 69.406 39.5808 69.1794C39.7874 68.9527 40.0391 68.7744 40.3358 68.6444C40.6324 68.5144 40.9658 68.4494 41.3358 68.4494C41.6458 68.4494 41.9308 68.501 42.1908 68.6044C42.4541 68.7044 42.6808 68.851 42.8708 69.0444C43.0608 69.2377 43.2091 69.476 43.3158 69.7594C43.4258 70.0427 43.4808 70.366 43.4808 70.7294C43.4808 70.8794 43.4641 70.981 43.4308 71.0344C43.3974 71.0844 43.3358 71.1094 43.2458 71.1094H39.9158C39.9258 71.4127 39.9691 71.6777 40.0458 71.9044C40.1224 72.1277 40.2274 72.3144 40.3608 72.4644C40.4974 72.6144 40.6591 72.726 40.8458 72.7994C41.0324 72.8727 41.2408 72.9094 41.4708 72.9094C41.6874 72.9094 41.8741 72.8844 42.0308 72.8344C42.1908 72.7844 42.3274 72.731 42.4408 72.6744C42.5574 72.6144 42.6541 72.5594 42.7308 72.5094C42.8108 72.4594 42.8808 72.4344 42.9408 72.4344C43.0208 72.4344 43.0824 72.4644 43.1258 72.5244L43.4058 72.8844ZM53.118 70.1144V72.9144C52.7547 73.1744 52.368 73.3694 51.958 73.4994C51.548 73.626 51.1014 73.6894 50.618 73.6894C50.038 73.6894 49.513 73.5994 49.043 73.4194C48.5764 73.2394 48.178 72.9877 47.848 72.6644C47.518 72.341 47.263 71.9544 47.083 71.5044C46.9064 71.0544 46.818 70.5594 46.818 70.0194C46.818 69.476 46.903 68.9794 47.073 68.5294C47.2464 68.076 47.493 67.6894 47.813 67.3694C48.133 67.046 48.5197 66.796 48.973 66.6194C49.4297 66.4394 49.9414 66.3494 50.508 66.3494C50.7947 66.3494 51.0597 66.371 51.303 66.4144C51.5497 66.4577 51.778 66.5194 51.988 66.5994C52.198 66.6794 52.3914 66.776 52.568 66.8894C52.748 66.9994 52.9147 67.1244 53.068 67.2644L52.763 67.7444C52.7164 67.821 52.6547 67.8694 52.578 67.8894C52.5014 67.9094 52.418 67.891 52.328 67.8344C52.2414 67.7844 52.1447 67.726 52.038 67.6594C51.9347 67.5927 51.8097 67.531 51.663 67.4744C51.5197 67.4177 51.3514 67.3694 51.158 67.3294C50.9647 67.2894 50.7364 67.2694 50.473 67.2694C50.0797 67.2694 49.7247 67.3344 49.408 67.4644C49.0914 67.591 48.8214 67.7744 48.598 68.0144C48.3747 68.2544 48.203 68.5444 48.083 68.8844C47.963 69.221 47.903 69.5994 47.903 70.0194C47.903 70.4594 47.9664 70.8544 48.093 71.2044C48.2197 71.551 48.398 71.846 48.628 72.0894C48.8614 72.3294 49.143 72.5127 49.473 72.6394C49.8064 72.766 50.178 72.8294 50.588 72.8294C50.748 72.8294 50.8964 72.821 51.033 72.8044C51.173 72.7844 51.3064 72.7577 51.433 72.7244C51.5597 72.691 51.6814 72.6494 51.798 72.5994C51.918 72.5494 52.0364 72.4944 52.153 72.4344V70.9294H51.093C51.0264 70.9294 50.9714 70.9094 50.928 70.8694C50.888 70.8294 50.868 70.7794 50.868 70.7194V70.1144H53.118ZM57.0537 71.3544C56.657 71.3677 56.3203 71.3994 56.0437 71.4494C55.767 71.496 55.542 71.5594 55.3687 71.6394C55.1953 71.7194 55.0703 71.8144 54.9937 71.9244C54.917 72.031 54.8787 72.151 54.8787 72.2844C54.8787 72.411 54.8987 72.521 54.9387 72.6144C54.982 72.7044 55.0387 72.7794 55.1087 72.8394C55.182 72.896 55.267 72.9377 55.3637 72.9644C55.4603 72.991 55.5653 73.0044 55.6787 73.0044C55.8287 73.0044 55.9653 72.9894 56.0887 72.9594C56.2153 72.9294 56.3337 72.8877 56.4437 72.8344C56.5537 72.7777 56.6587 72.7094 56.7587 72.6294C56.8587 72.5494 56.957 72.4577 57.0537 72.3544V71.3544ZM54.1937 69.2394C54.477 68.9694 54.7837 68.7677 55.1137 68.6344C55.447 68.501 55.812 68.4344 56.2087 68.4344C56.4987 68.4344 56.7553 68.4827 56.9787 68.5794C57.202 68.6727 57.3903 68.8044 57.5437 68.9744C57.697 69.1444 57.812 69.3477 57.8887 69.5844C57.9687 69.821 58.0087 70.0827 58.0087 70.3694V73.6094H57.5737C57.477 73.6094 57.4037 73.5944 57.3537 73.5644C57.3037 73.531 57.2637 73.471 57.2337 73.3844L57.1287 72.9394C56.9987 73.0594 56.8703 73.166 56.7437 73.2594C56.617 73.3494 56.4837 73.4277 56.3437 73.4944C56.207 73.5577 56.0603 73.606 55.9037 73.6394C55.747 73.6727 55.5737 73.6894 55.3837 73.6894C55.1837 73.6894 54.9953 73.6627 54.8187 73.6094C54.6453 73.5527 54.4937 73.4677 54.3637 73.3544C54.2337 73.241 54.1303 73.0994 54.0537 72.9294C53.9803 72.7594 53.9437 72.561 53.9437 72.3344C53.9437 72.1344 53.997 71.9427 54.1037 71.7594C54.2137 71.5727 54.3903 71.406 54.6337 71.2594C54.8803 71.1127 55.2003 70.9927 55.5937 70.8994C55.9903 70.806 56.477 70.7527 57.0537 70.7394V70.3694C57.0537 69.986 56.972 69.6994 56.8087 69.5094C56.6453 69.3194 56.4053 69.2244 56.0887 69.2244C55.8753 69.2244 55.6953 69.251 55.5487 69.3044C55.4053 69.3577 55.2803 69.4177 55.1737 69.4844C55.0703 69.5477 54.9787 69.606 54.8987 69.6594C54.822 69.7127 54.742 69.7394 54.6587 69.7394C54.592 69.7394 54.5337 69.721 54.4837 69.6844C54.437 69.6477 54.3987 69.6044 54.3687 69.5544L54.1937 69.2394ZM60.8355 73.6894C60.4255 73.6894 60.1089 73.5744 59.8855 73.3444C59.6655 73.1144 59.5555 72.786 59.5555 72.3594V69.3194H58.9655C58.9089 69.3194 58.8605 69.3027 58.8205 69.2694C58.7839 69.2327 58.7655 69.1794 58.7655 69.1094V68.7144L59.5905 68.5994L59.8105 67.0844C59.8239 67.0277 59.8489 66.9844 59.8855 66.9544C59.9255 66.921 59.9755 66.9044 60.0355 66.9044H60.5305V68.6094H61.9705V69.3194H60.5305V72.2944C60.5305 72.4944 60.5789 72.6444 60.6755 72.7444C60.7755 72.841 60.9022 72.8894 61.0555 72.8894C61.1455 72.8894 61.2222 72.8777 61.2855 72.8544C61.3522 72.831 61.4089 72.806 61.4555 72.7794C61.5022 72.7494 61.5422 72.7227 61.5755 72.6994C61.6089 72.676 61.6389 72.6644 61.6655 72.6644C61.6989 72.6644 61.7239 72.6727 61.7405 72.6894C61.7605 72.7027 61.7805 72.726 61.8005 72.7594L62.0905 73.2294C61.9305 73.376 61.7405 73.4894 61.5205 73.5694C61.3005 73.6494 61.0722 73.6894 60.8355 73.6894ZM66.2043 70.5044C66.2043 70.311 66.176 70.1327 66.1193 69.9694C66.066 69.806 65.986 69.6644 65.8793 69.5444C65.7726 69.4244 65.6426 69.331 65.4893 69.2644C65.336 69.1977 65.1593 69.1644 64.9593 69.1644C64.5493 69.1644 64.226 69.2827 63.9893 69.5194C63.756 69.756 63.6076 70.0844 63.5443 70.5044H66.2043ZM67.0093 72.8844C66.8893 73.0244 66.751 73.146 66.5943 73.2494C66.4376 73.3494 66.271 73.431 66.0943 73.4944C65.9176 73.5577 65.7343 73.6044 65.5443 73.6344C65.3576 73.6644 65.1726 73.6794 64.9893 73.6794C64.6393 73.6794 64.3143 73.621 64.0143 73.5044C63.7176 73.3844 63.4593 73.211 63.2393 72.9844C63.0226 72.7544 62.8526 72.471 62.7293 72.1344C62.6093 71.7944 62.5493 71.4044 62.5493 70.9644C62.5493 70.611 62.6043 70.2827 62.7143 69.9794C62.8243 69.6727 62.981 69.406 63.1843 69.1794C63.391 68.9527 63.6426 68.7744 63.9393 68.6444C64.236 68.5144 64.5693 68.4494 64.9393 68.4494C65.2493 68.4494 65.5343 68.501 65.7943 68.6044C66.0576 68.7044 66.2843 68.851 66.4743 69.0444C66.6643 69.2377 66.8126 69.476 66.9193 69.7594C67.0293 70.0427 67.0843 70.366 67.0843 70.7294C67.0843 70.8794 67.0676 70.981 67.0343 71.0344C67.001 71.0844 66.9393 71.1094 66.8493 71.1094H63.5193C63.5293 71.4127 63.5726 71.6777 63.6493 71.9044C63.726 72.1277 63.831 72.3144 63.9643 72.4644C64.101 72.6144 64.2626 72.726 64.4493 72.7994C64.636 72.8727 64.8443 72.9094 65.0743 72.9094C65.291 72.9094 65.4776 72.8844 65.6343 72.8344C65.7943 72.7844 65.931 72.731 66.0443 72.6744C66.161 72.6144 66.2576 72.5594 66.3343 72.5094C66.4143 72.4594 66.4843 72.4344 66.5443 72.4344C66.6243 72.4344 66.686 72.4644 66.7293 72.5244L67.0093 72.8844ZM75.1387 68.5294L73.5037 73.6094H72.7237C72.6303 73.6094 72.567 73.5477 72.5337 73.4244L71.4637 70.1144C71.437 70.031 71.4137 69.9494 71.3937 69.8694C71.3737 69.786 71.3553 69.7027 71.3387 69.6194C71.3087 69.7927 71.267 69.961 71.2137 70.1244L70.1287 73.4244C70.0953 73.5477 70.0237 73.6094 69.9137 73.6094H69.1737L67.5337 68.5294H68.3037C68.3803 68.5294 68.4437 68.5477 68.4937 68.5844C68.547 68.621 68.582 68.6677 68.5987 68.7244L69.5137 71.8444C69.5437 71.971 69.5703 72.0944 69.5937 72.2144C69.617 72.3344 69.6387 72.4544 69.6587 72.5744C69.6887 72.4544 69.7203 72.3344 69.7537 72.2144C69.7903 72.0944 69.827 71.971 69.8637 71.8444L70.8787 68.7044C70.8953 68.6477 70.927 68.6027 70.9737 68.5694C71.0203 68.5327 71.077 68.5144 71.1437 68.5144H71.5687C71.642 68.5144 71.702 68.5327 71.7487 68.5694C71.7987 68.6027 71.832 68.6477 71.8487 68.7044L72.8387 71.8444C72.8753 71.971 72.9103 72.096 72.9437 72.2194C72.977 72.3394 73.007 72.461 73.0337 72.5844C73.0537 72.4644 73.077 72.3444 73.1037 72.2244C73.1303 72.101 73.1603 71.9744 73.1937 71.8444L74.1237 68.7244C74.1403 68.6677 74.1737 68.621 74.2237 68.5844C74.277 68.5477 74.337 68.5294 74.4037 68.5294H75.1387ZM78.6357 71.3544C78.239 71.3677 77.9024 71.3994 77.6257 71.4494C77.349 71.496 77.124 71.5594 76.9507 71.6394C76.7774 71.7194 76.6524 71.8144 76.5757 71.9244C76.499 72.031 76.4607 72.151 76.4607 72.2844C76.4607 72.411 76.4807 72.521 76.5207 72.6144C76.564 72.7044 76.6207 72.7794 76.6907 72.8394C76.764 72.896 76.849 72.9377 76.9457 72.9644C77.0424 72.991 77.1474 73.0044 77.2607 73.0044C77.4107 73.0044 77.5474 72.9894 77.6707 72.9594C77.7974 72.9294 77.9157 72.8877 78.0257 72.8344C78.1357 72.7777 78.2407 72.7094 78.3407 72.6294C78.4407 72.5494 78.539 72.4577 78.6357 72.3544V71.3544ZM75.7757 69.2394C76.059 68.9694 76.3657 68.7677 76.6957 68.6344C77.029 68.501 77.394 68.4344 77.7907 68.4344C78.0807 68.4344 78.3374 68.4827 78.5607 68.5794C78.784 68.6727 78.9724 68.8044 79.1257 68.9744C79.279 69.1444 79.394 69.3477 79.4707 69.5844C79.5507 69.821 79.5907 70.0827 79.5907 70.3694V73.6094H79.1557C79.059 73.6094 78.9857 73.5944 78.9357 73.5644C78.8857 73.531 78.8457 73.471 78.8157 73.3844L78.7107 72.9394C78.5807 73.0594 78.4524 73.166 78.3257 73.2594C78.199 73.3494 78.0657 73.4277 77.9257 73.4944C77.789 73.5577 77.6424 73.606 77.4857 73.6394C77.329 73.6727 77.1557 73.6894 76.9657 73.6894C76.7657 73.6894 76.5774 73.6627 76.4007 73.6094C76.2274 73.5527 76.0757 73.4677 75.9457 73.3544C75.8157 73.241 75.7124 73.0994 75.6357 72.9294C75.5624 72.7594 75.5257 72.561 75.5257 72.3344C75.5257 72.1344 75.579 71.9427 75.6857 71.7594C75.7957 71.5727 75.9724 71.406 76.2157 71.2594C76.4624 71.1127 76.7824 70.9927 77.1757 70.8994C77.5724 70.806 78.059 70.7527 78.6357 70.7394V70.3694C78.6357 69.986 78.554 69.6994 78.3907 69.5094C78.2274 69.3194 77.9874 69.2244 77.6707 69.2244C77.4574 69.2244 77.2774 69.251 77.1307 69.3044C76.9874 69.3577 76.8624 69.4177 76.7557 69.4844C76.6524 69.5477 76.5607 69.606 76.4807 69.6594C76.404 69.7127 76.324 69.7394 76.2407 69.7394C76.174 69.7394 76.1157 69.721 76.0657 69.6844C76.019 69.6477 75.9807 69.6044 75.9507 69.5544L75.7757 69.2394ZM85.209 68.5294L82.389 75.0844C82.359 75.1577 82.319 75.2144 82.269 75.2544C82.219 75.2944 82.1457 75.3144 82.049 75.3144H81.324L82.254 73.2894L80.169 68.5294H81.019C81.1023 68.5294 81.1673 68.5494 81.214 68.5894C81.2607 68.6294 81.294 68.6744 81.314 68.7244L82.604 71.7744C82.6307 71.851 82.6557 71.9294 82.679 72.0094C82.7057 72.086 82.7273 72.1627 82.744 72.2394C82.7673 72.1594 82.7923 72.081 82.819 72.0044C82.8457 71.9244 82.874 71.846 82.904 71.7694L84.149 68.7244C84.1723 68.6677 84.209 68.621 84.259 68.5844C84.309 68.5477 84.3657 68.5294 84.429 68.5294H85.209ZM92.1547 67.5994C92.1214 67.656 92.0864 67.6977 92.0497 67.7244C92.013 67.751 91.9664 67.7644 91.9097 67.7644C91.8497 67.7644 91.7814 67.7377 91.7047 67.6844C91.628 67.6277 91.5314 67.566 91.4147 67.4994C91.3014 67.4294 91.1647 67.3677 91.0047 67.3144C90.8447 67.2577 90.653 67.2294 90.4297 67.2294C90.2197 67.2294 90.0347 67.2577 89.8747 67.3144C89.718 67.3677 89.5864 67.4427 89.4797 67.5394C89.373 67.6327 89.2914 67.7444 89.2347 67.8744C89.1814 68.001 89.1547 68.1394 89.1547 68.2894C89.1547 68.4827 89.203 68.6427 89.2997 68.7694C89.3997 68.896 89.5297 69.0044 89.6897 69.0944C89.8497 69.1844 90.0314 69.2627 90.2347 69.3294C90.438 69.396 90.6464 69.466 90.8597 69.5394C91.073 69.6094 91.2814 69.691 91.4847 69.7844C91.688 69.8777 91.8697 69.996 92.0297 70.1394C92.1897 70.2794 92.318 70.4527 92.4147 70.6594C92.5147 70.8627 92.5647 71.1127 92.5647 71.4094C92.5647 71.726 92.5097 72.0227 92.3997 72.2994C92.293 72.576 92.1364 72.8177 91.9297 73.0244C91.723 73.231 91.468 73.3944 91.1647 73.5144C90.8647 73.631 90.523 73.6894 90.1397 73.6894C89.9097 73.6894 89.6864 73.666 89.4697 73.6194C89.253 73.576 89.048 73.5144 88.8547 73.4344C88.6614 73.351 88.4797 73.2527 88.3097 73.1394C88.143 73.0227 87.993 72.8927 87.8597 72.7494L88.1647 72.2394C88.1947 72.1994 88.2297 72.166 88.2697 72.1394C88.313 72.1127 88.3614 72.0994 88.4147 72.0994C88.4847 72.0994 88.5647 72.136 88.6547 72.2094C88.748 72.2827 88.8614 72.3644 88.9947 72.4544C89.1314 72.541 89.293 72.621 89.4797 72.6944C89.6697 72.7677 89.8997 72.8044 90.1697 72.8044C90.3897 72.8044 90.5864 72.776 90.7597 72.7194C90.933 72.6594 91.078 72.576 91.1947 72.4694C91.3147 72.3594 91.4064 72.2277 91.4697 72.0744C91.533 71.921 91.5647 71.751 91.5647 71.5644C91.5647 71.3544 91.5164 71.1827 91.4197 71.0494C91.323 70.916 91.1947 70.8044 91.0347 70.7144C90.8747 70.6244 90.693 70.5477 90.4897 70.4844C90.2864 70.421 90.078 70.356 89.8647 70.2894C89.6514 70.2194 89.443 70.1394 89.2397 70.0494C89.0364 69.9594 88.8547 69.8427 88.6947 69.6994C88.5347 69.5527 88.4064 69.371 88.3097 69.1544C88.213 68.9344 88.1647 68.6644 88.1647 68.3444C88.1647 68.0877 88.2147 67.8394 88.3147 67.5994C88.4147 67.3594 88.5597 67.1477 88.7497 66.9644C88.943 66.7777 89.1797 66.6294 89.4597 66.5194C89.7397 66.406 90.0597 66.3494 90.4197 66.3494C90.823 66.3494 91.193 66.4144 91.5297 66.5444C91.8697 66.671 92.1647 66.8544 92.4147 67.0944L92.1547 67.5994ZM97.0148 70.5044C97.0148 70.311 96.9865 70.1327 96.9298 69.9694C96.8765 69.806 96.7965 69.6644 96.6898 69.5444C96.5832 69.4244 96.4532 69.331 96.2998 69.2644C96.1465 69.1977 95.9698 69.1644 95.7698 69.1644C95.3598 69.1644 95.0365 69.2827 94.7998 69.5194C94.5665 69.756 94.4182 70.0844 94.3548 70.5044H97.0148ZM97.8198 72.8844C97.6998 73.0244 97.5615 73.146 97.4048 73.2494C97.2482 73.3494 97.0815 73.431 96.9048 73.4944C96.7282 73.5577 96.5448 73.6044 96.3548 73.6344C96.1682 73.6644 95.9832 73.6794 95.7998 73.6794C95.4498 73.6794 95.1248 73.621 94.8248 73.5044C94.5282 73.3844 94.2698 73.211 94.0498 72.9844C93.8332 72.7544 93.6632 72.471 93.5398 72.1344C93.4198 71.7944 93.3598 71.4044 93.3598 70.9644C93.3598 70.611 93.4148 70.2827 93.5248 69.9794C93.6348 69.6727 93.7915 69.406 93.9948 69.1794C94.2015 68.9527 94.4532 68.7744 94.7498 68.6444C95.0465 68.5144 95.3798 68.4494 95.7498 68.4494C96.0598 68.4494 96.3448 68.501 96.6048 68.6044C96.8682 68.7044 97.0948 68.851 97.2848 69.0444C97.4748 69.2377 97.6232 69.476 97.7298 69.7594C97.8398 70.0427 97.8948 70.366 97.8948 70.7294C97.8948 70.8794 97.8782 70.981 97.8448 71.0344C97.8115 71.0844 97.7498 71.1094 97.6598 71.1094H94.3298C94.3398 71.4127 94.3832 71.6777 94.4598 71.9044C94.5365 72.1277 94.6415 72.3144 94.7748 72.4644C94.9115 72.6144 95.0732 72.726 95.2598 72.7994C95.4465 72.8727 95.6548 72.9094 95.8848 72.9094C96.1015 72.9094 96.2882 72.8844 96.4448 72.8344C96.6048 72.7844 96.7415 72.731 96.8548 72.6744C96.9715 72.6144 97.0682 72.5594 97.1448 72.5094C97.2248 72.4594 97.2948 72.4344 97.3548 72.4344C97.4348 72.4344 97.4965 72.4644 97.5398 72.5244L97.8198 72.8844ZM99.8628 69.5044C100.026 69.171 100.223 68.9094 100.453 68.7194C100.683 68.5294 100.959 68.4344 101.283 68.4344C101.393 68.4344 101.496 68.4477 101.593 68.4744C101.693 68.4977 101.779 68.5344 101.853 68.5844L101.788 69.3194C101.764 69.4094 101.709 69.4544 101.623 69.4544C101.576 69.4544 101.506 69.446 101.413 69.4294C101.319 69.4094 101.219 69.3994 101.113 69.3994C100.956 69.3994 100.818 69.4227 100.698 69.4694C100.578 69.5127 100.469 69.5794 100.373 69.6694C100.279 69.756 100.196 69.8644 100.123 69.9944C100.049 70.121 99.9811 70.266 99.9178 70.4294V73.6094H98.9428V68.5294H99.5028C99.6095 68.5294 99.6811 68.5494 99.7178 68.5894C99.7578 68.626 99.7861 68.6927 99.8028 68.7894L99.8628 69.5044ZM107.015 68.5294L104.955 73.6094H104.075L102.015 68.5294H102.82C102.897 68.5294 102.96 68.5477 103.01 68.5844C103.06 68.621 103.093 68.6677 103.11 68.7244L104.325 71.8444C104.368 71.9744 104.405 72.1044 104.435 72.2344C104.468 72.361 104.498 72.4877 104.525 72.6144C104.552 72.4877 104.582 72.361 104.615 72.2344C104.648 72.1077 104.688 71.9777 104.735 71.8444L105.965 68.7244C105.985 68.6677 106.02 68.621 106.07 68.5844C106.12 68.5477 106.18 68.5294 106.25 68.5294H107.015ZM111.009 70.5044C111.009 70.311 110.981 70.1327 110.924 69.9694C110.871 69.806 110.791 69.6644 110.684 69.5444C110.577 69.4244 110.447 69.331 110.294 69.2644C110.141 69.1977 109.964 69.1644 109.764 69.1644C109.354 69.1644 109.031 69.2827 108.794 69.5194C108.561 69.756 108.412 70.0844 108.349 70.5044H111.009ZM111.814 72.8844C111.694 73.0244 111.556 73.146 111.399 73.2494C111.242 73.3494 111.076 73.431 110.899 73.4944C110.722 73.5577 110.539 73.6044 110.349 73.6344C110.162 73.6644 109.977 73.6794 109.794 73.6794C109.444 73.6794 109.119 73.621 108.819 73.5044C108.522 73.3844 108.264 73.211 108.044 72.9844C107.827 72.7544 107.657 72.471 107.534 72.1344C107.414 71.7944 107.354 71.4044 107.354 70.9644C107.354 70.611 107.409 70.2827 107.519 69.9794C107.629 69.6727 107.786 69.406 107.989 69.1794C108.196 68.9527 108.447 68.7744 108.744 68.6444C109.041 68.5144 109.374 68.4494 109.744 68.4494C110.054 68.4494 110.339 68.501 110.599 68.6044C110.862 68.7044 111.089 68.851 111.279 69.0444C111.469 69.2377 111.617 69.476 111.724 69.7594C111.834 70.0427 111.889 70.366 111.889 70.7294C111.889 70.8794 111.872 70.981 111.839 71.0344C111.806 71.0844 111.744 71.1094 111.654 71.1094H108.324C108.334 71.4127 108.377 71.6777 108.454 71.9044C108.531 72.1277 108.636 72.3144 108.769 72.4644C108.906 72.6144 109.067 72.726 109.254 72.7994C109.441 72.8727 109.649 72.9094 109.879 72.9094C110.096 72.9094 110.282 72.8844 110.439 72.8344C110.599 72.7844 110.736 72.731 110.849 72.6744C110.966 72.6144 111.062 72.5594 111.139 72.5094C111.219 72.4594 111.289 72.4344 111.349 72.4344C111.429 72.4344 111.491 72.4644 111.534 72.5244L111.814 72.8844ZM113.857 69.5044C114.02 69.171 114.217 68.9094 114.447 68.7194C114.677 68.5294 114.954 68.4344 115.277 68.4344C115.387 68.4344 115.49 68.4477 115.587 68.4744C115.687 68.4977 115.774 68.5344 115.847 68.5844L115.782 69.3194C115.759 69.4094 115.704 69.4544 115.617 69.4544C115.57 69.4544 115.5 69.446 115.407 69.4294C115.314 69.4094 115.214 69.3994 115.107 69.3994C114.95 69.3994 114.812 69.4227 114.692 69.4694C114.572 69.5127 114.464 69.5794 114.367 69.6694C114.274 69.756 114.19 69.8644 114.117 69.9944C114.044 70.121 113.975 70.266 113.912 70.4294V73.6094H112.937V68.5294H113.497C113.604 68.5294 113.675 68.5494 113.712 68.5894C113.752 68.626 113.78 68.6927 113.797 68.7894L113.857 69.5044Z" fill="#2A303D"/>
</svg>
