<svg width="170" height="140" viewBox="0 0 170 140" fill="none" xmlns="http://www.w3.org/2000/svg">
<rect x="0.5" y="0.5" width="169" height="139" rx="9.5" fill="white"/>
<rect x="0.5" y="0.5" width="169" height="139" rx="9.5" stroke="#B4BBCC" stroke-dasharray="4 4"/>
<mask id="path-2-inside-1_2731_13152" fill="white">
<path d="M90.2209 82.4543H65.9332C65.7963 82.4543 65.6934 82.4543 65.6157 82.4467C65.5561 82.446 65.4986 82.428 65.4528 82.3955C65.4148 82.3563 65.3937 82.3072 65.3928 82.2564C65.384 82.1932 65.384 82.1028 65.384 81.9852L65.3706 47.0684C65.3643 46.7552 65.4168 46.4431 65.5261 46.1441C65.6177 45.8958 65.7765 45.6695 65.9895 45.4834C66.2068 45.3013 66.4713 45.1654 66.7616 45.087C67.1114 44.9932 67.4766 44.9482 67.8431 44.9536H87.8143C88.0999 44.9513 88.3848 44.9802 88.6619 45.0395C88.9032 45.0918 89.133 45.1772 89.3422 45.2924C89.5366 45.4003 89.706 45.5379 89.8419 45.6983C89.9808 45.8646 90.0846 46.0503 90.1484 46.2471C90.1711 46.2969 90.1887 46.3483 90.2009 46.4008C90.2135 46.4551 90.2224 46.51 90.2276 46.5652C90.2335 46.6214 90.2357 46.679 90.2372 46.7371C90.2387 46.7953 90.2372 46.8541 90.2372 46.9123L90.2187 82.4543"/>
</mask>
<path d="M90.2209 82.4543H65.9332C65.7963 82.4543 65.6934 82.4543 65.6157 82.4467C65.5561 82.446 65.4986 82.428 65.4528 82.3955C65.4148 82.3563 65.3937 82.3072 65.3928 82.2564C65.384 82.1932 65.384 82.1028 65.384 81.9852L65.3706 47.0684C65.3643 46.7552 65.4168 46.4431 65.5261 46.1441C65.6177 45.8958 65.7765 45.6695 65.9895 45.4834C66.2068 45.3013 66.4713 45.1654 66.7616 45.087C67.1114 44.9932 67.4766 44.9482 67.8431 44.9536H87.8143C88.0999 44.9513 88.3848 44.9802 88.6619 45.0395C88.9032 45.0918 89.133 45.1772 89.3422 45.2924C89.5366 45.4003 89.706 45.5379 89.8419 45.6983C89.9808 45.8646 90.0846 46.0503 90.1484 46.2471C90.1711 46.2969 90.1887 46.3483 90.2009 46.4008C90.2135 46.4551 90.2224 46.51 90.2276 46.5652C90.2335 46.6214 90.2357 46.679 90.2372 46.7371C90.2387 46.7953 90.2372 46.8541 90.2372 46.9123L90.2187 82.4543" fill="#5F6C89"/>
<path d="M65.6157 82.4467L65.7128 81.4514L65.67 81.4473L65.627 81.4468L65.6157 82.4467ZM65.4528 82.3955L64.7346 83.0913L64.7992 83.158L64.8749 83.2116L65.4528 82.3955ZM65.3928 82.2564L66.3927 82.2397L66.3917 82.1782L66.3831 82.1173L65.3928 82.2564ZM65.384 81.9852H66.384L66.384 81.9848L65.384 81.9852ZM65.3706 47.0684L66.3706 47.0681L66.3706 47.0581L66.3704 47.0482L65.3706 47.0684ZM65.5261 46.1441L64.5879 45.7978L64.5869 45.8008L65.5261 46.1441ZM65.9895 45.4834L65.3472 44.7169L65.3393 44.7235L65.3316 44.7303L65.9895 45.4834ZM66.7616 45.087L66.5028 44.121L66.5006 44.1216L66.7616 45.087ZM67.8431 44.9536L67.8285 45.9534L67.8358 45.9536H67.8431V44.9536ZM87.8143 44.9536V45.9536L87.8222 45.9535L87.8143 44.9536ZM88.6619 45.0395L88.8734 44.0622L88.8713 44.0617L88.6619 45.0395ZM89.3422 45.2924L89.8272 44.4179L89.8247 44.4166L89.3422 45.2924ZM89.8419 45.6983L90.6091 45.057L90.6051 45.0522L89.8419 45.6983ZM90.1484 46.2471L89.1971 46.5555L89.2149 46.6104L89.2389 46.6628L90.1484 46.2471ZM90.2009 46.4008L91.175 46.1746L91.1748 46.1739L90.2009 46.4008ZM90.2276 46.5652L89.2318 46.6579L89.2331 46.6698L90.2276 46.5652ZM90.2372 46.9123L91.2372 46.9128V46.9123H90.2372ZM90.2209 82.4543V81.4543H65.9332V82.4543V83.4543H90.2209V82.4543ZM65.9332 82.4543V81.4543C65.8621 81.4543 65.812 81.4543 65.7703 81.4535C65.7505 81.4531 65.7361 81.4527 65.7257 81.4522C65.7152 81.4517 65.7115 81.4513 65.7128 81.4514L65.6157 82.4467L65.5185 83.442C65.6564 83.4554 65.8175 83.4543 65.9332 83.4543V82.4543ZM65.6157 82.4467L65.627 81.4468C65.7577 81.4483 65.9005 81.4872 66.0307 81.5794L65.4528 82.3955L64.8749 83.2116C65.0968 83.3687 65.3545 83.4438 65.6043 83.4466L65.6157 82.4467ZM65.4528 82.3955L66.171 81.6997C66.2957 81.8284 66.389 82.0171 66.3927 82.2397L65.3928 82.2564L64.393 82.2731C64.3984 82.5974 64.534 82.8843 64.7346 83.0913L65.4528 82.3955ZM65.3928 82.2564L66.3831 82.1173C66.3853 82.1328 66.3857 82.1411 66.3856 82.139C66.3855 82.1372 66.3851 82.1305 66.3848 82.1166C66.384 82.0862 66.384 82.0476 66.384 81.9852H65.384H64.384C64.384 82.0693 64.3815 82.2457 64.4026 82.3955L65.3928 82.2564ZM65.384 81.9852L66.384 81.9848L66.3706 47.0681L65.3706 47.0684L64.3706 47.0688L64.384 81.9855L65.384 81.9852ZM65.3706 47.0684L66.3704 47.0482C66.3666 46.8609 66.3978 46.672 66.4653 46.4874L65.5261 46.1441L64.5869 45.8008C64.4357 46.2143 64.3619 46.6495 64.3708 47.0887L65.3706 47.0684ZM65.5261 46.1441L66.4642 46.4903C66.494 46.4098 66.5514 46.3204 66.6474 46.2365L65.9895 45.4834L65.3316 44.7303C65.0015 45.0186 64.7415 45.3819 64.5879 45.7978L65.5261 46.1441ZM65.9895 45.4834L66.6318 46.2498C66.7313 46.1664 66.8637 46.0953 67.0226 46.0523L66.7616 45.087L66.5006 44.1216C66.0789 44.2356 65.6823 44.4361 65.3472 44.7169L65.9895 45.4834ZM66.7616 45.087L67.0204 46.0529C67.28 45.9833 67.5531 45.9494 67.8285 45.9534L67.8431 44.9536L67.8578 43.9537C67.4001 43.947 66.9428 44.0031 66.5028 44.121L66.7616 45.087ZM67.8431 44.9536V45.9536H87.8143V44.9536V43.9536H67.8431V44.9536ZM87.8143 44.9536L87.8222 45.9535C88.0354 45.9518 88.2474 45.9734 88.4525 46.0174L88.6619 45.0395L88.8713 44.0617C88.5222 43.9869 88.1645 43.9508 87.8064 43.9536L87.8143 44.9536ZM88.6619 45.0395L88.4504 46.0169C88.6001 46.0493 88.7382 46.1014 88.8597 46.1683L89.3422 45.2924L89.8247 44.4166C89.5278 44.2529 89.2063 44.1342 88.8734 44.0622L88.6619 45.0395ZM89.3422 45.2924L88.8572 46.1669C88.952 46.2195 89.0254 46.2816 89.0787 46.3445L89.8419 45.6983L90.6051 45.0522C90.3867 44.7942 90.1213 44.581 89.8272 44.4179L89.3422 45.2924ZM89.8419 45.6983L89.0746 46.3397C89.1354 46.4124 89.1746 46.4861 89.1971 46.5555L90.1484 46.2471L91.0996 45.9388C90.9945 45.6145 90.8262 45.3167 90.6091 45.057L89.8419 45.6983ZM90.1484 46.2471L89.2389 46.6628C89.2344 46.653 89.2302 46.6412 89.227 46.6276L90.2009 46.4008L91.1748 46.1739C91.1473 46.0555 91.1079 45.9409 91.0579 45.8315L90.1484 46.2471ZM90.2009 46.4008L89.2268 46.6269C89.2293 46.6376 89.2309 46.6479 89.2319 46.6579L90.2276 46.5652L91.2233 46.4724C91.2139 46.372 91.1978 46.2726 91.175 46.1746L90.2009 46.4008ZM90.2276 46.5652L89.2331 46.6698C89.2346 46.6848 89.2362 46.7097 89.2375 46.7626L90.2372 46.7371L91.2369 46.7117C91.2353 46.6483 91.2323 46.558 91.2221 46.4605L90.2276 46.5652ZM90.2372 46.7371L89.2375 46.7626C89.2386 46.8059 89.2372 46.8182 89.2372 46.9123H90.2372H91.2372C91.2372 46.89 91.2387 46.7847 91.2369 46.7117L90.2372 46.7371ZM90.2372 46.9123L89.2372 46.9117L89.2187 82.4538L90.2187 82.4543L91.2187 82.4548L91.2372 46.9128L90.2372 46.9123Z" fill="#96A0B7" mask="url(#path-2-inside-1_2731_13152)"/>
<path d="M68.3574 49.7109H87.3084V52.3759H68.3574V49.7109Z" fill="white"/>
<path d="M68.3633 66.1675H87.3054V68.8325H68.3633V66.1675Z" fill="white"/>
<path d="M68.3662 71.731H87.3054V74.3959H68.3662V71.731Z" fill="white"/>
<mask id="path-7-inside-2_2731_13152" fill="white">
<path d="M104.92 82.4543H80.6325C80.4955 82.4543 80.3926 82.4543 80.3149 82.4454C80.2553 82.4446 80.1979 82.4235 80.152 82.3854C80.1141 82.3396 80.0929 82.2821 80.0921 82.2226C80.0832 82.1486 80.0832 82.0427 80.0832 81.905L80.0698 41.0226C80.0635 40.6559 80.116 40.2905 80.2253 39.9403C80.3169 39.6497 80.4757 39.3847 80.6887 39.1667C80.906 38.9535 81.1706 38.7945 81.4608 38.7026C81.8106 38.5929 82.1758 38.5401 82.5424 38.5464H102.513C102.799 38.5438 103.084 38.5776 103.361 38.6471C103.602 38.7082 103.832 38.8082 104.041 38.9432C104.236 39.0694 104.405 39.2306 104.541 39.4184C104.68 39.6131 104.784 39.8305 104.848 40.061C104.87 40.1193 104.888 40.1795 104.9 40.2409C104.913 40.3045 104.922 40.3687 104.927 40.4334C104.933 40.4992 104.935 40.5666 104.936 40.6347C104.938 40.7028 104.936 40.7717 104.936 40.8398L104.918 82.4543"/>
</mask>
<path d="M104.92 82.4543H80.6325C80.4955 82.4543 80.3926 82.4543 80.3149 82.4454C80.2553 82.4446 80.1979 82.4235 80.152 82.3854C80.1141 82.3396 80.0929 82.2821 80.0921 82.2226C80.0832 82.1486 80.0832 82.0427 80.0832 81.905L80.0698 41.0226C80.0635 40.6559 80.116 40.2905 80.2253 39.9403C80.3169 39.6497 80.4757 39.3847 80.6887 39.1667C80.906 38.9535 81.1706 38.7945 81.4608 38.7026C81.8106 38.5929 82.1758 38.5401 82.5424 38.5464H102.513C102.799 38.5438 103.084 38.5776 103.361 38.6471C103.602 38.7082 103.832 38.8082 104.041 38.9432C104.236 39.0694 104.405 39.2306 104.541 39.4184C104.68 39.6131 104.784 39.8305 104.848 40.061C104.87 40.1193 104.888 40.1795 104.9 40.2409C104.913 40.3045 104.922 40.3687 104.927 40.4334C104.933 40.4992 104.935 40.5666 104.936 40.6347C104.938 40.7028 104.936 40.7717 104.936 40.8398L104.918 82.4543" fill="#0C8844"/>
<path d="M80.3149 82.4454L80.4284 81.4519L80.3785 81.4462L80.3282 81.4455L80.3149 82.4454ZM80.152 82.3854L79.3816 83.023L79.4414 83.0953L79.5137 83.1552L80.152 82.3854ZM80.0921 82.2226L81.092 82.2083L81.0912 82.1557L81.0849 82.1034L80.0921 82.2226ZM80.0832 81.905H81.0832L81.0832 81.9047L80.0832 81.905ZM80.0698 41.0226L81.0698 41.0223L81.0698 41.0138L81.0697 41.0053L80.0698 41.0226ZM80.2253 39.9403L79.2716 39.6397L79.2707 39.6423L80.2253 39.9403ZM80.6887 39.1667L79.9883 38.453L79.9809 38.4603L79.9736 38.4677L80.6887 39.1667ZM81.4608 38.7026L81.1615 37.7484L81.159 37.7492L81.4608 38.7026ZM82.5424 38.5464L82.5252 39.5463L82.5338 39.5464H82.5424V38.5464ZM102.513 38.5464V39.5464L102.523 39.5464L102.513 38.5464ZM103.361 38.6471L103.607 37.6777L103.604 37.6771L103.361 38.6471ZM104.041 38.9432L104.586 38.1045L104.583 38.1029L104.041 38.9432ZM104.541 39.4184L105.355 38.8374L105.351 38.8325L104.541 39.4184ZM104.848 40.061L103.884 40.3278L103.897 40.377L103.916 40.4246L104.848 40.061ZM104.9 40.2409L105.881 40.0464L105.881 40.0458L104.9 40.2409ZM104.927 40.4334L103.93 40.5127L103.931 40.5229L104.927 40.4334ZM104.936 40.8398L105.936 40.8402V40.8398H104.936ZM104.92 82.4543V81.4543H80.6325V82.4543V83.4543H104.92V82.4543ZM80.6325 82.4543V81.4543C80.5608 81.4543 80.5124 81.4542 80.4726 81.4534C80.4319 81.4525 80.4222 81.4512 80.4284 81.4519L80.3149 82.4454L80.2013 83.4389C80.3493 83.4559 80.5203 83.4543 80.6325 83.4543V82.4543ZM80.3149 82.4454L80.3282 81.4455C80.4971 81.4477 80.6602 81.5078 80.7903 81.6157L80.152 82.3854L79.5137 83.1552C79.7355 83.3391 80.0136 83.4415 80.3016 83.4453L80.3149 82.4454ZM80.152 82.3854L80.9225 81.7479C81.0298 81.8776 81.0896 82.04 81.092 82.2083L80.0921 82.2226L79.0922 82.2369C79.0963 82.5242 79.1984 82.8016 79.3816 83.023L80.152 82.3854ZM80.0921 82.2226L81.0849 82.1034C81.0864 82.1156 81.085 82.1094 81.0841 82.0667C81.0832 82.0264 81.0832 81.977 81.0832 81.905H80.0832H79.0832C79.0832 82.014 79.0814 82.1934 79.0992 82.3417L80.0921 82.2226ZM80.0832 81.905L81.0832 81.9047L81.0698 41.0223L80.0698 41.0226L79.0698 41.0229L79.0832 81.9053L80.0832 81.905ZM80.0698 41.0226L81.0697 41.0053C81.0652 40.7454 81.1024 40.4865 81.1799 40.2383L80.2253 39.9403L79.2707 39.6423C79.1296 40.0945 79.0618 40.5663 79.07 41.0399L80.0698 41.0226ZM80.2253 39.9403L81.179 40.241C81.2235 40.1 81.3005 39.9715 81.4038 39.8658L80.6887 39.1667L79.9736 38.4677C79.6509 38.7979 79.4104 39.1993 79.2716 39.6397L80.2253 39.9403ZM80.6887 39.1667L81.3891 39.8805C81.4942 39.7774 81.6222 39.7004 81.7627 39.656L81.4608 38.7026L81.159 37.7492C80.7189 37.8886 80.3178 38.1297 79.9883 38.453L80.6887 39.1667ZM81.4608 38.7026L81.7601 39.6567C82.0076 39.5791 82.2659 39.5418 82.5252 39.5463L82.5424 38.5464L82.5595 37.5465C82.0857 37.5384 81.6137 37.6066 81.1615 37.7484L81.4608 38.7026ZM82.5424 38.5464V39.5464H102.513V38.5464V37.5464H82.5424V38.5464ZM102.513 38.5464L102.523 39.5464C102.723 39.5445 102.923 39.5683 103.118 39.617L103.361 38.6471L103.604 37.6771C103.245 37.5869 102.875 37.543 102.504 37.5464L102.513 38.5464ZM103.361 38.6471L103.115 39.6164C103.252 39.6509 103.381 39.7074 103.499 39.7835L104.041 38.9432L104.583 38.1029C104.283 37.9091 103.953 37.7655 103.607 37.6777L103.361 38.6471ZM104.041 38.9432L103.497 39.7819C103.588 39.841 103.667 39.9164 103.731 40.0044L104.541 39.4184L105.351 38.8325C105.143 38.5447 104.884 38.2979 104.586 38.1045L104.041 38.9432ZM104.541 39.4184L103.727 39.9995C103.798 40.0989 103.851 40.2101 103.884 40.3278L104.848 40.061L105.811 39.7942C105.716 39.451 105.562 39.1272 105.355 38.8374L104.541 39.4184ZM104.848 40.061L103.916 40.4246C103.917 40.4283 103.919 40.4321 103.919 40.436L104.9 40.2409L105.881 40.0458C105.857 39.9269 105.823 39.8103 105.779 39.6974L104.848 40.061ZM104.9 40.2409L103.919 40.4354C103.924 40.4609 103.928 40.4867 103.93 40.5127L104.927 40.4334L105.924 40.354C105.915 40.2507 105.901 40.148 105.881 40.0464L104.9 40.2409ZM104.927 40.4334L103.931 40.5229C103.934 40.5534 103.935 40.5928 103.937 40.6564L104.936 40.6347L105.936 40.613C105.935 40.5404 105.932 40.4451 105.923 40.3438L104.927 40.4334ZM104.936 40.6347L103.937 40.6564C103.938 40.7119 103.936 40.741 103.936 40.8398H104.936H105.936C105.936 40.8024 105.938 40.6938 105.936 40.613L104.936 40.6347ZM104.936 40.8398L103.936 40.8393L103.918 82.4538L104.918 82.4543L105.918 82.4547L105.936 40.8402L104.936 40.8398Z" fill="#B7DCC7" mask="url(#path-7-inside-2_2731_13152)"/>
<path d="M83.0566 44.7109H102.008V47.3759H83.0566V44.7109Z" fill="white"/>
<path d="M83.0625 66.1675H102.005V68.8325H83.0625V66.1675Z" fill="white"/>
<path d="M83.0654 71.731H102.005V74.3959H83.0654V71.731Z" fill="white"/>
<path d="M66.435 92.82V100H65.505V94.89C65.505 94.8133 65.5067 94.7317 65.51 94.645C65.5167 94.5583 65.5233 94.47 65.53 94.38L63.14 98.765C63.0567 98.9283 62.9283 99.01 62.755 99.01H62.605C62.4317 99.01 62.305 98.9283 62.225 98.765L59.79 94.365C59.81 94.5517 59.82 94.7267 59.82 94.89V100H58.885V92.82H59.675C59.7683 92.82 59.84 92.83 59.89 92.85C59.9433 92.8667 59.9933 92.9167 60.04 93L62.44 97.3C62.4867 97.3867 62.53 97.4783 62.57 97.575C62.61 97.6717 62.6483 97.7683 62.685 97.865C62.755 97.6683 62.8367 97.4783 62.93 97.295L65.285 93C65.3283 92.9167 65.375 92.8667 65.425 92.85C65.4783 92.83 65.5517 92.82 65.645 92.82H66.435ZM70.5947 97.745C70.198 97.7583 69.8614 97.79 69.5847 97.84C69.308 97.8867 69.083 97.95 68.9097 98.03C68.7364 98.11 68.6114 98.205 68.5347 98.315C68.458 98.4217 68.4197 98.5417 68.4197 98.675C68.4197 98.8017 68.4397 98.9117 68.4797 99.005C68.523 99.095 68.5797 99.17 68.6497 99.23C68.723 99.2867 68.808 99.3283 68.9047 99.355C69.0014 99.3817 69.1064 99.395 69.2197 99.395C69.3697 99.395 69.5064 99.38 69.6297 99.35C69.7564 99.32 69.8747 99.2783 69.9847 99.225C70.0947 99.1683 70.1997 99.1 70.2997 99.02C70.3997 98.94 70.498 98.8483 70.5947 98.745V97.745ZM67.7347 95.63C68.018 95.36 68.3247 95.1583 68.6547 95.025C68.988 94.8917 69.353 94.825 69.7497 94.825C70.0397 94.825 70.2964 94.8733 70.5197 94.97C70.743 95.0633 70.9314 95.195 71.0847 95.365C71.238 95.535 71.353 95.7383 71.4297 95.975C71.5097 96.2117 71.5497 96.4733 71.5497 96.76V100H71.1147C71.018 100 70.9447 99.985 70.8947 99.955C70.8447 99.9217 70.8047 99.8617 70.7747 99.775L70.6697 99.33C70.5397 99.45 70.4114 99.5567 70.2847 99.65C70.158 99.74 70.0247 99.8183 69.8847 99.885C69.748 99.9483 69.6014 99.9967 69.4447 100.03C69.288 100.063 69.1147 100.08 68.9247 100.08C68.7247 100.08 68.5364 100.053 68.3597 100C68.1864 99.9433 68.0347 99.8583 67.9047 99.745C67.7747 99.6317 67.6714 99.49 67.5947 99.32C67.5214 99.15 67.4847 98.9517 67.4847 98.725C67.4847 98.525 67.538 98.3333 67.6447 98.15C67.7547 97.9633 67.9314 97.7967 68.1747 97.65C68.4214 97.5033 68.7414 97.3833 69.1347 97.29C69.5314 97.1967 70.018 97.1433 70.5947 97.13V96.76C70.5947 96.3767 70.513 96.09 70.3497 95.9C70.1864 95.71 69.9464 95.615 69.6297 95.615C69.4164 95.615 69.2364 95.6417 69.0897 95.695C68.9464 95.7483 68.8214 95.8083 68.7147 95.875C68.6114 95.9383 68.5197 95.9967 68.4397 96.05C68.363 96.1033 68.283 96.13 68.1997 96.13C68.133 96.13 68.0747 96.1117 68.0247 96.075C67.978 96.0383 67.9397 95.995 67.9097 95.945L67.7347 95.63ZM73.8749 94.92V100H72.8999V94.92H73.8749ZM74.0599 93.35C74.0599 93.44 74.0416 93.5267 74.0049 93.61C73.9683 93.69 73.9183 93.7617 73.8549 93.825C73.7949 93.885 73.7233 93.9333 73.6399 93.97C73.5566 94.0033 73.4699 94.02 73.3799 94.02C73.2899 94.02 73.2049 94.0033 73.1249 93.97C73.0449 93.9333 72.9733 93.885 72.9099 93.825C72.8499 93.7617 72.8016 93.69 72.7649 93.61C72.7316 93.5267 72.7149 93.44 72.7149 93.35C72.7149 93.2567 72.7316 93.17 72.7649 93.09C72.8016 93.0067 72.8499 92.935 72.9099 92.875C72.9733 92.8117 73.0449 92.7633 73.1249 92.73C73.2049 92.6933 73.2899 92.675 73.3799 92.675C73.4699 92.675 73.5566 92.6933 73.6399 92.73C73.7233 92.7633 73.7949 92.8117 73.8549 92.875C73.9183 92.935 73.9683 93.0067 74.0049 93.09C74.0416 93.17 74.0599 93.2567 74.0599 93.35ZM76.2016 95.625C76.3116 95.5083 76.4266 95.4017 76.5466 95.305C76.6666 95.2083 76.7932 95.1267 76.9266 95.06C77.0632 94.99 77.2082 94.9367 77.3616 94.9C77.5182 94.86 77.6849 94.84 77.8616 94.84C78.1416 94.84 78.3866 94.8867 78.5966 94.98C78.8099 95.0733 78.9882 95.205 79.1316 95.375C79.2749 95.5417 79.3832 95.7433 79.4566 95.98C79.5299 96.2167 79.5666 96.4783 79.5666 96.765V100H78.5866V96.765C78.5866 96.4017 78.5032 96.12 78.3366 95.92C78.1699 95.7167 77.9149 95.615 77.5716 95.615C77.3216 95.615 77.0866 95.675 76.8666 95.795C76.6499 95.9117 76.4482 96.0717 76.2616 96.275V100H75.2866V94.92H75.8716C76.0082 94.92 76.0932 94.985 76.1266 95.115L76.2016 95.625ZM87.3266 93.99C87.2932 94.0467 87.2582 94.0883 87.2216 94.115C87.1849 94.1417 87.1382 94.155 87.0816 94.155C87.0216 94.155 86.9532 94.1283 86.8766 94.075C86.7999 94.0183 86.7032 93.9567 86.5866 93.89C86.4732 93.82 86.3366 93.7583 86.1766 93.705C86.0166 93.6483 85.8249 93.62 85.6016 93.62C85.3916 93.62 85.2066 93.6483 85.0466 93.705C84.8899 93.7583 84.7582 93.8333 84.6516 93.93C84.5449 94.0233 84.4632 94.135 84.4066 94.265C84.3532 94.3917 84.3266 94.53 84.3266 94.68C84.3266 94.8733 84.3749 95.0333 84.4716 95.16C84.5716 95.2867 84.7016 95.395 84.8616 95.485C85.0216 95.575 85.2032 95.6533 85.4066 95.72C85.6099 95.7867 85.8182 95.8567 86.0316 95.93C86.2449 96 86.4532 96.0817 86.6566 96.175C86.8599 96.2683 87.0416 96.3867 87.2016 96.53C87.3616 96.67 87.4899 96.8433 87.5866 97.05C87.6866 97.2533 87.7366 97.5033 87.7366 97.8C87.7366 98.1167 87.6816 98.4133 87.5716 98.69C87.4649 98.9667 87.3082 99.2083 87.1016 99.415C86.8949 99.6217 86.6399 99.785 86.3366 99.905C86.0366 100.022 85.6949 100.08 85.3116 100.08C85.0816 100.08 84.8582 100.057 84.6416 100.01C84.4249 99.9667 84.2199 99.905 84.0266 99.825C83.8332 99.7417 83.6516 99.6433 83.4816 99.53C83.3149 99.4133 83.1649 99.2833 83.0316 99.14L83.3366 98.63C83.3666 98.59 83.4016 98.5567 83.4416 98.53C83.4849 98.5033 83.5332 98.49 83.5866 98.49C83.6566 98.49 83.7366 98.5267 83.8266 98.6C83.9199 98.6733 84.0332 98.755 84.1666 98.845C84.3032 98.9317 84.4649 99.0117 84.6516 99.085C84.8416 99.1583 85.0716 99.195 85.3416 99.195C85.5616 99.195 85.7582 99.1667 85.9316 99.11C86.1049 99.05 86.2499 98.9667 86.3666 98.86C86.4866 98.75 86.5782 98.6183 86.6416 98.465C86.7049 98.3117 86.7366 98.1417 86.7366 97.955C86.7366 97.745 86.6882 97.5733 86.5916 97.44C86.4949 97.3067 86.3666 97.195 86.2066 97.105C86.0466 97.015 85.8649 96.9383 85.6616 96.875C85.4582 96.8117 85.2499 96.7467 85.0366 96.68C84.8232 96.61 84.6149 96.53 84.4116 96.44C84.2082 96.35 84.0266 96.2333 83.8666 96.09C83.7066 95.9433 83.5782 95.7617 83.4816 95.545C83.3849 95.325 83.3366 95.055 83.3366 94.735C83.3366 94.4783 83.3866 94.23 83.4866 93.99C83.5866 93.75 83.7316 93.5383 83.9216 93.355C84.1149 93.1683 84.3516 93.02 84.6316 92.91C84.9116 92.7967 85.2316 92.74 85.5916 92.74C85.9949 92.74 86.3649 92.805 86.7016 92.935C87.0416 93.0617 87.3366 93.245 87.5866 93.485L87.3266 93.99ZM92.1867 96.895C92.1867 96.7017 92.1584 96.5233 92.1017 96.36C92.0484 96.1967 91.9684 96.055 91.8617 95.935C91.7551 95.815 91.6251 95.7217 91.4717 95.655C91.3184 95.5883 91.1417 95.555 90.9417 95.555C90.5317 95.555 90.2084 95.6733 89.9717 95.91C89.7384 96.1467 89.5901 96.475 89.5267 96.895H92.1867ZM92.9917 99.275C92.8717 99.415 92.7334 99.5367 92.5767 99.64C92.4201 99.74 92.2534 99.8217 92.0767 99.885C91.9001 99.9483 91.7167 99.995 91.5267 100.025C91.3401 100.055 91.1551 100.07 90.9717 100.07C90.6217 100.07 90.2967 100.012 89.9967 99.895C89.7001 99.775 89.4417 99.6017 89.2217 99.375C89.0051 99.145 88.8351 98.8617 88.7117 98.525C88.5917 98.185 88.5317 97.795 88.5317 97.355C88.5317 97.0017 88.5867 96.6733 88.6967 96.37C88.8067 96.0633 88.9634 95.7967 89.1667 95.57C89.3734 95.3433 89.6251 95.165 89.9217 95.035C90.2184 94.905 90.5517 94.84 90.9217 94.84C91.2317 94.84 91.5167 94.8917 91.7767 94.995C92.0401 95.095 92.2667 95.2417 92.4567 95.435C92.6467 95.6283 92.7951 95.8667 92.9017 96.15C93.0117 96.4333 93.0667 96.7567 93.0667 97.12C93.0667 97.27 93.0501 97.3717 93.0167 97.425C92.9834 97.475 92.9217 97.5 92.8317 97.5H89.5017C89.5117 97.8033 89.5551 98.0683 89.6317 98.295C89.7084 98.5183 89.8134 98.705 89.9467 98.855C90.0834 99.005 90.2451 99.1167 90.4317 99.19C90.6184 99.2633 90.8267 99.3 91.0567 99.3C91.2734 99.3 91.4601 99.275 91.6167 99.225C91.7767 99.175 91.9134 99.1217 92.0267 99.065C92.1434 99.005 92.2401 98.95 92.3167 98.9C92.3967 98.85 92.4667 98.825 92.5267 98.825C92.6067 98.825 92.6684 98.855 92.7117 98.915L92.9917 99.275ZM95.0347 95.895C95.198 95.5617 95.3947 95.3 95.6247 95.11C95.8547 94.92 96.1314 94.825 96.4547 94.825C96.5647 94.825 96.668 94.8383 96.7647 94.865C96.8647 94.8883 96.9514 94.925 97.0247 94.975L96.9597 95.71C96.9364 95.8 96.8814 95.845 96.7947 95.845C96.748 95.845 96.678 95.8367 96.5847 95.82C96.4914 95.8 96.3914 95.79 96.2847 95.79C96.128 95.79 95.9897 95.8133 95.8697 95.86C95.7497 95.9033 95.6414 95.97 95.5447 96.06C95.4514 96.1467 95.368 96.255 95.2947 96.385C95.2214 96.5117 95.153 96.6567 95.0897 96.82V100H94.1147V94.92H94.6747C94.7814 94.92 94.853 94.94 94.8897 94.98C94.9297 95.0167 94.958 95.0833 94.9747 95.18L95.0347 95.895ZM102.187 94.92L100.127 100H99.2468L97.1868 94.92H97.9918C98.0685 94.92 98.1318 94.9383 98.1818 94.975C98.2318 95.0117 98.2651 95.0583 98.2818 95.115L99.4968 98.235C99.5401 98.365 99.5768 98.495 99.6068 98.625C99.6401 98.7517 99.6701 98.8783 99.6968 99.005C99.7235 98.8783 99.7535 98.7517 99.7868 98.625C99.8201 98.4983 99.8601 98.3683 99.9068 98.235L101.137 95.115C101.157 95.0583 101.192 95.0117 101.242 94.975C101.292 94.9383 101.352 94.92 101.422 94.92H102.187ZM106.181 96.895C106.181 96.7017 106.153 96.5233 106.096 96.36C106.043 96.1967 105.963 96.055 105.856 95.935C105.749 95.815 105.619 95.7217 105.466 95.655C105.313 95.5883 105.136 95.555 104.936 95.555C104.526 95.555 104.203 95.6733 103.966 95.91C103.733 96.1467 103.584 96.475 103.521 96.895H106.181ZM106.986 99.275C106.866 99.415 106.728 99.5367 106.571 99.64C106.414 99.74 106.248 99.8217 106.071 99.885C105.894 99.9483 105.711 99.995 105.521 100.025C105.334 100.055 105.149 100.07 104.966 100.07C104.616 100.07 104.291 100.012 103.991 99.895C103.694 99.775 103.436 99.6017 103.216 99.375C102.999 99.145 102.829 98.8617 102.706 98.525C102.586 98.185 102.526 97.795 102.526 97.355C102.526 97.0017 102.581 96.6733 102.691 96.37C102.801 96.0633 102.958 95.7967 103.161 95.57C103.368 95.3433 103.619 95.165 103.916 95.035C104.213 94.905 104.546 94.84 104.916 94.84C105.226 94.84 105.511 94.8917 105.771 94.995C106.034 95.095 106.261 95.2417 106.451 95.435C106.641 95.6283 106.789 95.8667 106.896 96.15C107.006 96.4333 107.061 96.7567 107.061 97.12C107.061 97.27 107.044 97.3717 107.011 97.425C106.978 97.475 106.916 97.5 106.826 97.5H103.496C103.506 97.8033 103.549 98.0683 103.626 98.295C103.703 98.5183 103.808 98.705 103.941 98.855C104.078 99.005 104.239 99.1167 104.426 99.19C104.613 99.2633 104.821 99.3 105.051 99.3C105.268 99.3 105.454 99.275 105.611 99.225C105.771 99.175 105.908 99.1217 106.021 99.065C106.138 99.005 106.234 98.95 106.311 98.9C106.391 98.85 106.461 98.825 106.521 98.825C106.601 98.825 106.663 98.855 106.706 98.915L106.986 99.275ZM109.029 95.895C109.192 95.5617 109.389 95.3 109.619 95.11C109.849 94.92 110.125 94.825 110.449 94.825C110.559 94.825 110.662 94.8383 110.759 94.865C110.859 94.8883 110.945 94.925 111.019 94.975L110.954 95.71C110.93 95.8 110.875 95.845 110.789 95.845C110.742 95.845 110.672 95.8367 110.579 95.82C110.485 95.8 110.385 95.79 110.279 95.79C110.122 95.79 109.984 95.8133 109.864 95.86C109.744 95.9033 109.635 95.97 109.539 96.06C109.445 96.1467 109.362 96.255 109.289 96.385C109.215 96.5117 109.147 96.6567 109.084 96.82V100H108.109V94.92H108.669C108.775 94.92 108.847 94.94 108.884 94.98C108.924 95.0167 108.952 95.0833 108.969 95.18L109.029 95.895Z" fill="#2A303D"/>
</svg>
