<svg width="170" height="140" viewBox="0 0 170 140" fill="none" xmlns="http://www.w3.org/2000/svg">
<rect x="0.5" y="0.5" width="169" height="139" rx="9.5" fill="white"/>
<rect x="0.5" y="0.5" width="169" height="139" rx="9.5" stroke="#B4BBCC" stroke-dasharray="4 4"/>
<mask id="path-2-inside-1_2731_13190" fill="white">
<path d="M97.4201 87.9543H73.1325C72.9955 87.9543 72.8926 87.9543 72.8149 87.9454C72.7553 87.9446 72.6979 87.9235 72.652 87.8854C72.6141 87.8396 72.5929 87.7821 72.5921 87.7226C72.5832 87.6486 72.5832 87.5427 72.5832 87.405L72.5698 46.5226C72.5635 46.1559 72.616 45.7905 72.7253 45.4403C72.8169 45.1497 72.9757 44.8847 73.1887 44.6667C73.406 44.4535 73.6706 44.2945 73.9608 44.2026C74.3106 44.0929 74.6758 44.0401 75.0424 44.0464H95.0135C95.2992 44.0438 95.584 44.0776 95.8611 44.1471C96.1024 44.2082 96.3322 44.3082 96.5414 44.4432C96.7359 44.5694 96.9053 44.7306 97.0411 44.9184C97.18 45.1131 97.2838 45.3305 97.3476 45.561C97.3703 45.6193 97.3879 45.6795 97.4001 45.7409C97.4127 45.8045 97.4216 45.8687 97.4268 45.9334C97.4327 45.9992 97.4349 46.0666 97.4364 46.1347C97.4379 46.2028 97.4364 46.2717 97.4364 46.3398L97.4179 87.9543"/>
</mask>
<path d="M97.4201 87.9543H73.1325C72.9955 87.9543 72.8926 87.9543 72.8149 87.9454C72.7553 87.9446 72.6979 87.9235 72.652 87.8854C72.6141 87.8396 72.5929 87.7821 72.5921 87.7226C72.5832 87.6486 72.5832 87.5427 72.5832 87.405L72.5698 46.5226C72.5635 46.1559 72.616 45.7905 72.7253 45.4403C72.8169 45.1497 72.9757 44.8847 73.1887 44.6667C73.406 44.4535 73.6706 44.2945 73.9608 44.2026C74.3106 44.0929 74.6758 44.0401 75.0424 44.0464H95.0135C95.2992 44.0438 95.584 44.0776 95.8611 44.1471C96.1024 44.2082 96.3322 44.3082 96.5414 44.4432C96.7359 44.5694 96.9053 44.7306 97.0411 44.9184C97.18 45.1131 97.2838 45.3305 97.3476 45.561C97.3703 45.6193 97.3879 45.6795 97.4001 45.7409C97.4127 45.8045 97.4216 45.8687 97.4268 45.9334C97.4327 45.9992 97.4349 46.0666 97.4364 46.1347C97.4379 46.2028 97.4364 46.2717 97.4364 46.3398L97.4179 87.9543" fill="#006AFF"/>
<path d="M72.8149 87.9454L72.9284 86.9519L72.8785 86.9462L72.8282 86.9455L72.8149 87.9454ZM72.652 87.8854L71.8816 88.523L71.9414 88.5953L72.0137 88.6552L72.652 87.8854ZM72.5921 87.7226L73.592 87.7083L73.5912 87.6557L73.5849 87.6034L72.5921 87.7226ZM72.5832 87.405H73.5832L73.5832 87.4047L72.5832 87.405ZM72.5698 46.5226L73.5698 46.5223L73.5698 46.5138L73.5697 46.5053L72.5698 46.5226ZM72.7253 45.4403L71.7716 45.1397L71.7707 45.1423L72.7253 45.4403ZM73.1887 44.6667L72.4883 43.953L72.4809 43.9603L72.4736 43.9677L73.1887 44.6667ZM73.9608 44.2026L73.6615 43.2484L73.659 43.2492L73.9608 44.2026ZM75.0424 44.0464L75.0252 45.0463L75.0338 45.0464H75.0424V44.0464ZM95.0135 44.0464V45.0464L95.0227 45.0464L95.0135 44.0464ZM95.8611 44.1471L96.1067 43.1777L96.1043 43.1771L95.8611 44.1471ZM96.5414 44.4432L97.086 43.6045L97.0835 43.6029L96.5414 44.4432ZM97.0411 44.9184L97.855 44.3374L97.8515 44.3325L97.0411 44.9184ZM97.3476 45.561L96.3838 45.8278L96.3975 45.877L96.416 45.9246L97.3476 45.561ZM97.4001 45.7409L98.381 45.5464L98.3809 45.5458L97.4001 45.7409ZM97.4268 45.9334L96.4299 46.0127L96.4308 46.0229L97.4268 45.9334ZM97.4364 46.3398L98.4364 46.3402V46.3398H97.4364ZM97.4201 87.9543V86.9543H73.1325V87.9543V88.9543H97.4201V87.9543ZM73.1325 87.9543V86.9543C73.0608 86.9543 73.0124 86.9542 72.9726 86.9534C72.9319 86.9525 72.9222 86.9512 72.9284 86.9519L72.8149 87.9454L72.7013 88.9389C72.8493 88.9559 73.0203 88.9543 73.1325 88.9543V87.9543ZM72.8149 87.9454L72.8282 86.9455C72.9971 86.9477 73.1602 87.0078 73.2903 87.1157L72.652 87.8854L72.0137 88.6552C72.2355 88.8391 72.5136 88.9415 72.8016 88.9453L72.8149 87.9454ZM72.652 87.8854L73.4225 87.2479C73.5298 87.3776 73.5896 87.54 73.592 87.7083L72.5921 87.7226L71.5922 87.7369C71.5963 88.0242 71.6984 88.3016 71.8816 88.523L72.652 87.8854ZM72.5921 87.7226L73.5849 87.6034C73.5864 87.6156 73.585 87.6094 73.5841 87.5667C73.5832 87.5264 73.5832 87.477 73.5832 87.405H72.5832H71.5832C71.5832 87.514 71.5814 87.6934 71.5992 87.8417L72.5921 87.7226ZM72.5832 87.405L73.5832 87.4047L73.5698 46.5223L72.5698 46.5226L71.5698 46.5229L71.5832 87.4053L72.5832 87.405ZM72.5698 46.5226L73.5697 46.5053C73.5652 46.2454 73.6024 45.9865 73.6799 45.7383L72.7253 45.4403L71.7707 45.1423C71.6296 45.5945 71.5618 46.0663 71.57 46.5399L72.5698 46.5226ZM72.7253 45.4403L73.679 45.741C73.7235 45.6 73.8005 45.4715 73.9038 45.3658L73.1887 44.6667L72.4736 43.9677C72.1509 44.2979 71.9104 44.6993 71.7716 45.1397L72.7253 45.4403ZM73.1887 44.6667L73.8891 45.3805C73.9942 45.2774 74.1222 45.2004 74.2627 45.156L73.9608 44.2026L73.659 43.2492C73.2189 43.3886 72.8178 43.6297 72.4883 43.953L73.1887 44.6667ZM73.9608 44.2026L74.2601 45.1567C74.5076 45.0791 74.7659 45.0418 75.0252 45.0463L75.0424 44.0464L75.0595 43.0465C74.5857 43.0384 74.1137 43.1066 73.6615 43.2484L73.9608 44.2026ZM75.0424 44.0464V45.0464H95.0135V44.0464V43.0464H75.0424V44.0464ZM95.0135 44.0464L95.0227 45.0464C95.2233 45.0445 95.4233 45.0683 95.6179 45.117L95.8611 44.1471L96.1043 43.1771C95.7447 43.0869 95.375 43.043 95.0042 43.0464L95.0135 44.0464ZM95.8611 44.1471L95.6155 45.1164C95.7517 45.1509 95.8813 45.2074 95.9994 45.2835L96.5414 44.4432L97.0835 43.6029C96.7831 43.4091 96.4532 43.2655 96.1067 43.1777L95.8611 44.1471ZM96.5414 44.4432L95.9968 45.2819C96.0878 45.341 96.1671 45.4164 96.2307 45.5044L97.0411 44.9184L97.8515 44.3325C97.6434 44.0447 97.3839 43.7979 97.086 43.6045L96.5414 44.4432ZM97.0411 44.9184L96.2272 45.4995C96.2982 45.5989 96.3512 45.7101 96.3838 45.8278L97.3476 45.561L98.3113 45.2942C98.2163 44.951 98.0619 44.6272 97.855 44.3374L97.0411 44.9184ZM97.3476 45.561L96.416 45.9246C96.4175 45.9283 96.4186 45.9321 96.4194 45.936L97.4001 45.7409L98.3809 45.5458C98.3573 45.4269 98.3232 45.3103 98.2791 45.1974L97.3476 45.561ZM97.4001 45.7409L96.4192 45.9354C96.4243 45.9609 96.4279 45.9867 96.4299 46.0127L97.4268 45.9334L98.4236 45.854C98.4154 45.7507 98.4012 45.648 98.381 45.5464L97.4001 45.7409ZM97.4268 45.9334L96.4308 46.0229C96.4335 46.0534 96.4353 46.0928 96.4366 46.1564L97.4364 46.1347L98.4362 46.113C98.4346 46.0404 98.4319 45.9451 98.4228 45.8438L97.4268 45.9334ZM97.4364 46.1347L96.4366 46.1564C96.4379 46.2119 96.4364 46.241 96.4364 46.3398H97.4364H98.4364C98.4364 46.3024 98.4379 46.1938 98.4362 46.113L97.4364 46.1347ZM97.4364 46.3398L96.4364 46.3393L96.4179 87.9538L97.4179 87.9543L98.4179 87.9547L98.4364 46.3402L97.4364 46.3398Z" fill="#96B3EE" mask="url(#path-2-inside-1_2731_13190)"/>
<path d="M75.5566 50.2109H94.5077V52.8759H75.5566V50.2109Z" fill="white"/>
<path d="M75.5625 71.6675H94.5046V74.3325H75.5625V71.6675Z" fill="white"/>
<path d="M75.5654 77.231H94.5046V79.8959H75.5654V77.231Z" fill="white"/>
<path d="M53.6 99.49C53.5667 99.5467 53.5317 99.5883 53.495 99.615C53.4583 99.6417 53.4117 99.655 53.355 99.655C53.295 99.655 53.2267 99.6283 53.15 99.575C53.0733 99.5183 52.9767 99.4567 52.86 99.39C52.7467 99.32 52.61 99.2583 52.45 99.205C52.29 99.1483 52.0983 99.12 51.875 99.12C51.665 99.12 51.48 99.1483 51.32 99.205C51.1633 99.2583 51.0317 99.3333 50.925 99.43C50.8183 99.5233 50.7367 99.635 50.68 99.765C50.6267 99.8917 50.6 100.03 50.6 100.18C50.6 100.373 50.6483 100.533 50.745 100.66C50.845 100.787 50.975 100.895 51.135 100.985C51.295 101.075 51.4767 101.153 51.68 101.22C51.8833 101.287 52.0917 101.357 52.305 101.43C52.5183 101.5 52.7267 101.582 52.93 101.675C53.1333 101.768 53.315 101.887 53.475 102.03C53.635 102.17 53.7633 102.343 53.86 102.55C53.96 102.753 54.01 103.003 54.01 103.3C54.01 103.617 53.955 103.913 53.845 104.19C53.7383 104.467 53.5817 104.708 53.375 104.915C53.1683 105.122 52.9133 105.285 52.61 105.405C52.31 105.522 51.9683 105.58 51.585 105.58C51.355 105.58 51.1317 105.557 50.915 105.51C50.6983 105.467 50.4933 105.405 50.3 105.325C50.1067 105.242 49.925 105.143 49.755 105.03C49.5883 104.913 49.4383 104.783 49.305 104.64L49.61 104.13C49.64 104.09 49.675 104.057 49.715 104.03C49.7583 104.003 49.8067 103.99 49.86 103.99C49.93 103.99 50.01 104.027 50.1 104.1C50.1933 104.173 50.3067 104.255 50.44 104.345C50.5767 104.432 50.7383 104.512 50.925 104.585C51.115 104.658 51.345 104.695 51.615 104.695C51.835 104.695 52.0317 104.667 52.205 104.61C52.3783 104.55 52.5233 104.467 52.64 104.36C52.76 104.25 52.8517 104.118 52.915 103.965C52.9783 103.812 53.01 103.642 53.01 103.455C53.01 103.245 52.9617 103.073 52.865 102.94C52.7683 102.807 52.64 102.695 52.48 102.605C52.32 102.515 52.1383 102.438 51.935 102.375C51.7317 102.312 51.5233 102.247 51.31 102.18C51.0967 102.11 50.8883 102.03 50.685 101.94C50.4817 101.85 50.3 101.733 50.14 101.59C49.98 101.443 49.8517 101.262 49.755 101.045C49.6583 100.825 49.61 100.555 49.61 100.235C49.61 99.9783 49.66 99.73 49.76 99.49C49.86 99.25 50.005 99.0383 50.195 98.855C50.3883 98.6683 50.625 98.52 50.905 98.41C51.185 98.2967 51.505 98.24 51.865 98.24C52.2683 98.24 52.6383 98.305 52.975 98.435C53.315 98.5617 53.61 98.745 53.86 98.985L53.6 99.49ZM59.2518 100.42V105.5H58.6668C58.5335 105.5 58.4468 105.435 58.4068 105.305L58.3368 104.795C58.2268 104.912 58.1118 105.018 57.9918 105.115C57.8718 105.212 57.7435 105.295 57.6068 105.365C57.4701 105.432 57.3251 105.483 57.1718 105.52C57.0185 105.56 56.8535 105.58 56.6768 105.58C56.3968 105.58 56.1501 105.533 55.9368 105.44C55.7268 105.347 55.5501 105.217 55.4068 105.05C55.2635 104.88 55.1551 104.677 55.0818 104.44C55.0085 104.203 54.9718 103.942 54.9718 103.655V100.42H55.9518V103.655C55.9518 104.018 56.0351 104.302 56.2018 104.505C56.3685 104.705 56.6235 104.805 56.9668 104.805C57.2168 104.805 57.4501 104.747 57.6668 104.63C57.8835 104.51 58.0868 104.347 58.2768 104.14V100.42H59.2518ZM60.6127 105.5V100.42H61.1977C61.3344 100.42 61.4194 100.485 61.4527 100.615L61.5227 101.1C61.7094 100.877 61.9161 100.695 62.1427 100.555C62.3727 100.412 62.6411 100.34 62.9477 100.34C63.2844 100.34 63.5577 100.433 63.7677 100.62C63.9777 100.803 64.1311 101.053 64.2277 101.37C64.3011 101.19 64.3961 101.035 64.5127 100.905C64.6294 100.775 64.7594 100.668 64.9027 100.585C65.0461 100.502 65.1977 100.44 65.3577 100.4C65.5211 100.36 65.6861 100.34 65.8527 100.34C66.1227 100.34 66.3627 100.383 66.5727 100.47C66.7861 100.553 66.9661 100.677 67.1127 100.84C67.2594 101.003 67.3711 101.205 67.4477 101.445C67.5244 101.685 67.5627 101.958 67.5627 102.265V105.5H66.5827V102.265C66.5827 101.885 66.4994 101.598 66.3327 101.405C66.1694 101.212 65.9294 101.115 65.6127 101.115C65.4727 101.115 65.3394 101.14 65.2127 101.19C65.0861 101.237 64.9744 101.308 64.8777 101.405C64.7844 101.502 64.7094 101.622 64.6527 101.765C64.5994 101.908 64.5727 102.075 64.5727 102.265V105.5H63.5927V102.265C63.5927 101.872 63.5144 101.582 63.3577 101.395C63.2011 101.208 62.9711 101.115 62.6677 101.115C62.4577 101.115 62.2627 101.17 62.0827 101.28C61.9027 101.39 61.7377 101.54 61.5877 101.73V105.5H60.6127ZM68.8745 105.5V100.42H69.4595C69.5961 100.42 69.6811 100.485 69.7145 100.615L69.7845 101.1C69.9711 100.877 70.1778 100.695 70.4045 100.555C70.6345 100.412 70.9028 100.34 71.2095 100.34C71.5461 100.34 71.8195 100.433 72.0295 100.62C72.2395 100.803 72.3928 101.053 72.4895 101.37C72.5628 101.19 72.6578 101.035 72.7745 100.905C72.8911 100.775 73.0211 100.668 73.1645 100.585C73.3078 100.502 73.4595 100.44 73.6195 100.4C73.7828 100.36 73.9478 100.34 74.1145 100.34C74.3845 100.34 74.6245 100.383 74.8345 100.47C75.0478 100.553 75.2278 100.677 75.3745 100.84C75.5211 101.003 75.6328 101.205 75.7095 101.445C75.7861 101.685 75.8245 101.958 75.8245 102.265V105.5H74.8445V102.265C74.8445 101.885 74.7611 101.598 74.5945 101.405C74.4311 101.212 74.1911 101.115 73.8745 101.115C73.7345 101.115 73.6011 101.14 73.4745 101.19C73.3478 101.237 73.2361 101.308 73.1395 101.405C73.0461 101.502 72.9711 101.622 72.9145 101.765C72.8611 101.908 72.8345 102.075 72.8345 102.265V105.5H71.8545V102.265C71.8545 101.872 71.7761 101.582 71.6195 101.395C71.4628 101.208 71.2328 101.115 70.9295 101.115C70.7195 101.115 70.5245 101.17 70.3445 101.28C70.1645 101.39 69.9995 101.54 69.8495 101.73V105.5H68.8745ZM79.8662 103.245C79.4695 103.258 79.1328 103.29 78.8562 103.34C78.5795 103.387 78.3545 103.45 78.1812 103.53C78.0078 103.61 77.8828 103.705 77.8062 103.815C77.7295 103.922 77.6912 104.042 77.6912 104.175C77.6912 104.302 77.7112 104.412 77.7512 104.505C77.7945 104.595 77.8512 104.67 77.9212 104.73C77.9945 104.787 78.0795 104.828 78.1762 104.855C78.2728 104.882 78.3778 104.895 78.4912 104.895C78.6412 104.895 78.7778 104.88 78.9012 104.85C79.0278 104.82 79.1462 104.778 79.2562 104.725C79.3662 104.668 79.4712 104.6 79.5712 104.52C79.6712 104.44 79.7695 104.348 79.8662 104.245V103.245ZM77.0062 101.13C77.2895 100.86 77.5962 100.658 77.9262 100.525C78.2595 100.392 78.6245 100.325 79.0212 100.325C79.3112 100.325 79.5678 100.373 79.7912 100.47C80.0145 100.563 80.2028 100.695 80.3562 100.865C80.5095 101.035 80.6245 101.238 80.7012 101.475C80.7812 101.712 80.8212 101.973 80.8212 102.26V105.5H80.3862C80.2895 105.5 80.2162 105.485 80.1662 105.455C80.1162 105.422 80.0762 105.362 80.0462 105.275L79.9412 104.83C79.8112 104.95 79.6828 105.057 79.5562 105.15C79.4295 105.24 79.2962 105.318 79.1562 105.385C79.0195 105.448 78.8728 105.497 78.7162 105.53C78.5595 105.563 78.3862 105.58 78.1962 105.58C77.9962 105.58 77.8078 105.553 77.6312 105.5C77.4578 105.443 77.3062 105.358 77.1762 105.245C77.0462 105.132 76.9428 104.99 76.8662 104.82C76.7928 104.65 76.7562 104.452 76.7562 104.225C76.7562 104.025 76.8095 103.833 76.9162 103.65C77.0262 103.463 77.2028 103.297 77.4462 103.15C77.6928 103.003 78.0128 102.883 78.4062 102.79C78.8028 102.697 79.2895 102.643 79.8662 102.63V102.26C79.8662 101.877 79.7845 101.59 79.6212 101.4C79.4578 101.21 79.2178 101.115 78.9012 101.115C78.6878 101.115 78.5078 101.142 78.3612 101.195C78.2178 101.248 78.0928 101.308 77.9862 101.375C77.8828 101.438 77.7912 101.497 77.7112 101.55C77.6345 101.603 77.5545 101.63 77.4712 101.63C77.4045 101.63 77.3462 101.612 77.2962 101.575C77.2495 101.538 77.2112 101.495 77.1812 101.445L77.0062 101.13ZM83.0464 101.395C83.2097 101.062 83.4064 100.8 83.6364 100.61C83.8664 100.42 84.1431 100.325 84.4664 100.325C84.5764 100.325 84.6797 100.338 84.7764 100.365C84.8764 100.388 84.9631 100.425 85.0364 100.475L84.9714 101.21C84.9481 101.3 84.8931 101.345 84.8064 101.345C84.7597 101.345 84.6897 101.337 84.5964 101.32C84.5031 101.3 84.4031 101.29 84.2964 101.29C84.1397 101.29 84.0014 101.313 83.8814 101.36C83.7614 101.403 83.6531 101.47 83.5564 101.56C83.4631 101.647 83.3797 101.755 83.3064 101.885C83.2331 102.012 83.1647 102.157 83.1014 102.32V105.5H82.1264V100.42H82.6864C82.7931 100.42 82.8647 100.44 82.9014 100.48C82.9414 100.517 82.9697 100.583 82.9864 100.68L83.0464 101.395ZM90.2285 100.42L87.4085 106.975C87.3785 107.048 87.3385 107.105 87.2885 107.145C87.2385 107.185 87.1652 107.205 87.0685 107.205H86.3435L87.2735 105.18L85.1885 100.42H86.0385C86.1218 100.42 86.1868 100.44 86.2335 100.48C86.2802 100.52 86.3135 100.565 86.3335 100.615L87.6235 103.665C87.6502 103.742 87.6752 103.82 87.6985 103.9C87.7252 103.977 87.7468 104.053 87.7635 104.13C87.7868 104.05 87.8118 103.972 87.8385 103.895C87.8652 103.815 87.8935 103.737 87.9235 103.66L89.1685 100.615C89.1918 100.558 89.2285 100.512 89.2785 100.475C89.3285 100.438 89.3852 100.42 89.4485 100.42H90.2285ZM97.1742 99.49C97.1409 99.5467 97.1059 99.5883 97.0692 99.615C97.0326 99.6417 96.9859 99.655 96.9292 99.655C96.8692 99.655 96.8009 99.6283 96.7242 99.575C96.6476 99.5183 96.5509 99.4567 96.4342 99.39C96.3209 99.32 96.1842 99.2583 96.0242 99.205C95.8642 99.1483 95.6726 99.12 95.4492 99.12C95.2392 99.12 95.0542 99.1483 94.8942 99.205C94.7376 99.2583 94.6059 99.3333 94.4992 99.43C94.3926 99.5233 94.3109 99.635 94.2542 99.765C94.2009 99.8917 94.1742 100.03 94.1742 100.18C94.1742 100.373 94.2226 100.533 94.3192 100.66C94.4192 100.787 94.5492 100.895 94.7092 100.985C94.8692 101.075 95.0509 101.153 95.2542 101.22C95.4576 101.287 95.6659 101.357 95.8792 101.43C96.0926 101.5 96.3009 101.582 96.5042 101.675C96.7076 101.768 96.8892 101.887 97.0492 102.03C97.2092 102.17 97.3376 102.343 97.4342 102.55C97.5342 102.753 97.5842 103.003 97.5842 103.3C97.5842 103.617 97.5292 103.913 97.4192 104.19C97.3126 104.467 97.1559 104.708 96.9492 104.915C96.7426 105.122 96.4876 105.285 96.1842 105.405C95.8842 105.522 95.5426 105.58 95.1592 105.58C94.9292 105.58 94.7059 105.557 94.4892 105.51C94.2726 105.467 94.0676 105.405 93.8742 105.325C93.6809 105.242 93.4992 105.143 93.3292 105.03C93.1626 104.913 93.0126 104.783 92.8792 104.64L93.1842 104.13C93.2142 104.09 93.2492 104.057 93.2892 104.03C93.3326 104.003 93.3809 103.99 93.4342 103.99C93.5042 103.99 93.5842 104.027 93.6742 104.1C93.7676 104.173 93.8809 104.255 94.0142 104.345C94.1509 104.432 94.3126 104.512 94.4992 104.585C94.6892 104.658 94.9192 104.695 95.1892 104.695C95.4092 104.695 95.6059 104.667 95.7792 104.61C95.9526 104.55 96.0976 104.467 96.2142 104.36C96.3342 104.25 96.4259 104.118 96.4892 103.965C96.5526 103.812 96.5842 103.642 96.5842 103.455C96.5842 103.245 96.5359 103.073 96.4392 102.94C96.3426 102.807 96.2142 102.695 96.0542 102.605C95.8942 102.515 95.7126 102.438 95.5092 102.375C95.3059 102.312 95.0976 102.247 94.8842 102.18C94.6709 102.11 94.4626 102.03 94.2592 101.94C94.0559 101.85 93.8742 101.733 93.7142 101.59C93.5542 101.443 93.4259 101.262 93.3292 101.045C93.2326 100.825 93.1842 100.555 93.1842 100.235C93.1842 99.9783 93.2342 99.73 93.3342 99.49C93.4342 99.25 93.5792 99.0383 93.7692 98.855C93.9626 98.6683 94.1992 98.52 94.4792 98.41C94.7592 98.2967 95.0792 98.24 95.4392 98.24C95.8426 98.24 96.2126 98.305 96.5492 98.435C96.8892 98.5617 97.1842 98.745 97.4342 98.985L97.1742 99.49ZM102.034 102.395C102.034 102.202 102.006 102.023 101.949 101.86C101.896 101.697 101.816 101.555 101.709 101.435C101.603 101.315 101.473 101.222 101.319 101.155C101.166 101.088 100.989 101.055 100.789 101.055C100.379 101.055 100.056 101.173 99.8194 101.41C99.586 101.647 99.4377 101.975 99.3744 102.395H102.034ZM102.839 104.775C102.719 104.915 102.581 105.037 102.424 105.14C102.268 105.24 102.101 105.322 101.924 105.385C101.748 105.448 101.564 105.495 101.374 105.525C101.188 105.555 101.003 105.57 100.819 105.57C100.469 105.57 100.144 105.512 99.8444 105.395C99.5477 105.275 99.2894 105.102 99.0694 104.875C98.8527 104.645 98.6827 104.362 98.5594 104.025C98.4394 103.685 98.3794 103.295 98.3794 102.855C98.3794 102.502 98.4344 102.173 98.5444 101.87C98.6544 101.563 98.811 101.297 99.0144 101.07C99.221 100.843 99.4727 100.665 99.7694 100.535C100.066 100.405 100.399 100.34 100.769 100.34C101.079 100.34 101.364 100.392 101.624 100.495C101.888 100.595 102.114 100.742 102.304 100.935C102.494 101.128 102.643 101.367 102.749 101.65C102.859 101.933 102.914 102.257 102.914 102.62C102.914 102.77 102.898 102.872 102.864 102.925C102.831 102.975 102.769 103 102.679 103H99.3494C99.3594 103.303 99.4027 103.568 99.4794 103.795C99.556 104.018 99.661 104.205 99.7944 104.355C99.931 104.505 100.093 104.617 100.279 104.69C100.466 104.763 100.674 104.8 100.904 104.8C101.121 104.8 101.308 104.775 101.464 104.725C101.624 104.675 101.761 104.622 101.874 104.565C101.991 104.505 102.088 104.45 102.164 104.4C102.244 104.35 102.314 104.325 102.374 104.325C102.454 104.325 102.516 104.355 102.559 104.415L102.839 104.775ZM104.882 101.395C105.046 101.062 105.242 100.8 105.472 100.61C105.702 100.42 105.979 100.325 106.302 100.325C106.412 100.325 106.516 100.338 106.612 100.365C106.712 100.388 106.799 100.425 106.872 100.475L106.807 101.21C106.784 101.3 106.729 101.345 106.642 101.345C106.596 101.345 106.526 101.337 106.432 101.32C106.339 101.3 106.239 101.29 106.132 101.29C105.976 101.29 105.837 101.313 105.717 101.36C105.597 101.403 105.489 101.47 105.392 101.56C105.299 101.647 105.216 101.755 105.142 101.885C105.069 102.012 105.001 102.157 104.937 102.32V105.5H103.962V100.42H104.522C104.629 100.42 104.701 100.44 104.737 100.48C104.777 100.517 104.806 100.583 104.822 100.68L104.882 101.395ZM112.034 100.42L109.974 105.5H109.094L107.034 100.42H107.839C107.916 100.42 107.979 100.438 108.029 100.475C108.079 100.512 108.113 100.558 108.129 100.615L109.344 103.735C109.388 103.865 109.424 103.995 109.454 104.125C109.488 104.252 109.518 104.378 109.544 104.505C109.571 104.378 109.601 104.252 109.634 104.125C109.668 103.998 109.708 103.868 109.754 103.735L110.984 100.615C111.004 100.558 111.039 100.512 111.089 100.475C111.139 100.438 111.199 100.42 111.269 100.42H112.034ZM116.029 102.395C116.029 102.202 116 102.023 115.944 101.86C115.89 101.697 115.81 101.555 115.704 101.435C115.597 101.315 115.467 101.222 115.314 101.155C115.16 101.088 114.984 101.055 114.784 101.055C114.374 101.055 114.05 101.173 113.814 101.41C113.58 101.647 113.432 101.975 113.369 102.395H116.029ZM116.834 104.775C116.714 104.915 116.575 105.037 116.419 105.14C116.262 105.24 116.095 105.322 115.919 105.385C115.742 105.448 115.559 105.495 115.369 105.525C115.182 105.555 114.997 105.57 114.814 105.57C114.464 105.57 114.139 105.512 113.839 105.395C113.542 105.275 113.284 105.102 113.064 104.875C112.847 104.645 112.677 104.362 112.554 104.025C112.434 103.685 112.374 103.295 112.374 102.855C112.374 102.502 112.429 102.173 112.539 101.87C112.649 101.563 112.805 101.297 113.009 101.07C113.215 100.843 113.467 100.665 113.764 100.535C114.06 100.405 114.394 100.34 114.764 100.34C115.074 100.34 115.359 100.392 115.619 100.495C115.882 100.595 116.109 100.742 116.299 100.935C116.489 101.128 116.637 101.367 116.744 101.65C116.854 101.933 116.909 102.257 116.909 102.62C116.909 102.77 116.892 102.872 116.859 102.925C116.825 102.975 116.764 103 116.674 103H113.344C113.354 103.303 113.397 103.568 113.474 103.795C113.55 104.018 113.655 104.205 113.789 104.355C113.925 104.505 114.087 104.617 114.274 104.69C114.46 104.763 114.669 104.8 114.899 104.8C115.115 104.8 115.302 104.775 115.459 104.725C115.619 104.675 115.755 104.622 115.869 104.565C115.985 104.505 116.082 104.45 116.159 104.4C116.239 104.35 116.309 104.325 116.369 104.325C116.449 104.325 116.51 104.355 116.554 104.415L116.834 104.775ZM118.876 101.395C119.04 101.062 119.236 100.8 119.466 100.61C119.696 100.42 119.973 100.325 120.296 100.325C120.406 100.325 120.51 100.338 120.606 100.365C120.706 100.388 120.793 100.425 120.866 100.475L120.801 101.21C120.778 101.3 120.723 101.345 120.636 101.345C120.59 101.345 120.52 101.337 120.426 101.32C120.333 101.3 120.233 101.29 120.126 101.29C119.97 101.29 119.831 101.313 119.711 101.36C119.591 101.403 119.483 101.47 119.386 101.56C119.293 101.647 119.21 101.755 119.136 101.885C119.063 102.012 118.995 102.157 118.931 102.32V105.5H117.956V100.42H118.516C118.623 100.42 118.695 100.44 118.731 100.48C118.771 100.517 118.8 100.583 118.816 100.68L118.876 101.395Z" fill="#2A303D"/>
</svg>
