<svg width="132" height="118" viewBox="0 0 132 118" fill="none" xmlns="http://www.w3.org/2000/svg">
<rect x="0.5" y="0.5" width="131" height="116.164" rx="9.5" fill="#F0F4FD"/>
<rect x="0.5" y="0.5" width="131" height="116.164" rx="9.5" stroke="#96A0B7" stroke-dasharray="4 4"/>
<path d="M49.0229 41.4258C49.1877 40.4688 49.5791 39.5652 50.1644 38.7904C50.6288 38.1776 51.218 37.6703 51.8931 37.3022C52.5682 36.9342 53.3138 36.7137 54.0805 36.6555C54.2691 36.6617 54.4543 36.605 54.6072 36.4945C54.7601 36.384 54.872 36.2258 54.9252 36.0448C55.269 35.1282 55.8489 34.3189 56.6063 33.6988C57.3637 33.0786 58.2717 32.6698 59.238 32.5136C59.9674 32.3791 60.7182 32.4176 61.43 32.6262C61.4836 32.6488 61.5412 32.6605 61.5994 32.6603C61.6577 32.6602 61.7153 32.6483 61.7688 32.6253C61.8223 32.6024 61.8706 32.5688 61.9108 32.5267C61.9511 32.4847 61.9824 32.4349 62.0029 32.3804C62.6464 31.2637 63.5441 30.3144 64.6233 29.6098C65.7025 28.9052 66.9326 28.4651 68.2138 28.3252C70.0034 28.1197 71.8115 28.497 73.3695 29.4011C74.9275 30.3052 76.1522 31.6878 76.8617 33.3435C77.2739 34.3155 77.5103 35.3529 77.5598 36.4075C77.5716 36.6732 77.6738 36.765 77.9403 36.8124C79.1792 37.0404 80.3019 37.6877 81.1197 38.6458C81.9376 39.6039 82.4008 40.8142 82.4315 42.0735C82.4549 43.3886 82.0176 44.6704 81.1953 45.697C80.3731 46.7235 79.2177 47.4302 77.9292 47.6945C77.1887 47.8124 76.438 47.8526 75.6891 47.8144C75.4981 47.8144 75.4145 47.7218 75.4175 47.5331C75.4219 47.2503 75.4271 46.9675 75.4175 46.6855C75.4093 46.4478 75.5063 46.3612 75.7446 46.3605C76.2879 46.3735 76.8315 46.3586 77.3732 46.3161C78.3426 46.2058 79.24 45.7507 79.9018 45.0339C80.5637 44.3171 80.9457 43.3862 80.9784 42.4111C81.0295 41.3867 80.702 40.3792 80.0582 39.5807C79.4144 38.7822 78.4992 38.2485 77.4872 38.0812C77.1763 38.0331 76.8625 37.9991 76.5493 37.9783C76.248 37.9591 76.1104 37.8481 76.1229 37.5157C76.171 36.6909 76.1072 35.8634 75.9334 35.0557C75.5938 33.629 74.8101 32.3468 73.6951 31.394C72.5801 30.4412 71.1915 29.8669 69.7292 29.7539C68.7908 29.661 67.8435 29.77 66.9507 30.0735C66.058 30.377 65.2405 30.868 64.5532 31.5135C64.0146 32.0233 63.5712 32.6249 63.2436 33.2902C63.06 33.6477 62.8579 33.9949 62.6743 34.3525C62.6616 34.3911 62.6403 34.4263 62.6121 34.4555C62.5839 34.4848 62.5495 34.5074 62.5115 34.5216C62.4734 34.5358 62.4326 34.5413 62.3921 34.5376C62.3516 34.534 62.3125 34.5213 62.2776 34.5005C62.0163 34.3939 61.7394 34.3199 61.4877 34.1955C60.9555 33.9547 60.3728 33.8468 59.7896 33.8811C59.2065 33.9154 58.6404 34.0909 58.1402 34.3925C57.6292 34.6407 57.1825 35.0038 56.835 35.4532C56.4875 35.9027 56.2486 36.4264 56.137 36.9834C56.0807 37.2262 56.0008 37.4653 55.9586 37.7104C55.912 37.9783 55.7713 38.059 55.5085 38.0539C54.7925 37.9971 54.072 38.0627 53.378 38.2478C52.5123 38.5085 51.7571 39.0483 51.2302 39.783C50.7033 40.5177 50.4343 41.4061 50.465 42.3097C50.4596 43.2536 50.7885 44.169 51.3933 44.8938C51.9982 45.6185 52.8399 46.1058 53.7696 46.2694C54.3704 46.3689 54.981 46.3973 55.5885 46.3538C55.9157 46.3383 56.0459 46.4478 56.0171 46.7795C55.9941 47.0386 56.0104 47.2977 56.0104 47.5619C56.0142 47.5943 56.0108 47.6271 56.0004 47.658C55.9901 47.6889 55.9731 47.7171 55.9506 47.7407C55.9282 47.7643 55.9008 47.7827 55.8704 47.7945C55.8401 47.8064 55.8075 47.8114 55.775 47.8092C53.7474 47.938 51.9026 47.542 50.4628 45.9696C49.7633 45.2024 49.288 44.2577 49.0888 43.2387C49.0711 43.1543 49.0466 43.0714 49.0252 42.987L49.0229 41.4258Z" fill="#4276E0"/>
<path d="M57.3585 47.7624C57.3585 47.5129 57.3474 47.262 57.3585 47.0132C57.3564 46.9282 57.3717 46.8437 57.4035 46.7648C57.4352 46.686 57.4827 46.6144 57.5431 46.5545C57.6034 46.4947 57.6754 46.4477 57.7545 46.4166C57.8336 46.3855 57.9182 46.3709 58.0032 46.3736C58.3282 46.3588 58.6554 46.3736 58.9804 46.3655C59.1498 46.3808 59.3189 46.3332 59.4555 46.2317C59.592 46.1303 59.6864 45.9821 59.7207 45.8155C59.8413 45.4897 59.9709 45.1655 60.1189 44.8531C60.1946 44.7133 60.2197 44.5515 60.1899 44.3953C60.1601 44.2391 60.0772 44.098 59.9553 43.9959C59.7481 43.7886 59.5363 43.585 59.335 43.3718C59.2545 43.309 59.1892 43.2289 59.1439 43.1375C59.0986 43.046 59.0743 42.9456 59.0731 42.8435C59.0718 42.7414 59.0935 42.6404 59.1365 42.5478C59.1795 42.4553 59.2428 42.3736 59.3216 42.3088C59.6281 41.9855 59.9433 41.6707 60.267 41.3642C60.33 41.2953 60.4066 41.2404 60.492 41.2027C60.5774 41.1651 60.6697 41.1457 60.763 41.1457C60.8563 41.1457 60.9486 41.1651 61.034 41.2027C61.1194 41.2404 61.196 41.2953 61.2589 41.3642C61.467 41.5537 61.6594 41.7602 61.8601 41.9564C61.9718 42.1076 62.1359 42.2116 62.3203 42.2483C62.5047 42.285 62.6961 42.2517 62.8572 42.1548C63.137 42.0364 63.4221 41.929 63.6967 41.7987C63.8836 41.7336 64.043 41.6071 64.149 41.44C64.255 41.2728 64.3015 41.0747 64.2808 40.8778C64.2648 40.6501 64.2648 40.4215 64.2808 40.1938C64.2726 40.084 64.2888 39.9738 64.3282 39.871C64.3677 39.7682 64.4294 39.6754 64.5089 39.5993C64.5884 39.5231 64.6838 39.4655 64.7882 39.4306C64.8926 39.3957 65.0035 39.3843 65.1128 39.3973C65.5254 39.3904 65.9382 39.3904 66.3513 39.3973C66.4526 39.3891 66.5546 39.4022 66.6505 39.4359C66.7464 39.4696 66.8341 39.5231 66.9081 39.5929C66.982 39.6627 67.0404 39.7473 67.0795 39.8411C67.1187 39.9349 67.1376 40.0359 67.1352 40.1376C67.1533 40.3978 67.155 40.6589 67.1404 40.9193C67.126 41.1 67.1703 41.2806 67.2669 41.434C67.3635 41.5875 67.5072 41.7055 67.6764 41.7706C67.9984 41.9261 68.3345 42.0541 68.6639 42.1948C68.7979 42.2585 68.9488 42.2777 69.0945 42.2496C69.2402 42.2215 69.3731 42.1476 69.4738 42.0386C69.6958 41.8276 69.9024 41.607 70.123 41.3968C70.1878 41.3187 70.2689 41.2558 70.3607 41.2125C70.4524 41.1691 70.5524 41.1463 70.6539 41.1458C70.7553 41.1452 70.8557 41.1669 70.9479 41.2092C71.04 41.2515 71.1218 41.3135 71.1875 41.3908C71.4836 41.6781 71.7756 41.9702 72.0633 42.2673C72.1505 42.3347 72.2208 42.4214 72.2689 42.5205C72.3169 42.6197 72.3413 42.7286 72.3402 42.8388C72.339 42.949 72.3124 43.0574 72.2623 43.1555C72.2122 43.2537 72.14 43.3388 72.0514 43.4044C71.8545 43.6072 71.6524 43.8041 71.454 44.0055C71.3364 44.1043 71.2564 44.2407 71.2278 44.3917C71.1992 44.5427 71.2237 44.6989 71.2971 44.8339C71.457 45.1662 71.5814 45.5157 71.7413 45.8466C71.8108 46.014 71.9319 46.1549 72.087 46.2487C72.2421 46.3426 72.4231 46.3845 72.6037 46.3685C72.8746 46.3559 73.1477 46.3596 73.4179 46.3729C73.503 46.3693 73.5879 46.3835 73.6672 46.4144C73.7465 46.4453 73.8185 46.4923 73.8787 46.5525C73.9389 46.6127 73.9859 46.6847 74.0168 46.764C74.0477 46.8433 74.0619 46.9282 74.0583 47.0132C74.0731 47.5233 74.0724 48.0348 74.0583 48.5449C74.0595 48.6299 74.0433 48.7143 74.011 48.793C73.9786 48.8717 73.9307 48.943 73.87 49.0026C73.8093 49.0622 73.7372 49.1089 73.658 49.1399C73.5788 49.1709 73.4941 49.1856 73.4091 49.183C73.1598 49.203 72.9092 49.203 72.6599 49.183C72.4635 49.1586 72.2646 49.1999 72.094 49.3003C71.9234 49.4007 71.7909 49.5546 71.7168 49.7382C71.5414 50.0868 71.3985 50.4518 71.246 50.8123C71.2046 50.9077 71.1915 51.013 71.2083 51.1157C71.2251 51.2184 71.2711 51.314 71.3408 51.3912C71.5154 51.6133 71.7112 51.8179 71.9256 52.0019C72.0434 52.0689 72.1424 52.1647 72.2133 52.2802C72.2842 52.3957 72.3248 52.5273 72.3312 52.6627C72.3376 52.7981 72.3097 52.9329 72.2501 53.0546C72.1904 53.1763 72.1009 53.281 71.99 53.3589C71.7472 53.6083 71.5022 53.8548 71.2497 54.0991C71.1813 54.1925 71.0919 54.2685 70.9887 54.3211C70.8856 54.3737 70.7716 54.4013 70.6558 54.4018C70.5401 54.4023 70.4258 54.3757 70.3222 54.324C70.2186 54.2723 70.1286 54.1971 70.0593 54.1043C69.8654 53.9148 69.6729 53.7223 69.4842 53.5269C69.3787 53.4076 69.2364 53.327 69.0799 53.2979C68.9233 53.2687 68.7615 53.2928 68.6203 53.3663C68.5499 53.3959 68.4796 53.424 68.4093 53.4529C66.908 54.0725 67.1419 54.1191 67.133 55.2888C67.1286 55.8876 66.871 56.143 66.2758 56.1549C65.8738 56.163 65.4711 56.1734 65.0706 56.1475C64.5191 56.1119 64.3178 55.9002 64.28 55.3502C64.2631 55.0791 64.2599 54.8073 64.2704 54.5359C64.2785 54.4049 64.2494 54.2742 64.1866 54.159C64.1237 54.0438 64.0296 53.9486 63.9151 53.8845C63.512 53.6476 63.083 53.4578 62.6366 53.3189C62.5173 53.2762 62.3879 53.2707 62.2653 53.3031C62.1428 53.3355 62.033 53.4042 61.9504 53.5003C61.7379 53.7179 61.5233 53.9341 61.3041 54.1443C61.2435 54.2226 61.1664 54.2865 61.0782 54.3316C60.9901 54.3767 60.8931 54.4018 60.7941 54.4051C60.6952 54.4084 60.5967 54.3899 60.5057 54.3508C60.4147 54.3118 60.3335 54.2531 60.2677 54.1791C59.9193 53.868 59.5884 53.5379 59.2765 53.1901C59.2096 53.1249 59.1572 53.0464 59.1226 52.9596C59.088 52.8729 59.072 52.7798 59.0757 52.6865C59.0794 52.5931 59.1027 52.5016 59.144 52.4179C59.1854 52.3341 59.2439 52.26 59.3157 52.2003C59.5252 51.9783 59.7429 51.7665 59.9575 51.5511C60.0776 51.4467 60.159 51.3049 60.1885 51.1485C60.2181 50.9922 60.1941 50.8305 60.1204 50.6894C59.982 50.383 59.8613 50.0684 59.7214 49.7619C59.6571 49.5806 59.5343 49.4258 59.3724 49.3218C59.2106 49.2179 59.0188 49.1706 58.8272 49.1874C58.5992 49.2 58.3704 49.1926 58.1424 49.1874C58.0333 49.2022 57.9223 49.1913 57.8181 49.1556C57.714 49.1199 57.6196 49.0604 57.5425 48.9819C57.4654 48.9033 57.4077 48.8079 57.3739 48.7031C57.3402 48.5983 57.3313 48.4871 57.3481 48.3783C57.3481 48.1718 57.3481 47.9652 57.3481 47.7587L57.3585 47.7624ZM65.7117 51.2076C66.1662 51.2175 66.618 51.1357 67.04 50.9669C67.4621 50.7981 67.8458 50.5458 68.1681 50.2253C68.4904 49.9047 68.7446 49.5224 68.9157 49.1012C69.0868 48.6801 69.1711 48.2287 69.1636 47.7742C69.1619 47.3213 69.0709 46.8732 68.896 46.4554C68.721 46.0376 68.4655 45.6584 68.144 45.3394C67.8225 45.0203 67.4413 44.7678 67.0222 44.5961C66.6031 44.4243 66.1543 44.3369 65.7014 44.3386C65.2484 44.3404 64.8003 44.4313 64.3825 44.6063C63.9647 44.7812 63.5855 45.0367 63.2665 45.3582C62.9474 45.6797 62.6949 46.0609 62.5232 46.48C62.3515 46.8991 62.264 47.348 62.2657 47.8009C62.2631 48.2522 62.3508 48.6994 62.5235 49.1164C62.6963 49.5333 62.9507 49.9115 63.2718 50.2286C63.5928 50.5458 63.9741 50.7955 64.3931 50.9631C64.8122 51.1307 65.2605 51.2129 65.7117 51.2047V51.2076Z" fill="#6B94E7"/>
<path d="M20.0368 69.8741H17.7568V76.1641H16.6968V69.8741H14.4068V68.9841H20.0368V69.8741ZM21.7567 71.7291C21.97 71.5124 22.205 71.3374 22.4617 71.2041C22.7217 71.0707 23.02 71.0041 23.3567 71.0041C23.6367 71.0041 23.8817 71.0507 24.0917 71.1441C24.305 71.2374 24.4833 71.3691 24.6267 71.5391C24.77 71.7057 24.8783 71.9074 24.9517 72.1441C25.025 72.3807 25.0617 72.6424 25.0617 72.9291V76.1641H24.0817V72.9291C24.0817 72.5657 23.9983 72.2841 23.8317 72.0841C23.665 71.8807 23.41 71.7791 23.0667 71.7791C22.8167 71.7791 22.5817 71.8391 22.3617 71.9591C22.145 72.0757 21.9433 72.2357 21.7567 72.4391V76.1641H20.7817V68.7841H21.7567V71.7291ZM27.3974 71.0841V76.1641H26.4224V71.0841H27.3974ZM27.5824 69.5141C27.5824 69.6041 27.564 69.6907 27.5274 69.7741C27.4907 69.8541 27.4407 69.9257 27.3774 69.9891C27.3174 70.0491 27.2457 70.0974 27.1624 70.1341C27.079 70.1674 26.9924 70.1841 26.9024 70.1841C26.8124 70.1841 26.7274 70.1674 26.6474 70.1341C26.5674 70.0974 26.4957 70.0491 26.4324 69.9891C26.3724 69.9257 26.324 69.8541 26.2874 69.7741C26.254 69.6907 26.2374 69.6041 26.2374 69.5141C26.2374 69.4207 26.254 69.3341 26.2874 69.2541C26.324 69.1707 26.3724 69.0991 26.4324 69.0391C26.4957 68.9757 26.5674 68.9274 26.6474 68.8941C26.7274 68.8574 26.8124 68.8391 26.9024 68.8391C26.9924 68.8391 27.079 68.8574 27.1624 68.8941C27.2457 68.9274 27.3174 68.9757 27.3774 69.0391C27.4407 69.0991 27.4907 69.1707 27.5274 69.2541C27.564 69.3341 27.5824 69.4207 27.5824 69.5141ZM29.729 72.0591C29.8924 71.7257 30.089 71.4641 30.319 71.2741C30.549 71.0841 30.8257 70.9891 31.149 70.9891C31.259 70.9891 31.3624 71.0024 31.459 71.0291C31.559 71.0524 31.6457 71.0891 31.719 71.1391L31.654 71.8741C31.6307 71.9641 31.5757 72.0091 31.489 72.0091C31.4424 72.0091 31.3724 72.0007 31.279 71.9841C31.1857 71.9641 31.0857 71.9541 30.979 71.9541C30.8224 71.9541 30.684 71.9774 30.564 72.0241C30.444 72.0674 30.3357 72.1341 30.239 72.2241C30.1457 72.3107 30.0624 72.4191 29.989 72.5491C29.9157 72.6757 29.8474 72.8207 29.784 72.9841V76.1641H28.809V71.0841H29.369C29.4757 71.0841 29.5474 71.1041 29.584 71.1441C29.624 71.1807 29.6524 71.2474 29.669 71.3441L29.729 72.0591ZM35.5704 72.3141C35.4104 72.1041 35.237 71.9574 35.0504 71.8741C34.867 71.7907 34.6604 71.7491 34.4304 71.7491C33.9837 71.7491 33.637 71.9107 33.3904 72.2341C33.147 72.5541 33.0254 73.0224 33.0254 73.6391C33.0254 73.9624 33.052 74.2391 33.1054 74.4691C33.162 74.6957 33.242 74.8824 33.3454 75.0291C33.452 75.1724 33.582 75.2791 33.7354 75.3491C33.8887 75.4157 34.062 75.4491 34.2554 75.4491C34.5387 75.4491 34.7837 75.3857 34.9904 75.2591C35.197 75.1324 35.3904 74.9541 35.5704 74.7241V72.3141ZM36.5504 68.7841V76.1641H35.9604C35.8237 76.1641 35.7387 76.0991 35.7054 75.9691L35.6204 75.3841C35.4037 75.6407 35.157 75.8474 34.8804 76.0041C34.607 76.1574 34.2904 76.2341 33.9304 76.2341C33.6404 76.2341 33.377 76.1774 33.1404 76.0641C32.907 75.9507 32.707 75.7857 32.5404 75.5691C32.3737 75.3491 32.2454 75.0774 32.1554 74.7541C32.0654 74.4307 32.0204 74.0591 32.0204 73.6391C32.0204 73.2624 32.0704 72.9124 32.1704 72.5891C32.2704 72.2657 32.4154 71.9857 32.6054 71.7491C32.7954 71.5124 33.0254 71.3274 33.2954 71.1941C33.5654 71.0574 33.8704 70.9891 34.2104 70.9891C34.517 70.9891 34.777 71.0391 34.9904 71.1391C35.207 71.2391 35.4004 71.3807 35.5704 71.5641V68.7841H36.5504ZM42.8149 72.6791C43.0849 72.6791 43.3215 72.6441 43.5249 72.5741C43.7315 72.5041 43.9032 72.4057 44.0399 72.2791C44.1799 72.1491 44.2849 71.9957 44.3549 71.8191C44.4249 71.6391 44.4599 71.4407 44.4599 71.2241C44.4599 70.7874 44.3232 70.4441 44.0499 70.1941C43.7799 69.9441 43.3682 69.8191 42.8149 69.8191H41.7049V72.6791H42.8149ZM42.8149 68.9841C43.2749 68.9841 43.6749 69.0374 44.0149 69.1441C44.3549 69.2507 44.6365 69.4024 44.8599 69.5991C45.0832 69.7924 45.2482 70.0274 45.3549 70.3041C45.4649 70.5807 45.5199 70.8874 45.5199 71.2241C45.5199 71.5607 45.4615 71.8707 45.3449 72.1541C45.2282 72.4341 45.0565 72.6757 44.8299 72.8791C44.6032 73.0824 44.3199 73.2407 43.9799 73.3541C43.6432 73.4641 43.2549 73.5191 42.8149 73.5191H41.7049V76.1641H40.6399V68.9841H42.8149ZM49.0683 73.9091C48.6717 73.9224 48.335 73.9541 48.0583 74.0041C47.7817 74.0507 47.5567 74.1141 47.3833 74.1941C47.21 74.2741 47.085 74.3691 47.0083 74.4791C46.9317 74.5857 46.8933 74.7057 46.8933 74.8391C46.8933 74.9657 46.9133 75.0757 46.9533 75.1691C46.9967 75.2591 47.0533 75.3341 47.1233 75.3941C47.1967 75.4507 47.2817 75.4924 47.3783 75.5191C47.475 75.5457 47.58 75.5591 47.6933 75.5591C47.8433 75.5591 47.98 75.5441 48.1033 75.5141C48.23 75.4841 48.3483 75.4424 48.4583 75.3891C48.5683 75.3324 48.6733 75.2641 48.7733 75.1841C48.8733 75.1041 48.9717 75.0124 49.0683 74.9091V73.9091ZM46.2083 71.7941C46.4917 71.5241 46.7983 71.3224 47.1283 71.1891C47.4617 71.0557 47.8267 70.9891 48.2233 70.9891C48.5133 70.9891 48.77 71.0374 48.9933 71.1341C49.2167 71.2274 49.405 71.3591 49.5583 71.5291C49.7117 71.6991 49.8267 71.9024 49.9033 72.1391C49.9833 72.3757 50.0233 72.6374 50.0233 72.9241V76.1641H49.5883C49.4917 76.1641 49.4183 76.1491 49.3683 76.1191C49.3183 76.0857 49.2783 76.0257 49.2483 75.9391L49.1433 75.4941C49.0133 75.6141 48.885 75.7207 48.7583 75.8141C48.6317 75.9041 48.4983 75.9824 48.3583 76.0491C48.2217 76.1124 48.075 76.1607 47.9183 76.1941C47.7617 76.2274 47.5883 76.2441 47.3983 76.2441C47.1983 76.2441 47.01 76.2174 46.8333 76.1641C46.66 76.1074 46.5083 76.0224 46.3783 75.9091C46.2483 75.7957 46.145 75.6541 46.0683 75.4841C45.995 75.3141 45.9583 75.1157 45.9583 74.8891C45.9583 74.6891 46.0117 74.4974 46.1183 74.3141C46.2283 74.1274 46.405 73.9607 46.6483 73.8141C46.895 73.6674 47.215 73.5474 47.6083 73.4541C48.005 73.3607 48.4917 73.3074 49.0683 73.2941V72.9241C49.0683 72.5407 48.9867 72.2541 48.8233 72.0641C48.66 71.8741 48.42 71.7791 48.1033 71.7791C47.89 71.7791 47.71 71.8057 47.5633 71.8591C47.42 71.9124 47.295 71.9724 47.1883 72.0391C47.085 72.1024 46.9933 72.1607 46.9133 72.2141C46.8367 72.2674 46.7567 72.2941 46.6733 72.2941C46.6067 72.2941 46.5483 72.2757 46.4983 72.2391C46.4517 72.2024 46.4133 72.1591 46.3833 72.1091L46.2083 71.7941ZM52.2486 72.0591C52.4119 71.7257 52.6086 71.4641 52.8386 71.2741C53.0686 71.0841 53.3452 70.9891 53.6686 70.9891C53.7786 70.9891 53.8819 71.0024 53.9786 71.0291C54.0786 71.0524 54.1652 71.0891 54.2386 71.1391L54.1736 71.8741C54.1502 71.9641 54.0952 72.0091 54.0086 72.0091C53.9619 72.0091 53.8919 72.0007 53.7986 71.9841C53.7052 71.9641 53.6052 71.9541 53.4986 71.9541C53.3419 71.9541 53.2036 71.9774 53.0836 72.0241C52.9636 72.0674 52.8552 72.1341 52.7586 72.2241C52.6652 72.3107 52.5819 72.4191 52.5086 72.5491C52.4352 72.6757 52.3669 72.8207 52.3036 72.9841V76.1641H51.3286V71.0841H51.8886C51.9952 71.0841 52.0669 71.1041 52.1036 71.1441C52.1436 71.1807 52.1719 71.2474 52.1886 71.3441L52.2486 72.0591ZM56.5807 76.2441C56.1707 76.2441 55.854 76.1291 55.6307 75.8991C55.4107 75.6691 55.3007 75.3407 55.3007 74.9141V71.8741H54.7107C54.654 71.8741 54.6057 71.8574 54.5657 71.8241C54.529 71.7874 54.5107 71.7341 54.5107 71.6641V71.2691L55.3357 71.1541L55.5557 69.6391C55.569 69.5824 55.594 69.5391 55.6307 69.5091C55.6707 69.4757 55.7207 69.4591 55.7807 69.4591H56.2757V71.1641H57.7157V71.8741H56.2757V74.8491C56.2757 75.0491 56.324 75.1991 56.4207 75.2991C56.5207 75.3957 56.6473 75.4441 56.8007 75.4441C56.8907 75.4441 56.9673 75.4324 57.0307 75.4091C57.0973 75.3857 57.154 75.3607 57.2007 75.3341C57.2473 75.3041 57.2873 75.2774 57.3207 75.2541C57.354 75.2307 57.384 75.2191 57.4107 75.2191C57.444 75.2191 57.469 75.2274 57.4857 75.2441C57.5057 75.2574 57.5257 75.2807 57.5457 75.3141L57.8357 75.7841C57.6757 75.9307 57.4857 76.0441 57.2657 76.1241C57.0457 76.2041 56.8173 76.2441 56.5807 76.2441ZM63.0537 71.0841L60.2337 77.6391C60.2037 77.7124 60.1637 77.7691 60.1137 77.8091C60.0637 77.8491 59.9904 77.8691 59.8937 77.8691H59.1687L60.0987 75.8441L58.0137 71.0841H58.8637C58.947 71.0841 59.012 71.1041 59.0587 71.1441C59.1054 71.1841 59.1387 71.2291 59.1587 71.2791L60.4487 74.3291C60.4754 74.4057 60.5004 74.4841 60.5237 74.5641C60.5504 74.6407 60.572 74.7174 60.5887 74.7941C60.612 74.7141 60.637 74.6357 60.6637 74.5591C60.6904 74.4791 60.7187 74.4007 60.7487 74.3241L61.9937 71.2791C62.017 71.2224 62.0537 71.1757 62.1037 71.1391C62.1537 71.1024 62.2104 71.0841 62.2737 71.0841H63.0537ZM72.1644 68.9841V76.1641H71.6244C71.5411 76.1641 71.4711 76.1491 71.4144 76.1191C71.3611 76.0891 71.3061 76.0407 71.2494 75.9741L67.1944 70.7291C67.2011 70.8191 67.2061 70.9074 67.2094 70.9941C67.2161 71.0807 67.2194 71.1624 67.2194 71.2391V76.1641H66.2844V68.9841H66.8344C66.9277 68.9841 66.9977 68.9957 67.0444 69.0191C67.0911 69.0391 67.1427 69.0874 67.1994 69.1641L71.2644 74.4141C71.2544 74.3174 71.2461 74.2241 71.2394 74.1341C71.2361 74.0407 71.2344 73.9541 71.2344 73.8741V68.9841H72.1644ZM75.7494 71.0041C76.1227 71.0041 76.4594 71.0657 76.7594 71.1891C77.0627 71.3091 77.3194 71.4841 77.5294 71.7141C77.7427 71.9407 77.9061 72.2157 78.0194 72.5391C78.1327 72.8591 78.1894 73.2191 78.1894 73.6191C78.1894 74.0191 78.1327 74.3807 78.0194 74.7041C77.9061 75.0274 77.7427 75.3024 77.5294 75.5291C77.3194 75.7557 77.0627 75.9307 76.7594 76.0541C76.4594 76.1741 76.1227 76.2341 75.7494 76.2341C75.3727 76.2341 75.0327 76.1741 74.7294 76.0541C74.4294 75.9307 74.1727 75.7557 73.9594 75.5291C73.7461 75.3024 73.5811 75.0274 73.4644 74.7041C73.3511 74.3807 73.2944 74.0191 73.2944 73.6191C73.2944 73.2191 73.3511 72.8591 73.4644 72.5391C73.5811 72.2157 73.7461 71.9407 73.9594 71.7141C74.1727 71.4841 74.4294 71.3091 74.7294 71.1891C75.0327 71.0657 75.3727 71.0041 75.7494 71.0041ZM75.7494 75.4741C76.2294 75.4741 76.5877 75.3124 76.8244 74.9891C77.0611 74.6657 77.1794 74.2107 77.1794 73.6241C77.1794 73.0374 77.0611 72.5824 76.8244 72.2591C76.5877 71.9324 76.2294 71.7691 75.7494 71.7691C75.2627 71.7691 74.8994 71.9324 74.6594 72.2591C74.4227 72.5824 74.3044 73.0374 74.3044 73.6241C74.3044 74.2107 74.4227 74.6657 74.6594 74.9891C74.8994 75.3124 75.2627 75.4741 75.7494 75.4741ZM83.9951 76.1641H83.0151V71.8741H80.4651V74.8491C80.4651 75.0491 80.5135 75.1991 80.6101 75.2991C80.7101 75.3957 80.8368 75.4441 80.9901 75.4441C81.0801 75.4441 81.1568 75.4324 81.2201 75.4091C81.2868 75.3857 81.3435 75.3607 81.3901 75.3341C81.4368 75.3041 81.4768 75.2774 81.5101 75.2541C81.5435 75.2307 81.5735 75.2191 81.6001 75.2191C81.6335 75.2191 81.6585 75.2274 81.6751 75.2441C81.6951 75.2574 81.7151 75.2807 81.7351 75.3141L82.0251 75.7841C81.8651 75.9307 81.6751 76.0441 81.4551 76.1241C81.2351 76.2041 81.0068 76.2441 80.7701 76.2441C80.3601 76.2441 80.0435 76.1291 79.8201 75.8991C79.6001 75.6691 79.4901 75.3407 79.4901 74.9141V71.8741H78.9001C78.8435 71.8741 78.7951 71.8574 78.7551 71.8241C78.7185 71.7874 78.7001 71.7341 78.7001 71.6641V71.2691L79.5301 71.1541L79.7451 69.6391C79.7585 69.5824 79.7835 69.5391 79.8201 69.5091C79.8601 69.4757 79.9101 69.4591 79.9701 69.4591H80.4651V71.1641H83.9951V76.1641ZM84.2151 69.4841C84.2151 69.5741 84.1968 69.6607 84.1601 69.7441C84.1235 69.8241 84.0735 69.8957 84.0101 69.9591C83.9501 70.0191 83.8785 70.0674 83.7951 70.1041C83.7118 70.1374 83.6251 70.1541 83.5351 70.1541C83.4451 70.1541 83.3601 70.1374 83.2801 70.1041C83.2001 70.0674 83.1285 70.0191 83.0651 69.9591C83.0051 69.8957 82.9568 69.8241 82.9201 69.7441C82.8868 69.6607 82.8701 69.5741 82.8701 69.4841C82.8701 69.3907 82.8868 69.3024 82.9201 69.2191C82.9568 69.1357 83.0051 69.0641 83.0651 69.0041C83.1285 68.9407 83.2001 68.8924 83.2801 68.8591C83.3601 68.8224 83.4451 68.8041 83.5351 68.8041C83.6251 68.8041 83.7118 68.8224 83.7951 68.8591C83.8785 68.8924 83.9501 68.9407 84.0101 69.0041C84.0735 69.0641 84.1235 69.1357 84.1601 69.2191C84.1968 69.3024 84.2151 69.3907 84.2151 69.4841ZM85.7506 76.1641V71.8841L85.2206 71.8191C85.1439 71.8024 85.0806 71.7757 85.0306 71.7391C84.9839 71.6991 84.9606 71.6424 84.9606 71.5691V71.1641H85.7506V70.9191C85.7506 70.6091 85.7989 70.3241 85.8956 70.0641C85.9956 69.8007 86.1439 69.5741 86.3406 69.3841C86.5406 69.1941 86.7873 69.0474 87.0806 68.9441C87.3773 68.8374 87.7239 68.7841 88.1206 68.7841C88.2473 68.7841 88.3806 68.7924 88.5206 68.8091C88.6606 68.8257 88.7789 68.8507 88.8756 68.8841L88.8406 69.3941C88.8339 69.4607 88.7923 69.4957 88.7156 69.4991C88.6389 69.5024 88.5323 69.5041 88.3956 69.5041C88.0923 69.5041 87.8339 69.5341 87.6206 69.5941C87.4073 69.6541 87.2323 69.7441 87.0956 69.8641C86.9589 69.9841 86.8589 70.1357 86.7956 70.3191C86.7323 70.4991 86.7006 70.7091 86.7006 70.9491V71.1641H89.7906V76.1641H88.8106V71.8741H86.7306V76.1641H85.7506ZM94.7616 72.0341C94.7316 72.0707 94.7016 72.1007 94.6716 72.1241C94.6449 72.1441 94.6049 72.1541 94.5516 72.1541C94.4983 72.1541 94.4416 72.1341 94.3816 72.0941C94.3249 72.0507 94.2516 72.0057 94.1616 71.9591C94.0749 71.9091 93.9683 71.8641 93.8416 71.8241C93.7183 71.7807 93.5649 71.7591 93.3816 71.7591C93.1416 71.7591 92.9299 71.8024 92.7466 71.8891C92.5633 71.9757 92.4099 72.0991 92.2866 72.2591C92.1666 72.4191 92.0749 72.6141 92.0116 72.8441C91.9483 73.0741 91.9166 73.3324 91.9166 73.6191C91.9166 73.9157 91.9499 74.1807 92.0166 74.4141C92.0833 74.6441 92.1783 74.8391 92.3016 74.9991C92.4249 75.1557 92.5749 75.2757 92.7516 75.3591C92.9283 75.4391 93.1249 75.4791 93.3416 75.4791C93.5516 75.4791 93.7249 75.4541 93.8616 75.4041C93.9983 75.3507 94.1116 75.2941 94.2016 75.2341C94.2916 75.1741 94.3666 75.1191 94.4266 75.0691C94.4866 75.0157 94.5483 74.9891 94.6116 74.9891C94.6916 74.9891 94.7533 75.0191 94.7966 75.0791L95.0766 75.4391C94.9599 75.5824 94.8283 75.7041 94.6816 75.8041C94.5383 75.9041 94.3849 75.9857 94.2216 76.0491C94.0583 76.1124 93.8866 76.1591 93.7066 76.1891C93.5299 76.2191 93.3499 76.2341 93.1666 76.2341C92.8499 76.2341 92.5533 76.1757 92.2766 76.0591C92.0033 75.9424 91.7649 75.7724 91.5616 75.5491C91.3616 75.3257 91.2033 75.0524 91.0866 74.7291C90.9699 74.4024 90.9116 74.0324 90.9116 73.6191C90.9116 73.2424 90.9633 72.8941 91.0666 72.5741C91.1733 72.2541 91.3283 71.9791 91.5316 71.7491C91.7383 71.5157 91.9916 71.3341 92.2916 71.2041C92.5916 71.0707 92.9349 71.0041 93.3216 71.0041C93.6849 71.0041 94.0049 71.0624 94.2816 71.1791C94.5583 71.2957 94.8049 71.4607 95.0216 71.6741L94.7616 72.0341ZM98.7168 73.9091C98.3201 73.9224 97.9834 73.9541 97.7068 74.0041C97.4301 74.0507 97.2051 74.1141 97.0318 74.1941C96.8584 74.2741 96.7334 74.3691 96.6568 74.4791C96.5801 74.5857 96.5418 74.7057 96.5418 74.8391C96.5418 74.9657 96.5618 75.0757 96.6018 75.1691C96.6451 75.2591 96.7018 75.3341 96.7718 75.3941C96.8451 75.4507 96.9301 75.4924 97.0268 75.5191C97.1234 75.5457 97.2284 75.5591 97.3418 75.5591C97.4918 75.5591 97.6284 75.5441 97.7518 75.5141C97.8784 75.4841 97.9968 75.4424 98.1068 75.3891C98.2168 75.3324 98.3218 75.2641 98.4218 75.1841C98.5218 75.1041 98.6201 75.0124 98.7168 74.9091V73.9091ZM95.8568 71.7941C96.1401 71.5241 96.4468 71.3224 96.7768 71.1891C97.1101 71.0557 97.4751 70.9891 97.8718 70.9891C98.1618 70.9891 98.4184 71.0374 98.6418 71.1341C98.8651 71.2274 99.0534 71.3591 99.2068 71.5291C99.3601 71.6991 99.4751 71.9024 99.5518 72.1391C99.6318 72.3757 99.6718 72.6374 99.6718 72.9241V76.1641H99.2368C99.1401 76.1641 99.0668 76.1491 99.0168 76.1191C98.9668 76.0857 98.9268 76.0257 98.8968 75.9391L98.7918 75.4941C98.6618 75.6141 98.5334 75.7207 98.4068 75.8141C98.2801 75.9041 98.1468 75.9824 98.0068 76.0491C97.8701 76.1124 97.7234 76.1607 97.5668 76.1941C97.4101 76.2274 97.2368 76.2441 97.0468 76.2441C96.8468 76.2441 96.6584 76.2174 96.4818 76.1641C96.3084 76.1074 96.1568 76.0224 96.0268 75.9091C95.8968 75.7957 95.7934 75.6541 95.7168 75.4841C95.6434 75.3141 95.6068 75.1157 95.6068 74.8891C95.6068 74.6891 95.6601 74.4974 95.7668 74.3141C95.8768 74.1274 96.0534 73.9607 96.2968 73.8141C96.5434 73.6674 96.8634 73.5474 97.2568 73.4541C97.6534 73.3607 98.1401 73.3074 98.7168 73.2941V72.9241C98.7168 72.5407 98.6351 72.2541 98.4718 72.0641C98.3084 71.8741 98.0684 71.7791 97.7518 71.7791C97.5384 71.7791 97.3584 71.8057 97.2118 71.8591C97.0684 71.9124 96.9434 71.9724 96.8368 72.0391C96.7334 72.1024 96.6418 72.1607 96.5618 72.2141C96.4851 72.2674 96.4051 72.2941 96.3218 72.2941C96.2551 72.2941 96.1968 72.2757 96.1468 72.2391C96.1001 72.2024 96.0618 72.1591 96.0318 72.1091L95.8568 71.7941ZM105.724 76.1641H104.744V71.8741H102.194V74.8491C102.194 75.0491 102.242 75.1991 102.339 75.2991C102.439 75.3957 102.565 75.4441 102.719 75.4441C102.809 75.4441 102.885 75.4324 102.949 75.4091C103.015 75.3857 103.072 75.3607 103.119 75.3341C103.165 75.3041 103.205 75.2774 103.239 75.2541C103.272 75.2307 103.302 75.2191 103.329 75.2191C103.362 75.2191 103.387 75.2274 103.404 75.2441C103.424 75.2574 103.444 75.2807 103.464 75.3141L103.754 75.7841C103.594 75.9307 103.404 76.0441 103.184 76.1241C102.964 76.2041 102.735 76.2441 102.499 76.2441C102.089 76.2441 101.772 76.1291 101.549 75.8991C101.329 75.6691 101.219 75.3407 101.219 74.9141V71.8741H100.629C100.572 71.8741 100.524 71.8574 100.484 71.8241C100.447 71.7874 100.429 71.7341 100.429 71.6641V71.2691L101.259 71.1541L101.474 69.6391C101.487 69.5824 101.512 69.5391 101.549 69.5091C101.589 69.4757 101.639 69.4591 101.699 69.4591H102.194V71.1641H105.724V76.1641ZM105.944 69.4841C105.944 69.5741 105.925 69.6607 105.889 69.7441C105.852 69.8241 105.802 69.8957 105.739 69.9591C105.679 70.0191 105.607 70.0674 105.524 70.1041C105.44 70.1374 105.354 70.1541 105.264 70.1541C105.174 70.1541 105.089 70.1374 105.009 70.1041C104.929 70.0674 104.857 70.0191 104.794 69.9591C104.734 69.8957 104.685 69.8241 104.649 69.7441C104.615 69.6607 104.599 69.5741 104.599 69.4841C104.599 69.3907 104.615 69.3024 104.649 69.2191C104.685 69.1357 104.734 69.0641 104.794 69.0041C104.857 68.9407 104.929 68.8924 105.009 68.8591C105.089 68.8224 105.174 68.8041 105.264 68.8041C105.354 68.8041 105.44 68.8224 105.524 68.8591C105.607 68.8924 105.679 68.9407 105.739 69.0041C105.802 69.0641 105.852 69.1357 105.889 69.2191C105.925 69.3024 105.944 69.3907 105.944 69.4841ZM109.304 71.0041C109.677 71.0041 110.014 71.0657 110.314 71.1891C110.617 71.3091 110.874 71.4841 111.084 71.7141C111.297 71.9407 111.461 72.2157 111.574 72.5391C111.687 72.8591 111.744 73.2191 111.744 73.6191C111.744 74.0191 111.687 74.3807 111.574 74.7041C111.461 75.0274 111.297 75.3024 111.084 75.5291C110.874 75.7557 110.617 75.9307 110.314 76.0541C110.014 76.1741 109.677 76.2341 109.304 76.2341C108.927 76.2341 108.587 76.1741 108.284 76.0541C107.984 75.9307 107.727 75.7557 107.514 75.5291C107.301 75.3024 107.136 75.0274 107.019 74.7041C106.906 74.3807 106.849 74.0191 106.849 73.6191C106.849 73.2191 106.906 72.8591 107.019 72.5391C107.136 72.2157 107.301 71.9407 107.514 71.7141C107.727 71.4841 107.984 71.3091 108.284 71.1891C108.587 71.0657 108.927 71.0041 109.304 71.0041ZM109.304 75.4741C109.784 75.4741 110.142 75.3124 110.379 74.9891C110.616 74.6657 110.734 74.2107 110.734 73.6241C110.734 73.0374 110.616 72.5824 110.379 72.2591C110.142 71.9324 109.784 71.7691 109.304 71.7691C108.817 71.7691 108.454 71.9324 108.214 72.2591C107.977 72.5824 107.859 73.0374 107.859 73.6241C107.859 74.2107 107.977 74.6657 108.214 74.9891C108.454 75.3124 108.817 75.4741 109.304 75.4741ZM113.747 71.7891C113.857 71.6724 113.972 71.5657 114.092 71.4691C114.212 71.3724 114.339 71.2907 114.472 71.2241C114.609 71.1541 114.754 71.1007 114.907 71.0641C115.064 71.0241 115.231 71.0041 115.407 71.0041C115.687 71.0041 115.932 71.0507 116.142 71.1441C116.356 71.2374 116.534 71.3691 116.677 71.5391C116.821 71.7057 116.929 71.9074 117.002 72.1441C117.076 72.3807 117.112 72.6424 117.112 72.9291V76.1641H116.132V72.9291C116.132 72.5657 116.049 72.2841 115.882 72.0841C115.716 71.8807 115.461 71.7791 115.117 71.7791C114.867 71.7791 114.632 71.8391 114.412 71.9591C114.196 72.0757 113.994 72.2357 113.807 72.4391V76.1641H112.832V71.0841H113.417C113.554 71.0841 113.639 71.1491 113.672 71.2791L113.747 71.7891ZM55.8783 82.1541C55.845 82.2107 55.81 82.2524 55.7733 82.2791C55.7367 82.3057 55.69 82.3191 55.6333 82.3191C55.5733 82.3191 55.505 82.2924 55.4283 82.2391C55.3517 82.1824 55.255 82.1207 55.1383 82.0541C55.025 81.9841 54.8883 81.9224 54.7283 81.8691C54.5683 81.8124 54.3767 81.7841 54.1533 81.7841C53.9433 81.7841 53.7583 81.8124 53.5983 81.8691C53.4417 81.9224 53.31 81.9974 53.2033 82.0941C53.0967 82.1874 53.015 82.2991 52.9583 82.4291C52.905 82.5557 52.8783 82.6941 52.8783 82.8441C52.8783 83.0374 52.9267 83.1974 53.0233 83.3241C53.1233 83.4507 53.2533 83.5591 53.4133 83.6491C53.5733 83.7391 53.755 83.8174 53.9583 83.8841C54.1617 83.9507 54.37 84.0207 54.5833 84.0941C54.7967 84.1641 55.005 84.2457 55.2083 84.3391C55.4117 84.4324 55.5933 84.5507 55.7533 84.6941C55.9133 84.8341 56.0417 85.0074 56.1383 85.2141C56.2383 85.4174 56.2883 85.6674 56.2883 85.9641C56.2883 86.2807 56.2333 86.5774 56.1233 86.8541C56.0167 87.1307 55.86 87.3724 55.6533 87.5791C55.4467 87.7857 55.1917 87.9491 54.8883 88.0691C54.5883 88.1857 54.2467 88.2441 53.8633 88.2441C53.6333 88.2441 53.41 88.2207 53.1933 88.1741C52.9767 88.1307 52.7717 88.0691 52.5783 87.9891C52.385 87.9057 52.2033 87.8074 52.0333 87.6941C51.8667 87.5774 51.7167 87.4474 51.5833 87.3041L51.8883 86.7941C51.9183 86.7541 51.9533 86.7207 51.9933 86.6941C52.0367 86.6674 52.085 86.6541 52.1383 86.6541C52.2083 86.6541 52.2883 86.6907 52.3783 86.7641C52.4717 86.8374 52.585 86.9191 52.7183 87.0091C52.855 87.0957 53.0167 87.1757 53.2033 87.2491C53.3933 87.3224 53.6233 87.3591 53.8933 87.3591C54.1133 87.3591 54.31 87.3307 54.4833 87.2741C54.6567 87.2141 54.8017 87.1307 54.9183 87.0241C55.0383 86.9141 55.13 86.7824 55.1933 86.6291C55.2567 86.4757 55.2883 86.3057 55.2883 86.1191C55.2883 85.9091 55.24 85.7374 55.1433 85.6041C55.0467 85.4707 54.9183 85.3591 54.7583 85.2691C54.5983 85.1791 54.4167 85.1024 54.2133 85.0391C54.01 84.9757 53.8017 84.9107 53.5883 84.8441C53.375 84.7741 53.1667 84.6941 52.9633 84.6041C52.76 84.5141 52.5783 84.3974 52.4183 84.2541C52.2583 84.1074 52.13 83.9257 52.0333 83.7091C51.9367 83.4891 51.8883 83.2191 51.8883 82.8991C51.8883 82.6424 51.9383 82.3941 52.0383 82.1541C52.1383 81.9141 52.2833 81.7024 52.4733 81.5191C52.6667 81.3324 52.9033 81.1841 53.1833 81.0741C53.4633 80.9607 53.7833 80.9041 54.1433 80.9041C54.5467 80.9041 54.9167 80.9691 55.2533 81.0991C55.5933 81.2257 55.8883 81.4091 56.1383 81.6491L55.8783 82.1541ZM60.7385 85.0591C60.7385 84.8657 60.7101 84.6874 60.6535 84.5241C60.6001 84.3607 60.5201 84.2191 60.4135 84.0991C60.3068 83.9791 60.1768 83.8857 60.0235 83.8191C59.8701 83.7524 59.6935 83.7191 59.4935 83.7191C59.0835 83.7191 58.7601 83.8374 58.5235 84.0741C58.2901 84.3107 58.1418 84.6391 58.0785 85.0591H60.7385ZM61.5435 87.4391C61.4235 87.5791 61.2851 87.7007 61.1285 87.8041C60.9718 87.9041 60.8051 87.9857 60.6285 88.0491C60.4518 88.1124 60.2685 88.1591 60.0785 88.1891C59.8918 88.2191 59.7068 88.2341 59.5235 88.2341C59.1735 88.2341 58.8485 88.1757 58.5485 88.0591C58.2518 87.9391 57.9935 87.7657 57.7735 87.5391C57.5568 87.3091 57.3868 87.0257 57.2635 86.6891C57.1435 86.3491 57.0835 85.9591 57.0835 85.5191C57.0835 85.1657 57.1385 84.8374 57.2485 84.5341C57.3585 84.2274 57.5151 83.9607 57.7185 83.7341C57.9251 83.5074 58.1768 83.3291 58.4735 83.1991C58.7701 83.0691 59.1035 83.0041 59.4735 83.0041C59.7835 83.0041 60.0685 83.0557 60.3285 83.1591C60.5918 83.2591 60.8185 83.4057 61.0085 83.5991C61.1985 83.7924 61.3468 84.0307 61.4535 84.3141C61.5635 84.5974 61.6185 84.9207 61.6185 85.2841C61.6185 85.4341 61.6018 85.5357 61.5685 85.5891C61.5351 85.6391 61.4735 85.6641 61.3835 85.6641H58.0535C58.0635 85.9674 58.1068 86.2324 58.1835 86.4591C58.2601 86.6824 58.3651 86.8691 58.4985 87.0191C58.6351 87.1691 58.7968 87.2807 58.9835 87.3541C59.1701 87.4274 59.3785 87.4641 59.6085 87.4641C59.8251 87.4641 60.0118 87.4391 60.1685 87.3891C60.3285 87.3391 60.4651 87.2857 60.5785 87.2291C60.6951 87.1691 60.7918 87.1141 60.8685 87.0641C60.9485 87.0141 61.0185 86.9891 61.0785 86.9891C61.1585 86.9891 61.2201 87.0191 61.2635 87.0791L61.5435 87.4391ZM63.5864 84.0591C63.7498 83.7257 63.9464 83.4641 64.1764 83.2741C64.4064 83.0841 64.6831 82.9891 65.0064 82.9891C65.1164 82.9891 65.2198 83.0024 65.3164 83.0291C65.4164 83.0524 65.5031 83.0891 65.5764 83.1391L65.5114 83.8741C65.4881 83.9641 65.4331 84.0091 65.3464 84.0091C65.2998 84.0091 65.2298 84.0007 65.1364 83.9841C65.0431 83.9641 64.9431 83.9541 64.8364 83.9541C64.6798 83.9541 64.5414 83.9774 64.4214 84.0241C64.3014 84.0674 64.1931 84.1341 64.0964 84.2241C64.0031 84.3107 63.9198 84.4191 63.8464 84.5491C63.7731 84.6757 63.7048 84.8207 63.6414 84.9841V88.1641H62.6664V83.0841H63.2264C63.3331 83.0841 63.4048 83.1041 63.4414 83.1441C63.4814 83.1807 63.5098 83.2474 63.5264 83.3441L63.5864 84.0591ZM70.7386 83.0841L68.6786 88.1641H67.7986L65.7386 83.0841H66.5436C66.6202 83.0841 66.6836 83.1024 66.7336 83.1391C66.7836 83.1757 66.8169 83.2224 66.8336 83.2791L68.0486 86.3991C68.0919 86.5291 68.1286 86.6591 68.1586 86.7891C68.1919 86.9157 68.2219 87.0424 68.2486 87.1691C68.2752 87.0424 68.3052 86.9157 68.3386 86.7891C68.3719 86.6624 68.4119 86.5324 68.4586 86.3991L69.6886 83.2791C69.7086 83.2224 69.7436 83.1757 69.7936 83.1391C69.8436 83.1024 69.9036 83.0841 69.9736 83.0841H70.7386ZM72.5341 83.0841V88.1641H71.5591V83.0841H72.5341ZM72.7191 81.5141C72.7191 81.6041 72.7008 81.6907 72.6641 81.7741C72.6274 81.8541 72.5774 81.9257 72.5141 81.9891C72.4541 82.0491 72.3824 82.0974 72.2991 82.1341C72.2158 82.1674 72.1291 82.1841 72.0391 82.1841C71.9491 82.1841 71.8641 82.1674 71.7841 82.1341C71.7041 82.0974 71.6324 82.0491 71.5691 81.9891C71.5091 81.9257 71.4608 81.8541 71.4241 81.7741C71.3908 81.6907 71.3741 81.6041 71.3741 81.5141C71.3741 81.4207 71.3908 81.3341 71.4241 81.2541C71.4608 81.1707 71.5091 81.0991 71.5691 81.0391C71.6324 80.9757 71.7041 80.9274 71.7841 80.8941C71.8641 80.8574 71.9491 80.8391 72.0391 80.8391C72.1291 80.8391 72.2158 80.8574 72.2991 80.8941C72.3824 80.9274 72.4541 80.9757 72.5141 81.0391C72.5774 81.0991 72.6274 81.1707 72.6641 81.2541C72.7008 81.3341 72.7191 81.4207 72.7191 81.5141ZM77.5057 84.0341C77.4757 84.0707 77.4457 84.1007 77.4157 84.1241C77.3891 84.1441 77.3491 84.1541 77.2957 84.1541C77.2424 84.1541 77.1857 84.1341 77.1257 84.0941C77.0691 84.0507 76.9957 84.0057 76.9057 83.9591C76.8191 83.9091 76.7124 83.8641 76.5857 83.8241C76.4624 83.7807 76.3091 83.7591 76.1257 83.7591C75.8857 83.7591 75.6741 83.8024 75.4907 83.8891C75.3074 83.9757 75.1541 84.0991 75.0307 84.2591C74.9107 84.4191 74.8191 84.6141 74.7557 84.8441C74.6924 85.0741 74.6607 85.3324 74.6607 85.6191C74.6607 85.9157 74.6941 86.1807 74.7607 86.4141C74.8274 86.6441 74.9224 86.8391 75.0457 86.9991C75.1691 87.1557 75.3191 87.2757 75.4957 87.3591C75.6724 87.4391 75.8691 87.4791 76.0857 87.4791C76.2957 87.4791 76.4691 87.4541 76.6057 87.4041C76.7424 87.3507 76.8557 87.2941 76.9457 87.2341C77.0357 87.1741 77.1107 87.1191 77.1707 87.0691C77.2307 87.0157 77.2924 86.9891 77.3557 86.9891C77.4357 86.9891 77.4974 87.0191 77.5407 87.0791L77.8207 87.4391C77.7041 87.5824 77.5724 87.7041 77.4257 87.8041C77.2824 87.9041 77.1291 87.9857 76.9657 88.0491C76.8024 88.1124 76.6307 88.1591 76.4507 88.1891C76.2741 88.2191 76.0941 88.2341 75.9107 88.2341C75.5941 88.2341 75.2974 88.1757 75.0207 88.0591C74.7474 87.9424 74.5091 87.7724 74.3057 87.5491C74.1057 87.3257 73.9474 87.0524 73.8307 86.7291C73.7141 86.4024 73.6557 86.0324 73.6557 85.6191C73.6557 85.2424 73.7074 84.8941 73.8107 84.5741C73.9174 84.2541 74.0724 83.9791 74.2757 83.7491C74.4824 83.5157 74.7357 83.3341 75.0357 83.2041C75.3357 83.0707 75.6791 83.0041 76.0657 83.0041C76.4291 83.0041 76.7491 83.0624 77.0257 83.1791C77.3024 83.2957 77.5491 83.4607 77.7657 83.6741L77.5057 84.0341ZM82.008 85.0591C82.008 84.8657 81.9797 84.6874 81.923 84.5241C81.8697 84.3607 81.7897 84.2191 81.683 84.0991C81.5763 83.9791 81.4463 83.8857 81.293 83.8191C81.1397 83.7524 80.963 83.7191 80.763 83.7191C80.353 83.7191 80.0297 83.8374 79.793 84.0741C79.5597 84.3107 79.4113 84.6391 79.348 85.0591H82.008ZM82.813 87.4391C82.693 87.5791 82.5547 87.7007 82.398 87.8041C82.2413 87.9041 82.0747 87.9857 81.898 88.0491C81.7213 88.1124 81.538 88.1591 81.348 88.1891C81.1613 88.2191 80.9763 88.2341 80.793 88.2341C80.443 88.2341 80.118 88.1757 79.818 88.0591C79.5213 87.9391 79.263 87.7657 79.043 87.5391C78.8263 87.3091 78.6563 87.0257 78.533 86.6891C78.413 86.3491 78.353 85.9591 78.353 85.5191C78.353 85.1657 78.408 84.8374 78.518 84.5341C78.628 84.2274 78.7847 83.9607 78.988 83.7341C79.1947 83.5074 79.4463 83.3291 79.743 83.1991C80.0397 83.0691 80.373 83.0041 80.743 83.0041C81.053 83.0041 81.338 83.0557 81.598 83.1591C81.8613 83.2591 82.088 83.4057 82.278 83.5991C82.468 83.7924 82.6163 84.0307 82.723 84.3141C82.833 84.5974 82.888 84.9207 82.888 85.2841C82.888 85.4341 82.8713 85.5357 82.838 85.5891C82.8047 85.6391 82.743 85.6641 82.653 85.6641H79.323C79.333 85.9674 79.3763 86.2324 79.453 86.4591C79.5297 86.6824 79.6347 86.8691 79.768 87.0191C79.9047 87.1691 80.0663 87.2807 80.253 87.3541C80.4397 87.4274 80.648 87.4641 80.878 87.4641C81.0947 87.4641 81.2813 87.4391 81.438 87.3891C81.598 87.3391 81.7347 87.2857 81.848 87.2291C81.9647 87.1691 82.0613 87.1141 82.138 87.0641C82.218 87.0141 82.288 86.9891 82.348 86.9891C82.428 86.9891 82.4897 87.0191 82.533 87.0791L82.813 87.4391Z" fill="#2A303D"/>
</svg>
