<svg width="91" height="50" viewBox="0 0 91 50" fill="none" xmlns="http://www.w3.org/2000/svg">
<path d="M44.7821 26.9604C40.3459 26.9604 35.9098 26.9604 31.4736 26.9604C30.2003 27.012 28.9294 26.8099 27.7349 26.3658C26.2121 25.7291 24.9384 24.6134 24.1067 23.1877C23.2751 21.762 22.9308 20.1041 23.1261 18.4651C23.3213 16.8262 24.0455 15.2956 25.1888 14.1052C26.3321 12.9148 27.8323 12.1295 29.462 11.8683C29.8269 11.8033 30.1969 11.7716 30.5675 11.7737C30.7059 11.7941 30.8468 11.7595 30.96 11.6773C31.0731 11.595 31.1496 11.4718 31.173 11.3339C31.8429 9.28601 33.2666 7.56955 35.1554 6.53261C37.0441 5.49568 39.2565 5.21588 41.3439 5.74995C41.3902 5.77109 41.4405 5.78192 41.4914 5.78169C41.5422 5.78147 41.5925 5.7702 41.6385 5.74865C41.6846 5.72711 41.7255 5.69582 41.7583 5.65693C41.7911 5.61804 41.815 5.57247 41.8285 5.52341C42.5181 4.02569 43.5883 2.7349 44.9324 1.77971C46.2764 0.824522 47.8473 0.238307 49.4885 0.079499C50.8434 -0.0991073 52.2211 0.0241103 53.5228 0.440316C54.8245 0.856522 56.0181 1.55541 57.0181 2.48696C57.9704 3.31971 58.747 4.33417 59.3022 5.47088C59.8575 6.60759 60.1803 7.84368 60.2517 9.10675C60.2708 9.356 60.3646 9.43297 60.6014 9.47329C62.6746 9.82224 64.5539 10.9032 65.8979 12.5198C67.242 14.1365 67.9616 16.1815 67.9261 18.2836C67.8906 20.3857 67.1023 22.4053 65.7045 23.9756C64.3067 25.546 62.392 26.5629 60.3082 26.8416C59.6831 26.9208 59.0535 26.9588 58.4234 26.9553C53.8768 26.9626 49.3297 26.9643 44.7821 26.9604ZM44.8781 25.3227C49.5978 25.3227 54.3169 25.3227 59.0355 25.3227C60.0721 25.324 61.097 25.1031 62.041 24.6747C62.9849 24.2463 63.826 23.6204 64.5076 22.8394C65.1891 22.0583 65.6952 21.1401 65.9917 20.1468C66.2882 19.1535 66.3682 18.1082 66.2264 17.0813C66.0056 15.4341 65.1969 13.9223 63.9494 12.8242C62.8476 11.8149 61.4527 11.1829 59.9673 11.0201C59.6291 11.0011 59.3095 10.8589 59.069 10.6204C58.8284 10.3819 58.6835 10.0635 58.6617 9.72549C58.6125 9.35895 58.6301 8.9836 58.5752 8.61852C58.4238 7.47539 58.0284 6.37816 57.4156 5.4013C56.8029 4.42444 55.9873 3.5908 55.0241 2.95688C53.686 2.0862 52.1217 1.62748 50.5253 1.63765C48.9289 1.64781 47.3706 2.12641 46.0437 3.01407C44.6782 3.94768 43.6235 5.26872 43.0154 6.80705C42.9734 6.94747 42.9032 7.07781 42.8089 7.19004C42.7147 7.30227 42.5984 7.39401 42.4674 7.4596C42.3363 7.52519 42.1932 7.56324 42.0469 7.57142C41.9006 7.5796 41.7542 7.55774 41.6166 7.50716C41.4854 7.47271 41.3549 7.43385 41.2259 7.39206C39.9097 6.99666 38.5054 7.00356 37.1932 7.41188C35.881 7.8202 34.7207 8.61132 33.8613 9.6837C33.2126 10.4985 32.7545 11.448 32.5205 12.4628C32.5063 12.6089 32.4622 12.7506 32.391 12.8789C32.3198 13.0073 32.2229 13.1197 32.1065 13.209C31.99 13.2984 31.8564 13.3629 31.714 13.3984C31.5716 13.434 31.4234 13.44 31.2786 13.4159C31.0191 13.41 30.7596 13.4034 30.5001 13.4048C28.9255 13.4423 27.4299 14.1016 26.3399 15.2386C25.25 16.3755 24.6545 17.8977 24.6836 19.4724C24.7127 21.0471 25.3639 22.5463 26.495 23.6423C27.6262 24.7382 29.1451 25.3419 30.72 25.3212C35.4396 25.3246 40.159 25.3263 44.8781 25.3263V25.3227Z" fill="#5F6C89"/>
<path d="M44.8777 25.3263C49.5973 25.3263 54.3164 25.3263 59.0351 25.3263C60.0717 25.3277 61.0966 25.1067 62.0405 24.6783C62.9845 24.2499 63.8256 23.6241 64.5071 22.843C65.1886 22.0619 65.6947 21.1437 65.9912 20.1504C66.2877 19.1571 66.3678 18.1118 66.226 17.0849C66.0051 15.4378 65.1965 13.9259 63.949 12.8279C62.8471 11.8185 61.4523 11.1865 59.9668 11.0237C59.6286 11.0048 59.3091 10.8626 59.0685 10.624C58.828 10.3855 58.6831 10.0672 58.6612 9.7291C58.6121 9.36256 58.6297 8.98723 58.5747 8.62215C58.4234 7.47902 58.0279 6.3818 57.4152 5.40493C56.8025 4.42807 55.9869 3.5944 55.0236 2.96049C53.6855 2.08981 52.1213 1.63111 50.5249 1.64128C48.9285 1.65144 47.3702 2.13002 46.0433 3.01768C44.6778 3.95129 43.623 5.27235 43.0149 6.81068C42.973 6.9511 42.9027 7.08145 42.8085 7.19367C42.7142 7.3059 42.598 7.39762 42.4669 7.46321C42.3359 7.5288 42.1928 7.56687 42.0465 7.57505C41.9002 7.58323 41.7537 7.56135 41.6162 7.51077C41.485 7.47632 41.3545 7.43748 41.2254 7.39569C39.9093 7.00029 38.505 7.00719 37.1928 7.41551C35.8805 7.82383 34.7203 8.61495 33.8608 9.68733C33.2122 10.5021 32.754 11.4517 32.52 12.4665C32.5058 12.6126 32.4618 12.7542 32.3906 12.8826C32.3193 13.0109 32.2225 13.1233 32.106 13.2126C31.9896 13.302 31.856 13.3665 31.7136 13.4021C31.5712 13.4376 31.423 13.4436 31.2782 13.4195C31.0187 13.4136 30.7591 13.407 30.4996 13.4085C28.9251 13.446 27.4294 14.1052 26.3395 15.2422C25.2496 16.3791 24.6541 17.9013 24.6831 19.476C24.7122 21.0508 25.3635 22.5499 26.4946 23.6459C27.6257 24.7419 29.1447 25.3455 30.7196 25.3248C35.4392 25.3258 40.1586 25.3263 44.8777 25.3263Z" fill="white"/>
<path d="M57.5054 20.7456C57.5054 23.2935 56.4932 25.7371 54.6916 27.5387C52.8899 29.3404 50.4464 30.3525 47.8985 30.3525C45.3505 30.3525 42.907 29.3404 41.1053 27.5387C39.3037 25.7371 38.2915 23.2935 38.2915 20.7456C38.2915 18.1977 39.3037 15.7541 41.1053 13.9525C42.907 12.1508 45.3505 11.1387 47.8985 11.1387C50.4464 11.1387 52.8899 12.1508 54.6916 13.9525C56.4932 15.7541 57.5054 18.1977 57.5054 20.7456Z" fill="#0C8844"/>
<path d="M54.2556 20.1945L54.3118 20.184C54.3275 20.196 54.3253 20.2207 54.32 20.2432C54.3066 20.3072 54.2891 20.3703 54.2676 20.4321L54.2533 20.4689C54.2405 20.5201 54.2147 20.5671 54.1783 20.6053C54.0147 20.7267 53.8341 20.8235 53.6423 20.8925C53.1056 21.0931 52.5358 21.1903 51.9629 21.1788C51.7433 21.1736 51.5311 21.1496 51.3444 21.1286C50.7739 21.0634 50.3615 21.0169 50.2753 21.5357C50.2763 22.0618 50.4558 22.5719 50.7844 22.9827V23.0044L50.7649 23.0097C50.7649 23.0097 49.7902 22.5598 49.7662 22.5471L49.7355 22.5254L49.7108 22.5014C49.6358 22.4309 49.4858 22.2719 49.1897 21.9248C48.9847 21.6585 48.707 21.457 48.3902 21.3448C48.0734 21.2325 47.7309 21.2142 47.4039 21.2921C47.255 21.3343 47.119 21.4129 47.008 21.5207C46.8048 21.816 46.7242 22.1786 46.7831 22.5321C46.7837 22.6194 46.7953 22.7063 46.8176 22.7908V22.8133H46.7981L46.7868 22.8058L45.9869 22.4152L45.9561 22.2847C45.9332 22.1828 45.9034 22.0826 45.8669 21.9848C45.7389 21.6253 45.5215 21.3042 45.2352 21.0519C44.9489 20.7995 44.6031 20.6242 44.2303 20.5423C43.8845 20.4534 43.5191 20.4817 43.1911 20.6228C42.8632 20.7639 42.5914 21.0098 42.4182 21.3221C42.3249 21.52 42.2801 21.7374 42.2873 21.9561C42.2946 22.1749 42.3539 22.3887 42.4602 22.58C42.5664 22.7714 42.7167 22.9347 42.8986 23.0564C43.0804 23.1782 43.2887 23.2549 43.5061 23.2803C43.6818 23.3203 43.865 23.3136 44.0374 23.261C44.2098 23.2084 44.3654 23.1117 44.4889 22.9804C44.5833 22.8591 44.6419 22.7138 44.658 22.5609C44.6742 22.408 44.6473 22.2537 44.5804 22.1153C44.5237 21.9804 44.4306 21.8639 44.3114 21.779C44.1922 21.6941 44.0517 21.6442 43.9057 21.6347C43.8187 21.6205 43.7296 21.6293 43.6472 21.6602C43.5647 21.6911 43.4917 21.743 43.4356 21.8109C43.403 21.8618 43.3851 21.9206 43.3839 21.9811C43.3834 22.0503 43.408 22.1174 43.453 22.17C43.4981 22.2226 43.5605 22.2572 43.629 22.2674C43.6814 22.2661 43.7335 22.2588 43.7842 22.2457L43.8232 22.233L43.8502 22.2232L43.8704 22.2195C43.9413 22.206 44.0147 22.2196 44.0762 22.2574C44.1376 22.2953 44.1827 22.3548 44.2026 22.4241C44.2098 22.45 44.2136 22.4767 44.2138 22.5036C44.2136 22.5511 44.2016 22.5978 44.179 22.6395C44.1564 22.6812 44.1238 22.7167 44.0841 22.7428L44.0751 22.748L44.0616 22.7563C44.0234 22.7802 43.982 22.7986 43.9387 22.811C43.8349 22.8468 43.726 22.8656 43.6163 22.8665C43.3877 22.8591 43.1709 22.7635 43.0114 22.5996C42.8519 22.4358 42.7621 22.2165 42.7608 21.9878C42.7604 21.8273 42.8007 21.6693 42.8781 21.5287C42.9555 21.3881 43.0673 21.2696 43.2032 21.1841C43.419 21.0567 43.6661 20.9922 43.9166 20.9979C44.1672 21.0036 44.4111 21.0793 44.6209 21.2163C44.8985 21.3905 45.1118 21.6504 45.2285 21.9567C45.3451 22.263 45.3587 22.599 45.2672 22.9137C45.1434 23.2876 44.8886 23.604 44.5497 23.8048C44.2109 24.0055 43.811 24.077 43.4236 24.006C43.1073 23.9789 42.8006 23.8835 42.5247 23.7265C42.2488 23.5695 42.0101 23.3547 41.8252 23.0966C41.6693 22.8751 41.5548 22.6272 41.4871 22.3649C41.382 21.8774 41.4206 21.3698 41.598 20.9037C42.0046 19.9747 42.6987 19.2008 43.578 18.6958L43.6388 18.6576C44.9885 17.7688 46.5969 17.3576 48.2076 17.4895C49.1512 17.5508 50.0833 17.7315 50.9815 18.027C50.9815 17.9858 50.989 17.6117 50.989 17.6117L50.9943 17.5989L51.0085 17.5952C51.9191 17.7147 52.8092 17.9576 53.6543 18.3172C53.729 18.3641 53.796 18.4223 53.853 18.4896C54.0969 18.8931 54.2715 19.3345 54.3695 19.7956L54.3583 19.8144C54.3323 19.8282 54.3073 19.8437 54.2833 19.8608C53.9642 20.1133 53.5653 20.2431 53.1587 20.2267C52.4871 20.1035 51.8532 19.826 51.3069 19.4163L51.5228 19.9276L51.5326 19.9396C52.0526 20.2262 52.6178 20.4217 53.2037 20.5176C53.5713 20.4928 53.9282 20.3835 54.2466 20.1982L54.2556 20.1945ZM53.7698 19.1531C53.7764 18.9487 53.7018 18.75 53.5623 18.6005C53.4228 18.451 53.2297 18.3628 53.0253 18.3554C52.9241 18.3518 52.8233 18.3682 52.7285 18.4036C52.6337 18.439 52.5468 18.4927 52.4728 18.5617C52.3988 18.6307 52.3391 18.7136 52.2971 18.8057C52.2552 18.8978 52.2318 18.9972 52.2283 19.0984C52.2218 19.3026 52.2964 19.5011 52.4357 19.6506C52.5751 19.8 52.7679 19.8883 52.972 19.8961C53.0732 19.8997 53.1741 19.8833 53.2689 19.8479C53.3638 19.8125 53.4507 19.7588 53.5248 19.6898C53.5989 19.6208 53.6586 19.5379 53.7007 19.4458C53.7427 19.3538 53.7662 19.2543 53.7698 19.1531Z" fill="white"/>
<path d="M53.0385 18.5713C53.1839 18.5766 53.3213 18.6393 53.4205 18.7457C53.5197 18.852 53.5727 18.9934 53.5678 19.1388C53.5657 19.2107 53.5493 19.2815 53.5196 19.347C53.4898 19.4125 53.4474 19.4715 53.3947 19.5204C53.3152 19.5943 53.2157 19.6429 53.1087 19.6602C53.0017 19.6776 52.8919 19.6628 52.7932 19.6178C52.6946 19.5728 52.6115 19.4996 52.5544 19.4074C52.4973 19.3152 52.4688 19.2082 52.4725 19.0998C52.4783 18.9553 52.5412 18.819 52.6472 18.7206C52.7533 18.6223 52.894 18.5699 53.0385 18.575V18.5713ZM53.3714 19.0084C53.3714 18.9184 53.2627 18.8457 53.1277 18.8457C52.9928 18.8457 52.8848 18.9206 52.8848 19.0084C52.8848 19.0961 52.9935 19.1703 53.1277 19.1703C53.2619 19.1703 53.3722 19.0961 53.3722 19.0076L53.3714 19.0084Z" fill="white"/>
<path d="M5.46875 40.1943H6.41602V44.3301C6.41602 45.0495 6.33464 45.6208 6.17188 46.0439C6.00911 46.4671 5.71452 46.8122 5.28809 47.0791C4.86491 47.3428 4.30827 47.4746 3.61816 47.4746C2.94759 47.4746 2.39909 47.359 1.97266 47.1279C1.54622 46.8968 1.24186 46.5632 1.05957 46.127C0.877279 45.6875 0.786133 45.0885 0.786133 44.3301V40.1943H1.7334V44.3252C1.7334 44.9469 1.79036 45.4059 1.9043 45.7021C2.02148 45.9951 2.22005 46.2214 2.5 46.3809C2.7832 46.5404 3.12826 46.6201 3.53516 46.6201C4.23177 46.6201 4.72819 46.4622 5.02441 46.1465C5.32064 45.8307 5.46875 45.2236 5.46875 44.3252V40.1943ZM7.88574 49.3398V42.167H8.68652V42.8408C8.87533 42.5771 9.08854 42.3802 9.32617 42.25C9.5638 42.1165 9.85189 42.0498 10.1904 42.0498C10.6331 42.0498 11.0238 42.1637 11.3623 42.3916C11.7008 42.6195 11.9564 42.9417 12.1289 43.3584C12.3014 43.7718 12.3877 44.2259 12.3877 44.7207C12.3877 45.2513 12.2917 45.7298 12.0996 46.1562C11.9108 46.5794 11.6341 46.9049 11.2695 47.1328C10.9082 47.3574 10.5273 47.4697 10.127 47.4697C9.83398 47.4697 9.57031 47.4079 9.33594 47.2842C9.10482 47.1605 8.91439 47.0042 8.76465 46.8154V49.3398H7.88574ZM8.68164 44.7891C8.68164 45.4564 8.81673 45.9495 9.08691 46.2686C9.3571 46.5876 9.68424 46.7471 10.0684 46.7471C10.459 46.7471 10.7926 46.5827 11.0693 46.2539C11.3493 45.9219 11.4893 45.4092 11.4893 44.7158C11.4893 44.055 11.3525 43.5602 11.0791 43.2314C10.8089 42.9027 10.485 42.7383 10.1074 42.7383C9.73307 42.7383 9.40104 42.9141 9.11133 43.2656C8.82487 43.6139 8.68164 44.1217 8.68164 44.7891ZM16.8164 47.3525V46.6982C16.4876 47.2126 16.0042 47.4697 15.3662 47.4697C14.9528 47.4697 14.5719 47.3558 14.2236 47.1279C13.8786 46.9001 13.61 46.5827 13.418 46.1758C13.2292 45.7656 13.1348 45.2952 13.1348 44.7646C13.1348 44.2471 13.221 43.7783 13.3936 43.3584C13.5661 42.9352 13.8249 42.6113 14.1699 42.3867C14.515 42.1621 14.9007 42.0498 15.3271 42.0498C15.6396 42.0498 15.918 42.1165 16.1621 42.25C16.4062 42.3802 16.6048 42.5511 16.7578 42.7627V40.1943H17.6318V47.3525H16.8164ZM14.0381 44.7646C14.0381 45.4287 14.1781 45.9251 14.458 46.2539C14.738 46.5827 15.0684 46.7471 15.4492 46.7471C15.8333 46.7471 16.1589 46.5908 16.4258 46.2783C16.696 45.9626 16.8311 45.4824 16.8311 44.8379C16.8311 44.1283 16.6943 43.6074 16.4209 43.2754C16.1475 42.9434 15.8105 42.7773 15.4102 42.7773C15.0195 42.7773 14.6924 42.9368 14.4287 43.2559C14.1683 43.5749 14.0381 44.0778 14.0381 44.7646ZM22.4023 46.7129C22.0768 46.9896 21.7627 47.1849 21.46 47.2988C21.1605 47.4128 20.8382 47.4697 20.4932 47.4697C19.9235 47.4697 19.4857 47.3314 19.1797 47.0547C18.8737 46.7747 18.7207 46.4183 18.7207 45.9854C18.7207 45.7314 18.7777 45.5003 18.8916 45.292C19.0088 45.0804 19.1602 44.9111 19.3457 44.7842C19.5345 44.6572 19.7461 44.5612 19.9805 44.4961C20.153 44.4505 20.4134 44.4066 20.7617 44.3643C21.4714 44.2796 21.9938 44.1787 22.3291 44.0615C22.3324 43.9411 22.334 43.8646 22.334 43.832C22.334 43.474 22.251 43.2217 22.085 43.0752C21.8604 42.8766 21.5267 42.7773 21.084 42.7773C20.6706 42.7773 20.3646 42.8506 20.166 42.9971C19.9707 43.1403 19.8258 43.3958 19.7314 43.7637L18.8721 43.6465C18.9502 43.2786 19.0788 42.9824 19.2578 42.7578C19.4368 42.5299 19.6956 42.3558 20.0342 42.2354C20.3727 42.1117 20.765 42.0498 21.2109 42.0498C21.6536 42.0498 22.0133 42.1019 22.29 42.2061C22.5667 42.3102 22.7702 42.4421 22.9004 42.6016C23.0306 42.7578 23.1217 42.9564 23.1738 43.1973C23.2031 43.347 23.2178 43.6172 23.2178 44.0078V45.1797C23.2178 45.9967 23.2357 46.5143 23.2715 46.7324C23.3105 46.9473 23.3854 47.154 23.4961 47.3525H22.5781C22.487 47.1702 22.4284 46.957 22.4023 46.7129ZM22.3291 44.75C22.0101 44.8802 21.5316 44.9909 20.8936 45.082C20.5322 45.1341 20.2767 45.1927 20.127 45.2578C19.9772 45.3229 19.8617 45.4189 19.7803 45.5459C19.6989 45.6696 19.6582 45.8079 19.6582 45.9609C19.6582 46.1953 19.7461 46.3906 19.9219 46.5469C20.1009 46.7031 20.3613 46.7812 20.7031 46.7812C21.0417 46.7812 21.3428 46.708 21.6064 46.5615C21.8701 46.4118 22.0638 46.2083 22.1875 45.9512C22.2819 45.7526 22.3291 45.4596 22.3291 45.0723V44.75ZM26.5039 46.5664L26.6309 47.3428C26.3835 47.3949 26.1621 47.4209 25.9668 47.4209C25.6478 47.4209 25.4004 47.3704 25.2246 47.2695C25.0488 47.1686 24.9251 47.0368 24.8535 46.874C24.7819 46.708 24.7461 46.3613 24.7461 45.834V42.8506H24.1016V42.167H24.7461V40.8828L25.6201 40.3555V42.167H26.5039V42.8506H25.6201V45.8828C25.6201 46.1335 25.6348 46.2946 25.6641 46.3662C25.6966 46.4378 25.7471 46.4948 25.8154 46.5371C25.887 46.5794 25.988 46.6006 26.1182 46.6006C26.2158 46.6006 26.3444 46.5892 26.5039 46.5664ZM30.918 45.6826L31.8262 45.7949C31.6829 46.3255 31.4176 46.7373 31.0303 47.0303C30.6429 47.3232 30.1481 47.4697 29.5459 47.4697C28.7874 47.4697 28.1852 47.237 27.7393 46.7715C27.2965 46.3027 27.0752 45.6468 27.0752 44.8037C27.0752 43.9313 27.2998 43.2542 27.749 42.7725C28.1982 42.2907 28.7809 42.0498 29.4971 42.0498C30.1904 42.0498 30.7568 42.2858 31.1963 42.7578C31.6357 43.2298 31.8555 43.8939 31.8555 44.75C31.8555 44.8021 31.8538 44.8802 31.8506 44.9844H27.9834C28.016 45.554 28.1771 45.9902 28.4668 46.293C28.7565 46.5957 29.1178 46.7471 29.5508 46.7471C29.873 46.7471 30.1481 46.6624 30.376 46.4932C30.6038 46.3239 30.7845 46.0537 30.918 45.6826ZM28.0322 44.2617H30.9277C30.8887 43.8255 30.778 43.4984 30.5957 43.2803C30.3158 42.9417 29.9528 42.7725 29.5068 42.7725C29.1032 42.7725 28.763 42.9076 28.4863 43.1777C28.2129 43.4479 28.0615 43.8092 28.0322 44.2617ZM32.583 45.8047L33.4521 45.668C33.501 46.0163 33.6361 46.2832 33.8574 46.4688C34.082 46.6543 34.3945 46.7471 34.7949 46.7471C35.1986 46.7471 35.498 46.6657 35.6934 46.5029C35.8887 46.3369 35.9863 46.1432 35.9863 45.9219C35.9863 45.7233 35.9001 45.5671 35.7275 45.4531C35.6071 45.375 35.3076 45.2757 34.8291 45.1553C34.1846 44.9925 33.737 44.8525 33.4863 44.7354C33.2389 44.6149 33.0501 44.4505 32.9199 44.2422C32.793 44.0306 32.7295 43.7979 32.7295 43.5439C32.7295 43.3128 32.7816 43.0996 32.8857 42.9043C32.9932 42.7057 33.138 42.5413 33.3203 42.4111C33.457 42.3102 33.6426 42.2256 33.877 42.1572C34.1146 42.0856 34.3685 42.0498 34.6387 42.0498C35.0456 42.0498 35.402 42.1084 35.708 42.2256C36.0173 42.3428 36.2451 42.5023 36.3916 42.7041C36.5381 42.9027 36.639 43.1696 36.6943 43.5049L35.835 43.6221C35.7959 43.3551 35.682 43.1468 35.4932 42.9971C35.3076 42.8473 35.0439 42.7725 34.7021 42.7725C34.2985 42.7725 34.0104 42.8392 33.8379 42.9727C33.6654 43.1061 33.5791 43.2624 33.5791 43.4414C33.5791 43.5553 33.6149 43.6579 33.6865 43.749C33.7581 43.8434 33.8704 43.9215 34.0234 43.9834C34.1113 44.016 34.3701 44.0908 34.7998 44.208C35.4215 44.374 35.8545 44.5107 36.0986 44.6182C36.346 44.7223 36.5397 44.8753 36.6797 45.0771C36.8197 45.279 36.8896 45.5296 36.8896 45.8291C36.8896 46.1221 36.8034 46.3988 36.6309 46.6592C36.4616 46.9163 36.2158 47.1165 35.8936 47.2598C35.5713 47.3997 35.2067 47.4697 34.7998 47.4697C34.126 47.4697 33.6117 47.3298 33.2568 47.0498C32.9053 46.7699 32.6807 46.3548 32.583 45.8047ZM40.9277 47.3525V42.8506H40.1514V42.167H40.9277V41.6152C40.9277 41.2669 40.9587 41.0081 41.0205 40.8389C41.1051 40.611 41.2533 40.4271 41.4648 40.2871C41.6797 40.1439 41.9792 40.0723 42.3633 40.0723C42.6107 40.0723 42.8841 40.1016 43.1836 40.1602L43.0518 40.9268C42.8695 40.8942 42.6969 40.8779 42.5342 40.8779C42.2673 40.8779 42.0785 40.9349 41.9678 41.0488C41.8571 41.1628 41.8018 41.376 41.8018 41.6885V42.167H42.8125V42.8506H41.8018V47.3525H40.9277ZM43.4912 47.3525V42.167H44.2822V42.9531C44.484 42.5853 44.6696 42.3428 44.8389 42.2256C45.0114 42.1084 45.2002 42.0498 45.4053 42.0498C45.7015 42.0498 46.0026 42.1442 46.3086 42.333L46.0059 43.1484C45.791 43.0215 45.5762 42.958 45.3613 42.958C45.1693 42.958 44.9967 43.0166 44.8438 43.1338C44.6908 43.2477 44.5817 43.4072 44.5166 43.6123C44.4189 43.9248 44.3701 44.2666 44.3701 44.6377V47.3525H43.4912ZM46.5039 44.7598C46.5039 43.7995 46.7708 43.0882 47.3047 42.626C47.7507 42.2419 48.2943 42.0498 48.9355 42.0498C49.6484 42.0498 50.2311 42.2842 50.6836 42.7529C51.1361 43.2184 51.3623 43.863 51.3623 44.6865C51.3623 45.3538 51.2614 45.8796 51.0596 46.2637C50.861 46.6445 50.5697 46.9408 50.1855 47.1523C49.8047 47.3639 49.388 47.4697 48.9355 47.4697C48.2096 47.4697 47.6221 47.237 47.1729 46.7715C46.7269 46.306 46.5039 45.6354 46.5039 44.7598ZM47.4072 44.7598C47.4072 45.4238 47.5521 45.9219 47.8418 46.2539C48.1315 46.5827 48.4961 46.7471 48.9355 46.7471C49.3717 46.7471 49.7347 46.5811 50.0244 46.249C50.3141 45.917 50.459 45.4108 50.459 44.7305C50.459 44.0892 50.3125 43.6042 50.0195 43.2754C49.7298 42.9434 49.3685 42.7773 48.9355 42.7773C48.4961 42.7773 48.1315 42.9417 47.8418 43.2705C47.5521 43.5993 47.4072 44.0957 47.4072 44.7598ZM52.3975 47.3525V42.167H53.1836V42.8945C53.3464 42.6406 53.5628 42.4372 53.833 42.2842C54.1032 42.1279 54.4108 42.0498 54.7559 42.0498C55.14 42.0498 55.4541 42.1296 55.6982 42.2891C55.9456 42.4486 56.1198 42.6715 56.2207 42.958C56.6309 42.3525 57.1647 42.0498 57.8223 42.0498C58.3366 42.0498 58.7321 42.193 59.0088 42.4795C59.2855 42.7627 59.4238 43.2005 59.4238 43.793V47.3525H58.5498V44.0859C58.5498 43.7344 58.5205 43.4821 58.4619 43.3291C58.4066 43.1729 58.304 43.0475 58.1543 42.9531C58.0046 42.8587 57.8288 42.8115 57.627 42.8115C57.2624 42.8115 56.9596 42.9336 56.7188 43.1777C56.4779 43.4186 56.3574 43.806 56.3574 44.3398V47.3525H55.4785V43.9834C55.4785 43.5928 55.4069 43.2998 55.2637 43.1045C55.1204 42.9092 54.8861 42.8115 54.5605 42.8115C54.3132 42.8115 54.0837 42.8766 53.8721 43.0068C53.6637 43.137 53.5124 43.3275 53.418 43.5781C53.3236 43.8288 53.2764 44.1901 53.2764 44.6621V47.3525H52.3975ZM63.3008 45.0527L64.1943 44.9746C64.2367 45.3327 64.3343 45.6273 64.4873 45.8584C64.6436 46.0863 64.8844 46.2718 65.21 46.415C65.5355 46.555 65.9017 46.625 66.3086 46.625C66.6699 46.625 66.9889 46.5713 67.2656 46.4639C67.5423 46.3564 67.7474 46.21 67.8809 46.0244C68.0176 45.8356 68.0859 45.6305 68.0859 45.4092C68.0859 45.1846 68.0208 44.9893 67.8906 44.8232C67.7604 44.654 67.5456 44.5124 67.2461 44.3984C67.054 44.3236 66.6292 44.208 65.9717 44.0518C65.3141 43.8923 64.8535 43.7425 64.5898 43.6025C64.248 43.4235 63.9925 43.2021 63.8232 42.9385C63.6572 42.6715 63.5742 42.3737 63.5742 42.0449C63.5742 41.6836 63.6768 41.3467 63.8818 41.0342C64.0869 40.7184 64.3864 40.4792 64.7803 40.3164C65.1742 40.1536 65.612 40.0723 66.0938 40.0723C66.6243 40.0723 67.0915 40.1585 67.4951 40.3311C67.902 40.5003 68.2145 40.751 68.4326 41.083C68.6507 41.415 68.7679 41.791 68.7842 42.2109L67.876 42.2793C67.8271 41.8268 67.6611 41.485 67.3779 41.2539C67.098 41.0228 66.6829 40.9072 66.1328 40.9072C65.5599 40.9072 65.1416 41.013 64.8779 41.2246C64.6175 41.4329 64.4873 41.6852 64.4873 41.9814C64.4873 42.2386 64.5801 42.4502 64.7656 42.6162C64.9479 42.7822 65.4232 42.9531 66.1914 43.1289C66.9629 43.3014 67.4919 43.4528 67.7783 43.583C68.195 43.7751 68.5026 44.0192 68.7012 44.3154C68.8997 44.6084 68.999 44.9469 68.999 45.3311C68.999 45.7119 68.89 46.0716 68.6719 46.4102C68.4538 46.7454 68.1396 47.0075 67.7295 47.1963C67.3226 47.3818 66.8636 47.4746 66.3525 47.4746C65.7048 47.4746 65.1611 47.3802 64.7217 47.1914C64.2855 47.0026 63.9421 46.7194 63.6914 46.3418C63.444 45.9609 63.3138 45.5312 63.3008 45.0527ZM74.9902 40.1943H75.9375V44.3301C75.9375 45.0495 75.8561 45.6208 75.6934 46.0439C75.5306 46.4671 75.236 46.8122 74.8096 47.0791C74.3864 47.3428 73.8298 47.4746 73.1396 47.4746C72.4691 47.4746 71.9206 47.359 71.4941 47.1279C71.0677 46.8968 70.7633 46.5632 70.5811 46.127C70.3988 45.6875 70.3076 45.0885 70.3076 44.3301V40.1943H71.2549V44.3252C71.2549 44.9469 71.3118 45.4059 71.4258 45.7021C71.543 45.9951 71.7415 46.2214 72.0215 46.3809C72.3047 46.5404 72.6497 46.6201 73.0566 46.6201C73.7533 46.6201 74.2497 46.4622 74.5459 46.1465C74.8421 45.8307 74.9902 45.2236 74.9902 44.3252V40.1943ZM77.1973 45.0527L78.0908 44.9746C78.1331 45.3327 78.2308 45.6273 78.3838 45.8584C78.54 46.0863 78.7809 46.2718 79.1064 46.415C79.432 46.555 79.7982 46.625 80.2051 46.625C80.5664 46.625 80.8854 46.5713 81.1621 46.4639C81.4388 46.3564 81.6439 46.21 81.7773 46.0244C81.9141 45.8356 81.9824 45.6305 81.9824 45.4092C81.9824 45.1846 81.9173 44.9893 81.7871 44.8232C81.6569 44.654 81.4421 44.5124 81.1426 44.3984C80.9505 44.3236 80.5257 44.208 79.8682 44.0518C79.2106 43.8923 78.75 43.7425 78.4863 43.6025C78.1445 43.4235 77.889 43.2021 77.7197 42.9385C77.5537 42.6715 77.4707 42.3737 77.4707 42.0449C77.4707 41.6836 77.5732 41.3467 77.7783 41.0342C77.9834 40.7184 78.2829 40.4792 78.6768 40.3164C79.0706 40.1536 79.5085 40.0723 79.9902 40.0723C80.5208 40.0723 80.988 40.1585 81.3916 40.3311C81.7985 40.5003 82.111 40.751 82.3291 41.083C82.5472 41.415 82.6644 41.791 82.6807 42.2109L81.7725 42.2793C81.7236 41.8268 81.5576 41.485 81.2744 41.2539C80.9945 41.0228 80.5794 40.9072 80.0293 40.9072C79.4564 40.9072 79.0381 41.013 78.7744 41.2246C78.514 41.4329 78.3838 41.6852 78.3838 41.9814C78.3838 42.2386 78.4766 42.4502 78.6621 42.6162C78.8444 42.7822 79.3197 42.9531 80.0879 43.1289C80.8594 43.3014 81.3883 43.4528 81.6748 43.583C82.0915 43.7751 82.3991 44.0192 82.5977 44.3154C82.7962 44.6084 82.8955 44.9469 82.8955 45.3311C82.8955 45.7119 82.7865 46.0716 82.5684 46.4102C82.3503 46.7454 82.0361 47.0075 81.626 47.1963C81.2191 47.3818 80.7601 47.4746 80.249 47.4746C79.6012 47.4746 79.0576 47.3802 78.6182 47.1914C78.182 47.0026 77.8385 46.7194 77.5879 46.3418C77.3405 45.9609 77.2103 45.5312 77.1973 45.0527ZM84.209 47.3525V40.1943H89.3848V41.0391H85.1562V43.2314H89.1162V44.0713H85.1562V46.5078H89.5508V47.3525H84.209Z" fill="#2A303D"/>
</svg>
