<svg width="44" height="35" viewBox="0 0 44 35" fill="none" xmlns="http://www.w3.org/2000/svg">
<path d="M36.6573 5.7544C36.6573 5.3637 36.5021 4.98899 36.2258 4.71272C35.9496 4.43645 35.5749 4.28125 35.1842 4.28125H2.81496C2.42426 4.28125 2.04954 4.43645 1.77327 4.71272C1.497 4.98899 1.3418 5.3637 1.3418 5.7544V23.9104H36.6573V5.7544Z" fill="#F0F4FD"/>
<path d="M36.6573 5.7544C36.6573 5.3637 36.5021 4.98899 36.2258 4.71272C35.9496 4.43645 35.5749 4.28125 35.1842 4.28125H2.81496C2.42426 4.28125 2.04954 4.43645 1.77327 4.71272C1.497 4.98899 1.3418 5.3637 1.3418 5.7544V23.9104H36.6573V5.7544Z" fill="#D5E0F8"/>
<path d="M37.0562 24.3102H0.943359V6.06243C0.943556 5.48416 1.17341 4.92964 1.58238 4.52081C1.99135 4.11198 2.54593 3.88232 3.1242 3.88232H34.876C35.4542 3.88232 36.0088 4.11201 36.4176 4.52086C36.8265 4.92971 37.0562 5.48423 37.0562 6.06243V24.3102ZM1.74508 23.5114H36.2618V6.06243C36.2619 5.8808 36.2263 5.70095 36.1568 5.53313C36.0873 5.36532 35.9855 5.21283 35.8571 5.0844C35.7286 4.95597 35.5761 4.85412 35.4083 4.78466C35.2405 4.7152 35.0606 4.6795 34.879 4.6796H3.1242C2.94257 4.6795 2.76272 4.7152 2.5949 4.78466C2.42709 4.85412 2.2746 4.95597 2.14617 5.0844C2.01774 5.21283 1.91589 5.36532 1.84643 5.53313C1.77697 5.70095 1.74128 5.8808 1.74138 6.06243L1.74508 23.5114Z" fill="#6B94E7"/>
<path d="M4.31154 29.6873H33.6871C34.0771 29.6874 34.4633 29.6106 34.8236 29.4614C35.1839 29.3123 35.5113 29.0936 35.7871 28.8179C36.0629 28.5421 36.2817 28.2148 36.431 27.8545C36.5803 27.4942 36.6571 27.108 36.6571 26.718V23.9102H1.34229V26.718C1.34229 27.5055 1.65512 28.2608 2.21196 28.8176C2.7688 29.3744 3.52405 29.6873 4.31154 29.6873Z" fill="white"/>
<path d="M33.6872 30.0878H4.31234C3.41913 30.0869 2.56279 29.7316 1.93119 29.1C1.29959 28.4684 0.944339 27.6121 0.943359 26.7188V23.5112H37.0562V26.7188C37.0552 27.6121 36.6999 28.4684 36.0683 29.1C35.4367 29.7316 34.5804 30.0869 33.6872 30.0878ZM1.74138 24.3137V26.7225C1.74216 27.404 2.01318 28.0574 2.495 28.5394C2.97682 29.0213 3.6301 29.2925 4.3116 29.2935H33.6872C34.3688 29.2927 35.0223 29.0216 35.5043 28.5396C35.9862 28.0577 36.2574 27.4042 36.2581 26.7225V24.3137H1.74138Z" fill="#6B94E7"/>
<path d="M17.4872 34.0965L17.2222 33.3436C17.7944 33.1415 17.958 32.2473 17.9802 32.1044V29.4683H18.7775V32.1799C18.7679 32.2421 18.5791 33.7108 17.4872 34.0965Z" fill="#6B94E7"/>
<path d="M20.5083 34.0972C19.4164 33.7115 19.2283 32.2421 19.2217 32.1806V32.1332V29.4683H20.0197V32.1059C20.0626 32.4094 20.2729 33.1659 20.7778 33.3436L20.5083 34.0972Z" fill="#6B94E7"/>
<path d="M24.8195 33.3198H13.1802V34.1178H24.8195V33.3198Z" fill="#6B94E7"/>
<path d="M42.8712 34.1177H24.417C24 34.1177 24 34.1177 24 33.7007V2.68633C24 1.43595 24.6252 0.810764 25.8756 0.810764H41.0305C41.413 0.765514 41.7994 0.85528 42.1229 1.06457C42.4463 1.27385 42.6865 1.58951 42.802 1.95704C42.861 2.14791 42.8844 2.348 42.8712 2.54735V34.1165" fill="#D5E0F8"/>
<path d="M42.8712 34.1177H24.417C24 34.1177 24 34.1177 24 33.7007V2.68633C24 1.43595 24.6252 0.810764 25.8756 0.810764H41.0305C41.413 0.765514 41.7994 0.85528 42.1229 1.06457C42.4463 1.27385 42.6865 1.58951 42.802 1.95704C42.861 2.14791 42.8844 2.348 42.8712 2.54735V34.1165" stroke="#6B94E7" stroke-width="0.562731" stroke-miterlimit="10" stroke-linecap="round"/>
<path d="M40.6518 6.0415H26.2661V8.06227H40.6518V6.0415Z" fill="white"/>
<path d="M40.6518 22.3154H26.2661V24.3362H40.6518V22.3154Z" fill="white"/>
<path d="M40.6518 26.5396H26.2661V28.5603H40.6518V26.5396Z" fill="white"/>
</svg>
