<svg width="170" height="140" viewBox="0 0 170 140" fill="none" xmlns="http://www.w3.org/2000/svg">
<rect x="0.5" y="0.5" width="169" height="139" rx="9.5" fill="white"/>
<rect x="0.5" y="0.5" width="169" height="139" rx="9.5" stroke="#B4BBCC" stroke-dasharray="4 4"/>
<mask id="path-2-inside-1_2731_20787" fill="white">
<path d="M97.4201 87.9543H73.1325C72.9955 87.9543 72.8926 87.9543 72.8149 87.9454C72.7553 87.9446 72.6979 87.9235 72.652 87.8854C72.6141 87.8396 72.5929 87.7821 72.5921 87.7226C72.5832 87.6486 72.5832 87.5427 72.5832 87.405L72.5698 46.5226C72.5635 46.1559 72.616 45.7905 72.7253 45.4403C72.8169 45.1497 72.9757 44.8847 73.1887 44.6667C73.406 44.4535 73.6706 44.2945 73.9608 44.2026C74.3106 44.0929 74.6758 44.0401 75.0424 44.0464H95.0135C95.2992 44.0438 95.584 44.0776 95.8611 44.1471C96.1024 44.2082 96.3322 44.3082 96.5414 44.4432C96.7359 44.5694 96.9053 44.7306 97.0411 44.9184C97.18 45.1131 97.2838 45.3305 97.3476 45.561C97.3703 45.6193 97.3879 45.6795 97.4001 45.7409C97.4127 45.8045 97.4216 45.8687 97.4268 45.9334C97.4327 45.9992 97.4349 46.0666 97.4364 46.1347C97.4379 46.2028 97.4364 46.2717 97.4364 46.3398L97.4179 87.9543"/>
</mask>
<path d="M97.4201 87.9543H73.1325C72.9955 87.9543 72.8926 87.9543 72.8149 87.9454C72.7553 87.9446 72.6979 87.9235 72.652 87.8854C72.6141 87.8396 72.5929 87.7821 72.5921 87.7226C72.5832 87.6486 72.5832 87.5427 72.5832 87.405L72.5698 46.5226C72.5635 46.1559 72.616 45.7905 72.7253 45.4403C72.8169 45.1497 72.9757 44.8847 73.1887 44.6667C73.406 44.4535 73.6706 44.2945 73.9608 44.2026C74.3106 44.0929 74.6758 44.0401 75.0424 44.0464H95.0135C95.2992 44.0438 95.584 44.0776 95.8611 44.1471C96.1024 44.2082 96.3322 44.3082 96.5414 44.4432C96.7359 44.5694 96.9053 44.7306 97.0411 44.9184C97.18 45.1131 97.2838 45.3305 97.3476 45.561C97.3703 45.6193 97.3879 45.6795 97.4001 45.7409C97.4127 45.8045 97.4216 45.8687 97.4268 45.9334C97.4327 45.9992 97.4349 46.0666 97.4364 46.1347C97.4379 46.2028 97.4364 46.2717 97.4364 46.3398L97.4179 87.9543" fill="#006AFF"/>
<path d="M72.8149 87.9454L72.9284 86.9519L72.8785 86.9462L72.8282 86.9455L72.8149 87.9454ZM72.652 87.8854L71.8816 88.523L71.9414 88.5953L72.0137 88.6552L72.652 87.8854ZM72.5921 87.7226L73.592 87.7083L73.5912 87.6557L73.5849 87.6034L72.5921 87.7226ZM72.5832 87.405H73.5832L73.5832 87.4047L72.5832 87.405ZM72.5698 46.5226L73.5698 46.5223L73.5698 46.5138L73.5697 46.5053L72.5698 46.5226ZM72.7253 45.4403L71.7716 45.1397L71.7707 45.1423L72.7253 45.4403ZM73.1887 44.6667L72.4883 43.953L72.4809 43.9603L72.4736 43.9677L73.1887 44.6667ZM73.9608 44.2026L73.6615 43.2484L73.659 43.2492L73.9608 44.2026ZM75.0424 44.0464L75.0252 45.0463L75.0338 45.0464H75.0424V44.0464ZM95.0135 44.0464V45.0464L95.0227 45.0464L95.0135 44.0464ZM95.8611 44.1471L96.1067 43.1777L96.1043 43.1771L95.8611 44.1471ZM96.5414 44.4432L97.086 43.6045L97.0835 43.6029L96.5414 44.4432ZM97.0411 44.9184L97.855 44.3374L97.8515 44.3325L97.0411 44.9184ZM97.3476 45.561L96.3838 45.8278L96.3975 45.877L96.416 45.9246L97.3476 45.561ZM97.4001 45.7409L98.381 45.5464L98.3809 45.5458L97.4001 45.7409ZM97.4268 45.9334L96.4299 46.0127L96.4308 46.0229L97.4268 45.9334ZM97.4364 46.3398L98.4364 46.3402V46.3398H97.4364ZM97.4201 87.9543V86.9543H73.1325V87.9543V88.9543H97.4201V87.9543ZM73.1325 87.9543V86.9543C73.0608 86.9543 73.0124 86.9542 72.9726 86.9534C72.9319 86.9525 72.9222 86.9512 72.9284 86.9519L72.8149 87.9454L72.7013 88.9389C72.8493 88.9559 73.0203 88.9543 73.1325 88.9543V87.9543ZM72.8149 87.9454L72.8282 86.9455C72.9971 86.9477 73.1602 87.0078 73.2903 87.1157L72.652 87.8854L72.0137 88.6552C72.2355 88.8391 72.5136 88.9415 72.8016 88.9453L72.8149 87.9454ZM72.652 87.8854L73.4225 87.2479C73.5298 87.3776 73.5896 87.54 73.592 87.7083L72.5921 87.7226L71.5922 87.7369C71.5963 88.0242 71.6984 88.3016 71.8816 88.523L72.652 87.8854ZM72.5921 87.7226L73.5849 87.6034C73.5864 87.6156 73.585 87.6094 73.5841 87.5667C73.5832 87.5264 73.5832 87.477 73.5832 87.405H72.5832H71.5832C71.5832 87.514 71.5814 87.6934 71.5992 87.8417L72.5921 87.7226ZM72.5832 87.405L73.5832 87.4047L73.5698 46.5223L72.5698 46.5226L71.5698 46.5229L71.5832 87.4053L72.5832 87.405ZM72.5698 46.5226L73.5697 46.5053C73.5652 46.2454 73.6024 45.9865 73.6799 45.7383L72.7253 45.4403L71.7707 45.1423C71.6296 45.5945 71.5618 46.0663 71.57 46.5399L72.5698 46.5226ZM72.7253 45.4403L73.679 45.741C73.7235 45.6 73.8005 45.4715 73.9038 45.3658L73.1887 44.6667L72.4736 43.9677C72.1509 44.2979 71.9104 44.6993 71.7716 45.1397L72.7253 45.4403ZM73.1887 44.6667L73.8891 45.3805C73.9942 45.2774 74.1222 45.2004 74.2627 45.156L73.9608 44.2026L73.659 43.2492C73.2189 43.3886 72.8178 43.6297 72.4883 43.953L73.1887 44.6667ZM73.9608 44.2026L74.2601 45.1567C74.5076 45.0791 74.7659 45.0418 75.0252 45.0463L75.0424 44.0464L75.0595 43.0465C74.5857 43.0384 74.1137 43.1066 73.6615 43.2484L73.9608 44.2026ZM75.0424 44.0464V45.0464H95.0135V44.0464V43.0464H75.0424V44.0464ZM95.0135 44.0464L95.0227 45.0464C95.2233 45.0445 95.4233 45.0683 95.6179 45.117L95.8611 44.1471L96.1043 43.1771C95.7447 43.0869 95.375 43.043 95.0042 43.0464L95.0135 44.0464ZM95.8611 44.1471L95.6155 45.1164C95.7517 45.1509 95.8813 45.2074 95.9994 45.2835L96.5414 44.4432L97.0835 43.6029C96.7831 43.4091 96.4532 43.2655 96.1067 43.1777L95.8611 44.1471ZM96.5414 44.4432L95.9968 45.2819C96.0878 45.341 96.1671 45.4164 96.2307 45.5044L97.0411 44.9184L97.8515 44.3325C97.6434 44.0447 97.3839 43.7979 97.086 43.6045L96.5414 44.4432ZM97.0411 44.9184L96.2272 45.4995C96.2982 45.5989 96.3512 45.7101 96.3838 45.8278L97.3476 45.561L98.3113 45.2942C98.2163 44.951 98.0619 44.6272 97.855 44.3374L97.0411 44.9184ZM97.3476 45.561L96.416 45.9246C96.4175 45.9283 96.4186 45.9321 96.4194 45.936L97.4001 45.7409L98.3809 45.5458C98.3573 45.4269 98.3232 45.3103 98.2791 45.1974L97.3476 45.561ZM97.4001 45.7409L96.4192 45.9354C96.4243 45.9609 96.4279 45.9867 96.4299 46.0127L97.4268 45.9334L98.4236 45.854C98.4154 45.7507 98.4012 45.648 98.381 45.5464L97.4001 45.7409ZM97.4268 45.9334L96.4308 46.0229C96.4335 46.0534 96.4353 46.0928 96.4366 46.1564L97.4364 46.1347L98.4362 46.113C98.4346 46.0404 98.4319 45.9451 98.4228 45.8438L97.4268 45.9334ZM97.4364 46.1347L96.4366 46.1564C96.4379 46.2119 96.4364 46.241 96.4364 46.3398H97.4364H98.4364C98.4364 46.3024 98.4379 46.1938 98.4362 46.113L97.4364 46.1347ZM97.4364 46.3398L96.4364 46.3393L96.4179 87.9538L97.4179 87.9543L98.4179 87.9547L98.4364 46.3402L97.4364 46.3398Z" fill="#96B3EE" mask="url(#path-2-inside-1_2731_20787)"/>
<path d="M75.5566 50.2109H94.5077V52.8759H75.5566V50.2109Z" fill="white"/>
<path d="M75.5625 71.6675H94.5046V74.3325H75.5625V71.6675Z" fill="white"/>
<path d="M75.5654 77.231H94.5046V79.8959H75.5654V77.231Z" fill="white"/>
<path d="M97.4373 83.166C103.052 83.166 107.604 78.6144 107.604 72.9998C107.604 67.3851 103.052 62.8335 97.4373 62.8335C91.8226 62.8335 87.271 67.3851 87.271 72.9998C87.271 78.6144 91.8226 83.166 97.4373 83.166Z" fill="white" stroke="#006AFF" stroke-width="0.814278"/>
<path d="M96.5305 73.2315L93.1284 73.2258V76.1165L96.528 76.5871L96.5305 73.2315ZM96.984 73.2315V76.6515L101.746 77.3102V73.2388L96.984 73.2315ZM96.5305 69.428L93.1284 69.9109V72.7731H96.5305V69.428ZM96.984 69.3637V72.7714H101.746V68.6895L96.984 69.3637Z" fill="#006AFF"/>
<path d="M65.26 98.32L63.02 105.5H62.06L60.31 100.175C60.27 100.068 60.235 99.94 60.205 99.79C60.1683 99.9433 60.1333 100.072 60.1 100.175L58.33 105.5H57.375L55.135 98.32H56.025C56.1183 98.32 56.1967 98.3433 56.26 98.39C56.3233 98.4333 56.365 98.4933 56.385 98.57L57.8 103.375C57.8267 103.468 57.85 103.57 57.87 103.68C57.8933 103.79 57.9167 103.905 57.94 104.025C57.9633 103.905 57.9867 103.79 58.01 103.68C58.0367 103.57 58.0667 103.468 58.1 103.375L59.72 98.57C59.74 98.5033 59.7817 98.445 59.845 98.395C59.9117 98.345 59.99 98.32 60.08 98.32H60.385C60.4783 98.32 60.555 98.3433 60.615 98.39C60.675 98.4367 60.7183 98.4967 60.745 98.57L62.36 103.375C62.42 103.558 62.4733 103.767 62.52 104C62.56 103.77 62.6033 103.562 62.65 103.375L64.07 98.57C64.0867 98.5033 64.1283 98.445 64.195 98.395C64.2617 98.345 64.34 98.32 64.43 98.32H65.26ZM69.9223 99.49C69.8889 99.5467 69.8539 99.5883 69.8173 99.615C69.7806 99.6417 69.7339 99.655 69.6773 99.655C69.6173 99.655 69.5489 99.6283 69.4723 99.575C69.3956 99.5183 69.2989 99.4567 69.1823 99.39C69.0689 99.32 68.9323 99.2583 68.7723 99.205C68.6123 99.1483 68.4206 99.12 68.1973 99.12C67.9873 99.12 67.8023 99.1483 67.6423 99.205C67.4856 99.2583 67.3539 99.3333 67.2473 99.43C67.1406 99.5233 67.0589 99.635 67.0023 99.765C66.9489 99.8917 66.9223 100.03 66.9223 100.18C66.9223 100.373 66.9706 100.533 67.0673 100.66C67.1673 100.787 67.2973 100.895 67.4573 100.985C67.6173 101.075 67.7989 101.153 68.0023 101.22C68.2056 101.287 68.4139 101.357 68.6273 101.43C68.8406 101.5 69.0489 101.582 69.2523 101.675C69.4556 101.768 69.6373 101.887 69.7973 102.03C69.9573 102.17 70.0856 102.343 70.1823 102.55C70.2823 102.753 70.3323 103.003 70.3323 103.3C70.3323 103.617 70.2773 103.913 70.1673 104.19C70.0606 104.467 69.9039 104.708 69.6973 104.915C69.4906 105.122 69.2356 105.285 68.9323 105.405C68.6323 105.522 68.2906 105.58 67.9073 105.58C67.6773 105.58 67.4539 105.557 67.2373 105.51C67.0206 105.467 66.8156 105.405 66.6223 105.325C66.4289 105.242 66.2473 105.143 66.0773 105.03C65.9106 104.913 65.7606 104.783 65.6273 104.64L65.9323 104.13C65.9623 104.09 65.9973 104.057 66.0373 104.03C66.0806 104.003 66.1289 103.99 66.1823 103.99C66.2523 103.99 66.3323 104.027 66.4223 104.1C66.5156 104.173 66.6289 104.255 66.7623 104.345C66.8989 104.432 67.0606 104.512 67.2473 104.585C67.4373 104.658 67.6673 104.695 67.9373 104.695C68.1573 104.695 68.3539 104.667 68.5273 104.61C68.7006 104.55 68.8456 104.467 68.9623 104.36C69.0823 104.25 69.1739 104.118 69.2373 103.965C69.3006 103.812 69.3323 103.642 69.3323 103.455C69.3323 103.245 69.2839 103.073 69.1873 102.94C69.0906 102.807 68.9623 102.695 68.8023 102.605C68.6423 102.515 68.4606 102.438 68.2573 102.375C68.0539 102.312 67.8456 102.247 67.6323 102.18C67.4189 102.11 67.2106 102.03 67.0073 101.94C66.8039 101.85 66.6223 101.733 66.4623 101.59C66.3023 101.443 66.1739 101.262 66.0773 101.045C65.9806 100.825 65.9323 100.555 65.9323 100.235C65.9323 99.9783 65.9823 99.73 66.0823 99.49C66.1823 99.25 66.3273 99.0383 66.5173 98.855C66.7106 98.6683 66.9473 98.52 67.2273 98.41C67.5073 98.2967 67.8273 98.24 68.1873 98.24C68.5906 98.24 68.9606 98.305 69.2973 98.435C69.6373 98.5617 69.9323 98.745 70.1823 98.985L69.9223 99.49ZM74.4467 104.645C74.7334 104.645 74.9901 104.597 75.2167 104.5C75.4434 104.403 75.6351 104.268 75.7917 104.095C75.9484 103.918 76.0684 103.71 76.1517 103.47C76.2351 103.227 76.2767 102.958 76.2767 102.665V98.32H77.3367V102.665C77.3367 103.085 77.2701 103.473 77.1367 103.83C77.0034 104.187 76.8117 104.495 76.5617 104.755C76.3117 105.015 76.0084 105.218 75.6517 105.365C75.2951 105.512 74.8934 105.585 74.4467 105.585C74.0001 105.585 73.5984 105.512 73.2417 105.365C72.8851 105.218 72.5817 105.015 72.3317 104.755C72.0817 104.495 71.8901 104.187 71.7567 103.83C71.6234 103.473 71.5567 103.085 71.5567 102.665V98.32H72.6217V102.66C72.6217 102.953 72.6617 103.222 72.7417 103.465C72.8251 103.708 72.9451 103.918 73.1017 104.095C73.2584 104.268 73.4501 104.403 73.6767 104.5C73.9034 104.597 74.1601 104.645 74.4467 104.645ZM82.7348 99.49C82.7014 99.5467 82.6664 99.5883 82.6298 99.615C82.5931 99.6417 82.5464 99.655 82.4898 99.655C82.4298 99.655 82.3614 99.6283 82.2848 99.575C82.2081 99.5183 82.1114 99.4567 81.9948 99.39C81.8814 99.32 81.7448 99.2583 81.5848 99.205C81.4248 99.1483 81.2331 99.12 81.0098 99.12C80.7998 99.12 80.6148 99.1483 80.4548 99.205C80.2981 99.2583 80.1664 99.3333 80.0598 99.43C79.9531 99.5233 79.8714 99.635 79.8148 99.765C79.7614 99.8917 79.7348 100.03 79.7348 100.18C79.7348 100.373 79.7831 100.533 79.8798 100.66C79.9798 100.787 80.1098 100.895 80.2698 100.985C80.4298 101.075 80.6114 101.153 80.8148 101.22C81.0181 101.287 81.2264 101.357 81.4398 101.43C81.6531 101.5 81.8614 101.582 82.0648 101.675C82.2681 101.768 82.4498 101.887 82.6098 102.03C82.7698 102.17 82.8981 102.343 82.9948 102.55C83.0948 102.753 83.1448 103.003 83.1448 103.3C83.1448 103.617 83.0898 103.913 82.9798 104.19C82.8731 104.467 82.7164 104.708 82.5098 104.915C82.3031 105.122 82.0481 105.285 81.7448 105.405C81.4448 105.522 81.1031 105.58 80.7198 105.58C80.4898 105.58 80.2664 105.557 80.0498 105.51C79.8331 105.467 79.6281 105.405 79.4348 105.325C79.2414 105.242 79.0598 105.143 78.8898 105.03C78.7231 104.913 78.5731 104.783 78.4398 104.64L78.7448 104.13C78.7748 104.09 78.8098 104.057 78.8498 104.03C78.8931 104.003 78.9414 103.99 78.9948 103.99C79.0648 103.99 79.1448 104.027 79.2348 104.1C79.3281 104.173 79.4414 104.255 79.5748 104.345C79.7114 104.432 79.8731 104.512 80.0598 104.585C80.2498 104.658 80.4798 104.695 80.7498 104.695C80.9698 104.695 81.1664 104.667 81.3398 104.61C81.5131 104.55 81.6581 104.467 81.7748 104.36C81.8948 104.25 81.9864 104.118 82.0498 103.965C82.1131 103.812 82.1448 103.642 82.1448 103.455C82.1448 103.245 82.0964 103.073 81.9998 102.94C81.9031 102.807 81.7748 102.695 81.6148 102.605C81.4548 102.515 81.2731 102.438 81.0698 102.375C80.8664 102.312 80.6581 102.247 80.4448 102.18C80.2314 102.11 80.0231 102.03 79.8198 101.94C79.6164 101.85 79.4348 101.733 79.2748 101.59C79.1148 101.443 78.9864 101.262 78.8898 101.045C78.7931 100.825 78.7448 100.555 78.7448 100.235C78.7448 99.9783 78.7948 99.73 78.8948 99.49C78.9948 99.25 79.1398 99.0383 79.3298 98.855C79.5231 98.6683 79.7598 98.52 80.0398 98.41C80.3198 98.2967 80.6398 98.24 80.9998 98.24C81.4031 98.24 81.7731 98.305 82.1098 98.435C82.4498 98.5617 82.7448 98.745 82.9948 98.985L82.7348 99.49ZM90.7035 99.49C90.6702 99.5467 90.6352 99.5883 90.5985 99.615C90.5618 99.6417 90.5152 99.655 90.4585 99.655C90.3985 99.655 90.3302 99.6283 90.2535 99.575C90.1768 99.5183 90.0802 99.4567 89.9635 99.39C89.8502 99.32 89.7135 99.2583 89.5535 99.205C89.3935 99.1483 89.2018 99.12 88.9785 99.12C88.7685 99.12 88.5835 99.1483 88.4235 99.205C88.2668 99.2583 88.1352 99.3333 88.0285 99.43C87.9218 99.5233 87.8402 99.635 87.7835 99.765C87.7302 99.8917 87.7035 100.03 87.7035 100.18C87.7035 100.373 87.7518 100.533 87.8485 100.66C87.9485 100.787 88.0785 100.895 88.2385 100.985C88.3985 101.075 88.5802 101.153 88.7835 101.22C88.9868 101.287 89.1952 101.357 89.4085 101.43C89.6218 101.5 89.8302 101.582 90.0335 101.675C90.2368 101.768 90.4185 101.887 90.5785 102.03C90.7385 102.17 90.8668 102.343 90.9635 102.55C91.0635 102.753 91.1135 103.003 91.1135 103.3C91.1135 103.617 91.0585 103.913 90.9485 104.19C90.8418 104.467 90.6852 104.708 90.4785 104.915C90.2718 105.122 90.0168 105.285 89.7135 105.405C89.4135 105.522 89.0718 105.58 88.6885 105.58C88.4585 105.58 88.2352 105.557 88.0185 105.51C87.8018 105.467 87.5968 105.405 87.4035 105.325C87.2102 105.242 87.0285 105.143 86.8585 105.03C86.6918 104.913 86.5418 104.783 86.4085 104.64L86.7135 104.13C86.7435 104.09 86.7785 104.057 86.8185 104.03C86.8618 104.003 86.9102 103.99 86.9635 103.99C87.0335 103.99 87.1135 104.027 87.2035 104.1C87.2968 104.173 87.4102 104.255 87.5435 104.345C87.6802 104.432 87.8418 104.512 88.0285 104.585C88.2185 104.658 88.4485 104.695 88.7185 104.695C88.9385 104.695 89.1352 104.667 89.3085 104.61C89.4818 104.55 89.6268 104.467 89.7435 104.36C89.8635 104.25 89.9552 104.118 90.0185 103.965C90.0818 103.812 90.1135 103.642 90.1135 103.455C90.1135 103.245 90.0652 103.073 89.9685 102.94C89.8718 102.807 89.7435 102.695 89.5835 102.605C89.4235 102.515 89.2418 102.438 89.0385 102.375C88.8352 102.312 88.6268 102.247 88.4135 102.18C88.2002 102.11 87.9918 102.03 87.7885 101.94C87.5852 101.85 87.4035 101.733 87.2435 101.59C87.0835 101.443 86.9552 101.262 86.8585 101.045C86.7618 100.825 86.7135 100.555 86.7135 100.235C86.7135 99.9783 86.7635 99.73 86.8635 99.49C86.9635 99.25 87.1085 99.0383 87.2985 98.855C87.4918 98.6683 87.7285 98.52 88.0085 98.41C88.2885 98.2967 88.6085 98.24 88.9685 98.24C89.3718 98.24 89.7418 98.305 90.0785 98.435C90.4185 98.5617 90.7135 98.745 90.9635 98.985L90.7035 99.49ZM95.5637 102.395C95.5637 102.202 95.5353 102.023 95.4787 101.86C95.4253 101.697 95.3453 101.555 95.2387 101.435C95.132 101.315 95.002 101.222 94.8487 101.155C94.6953 101.088 94.5187 101.055 94.3187 101.055C93.9087 101.055 93.5853 101.173 93.3487 101.41C93.1153 101.647 92.967 101.975 92.9037 102.395H95.5637ZM96.3687 104.775C96.2487 104.915 96.1103 105.037 95.9537 105.14C95.797 105.24 95.6303 105.322 95.4537 105.385C95.277 105.448 95.0937 105.495 94.9037 105.525C94.717 105.555 94.532 105.57 94.3487 105.57C93.9987 105.57 93.6737 105.512 93.3737 105.395C93.077 105.275 92.8187 105.102 92.5987 104.875C92.382 104.645 92.212 104.362 92.0887 104.025C91.9687 103.685 91.9087 103.295 91.9087 102.855C91.9087 102.502 91.9637 102.173 92.0737 101.87C92.1837 101.563 92.3403 101.297 92.5437 101.07C92.7503 100.843 93.002 100.665 93.2987 100.535C93.5953 100.405 93.9287 100.34 94.2987 100.34C94.6087 100.34 94.8937 100.392 95.1537 100.495C95.417 100.595 95.6437 100.742 95.8337 100.935C96.0237 101.128 96.172 101.367 96.2787 101.65C96.3887 101.933 96.4437 102.257 96.4437 102.62C96.4437 102.77 96.427 102.872 96.3937 102.925C96.3603 102.975 96.2987 103 96.2087 103H92.8787C92.8887 103.303 92.932 103.568 93.0087 103.795C93.0853 104.018 93.1903 104.205 93.3237 104.355C93.4603 104.505 93.622 104.617 93.8087 104.69C93.9953 104.763 94.2037 104.8 94.4337 104.8C94.6503 104.8 94.837 104.775 94.9937 104.725C95.1537 104.675 95.2903 104.622 95.4037 104.565C95.5203 104.505 95.617 104.45 95.6937 104.4C95.7737 104.35 95.8437 104.325 95.9037 104.325C95.9837 104.325 96.0453 104.355 96.0887 104.415L96.3687 104.775ZM98.4116 101.395C98.575 101.062 98.7716 100.8 99.0016 100.61C99.2316 100.42 99.5083 100.325 99.8316 100.325C99.9416 100.325 100.045 100.338 100.142 100.365C100.242 100.388 100.328 100.425 100.402 100.475L100.337 101.21C100.313 101.3 100.258 101.345 100.172 101.345C100.125 101.345 100.055 101.337 99.9616 101.32C99.8683 101.3 99.7683 101.29 99.6616 101.29C99.505 101.29 99.3666 101.313 99.2466 101.36C99.1266 101.403 99.0183 101.47 98.9216 101.56C98.8283 101.647 98.745 101.755 98.6716 101.885C98.5983 102.012 98.53 102.157 98.4666 102.32V105.5H97.4916V100.42H98.0516C98.1583 100.42 98.23 100.44 98.2666 100.48C98.3066 100.517 98.335 100.583 98.3516 100.68L98.4116 101.395ZM105.564 100.42L103.504 105.5H102.624L100.564 100.42H101.369C101.445 100.42 101.509 100.438 101.559 100.475C101.609 100.512 101.642 100.558 101.659 100.615L102.874 103.735C102.917 103.865 102.954 103.995 102.984 104.125C103.017 104.252 103.047 104.378 103.074 104.505C103.1 104.378 103.13 104.252 103.164 104.125C103.197 103.998 103.237 103.868 103.284 103.735L104.514 100.615C104.534 100.558 104.569 100.512 104.619 100.475C104.669 100.438 104.729 100.42 104.799 100.42H105.564ZM109.558 102.395C109.558 102.202 109.529 102.023 109.473 101.86C109.419 101.697 109.339 101.555 109.233 101.435C109.126 101.315 108.996 101.222 108.843 101.155C108.689 101.088 108.513 101.055 108.313 101.055C107.903 101.055 107.579 101.173 107.343 101.41C107.109 101.647 106.961 101.975 106.898 102.395H109.558ZM110.363 104.775C110.243 104.915 110.104 105.037 109.948 105.14C109.791 105.24 109.624 105.322 109.448 105.385C109.271 105.448 109.088 105.495 108.898 105.525C108.711 105.555 108.526 105.57 108.343 105.57C107.993 105.57 107.668 105.512 107.368 105.395C107.071 105.275 106.813 105.102 106.593 104.875C106.376 104.645 106.206 104.362 106.083 104.025C105.963 103.685 105.903 103.295 105.903 102.855C105.903 102.502 105.958 102.173 106.068 101.87C106.178 101.563 106.334 101.297 106.538 101.07C106.744 100.843 106.996 100.665 107.293 100.535C107.589 100.405 107.923 100.34 108.293 100.34C108.603 100.34 108.888 100.392 109.148 100.495C109.411 100.595 109.638 100.742 109.828 100.935C110.018 101.128 110.166 101.367 110.273 101.65C110.383 101.933 110.438 102.257 110.438 102.62C110.438 102.77 110.421 102.872 110.388 102.925C110.354 102.975 110.293 103 110.203 103H106.873C106.883 103.303 106.926 103.568 107.003 103.795C107.079 104.018 107.184 104.205 107.318 104.355C107.454 104.505 107.616 104.617 107.803 104.69C107.989 104.763 108.198 104.8 108.428 104.8C108.644 104.8 108.831 104.775 108.988 104.725C109.148 104.675 109.284 104.622 109.398 104.565C109.514 104.505 109.611 104.45 109.688 104.4C109.768 104.35 109.838 104.325 109.898 104.325C109.978 104.325 110.039 104.355 110.083 104.415L110.363 104.775ZM112.406 101.395C112.569 101.062 112.766 100.8 112.996 100.61C113.226 100.42 113.502 100.325 113.826 100.325C113.936 100.325 114.039 100.338 114.136 100.365C114.236 100.388 114.322 100.425 114.396 100.475L114.331 101.21C114.307 101.3 114.252 101.345 114.166 101.345C114.119 101.345 114.049 101.337 113.956 101.32C113.862 101.3 113.762 101.29 113.656 101.29C113.499 101.29 113.361 101.313 113.241 101.36C113.121 101.403 113.012 101.47 112.916 101.56C112.822 101.647 112.739 101.755 112.666 101.885C112.592 102.012 112.524 102.157 112.461 102.32V105.5H111.486V100.42H112.046C112.152 100.42 112.224 100.44 112.261 100.48C112.301 100.517 112.329 100.583 112.346 100.68L112.406 101.395Z" fill="#2A303D"/>
</svg>
