<svg width="138" height="106" viewBox="0 0 138 106" fill="none" xmlns="http://www.w3.org/2000/svg">
<rect x="0.5" y="0.5" width="137" height="104.164" rx="9.5" fill="#F0F4FD"/>
<rect x="0.5" y="0.5" width="137" height="104.164" rx="9.5" stroke="#96A0B7" stroke-dasharray="4 4"/>
<path d="M52.0229 41.4258C52.1877 40.4688 52.5791 39.5652 53.1644 38.7904C53.6288 38.1776 54.218 37.6703 54.8931 37.3022C55.5682 36.9342 56.3138 36.7137 57.0805 36.6555C57.2691 36.6617 57.4543 36.605 57.6072 36.4945C57.7601 36.384 57.872 36.2258 57.9252 36.0448C58.269 35.1282 58.8489 34.3189 59.6063 33.6988C60.3637 33.0786 61.2717 32.6698 62.238 32.5136C62.9674 32.3791 63.7182 32.4176 64.43 32.6262C64.4836 32.6488 64.5412 32.6605 64.5994 32.6603C64.6577 32.6602 64.7153 32.6483 64.7688 32.6253C64.8223 32.6024 64.8706 32.5688 64.9108 32.5267C64.9511 32.4847 64.9824 32.4349 65.0029 32.3804C65.6464 31.2637 66.5441 30.3144 67.6233 29.6098C68.7025 28.9052 69.9326 28.4651 71.2138 28.3252C73.0034 28.1197 74.8115 28.497 76.3695 29.4011C77.9275 30.3052 79.1522 31.6878 79.8617 33.3435C80.2739 34.3155 80.5103 35.3529 80.5598 36.4075C80.5716 36.6732 80.6738 36.765 80.9403 36.8124C82.1792 37.0404 83.3019 37.6877 84.1197 38.6458C84.9376 39.6039 85.4008 40.8142 85.4315 42.0735C85.4549 43.3886 85.0176 44.6704 84.1953 45.697C83.3731 46.7235 82.2177 47.4302 80.9292 47.6945C80.1887 47.8124 79.438 47.8526 78.6891 47.8144C78.4981 47.8144 78.4145 47.7218 78.4175 47.5331C78.4219 47.2503 78.4271 46.9675 78.4175 46.6855C78.4093 46.4478 78.5063 46.3612 78.7446 46.3605C79.2879 46.3735 79.8315 46.3586 80.3732 46.3161C81.3426 46.2058 82.24 45.7507 82.9018 45.0339C83.5637 44.3171 83.9457 43.3862 83.9784 42.4111C84.0295 41.3867 83.702 40.3792 83.0582 39.5807C82.4144 38.7822 81.4992 38.2485 80.4872 38.0812C80.1763 38.0331 79.8625 37.9991 79.5493 37.9783C79.248 37.9591 79.1104 37.8481 79.1229 37.5157C79.171 36.6909 79.1072 35.8634 78.9334 35.0557C78.5938 33.629 77.8101 32.3468 76.6951 31.394C75.5801 30.4412 74.1915 29.8669 72.7292 29.7539C71.7908 29.661 70.8435 29.77 69.9507 30.0735C69.058 30.377 68.2405 30.868 67.5532 31.5135C67.0146 32.0233 66.5712 32.6249 66.2436 33.2902C66.06 33.6477 65.8579 33.9949 65.6743 34.3525C65.6616 34.3911 65.6403 34.4263 65.6121 34.4555C65.5839 34.4848 65.5495 34.5074 65.5115 34.5216C65.4734 34.5358 65.4326 34.5413 65.3921 34.5376C65.3516 34.534 65.3125 34.5213 65.2776 34.5005C65.0163 34.3939 64.7394 34.3199 64.4877 34.1955C63.9555 33.9547 63.3728 33.8468 62.7896 33.8811C62.2065 33.9154 61.6404 34.0909 61.1402 34.3925C60.6292 34.6407 60.1825 35.0038 59.835 35.4532C59.4875 35.9027 59.2486 36.4264 59.137 36.9834C59.0807 37.2262 59.0008 37.4653 58.9586 37.7104C58.912 37.9783 58.7713 38.059 58.5085 38.0539C57.7925 37.9971 57.072 38.0627 56.378 38.2478C55.5123 38.5085 54.7571 39.0483 54.2302 39.783C53.7033 40.5177 53.4343 41.4061 53.465 42.3097C53.4596 43.2536 53.7885 44.169 54.3933 44.8938C54.9982 45.6185 55.8399 46.1058 56.7696 46.2694C57.3704 46.3689 57.981 46.3973 58.5885 46.3538C58.9157 46.3383 59.0459 46.4478 59.0171 46.7795C58.9941 47.0386 59.0104 47.2977 59.0104 47.5619C59.0142 47.5943 59.0108 47.6271 59.0004 47.658C58.9901 47.6889 58.9731 47.7171 58.9506 47.7407C58.9282 47.7643 58.9008 47.7827 58.8704 47.7945C58.8401 47.8064 58.8075 47.8114 58.775 47.8092C56.7474 47.938 54.9026 47.542 53.4628 45.9696C52.7633 45.2024 52.288 44.2577 52.0888 43.2387C52.0711 43.1543 52.0466 43.0714 52.0252 42.987L52.0229 41.4258Z" fill="#4276E0"/>
<path fill-rule="evenodd" clip-rule="evenodd" d="M70.0465 52.7087V54.0887C70.0464 54.1217 70.0374 54.1541 70.0203 54.1823C70.0031 54.2105 69.9786 54.2335 69.9493 54.2488C69.92 54.2641 69.8871 54.2711 69.8542 54.269C69.8212 54.267 69.7894 54.2559 69.7622 54.2371L68.0101 52.8391C67.9914 52.8224 67.9766 52.8019 67.9666 52.7789C67.9566 52.7559 67.9517 52.731 67.9522 52.706C67.9518 52.6809 67.9567 52.6561 67.9667 52.6331C67.9767 52.6102 67.9915 52.5896 68.0101 52.5728L69.7622 51.1749C69.7894 51.156 69.8213 51.145 69.8543 51.1429C69.8873 51.1409 69.9203 51.1479 69.9496 51.1633C69.9789 51.1787 70.0034 51.2018 70.0205 51.2301C70.0376 51.2584 70.0466 51.2909 70.0465 51.324V52.7033V52.7087Z" fill="#006AFF" stroke="#006AFF" stroke-width="0.332854"/>
<path fill-rule="evenodd" clip-rule="evenodd" d="M69.0412 52.2597C70.3711 52.2498 71.6553 51.7728 72.6693 50.9123C73.6834 50.0517 74.3629 48.8623 74.5891 47.5517C74.8153 46.2411 74.5739 44.8927 73.907 43.742C73.2401 42.5913 72.1901 41.7115 70.9405 41.2562C70.8203 41.2086 70.7234 41.1161 70.6702 40.9982C70.617 40.8804 70.6116 40.7465 70.6554 40.6248C70.6991 40.5032 70.7885 40.4033 70.9045 40.3464C71.0206 40.2894 71.1543 40.2798 71.2773 40.3196C72.7476 40.8541 73.9831 41.8885 74.7678 43.2419C75.5525 44.5952 75.8363 46.1814 75.5698 47.7229C75.3032 49.2645 74.5032 50.6632 73.3096 51.6745C72.116 52.6858 70.6049 53.2452 69.0405 53.255L69.0412 52.2597Z" fill="#006AFF" stroke="#006AFF" stroke-width="0.332854"/>
<path fill-rule="evenodd" clip-rule="evenodd" d="M67.9536 40.4621V39.0821C67.9537 39.0491 67.9628 39.0167 67.9799 38.9885C67.997 38.9602 68.0216 38.9372 68.0508 38.9219C68.0801 38.9066 68.113 38.8997 68.146 38.9017C68.179 38.9038 68.2107 38.9148 68.2379 38.9336L69.99 40.3316C70.0086 40.3484 70.0234 40.3689 70.0334 40.3919C70.0434 40.4149 70.0483 40.4397 70.0479 40.4648C70.0484 40.4898 70.0435 40.5147 70.0335 40.5377C70.0235 40.5606 70.0087 40.5812 69.99 40.5979L68.2379 41.9959C68.2107 42.0148 68.1789 42.0258 68.1458 42.0278C68.1128 42.0299 68.0799 42.0228 68.0506 42.0075C68.0213 41.9921 67.9968 41.969 67.9797 41.9407C67.9626 41.9123 67.9536 41.8799 67.9536 41.8468V40.4668V40.4621Z" fill="#006AFF" stroke="#006AFF" stroke-width="0.332854"/>
<path fill-rule="evenodd" clip-rule="evenodd" d="M68.9592 40.9134C67.6291 40.9229 66.3446 41.3996 65.3303 42.26C64.316 43.1205 63.6363 44.3101 63.41 45.6208C63.1837 46.9316 63.4253 48.2802 64.0925 49.4309C64.7597 50.5816 65.81 51.4613 67.0599 51.9162C67.1801 51.9639 67.277 52.0564 67.3302 52.1742C67.3834 52.292 67.3887 52.4259 67.3449 52.5476C67.3012 52.6693 67.2118 52.7691 67.0958 52.8261C66.9797 52.8831 66.8461 52.8927 66.7231 52.8529C65.2528 52.3183 64.0173 51.2839 63.2326 49.9306C62.4479 48.5772 62.164 46.991 62.4305 45.4495C62.6971 43.908 63.4972 42.5093 64.6908 41.498C65.8843 40.4867 67.3955 39.9272 68.9598 39.9175L68.9592 40.9134Z" fill="#006AFF" stroke="#006AFF" stroke-width="0.332854"/>
<path d="M19.7884 69.3791C19.7884 69.4991 19.7517 69.6141 19.6784 69.7241L15.7134 75.2991H19.7184V76.1641H14.3184V75.7441C14.3184 75.6874 14.3267 75.6341 14.3434 75.5841C14.3634 75.5341 14.3884 75.4857 14.4184 75.4391L18.3934 69.8491H14.5184V68.9841H19.7884V69.3791ZM22.7094 71.0041C23.0827 71.0041 23.4194 71.0657 23.7194 71.1891C24.0227 71.3091 24.2794 71.4841 24.4894 71.7141C24.7027 71.9407 24.866 72.2157 24.9794 72.5391C25.0927 72.8591 25.1494 73.2191 25.1494 73.6191C25.1494 74.0191 25.0927 74.3807 24.9794 74.7041C24.866 75.0274 24.7027 75.3024 24.4894 75.5291C24.2794 75.7557 24.0227 75.9307 23.7194 76.0541C23.4194 76.1741 23.0827 76.2341 22.7094 76.2341C22.3327 76.2341 21.9927 76.1741 21.6894 76.0541C21.3894 75.9307 21.1327 75.7557 20.9194 75.5291C20.706 75.3024 20.541 75.0274 20.4244 74.7041C20.311 74.3807 20.2544 74.0191 20.2544 73.6191C20.2544 73.2191 20.311 72.8591 20.4244 72.5391C20.541 72.2157 20.706 71.9407 20.9194 71.7141C21.1327 71.4841 21.3894 71.3091 21.6894 71.1891C21.9927 71.0657 22.3327 71.0041 22.7094 71.0041ZM22.7094 75.4741C23.1894 75.4741 23.5477 75.3124 23.7844 74.9891C24.021 74.6657 24.1394 74.2107 24.1394 73.6241C24.1394 73.0374 24.021 72.5824 23.7844 72.2591C23.5477 71.9324 23.1894 71.7691 22.7094 71.7691C22.2227 71.7691 21.8594 71.9324 21.6194 72.2591C21.3827 72.5824 21.2644 73.0374 21.2644 73.6241C21.2644 74.2107 21.3827 74.6657 21.6194 74.9891C21.8594 75.3124 22.2227 75.4741 22.7094 75.4741ZM27.2127 71.7291C27.4261 71.5124 27.6611 71.3374 27.9177 71.2041C28.1777 71.0707 28.4761 71.0041 28.8127 71.0041C29.0927 71.0041 29.3377 71.0507 29.5477 71.1441C29.7611 71.2374 29.9394 71.3691 30.0827 71.5391C30.2261 71.7057 30.3344 71.9074 30.4077 72.1441C30.4811 72.3807 30.5177 72.6424 30.5177 72.9291V76.1641H29.5377V72.9291C29.5377 72.5657 29.4544 72.2841 29.2877 72.0841C29.1211 71.8807 28.8661 71.7791 28.5227 71.7791C28.2727 71.7791 28.0377 71.8391 27.8177 71.9591C27.6011 72.0757 27.3994 72.2357 27.2127 72.4391V76.1641H26.2377V68.7841H27.2127V71.7291ZM33.9984 71.0041C34.3718 71.0041 34.7084 71.0657 35.0084 71.1891C35.3118 71.3091 35.5684 71.4841 35.7784 71.7141C35.9918 71.9407 36.1551 72.2157 36.2684 72.5391C36.3818 72.8591 36.4384 73.2191 36.4384 73.6191C36.4384 74.0191 36.3818 74.3807 36.2684 74.7041C36.1551 75.0274 35.9918 75.3024 35.7784 75.5291C35.5684 75.7557 35.3118 75.9307 35.0084 76.0541C34.7084 76.1741 34.3718 76.2341 33.9984 76.2341C33.6218 76.2341 33.2818 76.1741 32.9784 76.0541C32.6784 75.9307 32.4218 75.7557 32.2084 75.5291C31.9951 75.3024 31.8301 75.0274 31.7134 74.7041C31.6001 74.3807 31.5434 74.0191 31.5434 73.6191C31.5434 73.2191 31.6001 72.8591 31.7134 72.5391C31.8301 72.2157 31.9951 71.9407 32.2084 71.7141C32.4218 71.4841 32.6784 71.3091 32.9784 71.1891C33.2818 71.0657 33.6218 71.0041 33.9984 71.0041ZM33.9984 75.4741C34.4784 75.4741 34.8368 75.3124 35.0734 74.9891C35.3101 74.6657 35.4284 74.2107 35.4284 73.6241C35.4284 73.0374 35.3101 72.5824 35.0734 72.2591C34.8368 71.9324 34.4784 71.7691 33.9984 71.7691C33.5118 71.7691 33.1484 71.9324 32.9084 72.2591C32.6718 72.5824 32.5534 73.0374 32.5534 73.6241C32.5534 74.2107 32.6718 74.6657 32.9084 74.9891C33.1484 75.3124 33.5118 75.4741 33.9984 75.4741ZM46.5211 72.5741C46.5211 73.1107 46.4344 73.5991 46.2611 74.0391C46.0911 74.4791 45.8494 74.8574 45.5361 75.1741C45.2228 75.4874 44.8478 75.7307 44.4111 75.9041C43.9744 76.0774 43.4894 76.1641 42.9561 76.1641H40.2561V68.9841H42.9561C43.4894 68.9841 43.9744 69.0707 44.4111 69.2441C44.8478 69.4174 45.2228 69.6624 45.5361 69.9791C45.8494 70.2924 46.0911 70.6707 46.2611 71.1141C46.4344 71.5541 46.5211 72.0407 46.5211 72.5741ZM45.4311 72.5741C45.4311 72.1474 45.3728 71.7657 45.2561 71.4291C45.1394 71.0891 44.9728 70.8024 44.7561 70.5691C44.5428 70.3324 44.2828 70.1524 43.9761 70.0291C43.6728 69.9057 43.3328 69.8441 42.9561 69.8441H41.3261V75.3041H42.9561C43.3328 75.3041 43.6728 75.2424 43.9761 75.1191C44.2828 74.9957 44.5428 74.8174 44.7561 74.5841C44.9728 74.3474 45.1394 74.0607 45.2561 73.7241C45.3728 73.3874 45.4311 73.0041 45.4311 72.5741ZM48.5859 71.0841V76.1641H47.6109V71.0841H48.5859ZM48.7709 69.5141C48.7709 69.6041 48.7525 69.6907 48.7159 69.7741C48.6792 69.8541 48.6292 69.9257 48.5659 69.9891C48.5059 70.0491 48.4342 70.0974 48.3509 70.1341C48.2675 70.1674 48.1809 70.1841 48.0909 70.1841C48.0009 70.1841 47.9159 70.1674 47.8359 70.1341C47.7559 70.0974 47.6842 70.0491 47.6209 69.9891C47.5609 69.9257 47.5125 69.8541 47.4759 69.7741C47.4425 69.6907 47.4259 69.6041 47.4259 69.5141C47.4259 69.4207 47.4425 69.3341 47.4759 69.2541C47.5125 69.1707 47.5609 69.0991 47.6209 69.0391C47.6842 68.9757 47.7559 68.9274 47.8359 68.8941C47.9159 68.8574 48.0009 68.8391 48.0909 68.8391C48.1809 68.8391 48.2675 68.8574 48.3509 68.8941C48.4342 68.9274 48.5059 68.9757 48.5659 69.0391C48.6292 69.0991 48.6792 69.1707 48.7159 69.2541C48.7525 69.3341 48.7709 69.4207 48.7709 69.5141ZM50.9175 72.0591C51.0808 71.7257 51.2775 71.4641 51.5075 71.2741C51.7375 71.0841 52.0142 70.9891 52.3375 70.9891C52.4475 70.9891 52.5508 71.0024 52.6475 71.0291C52.7475 71.0524 52.8342 71.0891 52.9075 71.1391L52.8425 71.8741C52.8192 71.9641 52.7642 72.0091 52.6775 72.0091C52.6308 72.0091 52.5608 72.0007 52.4675 71.9841C52.3742 71.9641 52.2742 71.9541 52.1675 71.9541C52.0108 71.9541 51.8725 71.9774 51.7525 72.0241C51.6325 72.0674 51.5242 72.1341 51.4275 72.2241C51.3342 72.3107 51.2508 72.4191 51.1775 72.5491C51.1042 72.6757 51.0358 72.8207 50.9725 72.9841V76.1641H49.9975V71.0841H50.5575C50.6642 71.0841 50.7358 71.1041 50.7725 71.1441C50.8125 71.1807 50.8408 71.2474 50.8575 71.3441L50.9175 72.0591ZM56.8391 73.0591C56.8391 72.8657 56.8107 72.6874 56.7541 72.5241C56.7007 72.3607 56.6207 72.2191 56.5141 72.0991C56.4074 71.9791 56.2774 71.8857 56.1241 71.8191C55.9707 71.7524 55.7941 71.7191 55.5941 71.7191C55.1841 71.7191 54.8607 71.8374 54.6241 72.0741C54.3907 72.3107 54.2424 72.6391 54.1791 73.0591H56.8391ZM57.6441 75.4391C57.5241 75.5791 57.3857 75.7007 57.2291 75.8041C57.0724 75.9041 56.9057 75.9857 56.7291 76.0491C56.5524 76.1124 56.3691 76.1591 56.1791 76.1891C55.9924 76.2191 55.8074 76.2341 55.6241 76.2341C55.2741 76.2341 54.9491 76.1757 54.6491 76.0591C54.3524 75.9391 54.0941 75.7657 53.8741 75.5391C53.6574 75.3091 53.4874 75.0257 53.3641 74.6891C53.2441 74.3491 53.1841 73.9591 53.1841 73.5191C53.1841 73.1657 53.2391 72.8374 53.3491 72.5341C53.4591 72.2274 53.6157 71.9607 53.8191 71.7341C54.0257 71.5074 54.2774 71.3291 54.5741 71.1991C54.8707 71.0691 55.2041 71.0041 55.5741 71.0041C55.8841 71.0041 56.1691 71.0557 56.4291 71.1591C56.6924 71.2591 56.9191 71.4057 57.1091 71.5991C57.2991 71.7924 57.4474 72.0307 57.5541 72.3141C57.6641 72.5974 57.7191 72.9207 57.7191 73.2841C57.7191 73.4341 57.7024 73.5357 57.6691 73.5891C57.6357 73.6391 57.5741 73.6641 57.4841 73.6641H54.1541C54.1641 73.9674 54.2074 74.2324 54.2841 74.4591C54.3607 74.6824 54.4657 74.8691 54.5991 75.0191C54.7357 75.1691 54.8974 75.2807 55.0841 75.3541C55.2707 75.4274 55.4791 75.4641 55.7091 75.4641C55.9257 75.4641 56.1124 75.4391 56.2691 75.3891C56.4291 75.3391 56.5657 75.2857 56.6791 75.2291C56.7957 75.1691 56.8924 75.1141 56.9691 75.0641C57.0491 75.0141 57.1191 74.9891 57.1791 74.9891C57.2591 74.9891 57.3207 75.0191 57.3641 75.0791L57.6441 75.4391ZM62.327 72.0341C62.297 72.0707 62.267 72.1007 62.237 72.1241C62.2104 72.1441 62.1704 72.1541 62.117 72.1541C62.0637 72.1541 62.007 72.1341 61.947 72.0941C61.8904 72.0507 61.817 72.0057 61.727 71.9591C61.6404 71.9091 61.5337 71.8641 61.407 71.8241C61.2837 71.7807 61.1304 71.7591 60.947 71.7591C60.707 71.7591 60.4954 71.8024 60.312 71.8891C60.1287 71.9757 59.9754 72.0991 59.852 72.2591C59.732 72.4191 59.6404 72.6141 59.577 72.8441C59.5137 73.0741 59.482 73.3324 59.482 73.6191C59.482 73.9157 59.5154 74.1807 59.582 74.4141C59.6487 74.6441 59.7437 74.8391 59.867 74.9991C59.9904 75.1557 60.1404 75.2757 60.317 75.3591C60.4937 75.4391 60.6904 75.4791 60.907 75.4791C61.117 75.4791 61.2904 75.4541 61.427 75.4041C61.5637 75.3507 61.677 75.2941 61.767 75.2341C61.857 75.1741 61.932 75.1191 61.992 75.0691C62.052 75.0157 62.1137 74.9891 62.177 74.9891C62.257 74.9891 62.3187 75.0191 62.362 75.0791L62.642 75.4391C62.5254 75.5824 62.3937 75.7041 62.247 75.8041C62.1037 75.9041 61.9504 75.9857 61.787 76.0491C61.6237 76.1124 61.452 76.1591 61.272 76.1891C61.0954 76.2191 60.9154 76.2341 60.732 76.2341C60.4154 76.2341 60.1187 76.1757 59.842 76.0591C59.5687 75.9424 59.3304 75.7724 59.127 75.5491C58.927 75.3257 58.7687 75.0524 58.652 74.7291C58.5354 74.4024 58.477 74.0324 58.477 73.6191C58.477 73.2424 58.5287 72.8941 58.632 72.5741C58.7387 72.2541 58.8937 71.9791 59.097 71.7491C59.3037 71.5157 59.557 71.3341 59.857 71.2041C60.157 71.0707 60.5004 71.0041 60.887 71.0041C61.2504 71.0041 61.5704 71.0624 61.847 71.1791C62.1237 71.2957 62.3704 71.4607 62.587 71.6741L62.327 72.0341ZM65.1422 76.2441C64.7322 76.2441 64.4155 76.1291 64.1922 75.8991C63.9722 75.6691 63.8622 75.3407 63.8622 74.9141V71.8741H63.2722C63.2155 71.8741 63.1672 71.8574 63.1272 71.8241C63.0905 71.7874 63.0722 71.7341 63.0722 71.6641V71.2691L63.8972 71.1541L64.1172 69.6391C64.1305 69.5824 64.1555 69.5391 64.1922 69.5091C64.2322 69.4757 64.2822 69.4591 64.3422 69.4591H64.8372V71.1641H66.2772V71.8741H64.8372V74.8491C64.8372 75.0491 64.8855 75.1991 64.9822 75.2991C65.0822 75.3957 65.2089 75.4441 65.3622 75.4441C65.4522 75.4441 65.5289 75.4324 65.5922 75.4091C65.6589 75.3857 65.7155 75.3607 65.7622 75.3341C65.8089 75.3041 65.8489 75.2774 65.8822 75.2541C65.9155 75.2307 65.9455 75.2191 65.9722 75.2191C66.0055 75.2191 66.0305 75.2274 66.0472 75.2441C66.0672 75.2574 66.0872 75.2807 66.1072 75.3141L66.3972 75.7841C66.2372 75.9307 66.0472 76.0441 65.8272 76.1241C65.6072 76.2041 65.3789 76.2441 65.1422 76.2441ZM69.3109 71.0041C69.6843 71.0041 70.0209 71.0657 70.3209 71.1891C70.6243 71.3091 70.8809 71.4841 71.0909 71.7141C71.3043 71.9407 71.4676 72.2157 71.5809 72.5391C71.6943 72.8591 71.7509 73.2191 71.7509 73.6191C71.7509 74.0191 71.6943 74.3807 71.5809 74.7041C71.4676 75.0274 71.3043 75.3024 71.0909 75.5291C70.8809 75.7557 70.6243 75.9307 70.3209 76.0541C70.0209 76.1741 69.6843 76.2341 69.3109 76.2341C68.9343 76.2341 68.5943 76.1741 68.2909 76.0541C67.9909 75.9307 67.7343 75.7557 67.5209 75.5291C67.3076 75.3024 67.1426 75.0274 67.0259 74.7041C66.9126 74.3807 66.8559 74.0191 66.8559 73.6191C66.8559 73.2191 66.9126 72.8591 67.0259 72.5391C67.1426 72.2157 67.3076 71.9407 67.5209 71.7141C67.7343 71.4841 67.9909 71.3091 68.2909 71.1891C68.5943 71.0657 68.9343 71.0041 69.3109 71.0041ZM69.3109 75.4741C69.7909 75.4741 70.1493 75.3124 70.3859 74.9891C70.6226 74.6657 70.7409 74.2107 70.7409 73.6241C70.7409 73.0374 70.6226 72.5824 70.3859 72.2591C70.1493 71.9324 69.7909 71.7691 69.3109 71.7691C68.8243 71.7691 68.4609 71.9324 68.2209 72.2591C67.9843 72.5824 67.8659 73.0374 67.8659 73.6241C67.8659 74.2107 67.9843 74.6657 68.2209 74.9891C68.4609 75.3124 68.8243 75.4741 69.3109 75.4741ZM73.7593 72.0591C73.9226 71.7257 74.1193 71.4641 74.3493 71.2741C74.5793 71.0841 74.856 70.9891 75.1793 70.9891C75.2893 70.9891 75.3926 71.0024 75.4893 71.0291C75.5893 71.0524 75.676 71.0891 75.7493 71.1391L75.6843 71.8741C75.661 71.9641 75.606 72.0091 75.5193 72.0091C75.4726 72.0091 75.4026 72.0007 75.3093 71.9841C75.216 71.9641 75.116 71.9541 75.0093 71.9541C74.8526 71.9541 74.7143 71.9774 74.5943 72.0241C74.4743 72.0674 74.366 72.1341 74.2693 72.2241C74.176 72.3107 74.0926 72.4191 74.0193 72.5491C73.946 72.6757 73.8776 72.8207 73.8143 72.9841V76.1641H72.8393V71.0841H73.3993C73.506 71.0841 73.5776 71.1041 73.6143 71.1441C73.6543 71.1807 73.6826 71.2474 73.6993 71.3441L73.7593 72.0591ZM80.9414 71.0841L78.1214 77.6391C78.0914 77.7124 78.0514 77.7691 78.0014 77.8091C77.9514 77.8491 77.8781 77.8691 77.7814 77.8691H77.0564L77.9864 75.8441L75.9014 71.0841H76.7514C76.8347 71.0841 76.8997 71.1041 76.9464 71.1441C76.9931 71.1841 77.0264 71.2291 77.0464 71.2791L78.3364 74.3291C78.3631 74.4057 78.3881 74.4841 78.4114 74.5641C78.4381 74.6407 78.4597 74.7174 78.4764 74.7941C78.4997 74.7141 78.5247 74.6357 78.5514 74.5591C78.5781 74.4791 78.6064 74.4007 78.6364 74.3241L79.8814 71.2791C79.9047 71.2224 79.9414 71.1757 79.9914 71.1391C80.0414 71.1024 80.0981 71.0841 80.1614 71.0841H80.9414ZM87.8871 70.1541C87.8538 70.2107 87.8188 70.2524 87.7821 70.2791C87.7454 70.3057 87.6988 70.3191 87.6421 70.3191C87.5821 70.3191 87.5138 70.2924 87.4371 70.2391C87.3604 70.1824 87.2638 70.1207 87.1471 70.0541C87.0338 69.9841 86.8971 69.9224 86.7371 69.8691C86.5771 69.8124 86.3854 69.7841 86.1621 69.7841C85.9521 69.7841 85.7671 69.8124 85.6071 69.8691C85.4504 69.9224 85.3188 69.9974 85.2121 70.0941C85.1054 70.1874 85.0238 70.2991 84.9671 70.4291C84.9138 70.5557 84.8871 70.6941 84.8871 70.8441C84.8871 71.0374 84.9354 71.1974 85.0321 71.3241C85.1321 71.4507 85.2621 71.5591 85.4221 71.6491C85.5821 71.7391 85.7638 71.8174 85.9671 71.8841C86.1704 71.9507 86.3788 72.0207 86.5921 72.0941C86.8054 72.1641 87.0138 72.2457 87.2171 72.3391C87.4204 72.4324 87.6021 72.5507 87.7621 72.6941C87.9221 72.8341 88.0504 73.0074 88.1471 73.2141C88.2471 73.4174 88.2971 73.6674 88.2971 73.9641C88.2971 74.2807 88.2421 74.5774 88.1321 74.8541C88.0254 75.1307 87.8688 75.3724 87.6621 75.5791C87.4554 75.7857 87.2004 75.9491 86.8971 76.0691C86.5971 76.1857 86.2554 76.2441 85.8721 76.2441C85.6421 76.2441 85.4188 76.2207 85.2021 76.1741C84.9854 76.1307 84.7804 76.0691 84.5871 75.9891C84.3938 75.9057 84.2121 75.8074 84.0421 75.6941C83.8754 75.5774 83.7254 75.4474 83.5921 75.3041L83.8971 74.7941C83.9271 74.7541 83.9621 74.7207 84.0021 74.6941C84.0454 74.6674 84.0938 74.6541 84.1471 74.6541C84.2171 74.6541 84.2971 74.6907 84.3871 74.7641C84.4804 74.8374 84.5938 74.9191 84.7271 75.0091C84.8638 75.0957 85.0254 75.1757 85.2121 75.2491C85.4021 75.3224 85.6321 75.3591 85.9021 75.3591C86.1221 75.3591 86.3188 75.3307 86.4921 75.2741C86.6654 75.2141 86.8104 75.1307 86.9271 75.0241C87.0471 74.9141 87.1388 74.7824 87.2021 74.6291C87.2654 74.4757 87.2971 74.3057 87.2971 74.1191C87.2971 73.9091 87.2488 73.7374 87.1521 73.6041C87.0554 73.4707 86.9271 73.3591 86.7671 73.2691C86.6071 73.1791 86.4254 73.1024 86.2221 73.0391C86.0188 72.9757 85.8104 72.9107 85.5971 72.8441C85.3838 72.7741 85.1754 72.6941 84.9721 72.6041C84.7688 72.5141 84.5871 72.3974 84.4271 72.2541C84.2671 72.1074 84.1388 71.9257 84.0421 71.7091C83.9454 71.4891 83.8971 71.2191 83.8971 70.8991C83.8971 70.6424 83.9471 70.3941 84.0471 70.1541C84.1471 69.9141 84.2921 69.7024 84.4821 69.5191C84.6754 69.3324 84.9121 69.1841 85.1921 69.0741C85.4721 68.9607 85.7921 68.9041 86.1521 68.9041C86.5554 68.9041 86.9254 68.9691 87.2621 69.0991C87.6021 69.2257 87.8971 69.4091 88.1471 69.6491L87.8871 70.1541ZM93.5879 71.0841L90.7679 77.6391C90.7379 77.7124 90.6979 77.7691 90.6479 77.8091C90.5979 77.8491 90.5246 77.8691 90.4279 77.8691H89.7029L90.6329 75.8441L88.5479 71.0841H89.3979C89.4812 71.0841 89.5462 71.1041 89.5929 71.1441C89.6396 71.1841 89.6729 71.2291 89.6929 71.2791L90.9829 74.3291C91.0096 74.4057 91.0346 74.4841 91.0579 74.5641C91.0846 74.6407 91.1062 74.7174 91.1229 74.7941C91.1462 74.7141 91.1712 74.6357 91.1979 74.5591C91.2246 74.4791 91.2529 74.4007 91.2829 74.3241L92.5279 71.2791C92.5512 71.2224 92.5879 71.1757 92.6379 71.1391C92.6879 71.1024 92.7446 71.0841 92.8079 71.0841H93.5879ZM95.2484 71.7891C95.3584 71.6724 95.4734 71.5657 95.5934 71.4691C95.7134 71.3724 95.8401 71.2907 95.9734 71.2241C96.1101 71.1541 96.2551 71.1007 96.4084 71.0641C96.5651 71.0241 96.7318 71.0041 96.9084 71.0041C97.1884 71.0041 97.4334 71.0507 97.6434 71.1441C97.8568 71.2374 98.0351 71.3691 98.1784 71.5391C98.3218 71.7057 98.4301 71.9074 98.5034 72.1441C98.5768 72.3807 98.6134 72.6424 98.6134 72.9291V76.1641H97.6334V72.9291C97.6334 72.5657 97.5501 72.2841 97.3834 72.0841C97.2168 71.8807 96.9618 71.7791 96.6184 71.7791C96.3684 71.7791 96.1334 71.8391 95.9134 71.9591C95.6968 72.0757 95.4951 72.2357 95.3084 72.4391V76.1641H94.3334V71.0841H94.9184C95.0551 71.0841 95.1401 71.1491 95.1734 71.2791L95.2484 71.7891ZM103.489 72.0341C103.459 72.0707 103.429 72.1007 103.399 72.1241C103.372 72.1441 103.332 72.1541 103.279 72.1541C103.226 72.1541 103.169 72.1341 103.109 72.0941C103.052 72.0507 102.979 72.0057 102.889 71.9591C102.802 71.9091 102.696 71.8641 102.569 71.8241C102.446 71.7807 102.292 71.7591 102.109 71.7591C101.869 71.7591 101.657 71.8024 101.474 71.8891C101.291 71.9757 101.137 72.0991 101.014 72.2591C100.894 72.4191 100.802 72.6141 100.739 72.8441C100.676 73.0741 100.644 73.3324 100.644 73.6191C100.644 73.9157 100.677 74.1807 100.744 74.4141C100.811 74.6441 100.906 74.8391 101.029 74.9991C101.152 75.1557 101.302 75.2757 101.479 75.3591C101.656 75.4391 101.852 75.4791 102.069 75.4791C102.279 75.4791 102.452 75.4541 102.589 75.4041C102.726 75.3507 102.839 75.2941 102.929 75.2341C103.019 75.1741 103.094 75.1191 103.154 75.0691C103.214 75.0157 103.276 74.9891 103.339 74.9891C103.419 74.9891 103.481 75.0191 103.524 75.0791L103.804 75.4391C103.687 75.5824 103.556 75.7041 103.409 75.8041C103.266 75.9041 103.112 75.9857 102.949 76.0491C102.786 76.1124 102.614 76.1591 102.434 76.1891C102.257 76.2191 102.077 76.2341 101.894 76.2341C101.577 76.2341 101.281 76.1757 101.004 76.0591C100.731 75.9424 100.492 75.7724 100.289 75.5491C100.089 75.3257 99.9308 75.0524 99.8141 74.7291C99.6975 74.4024 99.6391 74.0324 99.6391 73.6191C99.6391 73.2424 99.6908 72.8941 99.7941 72.5741C99.9008 72.2541 100.056 71.9791 100.259 71.7491C100.466 71.5157 100.719 71.3341 101.019 71.2041C101.319 71.0707 101.662 71.0041 102.049 71.0041C102.412 71.0041 102.732 71.0624 103.009 71.1791C103.286 71.2957 103.532 71.4607 103.749 71.6741L103.489 72.0341ZM108.834 76.2441C108.424 76.2441 108.107 76.1291 107.884 75.8991C107.664 75.6691 107.554 75.3407 107.554 74.9141V71.8741H106.964C106.907 71.8741 106.859 71.8574 106.819 71.8241C106.782 71.7874 106.764 71.7341 106.764 71.6641V71.2691L107.589 71.1541L107.809 69.6391C107.822 69.5824 107.847 69.5391 107.884 69.5091C107.924 69.4757 107.974 69.4591 108.034 69.4591H108.529V71.1641H109.969V71.8741H108.529V74.8491C108.529 75.0491 108.577 75.1991 108.674 75.2991C108.774 75.3957 108.9 75.4441 109.054 75.4441C109.144 75.4441 109.22 75.4324 109.284 75.4091C109.35 75.3857 109.407 75.3607 109.454 75.3341C109.5 75.3041 109.54 75.2774 109.574 75.2541C109.607 75.2307 109.637 75.2191 109.664 75.2191C109.697 75.2191 109.722 75.2274 109.739 75.2441C109.759 75.2574 109.779 75.2807 109.799 75.3141L110.089 75.7841C109.929 75.9307 109.739 76.0441 109.519 76.1241C109.299 76.2041 109.07 76.2441 108.834 76.2441ZM113.002 71.0041C113.376 71.0041 113.712 71.0657 114.012 71.1891C114.316 71.3091 114.572 71.4841 114.782 71.7141C114.996 71.9407 115.159 72.2157 115.272 72.5391C115.386 72.8591 115.442 73.2191 115.442 73.6191C115.442 74.0191 115.386 74.3807 115.272 74.7041C115.159 75.0274 114.996 75.3024 114.782 75.5291C114.572 75.7557 114.316 75.9307 114.012 76.0541C113.712 76.1741 113.376 76.2341 113.002 76.2341C112.626 76.2341 112.286 76.1741 111.982 76.0541C111.682 75.9307 111.426 75.7557 111.212 75.5291C110.999 75.3024 110.834 75.0274 110.717 74.7041C110.604 74.3807 110.547 74.0191 110.547 73.6191C110.547 73.2191 110.604 72.8591 110.717 72.5391C110.834 72.2157 110.999 71.9407 111.212 71.7141C111.426 71.4841 111.682 71.3091 111.982 71.1891C112.286 71.0657 112.626 71.0041 113.002 71.0041ZM113.002 75.4741C113.482 75.4741 113.841 75.3124 114.077 74.9891C114.314 74.6657 114.432 74.2107 114.432 73.6241C114.432 73.0374 114.314 72.5824 114.077 72.2591C113.841 71.9324 113.482 71.7691 113.002 71.7691C112.516 71.7691 112.152 71.9324 111.912 72.2591C111.676 72.5824 111.557 73.0374 111.557 73.6241C111.557 74.2107 111.676 74.6657 111.912 74.9891C112.152 75.3124 112.516 75.4741 113.002 75.4741ZM118.696 71.0041C119.069 71.0041 119.406 71.0657 119.706 71.1891C120.009 71.3091 120.266 71.4841 120.476 71.7141C120.689 71.9407 120.852 72.2157 120.966 72.5391C121.079 72.8591 121.136 73.2191 121.136 73.6191C121.136 74.0191 121.079 74.3807 120.966 74.7041C120.852 75.0274 120.689 75.3024 120.476 75.5291C120.266 75.7557 120.009 75.9307 119.706 76.0541C119.406 76.1741 119.069 76.2341 118.696 76.2341C118.319 76.2341 117.979 76.1741 117.676 76.0541C117.376 75.9307 117.119 75.7557 116.906 75.5291C116.692 75.3024 116.527 75.0274 116.411 74.7041C116.297 74.3807 116.241 74.0191 116.241 73.6191C116.241 73.2191 116.297 72.8591 116.411 72.5391C116.527 72.2157 116.692 71.9407 116.906 71.7141C117.119 71.4841 117.376 71.3091 117.676 71.1891C117.979 71.0657 118.319 71.0041 118.696 71.0041ZM118.696 75.4741C119.176 75.4741 119.534 75.3124 119.771 74.9891C120.007 74.6657 120.126 74.2107 120.126 73.6241C120.126 73.0374 120.007 72.5824 119.771 72.2591C119.534 71.9324 119.176 71.7691 118.696 71.7691C118.209 71.7691 117.846 71.9324 117.606 72.2591C117.369 72.5824 117.251 73.0374 117.251 73.6241C117.251 74.2107 117.369 74.6657 117.606 74.9891C117.846 75.3124 118.209 75.4741 118.696 75.4741ZM123.224 68.7841V76.1641H122.244V68.7841H123.224Z" fill="#2A303D"/>
</svg>
